<svg width="202" height="32" viewBox="0 0 202 32" fill="none" xmlns="http://www.w3.org/2000/svg">
<g clipPath="url(#clip0_2094_73092)">
<path fillRule="evenodd" clipRule="evenodd" d="M16.212 7.97897C16.212 13.672 20.8265 18.2854 26.5185 18.2854C28.495 18.2854 30.3424 17.7293 31.9116 16.7639C31.4796 25.1634 24.5321 31.8407 16.0263 31.8407C7.24042 31.8407 0.119141 24.7184 0.119141 15.9326C0.119141 7.14766 7.24042 0.0253906 16.0263 0.0253906C17.2281 0.0253906 18.3971 0.158473 19.5224 0.41174C17.4093 2.36065 16.2087 5.10533 16.212 7.97996V7.97897Z" fill="#D51C5B"/>
<path d="M26.5141 15.9326C22.1215 15.9326 18.5605 12.3716 18.5605 7.97897C18.5605 3.58633 22.1215 0.0253906 26.5141 0.0253906C30.9068 0.0253906 34.4677 3.58633 34.4677 7.97897C34.4677 12.3716 30.9068 15.9326 26.5141 15.9326ZM198.831 15.9355V3.99424L198.76 4.08958L192.423 13.8587L186.111 3.99424L186.04 4.08958V15.9345H183.177V1.26689H187.787L192.423 8.96025L197.119 1.26689H201.694V15.9355H198.831ZM173.584 7.9452C175.317 7.9452 176.183 7.28571 176.183 5.96574C176.183 5.23475 175.961 4.70139 175.516 4.36768C175.071 4.03396 174.37 3.86711 173.417 3.86711H166.054V7.9452H173.584ZM175.782 15.9355L171.942 10.5454H166.054V15.9355H163.193V1.26689H174.013C174.793 1.26689 175.492 1.37814 176.112 1.60161C176.713 1.80315 177.265 2.12789 177.733 2.55508C178.179 2.95236 178.521 3.43804 178.759 4.01012C178.998 4.58221 179.117 5.21886 179.117 5.91808C179.117 7.10992 178.807 8.08822 178.187 8.852C177.567 9.59889 176.351 10.3786 175.114 10.3786L179.073 15.9355H175.782ZM152.114 3.70025L148.848 10.1869H155.357L152.114 3.70025ZM158.266 15.9355L156.688 12.7871H147.515L145.939 15.9355H143.007L150.447 1.26689H153.757L161.198 15.9355H158.266ZM138.054 15.9355V9.61478H127.758V15.9355H124.896V1.26689H127.758V7.01556H138.054V1.26689H140.916V15.9355C140.916 15.9355 138.054 15.9355 138.054 15.9355ZM117.274 7.9452C119.007 7.9452 119.873 7.28571 119.873 5.96574C119.873 5.23475 119.651 4.70139 119.206 4.36768C118.761 4.03396 118.061 3.86711 117.107 3.86711H110.73V7.9452H117.274ZM117.703 1.26689C118.482 1.26689 119.182 1.37814 119.802 1.60161C120.403 1.80315 120.955 2.12789 121.424 2.55508C121.869 2.95236 122.211 3.43804 122.45 4.01012C122.688 4.58221 122.807 5.21886 122.807 5.91808C122.807 7.41285 122.331 8.55701 121.376 9.35257C120.423 10.1471 119.039 10.5444 117.226 10.5444H110.73V15.9355H107.869V1.26689H117.703Z" fill="#225FAD"/>
<path d="M101.67 15.9352V9.61449H91.3744V15.9352H88.512V1.2666H91.3744V7.01527H101.67V1.2666H104.532V15.9352C104.532 15.9352 101.67 15.9352 101.67 15.9352ZM69.8199 15.9352V13.335L80.5216 3.86682H69.9857V1.2666H84.6226V3.86682L73.897 13.335H85.1708V15.9352C85.1708 15.9352 69.8199 15.9352 69.8199 15.9352ZM63.3988 15.9352V1.2666H66.2612V15.9352H63.3988ZM55.7531 15.9352L45.7843 3.69896V15.9352H42.9209V1.2666H47.1897L57.1595 13.5029V1.2666H60.0219V15.9352C60.0219 15.9352 55.7531 15.9352 55.7531 15.9352Z" fill="#D51C5B"/>
<path d="M100.775 20.7351C101.911 20.7351 102.804 21.0062 103.455 21.5495C104.106 22.0908 104.431 22.8377 104.431 23.7892C104.431 24.7407 104.106 25.4876 103.455 26.0299C102.804 26.5722 101.911 26.8443 100.775 26.8443H98.6103V29.4972H97.3588V20.7351C97.3588 20.7351 100.775 20.7351 100.775 20.7351ZM100.739 25.7548C101.531 25.7548 102.136 25.5879 102.553 25.2542C102.97 24.9115 103.179 24.4239 103.179 23.7892C103.179 23.1555 102.97 22.6709 102.553 22.3371C102.136 21.9955 101.531 21.8237 100.739 21.8237H98.6103V25.7548H100.739ZM87.7059 29.5985C86.5379 29.5985 85.6281 29.2637 84.9776 28.5963C84.326 27.9289 84.0012 26.9685 84.0012 25.717V20.7351H85.2527V25.6674C85.2527 27.5445 86.0741 28.4841 87.7188 28.4841C88.5193 28.4841 89.1331 28.2547 89.5582 27.7948C89.9843 27.328 90.1968 26.6189 90.1968 25.6674V20.7351H91.4115V25.717C91.4115 26.9774 91.0858 27.9418 90.4352 28.6092C89.7837 29.2677 88.8739 29.5975 87.7059 29.5975V29.5985ZM74.1407 29.5965C73.2558 29.5965 72.4592 29.4048 71.7491 29.0204C71.0554 28.6428 70.4762 28.0853 70.0725 27.4065C69.6713 26.7211 69.4716 25.9584 69.4716 25.1151C69.4716 24.2729 69.6713 23.5091 70.0725 22.8248C70.4743 22.1475 71.0542 21.5933 71.7491 21.2228C72.4592 20.8304 73.2558 20.6338 74.1407 20.6338C75.0167 20.6338 75.8093 20.8305 76.5184 21.2228C77.2121 21.5911 77.789 22.146 78.184 22.8248C78.5843 23.5002 78.7849 24.265 78.7849 25.1151C78.7849 25.9663 78.5843 26.7341 78.184 27.4194C77.7842 28.0944 77.2085 28.6481 76.5184 29.0214C75.8093 29.4048 75.0167 29.5975 74.1407 29.5975V29.5965ZM74.1407 28.4831C74.7833 28.4831 75.3584 28.3371 75.8679 28.0451C76.3745 27.7627 76.7943 27.3471 77.0816 26.8433C77.3843 26.3182 77.54 25.7212 77.5325 25.1151C77.5325 24.4815 77.3825 23.9094 77.0816 23.4009C76.7975 22.8912 76.3773 22.4706 75.8679 22.1862C75.3584 21.8942 74.7833 21.7492 74.1397 21.7492C73.4981 21.7492 72.9131 21.8942 72.3877 22.1862C71.8763 22.4724 71.4523 22.8923 71.1611 23.4009C70.8656 23.9233 70.7145 24.515 70.7231 25.1151C70.7231 25.7498 70.8691 26.3259 71.1611 26.8433C71.4555 27.3461 71.879 27.761 72.3877 28.0451C72.9141 28.3371 73.4981 28.4821 74.1407 28.4821V28.4831ZM63.5621 29.4972L61.673 26.8056C61.4396 26.8224 61.2559 26.8314 61.1228 26.8314H58.9576V29.4972H57.7052V20.7351H61.1218C62.257 20.7351 63.1509 21.0062 63.8014 21.5495C64.452 22.0908 64.7778 22.8377 64.7778 23.7892C64.7778 24.4646 64.6109 25.0407 64.2772 25.5174C63.9435 25.9921 63.4677 26.3388 62.85 26.5563L64.9278 29.4972H63.5631H63.5621ZM61.084 25.7677C61.8766 25.7677 62.4815 25.5958 62.8986 25.2542C63.3158 24.9115 63.5243 24.4239 63.5243 23.7892C63.5243 23.1555 63.3158 22.6709 62.8986 22.3371C62.4815 21.9955 61.8766 21.8237 61.084 21.8237H58.9556V25.7667H61.084V25.7677ZM50.7319 25.0655H51.9336V28.4821C51.4843 28.8498 50.9703 29.1304 50.418 29.3094C49.8367 29.5023 49.2279 29.5996 48.6153 29.5975C47.7314 29.5975 46.9339 29.4048 46.2247 29.0214C45.5329 28.6458 44.9538 28.0925 44.5472 27.4184C44.1469 26.735 43.9463 25.9663 43.9463 25.1151C43.9463 24.264 44.1469 23.4962 44.5472 22.8119C44.9494 22.1342 45.53 21.5801 46.2257 21.2099C46.9428 20.8265 47.7483 20.6338 48.6412 20.6338C49.3424 20.6338 49.976 20.751 50.5432 20.9844C51.1033 21.1989 51.6052 21.5422 52.0081 21.9865L51.2324 22.7622C50.5312 22.0868 49.684 21.7492 48.6908 21.7492C48.0234 21.7492 47.4225 21.8942 46.8882 22.1862C46.3704 22.4626 45.9409 22.879 45.6486 23.3879C45.3443 23.9124 45.1888 24.5099 45.1987 25.1161C45.1911 25.7218 45.3465 26.3183 45.6486 26.8433C45.9496 27.3518 46.3628 27.7531 46.8882 28.0451C47.4381 28.3408 48.0545 28.4912 48.6789 28.4821C49.4635 28.4821 50.1469 28.2954 50.7319 27.9199C50.7319 27.9199 50.7319 25.0655 50.7319 25.0655Z" fill="#7C7B7B"/>
</g>
<defs>
<clipPath id="clip0_2094_73092">
<rect width="201.956" height="32" fill="white" transform="translate(-0.00390625)"/>
</clipPath>
</defs>
</svg>
