<svg width="129" height="32" viewBox="0 0 129 32" fill="none" xmlns="http://www.w3.org/2000/svg">
<g clipPath="url(#clip0_2094_72686)">
<path d="M128.173 0.0673828H0.414062V31.8474H128.173V0.0673828Z" fill="#F5BF1B"/>
<path d="M128.173 0.0927734H96.2676V31.8471H128.173V0.0927734Z" fill="#010101"/>
<path d="M111.097 8.44066L108.558 19.7715L113.251 16.0678L118.125 20.1031L115.416 8.44066C115.416 8.44066 111.097 8.44066 111.097 8.44066ZM112.403 15.1093L113.238 10.9328L114.05 15.1093H112.403ZM106.303 8.70257C105.665 8.26596 104.856 8.04785 103.875 8.04785C103.153 8.04785 102.394 8.18906 101.838 8.47079C101.282 8.75292 100.847 9.13937 100.534 9.63069C100.22 10.1218 100.031 10.6328 99.9683 11.1632C99.9049 11.6938 99.9927 12.4899 99.9927 13.5511V17.8536C99.9927 19.2966 99.9763 20.3776 100.182 21.096C100.387 21.8146 100.806 22.3777 101.439 22.7838C102.071 23.1896 102.994 23.3926 103.969 23.3928L107.701 20.4477C107.807 19.8032 107.86 18.9074 107.86 17.7596V16.9466H104.765V19.0317C104.765 19.8379 104.776 20.2166 104.585 20.476C104.394 20.7359 103.678 20.9683 103.318 20.4482C103.187 20.2595 103.208 19.8835 103.208 19.1689V12.3356C103.208 11.5907 103.206 11.0894 103.318 10.8818C103.563 10.427 104.388 10.4992 104.539 10.8228C104.623 11.0016 104.645 11.4721 104.645 12.2169V14.4788H107.86V13.3774C107.86 12.0012 107.76 10.9872 107.56 10.3352C107.36 9.68345 106.94 9.13918 106.303 8.70257ZM117.29 8.48446V11.3419H119.438V21.1898L121.906 23.2334H122.898V11.3419H125.046V8.48446H117.29Z" fill="white"/>
<path d="M113.252 17.0283L120.886 23.2906H105.406L113.252 17.0283Z" fill="#F0C31B"/>
<path d="M20.0801 5.41602H23.9152C24.6026 5.41602 25.1191 5.50044 25.4649 5.66928C25.8106 5.83811 26.096 6.07931 26.3211 6.39187C26.5462 6.70543 26.6588 7.08732 26.6588 7.53656C26.6588 8.4491 26.1643 9.05712 25.1754 9.36264C25.7463 9.49128 26.1744 9.74655 26.4598 10.1295C26.7452 10.5114 26.8879 10.9274 26.8879 11.3777C26.8879 11.9937 26.6548 12.5254 26.1885 12.9746C25.7221 13.4228 24.9644 13.6469 23.9152 13.6469H20.0801C20.0801 13.6469 20.0801 5.41601 20.0801 5.41602ZM22.0036 6.86924V8.6722H23.4629C23.9976 8.6722 24.3342 8.56668 24.4729 8.35563C24.6116 8.14458 24.681 7.94258 24.681 7.74962C24.681 7.54058 24.6237 7.36068 24.5091 7.20993C24.3945 7.05918 24.2689 6.96471 24.1322 6.92652C23.9955 6.88833 23.7262 6.86924 23.3242 6.86924H22.0036ZM22.0036 10.1375V12.1214H23.484C23.9895 12.1214 24.3463 12.0329 24.5553 11.856C24.7634 11.6792 24.8679 11.4319 24.8679 11.1144C24.8679 10.849 24.7674 10.6199 24.5674 10.4269C24.3664 10.234 24.0337 10.1375 23.5684 10.1375H22.0036Z" fill="#231F20"/>
<path d="M30.1809 7.42969C31.1085 7.42969 31.8321 7.7332 32.3527 8.34022C32.8723 8.94723 33.1326 9.70701 33.1326 10.6195C33.1326 11.52 32.8622 12.2708 32.3226 12.8717C31.7819 13.4727 31.0643 13.7732 30.1688 13.7732C29.3015 13.7732 28.6081 13.4757 28.0875 12.8808C27.5679 12.2858 27.3076 11.522 27.3076 10.5894C27.3076 9.94218 27.4252 9.39245 27.6604 8.9402C27.8945 8.48795 28.2171 8.12313 28.6272 7.84575C29.0362 7.56837 29.5548 7.42969 30.1809 7.42969ZM30.2291 8.60553C29.8885 8.60553 29.6322 8.73719 29.4593 9.0005C29.2875 9.2638 29.201 9.78741 29.201 10.5713C29.201 11.2909 29.2834 11.8075 29.4473 12.121C29.6121 12.4346 29.8684 12.5914 30.2171 12.5914C30.5216 12.5914 30.7678 12.4577 30.9568 12.1904C31.1447 11.923 31.2392 11.4135 31.2392 10.6618C31.2392 9.86178 31.1558 9.31908 30.9899 9.03366C30.8231 8.74824 30.5698 8.60553 30.2291 8.60553Z" fill="#231F20"/>
<path d="M39.2376 11.3612C39.1692 12.0808 38.8848 12.6627 38.3843 13.1069C37.8838 13.5511 37.2376 13.7732 36.4457 13.7732C35.5854 13.7732 34.8849 13.4888 34.3442 12.92C33.8035 12.3512 33.5332 11.5904 33.5332 10.6376C33.5332 9.6849 33.8096 8.91206 34.3623 8.31911C34.9151 7.72616 35.6537 7.42969 36.5783 7.42969C37.322 7.42969 37.9381 7.65279 38.4265 8.09901C38.915 8.54523 39.1853 9.10401 39.2376 9.77535L37.5612 9.87183C37.505 9.14019 37.1874 8.77437 36.6085 8.77437C35.897 8.77437 35.5412 9.35728 35.5412 10.5231C35.5412 11.2989 35.6407 11.7914 35.8397 12.0004C36.0387 12.2095 36.2809 12.314 36.5663 12.314C37.121 12.314 37.4527 11.9622 37.5612 11.2587L39.2376 11.3612Z" fill="#231F20"/>
<path d="M40.8738 13.6469V8.86514H39.1914V7.55664H44.3048V8.86514H42.6707V13.6469C42.6707 13.6469 40.8738 13.6469 40.8738 13.6469Z" fill="#231F20"/>
<path d="M47.1272 7.42969C48.0548 7.42969 48.7784 7.7332 49.299 8.34022C49.8186 8.94723 50.0789 9.70701 50.0789 10.6195C50.0789 11.52 49.8085 12.2708 49.2688 12.8717C48.7282 13.4727 48.0106 13.7732 47.1151 13.7732C46.2478 13.7732 45.5544 13.4757 45.0338 12.8808C44.5142 12.2858 44.2539 11.522 44.2539 10.5894C44.2539 9.94218 44.3715 9.39245 44.6067 8.9402C44.8408 8.48795 45.1634 8.12313 45.5735 7.84575C45.9825 7.56837 46.5011 7.42969 47.1272 7.42969ZM47.1754 8.60553C46.8347 8.60553 46.5785 8.73719 46.4056 9.0005C46.2338 9.2638 46.1473 9.78741 46.1473 10.5713C46.1473 11.2909 46.2297 11.8075 46.3935 12.121C46.5584 12.4346 46.8146 12.5914 47.1634 12.5914C47.4679 12.5914 47.7141 12.4577 47.9031 12.1904C48.091 11.923 48.1855 11.4135 48.1855 10.6618C48.1855 9.86178 48.102 9.31908 47.9362 9.03366C47.7694 8.74824 47.5161 8.60553 47.1754 8.60553Z" fill="#231F20"/>
<path d="M54.0924 13.6469V11.3897C53.626 11.7123 53.1014 11.8741 52.5185 11.8741C51.8753 11.8741 51.404 11.7073 51.1045 11.3736C50.805 11.04 50.6553 10.5998 50.6553 10.0531V7.55664H52.4522V9.86211C52.4522 10.1907 52.5125 10.4068 52.6331 10.5113C52.7537 10.6159 52.9326 10.6681 53.1698 10.6681C53.5155 10.6681 53.823 10.5736 54.0924 10.3857V7.55664H55.8893V13.6469H54.0924Z" fill="#231F20"/>
<path d="M56.9893 13.6469V7.55664H58.7862V9.75155H60.6495V7.55664H62.4464V13.6469H60.6495V11.0601H58.7862V13.6469H56.9893Z" fill="#231F20"/>
<path d="M68.8609 13.6466H67.1182C67.062 13.4054 67.0338 13.0878 67.0338 12.6939C66.7283 13.128 66.4248 13.4165 66.1213 13.5592C65.8188 13.7019 65.4741 13.7732 65.0891 13.7732C64.5193 13.7732 64.059 13.6185 63.7073 13.3089C63.3565 12.9994 63.1807 12.5833 63.1807 12.0607C63.1807 11.6788 63.2832 11.3271 63.4882 11.0055C63.6922 10.6839 64.0218 10.4316 64.4751 10.2487C64.9284 10.0658 65.7555 9.93012 66.9554 9.84168V9.49194C66.9554 8.901 66.661 8.60553 66.072 8.60553C65.4429 8.60553 65.0922 8.901 65.0198 9.49194L63.3616 9.33516C63.4701 8.64372 63.7977 8.15328 64.3444 7.86385C64.8912 7.57441 65.5102 7.42969 66.2017 7.42969C66.6157 7.42969 67.0057 7.47792 67.3715 7.5744C67.7373 7.67088 68.0227 7.8156 68.2278 8.00856C68.4328 8.20152 68.5715 8.40554 68.6438 8.62061C68.7162 8.83568 68.7524 9.21054 68.7524 9.7452V12.5069C68.7524 13.0376 68.7886 13.4175 68.8609 13.6466ZM66.9554 10.7281C65.7012 10.8527 65.0741 11.2326 65.0741 11.8678C65.0741 12.0808 65.1404 12.2647 65.2721 12.4195C65.4047 12.5743 65.5927 12.6517 65.8379 12.6517C66.1545 12.6517 66.4198 12.52 66.6338 12.2567C66.8479 11.9934 66.9554 11.6688 66.9554 11.2828L66.9554 10.7281Z" fill="#231F20"/>
<path d="M73.1871 13.6469V11.3073H71.9951L70.961 13.6469H69.2676L70.6545 10.9364C69.947 10.6631 69.5932 10.1636 69.5932 9.43599C69.5932 8.84203 69.7761 8.37973 70.1419 8.0511C70.5077 7.72146 71.0022 7.55664 71.6253 7.55664H74.984V13.6469H73.1871ZM73.2232 10.1375V8.70837H72.0353C71.5449 8.70837 71.2997 8.96163 71.2997 9.46814C71.2997 9.91436 71.5328 10.1375 71.9992 10.1375H73.2232Z" fill="#231F20"/>
<path d="M25.296 18.1777V19.8058H23.2578V26.4087H21.3041V19.8058H19.2539V18.1777H25.296Z" fill="#231F20"/>
<path d="M30.5816 23.6647H26.6621C26.6581 23.7732 26.6561 23.8677 26.6561 23.9481C26.6561 24.3823 26.7717 24.7099 27.0028 24.931C27.234 25.1521 27.5104 25.2626 27.832 25.2626C28.4309 25.2626 28.7907 24.943 28.9113 24.3039L30.5394 24.4245C30.0852 25.8315 29.1626 26.535 27.7717 26.535C27.1646 26.535 26.6491 26.4134 26.225 26.1701C25.8009 25.9269 25.4511 25.5722 25.1758 25.1059C24.9004 24.6395 24.7627 24.0808 24.7627 23.4295C24.7627 22.4607 25.0391 21.6788 25.5918 21.0838C26.1446 20.4889 26.8551 20.1914 27.7234 20.1914C28.5073 20.1914 29.1797 20.4678 29.7405 21.0205C30.3012 21.5733 30.5816 22.4547 30.5816 23.6647ZM26.6561 22.6215H28.8209C28.7646 21.7853 28.4209 21.3673 27.7898 21.3673C27.1144 21.3673 26.7365 21.7853 26.6561 22.6215Z" fill="#231F20"/>
<path d="M36.2042 20.3184L34.4474 23.1384L36.4996 26.4086H34.4504L33.1852 24.3072L31.938 26.4086H30.4033L32.4173 23.1243L30.6807 20.3184H32.7299L33.6997 21.9656L34.6695 20.3184C34.6695 20.3184 36.2042 20.3184 36.2042 20.3184Z" fill="#231F20"/>
<path d="M36.8584 26.4086V20.3184H38.6553V22.5133H40.5186V20.3184H42.3155V26.4086H40.5186V23.8218H38.6553V26.4086H36.8584Z" fill="#231F20"/>
<path d="M45.213 25.7755V26.4086H43.416V20.3184H45.213V22.6359C45.213 23.0449 45.1969 23.5012 45.1647 24.0027C45.4692 23.4811 45.7356 23.062 45.9647 22.7454L47.1546 21.0962V20.3184H48.9515V26.4086H47.1546V24.2409C47.1546 23.7424 47.1727 23.2329 47.2089 22.7113C46.9928 23.2248 46.7416 23.6761 46.4571 24.066L45.213 25.7755Z" fill="#231F20"/>
<path d="M53.9652 22.4108L56.0636 26.4086H54.1773L52.7642 23.6911L51.8487 24.6599V26.4086H50.0518V20.3184H51.8487V21.8389C51.8487 22.0841 51.8407 22.4429 51.8246 22.9133C51.9653 22.7082 52.1361 22.4992 52.3371 22.2861L54.1773 20.3184H55.8406L53.9652 22.4108Z" fill="#231F20"/>
<path d="M61.5601 26.4083H59.8175C59.7612 26.1671 59.733 25.8495 59.733 25.4556C59.4275 25.8897 59.124 26.1782 58.8205 26.3209C58.518 26.4636 58.1733 26.5349 57.7884 26.5349C57.2185 26.5349 56.7583 26.3802 56.4065 26.0706C56.0558 25.7611 55.8799 25.345 55.8799 24.8224C55.8799 24.4405 55.9824 24.0888 56.1874 23.7672C56.3914 23.4456 56.7211 23.1933 57.1743 23.0104C57.6276 22.8275 58.4547 22.6918 59.6547 22.6034V22.2537C59.6547 21.6627 59.3602 21.3672 58.7713 21.3672C58.1421 21.3672 57.7914 21.6627 57.719 22.2537L56.0608 22.0969C56.1693 21.4054 56.4969 20.915 57.0437 20.6256C57.5904 20.3361 58.2095 20.1914 58.9009 20.1914C59.315 20.1914 59.7049 20.2396 60.0707 20.3361C60.4365 20.4326 60.7219 20.5773 60.927 20.7703C61.132 20.9632 61.2707 21.1673 61.343 21.3823C61.4154 21.5974 61.4516 21.9723 61.4516 22.5069V25.2687C61.4516 25.7993 61.4878 26.1792 61.5601 26.4083ZM59.6547 23.4898C58.4004 23.6144 57.7733 23.9943 57.7733 24.6295C57.7733 24.8425 57.8396 25.0264 57.9713 25.1812C58.104 25.336 58.2919 25.4134 58.5371 25.4134C58.8537 25.4134 59.119 25.2817 59.3331 25.0184C59.5471 24.7551 59.6547 24.4305 59.6547 24.0446L59.6547 23.4898Z" fill="#231F20"/>
</g>
<defs>
<clipPath id="clip0_2094_72686">
<rect width="128" height="32" fill="white" transform="translate(0.335938)"/>
</clipPath>
</defs>
</svg>
