<svg width="41" height="32" viewBox="0 0 41 32" fill="none" xmlns="http://www.w3.org/2000/svg">
<g clipPath="url(#clip0_2094_72725)">
<path fillRule="evenodd" clipRule="evenodd" d="M20.6132 14.7485C17.8258 14.7485 15.5958 12.5185 15.5958 9.73109C15.5958 6.94364 17.8258 4.71368 20.6132 4.71368C23.4007 4.71368 25.6306 6.94364 25.6306 9.73109C25.6306 12.5185 23.4007 14.7485 20.6132 14.7485ZM30.2764 10.6138C29.9047 10.335 29.4401 10.1027 29.022 9.91692C28.8362 9.824 28.3716 9.4988 28.2322 9.35943C27.8141 8.98777 27.5354 8.56966 27.0708 8.29091C27.0708 8.29091 27.1637 8.19799 27.3031 8.15153C27.6748 8.01216 28.0929 7.9657 28.4645 7.82633C28 7.12947 27.2102 7.22239 26.6527 6.71135C26.9779 6.75781 27.3496 6.71135 27.6748 6.71135C28.2322 6.6649 28.3252 6.43261 28.6039 6.06095C28.6968 5.92158 28.7897 5.82866 28.8826 5.78221C29.3472 5.457 30.4622 5.59637 30.9268 5.59637C30.5087 5.36409 29.8118 4.94597 29.3472 4.89951C27.4425 4.66723 26.6991 5.31763 25.3983 4.71368C25.259 4.66723 26.0023 4.20265 26.4669 4.20265C26.3739 4.1562 25.8165 3.92391 25.5842 3.92391C25.0731 3.92391 24.8408 4.10974 24.4692 4.38848C24.4692 4.01682 24.5156 3.73808 24.8408 3.50579C25.0731 3.36642 25.4913 3.2735 25.6771 3.13413C25.8629 2.99476 26.0023 2.71601 26.0487 2.53018C26.0952 2.34435 26.0952 1.87978 26.0952 1.87978C25.8629 2.20498 25.6771 2.43727 25.259 2.48373C25.259 2.48373 23.633 2.80893 23.2148 2.9483C22.8432 3.08767 22.3786 3.50579 22.3786 3.50579C22.3786 3.50579 22.3321 3.41287 22.3321 3.22704C22.3321 3.04121 23.2148 1.46166 23.0755 1.55458C22.9825 1.64749 22.4251 1.78686 22.0999 1.87978C21.7747 1.97269 21.2636 2.11206 20.6132 2.39081C19.9628 2.66955 19.5912 3.31996 19.5447 3.22704C19.4982 3.13413 19.3589 2.9483 19.3124 2.66956C19.266 2.39081 19.5447 1.92624 19.6376 1.69395C19.8699 1.13646 19.9628 0.486059 19.5447 0.0214844C19.4053 0.114398 17.9651 1.60104 17.6864 2.11207C17.4541 2.6231 17.036 3.73808 17.036 3.73808L16.5714 5.22471C16.5714 5.22471 16.4321 5.08534 16.3391 4.94597C16.2462 4.8066 16.2927 4.29557 16.2927 4.29557C16.4321 3.50579 16.4321 2.57664 15.6887 2.01915C15.5029 1.87978 15.1777 1.87978 15.1777 1.87978C15.1777 1.87978 15.3635 2.15852 15.3635 2.48373C15.3635 2.80893 15.2706 3.18059 15.2706 3.18059L14.899 4.66722C14.5738 5.87512 14.7131 6.57198 14.6667 6.57198C14.1092 6.52552 13.6911 6.01449 13.5517 5.50345C13.5052 5.27117 13.5052 4.38848 13.5052 4.38848C12.9013 5.31763 12.5296 5.87511 12.7155 6.99009C12.8548 7.77987 13.273 8.56964 13.6911 9.22005C13.8769 9.59171 14.0163 10.1957 14.0163 10.1957C13.784 9.96337 13.5517 9.77754 13.18 9.77754C12.6225 9.77754 11.8792 10.2421 11.4147 9.96337C11.3682 9.91691 11.2288 9.87045 11.2288 9.87045C11.2288 9.87045 11.3217 10.0098 11.3217 10.1027C11.8328 10.8925 12.4367 10.7531 13.2265 11.1248C13.6446 11.3106 13.8769 11.45 14.1556 11.8217C13.9698 11.7288 13.4123 11.7752 13.18 11.8681C12.8548 12.0075 12.5296 12.2398 12.158 12.3792C11.554 12.565 10.7178 12.5185 10.1603 12.2398C10.0209 12.1933 9.74219 12.0075 9.74219 12.0075C9.74219 12.0075 9.78865 12.1469 9.8351 12.2862C9.88156 12.4256 10.3461 13.0296 10.4855 13.1689C10.9965 13.68 11.5076 13.8658 12.2044 13.9587C13.3659 14.0052 14.3879 13.7729 15.5029 14.0052C15.8746 14.0981 16.3391 14.3304 16.3391 14.3304C15.1312 14.702 15.5958 15.3524 14.1092 15.6312C15.1312 16.0957 15.8746 15.9099 16.8502 15.6312C17.5006 15.4453 18.2439 15.3989 18.2439 15.3989C17.8258 15.5847 17.2218 15.9564 16.9895 16.3745C16.3856 17.3501 15.6423 17.9076 14.4808 18.047C14.899 18.7438 16.2927 18.4186 16.8502 18.2792C17.547 18.0934 18.1974 17.7218 18.7085 17.2107C18.8014 17.1178 19.1266 16.7926 19.2195 16.6532C19.3124 16.5139 19.4982 16.3745 19.6841 16.2816C19.8699 16.1422 20.1951 16.0493 20.3345 16.0028C20.5203 15.9564 20.892 16.0028 20.892 16.0028H20.8455C20.7991 16.0493 20.7061 16.1887 20.6132 16.328C20.3345 16.6997 20.2416 17.2572 20.2416 17.6753C20.2416 17.9076 20.1487 18.3257 20.1487 18.3257C20.7526 17.7218 21.1707 16.6532 21.9605 16.2351C22.0999 16.1887 22.2392 16.1887 22.2392 16.1887C22.1928 16.9784 21.7282 17.6288 21.7282 18.3722C21.7282 19.9517 23.2148 20.2305 23.2148 20.184C23.1684 19.7659 23.1684 18.9761 23.2613 18.558C23.4471 17.8147 23.8188 17.0714 24.0511 16.328C24.144 15.9564 24.144 15.4918 24.0975 15.1201C24.3298 15.0737 24.8408 16.0957 24.8408 16.2351C24.8408 15.9564 25.0267 15.4918 25.0267 15.1666C25.0731 14.8414 24.9802 14.3768 24.8873 14.0981C25.3054 14.2375 25.5842 14.4697 25.8629 14.7949C26.0023 14.9343 26.1417 15.2131 26.281 15.3524C26.5133 15.7241 26.6992 16.2816 27.0708 16.5139C27.2566 16.6068 27.5818 16.5603 27.7677 16.5603C27.5818 16.3745 27.396 16.2816 27.3031 16.0493C27.1173 15.5847 27.0708 14.8414 27.0708 14.3304C27.0708 13.4941 26.885 12.6579 26.4669 11.961C26.6991 12.0075 26.885 12.054 27.0708 12.1933C27.1637 12.2862 27.396 12.4256 27.5354 12.3792C27.3031 12.1469 27.396 11.7752 27.2566 11.45L27.0708 11.0783C27.2566 11.1248 27.396 11.2642 27.5818 11.3106C27.9535 11.4965 28.4181 11.4965 28.7897 11.5429C29.4401 11.5894 30.0905 11.5894 30.648 11.8681C30.6945 11.9146 30.9732 12.1469 30.9732 12.1469C30.9732 11.961 30.9732 11.8217 30.9268 11.6358C30.9732 11.0784 30.6016 10.8461 30.2764 10.6138Z" fill="#EE8A22"/>
<path fillRule="evenodd" clipRule="evenodd" d="M19.3587 5.31781L19.4981 5.27135C19.4517 5.27135 19.4052 5.31781 19.3587 5.31781ZM22.4249 5.50364C21.8674 5.27135 21.31 5.13198 20.706 5.13198V5.03906C21.3564 5.03906 22.0068 5.22489 22.5643 5.45718C22.5179 5.45718 22.4714 5.45718 22.4249 5.50364ZM20.706 5.50364V5.31781H20.7525V5.36426C20.8918 5.36426 20.7989 5.45718 20.706 5.50364ZM20.706 5.55009C20.737 5.55009 20.737 5.55009 20.706 5.55009V5.55009ZM18.9871 5.55009C18.9561 5.55009 18.9561 5.55009 18.9871 5.55009C18.9561 5.51912 18.9561 5.51912 18.9871 5.55009ZM22.2391 5.55009C22.2391 5.51912 22.2391 5.51912 22.2391 5.55009V5.55009ZM20.4273 5.55009C20.4582 5.55009 20.4582 5.55009 20.4273 5.55009V5.55009ZM20.4273 5.68946C20.3808 5.68946 20.3808 5.64301 20.3808 5.64301C20.4273 5.59655 20.4737 5.59655 20.5202 5.59655C20.4737 5.64301 20.4273 5.64301 20.4273 5.68946ZM22.332 5.73592V5.64301L22.3785 5.68947C22.3475 5.68946 22.332 5.70495 22.332 5.73592ZM22.2856 5.87529C22.2391 5.82884 22.2856 5.82884 22.2856 5.82884C22.2856 5.79787 22.2856 5.81335 22.2856 5.87529C22.2856 5.84432 22.2856 5.84432 22.2856 5.87529ZM20.5202 5.87529C20.5202 5.82884 20.4737 5.82884 20.4737 5.78238H20.5666C20.5666 5.81335 20.5512 5.84432 20.5202 5.87529C20.5512 5.87529 20.5512 5.87529 20.5202 5.87529ZM20.8454 5.87529C20.8144 5.87529 20.8144 5.87529 20.8454 5.87529V5.87529ZM20.4273 5.87529C20.4273 5.82884 20.3808 5.82884 20.3808 5.78238C20.3344 5.78238 20.2879 5.82884 20.2414 5.82884C20.195 5.78238 20.0556 5.78238 20.0092 5.78238C20.0092 5.68947 19.7769 5.73592 19.7304 5.73592V5.68947H19.9162V5.64301L19.7304 5.59655C19.8698 5.59655 19.9162 5.5501 20.0556 5.59655V5.64301C20.1485 5.68947 20.2414 5.73592 20.3808 5.68947H20.4737C20.4737 5.78238 20.4582 5.84432 20.4273 5.87529ZM21.217 5.96821C21.217 5.92176 21.1241 5.92176 21.0777 5.92176V5.8753C21.0467 5.8753 21.0312 5.89078 21.0312 5.92176C21.0312 5.8753 21.0312 5.82884 20.9848 5.82884H21.0312C21.1241 5.8753 21.217 5.8753 21.31 5.8753V5.92176C21.2635 5.92176 21.217 5.8753 21.217 5.92176C21.217 5.92176 21.2635 5.92176 21.2635 5.96821C21.217 5.87529 21.217 5.92175 21.217 5.96821C21.217 5.93724 21.217 5.93724 21.217 5.96821ZM20.9383 6.06113C20.9383 6.03015 20.9383 6.03015 20.9383 6.06113V6.06113ZM21.0777 6.10758C21.0312 6.06113 21.0777 6.06113 21.0777 6.10758V6.10758ZM20.4737 6.10758C20.4737 6.06113 20.5666 6.01467 20.4737 6.10758V6.10758ZM19.2658 6.38633H19.2194C19.2194 6.38633 19.2194 6.33987 19.2658 6.38633ZM20.8454 6.5257C20.7989 6.43279 21.2635 6.10758 21.3564 6.06113C21.31 6.06113 21.2635 6.06113 21.217 6.01467C21.2635 6.01467 21.4029 5.96821 21.4029 6.01467C21.4648 5.95273 21.5113 5.92176 21.5422 5.92176C21.4958 5.8753 21.4029 5.82884 21.3564 5.82884C21.4029 5.78238 21.2635 5.78238 21.217 5.73593C21.1706 5.64301 21.1706 5.68947 21.0777 5.73593C20.9848 5.68947 20.9383 5.68947 20.8454 5.64301C20.7989 5.59656 20.7989 5.64301 20.7525 5.68947C20.7525 5.72044 20.768 5.75141 20.7989 5.78238C20.7989 5.78238 20.7989 5.82884 20.7525 5.82884L20.706 5.78238V6.47925H20.6596V6.24696H20.6131L20.5666 6.2005H20.6131V5.68947L20.5666 5.64301H20.5202L20.4737 5.59656H20.5666V5.5501L20.4737 5.50364H20.6131V5.27136C20.3653 5.27136 20.226 5.25587 20.195 5.2249L20.1021 5.17844C20.0092 5.2249 19.8698 5.2249 20.0092 5.27136C19.9627 5.27136 19.9627 5.31781 19.9162 5.31781C19.9162 5.36427 19.9627 5.36427 20.0092 5.36427C19.9627 5.36427 20.0556 5.41073 20.0556 5.41073V5.45718H19.8233V5.41073H19.7304C19.684 5.36427 19.591 5.45718 19.591 5.50364H19.4517V5.45718C19.4052 5.45718 19.3123 5.50364 19.2658 5.50364H19.3123L19.1265 5.5501C19.2658 5.41072 19.4517 5.41072 19.6375 5.27135C20.2414 5.03907 20.9383 5.2249 21.5422 5.31781C21.821 5.45718 22.0997 5.5501 22.3785 5.64301C22.3785 5.73592 22.3785 5.78238 22.2856 5.82884C22.2856 5.87529 22.332 5.8753 22.3785 5.92176H22.4249V6.06113C22.332 6.10759 22.0533 6.2005 21.9604 6.2005C21.8984 6.07662 21.79 6.01467 21.6352 6.01467V5.96822C21.31 6.10758 21.0777 6.29341 20.8454 6.5257ZM18.3831 5.55009C18.9406 5.50364 19.4981 5.82884 19.9627 6.10758L19.7769 6.06113C19.7304 6.10758 19.6839 6.10758 19.6375 6.06113V6.01467H19.5446V5.92176C19.4052 5.78238 19.1265 5.8753 18.9406 5.92176C18.9406 5.96821 19.0335 5.92176 19.0335 6.01467C19.08 6.01467 19.08 6.06113 19.1265 6.06113V6.10758H19.1729C19.1729 6.10758 19.1265 6.10758 19.1265 6.15404L19.1729 6.2005H19.2194C19.2658 6.24695 19.2194 6.24695 19.1729 6.24695V6.29341C18.5225 6.24695 17.8721 6.24695 17.2682 6.43278C17.2217 6.47924 17.1752 6.47924 17.1752 6.47924C17.454 6.15404 17.9186 5.82884 18.3831 5.55009ZM18.7083 6.66507C18.6619 6.61862 18.6619 6.57216 18.6619 6.5257C18.7083 6.5257 18.7083 6.47924 18.7548 6.47924V6.5257C18.7548 6.57216 18.7083 6.57216 18.7083 6.57216H18.7548C18.8013 6.61861 18.7548 6.66507 18.7083 6.66507ZM19.8698 7.08319C19.8388 7.08319 19.8388 7.08319 19.8698 7.08319V7.08319ZM17.965 7.22256C17.965 7.19159 17.965 7.19159 17.965 7.22256C18.0115 7.1761 18.0579 7.12965 18.1044 7.12965V7.1761C18.0425 7.1761 17.996 7.19159 17.965 7.22256ZM18.7548 7.40839C18.7548 7.36193 18.8013 7.36193 18.8477 7.36193C18.8167 7.3929 18.7858 7.40839 18.7548 7.40839ZM17.6863 7.45485L17.6398 7.31547C17.6863 7.31547 17.6863 7.36193 17.7327 7.36193V7.26902C17.7792 7.26902 17.8257 7.26902 17.8721 7.31547C17.8257 7.36193 17.7792 7.40839 17.7327 7.5013C17.7327 7.47033 17.7173 7.45485 17.6863 7.45485ZM16.9894 7.5013C17.0359 7.45485 17.0823 7.45485 17.1288 7.40839V7.45485C17.0823 7.45485 17.0359 7.5013 16.9894 7.5013ZM18.3367 7.5013H18.2438L18.1973 7.45485V7.40839C18.2438 7.40839 18.3367 7.40839 18.3367 7.36193H18.2902C18.3367 7.36193 18.3831 7.36193 18.4296 7.40839C18.4606 7.47033 18.4296 7.5013 18.3367 7.5013ZM17.7792 7.64068C17.8257 7.59422 17.8257 7.64068 17.7792 7.64068C17.8102 7.60971 17.8102 7.60971 17.7792 7.64068C17.8102 7.64068 17.8102 7.64068 17.7792 7.64068ZM18.0115 7.64068C18.0579 7.59422 18.1044 7.54777 18.1509 7.59422C18.0889 7.62519 18.0425 7.64068 18.0115 7.64068ZM16.4319 7.87297C16.4319 7.82651 16.4319 7.78005 16.4784 7.73359C16.5094 7.73359 16.5403 7.71811 16.5713 7.68713V7.78005C16.5248 7.78005 16.4784 7.82651 16.4319 7.87297ZM22.8895 7.87297C22.8431 7.82651 22.7501 7.73359 22.7037 7.68713L22.7501 7.73359C22.7501 7.68713 22.6108 7.59422 22.7501 7.54776C22.7966 7.64068 22.7966 7.73359 22.8895 7.87297ZM16.943 7.87297C16.943 7.87297 16.8965 7.87297 16.8965 7.82651V7.7336C16.8965 7.64068 16.943 7.59422 16.943 7.54777C17.0359 7.50131 17.0823 7.50131 17.1752 7.45485C17.1752 7.4084 17.1752 7.31548 17.2682 7.31548C17.2217 7.5013 17.1752 7.78005 16.943 7.87297C16.9739 7.87297 16.9739 7.87297 16.943 7.87297ZM17.1288 7.87297L17.0823 7.82651C17.0823 7.78005 17.1752 7.68713 17.2217 7.64068H17.2682C17.2217 7.73359 17.2217 7.78005 17.2217 7.82651C17.1907 7.85748 17.1598 7.87297 17.1288 7.87297ZM19.1729 7.91942C19.1265 7.87297 19.1265 7.78005 19.08 7.73359C19.1265 7.68713 19.1729 7.59422 19.2194 7.59422C19.2658 7.64067 19.2658 7.8265 19.2658 7.87296C19.2349 7.90394 19.2039 7.91942 19.1729 7.91942ZM18.8013 7.91942L18.6619 7.87297L18.7548 7.73359C18.8167 7.73359 18.8632 7.70262 18.8942 7.64068C18.9406 7.59422 18.9871 7.54777 19.08 7.5013V7.45485C19.4052 7.26902 19.7304 7.08319 20.0556 6.89736C20.1021 6.89736 20.3808 6.71153 20.4273 6.75799V6.80444C19.9627 6.99027 19.5446 7.22256 19.1265 7.5013C19.1574 7.53228 19.1884 7.54776 19.2194 7.54776C19.08 7.64068 18.9406 7.91942 18.8013 7.91942ZM19.3587 7.96588C19.3897 7.93491 19.3897 7.93491 19.3587 7.96588V7.96588ZM17.3146 8.01234C17.2836 8.01234 17.2836 8.01234 17.3146 8.01234C17.2682 7.8265 17.2682 7.78005 17.3146 7.64067C17.3611 7.64067 17.3611 7.59422 17.4075 7.59422C17.454 7.54776 17.5005 7.45484 17.5469 7.40839V7.45484H17.5934C17.5934 7.54776 17.5934 7.5013 17.7327 7.54776L17.7792 7.59421H17.8257C17.6863 7.64067 17.6863 7.73359 17.6398 7.78004H17.5469C17.4075 7.87297 17.3611 7.96588 17.3146 8.01234ZM16.7571 8.01234C16.7571 7.98136 16.7416 7.96588 16.7107 7.96588C16.7107 7.91942 16.6178 7.8265 16.6642 7.78005C16.7107 7.78005 16.7571 7.73359 16.8036 7.73359C16.8346 7.76456 16.8655 7.78005 16.8965 7.78005C16.8036 7.82651 16.8036 7.96588 16.7571 8.01234ZM18.6154 8.10525L18.4761 7.96588C18.569 7.82651 18.6154 7.96588 18.6154 8.10525ZM18.3367 8.19817H18.2902C18.2902 8.15171 18.2438 8.05879 18.2438 8.05879H18.2902V8.10525L18.3367 8.05879C18.3367 8.10525 18.4296 8.15171 18.4296 8.19817C18.3986 8.1672 18.3677 8.1672 18.3367 8.19817ZM18.4296 8.19817C18.4296 8.15171 18.4761 8.15171 18.4761 8.15171C18.4296 8.10525 18.3831 8.01234 18.3831 7.96588C18.4296 7.91942 18.4761 7.87297 18.5225 7.8265C18.6619 7.73359 18.7548 7.68713 18.8477 7.59422H18.8013C18.6619 7.68713 18.4761 7.54776 18.3367 7.68713C18.3367 7.7181 18.3522 7.73359 18.3831 7.73359V7.78004H18.2902C18.1509 7.78004 18.1509 7.91942 18.0579 7.8265C18.1509 7.78004 18.1973 7.68713 18.2902 7.64067H18.4296C18.4761 7.59421 18.5225 7.54776 18.5225 7.5013C18.5535 7.5013 18.569 7.48581 18.569 7.45484C18.6154 7.5013 18.6619 7.5013 18.7083 7.54775C18.8477 7.54775 18.8477 7.45484 18.9871 7.54775V7.59421C18.8942 7.64067 18.8013 7.73358 18.7083 7.78004C18.6619 7.8265 18.6154 7.96587 18.569 8.01233C18.569 8.10524 18.6154 8.1517 18.569 8.29107C18.569 8.15171 18.4761 8.19817 18.4296 8.19817ZM17.5469 8.29108C17.5469 8.26011 17.5469 8.26011 17.5469 8.29108L17.5005 8.24463H17.5469C17.5469 8.21366 17.5314 8.15171 17.5005 8.0588C17.5469 8.01234 17.5469 7.96588 17.5469 7.91942C17.6089 7.88845 17.6398 7.84199 17.6398 7.78004C17.6863 7.73359 17.7792 7.68713 17.8257 7.68713V7.73359C17.8566 7.73359 17.8876 7.71811 17.9186 7.68713C17.8721 7.78005 17.8257 7.82651 17.6863 7.82651C17.6398 7.91942 17.6398 8.0588 17.6398 8.15171L17.5934 8.19817C17.6398 8.19817 17.5934 8.24462 17.5469 8.29108ZM17.8257 8.33754C17.7792 8.24463 17.7792 8.10525 17.8257 7.96588C17.8721 7.91942 17.9186 7.91942 17.9186 7.87297C18.0115 7.91942 18.0115 7.96588 18.0115 8.01234H18.0579C18.0579 8.0588 18.1509 8.01234 18.1509 8.01234C18.1509 8.0588 18.1973 8.10525 18.1973 8.15171C18.1509 8.19817 18.1044 8.15171 18.0579 8.15171C18.0115 8.19817 17.965 8.24463 17.9186 8.29109C17.9495 8.32206 17.9186 8.33754 17.8257 8.33754ZM17.7792 8.33754C17.6863 8.19817 17.7327 8.19817 17.7327 8.01234C17.7792 7.96588 17.7792 7.87297 17.7792 7.82651C17.8257 7.82651 17.9186 7.7336 17.965 7.7336C17.965 7.82651 17.8721 7.87297 17.8257 7.91943C17.7792 8.10525 17.7327 8.19817 17.7792 8.33754ZM16.2461 8.47691C16.2151 8.38399 16.1996 8.32205 16.1996 8.29108C16.2461 8.10525 16.339 7.96588 16.4319 7.78005V7.91942C16.4784 7.96588 16.5248 7.87297 16.5713 7.87297L16.5713 7.96588C16.5713 8.01234 16.5248 8.05879 16.5248 8.15171C16.5248 8.15171 16.4784 8.10525 16.4784 8.15171C16.339 8.24462 16.2926 8.33754 16.2461 8.47691ZM18.1973 8.52337C18.1044 8.52337 18.0579 8.384 18.0115 8.33754C18.0579 8.29108 18.0579 8.24463 18.1044 8.19817C18.2438 8.29108 18.2438 8.15171 18.3367 8.19817C18.3367 8.19817 18.2902 8.384 18.2902 8.47691C18.2593 8.44594 18.2283 8.46143 18.1973 8.52337ZM17.454 8.52337C17.454 8.47691 17.454 8.43046 17.5005 8.384C17.5469 8.384 17.5469 8.33754 17.5469 8.29108L17.5469 8.43046C17.5469 8.47691 17.5004 8.52337 17.454 8.52337ZM16.7107 8.7092C16.7571 8.61628 16.8036 8.56982 16.85 8.47691C16.881 8.47691 16.912 8.46142 16.943 8.43045C16.9894 8.47691 16.8965 8.52337 16.8965 8.56983C16.8346 8.56983 16.8036 8.6008 16.8036 8.66274C16.7571 8.7092 16.7107 8.7092 16.7107 8.7092ZM17.5005 8.75566C17.5005 8.7092 17.454 8.7092 17.454 8.66274C17.5004 8.56983 17.5469 8.47691 17.6398 8.43046C17.6398 8.52337 17.5469 8.61629 17.5469 8.66274L17.5005 8.75566ZM17.454 8.80211C17.423 8.77114 17.392 8.75566 17.3611 8.75566C17.4075 8.66274 17.4075 8.56983 17.4075 8.47691C17.454 8.384 17.5004 8.29108 17.454 8.19817C17.3146 8.19817 17.2682 8.52337 17.2682 8.66274H17.2217C17.2217 8.7092 17.1752 8.7092 17.1752 8.75566C17.2682 8.61628 17.2682 8.52337 17.3146 8.33754C17.3611 8.29108 17.454 8.15171 17.3611 8.10525C17.4075 8.0588 17.454 8.01234 17.5004 7.91942H17.5469C17.5469 7.96588 17.5469 8.01234 17.5005 8.0588C17.5005 8.10525 17.5005 8.15171 17.5469 8.24463C17.5469 8.24463 17.5004 8.24463 17.5004 8.29108V8.33754H17.5469C17.5469 8.384 17.5005 8.384 17.5005 8.384C17.5005 8.43045 17.454 8.52337 17.454 8.56983H17.5004C17.4075 8.7092 17.3611 8.61628 17.454 8.80211ZM17.7327 8.89503C17.6863 8.84857 17.6398 8.75565 17.5934 8.7092C17.5934 8.61628 17.6863 8.52337 17.6398 8.43046L17.6398 8.29108H17.6863C17.7327 8.38399 17.7792 8.52337 17.8721 8.61628C17.9186 8.70919 17.9186 8.75565 17.8721 8.84857C17.7792 8.84857 17.7327 8.84857 17.7327 8.89503ZM17.5469 8.94148C17.5005 8.89503 17.454 8.89503 17.454 8.80211C17.454 8.75566 17.5004 8.7092 17.5469 8.7092C17.5934 8.75565 17.6398 8.84857 17.6863 8.89503C17.6398 8.94148 17.5934 8.94148 17.5469 8.94148ZM18.1044 9.0344C18.0579 8.98794 18.0115 8.98794 17.965 8.98794C17.965 8.94149 17.8721 8.94149 17.9186 8.84857L17.8721 8.80211C17.8721 8.75566 17.9186 8.7092 17.9186 8.66274C17.9186 8.56983 17.7792 8.47691 17.7792 8.384C17.8102 8.384 17.8257 8.36851 17.8257 8.33754H17.965C18.027 8.46143 18.0734 8.52337 18.1044 8.52337C18.2438 8.52337 18.1973 8.56983 18.1973 8.7092C18.2593 8.80212 18.2902 8.86406 18.2902 8.89503C18.2438 8.98794 18.1509 9.0344 18.1044 9.0344ZM17.1752 9.0344V8.94149H17.2217C17.2217 9.0344 17.1752 9.0344 17.1752 9.0344ZM17.9186 9.08086C17.8876 9.04989 17.8721 9.01892 17.8721 8.98794H17.9186V9.08086ZM16.4319 9.17377C16.3855 9.12731 16.339 9.08086 16.2926 9.08086C16.2926 8.7092 16.4319 8.29108 16.5713 7.96588H16.6178C16.6642 8.01234 16.6178 8.05879 16.7107 8.05879C16.7107 8.10525 16.7107 8.15171 16.7571 8.15171C16.7881 8.12073 16.8191 8.08976 16.85 8.05879C16.8965 8.15171 16.943 8.33754 16.943 8.43045C16.8965 8.47691 16.85 8.47691 16.8036 8.47691C16.7107 8.66274 16.6178 8.80211 16.5248 8.94148C16.4784 8.98794 16.4784 9.08086 16.4319 9.17377C16.4629 9.17377 16.4629 9.17377 16.4319 9.17377ZM15.9674 9.22023C16.0138 8.94149 16.0603 8.66274 16.1532 8.384C16.1532 8.43045 16.1532 8.56983 16.1996 8.52337C16.3235 8.2756 16.3855 8.13622 16.3855 8.10525C16.2926 8.384 16.2461 8.66274 16.1996 8.94149L16.1532 9.0344L16.1067 8.89503H16.0603C16.1067 9.0344 16.1067 9.12731 15.9674 9.22023ZM18.0579 9.26669V9.12731C18.0115 9.22023 18.0579 9.26669 18.0579 9.26669ZM21.2635 9.40606C21.2635 9.3596 21.217 9.3596 21.217 9.31314H21.2635C21.2635 9.31314 21.31 9.31314 21.2635 9.40606C21.31 9.3596 21.2635 9.3596 21.2635 9.40606ZM23.2612 9.40606V9.3596C23.2612 9.31314 23.2147 9.26669 23.2147 9.22023C23.2612 9.22023 23.3076 9.22023 23.3541 9.17377H23.4005C23.3076 9.31315 23.3541 9.31314 23.2612 9.40606ZM16.2461 9.77772C16.1996 9.73126 16.1996 9.6848 16.1532 9.63834C16.1067 9.54543 16.1996 9.40606 16.1067 9.31314C16.0603 9.3596 16.0603 9.40606 16.0138 9.49897C16.0138 9.45252 15.9674 9.3596 15.9674 9.31314C16.0603 9.22023 16.1067 9.17377 16.1067 9.0344C16.1377 9.12732 16.1842 9.1428 16.2461 9.08086C16.4319 9.22023 16.4784 9.26669 16.4784 9.45252L16.339 9.73126C16.308 9.76223 16.2771 9.77772 16.2461 9.77772ZM18.1509 9.82418C18.1044 9.77772 18.1044 9.73126 18.1044 9.6848C18.1973 9.6848 18.0115 9.54543 18.0579 9.49897V9.40606C18.1044 9.49897 18.1509 9.59189 18.2438 9.6848H18.1509C18.1509 9.68481 18.1509 9.77772 18.1509 9.82418ZM18.4296 9.87063C18.3986 9.87063 18.3212 9.85515 18.1973 9.82418V9.73126C18.2283 9.73126 18.2593 9.74675 18.2902 9.77772C18.4761 9.77772 18.3831 9.63835 18.3831 9.49897L18.4296 9.45252C18.4296 9.45252 18.4296 9.49897 18.4761 9.49897V9.73126C18.4761 9.73126 18.4296 9.77772 18.4296 9.87063ZM17.5934 9.96355C17.5934 9.91709 17.5469 9.91709 17.5005 9.91709V9.87064H17.5934C17.6398 9.77772 17.5469 9.6848 17.6863 9.6848C17.7327 9.73126 17.7792 9.77772 17.8721 9.82418H17.8257C17.7327 10.01 17.7327 9.87063 17.5934 9.96355ZM16.1532 10.01V9.96355C16.1532 9.77772 16.0603 9.59189 16.1532 9.40606C16.1532 9.59189 16.1532 9.63835 16.2461 9.77772C16.2461 9.87063 16.1996 9.96355 16.1532 10.01ZM16.7107 10.0565C16.6178 10.01 16.5713 9.6848 16.5713 9.54543C16.6642 9.54543 16.5248 9.22023 16.5248 9.17377V8.94148C16.6178 8.84857 16.6642 8.75565 16.7571 8.7092C16.7571 8.74017 16.7726 8.91051 16.8036 9.22023L16.85 9.26668L16.8965 9.22023C16.943 9.22023 16.9894 9.45251 16.9894 9.49897L16.7107 10.0565ZM17.3611 10.1029C17.3146 10.01 17.3611 9.91709 17.454 9.87063V9.96355C17.485 9.96355 17.5159 9.97903 17.5469 10.01V10.0565C17.5159 10.0565 17.485 10.041 17.454 10.01C17.454 10.041 17.4695 10.0719 17.5005 10.1029C17.454 10.0565 17.4075 10.1029 17.3611 10.1029ZM15.9674 10.1494V9.40606C16.0138 9.59189 16.0603 9.82418 16.0603 10.01C16.0293 10.0719 15.9983 10.1184 15.9674 10.1494ZM22.7037 10.1958C22.7037 10.1494 22.7037 10.0565 22.6572 10.0565C22.6572 10.01 22.6572 9.91709 22.7037 9.87063H22.7501C22.7501 9.82418 22.7501 9.77772 22.7966 9.6848H22.8431V9.82418C22.7966 9.91709 22.7501 9.96355 22.8431 10.01C22.8121 10.1029 22.7656 10.1649 22.7037 10.1958ZM23.1683 10.2423C23.2147 10.1494 23.2612 10.1029 23.3076 10.0565V9.91709C23.4005 9.77772 23.3076 9.63835 23.3076 9.49897C23.4005 9.59188 23.447 9.73126 23.447 9.87063C23.4005 9.87063 23.4005 9.96355 23.4005 10.01C23.2612 10.0565 23.3541 10.0565 23.3541 10.1494C23.3541 10.1494 23.3541 10.1029 23.3076 10.1029C23.2612 10.1494 23.2147 10.1958 23.1683 10.2423ZM20.0556 10.2423C19.9627 10.1958 19.8233 10.1029 19.7304 10.1494C19.6994 10.1804 19.6685 10.1804 19.6375 10.1494C19.5446 10.1494 19.4981 10.2423 19.4052 10.2423L19.3587 10.1958C19.3587 10.1029 19.3123 10.0565 19.3123 9.96355C19.2658 9.96355 19.1729 9.96355 19.1265 9.87064C19.1884 9.80869 19.2039 9.74675 19.1729 9.6848C19.1265 9.6848 19.08 9.68481 19.0335 9.73126C18.9871 9.73126 18.9406 9.6848 18.8942 9.6848C18.8477 9.59189 18.8942 9.54543 18.9406 9.45252C18.9406 9.40606 18.9871 9.3596 18.9871 9.31314C19.08 9.31314 19.1419 9.34412 19.1729 9.40606H19.3123V9.31314H19.3587V9.26669C19.3897 9.26669 19.4052 9.23572 19.4052 9.17377H19.7769C19.7769 9.20475 19.7923 9.23572 19.8233 9.26669C19.8698 9.26669 19.8698 9.31314 19.9162 9.31314V9.3596H20.0556C20.1021 9.45251 20.1021 9.54543 20.1485 9.63834H20.195C20.2414 9.6848 20.2879 9.6848 20.3343 9.6848C20.3808 9.73126 20.4273 9.77772 20.4737 9.77772L20.5202 9.82417C20.5202 9.87063 20.4737 9.82417 20.4737 9.91709H20.3343C20.3343 9.94806 20.3189 9.99451 20.2879 10.0565C20.0092 10.0565 20.0556 10.0565 20.0556 10.2423ZM21.4958 10.2887C21.3564 10.1958 21.217 10.2423 21.0312 10.2423C20.9848 10.1958 20.9383 10.1494 20.8918 10.1029L20.706 10.0565C20.6596 9.96355 20.6596 9.87063 20.5666 9.77772C20.6131 9.73126 20.6596 9.73126 20.706 9.6848H21.0312C21.0777 9.63835 21.0312 9.54543 21.0777 9.49897H21.1706C21.2635 9.59189 21.2635 9.63835 21.3564 9.54543C21.4493 9.54543 21.5887 9.59189 21.6816 9.59189C21.7745 9.49897 21.821 9.49897 21.9604 9.45251C22.0068 9.63835 21.9604 9.59189 22.0997 9.54543L22.1462 9.59188L22.0997 9.63834C22.0533 9.6848 22.0068 9.73126 21.9604 9.82417C21.9139 9.82417 21.8674 9.82417 21.821 9.87063C21.821 9.9016 21.8365 9.93257 21.8674 9.96354C21.821 10.1029 21.5422 10.2423 21.4958 10.2887ZM19.4981 10.3817C19.4671 10.3507 19.4362 10.3197 19.4052 10.2888H19.4517C19.4517 10.3352 19.4981 10.3817 19.4981 10.3817C19.5446 10.3352 19.4981 10.3352 19.4981 10.3817ZM22.8895 10.3817C22.8431 10.2423 22.8431 10.1958 22.8895 10.1029L23.0289 10.2423C22.936 10.2887 22.936 10.3352 22.8895 10.3817ZM19.591 10.4281C19.4981 10.4281 19.4052 10.3817 19.3587 10.2887C19.4052 10.2887 19.4517 10.3817 19.4981 10.3817L19.6375 10.3817C19.6375 10.3352 19.591 10.2887 19.5446 10.2423C19.6839 10.1958 19.6375 10.2887 19.6839 10.2423C19.7769 10.1494 19.8698 10.2423 20.0091 10.2887C19.9627 10.3352 19.8698 10.3352 19.8233 10.3817C19.6994 10.4126 19.622 10.4281 19.591 10.4281ZM23.1683 10.4746C23.1683 10.4436 23.1528 10.4126 23.1218 10.3817H23.1683V10.4746ZM16.3855 10.4746C16.339 10.4746 16.2461 10.3817 16.1996 10.3352V10.1029C16.1996 10.01 16.2461 9.91709 16.2461 9.82418H16.339L16.4784 9.54543V9.59189C16.3855 9.59189 16.5248 10.1029 16.5713 10.1494C16.5713 10.1958 16.5248 10.2887 16.5248 10.3352C16.4319 10.1958 16.4319 10.3817 16.3855 10.4746ZM19.2194 10.5675C19.1884 10.5675 19.1884 10.5675 19.2194 10.5675C19.1729 10.3817 19.1265 10.3352 19.0335 10.1958C19.0335 10.1339 19.0026 10.0719 18.9406 10.01C18.9406 9.96355 18.9871 9.96355 18.8942 9.87063H18.7548C18.8013 9.77772 18.8013 9.73125 18.8477 9.63834H18.9406C18.8942 9.82417 18.8942 9.77772 19.08 9.82417V9.87063C19.1265 9.87063 19.1729 9.91709 19.2194 9.91709C19.2194 10.01 19.2658 10.0565 19.2658 10.1494C19.2658 10.1494 19.3123 10.1958 19.3587 10.1958C19.3123 10.2423 19.3123 10.2887 19.3123 10.3352C19.2503 10.3662 19.2349 10.4126 19.2658 10.4746C19.2658 10.521 19.2194 10.521 19.2194 10.5675ZM17.8721 10.5675C17.8257 10.521 17.7792 10.4746 17.7327 10.4281C17.6863 10.2887 17.5469 10.1029 17.5934 9.96355C17.7792 9.96355 17.7327 9.96355 17.8257 9.82418C17.8721 9.82418 17.9186 9.82417 17.965 9.87063C17.965 9.96354 17.9495 10.041 17.9186 10.1029V10.521C17.9186 10.521 17.9031 10.5365 17.8721 10.5675C17.9031 10.5675 17.9031 10.5675 17.8721 10.5675ZM18.8942 10.614C18.8942 10.614 18.8477 10.614 18.8477 10.5675C18.8013 10.3817 18.6619 10.2423 18.569 10.0565H18.6619C18.6619 10.0255 18.6774 9.99452 18.7083 9.96355H18.8477C18.8942 10.01 18.8477 10.01 18.8477 10.0565C18.8942 10.0565 18.8942 10.1029 18.9406 10.1029C18.9871 10.2888 19.1265 10.3817 19.1265 10.521C19.0335 10.521 19.0335 10.5675 18.8942 10.614ZM16.0603 10.614C16.0603 10.521 16.0138 10.3817 16.0138 10.2888C16.1067 10.3352 16.1067 10.3817 16.1532 10.521C16.1067 10.5675 16.0603 10.614 16.0603 10.614ZM19.4517 10.6604V10.5675C19.3587 10.5675 19.3587 10.6604 19.2658 10.614C19.2968 10.552 19.3123 10.4901 19.3123 10.4281C19.4052 10.3817 19.4052 10.4281 19.4981 10.521H19.6375V10.5675C19.6685 10.5985 19.6839 10.6294 19.6839 10.6604C19.591 10.6604 19.4981 10.6604 19.4517 10.6604ZM19.591 10.7533L19.6375 10.7069V10.7533C19.6685 10.7533 19.653 10.7533 19.591 10.7533ZM22.6108 10.9392C22.5643 10.8927 22.6572 10.8462 22.6572 10.8462C22.6108 10.8462 22.5643 10.8462 22.5643 10.7998C22.5953 10.7998 22.6263 10.7843 22.6572 10.7533C22.6108 10.7069 22.5643 10.6604 22.4714 10.614C22.4249 10.521 22.5178 10.4281 22.5643 10.3352H22.5179C22.5179 10.3817 22.4714 10.3817 22.4714 10.4281C22.4249 10.4281 22.332 10.3817 22.2856 10.3352V10.2888C22.332 10.1958 22.3785 10.1029 22.4714 10.01C22.5643 10.2888 22.6572 10.5675 22.7501 10.8462L22.6108 10.9392ZM16.4784 10.9856C16.3855 10.8927 16.339 10.7998 16.2926 10.6604C16.1996 10.6604 16.1996 10.7533 16.1532 10.7998C16.1067 10.7533 16.1067 10.7069 16.0603 10.6604C16.0603 10.614 16.1532 10.5675 16.1532 10.521C16.1532 10.4281 16.1067 10.3817 16.0603 10.2887C15.9209 10.2423 15.9674 10.2423 16.0603 10.0565V10.2423C16.1067 10.1958 16.0603 10.0565 16.0603 10.01V10.0565C16.0912 10.0565 16.1222 10.041 16.1532 10.01V10.3352C16.2461 10.4281 16.2926 10.4746 16.3855 10.521V10.7533L16.4784 10.9856ZM18.9871 11.0785C18.8942 11.0321 18.8013 11.0321 18.7083 10.9856C18.7083 10.9392 18.8013 10.9392 18.8013 10.8927C18.7703 10.8617 18.7393 10.8308 18.7083 10.7998C18.7083 10.7533 18.7548 10.614 18.8477 10.614C18.9406 10.6604 18.9871 10.6604 19.08 10.5675C19.1729 10.614 19.2658 10.614 19.3123 10.6604C19.3587 10.6604 19.3587 10.614 19.4052 10.614V10.7069H19.591C19.5446 10.7533 19.4052 10.7069 19.3587 10.7533C19.3587 10.7843 19.3433 10.8153 19.3123 10.8462H19.2194C19.2194 10.8927 19.1729 10.9392 19.1729 10.9856H18.9871C19.0335 11.0321 18.9871 11.0785 18.9871 11.0785ZM18.1973 11.2179L18.1509 11.1714L18.2902 11.125C18.2438 11.125 18.1973 11.2179 18.1973 11.2179ZM18.1044 11.4037C17.965 11.3573 17.8721 11.3108 17.7327 11.2644C17.6863 11.2644 17.6398 11.3108 17.5934 11.3108C17.5469 11.2179 17.454 11.1714 17.3611 11.1714C17.3146 11.0785 17.3146 10.9392 17.3146 10.7998C17.3146 10.7533 17.3146 10.614 17.3611 10.5675C17.3301 10.3197 17.3146 10.1803 17.3146 10.1494C17.3456 10.1184 17.3611 10.0874 17.3611 10.0565C17.3301 10.0565 17.2991 10.0719 17.2682 10.1029V9.91709H17.2217C17.1752 10.0565 17.1752 10.2423 17.1288 10.4281H17.0823L16.8036 10.01C16.8965 9.87063 16.9894 9.73126 17.0359 9.54543L17.0823 9.63834C17.2217 9.40605 17.3611 9.22022 17.5005 8.98794C17.5005 8.94148 17.454 8.89502 17.454 8.89502H17.4075V8.84857H17.3611C17.3611 8.89502 17.3146 8.89502 17.3146 8.94148C17.2837 8.94148 17.2682 8.95697 17.2682 8.98794V8.94148C17.3146 8.84857 17.3146 8.80211 17.3611 8.80211C17.423 8.83308 17.454 8.87954 17.454 8.94148C17.485 8.97245 17.5159 9.00342 17.5469 9.03439V9.08085H17.5005C17.4695 9.08086 17.454 9.09634 17.454 9.12731C17.5004 9.17377 17.5469 9.22023 17.5934 9.17377C17.5934 9.22023 17.6863 9.22023 17.7327 9.22023C17.8721 9.3596 17.8257 9.54543 18.0579 9.54543C18.0579 9.59188 18.1044 9.59188 18.1044 9.63834C18.1044 9.73126 18.0889 9.80869 18.0579 9.87063C17.9186 9.77772 17.8257 9.63834 17.6863 9.63834C17.6398 9.59188 17.5934 9.59188 17.5469 9.54543C17.5005 9.45251 17.5469 9.45251 17.454 9.40605C17.454 9.37508 17.4385 9.34411 17.4075 9.31314V9.26668C17.4075 9.31314 17.1288 9.63835 17.1752 9.6848C17.2217 9.73126 17.2682 9.73126 17.2682 9.73126C17.2682 9.77772 17.3611 9.91709 17.4075 9.87063L17.3611 9.96355L17.4075 10.0565C17.454 10.0565 17.5005 10.0565 17.5469 10.01V9.96355C17.5779 9.96355 17.6089 9.97903 17.6398 10.01C17.7327 10.1958 17.7792 10.4281 17.9186 10.521C17.9186 10.6604 17.965 10.8462 17.965 10.9856C17.965 11.125 18.3367 11.3108 18.1044 11.4037ZM16.8036 11.4966C16.7107 11.3573 16.6178 11.2644 16.5248 11.0785C16.4784 10.9856 16.4784 10.8462 16.4319 10.7533V10.3817C16.4784 10.3817 16.4784 10.3352 16.5248 10.3352C16.5248 10.3352 16.5248 10.3817 16.5713 10.3817C16.6178 10.2887 16.6178 10.2423 16.6642 10.1958H16.7107C16.7107 10.1494 16.7571 10.1494 16.7571 10.1029C16.912 10.3197 17.0049 10.4591 17.0359 10.521H17.0823V10.7069C17.0823 10.7533 17.0823 10.9392 17.0359 10.9856C16.9894 11.0321 16.943 11.125 16.8965 11.1714H16.8036V11.2644H16.7571L16.8036 11.4966ZM20.5202 11.4966C20.4737 11.4037 20.6596 11.4966 20.706 11.4966H20.5202ZM20.3808 11.5431C20.195 11.4502 20.0556 11.4502 19.9162 11.3108C20.0092 11.1714 20.195 11.4037 20.2879 11.4502H20.3808C20.4273 11.4966 20.3808 11.4966 20.3808 11.5431ZM19.2194 11.5431C19.1729 11.4966 19.1265 11.4966 19.08 11.4966L19.0335 11.5431C18.9871 11.5431 18.9871 11.4502 18.9406 11.4037C18.8477 11.3573 18.7548 11.3573 18.6619 11.3108C18.6619 11.2179 18.8013 11.3108 18.8013 11.2644L18.7083 11.0785C18.8013 11.125 18.8942 11.1714 18.9871 11.1714C18.9871 11.125 19.0335 11.125 19.0335 11.0785C19.2194 11.0321 19.2194 11.125 19.2658 10.9392H19.3587C19.3897 10.9082 19.4052 10.8617 19.4052 10.7998C19.591 10.7533 19.5446 10.7533 19.4981 10.9392V10.9856L19.591 11.0785L19.5446 11.0321V11.125C19.4981 11.1714 19.4052 11.2179 19.3587 11.2644C19.3123 11.2644 19.2658 11.2179 19.2194 11.2179C19.1265 11.3573 19.2194 11.4037 19.2194 11.5431ZM17.8257 11.636C17.6398 11.5896 17.5005 11.5431 17.3146 11.4502V11.1714C17.454 11.1714 17.5005 11.2179 17.5005 11.3573C17.5469 11.4037 17.6398 11.3108 17.6863 11.3108C17.7327 11.3573 17.8257 11.3573 17.8721 11.4037V11.5896C17.9186 11.636 17.8721 11.636 17.8257 11.636ZM17.3611 11.9148C17.1288 11.8218 17.0359 11.6825 16.8965 11.4966L16.85 11.2644C16.943 11.2644 16.8965 11.2179 16.8965 11.125C17.0823 11.125 17.0359 11.0785 17.1288 10.8927V11.125C17.1752 11.2179 17.2682 11.3108 17.2217 11.4502C17.1752 11.4502 17.3146 11.636 17.3146 11.6825C17.3611 11.7289 17.4075 11.8218 17.454 11.8683C17.454 11.9148 17.4075 11.9148 17.3611 11.9148ZM22.936 11.9612C22.936 11.9148 22.8895 11.9148 22.936 11.8683V11.9612ZM22.0533 12.0077C22.0068 11.9612 22.0997 11.9148 22.1462 11.9148C22.0997 11.9148 22.0997 11.9612 22.0533 12.0077ZM21.7745 12.0077C21.6816 11.9148 21.7281 11.9612 21.7281 11.9148C21.6816 11.8683 21.5887 11.8683 21.5887 11.7754C21.7745 11.6825 21.7281 11.7289 21.9139 11.8218C21.8674 11.8683 21.7745 11.9612 21.7745 12.0077ZM24.7013 12.0541C24.7478 11.8683 24.7478 11.6825 24.7478 11.4966C24.9336 11.2179 25.1195 10.9392 25.2124 10.6604C25.1195 11.125 24.9336 11.636 24.7013 12.0541ZM17.2682 12.1935C17.2682 12.1006 17.2217 12.0077 17.2217 11.9148C17.2682 11.9148 17.3146 11.9612 17.4075 11.9612C17.6863 11.9148 17.6398 11.9148 17.454 11.7289C17.5469 11.7754 17.6863 11.8218 17.7792 11.8683C17.7792 12.0077 17.6398 12.0541 17.5005 12.147C17.4075 12.147 17.3146 12.147 17.2682 12.1935ZM21.7745 12.2864C21.7745 12.147 21.7281 12.147 21.6352 12.0541C21.5887 12.0541 21.4958 12.1006 21.4493 12.1006V12.0077L21.4029 11.9612C21.4029 11.9612 21.4029 11.9148 21.4493 11.9148H21.4958V11.8683H21.5422C21.5732 11.9302 21.6197 11.9767 21.6816 12.0077V12.0541C21.7281 12.1006 21.9604 12.1935 21.9139 12.2864C21.8674 12.24 21.821 12.24 21.7745 12.2864ZM16.9894 12.3329C16.8965 12.24 16.6178 11.8683 16.6642 11.7289C16.7107 11.7289 16.7107 11.7754 16.7571 11.7754V11.636L16.6642 11.5896C16.6642 11.4966 16.6642 11.4502 16.7107 11.3573C16.8036 11.4502 16.85 11.4966 16.85 11.636C16.6642 11.7754 17.0359 12.0541 17.0823 12.24C16.9894 12.24 16.9894 12.2864 16.9894 12.3329ZM23.0753 12.3329L23.1218 12.2864C23.1218 12.2864 23.1063 12.3019 23.0753 12.3329ZM23.2147 12.3329V12.24L23.3076 12.1006H23.3541C23.3541 12.147 23.4005 12.147 23.3541 12.1935C23.3076 12.1935 23.3076 12.2864 23.3076 12.2864C23.2612 12.3329 23.2147 12.3329 23.2147 12.3329ZM24.0974 12.4723C24.0974 12.4258 24.0509 12.4258 24.0509 12.3793C24.0045 12.3793 23.958 12.4258 23.9116 12.4258C23.958 12.3329 24.0045 12.2864 24.0509 12.1935C24.0974 12.1471 24.4226 11.9612 24.4691 11.9612V12.0077H24.562C24.5155 12.0541 24.4691 12.1006 24.3762 12.147C24.2832 12.2864 24.2368 12.3793 24.0974 12.4723ZM23.8651 12.4723C23.8341 12.4723 23.8341 12.4723 23.8651 12.4723C23.8651 12.4413 23.8806 12.4258 23.9116 12.4258L23.8651 12.4723ZM21.5422 12.5187C21.4493 12.4723 21.4029 12.4258 21.3564 12.5187L21.2635 12.3793C21.2635 12.2864 21.2635 12.24 21.217 12.1935C21.217 12.1006 21.31 11.9612 21.4029 12.0541V12.1935C21.4958 12.1935 21.5422 12.147 21.6352 12.147C21.7281 12.1935 21.7745 12.24 21.7745 12.3329C21.5887 12.2864 21.5422 12.3329 21.5422 12.5187ZM16.7571 12.4723C16.7262 12.4413 16.7107 12.4103 16.7107 12.3793C16.7571 12.3793 16.7107 12.3329 16.7571 12.3329C16.7571 12.3793 16.8965 12.5187 16.85 12.5187C16.8036 12.5187 16.7571 12.4723 16.7571 12.4723ZM21.31 12.5187C21.279 12.4568 21.2635 12.4103 21.2635 12.3793C21.31 12.4258 21.31 12.4723 21.31 12.5187ZM23.7257 12.5652C23.7257 12.5187 23.7722 12.5187 23.7257 12.5652C23.7567 12.5342 23.7567 12.5342 23.7257 12.5652ZM21.6816 12.5652L21.6352 12.5187C21.5887 12.3329 21.6352 12.3329 21.821 12.2864C21.852 12.2554 21.8829 12.24 21.9139 12.24V12.3793C21.821 12.4258 21.7281 12.5187 21.6816 12.5652ZM21.821 12.6581C21.821 12.6271 21.821 12.6271 21.821 12.6581C21.7745 12.6116 21.7281 12.6116 21.7281 12.6116L21.9604 12.4258V12.2864C21.9294 12.2554 21.9139 12.2245 21.9139 12.1935C21.9604 12.1935 22.0068 12.24 22.0068 12.24C22.0068 12.2864 22.0533 12.3793 22.0533 12.4258C22.0068 12.4722 21.9139 12.6116 21.821 12.5652V12.6581ZM21.31 12.6581C21.31 12.6271 21.3254 12.5961 21.3564 12.5652C21.3564 12.5652 21.3409 12.5961 21.31 12.6581ZM19.6375 12.751C19.4981 12.6116 19.4517 12.3793 19.4052 12.24C19.4052 12.147 19.3587 12.0541 19.3587 11.9612C19.3587 11.8683 19.4517 11.7754 19.3123 11.7289C19.2658 11.7289 19.2658 11.7754 19.2658 11.8218H19.1729C19.1729 11.7754 19.1265 11.7754 19.1265 11.7289C19.1729 11.7289 19.2194 11.6825 19.2194 11.6825H19.1265L19.08 11.636C19.1729 11.5431 19.2194 11.6825 19.3123 11.636C19.3123 11.5431 19.2658 11.4502 19.2194 11.4037C19.2658 11.3573 19.3123 11.4037 19.3587 11.4037C19.4517 11.3573 19.4981 11.2644 19.591 11.2179V11.1714H19.6375C19.6375 11.125 19.591 11.0785 19.5446 11.0321C19.5446 10.9856 19.591 10.9392 19.591 10.8927L19.7304 10.8462V10.7998C19.7769 10.8462 19.8698 10.8462 19.9162 10.8927C19.9162 10.9392 19.8698 10.9856 19.8233 10.9856C19.8233 11.0476 19.8388 11.0785 19.8698 11.0785H19.8233C19.7769 11.125 19.8233 11.2179 19.8233 11.2179L19.9162 11.2644C19.9162 11.3108 19.8698 11.3108 19.8698 11.3573C20.0092 11.4966 20.1485 11.5431 20.3344 11.5896C20.3808 11.5896 20.4273 11.5431 20.4273 11.4966H20.4737V11.5431C20.3808 11.5431 20.4737 11.9148 20.4737 11.9612C20.4737 11.9612 20.4737 11.9148 20.4273 11.9148C20.2879 12.0541 20.1485 12.147 19.9627 12.2864C19.8698 12.3174 19.8078 12.3329 19.7769 12.3329C19.7769 12.5187 19.7769 12.6271 19.7769 12.6581C19.7304 12.7045 19.6839 12.7045 19.6375 12.751ZM17.1288 12.751C17.0823 12.7045 17.0359 12.7045 16.943 12.6581C16.85 12.5652 16.7571 12.4258 16.7107 12.2864C16.5248 11.7754 16.2926 11.2644 16.1067 10.7533C16.1067 10.7533 16.1532 10.8462 16.1996 10.8462C16.2461 10.7998 16.1996 10.6604 16.2926 10.6604C16.339 10.7998 16.4319 10.8927 16.5248 11.0321C16.6178 11.2644 16.6642 11.2644 16.5713 11.4502C16.5713 11.5896 16.5713 11.5431 16.7107 11.5896V11.636C16.6642 11.636 16.6178 11.5896 16.6178 11.5896C16.6642 11.8683 16.85 12.147 17.0359 12.3329C17.0823 12.5187 17.1288 12.6116 17.1288 12.751ZM21.4029 12.8439C21.3564 12.8439 21.31 12.7975 21.2635 12.7975V12.7045C21.3564 12.751 21.4029 12.7975 21.4029 12.8439ZM21.4493 12.8904C21.4493 12.8594 21.4493 12.8594 21.4493 12.8904V12.8904ZM22.9824 12.8904C22.9515 12.8904 22.9515 12.8904 22.9824 12.8904C22.9824 12.8594 22.9979 12.8439 23.0289 12.8439L22.9824 12.8904ZM19.8233 12.8904V12.751C19.8543 12.782 19.8853 12.8129 19.9162 12.8439V12.8904C19.8853 12.8904 19.8543 12.8904 19.8233 12.8904ZM22.2856 13.0297C22.3785 12.9368 22.4714 12.7975 22.5643 12.751C22.6108 12.7045 22.6572 12.6116 22.7037 12.6116C22.7347 12.6426 22.7656 12.6581 22.7966 12.6581C22.7037 12.7045 22.7037 12.751 22.6108 12.751C22.5643 12.7974 22.5179 12.8904 22.4714 12.9368C22.4249 12.9368 22.3785 12.9833 22.2856 13.0297ZM21.6816 13.1227C21.5887 13.0917 21.5113 13.0297 21.4493 12.9368C21.4958 12.8904 21.5887 12.9368 21.6352 12.9833C21.6661 13.0143 21.6816 13.0607 21.6816 13.1227ZM17.6863 13.3549C17.5934 13.262 17.5004 13.2156 17.454 13.0762L17.5469 13.1227H17.5934V13.0762H17.6398L17.6863 13.1691C17.6398 13.2156 17.6863 13.262 17.6863 13.3549ZM16.0138 10.8927L16.1532 11.1714C16.2461 11.4966 16.3855 11.7754 16.5713 12.1006C16.6178 12.1935 16.6178 12.2864 16.6642 12.3793V12.3329C16.4784 11.8683 16.2926 11.4037 16.1067 10.9392L16.1532 11.0785C16.1067 10.9856 16.0603 10.8462 16.0138 10.7533C15.9674 10.4281 15.9209 10.1494 15.9209 9.77772C15.9209 8.61629 16.339 7.54777 17.0359 6.71153C17.6398 6.38633 18.4761 6.43279 19.1729 6.47925C19.2658 6.47925 19.3587 6.47925 19.4517 6.5257V6.61862H19.4981V6.66507C19.5446 6.66507 19.591 6.61862 19.591 6.66507C19.6375 6.61862 19.7304 6.66507 19.7769 6.71153H19.8233C19.8233 6.75799 19.8698 6.75799 19.8698 6.80444V6.75799C19.8233 6.75799 19.7769 6.71153 19.8233 6.66507H19.9162V6.61862H20.0092V6.66507C20.1485 6.61862 20.195 6.66507 20.3344 6.66507V6.61862L20.0556 6.57216C20.0556 6.57216 20.0556 6.5257 20.1021 6.5257C20.1021 6.5257 20.0556 6.5257 20.0556 6.47925C20.0556 6.43279 20.1485 6.47925 20.195 6.38633V6.33988C20.2414 6.33988 20.3808 6.47925 20.4273 6.52571H20.4737C20.4273 6.47925 20.3808 6.43279 20.3344 6.38633H20.4273V6.33988H20.4737L20.4273 6.29342H20.3808V6.24696C20.3498 6.21599 20.3344 6.18502 20.3344 6.15405H20.3808V6.10759H20.3344V6.15405C20.3344 6.15405 20.3808 6.15405 20.3808 6.20051V6.24696C20.3344 6.24696 20.3344 6.29342 20.2879 6.33988C20.3344 6.33988 20.3344 6.38633 20.3344 6.43279C20.2879 6.47925 20.1021 6.33988 20.2414 6.24696H20.1485V6.2005H20.195H20.0556C19.591 5.92176 19.08 5.59655 18.5225 5.59655C19.1729 5.27135 19.8698 5.08552 20.6131 5.08552H20.6596V5.17844H20.5666C20.8454 5.22489 21.1706 5.27135 21.4493 5.31781L22.2856 5.64301L22.2391 5.59655C22.2856 5.59655 22.2856 5.5501 22.332 5.5501C22.3785 5.50364 22.4714 5.5501 22.5179 5.50364H22.4714C22.5179 5.50364 22.5643 5.45718 22.6572 5.45718C23.2147 5.73593 23.7257 6.10759 24.1439 6.61862C24.0974 6.61862 24.0045 6.57216 23.9116 6.52571C23.5399 6.43279 23.1683 6.43279 22.7966 6.38633L22.4714 6.29342C22.4714 6.29342 22.5179 6.29342 22.5179 6.24696C22.4869 6.21599 22.4714 6.18502 22.4714 6.15405C22.4249 6.10759 22.4249 6.06114 22.3785 6.06114V6.10759C22.2856 6.15405 21.9604 6.20051 21.9139 6.24697C21.9604 6.29342 22.0068 6.38634 22.0068 6.4328C21.6352 6.47925 21.2635 6.52571 20.9383 6.57217V6.61863C21.31 6.57217 21.6352 6.52571 22.0068 6.47925C22.0533 6.52571 22.1927 6.61863 22.2391 6.66508L22.2856 6.61863V6.52571H22.332C22.3785 6.57217 22.4249 6.66509 22.4714 6.71154H22.5178L22.4714 6.61863C22.4714 6.47926 22.7037 6.71154 22.7501 6.71154H22.7966V6.66509L22.7501 6.61863H22.8431C22.7966 6.57217 22.7501 6.52572 22.7501 6.47926C22.7966 6.47926 22.8431 6.52571 22.8895 6.52571L22.8431 6.47926C23.3076 6.47926 23.7722 6.52571 24.1903 6.71154C24.8872 7.54778 25.3053 8.6163 25.3053 9.73128C25.3053 9.91711 25.3053 10.1494 25.2588 10.3352C25.1659 10.7533 24.9801 11.0785 24.7478 11.4037C24.7478 11.4037 24.7014 11.2179 24.7014 10.9856C24.4691 9.91711 23.958 8.98796 23.2147 8.19818C23.1683 8.05881 23.1683 8.01235 23.0289 7.91944V7.87298C22.9824 7.87298 22.9824 7.82653 22.9824 7.82653C22.7966 7.87298 22.8431 7.6407 22.7966 7.54778L22.8431 7.50133C22.7966 7.40841 22.7037 7.26904 22.7037 7.22258H22.5643L22.5179 7.12967C22.4714 7.12967 22.4714 7.08321 22.4249 7.08321V7.03676H22.4714C22.4714 6.9903 22.5179 6.9903 22.5179 6.94384C22.4714 6.94384 22.4249 6.85093 22.4249 6.85093C22.4249 6.85093 22.4249 6.89739 22.3785 6.89739H22.4249V6.94384C22.2856 6.94384 22.1926 7.03675 22.1462 7.17613C22.1926 7.17613 22.1926 7.22259 22.2391 7.22259V7.26904H22.1462V7.3155C21.7745 7.03675 21.3564 6.85093 20.8918 6.71155V6.75801C21.31 6.89738 21.7281 7.08321 22.1462 7.36196C22.1462 7.45487 22.0997 7.40841 22.0068 7.40841C21.9604 7.45487 21.9604 7.50133 21.9604 7.54779C21.8984 7.54779 21.852 7.56327 21.821 7.59424L21.7745 7.54779C21.7281 7.54779 21.6816 7.59424 21.6352 7.6407C21.6661 7.67167 21.6816 7.70264 21.6816 7.73361C21.6352 7.78007 21.5887 7.82653 21.5422 7.82653V7.91944C21.4493 7.9659 21.3564 7.82653 21.31 7.78007C21.1706 7.45487 20.9383 7.17612 20.7525 6.85092H20.706C20.8918 7.12966 21.0777 7.45487 21.2635 7.73361V7.78007C21.1706 7.82652 21.1241 7.78007 21.0312 7.87298H20.9848C20.9848 7.87298 20.9848 7.82652 20.9383 7.82652C20.9383 7.91944 20.8454 7.91944 20.7989 7.87298C20.8454 7.78007 20.9383 7.68715 20.8454 7.64069C20.7989 7.64069 20.7525 7.68715 20.7525 7.64069H20.706C20.706 7.64069 20.706 7.68715 20.6596 7.68715C20.6596 7.73361 20.6131 7.73361 20.5666 7.73361V6.85091H20.5202V7.73361C20.4737 7.73361 20.4737 7.78006 20.4273 7.78006C20.4273 7.91944 20.4273 7.87298 20.2879 7.91944C20.3344 7.96589 20.3808 8.10527 20.2879 8.15172C20.195 8.15172 20.2414 8.05881 20.2414 8.01235C20.195 8.01235 20.1485 7.96589 20.1021 7.96589C20.1021 7.96589 20.1021 8.01235 20.1485 8.01235C20.0866 7.98138 20.0556 7.95041 20.0556 7.91944C20.0092 7.96589 20.0092 8.05881 20.0092 8.10527C20.0556 8.10527 20.0556 8.15172 20.1021 8.15172V8.24464C20.1021 8.29109 20.0556 8.29109 20.0092 8.24464V8.15172C19.9627 8.15172 19.8698 8.2911 19.8698 8.33755C19.8233 8.33755 19.7769 8.2911 19.7769 8.24464C19.8233 8.24464 19.9162 8.19818 19.9162 8.19818C19.9627 8.10527 19.9627 7.9659 20.0092 7.87298H19.9627C19.9162 7.91944 19.8233 7.9659 19.8233 8.05881C19.8233 8.10527 19.8698 8.10527 19.8698 8.15173C19.8698 8.15173 19.8233 8.19818 19.7769 8.19818C19.7149 8.10527 19.6685 8.04332 19.6375 8.01235C19.6065 8.04332 19.5756 8.0743 19.5446 8.10527C19.4981 8.01235 20.0556 7.22257 20.1485 7.0832C20.195 6.99029 20.2879 6.89737 20.3344 6.80446H20.2879C20.0092 7.22258 19.7304 7.6407 19.4981 8.05881H19.4052V8.01235H19.1265V7.91944C19.1265 7.9659 19.08 7.9659 19.08 8.01235C19.0336 8.01235 19.0336 7.9659 19.0336 7.9659H18.9406C18.9406 8.01235 18.8942 8.01235 18.8942 8.05881H18.8477C18.8477 8.01235 18.8013 8.01235 18.8013 7.9659L18.7548 8.01235H18.7084C18.7084 7.9659 18.6619 7.91943 18.6619 7.87297C18.7238 7.81102 18.7548 7.74909 18.7548 7.68715C18.6619 7.78006 18.6154 7.82652 18.5225 7.91944C18.4761 7.91944 18.4296 7.87298 18.3832 7.87298C18.3832 7.91944 18.4296 8.05881 18.3367 8.10527C18.2438 8.10527 18.1509 8.15171 18.1044 8.19817C18.1044 8.29108 18.1044 8.52338 17.965 8.47692V8.52338C18.0115 8.61629 17.965 8.66275 17.965 8.75567C18.1044 9.03441 18.1044 8.9415 17.8721 9.03441C17.8257 9.08087 17.8257 9.12733 17.7792 9.17379H17.7328C17.7328 9.40607 17.8721 9.54545 17.965 9.73127H18.0115V9.49899C18.0115 9.45253 18.1044 9.40607 18.1509 9.40607V9.22024C18.1973 9.17379 18.2438 9.12733 18.2902 9.12733C18.3367 9.08087 18.4296 9.12733 18.4761 9.12733C18.5225 9.17379 18.569 9.22024 18.6154 9.31316C18.7084 9.31316 18.7548 9.31316 18.8013 9.40607H18.8477V9.31316H18.8942C18.8942 9.2667 18.9406 9.2667 18.9406 9.2667V9.22025H19.3588L19.4052 9.31316C19.4517 9.31316 19.4981 9.31316 19.4981 9.35962L19.6375 9.31316C19.684 9.35962 19.7304 9.54545 19.7304 9.5919H19.7769C19.8233 9.63836 19.8698 9.63836 19.9162 9.63836C19.9627 9.68482 19.9627 9.73127 20.0556 9.73127L20.1021 9.77773C20.1485 9.73127 20.2414 9.6848 20.3343 9.6848C20.4273 9.6848 20.5202 9.68482 20.6131 9.73127C20.6131 9.63836 20.6131 9.5919 20.6596 9.54544C20.7525 9.57641 20.8299 9.62287 20.8919 9.68482L20.9383 9.63836C21.1706 9.63836 21.2171 9.68482 21.4029 9.54545C21.4958 9.54545 21.5887 9.54545 21.6352 9.49899C21.6352 9.40608 21.5887 9.31316 21.5887 9.2667C21.6816 9.20476 21.7745 9.17379 21.8675 9.17379C21.9139 9.22025 21.9604 9.2667 22.0068 9.31316H22.5643L22.6108 9.35962C22.6572 9.31316 22.6572 9.26671 22.7037 9.22025H22.7501C22.7966 9.31316 22.8431 9.45253 22.8431 9.54545C22.7811 9.60739 22.7811 9.66933 22.8431 9.73128C22.8431 9.63836 22.8895 9.68482 22.936 9.68482C23.0289 9.49899 22.9824 9.31316 22.936 9.12733C22.8895 9.03442 22.8431 8.9415 22.7966 8.89504C22.7656 8.89504 22.7347 8.87956 22.7037 8.84859V8.80213H22.6572C22.6572 8.84859 22.6108 8.89504 22.6108 8.89504H22.5643L22.5179 8.84859H22.4249V8.38401C22.4714 8.33756 22.5179 8.2911 22.5643 8.24464V8.19818C22.6108 8.19818 22.6572 8.15173 22.7037 8.15173V8.10527C22.6108 8.05881 22.5643 7.91944 22.6108 7.82653C22.7501 7.9659 22.8431 8.01236 22.936 8.19819C23.0289 8.2911 23.1218 8.33756 23.2147 8.43047C24.0509 9.26671 24.562 10.4281 24.7013 11.5896V11.636C24.2368 12.1935 23.7257 12.6116 23.0753 12.9368V12.8904L23.2147 12.7975C23.1683 12.7975 23.1218 12.8439 23.0753 12.8439C23.0753 12.0077 22.8431 11.1715 22.6108 10.3817C22.5643 10.2423 22.5643 10.2888 22.6572 10.1959C22.7037 10.1029 22.6572 10.01 22.7501 9.96357C22.7501 9.91711 22.7501 9.8242 22.7966 9.77774C22.7501 9.63837 22.7037 9.68483 22.7966 9.59191C22.7656 9.43705 22.7347 9.35962 22.7037 9.35962C22.6572 9.40608 22.6572 9.45254 22.6108 9.499L22.5643 9.45254H22.3785C22.332 9.40608 22.2856 9.35963 22.2391 9.31317H22.0997C22.0688 9.34414 22.0378 9.35962 22.0068 9.35962C22.0068 9.45254 22.0997 9.59191 21.9604 9.63837V9.73128C22.0997 9.68482 22.0533 9.68482 22.1462 9.77774C22.1462 9.77774 21.9139 10.01 21.9139 10.0565H21.821C21.821 10.0565 21.8674 10.1029 21.8674 10.1494C21.7745 10.2423 21.5887 10.4281 21.4958 10.4281C21.4029 10.4281 21.3564 10.3817 21.2635 10.3817C21.1706 10.3817 21.1241 10.4281 21.0312 10.4281C20.9848 10.3817 20.9383 10.3352 20.8918 10.2888C20.6596 10.2423 20.6596 10.2888 20.6131 10.0565C20.5666 10.01 20.5666 9.96356 20.5202 9.96356C20.4892 9.96356 20.4582 9.97905 20.4273 10.01C20.4273 10.1029 20.3808 10.1029 20.2414 10.1029C20.195 10.2423 20.2414 10.1958 20.1021 10.2423V10.4281C20.0092 10.4281 19.9162 10.5211 19.8233 10.5675C19.684 10.5675 19.6375 10.5675 19.6375 10.6604L19.6839 10.7069V10.7998C19.7769 10.8463 19.8698 10.8927 19.9162 10.9392C19.9627 10.9856 19.9162 11.0321 19.8698 11.0785C19.8698 11.125 19.9162 11.1715 19.9162 11.2179L19.8233 11.2179L19.8233 11.3108C19.8698 11.3108 19.9162 11.3573 19.9162 11.3573C20.1485 11.3573 20.2879 11.6825 20.5202 11.5431C20.6131 11.5431 20.706 11.5896 20.706 11.6825H20.5202C20.5202 11.7289 20.5666 11.7289 20.5666 11.7754C20.6131 11.7754 20.706 11.7754 20.706 11.8219V11.7289H20.7525V11.8683H20.7989C20.7989 11.7754 20.7525 11.7754 20.8454 11.7289C20.8918 11.5896 20.9383 11.5431 21.0312 11.4502C21.0312 11.4502 20.9848 11.4037 20.9383 11.3573C20.9383 11.3108 20.9848 11.4037 21.0312 11.4037C21.0777 11.4502 21.1241 11.4502 21.1706 11.4966C21.217 11.5431 21.1706 11.6825 21.1241 11.7289C21.217 11.7289 21.217 11.7754 21.217 11.8683H21.31V11.8218C21.4029 11.7754 21.4958 11.7289 21.5887 11.7289C21.6816 11.7289 21.7281 11.8218 21.821 11.8683C21.8674 11.8683 21.9139 11.8218 21.9604 11.8218V11.8683C22.0068 11.8219 22.0997 11.7754 22.1462 11.7289C22.1462 11.698 22.1617 11.667 22.1926 11.636H22.2391C22.2856 11.5896 22.332 11.5896 22.3785 11.5431C22.4249 11.4502 22.4714 11.3573 22.5178 11.3108C22.5178 11.1714 22.5643 11.125 22.6108 10.9856C22.6572 11.0785 22.6572 11.2179 22.7037 11.3108C22.6572 11.3573 22.6572 11.4037 22.6572 11.4037C22.6572 11.4037 22.6572 11.4502 22.7037 11.4502V11.3108C22.7501 11.3573 22.7966 11.6825 22.7966 11.7289H22.7501C22.7501 11.7754 22.7966 11.8683 22.7501 11.9148V11.9612C22.7811 11.9612 22.7966 11.9767 22.7966 12.0077C22.8431 12.2864 22.8431 12.5652 22.8431 12.8439C22.7501 12.9059 22.6417 12.9523 22.5178 12.9833C22.5643 12.9368 22.5643 12.8904 22.6108 12.8439C22.5643 12.7975 22.5178 12.751 22.4714 12.7975C22.3785 12.9368 22.1926 13.1691 22.0068 13.0762L21.9604 13.1227C21.9604 13.1227 21.9604 13.1691 22.0068 13.1691C21.8674 13.2156 21.6816 13.262 21.4958 13.3085V13.262H21.4493V13.2156C21.4029 13.1691 21.31 13.1691 21.2635 13.1691C21.1241 13.0762 21.0312 13.0297 20.8918 13.0297C21.0312 13.1227 21.1241 13.2156 21.2635 13.3085C21.0312 13.3549 20.7525 13.3549 20.5202 13.4014V11.9148C20.5666 11.9148 20.5666 12.0077 20.6131 12.0541C20.7525 12.1935 20.7989 12.1935 20.7989 12.3793C20.8918 12.3793 20.9383 12.3329 20.9383 12.2864C20.9848 12.24 21.0312 12.3793 21.0777 12.3793C21.0777 12.24 21.0312 12.24 21.0312 12.1006C21.0777 12.0541 21.217 12.0077 21.217 11.9148C21.1551 11.9148 21.1086 11.8683 21.0777 11.7754H21.0312C20.9848 11.7289 21.0777 11.5896 21.0777 11.5431C21.0467 11.5431 21.0157 11.5276 20.9848 11.4966C20.9383 11.5431 20.8918 11.5896 20.8454 11.5896C20.7989 11.6825 20.7989 11.7754 20.706 11.8219L20.706 11.9612C20.6131 12.0541 20.5666 11.9148 20.5666 11.8683C20.5202 11.8683 20.4737 11.8219 20.4737 11.7754L20.5202 11.7289C20.4273 11.7289 20.3808 11.7289 20.3808 11.636H20.3344V11.7289C20.3344 11.8218 20.3808 11.9148 20.3808 12.0077H20.4737C20.4737 11.9612 20.5202 11.9612 20.5202 11.9148V13.4479C19.6375 13.4479 18.8013 13.262 17.965 12.8904C17.965 12.4723 18.0579 12.0077 18.1509 11.5896C18.1973 11.5896 18.1973 11.5431 18.2438 11.5431C18.1509 11.4502 18.1973 11.4037 18.2438 11.2644C18.2902 11.2644 18.4296 11.3573 18.4761 11.4037C18.569 11.3108 18.5225 11.3573 18.6154 11.3573C18.569 11.3108 18.5225 11.125 18.4761 11.125C18.4761 11.0785 18.5225 11.0321 18.569 11.0321C18.4761 10.9392 18.5225 10.9392 18.569 10.7998C18.5999 10.7688 18.6309 10.7379 18.6619 10.7069C18.6154 10.4746 18.3831 10.2888 18.2902 10.0565C18.1973 10.01 18.0115 10.0565 17.9186 9.96356C17.8721 10.0565 17.8721 10.1029 17.8721 10.1959C17.8411 10.2268 17.8102 10.2578 17.7792 10.2888V10.6604C17.8257 10.7533 17.8257 10.8463 17.8721 10.9392C17.9186 10.9856 17.9186 11.0321 17.965 11.0785C18.1044 11.125 18.1509 11.125 18.1509 11.2644C18.1509 11.3108 18.1044 11.3573 18.1044 11.4037C18.1044 11.3573 18.0579 11.3573 18.0579 11.3108L18.0115 11.3573C18.0115 11.4967 18.0115 11.4502 17.9186 11.5431H17.7327V11.729C17.8257 11.7754 17.8721 11.7754 17.9186 11.6825H17.965C17.8721 12.0542 17.8257 12.4723 17.7792 12.8439C17.454 12.6581 17.1288 12.4723 16.8501 12.24H16.8965C16.8965 12.1471 16.8501 12.0542 16.8501 11.9612C16.7571 11.8219 16.6642 11.729 16.5713 11.636C16.5713 11.729 16.6178 11.729 16.5249 11.7754C16.4784 11.9148 16.7107 12.1471 16.8036 12.2864H16.8501C17.1288 12.5187 17.454 12.7046 17.8257 12.8904C17.8257 13.262 17.8721 13.6337 18.1044 13.9589C17.2217 13.262 16.339 12.1935 16.0138 10.8927ZM22.6108 14.0053C22.6572 13.9589 22.7037 13.9124 22.7501 13.9124C23.1683 13.6801 23.5399 13.4479 23.8651 13.1227C23.958 12.9833 24.2368 12.7975 24.2832 12.6581V12.6116C24.2368 12.6581 24.2368 12.6116 24.2368 12.5652C24.1439 12.7045 24.0509 13.0297 23.8187 13.0297C23.7722 12.9833 23.8651 12.9368 23.8651 12.9368C23.8187 12.9833 23.7722 12.9833 23.7257 13.0297C23.7257 13.0762 23.6328 13.1691 23.5864 13.1691C23.5399 13.262 23.447 13.4014 23.3541 13.3549C23.1683 13.4479 23.0289 13.6337 22.8895 13.7266C22.8895 13.6801 22.936 13.5872 22.9824 13.5408C23.0289 13.4014 23.0289 13.1227 23.1218 13.0297C23.0289 12.9368 23.0289 12.8904 23.0289 12.8439C23.2612 12.7045 23.4935 12.5652 23.7257 12.4258C23.7567 12.3948 23.7877 12.3793 23.8187 12.3793H23.7722C24.0974 12.1006 24.4226 11.8218 24.7014 11.4966C24.7014 11.7289 24.7014 11.9148 24.6084 12.147C24.1439 12.9833 23.447 13.5872 22.6108 14.0053ZM20.706 14.4699C20.7525 14.3305 20.706 13.5408 20.706 13.4479C20.9848 13.4479 21.2635 13.4014 21.4958 13.3549C21.5887 13.4479 21.6816 13.4943 21.821 13.4479V13.3549C21.7745 13.3549 21.7281 13.3085 21.6816 13.3085C21.821 13.262 21.9604 13.2156 22.0997 13.2156C22.1307 13.2156 22.1462 13.2311 22.1462 13.262C22.332 13.2311 22.4404 13.2156 22.4714 13.2156C22.5179 13.262 22.6108 13.1227 22.6108 13.0762C22.6108 13.0297 22.8431 12.9833 22.8895 12.9368C22.8431 13.0762 22.8895 13.0297 22.8895 13.1227C22.8895 13.0607 22.905 13.0143 22.936 12.9833H22.9824V13.2156C22.936 13.4014 22.8895 13.5872 22.7966 13.7266C22.6572 13.8195 22.5179 13.866 22.3785 13.9589C22.3475 13.9899 22.332 14.0208 22.332 14.0518H22.2856C22.4249 14.0983 22.5643 13.9124 22.6108 13.9589C22.5643 14.0053 22.5179 14.0518 22.4714 14.0983C21.9139 14.2841 21.3564 14.4235 20.706 14.4699ZM18.4761 13.9124C18.1973 13.6337 18.1044 13.2156 18.1509 12.8439C18.8477 13.1691 19.5446 13.3549 20.3344 13.4014H20.706C20.706 13.4943 20.6596 14.3305 20.706 14.4235H20.6131C19.8233 14.4699 19.08 14.2841 18.4761 13.9124Z" fill="#EE8A22"/>
<path d="M3.63672 18.1445H6.05029V21.7649C6.07184 21.7649 6.09339 21.7649 6.11494 21.7864C6.65368 20.5797 7.19243 19.3729 7.73117 18.1661H10.5973V24.5448H8.11907V22.2174C8.11907 21.8295 8.11907 21.4416 8.07597 21.0322C7.53722 22.2174 6.99848 23.3811 6.48129 24.5664H3.63672C3.63672 22.4114 3.63672 20.2995 3.63672 18.1445Z" fill="#124980"/>
<path d="M15.4459 24.4803V22.1529H13.8081V24.4803H11.4161C11.3514 24.2648 11.3299 18.5326 11.3945 18.1016H13.7865V20.3212H15.4243C15.4674 20.041 15.4459 19.7609 15.4459 19.4807V18.6403C16.2863 18.7265 17.0836 18.5326 17.8594 18.274V24.5018C17.0621 24.4803 16.2647 24.4803 15.4459 24.4803Z" fill="#124980"/>
<path d="M22.6865 25.4072H28.2464C28.2679 25.9029 28.2679 26.377 28.2464 26.8942H25.1216C25.1001 27.2174 25.1001 27.4976 25.1216 27.8208H28.1171V29.2646H25.1432V30.3206H28.2895V31.786H22.7081C22.6865 29.6741 22.6865 27.5622 22.6865 25.4072Z" fill="#124980"/>
<path d="M31.3498 18.166V19.6098H28.2466V20.5365H31.2205V21.9803H28.2682C28.2035 22.3467 28.2466 22.6915 28.2251 23.0578H31.4576V24.5663H25.8115V18.1876C27.6217 18.166 29.4534 18.166 31.3498 18.166Z" fill="#124980"/>
<path d="M28.8496 29.9534C29.1513 30.018 29.4099 30.1042 29.6685 30.1689C30.0133 30.2551 30.3796 30.2551 30.7244 30.212C31.3278 30.1473 31.7804 29.781 31.9312 29.1991C31.6942 29.1345 31.4571 29.1776 31.2201 29.1776H29.7116V27.9277H31.9312C31.7804 27.432 31.4787 27.1303 31.0477 26.9795C30.4443 26.764 29.8409 26.8286 29.2375 27.001C29.1298 27.0441 29.0005 27.0657 28.8712 27.1303V25.471C29.5608 25.3633 30.2503 25.234 30.9615 25.2771C31.608 25.3202 32.2329 25.4279 32.8148 25.7081C33.9569 26.2468 34.668 27.4105 34.5603 28.8112C34.4095 30.6214 33.0734 31.5911 31.6942 31.8066C30.746 31.9575 29.7978 31.8713 28.8712 31.6558C28.8496 31.0739 28.8496 30.5352 28.8496 29.9534Z" fill="#124980"/>
<path d="M40.5077 25.5358V27.1521C40.1413 27.0443 39.7966 26.9366 39.4302 26.9366C38.7622 26.915 38.1588 27.0659 37.7709 27.6693C37.383 28.2727 37.4261 28.8761 37.7493 29.4794C38.0079 29.9535 38.4605 30.1259 38.9561 30.1906C39.344 30.2337 39.7535 30.2337 40.1414 30.0828C40.2707 30.0397 40.3784 29.9751 40.5508 29.9966V31.656C40.3999 31.7853 40.1845 31.7853 39.9905 31.8284C39.0854 32.0008 38.1588 32.0008 37.2752 31.7422C35.5082 31.225 34.797 29.7811 34.9694 28.208C35.0772 27.4107 35.3789 26.6995 36.0038 26.1608C36.521 25.7298 37.1244 25.4927 37.7709 25.385C38.6113 25.2342 39.4518 25.3419 40.2707 25.4497C40.3137 25.4497 40.3568 25.4712 40.4 25.4927C40.4215 25.4927 40.443 25.5143 40.5077 25.5358Z" fill="#124980"/>
<path d="M20.1224 18.1656C20.1224 18.4673 19.9931 18.769 19.9715 19.0491C20.2948 18.7474 20.5965 18.4673 20.9197 18.1656C21.1136 18.144 21.3291 18.144 21.5662 18.1656C21.5877 18.6397 21.6308 19.1138 21.911 19.5232C22.1911 19.9327 22.579 20.1913 23.0316 20.3637V24.5443H20.5964V20.0189H18.4199V18.1656C19.0018 18.1656 19.5621 18.1656 20.1224 18.1656Z" fill="#124980"/>
<path d="M25.2296 18.166V19.9977H23.7211C23.6134 19.5237 23.678 18.7048 23.8935 18.166H25.2296Z" fill="#124980"/>
<path d="M21.2212 27.9499C21.0704 26.6138 20.0144 25.6225 18.7645 25.364C18.1612 25.2347 17.5362 25.2347 16.9113 25.2993C15.5105 25.4717 14.4977 26.3552 14.196 27.7344C14.0667 28.3378 14.0667 28.9412 14.2175 29.5446C14.4115 30.3635 14.8856 30.9453 15.5752 31.3763C16.2217 31.7642 16.9328 31.872 17.6655 31.872C18.0103 31.872 18.3551 31.8504 18.6783 31.7858C19.8851 31.5487 20.704 30.8376 21.0919 29.6739C21.2859 29.1136 21.2859 28.5318 21.2212 27.9499ZM18.549 29.7385C18.312 30.3635 17.6871 30.5574 17.1268 30.1695C17.0406 30.1049 16.9759 30.0402 16.9328 29.954C16.8466 29.8032 16.782 29.6308 16.7604 29.4584C16.6527 28.9197 16.6742 28.3594 16.7389 27.7991C16.7604 27.6482 16.8035 27.5189 16.8466 27.3896C16.9975 26.9586 17.2561 26.7862 17.6655 26.7862C18.1181 26.7862 18.3982 27.0017 18.5706 27.4327C18.7214 27.7991 18.6999 28.187 18.6999 28.5102C18.6783 28.9628 18.6783 29.3722 18.549 29.7385Z" fill="#124980"/>
<path d="M12.1487 25.4072H8.83004C8.0758 27.5407 7.34311 29.6741 6.58887 31.8075H9.02399C9.19639 31.355 9.28259 30.8809 9.47653 30.4499H11.416C11.5669 30.9024 11.6962 31.355 11.847 31.8075H14.4114C13.6572 29.631 12.9029 27.5191 12.1487 25.4072ZM9.71358 28.9198C9.92908 28.2302 10.1446 27.5622 10.3601 26.8942H10.4247C10.6402 27.5622 10.8773 28.2087 11.1143 28.9198H9.71358Z" fill="#124980"/>
<path d="M36.9525 18.2736C36.5646 18.1443 36.1767 18.0796 35.7888 18.0796H32.2762C32.19 18.0796 32.1038 18.0581 32.0176 18.1227V24.4799H34.4311V23.5748C34.4311 23.2731 34.3881 22.9714 34.4742 22.6482H35.8319C36.2413 22.6482 36.6292 22.5835 36.9956 22.4542C37.8791 22.1741 38.461 21.3552 38.4825 20.4285C38.5041 19.4588 37.8791 18.5968 36.9525 18.2736ZM35.5086 21.1612C35.1423 21.269 34.7759 21.269 34.3665 21.2259V19.6312C34.7759 19.5881 35.1638 19.5881 35.5517 19.6959C35.8534 19.7821 36.0474 20.1484 36.0474 20.5578C36.0043 20.838 35.8103 21.075 35.5086 21.1612Z" fill="#124980"/>
<path d="M6.20059 25.6865C5.76959 25.471 5.31705 25.3633 4.8214 25.3633H1.0502C1.0071 25.3633 0.963998 25.3633 0.920898 25.4064V31.7205C1.50274 31.7636 3.07587 31.7636 3.33447 31.6989V29.8887H4.56281C4.9938 29.8887 5.40325 29.8672 5.81269 29.7379C6.54538 29.5008 7.08413 29.0698 7.32118 28.3371C7.66597 27.3028 7.19188 26.1822 6.20059 25.6865ZM4.36886 28.4233C4.00251 28.5311 3.65772 28.488 3.24827 28.488V26.8718C3.63617 26.8718 4.00251 26.8287 4.36886 26.9364C4.73521 27.0442 4.9076 27.3243 4.9076 27.7984C4.9076 28.1001 4.73521 28.3156 4.36886 28.4233Z" fill="#124980"/>
</g>
<defs>
<clipPath id="clip0_2094_72725">
<rect width="39.6893" height="32" fill="white" transform="translate(0.868164)"/>
</clipPath>
</defs>
</svg>
