<svg width="130" height="32" viewBox="0 0 130 32" fill="none" xmlns="http://www.w3.org/2000/svg">
<g clipPath="url(#clip0_2094_72669)">
<path d="M113.936 31.8347H16.0991C7.36914 31.8347 0.225586 24.6912 0.225586 15.9612V15.9516C0.225586 7.22168 7.36914 0.078125 16.0991 0.078125H113.936C122.666 0.078125 129.809 7.22168 129.809 15.9516V15.9612C129.809 24.6912 122.666 31.8347 113.936 31.8347Z" fill="white"/>
<path d="M98.0525 15.9523C98.0525 10.9912 100.187 6.60699 103.658 3.57846C103.859 3.40537 103.715 3.16504 103.571 3.16504H16.0988C9.03211 3.16504 3.31152 8.89524 3.31152 15.9523C3.31152 23.0189 9.04173 28.7395 16.0988 28.7395H103.514C103.658 28.7395 103.869 28.5184 103.6 28.2877C100.197 25.2687 98.0525 20.8557 98.0525 15.9523Z" fill="#2D2D2C"/>
<path d="M65.2003 10.03C65.2003 10.501 64.8155 10.8857 64.335 10.8857H63.0083C62.5273 10.8857 62.1426 10.501 62.1426 10.03V9.00121C62.1426 8.53008 62.5273 8.14551 63.0083 8.14551H64.335C64.8155 8.14551 65.2003 8.53008 65.2003 9.00121V10.03Z" fill="white"/>
<path d="M58.5762 9.03925C58.5762 8.56816 58.2398 8.18359 57.7589 8.18359H56.3843C55.9033 8.18359 55.5186 8.56816 55.5186 9.03925V22.7976C55.5186 23.2687 55.9033 23.6533 56.3843 23.6533H57.711C58.1915 23.6533 58.5762 23.2687 58.5762 22.7976V9.03925Z" fill="white"/>
<path d="M92.2162 17.2788C92.1588 15.6059 91.6973 14.2983 90.8032 13.3753C89.8607 12.3947 88.5823 11.9043 86.986 11.9043C85.9862 11.9043 85.1304 12.0774 84.3998 12.4331C83.6786 12.7792 83.073 13.2407 82.6115 13.808C82.1405 14.3753 81.7941 15.029 81.5828 15.7597C81.3615 16.5 81.2559 17.25 81.2559 18.0191C81.2559 19.0286 81.3904 19.8939 81.6695 20.6343C81.9481 21.3746 82.3424 21.9803 82.8517 22.461C83.3616 22.9417 83.9866 23.2975 84.7267 23.5282C85.4668 23.759 86.2937 23.8744 87.1978 23.8744C87.8322 23.8744 88.4667 23.7974 89.1206 23.6436C89.3319 23.5955 89.5338 23.5378 89.7262 23.4705C89.8129 23.4513 89.938 23.4032 90.1109 23.3359C91.024 22.9609 91.6589 22.4418 91.6589 22.4418C92.0048 22.2302 92.1205 21.7688 91.8992 21.4226L91.3126 20.49C91.1012 20.1439 90.6397 20.0766 90.2839 20.2977C90.2839 20.2977 89.1784 21.0092 88.5534 21.1919C88.207 21.2977 87.7555 21.4034 87.284 21.4034C85.4863 21.4034 84.5054 20.5093 84.3614 18.7114H91.3704C91.8319 18.7114 92.1878 18.346 92.2067 17.8749V17.3654C92.2162 17.3461 92.2162 17.3076 92.2162 17.2788ZM84.4865 16.4712C84.5632 15.7309 84.8229 15.1733 85.2844 14.7983C85.7459 14.4137 86.2937 14.2214 86.9187 14.2214C87.3129 14.2214 87.6493 14.2887 87.9284 14.4233C88.207 14.5579 88.4378 14.731 88.6207 14.9521C88.8031 15.1733 88.9377 15.4136 89.0244 15.6828C89.1111 15.952 89.159 16.2116 89.159 16.4808H84.4865V16.4712Z" fill="white"/>
<path d="M78.892 14.9519C78.8147 14.3462 78.5939 13.7982 78.2092 13.2982C77.8438 12.8463 77.4112 12.5002 76.9013 12.2599C76.392 12.0195 75.767 11.8945 74.998 11.8945C74.2095 11.8945 73.5172 12.0676 72.9406 12.4041C72.3634 12.7502 71.9213 13.1444 71.6138 13.5963V12.8944C71.6138 12.4329 71.2385 12.058 70.777 12.058H69.4887C69.0271 12.058 68.6523 12.4329 68.6523 12.8944V22.8262C68.6523 23.2973 69.0371 23.6819 69.5081 23.6819H70.8254C71.2964 23.6819 71.6811 23.2973 71.6811 22.8262C71.6811 22.8262 71.6811 17.5478 71.6906 17.2113C71.7001 16.8748 71.7384 16.5767 71.8157 16.3172C71.8635 16.1441 71.9308 15.9518 72.0365 15.7499C72.1421 15.548 72.2867 15.3557 72.4791 15.173C72.6709 14.9904 72.9017 14.8365 73.1808 14.7115C73.4594 14.5865 73.7958 14.5289 74.1901 14.5289C74.5748 14.5289 74.8923 14.5865 75.1709 14.7019C75.44 14.8173 75.6419 15.0192 75.7765 15.3172C75.911 15.6057 75.9783 16.0768 75.9783 16.721V22.8454C75.9783 23.3165 76.3631 23.7011 76.8341 23.7011H78.1513C78.6223 23.7011 79.0071 23.3165 79.0071 22.8454V16.6729C79.0071 16.1249 78.9687 15.5576 78.892 14.9519Z" fill="white"/>
<path d="M12.6567 10.2214C12.551 9.90408 12.5029 9.63489 12.5029 9.41375C12.5029 9.03881 12.6087 8.77919 12.9164 8.56767C13.1663 8.40425 13.6567 8.4331 14.1758 8.41386C15.0604 8.39463 15.4161 8.36577 15.7142 9.14457C15.7142 9.14457 18.0312 18.4898 18.0985 18.8263C18.1658 19.1628 18.2235 19.4416 18.262 19.6532C18.31 19.4032 18.3581 19.134 18.4158 18.8456C18.4735 18.5571 20.704 12.3173 20.704 12.3173C20.8194 11.8558 21.1175 11.6251 21.454 11.4809C21.5501 11.4424 21.6559 11.3943 21.7905 11.3943H22.9923C23.2038 11.3943 23.4057 11.3847 23.5596 11.4616C23.9057 11.6251 24.1845 11.8943 24.2998 12.3654C24.2998 12.3654 26.6842 18.6052 26.7419 18.9032C26.8092 19.2013 26.8573 19.4416 26.8861 19.6339C26.915 19.4609 26.9631 19.2301 27.0207 18.9609C27.0785 18.6533 29.482 9.14457 29.482 9.14457C29.8089 8.36577 30.107 8.45229 31.0204 8.45229C31.5299 8.45229 31.8184 8.40425 32.1068 8.57729C32.453 8.77919 32.5299 9.07723 32.5299 9.42337C32.5299 9.53875 32.5202 9.67337 32.501 9.81755C32.4818 9.96179 32.4433 10.1156 32.376 10.2791L28.7513 22.624C28.6264 23.0086 28.4053 23.2297 28.088 23.3643C27.9726 23.4124 27.8476 23.4412 27.7322 23.4412H26.117C25.8574 23.4412 25.7324 23.4221 25.5593 23.3451C25.2036 23.1528 25.0209 22.9029 24.9248 22.5375C24.9248 22.5375 22.5404 15.3939 22.5308 15.2593C22.5116 15.3747 20.0695 22.6048 20.0695 22.6048C19.9541 23.0086 19.733 23.2105 19.3965 23.3547C19.2907 23.4028 19.1657 23.4124 19.0888 23.4124H17.3582C17.1948 23.4124 17.0121 23.3451 16.916 23.3067C16.5987 23.1528 16.4064 22.8836 16.291 22.5183L12.6567 10.2214Z" fill="white"/>
<path d="M38.1736 10.03C38.1736 10.501 37.789 10.8857 37.3083 10.8857H35.9815C35.5008 10.8857 35.1162 10.501 35.1162 10.03V9.00121C35.1162 8.53008 35.5008 8.14551 35.9815 8.14551H37.3083C37.789 8.14551 38.1736 8.53008 38.1736 9.00121V10.03Z" fill="white"/>
<path d="M51.9229 14.9519C51.8462 14.3462 51.6249 13.7982 51.2406 13.2982C50.8753 12.8463 50.4422 12.5002 49.9328 12.2599C49.4232 12.0195 48.7983 11.8945 48.0292 11.8945C47.2407 11.8945 46.5485 12.0676 45.9717 12.4041C45.3948 12.7502 44.9525 13.1444 44.6448 13.5963V12.8944C44.6448 12.4329 44.2699 12.058 43.8084 12.058H42.5201C42.0586 12.058 41.6836 12.4329 41.6836 12.8944V22.8262C41.6836 23.2973 42.0682 23.6819 42.5393 23.6819H43.8565C44.3276 23.6819 44.7122 23.2973 44.7122 22.8262V18.067C44.7122 17.8362 44.7122 17.5478 44.7218 17.2113C44.7314 16.8748 44.7698 16.5767 44.8468 16.3172C44.8948 16.1441 44.9621 15.9518 45.0679 15.7499C45.1736 15.548 45.3179 15.3557 45.5102 15.173C45.7024 14.9904 45.9332 14.8365 46.212 14.7115C46.4909 14.5865 46.8273 14.5289 47.2216 14.5289C47.6061 14.5289 47.9234 14.5865 48.2022 14.7019C48.4714 14.8173 48.6733 15.0192 48.8079 15.3172C48.9425 15.6057 49.0098 16.0768 49.0098 16.721V22.8454C49.0098 23.3165 49.3944 23.7011 49.8655 23.7011H51.1733C51.6443 23.7011 52.0286 23.3165 52.0286 22.8454V16.6729C52.0286 16.1249 52.0002 15.5576 51.9229 14.9519Z" fill="white"/>
<path d="M37.3089 12.1162H35.9821C35.5013 12.1162 35.1168 12.5008 35.1168 12.9719L35.0879 22.7883C35.0879 23.269 35.4821 23.6536 35.9628 23.6536H37.3089C37.7896 23.6536 38.1837 23.269 38.1837 22.7883V12.9815C38.1742 12.5008 37.7799 12.1162 37.3089 12.1162Z" fill="white"/>
<path d="M64.3444 12.1162H63.0172C62.5367 12.1162 62.152 12.5008 62.152 12.9719L62.123 22.7883C62.123 23.269 62.5173 23.6536 62.9982 23.6536H64.3444C64.8249 23.6536 65.2191 23.269 65.2191 22.7883V12.9815C65.2096 12.5008 64.8249 12.1162 64.3444 12.1162Z" fill="white"/>
<path d="M126.724 15.9523C126.724 23.0189 120.994 28.7395 113.937 28.7395C106.87 28.7395 101.149 23.0093 101.149 15.9523C101.149 8.88562 106.88 3.16504 113.937 3.16504C120.994 3.16504 126.724 8.88562 126.724 15.9523Z" fill="#F36B21"/>
</g>
<defs>
<clipPath id="clip0_2094_72669">
<rect width="129.829" height="32" fill="white" transform="translate(0.146484)"/>
</clipPath>
</defs>
</svg>
