<svg width="154" height="32" viewBox="0 0 154 32" fill="none" xmlns="http://www.w3.org/2000/svg">
<g clipPath="url(#clip0_2094_74605)">
<mask id="mask0_2094_74605" style="mask-type:luminance" maskUnits="userSpaceOnUse" x="0" y="0" width="154" height="32">
<path d="M153.298 0.175781H0.846191V31.9821H153.298V0.175781Z" fill="white"/>
</mask>
<g mask="url(#mask0_2094_74605)">
<path d="M89.9363 18.624H84.8721V20.967H89.9363V18.624Z" fill="#51B848"/>
<path d="M66.7949 14.7809H69.5106V24.7088H72.1922V14.7809H74.9157V12.4548H66.7949V14.7809ZM63.0636 17.0311H58.2729V12.4548H55.5916V24.7088H58.2729V19.3993H63.0636V24.7088H65.7446V12.4548H63.0636V17.0311ZM44.2344 12.4548H41.5445V22.3912H37.0871V12.4548H34.4058V24.7088H43.1841V27.3973H45.6861V22.3912H44.2344V12.4548ZM126.63 24.7088H133.666V22.3912H129.311V19.4583H133.486V17.1238H129.311V14.7809H133.666V12.4548H126.63V24.7088ZM122.958 18.1099C123.315 17.8491 123.603 17.5065 123.796 17.1116C123.99 16.7166 124.083 16.2812 124.068 15.8428C124.081 15.3498 123.982 14.8602 123.776 14.4107C123.57 13.9612 123.264 13.5634 122.881 13.247C121.976 12.6629 120.902 12.3876 119.824 12.4633H116.664V24.7088H120.891C122.04 24.7799 123.174 24.4219 124.068 23.7059C124.419 23.3831 124.696 22.9912 124.882 22.5556C125.07 22.12 125.162 21.6505 125.153 21.1776C125.168 20.7444 125.095 20.3125 124.936 19.9083C124.778 19.5041 124.537 19.1359 124.23 18.8262C123.873 18.4883 123.435 18.2448 122.958 18.1183V18.1099ZM119.346 14.6714H119.867C120.28 14.6544 120.688 14.7632 121.037 14.9831C121.196 15.1018 121.324 15.258 121.407 15.4375C121.491 15.617 121.528 15.8142 121.515 16.0113C121.526 16.2922 121.455 16.5703 121.31 16.812C121.127 17.071 120.853 17.2541 120.541 17.3261C120.316 17.3851 120.083 17.4135 119.849 17.4103H119.346V14.6714ZM122.249 21.6158C122.14 21.8553 121.957 22.0555 121.728 22.1889C121.253 22.4169 120.727 22.5213 120.199 22.4923H119.346V19.5595H120.055C120.58 19.523 121.107 19.5977 121.6 19.7786C121.882 19.8912 122.112 20.1008 122.249 20.3685C122.346 20.5626 122.395 20.7761 122.394 20.9922C122.398 21.2213 122.352 21.4485 122.257 21.6579L122.249 21.6158ZM46.8047 24.7088H53.8411V22.3912H49.5202V19.4583H53.6959V17.1238H49.5202V14.7809H53.8752V12.4548H46.8047V24.7088ZM145.16 12.4548V14.7809H147.884V24.7088H150.565V14.7809H153.289V12.4548H145.16ZM82.9429 13.4072C82.5186 13.0315 82.009 12.7626 81.4569 12.6234C80.8603 12.4895 80.2494 12.43 79.6384 12.4464H75.9918V24.7088H78.6817V20.2926H80.0051C80.5831 20.3283 81.1616 20.249 81.7072 20.0593C82.2533 19.8697 82.7545 19.5736 83.1818 19.1886C83.8786 18.4283 84.2519 17.4322 84.2237 16.4075C84.2363 15.8458 84.1276 15.2879 83.9056 14.7707C83.6829 14.2535 83.3522 13.7887 82.9345 13.4072H82.9429ZM80.8849 17.621C80.457 17.8938 79.9487 18.0156 79.4415 17.9666H78.6475V14.7809H79.2963C79.8437 14.7351 80.3922 14.8557 80.8675 15.1265C81.0608 15.2689 81.2168 15.4549 81.3225 15.669C81.4275 15.8831 81.4797 16.119 81.4743 16.3569C81.4773 16.5976 81.4263 16.836 81.3243 17.0547C81.2222 17.2734 81.0722 17.4669 80.8849 17.621ZM141.257 12.1852C139.583 12.1101 137.947 12.6918 136.706 13.8033C136.055 14.4207 135.542 15.1654 135.2 15.9897C134.857 16.8139 134.692 17.6997 134.716 18.5902C134.7 19.4386 134.858 20.2815 135.181 21.0679C135.504 21.8542 135.986 22.5675 136.596 23.1648C137.207 23.7621 137.935 24.2308 138.734 24.5425C139.534 24.8543 140.39 25.0026 141.249 24.9785C142.315 24.9932 143.368 24.7471 144.315 24.2621L144.4 24.22V20.9668L144.109 21.304C143.78 21.695 143.368 22.0095 142.901 22.2251C142.435 22.4407 141.926 22.5521 141.411 22.5513C140.415 22.5565 139.451 22.1995 138.704 21.5484C138.3 21.1771 137.982 20.7247 137.769 20.2217C137.557 19.7188 137.457 19.1769 137.475 18.6324C137.467 17.6045 137.841 16.6094 138.525 15.8344C138.875 15.4474 139.306 15.1395 139.788 14.9316C140.27 14.7236 140.792 14.6205 141.317 14.6292C141.849 14.6349 142.373 14.7529 142.855 14.9753C143.336 15.1977 143.764 15.5194 144.109 15.9186L144.4 16.2473V12.9858L144.315 12.9437C143.38 12.4419 142.33 12.1837 141.266 12.1936L141.257 12.1852ZM93.9925 20.1662V12.4548H91.311V24.7088H93.369L99.6113 16.9637V24.7088H102.293V12.4548H100.201L93.9925 20.1662ZM111.856 17.0311H107.066V12.4548H104.385V24.7088H107.066V19.3993H111.856V24.7088H114.538V12.4548H111.856V17.0311Z" fill="#51B848"/>
<path d="M40.2466 4.76892C39.5441 4.19129 38.6497 3.89104 37.7361 3.92613H36.6003V2.11417H40.2893V0.175781H34.4058V9.99409H37.7446C38.2418 10.0025 38.7374 9.93425 39.2133 9.79184C39.7897 9.61659 40.2911 9.25799 40.6394 8.7721C41.0034 8.24894 41.1971 7.62854 41.1945 6.99387C41.2055 6.57705 41.1258 6.16282 40.9608 5.77895C40.7958 5.39516 40.5493 5.05073 40.238 4.76892H40.2466ZM38.6668 7.71022C38.2834 7.99638 37.8044 8.12884 37.3262 8.08101H36.6003V5.8814H37.3603C37.8266 5.83561 38.2924 5.97172 38.6583 6.26064C38.7571 6.35907 38.8346 6.47635 38.886 6.60526C38.9374 6.73424 38.9616 6.87222 38.9572 7.01068C38.962 7.14145 38.9395 7.2718 38.891 7.39364C38.8425 7.51541 38.7691 7.62608 38.6753 7.71863L38.6668 7.71022ZM65.8898 4.74363L70.1 0.175781H67.299L64.0371 3.93456V0.175781H61.8081V9.99409H64.0371V5.86454L67.3842 10.0278H70.2878L65.8898 4.74363ZM45.4555 0.175781L41.2457 9.99409H43.6281L44.482 8.00515H48.1369L48.9908 9.99409H51.3562L47.2488 0.175781H45.4555ZM45.1994 6.15105L46.3351 3.34462L47.4452 6.15105H45.1994ZM58.0082 3.83343H54.2339V0.175781H52.0393V9.99409H54.2424V5.78022H57.9741V9.99409H60.1686V0.175781H57.9655L58.0082 3.83343Z" fill="#51B848"/>
<path d="M14.3896 0.175781V7.30566L20.2732 0.175781H14.3896Z" fill="#51B848"/>
<path d="M24.466 1.16211L14.3896 13.3824V16.4248C14.3896 16.3405 14.3896 16.2562 14.4324 16.1719L14.5605 15.6326C14.7877 14.8566 15.152 14.1262 15.6364 13.475L15.978 13.0705C16.3548 12.6865 16.7829 12.3548 17.2503 12.0845C17.4995 11.9573 17.7562 11.8447 18.0188 11.7474C18.5721 11.5827 19.1491 11.5087 19.7267 11.5283L20.3074 11.6041C20.765 11.7071 21.2071 11.8686 21.6224 12.0845C21.8562 12.2199 22.0814 12.3691 22.297 12.5312C22.9173 13.0439 23.4306 13.6708 23.8085 14.3768L24.039 14.8656C24.2174 15.3818 24.3516 15.9118 24.4404 16.4501L24.466 1.16211Z" fill="#51B848"/>
<path d="M19.4529 12.6318C17.2498 12.6318 15.4565 14.8568 15.4565 17.5874C15.4565 20.318 17.2498 22.5514 19.4529 22.5514C21.6561 22.5514 23.4578 20.3264 23.4578 17.5874C23.4578 14.8484 21.6646 12.6318 19.4529 12.6318ZM19.4529 20.9501C18.1294 20.9501 17.0449 19.4415 17.0449 17.5789C17.0449 15.7164 18.1208 14.2079 19.4529 14.2079C20.785 14.2079 21.8695 15.7164 21.8695 17.5789C21.8695 19.4415 20.785 20.9501 19.4529 20.9501Z" fill="#51B848"/>
<path d="M14.5687 19.5598L14.4406 19.0204L14.3979 18.7676V24.726H24.4742V18.8266C24.349 19.524 24.1368 20.2033 23.8423 20.8492L23.5691 21.3128C23.1802 21.9093 22.6856 22.4318 22.1089 22.8551L21.6478 23.1416C21.2323 23.3572 20.7902 23.5187 20.3327 23.6219C20.0505 23.6702 19.7651 23.6983 19.4788 23.7062C19.0902 23.6958 18.7038 23.645 18.326 23.5545C18.0556 23.475 17.7904 23.3794 17.5318 23.268C16.9517 22.9654 16.4289 22.5662 15.9862 22.0881L15.6361 21.6836C15.1575 21.0425 14.7963 20.3237 14.5687 19.5598Z" fill="#51B848"/>
<path d="M0.846191 23.7738L10.9225 11.5536V8.46901V8.72186L10.7859 9.26123C10.5574 10.0368 10.1933 10.767 9.70994 11.4187L9.3598 11.8233C8.97792 12.2146 8.54076 12.5496 8.06189 12.8177C7.81336 12.9465 7.55667 13.0591 7.29331 13.1549C6.74032 13.3209 6.16313 13.3949 5.58547 13.374L5.00481 13.2981C4.53827 13.1975 4.08741 13.036 3.66414 12.8177C3.4274 12.6828 3.19926 12.5336 2.981 12.371C2.36398 11.8574 1.85361 11.2306 1.47809 10.5254L1.24753 10.0366C1.06971 9.52026 0.935467 8.99032 0.846191 8.45215V23.7738Z" fill="#51B848"/>
<path d="M5.85868 12.2612C8.06178 12.2612 9.85507 10.0363 9.85507 7.30574C9.85507 4.57515 8.07036 2.3418 5.85868 2.3418C3.64701 2.3418 1.8623 4.56672 1.8623 7.30574C1.8623 10.0448 3.65555 12.2612 5.85868 12.2612ZM5.85868 3.94306C7.19082 3.94306 8.26673 5.45163 8.26673 7.3142C8.26673 9.17669 7.18223 10.6853 5.85868 10.6853C4.53509 10.6853 3.45061 9.17669 3.45061 7.3142C3.45061 5.45163 4.53509 3.94306 5.85868 3.94306Z" fill="#51B848"/>
<path d="M10.7432 5.342L10.8798 5.8814V6.12579V0.175781H0.846191V6.07519C0.970996 5.37773 1.18326 4.69829 1.47809 4.05255L1.75135 3.58902C2.14282 3.0068 2.63405 2.49632 3.20302 2.08046L3.66414 1.79391C4.07973 1.57863 4.52173 1.41717 4.97919 1.31353C5.26151 1.26595 5.54683 1.23779 5.83311 1.22925C6.22174 1.23934 6.60817 1.29019 6.98591 1.38095C7.25581 1.4618 7.52096 1.55746 7.78005 1.66749C8.35477 1.95022 8.87727 2.32628 9.32565 2.77996L9.67579 3.1845C10.1578 3.83706 10.5218 4.56699 10.7517 5.342H10.7432Z" fill="#51B848"/>
<path d="M10.9141 17.5879L5.03906 24.7094H10.9141V17.5879Z" fill="#51B848"/>
<path d="M21.6221 0.175781L1.42676 24.709H3.6555L23.8935 0.175781H21.6221Z" fill="#51B848"/>
<path d="M13.5695 22.9219H11.769V24.7224H13.5695V22.9219Z" fill="#51B848"/>
<path d="M25.4734 23.0233V24.7089C26.0413 24.75 26.5701 25.0099 26.9456 25.4324C27.321 25.8551 27.513 26.4064 27.4801 26.9675C27.4812 27.5417 27.2598 28.0945 26.8613 28.5128C26.4629 28.9312 25.9175 29.1833 25.3367 29.2177C24.2123 29.1532 23.0999 28.9551 22.0235 28.6278L11.7338 26.0995C6.07221 24.7679 0.846191 26.3017 0.846191 29.951H2.55404C2.55404 28.6025 5.20975 27.7007 10.8884 29.1081L21.3404 31.6112C23.2787 32.1959 25.3614 32.1066 27.241 31.3583C27.9755 30.967 28.5889 30.3866 29.0159 29.6788C29.4429 28.9709 29.6676 28.1621 29.6661 27.3383C29.6832 26.78 29.5876 26.224 29.385 25.7025C29.1823 25.181 28.8766 24.7044 28.4857 24.3005C28.0948 23.8967 27.6264 23.5735 27.1078 23.3499C26.5892 23.1264 26.0307 23.0067 25.4649 22.998L25.4734 23.0233Z" fill="#51B848"/>
</g>
</g>
<defs>
<clipPath id="clip0_2094_74605">
<rect width="152.74" height="32" fill="white" transform="translate(0.75293)"/>
</clipPath>
</defs>
</svg>
