<svg width="240" height="32" viewBox="0 0 240 32" fill="none" xmlns="http://www.w3.org/2000/svg">
<g clipPath="url(#clip0_2094_74565)">
<path d="M27.7295 16.9507L42.3696 31.7063H30.2234L21.5607 23.058L12.9653 31.7063H0.802734L32.1052 0.306641L63.5559 31.7063H51.3549L32.1437 12.5539L27.7295 16.9507Z" fill="#B42226"/>
<path d="M81.9439 0.328125V3.18877H75.1205V6.67601H80.0352L78.4499 9.53378H75.1205V15.9433H71.2617V0.328125H81.9439Z" fill="white"/>
<path d="M95.746 0.328125V3.18877H88.3403V6.48159H93.9788L92.4157 9.33839H88.3403V13.0903H95.9212V15.9433H84.4854V0.328125H95.746Z" fill="white"/>
<path d="M102.453 6.74341H104.511C105.569 6.74341 106.63 6.28331 106.63 4.95212C106.63 3.79901 105.872 3.18877 104.425 3.18877H102.453V6.74341ZM98.5947 0.328125H105.528C108.711 0.328125 110.62 2.48902 110.62 4.82124C110.62 6.54513 109.705 7.81277 107.954 8.64151C109.532 9.44716 110.014 11.3645 112.196 15.9433H107.954C106.284 12.6071 105.678 9.59922 103.578 9.59922H102.453V15.9433H98.5947V0.328125Z" fill="white"/>
<path d="M117.421 6.74341H119.476C120.54 6.74341 121.602 6.28331 121.602 4.95212C121.602 3.79901 120.845 3.18877 119.393 3.18877H117.421L117.421 6.74341ZM113.567 0.328125H120.499C123.678 0.328125 125.588 2.48902 125.588 4.82124C125.588 6.54513 124.676 7.81277 122.922 8.64151C124.504 9.44716 124.981 11.3645 127.167 15.9433H122.922C121.252 12.6071 120.65 9.59922 118.547 9.59922H117.421V15.9433H113.567L113.567 0.328125Z" fill="white"/>
<path d="M136.326 3.3833C133.381 3.3833 131.431 5.28142 131.431 8.14014C131.431 10.995 133.381 12.897 136.326 12.897C139.27 12.897 141.22 10.995 141.22 8.14014C141.22 5.28142 139.27 3.3833 136.326 3.3833ZM136.326 16.1426C130.651 16.1426 127.449 12.1298 127.449 8.14014C127.449 4.36509 130.476 0.134766 136.326 0.134766C142.174 0.134766 145.204 4.38723 145.204 8.14014C145.204 12.1539 141.892 16.1426 136.326 16.1426Z" fill="white"/>
<path d="M151.019 0.328125L159.291 9.88029V0.328125H163.147V15.9433H159.896L151.321 5.93488V15.9433H147.465V0.328125H151.019Z" fill="white"/>
<path d="M174.323 3.3833C171.383 3.3833 169.43 5.28142 169.43 8.14014C169.43 10.995 171.383 12.897 174.323 12.897C177.269 12.897 179.218 10.995 179.218 8.14014C179.218 5.28142 177.269 3.3833 174.323 3.3833ZM174.323 16.1426C168.65 16.1426 165.443 12.1298 165.443 8.14014C165.443 4.36509 168.479 0.134766 174.323 0.134766C180.174 0.134766 183.202 4.38723 183.202 8.14014C183.202 12.1539 179.894 16.1426 174.323 16.1426Z" fill="white"/>
<path d="M189.321 6.74341H191.38C192.44 6.74341 193.502 6.28331 193.502 4.95212C193.502 3.79901 192.744 3.18877 191.291 3.18877H189.321L189.321 6.74341ZM185.463 0.328125H192.398C195.579 0.328125 197.484 2.48902 197.484 4.82124C197.484 6.54513 196.575 7.81277 194.822 8.64151C196.403 9.44716 196.878 11.3645 199.065 15.9433H194.822C193.154 12.6071 192.545 9.59922 190.443 9.59922H189.321V15.9433H185.463L185.463 0.328125Z" fill="white"/>
<path d="M204.291 13.0903H206.802C210.701 13.0903 211.847 10.4299 211.847 8.13907C211.847 5.45457 210.417 3.18877 206.758 3.18877H204.291L204.291 13.0903ZM200.432 0.328125H207.255C212.928 0.328125 215.831 3.88468 215.831 8.1612C215.831 12.6524 213.019 15.9433 206.827 15.9433H200.432V0.328125Z" fill="white"/>
<path d="M222.072 0.329102H218.217V15.9442H222.072V0.329102Z" fill="white"/>
<path d="M239.309 4.97629C237.622 4.01762 235.892 3.3833 233.965 3.3833C230.673 3.3833 228.354 5.34591 228.354 8.11416C228.354 10.9113 230.651 12.897 233.875 12.897C235.915 12.897 237.276 12.2598 239.51 11.1923V14.5958C237.342 15.7307 235.699 16.1426 233.401 16.1426C227.381 16.1426 224.371 12.2184 224.371 8.18153C224.371 4.01763 227.767 0.134766 233.703 0.134766C235.869 0.134766 237.796 0.591971 239.309 1.48327L239.309 4.97629Z" fill="white"/>
<path d="M80.7927 31.6152V26.8497C80.7927 25.6302 80.1016 25.1085 79.2228 25.1085C78.3719 25.1085 77.6 25.6465 77.6 26.7746V31.6152H76.0282V26.8497C76.0282 25.6302 75.3351 25.1085 74.4534 25.1085C73.5756 25.1085 72.8374 25.6465 72.8374 26.8497V31.6152H71.2627V23.7946H72.8047V24.5839C73.3331 24.015 74.1002 23.707 74.8856 23.707C75.8587 23.707 76.6153 24.0911 77.111 24.8467C77.7405 24.0757 78.5298 23.707 79.5606 23.707C80.3624 23.707 81.0718 23.9679 81.5348 24.4155C82.1335 25.0016 82.3635 25.7409 82.3635 26.6197V31.6152C82.3635 31.6152 80.7927 31.6152 80.7927 31.6152Z" fill="white"/>
<path d="M88.8603 28.1597H87.0247C86.1007 28.1597 85.6242 28.5794 85.6242 29.2878C85.6242 29.9943 86.066 30.3956 87.0555 30.3956C87.6561 30.3956 88.1046 30.3514 88.5205 29.9491C88.7525 29.719 88.8603 29.3503 88.8603 28.793L88.8603 28.1597ZM88.8901 31.6152V30.9058C88.3212 31.4766 87.7812 31.7066 86.8081 31.7066C85.8408 31.7066 85.192 31.4766 84.7098 30.9982C84.3151 30.5824 84.0977 29.9808 84.0977 29.3147C84.0977 28.0057 85.0063 27.0663 86.7947 27.0663H88.8603V26.5099C88.8603 25.5272 88.3674 25.0449 87.1479 25.0449C86.2836 25.0449 85.8687 25.2471 85.4384 25.8005L84.4018 24.8313C85.1448 23.9679 85.9149 23.707 87.2114 23.707C89.354 23.707 90.4311 24.6128 90.4311 26.3886V31.6152H88.8901Z" fill="white"/>
<path d="M95.8076 31.7066C94.0481 31.7066 92.3213 30.6286 92.3213 27.6996C92.3213 24.7716 94.0481 23.707 95.8076 23.707C96.8866 23.707 97.6402 24.015 98.3814 24.7985L97.3033 25.8448C96.8086 25.3096 96.4197 25.1085 95.8076 25.1085C95.205 25.1085 94.6939 25.3568 94.358 25.8015C94.0153 26.2356 93.8921 26.791 93.8921 27.6996C93.8921 28.6073 94.0153 29.1809 94.358 29.6122C94.6939 30.0559 95.205 30.3052 95.8076 30.3052C96.4197 30.3052 96.8086 30.104 97.3033 29.564L98.3814 30.5978C97.6402 31.3813 96.8866 31.7066 95.8076 31.7066Z" fill="white"/>
<path d="M104.825 31.6153V26.8209C104.825 25.6303 104.131 25.1086 103.247 25.1086C102.372 25.1086 101.661 25.6466 101.661 26.8209V31.6153H100.091V20.6318H101.661V24.584C102.202 23.9997 102.909 23.7071 103.68 23.7071C105.421 23.7071 106.394 24.8747 106.394 26.5726V31.6153H104.825Z" fill="white"/>
<path d="M108.65 23.7951H110.225V31.6157H108.65V23.7951ZM108.607 20.5918H110.273V22.255H108.607V20.5918Z" fill="white"/>
<path d="M117.303 31.6152V26.8497C117.303 25.6302 116.609 25.1085 115.731 25.1085C114.849 25.1085 114.109 25.6465 114.109 26.8497V31.6152H112.537V23.7946H114.08V24.5839C114.615 23.9996 115.372 23.707 116.156 23.707C116.961 23.707 117.624 23.9679 118.09 24.4155C118.687 25.0016 118.874 25.7409 118.874 26.6197V31.6152L117.303 31.6152Z" fill="white"/>
<path d="M125.619 26.0027C125.371 25.4155 124.816 25.0161 124.079 25.0161C123.335 25.0161 122.767 25.4155 122.52 26.0027C122.367 26.3578 122.331 26.5879 122.319 27.0663H125.834C125.824 26.5879 125.773 26.3578 125.619 26.0027ZM122.319 28.1597C122.319 29.5034 123.03 30.3504 124.309 30.3504C125.189 30.3504 125.647 30.1031 126.203 29.5486L127.206 30.489C126.404 31.2899 125.647 31.7057 124.274 31.7057C122.319 31.7057 120.761 30.6719 120.761 27.6987C120.761 25.1701 122.075 23.7061 124.079 23.7061C126.174 23.7061 127.393 25.2461 127.393 27.4667V28.1597H122.319Z" fill="white"/>
<path d="M132.049 31.7066C130.765 31.7066 129.69 31.4929 128.764 30.5824L129.798 29.5496C130.434 30.1983 131.276 30.3687 132.049 30.3687C133.006 30.3687 133.759 30.028 133.759 29.2878C133.759 28.7603 133.466 28.4254 132.709 28.3618L131.462 28.2511C130 28.1308 129.149 27.4667 129.149 26.097C129.149 24.5666 130.458 23.707 132.097 23.707C133.265 23.707 134.266 23.9525 134.993 24.5849L134.005 25.583C133.514 25.171 132.818 25.017 132.078 25.017C131.138 25.017 130.66 25.4328 130.66 26.0209C130.66 26.482 130.911 26.8343 131.742 26.9094L132.973 27.0191C134.439 27.1423 135.302 27.8382 135.302 29.2242C135.302 30.8596 133.913 31.7066 132.049 31.7066Z" fill="white"/>
</g>
<defs>
<clipPath id="clip0_2094_74565">
<rect width="239.158" height="32" fill="white" transform="translate(0.65625)"/>
</clipPath>
</defs>
</svg>
