<svg width="205" height="32" viewBox="0 0 205 32" fill="none" xmlns="http://www.w3.org/2000/svg">
<g clipPath="url(#clip0_2094_73819)">
<path fillRule="evenodd" clipRule="evenodd" d="M195.794 22.5157L192.601 13.2569V22.5157H189.309V8.99167H193.87L196.964 18.077L199.98 8.99167H204.62V22.5157H201.348V13.2569L198.075 22.5157H195.794ZM181.575 20.2956C182.386 20.2956 183.121 20.0181 183.577 19.5639C183.934 19.0865 184.31 18.5314 184.489 17.9764C184.588 17.618 184.766 17.0629 184.766 16.6863V15.8537C184.766 14.4661 184.489 13.3527 184.132 12.7979C183.755 12.2428 183.299 11.7688 182.843 11.5887C182.665 11.4913 182.306 11.3112 182.108 11.3112H180.939C180.76 11.3112 180.384 11.4913 180.106 11.5887C179.749 11.7688 179.194 12.2428 178.836 12.7979C178.479 13.4338 178.281 14.544 178.281 15.8537V16.5855C178.281 16.863 178.38 17.2412 178.38 17.618C178.558 18.2539 178.935 18.908 179.293 19.463C179.749 20.0181 180.562 20.2956 181.475 20.2956H181.575ZM181.476 22.9931C179.016 22.9931 177.191 22.1605 176.2 20.7696C175.286 19.2861 174.731 17.6177 174.731 15.7529C174.731 13.9887 175.286 12.3237 176.2 10.837C177.191 9.36845 179.016 8.61351 181.395 8.61351H181.575C183.934 8.61351 185.759 9.36845 186.77 10.837C187.761 12.3237 188.318 13.9889 188.318 15.7529C188.318 17.618 187.761 19.2861 186.77 20.7696C185.759 22.1605 183.934 22.8938 181.575 22.8938L181.476 22.9931ZM166.718 14.5437L171.082 8.99167H175.009L169.635 15.1978L175.286 22.5157H171.281L166.718 16.1313V22.5157H163.446V8.99167H166.718L166.718 14.5437ZM155.234 14.3652H161.701V16.7851H155.234V19.9386H162.791V22.5154H151.962V8.99144H162.613V11.5883H155.234L155.234 14.3652ZM137.642 22.5154L137.564 19.9386H138.277C139.288 19.9386 140.022 19.4628 140.279 18.6321C140.478 17.7962 140.735 16.6861 140.735 15.4753L140.834 8.99167H150.852V22.5157H147.579V11.5885H143.93L143.849 16.3079C143.849 16.6863 143.75 17.1438 143.75 17.5187C143.75 17.8953 143.653 18.4503 143.572 18.908C143.393 19.8412 142.838 20.6738 142.204 21.4055C141.57 22.1605 140.38 22.5157 138.932 22.5157L138.733 22.6165L138.196 22.5157H137.564L137.642 22.5154ZM130.086 14.3652H136.551V16.7851H130.086V19.9386H137.642V22.5154H126.792V8.99144H137.463V11.5883H130.086V14.3652ZM119.058 11.5885H114.953V8.99167H126.338V11.5885H122.33V22.5157H119.058L119.058 11.5885ZM110.946 22.5157L106.385 16.1313V22.5157H103.112V8.99167H106.385V14.5437L110.767 8.99167H114.595L109.3 15.1978L113.762 21.0504H115.508V24.7192H113.048V22.5157H110.946ZM94.7211 17.6988H97.9157L96.3679 12.7976L94.7211 17.6988ZM94.9012 8.9919H98.0149L103.014 22.5159H99.4635L98.649 20.0183H93.9891L93.1747 22.5159H89.7039L94.643 8.9919H94.9012ZM77.9629 17.7965L80.9577 17.8955C80.9577 18.6323 81.2352 19.1855 81.592 19.5639C81.9686 19.9388 82.4262 20.2164 82.7814 20.2956L83.4173 20.3965C83.6156 20.3965 83.8732 20.4923 83.9724 20.4923C84.8843 20.4923 85.6987 20.2164 86.0753 19.8414C86.4321 19.463 86.6106 19.0056 86.6106 18.6323V18.5314C86.6106 17.9763 86.4321 17.6179 86.2538 17.4213C85.9762 17.2412 85.6178 16.9636 85.3403 16.9636L84.7852 16.8628C84.6067 16.8628 84.4284 16.7851 84.3294 16.7851H82.5041V14.3652H84.8843C85.2427 14.3652 85.6176 14.0893 85.7977 13.911C86.0753 13.7111 86.2535 13.3527 86.2535 12.8785C86.2535 12.5201 86.075 12.0459 85.7977 11.866C85.6176 11.6875 85.2427 11.4102 84.8843 11.4102C84.7057 11.3112 84.4284 11.2135 84.2499 11.2135H83.3381L82.9597 11.311C82.6045 11.311 82.1487 11.5885 81.8695 11.866C81.592 12.1468 81.3342 12.7018 81.3342 13.4336H78.1412C78.1412 11.7684 78.7755 10.4784 79.7864 9.72341C80.6999 8.99167 82.1487 8.61328 83.9722 8.61328H84.1507C85.7975 8.61328 87.1654 8.89082 87.8988 9.36823C88.614 9.82244 89.2483 10.3775 89.4466 10.9358C89.5258 11.1325 89.7043 11.4908 89.7043 11.6873C89.7043 11.9648 89.8034 12.2424 89.8034 12.4241C89.8034 13.2567 89.5258 13.9884 89.169 14.365C88.7925 14.7434 88.2556 15.0983 87.8014 15.2982H87.5238L87.2447 15.3972V15.4749C88.2556 15.6748 89.07 16.0299 89.4466 16.585C89.9024 17.1433 90.1602 17.9759 90.1602 18.9075C90.1602 20.2157 89.7043 21.2284 88.7925 21.7835C87.978 22.3385 86.9869 22.7151 85.976 22.7927C85.6176 22.7927 85.2427 22.8936 84.9635 22.8936H82.8804C82.5039 22.8936 82.1487 22.7151 81.7903 22.7151C80.8784 22.6161 79.8675 22.16 79.0531 21.4051C78.3197 20.7692 77.7844 19.5632 77.7844 17.8948L77.9629 17.7958V17.7965ZM70.2074 17.6991H73.4004L71.8542 12.7979L70.2074 17.6991ZM70.3875 8.99213H73.4997L78.4982 22.5161H74.9482L74.1356 20.0186H69.474L68.6614 22.5161H65.1907L70.1281 8.99213H70.3875ZM61.56 22.5161L56.9991 16.1317V22.5161H53.7266V8.99213H56.9988V14.5442L61.3615 8.99213H65.1907L59.9145 15.1983L64.3762 21.0508H66.1025V24.7196H63.6429V22.5161H61.56Z" fill="white"/>
<path fillRule="evenodd" clipRule="evenodd" d="M16.2439 0.702148C24.7512 0.702148 31.6509 7.60028 31.6509 16.1075C31.6509 24.6164 24.7509 31.5129 16.2439 31.5129C7.73665 31.5129 0.836914 24.6164 0.836914 16.1075C0.836914 7.60028 7.73688 0.702148 16.2439 0.702148Z" fill="#1596D4"/>
<path d="M16.2439 0.702148C24.7512 0.702148 31.6509 7.60028 31.6509 16.1075C31.6509 24.6164 24.7509 31.5129 16.2439 31.5129C7.73665 31.5129 0.836914 24.6164 0.836914 16.1075C0.836914 7.60028 7.73688 0.702149 16.2439 0.702148Z" stroke="#1596D4" stroke-width="0.558396" stroke-miterlimit="22.926"/>
<path fillRule="evenodd" clipRule="evenodd" d="M31.3468 20.1865H1.38672C1.38672 20.4409 1.51721 20.9828 1.69228 21.2025H31.4343C31.3913 20.9481 31.3468 20.4409 31.3468 20.1865Z" fill="white"/>
<path fillRule="evenodd" clipRule="evenodd" d="M29.6931 15.4268H0.780273C0.780273 15.6811 0.824844 16.294 0.824844 16.4392H29.7788C29.7359 16.1881 29.6931 15.6811 29.6931 15.4268Z" fill="white"/>
<path fillRule="evenodd" clipRule="evenodd" d="M29.6935 10.5459H1.78505C1.69752 10.726 1.56703 11.4132 1.47949 11.5584H29.7794C29.7364 11.3073 29.6935 10.8002 29.6935 10.5459Z" fill="white"/>
<path fillRule="evenodd" clipRule="evenodd" d="M29.6928 5.625H4.88666C4.75455 5.73574 4.27392 6.34847 4.05566 6.63933H29.7787C29.7358 6.38339 29.6928 5.87772 29.6928 5.625Z" fill="white"/>
<path fillRule="evenodd" clipRule="evenodd" d="M31.347 25.1895H3.70117C3.78871 25.5148 4.26933 26.0221 4.48736 26.2038H31.4343C31.3913 25.9478 31.347 25.4422 31.347 25.1895Z" fill="white"/>
<path fillRule="evenodd" clipRule="evenodd" d="M31.0183 0.557224C39.7436 0.908965 46.5393 8.16251 46.1942 16.7571C45.8489 25.3519 38.4931 32.0368 29.7696 31.6883C21.0443 31.3365 14.2503 24.083 14.5956 15.4884C14.9409 6.89362 22.2949 0.205252 31.0183 0.557224Z" fill="white"/>
<path fillRule="evenodd" clipRule="evenodd" d="M22.9629 2.24861C27.6807 1.44749 34.5359 2.16429 39.0389 4.90654L39.3397 5.65161C40.714 6.07113 42.5791 7.02595 43.7882 7.91622C41.7547 4.79742 38.7053 2.29318 34.7971 1.14859C31.2903 0.0186945 26.3326 0.370438 22.9629 2.24861Z" fill="#1596D4"/>
<path d="M22.9629 2.24861C27.6807 1.44749 34.5359 2.16429 39.0389 4.90654L39.3397 5.65161C40.714 6.07113 42.5791 7.02595 43.7882 7.91622C41.7547 4.79742 38.7053 2.29318 34.7971 1.14859C31.2903 0.0186945 26.3326 0.370438 22.9629 2.24861Z" stroke="#1596D4" stroke-width="0.558396" stroke-miterlimit="22.926"/>
<path fillRule="evenodd" clipRule="evenodd" d="M18.4954 5.87426C27.0736 4.75425 36.1408 5.08301 44.5718 9.41258C45.7678 11.5485 46.075 13.9041 46.1692 16.1044C45.046 14.9233 43.1166 13.7109 41.9733 13.0072L41.7849 12.2309C34.3961 8.38032 25.7303 6.27745 17.7666 6.72523C17.9961 6.47733 18.1914 6.15845 18.4954 5.87426Z" fill="#1596D4"/>
<path d="M18.4954 5.87426C27.0736 4.75425 36.1408 5.08301 44.5718 9.41258C45.7678 11.5485 46.075 13.9041 46.1692 16.1044C45.046 14.9233 43.1166 13.7109 41.9733 13.0072L41.7849 12.2309C34.3961 8.38032 25.7303 6.27745 17.7666 6.72523C17.9961 6.47733 18.1914 6.15845 18.4954 5.87426Z" stroke="#1596D4" stroke-width="0.558396" stroke-miterlimit="22.926"/>
<path fillRule="evenodd" clipRule="evenodd" d="M15.6673 10.668C25.6759 10.3393 35.6632 11.5073 46.0949 17.0524C46.0916 18.957 45.5003 20.9476 44.5817 22.8159C43.4238 21.5605 42.0807 20.3695 40.581 19.4312L40.7197 18.7043C32.32 13.6083 23.7962 11.5815 15.3369 11.6079C15.4194 11.3552 15.6211 10.924 15.6673 10.668Z" fill="#1596D4"/>
<path d="M15.6673 10.668C25.6759 10.3393 35.6632 11.5073 46.0949 17.0524C46.0916 18.957 45.5003 20.9476 44.5817 22.8159C43.4238 21.5605 42.0807 20.3695 40.581 19.4312L40.7197 18.7043C32.32 13.6083 23.7962 11.5815 15.3369 11.6079C15.4194 11.3552 15.6211 10.924 15.6673 10.668Z" stroke="#1596D4" stroke-width="0.558396" stroke-miterlimit="22.926"/>
<path fillRule="evenodd" clipRule="evenodd" d="M14.6689 15.4639C26.0503 15.5893 35.8014 18.0671 44.1449 23.6389C43.3056 25.3999 41.8902 26.9162 40.3357 28.246C39.2421 27.2135 37.9075 25.8061 36.8486 24.8102L37.3492 24.2089C30.9366 19.7406 23.5528 16.6994 14.6377 16.2303C14.6873 15.9015 14.6572 15.7529 14.6689 15.4639Z" fill="#1596D4"/>
<path d="M14.6689 15.4639C26.0503 15.5893 35.8014 18.0671 44.1449 23.6389C43.3056 25.3999 41.8902 26.9162 40.3357 28.246C39.2421 27.2135 37.9075 25.8061 36.8486 24.8102L37.3492 24.2089C30.9366 19.7406 23.5528 16.6994 14.6377 16.2303C14.6873 15.9015 14.6572 15.7529 14.6689 15.4639Z" stroke="#1596D4" stroke-width="0.558396" stroke-miterlimit="22.926"/>
<path fillRule="evenodd" clipRule="evenodd" d="M15.1662 20.3857C24.1277 20.6369 33.0743 23.9638 39.4355 28.7938C38.1767 30.0261 35.7634 30.8454 33.8026 31.3524L31.883 29.0035L32.3786 28.513C26.7689 24.1471 21.4349 22.031 15.4601 21.2795C15.3229 21.0532 15.2637 20.683 15.1662 20.3857Z" fill="#1596D4"/>
<path d="M15.1662 20.3857C24.1277 20.6369 33.0743 23.9638 39.4355 28.7938C38.1767 30.0261 35.7634 30.8454 33.8026 31.3524L31.883 29.0035L32.3786 28.513C26.7689 24.1471 21.4349 22.031 15.4601 21.2795C15.3229 21.0532 15.2637 20.683 15.1662 20.3857Z" stroke="#1596D4" stroke-width="0.558396" stroke-miterlimit="22.926"/>
<path fillRule="evenodd" clipRule="evenodd" d="M17.6758 25.3965C22.8809 26.1514 28.1173 27.9752 32.9573 31.4655C31.441 31.8439 29.32 31.7595 27.5376 31.4655C25.6149 31.0227 23.8109 30.3652 23.1667 29.9721C24.006 30.0431 24.8829 30.1141 25.7585 30.1885C25.2432 29.3228 20.9101 26.8816 18.3384 26.2256C18.1633 25.9993 17.8476 25.6575 17.6758 25.3965Z" fill="#1596D4"/>
<path d="M17.6758 25.3965C22.8809 26.1514 28.1173 27.9752 32.9573 31.4655C31.441 31.8439 29.32 31.7595 27.5376 31.4655C25.6149 31.0227 23.8109 30.3652 23.1667 29.9721C24.006 30.0431 24.8829 30.1141 25.7585 30.1885C25.2432 29.3228 20.9101 26.8816 18.3384 26.2256C18.1633 25.9993 17.8476 25.6575 17.6758 25.3965Z" stroke="#1596D4" stroke-width="0.558396" stroke-miterlimit="22.926"/>
</g>
<defs>
<clipPath id="clip0_2094_73819">
<rect width="204.225" height="32" fill="white" transform="translate(0.544922)"/>
</clipPath>
</defs>
</svg>
