<svg width="51" height="32" viewBox="0 0 51 32" fill="none" xmlns="http://www.w3.org/2000/svg">
<g clipPath="url(#clip0_2094_73903)">
<path fillRule="evenodd" clipRule="evenodd" d="M43.9359 7.95145H50.3881L49.7539 11.3981H47.1344L46.5278 14.6518H48.8715L48.2925 17.9053H45.9487L43.4396 31.9954H39.6068L43.9359 7.95145ZM42.5572 7.95145H38.6418L36.2705 20.6076C36.1051 21.4623 35.9671 22.0138 35.8568 22.2619C35.719 22.4825 35.5536 22.5928 35.3054 22.5928C35.0848 22.5928 34.947 22.4825 34.9193 22.2895C34.8918 22.0689 34.947 21.6001 35.0848 20.8281L37.5113 7.95145H33.5683L31.6657 18.1259C31.3073 20.0561 31.0867 21.3244 31.0315 21.931C31.0039 22.5377 31.0867 23.1168 31.3348 23.6681C31.5554 24.2196 31.9966 24.6608 32.6308 24.9917C33.265 25.3501 34.0094 25.5156 34.9193 25.5156C35.7466 25.5156 36.4635 25.3777 37.1253 25.0745C37.787 24.7987 38.3385 24.3575 38.8072 23.8061C39.2759 23.2546 39.6068 22.7031 39.7723 22.1792C39.9653 21.6553 40.1583 20.7454 40.4065 19.4218L42.5572 7.95145ZM26.537 19.0083C26.7025 17.0506 26.9507 14.6793 27.3091 11.8117C26.2889 15.0929 25.5995 17.4641 25.2411 19.0083H26.537ZM30.5352 7.95145L29.322 25.1571H25.7098L26.0959 22.0413H24.7173L23.8901 25.1571H19.9747L25.4893 7.95145H30.5352ZM22.3736 7.95145H19.0648L17.6309 15.6995L16.8589 7.95145H13.5777L10.3516 25.1571H13.6604L15.1217 17.3263L15.7008 25.1571H19.1475L22.3736 7.95145ZM11.813 8.08931L8.55929 15.865L9.35892 25.1571H5.74684L5.08506 19.0083L3.92698 25.1571H0.149414L4.09239 0.0654297H7.86995L5.9398 13.797L8.33869 8.08931H11.813Z" fill="#00AEEF"/>
</g>
<defs>
<clipPath id="clip0_2094_73903">
<rect width="50.3138" height="32" fill="white" transform="translate(0.0820312)"/>
</clipPath>
</defs>
</svg>
