<svg width="107" height="32" viewBox="0 0 107 32" fill="none" xmlns="http://www.w3.org/2000/svg">
<g clipPath="url(#clip0_2094_72657)">
<path d="M51.3657 19.7842H58.9841C59.0051 20.0602 59.0051 20.3783 59.0051 20.6332C59.0051 25.3867 55.5672 27.8272 51.8957 27.8272C47.4818 27.8272 44.3408 24.6437 44.3408 20.2087C44.3408 15.9008 47.4818 12.5898 51.8957 12.5898C54.6547 12.5898 57.1802 14.0328 58.4111 16.7068L56.6707 17.2583C55.7157 15.4543 53.9117 14.3933 51.8957 14.3933C48.6703 14.3933 46.3568 16.7703 46.3568 20.2083C46.3568 23.6462 48.6698 26.0227 51.8957 26.0227C54.5907 26.0227 56.9252 24.4947 57.2012 21.5873H51.3652V19.7842H51.3657Z" fill="white"/>
<path d="M61.3398 16.6007H63.1223V17.8742C63.4193 16.9617 64.3533 16.4102 65.6478 16.4102C66.0083 16.4102 66.4968 16.4527 66.6663 16.5162V18.2351C66.3903 18.1291 66.0293 18.0866 65.6688 18.0866C64.0133 18.0866 63.1223 18.9781 63.1223 20.5271V27.6365H61.3398V16.6007Z" fill="white"/>
<path d="M73.5005 16.4102C76.9385 16.4102 79.3579 18.8081 79.3579 22.0976C79.3579 25.4295 76.96 27.8275 73.4795 27.8275C70.084 27.8275 67.6436 25.4295 67.6436 22.0976C67.6431 18.8081 70.02 16.4102 73.5005 16.4102ZM73.479 26.151C75.856 26.151 77.49 24.4956 77.49 22.0976C77.49 19.7206 75.771 18.0866 73.479 18.0866C71.187 18.0866 69.5105 19.6996 69.5105 22.0976C69.5105 24.4746 71.1445 26.151 73.479 26.151Z" fill="white"/>
<path d="M89.7558 25.8745C89.1829 27.063 87.7824 27.827 86.1694 27.827C83.1769 27.827 81.6279 26.32 81.6279 22.925V16.6006H83.4104V22.67C83.4104 24.559 84.0474 26.1505 86.5299 26.1505C88.4609 26.1505 89.7554 24.941 89.7554 22.8825V16.6006H91.5379V27.636H89.7554V25.8745H89.7558Z" fill="white"/>
<path d="M96.5051 25.96V31.881H94.7227V16.6012H96.5051V18.5746C97.2481 17.2802 98.6486 16.4102 100.686 16.4102C103.7 16.4102 106.013 18.5536 106.013 22.0341C106.013 25.472 103.763 27.8275 100.538 27.8275C98.5426 27.8275 97.2901 27.127 96.5051 25.96ZM104.145 22.0766C104.145 19.6151 102.554 18.0871 100.325 18.0871C97.9906 18.0871 96.5051 19.5511 96.5051 21.9496V22.3531C96.5051 24.921 98.2456 26.1515 100.389 26.1515C102.639 26.151 104.145 24.5596 104.145 22.0766Z" fill="white"/>
<path d="M26.6387 27.6356L23.5613 22.5207L20.5478 27.6356H16.9399L21.5749 19.9317L16.8506 12.7793H20.6199L23.6463 17.5547L26.5327 12.7793H30.1407L25.4928 20.1652L30.2682 27.6356L26.6387 27.6356Z" fill="white"/>
<path d="M41.996 22.5856C41.996 25.8541 39.534 27.8916 36.308 27.8916C33.4641 27.8916 31.0699 26.3211 30.8369 22.9041H33.9144C34.1264 24.3896 35.3153 25.0266 36.6098 25.0266C38.2228 25.0266 38.919 23.9441 38.919 22.5436C38.919 21.0791 37.8365 20.1667 36.3295 20.1667C35.0775 20.1667 34.2496 20.7611 33.8676 21.3976H30.9262L31.9428 12.7812H41.6173L41.2945 15.6677H34.3737L34.0987 18.5188C34.0987 18.5188 34.8254 17.6627 37.0286 17.6627C39.6825 17.6617 41.996 19.4432 41.996 22.5856Z" fill="white"/>
<path d="M31.2013 10.93C29.5616 4.53969 24.3612 0.0498047 13.5679 0.0498047H0.537109L2.30623 12.011C3.637 22.8039 7.76494 26.2762 15.0697 27.5549C15.1036 27.5602 15.3351 27.5931 15.338 27.3224C15.339 27.225 15.2774 27.1409 15.1928 27.1046C10.2551 25.0256 9.69163 18.208 8.63685 11.3664L7.82081 5.91439H15.2597C22.1179 5.91439 27.4134 5.806 30.7654 11.1005C30.815 11.1749 30.8929 11.2299 30.985 11.2299C31.1144 11.2299 31.2109 11.1248 31.2109 10.9954C31.2109 10.972 31.2075 10.9501 31.2013 10.93Z" fill="#5FAF46"/>
</g>
<defs>
<clipPath id="clip0_2094_72657">
<rect width="105.674" height="32" fill="white" transform="translate(0.47168)"/>
</clipPath>
</defs>
</svg>
