<svg width="269" height="32" viewBox="0 0 269 32" fill="none" xmlns="http://www.w3.org/2000/svg">
<g clipPath="url(#clip0_2094_74596)">
<path d="M31.9784 22.8992C31.9784 23.5487 31.4913 24.0359 30.8418 24.0359C30.3546 24.0359 30.0299 23.8735 29.8675 23.3863L20.4495 4.06313C19.3128 1.78981 16.7147 0.166016 14.1166 0.166016H4.53622C2.58767 0.166016 0.963867 1.78982 0.963867 3.73838V31.5053H10.3819V8.93453C10.3819 8.28501 10.869 7.79788 11.6809 7.6355C12.1681 7.6355 12.4928 7.96025 12.8176 8.28501L22.0733 27.6082C23.3723 30.0439 25.808 31.6677 28.5685 31.5053H37.9865C39.935 31.5053 41.5588 29.8815 41.5588 27.933V0.166016H32.1408V22.8992H31.9784Z" fill="#F26A28"/>
<path d="M258.336 0.166016V22.8992C258.336 23.5487 257.849 24.0359 257.199 24.0359C256.712 24.0359 256.388 23.8735 256.225 23.3863L246.645 4.06313C245.508 1.78981 243.072 0.166016 240.312 0.166016H230.732C228.783 0.166016 227.159 1.78982 227.159 3.73838V31.5053H236.577V8.77216C236.577 8.12264 237.064 7.6355 237.714 7.6355H237.876C238.363 7.6355 238.688 7.79787 238.851 8.28501L248.431 27.6082C249.568 30.0439 252.166 31.5053 254.764 31.5053H264.182C266.13 31.5053 267.754 29.8815 267.754 27.933V0.166016H258.336Z" fill="#F26A28"/>
<path d="M115.929 21.6002C115.929 22.8992 114.792 24.0359 113.493 24.0359H100.016C98.7168 24.0359 97.5801 22.8992 97.5801 21.6002V0.166016H88.1621V24.3606C88.1621 28.2577 91.4097 31.5053 95.3068 31.5053H118.04C121.937 31.5053 125.185 28.2577 125.185 24.3606V0.166016H115.767V21.6002H115.929Z" fill="#F26A28"/>
<path d="M187.214 3.73838V27.933C187.214 29.8815 188.838 31.5053 190.786 31.5053H221.314V24.0359H196.632V19.814H218.553V12.1821H196.632V7.6355H221.314V0.166016H190.786C188.838 0.166016 187.214 1.78982 187.214 3.73838Z" fill="#F26A28"/>
<path d="M178.121 0.165461H168.703C165.942 0.00308158 163.344 1.62688 162.37 4.06258L156.199 21.762L150.191 4.06258C149.217 1.62688 146.619 0.00308158 143.859 0.165461H134.441C132.492 0.165461 130.868 1.78927 130.868 3.73783V31.5048H140.286V8.77161C140.286 8.12209 140.773 7.63494 141.423 7.63494C141.748 7.63494 142.072 7.9597 142.235 8.28446L150.354 29.5562C151.003 30.8553 152.302 31.5048 153.601 31.5048H159.122C160.421 31.5048 161.72 30.8553 162.37 29.5562L170.164 8.28446C170.326 7.9597 170.651 7.63494 171.138 7.63494C171.788 7.63494 172.275 8.12207 172.275 8.77159V31.5048H181.693V3.73783C181.531 1.78927 180.069 0.165461 178.121 0.165461Z" fill="#F26A28"/>
<path d="M77.445 31.5053H87.9997L74.6846 3.90075C73.5479 1.78981 71.2746 0.166016 68.8389 0.166016H62.1813C59.5833 0.166016 57.3099 1.62743 56.3357 4.06313L43.0205 31.6677H53.4128L56.498 25.1725H74.5222L77.445 31.5053ZM59.908 17.5407L64.2923 8.4474C64.4546 7.96025 64.9418 7.6355 65.4289 7.6355C65.9161 7.6355 66.4032 7.96025 66.5656 8.4474L70.9498 17.5407H59.908Z" fill="#F26A28"/>
</g>
<defs>
<clipPath id="clip0_2094_74596">
<rect width="267.294" height="32" fill="white" transform="translate(0.800781)"/>
</clipPath>
</defs>
</svg>
