<svg width="52" height="32" viewBox="0 0 52 32" fill="none" xmlns="http://www.w3.org/2000/svg">
<g clipPath="url(#clip0_2094_73765)">
<path d="M0.351562 0.0478516H51.0583V31.9143H0.351562V0.0478516Z" fill="#552F60"/>
<path d="M6.07964 5.66017C6.83007 5.65946 7.58021 5.66017 8.33067 5.65995C8.32966 7.9286 8.33162 10.1973 8.32966 12.4659C9.61981 12.4687 10.9099 12.4665 12.1998 12.4672C12.2 13.0538 12.1998 13.6405 12.2 14.2271C10.1597 14.2273 8.11967 14.2264 6.07964 14.2276V5.66017ZM15.1777 14.2273C16.2354 11.3714 17.2866 8.51321 18.3469 5.6582C19.0632 5.66191 19.7795 5.65946 20.4958 5.65946C21.5583 8.51488 22.6169 11.3719 23.6778 14.2278C22.895 14.2264 22.1122 14.2271 21.3297 14.2273C21.145 13.6619 20.9647 13.0952 20.7821 12.5293C19.8781 12.528 18.9739 12.5293 18.0699 12.5285C17.884 13.0942 17.6941 13.6587 17.5126 14.2258C16.7342 14.2288 15.956 14.2258 15.1777 14.2273ZM19.4238 7.93573C19.1589 8.89737 18.8844 9.85681 18.6175 10.8179C19.1525 10.8167 19.6875 10.817 20.2226 10.8177C19.9545 9.85753 19.6942 8.89514 19.4238 7.93573ZM27.1898 5.65922C27.9659 5.66093 28.7424 5.65946 29.5186 5.65995C30.0671 5.65697 30.6166 5.67144 31.1614 5.73773C31.6776 5.80198 32.1932 5.92069 32.6606 6.15522C33.4071 6.53129 34.0245 7.15661 34.391 7.908C34.8063 8.75802 34.9118 9.73708 34.7835 10.6681C34.6586 11.5762 34.2514 12.4569 33.5812 13.0908C33.2358 13.4178 32.8293 13.6818 32.3865 13.8566C31.9097 14.0421 31.4009 14.1287 30.8936 14.1775C30.3801 14.2283 29.864 14.2305 29.3488 14.2271H27.1893C27.1898 11.3711 27.1888 8.51518 27.1898 5.65922ZM29.4455 7.42573C29.4459 9.10612 29.4455 10.7865 29.4457 12.4672C29.6903 12.4652 29.9351 12.4711 30.1797 12.464C30.6786 12.4567 31.1999 12.386 31.6302 12.1152C31.9692 11.9047 32.207 11.559 32.3298 11.1834C32.5023 10.6555 32.5192 10.0906 32.4876 9.54035C32.4508 9.0524 32.3451 8.54485 32.0414 8.14841C31.7941 7.81797 31.4114 7.61361 31.0157 7.51942C30.502 7.39016 29.9695 7.43381 29.4455 7.42573ZM37.0601 5.65946C37.9101 5.66044 38.76 5.65995 39.61 5.65972C40.172 6.76385 40.7261 7.8722 41.285 8.97807C41.8259 7.87145 42.3703 6.76653 42.9103 5.65946C43.7481 5.65995 44.5856 5.66044 45.4235 5.65922C44.411 7.38203 43.3969 9.10416 42.3845 10.827C42.3614 10.8604 42.3686 10.9021 42.3672 10.9401C42.3693 12.0357 42.3665 13.1315 42.369 14.2271H40.1174C40.1153 13.106 40.1219 11.9847 40.1143 10.8641C39.9422 10.5442 39.7469 10.2348 39.5657 9.9191C38.7303 8.49946 37.8959 7.07906 37.0601 5.65946ZM6.61691 15.2179C6.83204 15.0244 7.17398 14.9866 7.4274 15.125C7.60772 15.2277 7.68377 15.4397 7.69578 15.6372C7.59963 15.6384 7.50344 15.6384 7.40729 15.6379C7.38741 15.5599 7.36609 15.4769 7.306 15.4193C7.18725 15.2961 6.97162 15.3144 6.85411 15.4301C6.7351 15.5427 6.69488 15.713 6.68679 15.8712C6.67965 16.0525 6.69832 16.2502 6.81193 16.3996C6.91617 16.5426 7.14162 16.588 7.28487 16.4779C7.38329 16.4008 7.40706 16.2708 7.42177 16.1543C7.51913 16.1523 7.61656 16.1528 7.71393 16.1538C7.70289 16.338 7.66608 16.5365 7.5319 16.6736C7.3955 16.8154 7.18282 16.8434 6.99615 16.8213C6.79084 16.799 6.59726 16.6814 6.48882 16.5048C6.35268 16.2848 6.32229 16.0139 6.35491 15.7615C6.38238 15.5599 6.4616 15.3553 6.61691 15.2179ZM10.9636 15.0545C11.1739 15.0207 11.4044 15.0636 11.5715 15.201C11.7089 15.3121 11.7957 15.4757 11.836 15.646C11.8877 15.8785 11.8792 16.1271 11.796 16.3515C11.7229 16.546 11.5698 16.7139 11.3711 16.7826C11.1459 16.8613 10.8803 16.8402 10.6793 16.7075C10.4828 16.5774 10.3771 16.3469 10.3459 16.1195C10.314 15.855 10.3408 15.5682 10.4966 15.344C10.602 15.1868 10.7775 15.0832 10.9636 15.0545ZM11.0097 15.3447C10.8152 15.3855 10.7112 15.5866 10.6891 15.7689C10.6641 15.9828 10.6739 16.2239 10.8101 16.4018C10.9403 16.572 11.2156 16.5831 11.3655 16.433C11.4879 16.3034 11.5266 16.1175 11.5266 15.9446C11.5278 15.7696 11.4969 15.5793 11.3731 15.4468C11.2816 15.3492 11.1381 15.3168 11.0097 15.3447ZM26.1268 15.25C26.3358 15.0312 26.693 14.9824 26.9599 15.1186C27.1469 15.2177 27.2278 15.4365 27.2344 15.6379C27.139 15.6386 27.0441 15.6377 26.9489 15.6381C26.9278 15.5503 26.9015 15.4549 26.8264 15.3975C26.6935 15.2925 26.4838 15.3254 26.3763 15.4517C26.2647 15.5793 26.2303 15.7559 26.2313 15.9212C26.2284 16.0939 26.2549 16.2821 26.3719 16.4175C26.482 16.5477 26.6986 16.5843 26.8348 16.474C26.9248 16.393 26.9484 16.2676 26.9636 16.1533C27.0622 16.1528 27.1611 16.1523 27.2597 16.154C27.245 16.3424 27.2062 16.546 27.0661 16.6842C26.9101 16.8316 26.6751 16.851 26.4739 16.8093C26.2752 16.7722 26.1026 16.6373 26.0069 16.4609C25.896 16.259 25.8739 16.0206 25.8947 15.7947C25.9161 15.5962 25.985 15.395 26.1268 15.25ZM37.4338 15.0577C37.6388 15.0195 37.8631 15.0567 38.0321 15.1834C38.1825 15.2947 38.2789 15.4669 38.3197 15.6475C38.4006 16.0164 38.3373 16.474 38.0076 16.7055C37.7919 16.85 37.5005 16.865 37.2648 16.7629C37.0387 16.6643 36.8921 16.4391 36.8434 16.2033C36.794 15.9519 36.8057 15.6791 36.9198 15.4458C37.0173 15.2449 37.2115 15.0916 37.4338 15.0577ZM37.4801 15.3484C37.3014 15.3938 37.2025 15.5756 37.177 15.7463C37.1431 15.9595 37.1549 16.1962 37.2779 16.3809C37.3975 16.563 37.684 16.5921 37.8396 16.441C37.9716 16.3135 38.0058 16.1199 38.0086 15.944C38.0083 15.7726 37.9806 15.5849 37.8624 15.4526C37.7677 15.3475 37.6142 15.3133 37.4801 15.3484ZM14.6232 15.0798C14.7351 15.0803 14.8472 15.0803 14.9596 15.0793C14.9611 15.5535 14.9608 16.0277 14.9596 16.5019C15.2046 16.5034 15.45 16.5022 15.695 16.5024C15.6967 16.5983 15.6962 16.6945 15.696 16.7906C15.3381 16.7904 14.9804 16.7909 14.6225 16.7904C14.6232 16.2203 14.6223 15.6499 14.6232 15.0798ZM18.3942 16.7906C18.3947 16.2203 18.394 15.6499 18.3945 15.0798C18.5068 15.0803 18.6194 15.0798 18.732 15.0801C18.732 15.5542 18.7308 16.0287 18.7325 16.5031C18.9776 16.5019 19.2227 16.5024 19.4678 16.5029C19.4672 16.5988 19.4672 16.6947 19.468 16.7909C19.1101 16.7904 18.7521 16.7906 18.3942 16.7906ZM22.166 15.0798C22.5236 15.0801 22.8813 15.0806 23.239 15.0793C23.2395 15.1735 23.2397 15.2675 23.2392 15.3616C22.9939 15.3624 22.7486 15.3616 22.5033 15.3622C22.5033 15.4949 22.5035 15.6276 22.5033 15.7605C22.7282 15.7605 22.9532 15.7598 23.1784 15.7611C23.1779 15.857 23.1784 15.9529 23.1784 16.049C22.9534 16.048 22.7285 16.0488 22.5037 16.0486C22.5028 16.1999 22.5037 16.351 22.5028 16.5024C22.7586 16.5024 23.0142 16.5026 23.2701 16.5024C23.2701 16.5986 23.2699 16.6947 23.2701 16.7909C22.9024 16.7906 22.5347 16.7899 22.1672 16.7916C22.165 16.221 22.1669 15.6504 22.166 15.0798ZM29.8142 15.0798C30.2229 15.0796 30.6313 15.081 31.04 15.0793V15.3616C30.8911 15.3622 30.7422 15.3624 30.5935 15.3616C30.5923 15.8381 30.5925 16.3145 30.5935 16.7909C30.4827 16.7904 30.3718 16.7909 30.2611 16.7904C30.2614 16.3142 30.2619 15.8378 30.2611 15.3616C30.112 15.3627 29.9631 15.3619 29.8142 15.3619C29.8137 15.2677 29.8139 15.1738 29.8142 15.0798ZM33.7331 15.0793C33.841 15.0806 33.9492 15.0798 34.0574 15.0796C34.0576 15.6502 34.0586 16.2208 34.0569 16.7916C33.9489 16.7902 33.841 16.7911 33.7331 16.7904C33.7326 16.22 33.7326 15.6497 33.7331 15.0793ZM41.1042 16.7909C41.1056 16.2203 41.1032 15.6497 41.1056 15.079C41.2231 15.0806 41.3413 15.0798 41.4596 15.0805C41.687 15.4765 41.9089 15.8756 42.1388 16.2703C42.1436 15.8736 42.1395 15.4767 42.1408 15.0798C42.2449 15.0801 42.3489 15.0801 42.4533 15.0798C42.454 15.6504 42.4529 16.221 42.4537 16.7916C42.3427 16.7906 42.2314 16.7894 42.1208 16.7921C41.8857 16.3967 41.6562 15.998 41.4226 15.6021C41.4247 15.998 41.4226 16.3942 41.4236 16.7904C41.3171 16.7906 41.2107 16.7906 41.1042 16.7909ZM5.97023 20.5194C19.127 20.5197 32.2835 20.5194 45.4401 20.5194C45.4397 20.5766 45.4397 20.6342 45.4401 20.6919C33.6813 20.6914 21.9226 20.6916 10.1637 20.6916C8.76537 20.6909 7.36681 20.6933 5.96826 20.6904C5.96902 20.633 5.96951 20.5761 5.97023 20.5194ZM15.9305 23.2346C16.3105 23.1647 16.7089 23.1799 17.0779 23.2998C17.0668 23.4787 17.057 23.6577 17.0514 23.8368C16.7514 23.7235 16.4182 23.6847 16.1037 23.7568C15.865 23.8101 15.6418 23.9477 15.5034 24.1518C15.3499 24.3763 15.3023 24.6596 15.3278 24.927C15.3482 25.1557 15.4323 25.386 15.5979 25.5496C15.8052 25.7564 16.1066 25.8447 16.3944 25.8374C16.6157 25.8413 16.8348 25.7881 17.0369 25.7002C17.0457 25.8766 17.0661 26.052 17.0752 26.2284C16.9616 26.2851 16.8277 26.3029 16.7023 26.3295C16.3574 26.3874 15.9953 26.3835 15.6609 26.2726C15.3391 26.1681 15.0442 25.9593 14.8693 25.6659C14.6767 25.3502 14.6238 24.9663 14.6574 24.6027C14.687 24.2583 14.819 23.9141 15.0687 23.6695C15.2983 23.4343 15.6109 23.2959 15.9305 23.2346ZM22.6473 23.3001C23.0964 23.1566 23.5925 23.1554 24.0416 23.2998C24.0303 23.4784 24.024 23.6575 24.0124 23.8364C23.7186 23.724 23.3918 23.6862 23.083 23.7544C22.8845 23.7964 22.6956 23.8947 22.557 24.0444C22.401 24.207 22.3149 24.428 22.2935 24.6508C22.2719 24.9064 22.3031 25.178 22.4436 25.3985C22.5781 25.619 22.817 25.7606 23.0667 25.8106C23.3795 25.8737 23.7097 25.8293 24.0009 25.7012C24.0136 25.8805 24.0308 26.0596 24.039 26.2394C23.5257 26.3992 22.9465 26.4316 22.4486 26.2031C22.0818 26.0395 21.7906 25.7125 21.6844 25.3234C21.573 24.9167 21.5873 24.4675 21.7546 24.078C21.9165 23.7012 22.2592 23.4205 22.6473 23.3001ZM26.3297 23.3008C26.7803 23.1566 27.2776 23.1558 27.729 23.2994C27.7192 23.4789 27.7118 23.6587 27.7032 23.8386C27.2727 23.672 26.7382 23.657 26.3544 23.9435C25.9922 24.2192 25.9046 24.7349 26.0238 25.1547C26.0971 25.4289 26.3081 25.6605 26.5753 25.7576C26.9334 25.8911 27.3428 25.8545 27.6885 25.6992C27.704 25.8779 27.7155 26.0569 27.728 26.236C27.1979 26.4082 26.5912 26.432 26.0832 26.1769C25.7304 26.0042 25.4615 25.6745 25.3639 25.294C25.2611 24.8963 25.2793 24.4611 25.4404 24.0814C25.6016 23.7046 25.9431 23.4244 26.3297 23.3008ZM7.70977 23.2309C7.95215 23.2306 8.1945 23.2292 8.43665 23.2316C8.8473 24.2664 9.2609 25.2997 9.67352 26.3337C9.43336 26.3337 9.19321 26.3339 8.95305 26.3337C8.86689 26.1001 8.77738 25.8675 8.69056 25.6343C8.2659 25.634 7.84126 25.6343 7.41662 25.6343C7.32633 25.8668 7.23951 26.1008 7.14997 26.3339C6.92279 26.3331 6.69541 26.3344 6.46825 26.3331C6.87962 25.2982 7.29715 24.2654 7.70977 23.2309ZM8.04362 23.8601C7.90113 24.2801 7.75565 24.6993 7.61384 25.1196H8.50261C8.34882 24.7001 8.20115 24.2784 8.04362 23.8601ZM10.9303 23.2309C11.1432 23.2299 11.3561 23.2304 11.5691 23.2306C11.5683 23.6729 11.5686 24.1153 11.5686 24.5576C11.9459 24.1162 12.3195 23.6715 12.6973 23.2304C12.9512 23.2309 13.2051 23.2301 13.4587 23.2304C13.0282 23.7004 12.5923 24.1653 12.162 24.6354C12.6205 25.2015 13.0812 25.7658 13.5385 26.3331C13.2694 26.3346 13.0003 26.3329 12.7314 26.3341C12.3428 25.8195 11.9599 25.3006 11.5689 24.7879C11.5681 25.3031 11.5693 25.8182 11.5683 26.3334C11.3556 26.3339 11.1432 26.3341 10.9305 26.3334C10.9305 25.2992 10.9312 24.2652 10.9303 23.2309ZM18.4433 23.2306C19.0654 23.2316 19.6875 23.2277 20.3094 23.2329C20.3065 23.4158 20.3089 23.5991 20.3082 23.7821C19.8992 23.7826 19.4906 23.7826 19.0816 23.7821C19.0819 24.0132 19.0814 24.2443 19.0816 24.4756C19.4535 24.4754 19.8252 24.4756 20.1971 24.4754C20.198 24.6471 20.1978 24.8191 20.1976 24.9911C19.8254 24.9903 19.4535 24.9903 19.0814 24.9911C19.0824 25.253 19.0799 25.515 19.0831 25.7773C19.491 25.7734 19.8992 25.7768 20.3074 25.7755C20.3087 25.9615 20.308 26.1475 20.3082 26.3334C19.6865 26.3339 19.0649 26.3341 18.4435 26.3334C18.4435 25.2992 18.4438 24.2649 18.4433 23.2306ZM28.8329 23.2304C29.0711 23.2306 29.3091 23.2301 29.5473 23.2306C29.7965 23.7809 30.0734 24.3191 30.3011 24.8789C30.5253 24.3226 30.7868 23.7824 31.0253 23.2321C31.2365 23.2282 31.4477 23.2316 31.6589 23.2304C31.2424 24.1153 30.8251 24.9999 30.4073 25.8842C30.3109 26.0942 30.1406 26.2868 29.9076 26.341C29.6716 26.3923 29.4192 26.3661 29.1979 26.2699C29.2198 26.1111 29.245 25.9531 29.2686 25.7949C29.4167 25.8641 29.5995 25.8953 29.7511 25.8192C29.8824 25.7393 29.9108 25.5761 29.9731 25.4471C29.5926 24.7084 29.2107 23.9705 28.8329 23.2304ZM33.8888 23.2304C34.1307 23.2309 34.3729 23.2297 34.615 23.2311C35.0281 24.2652 35.4401 25.2994 35.8514 26.3339C35.6119 26.3326 35.3717 26.3351 35.1321 26.3327C35.0481 26.0989 34.9572 25.8673 34.8713 25.6343C34.4457 25.634 34.0201 25.634 33.5945 25.6343C33.5069 25.8675 33.4184 26.1003 33.3307 26.3337C33.1029 26.3329 32.8752 26.3353 32.6473 26.3322C33.0621 25.2987 33.4745 24.2641 33.8888 23.2304ZM34.2232 23.8621C34.0802 24.2813 33.9369 24.7003 33.7949 25.1201C34.0912 25.1183 34.3876 25.1213 34.6839 25.1183C34.5259 24.7013 34.3866 24.2769 34.2232 23.8621ZM37.1116 23.2314C37.4431 23.2294 37.7746 23.2309 38.1064 23.2304C38.3992 23.237 38.7092 23.3045 38.9339 23.5039C39.2512 23.7861 39.3151 24.2919 39.1147 24.6594C38.9982 24.8819 38.7839 25.0448 38.5433 25.1132C38.2865 25.1917 38.0148 25.163 37.7501 25.1684C37.7497 25.5567 37.7497 25.9448 37.7501 26.3331C37.5371 26.3341 37.3246 26.3337 37.1116 26.3334C37.1116 25.2994 37.112 24.2654 37.1116 23.2314ZM37.7497 23.7213C37.7501 24.0402 37.7497 24.3591 37.7501 24.678C37.9429 24.6719 38.1527 24.7062 38.328 24.6044C38.5976 24.4528 38.6456 24.0149 38.3933 23.825C38.2098 23.6835 37.9654 23.7277 37.7497 23.7213ZM40.6017 23.2306C40.8142 23.2306 41.0271 23.2299 41.2397 23.2311C41.2394 23.617 41.2394 24.0031 41.2394 24.3893C41.5353 24.3979 41.8377 24.3611 42.1273 24.4428C42.3807 24.5078 42.6144 24.6736 42.7274 24.9143C42.8999 25.28 42.837 25.7621 42.5401 26.0456C42.3133 26.2601 41.9915 26.3283 41.6887 26.3334C41.3261 26.3341 40.9639 26.3337 40.6013 26.3337C40.602 25.2994 40.6013 24.2649 40.6017 23.2306ZM41.2401 24.8799C41.2387 25.1988 41.2401 25.5177 41.2394 25.8367C41.4827 25.8182 41.7551 25.893 41.9725 25.749C42.2459 25.5778 42.2373 25.1066 41.9476 24.9562C41.7295 24.8426 41.4755 24.8902 41.2401 24.8799ZM43.2576 23.2306C43.4699 23.2304 43.6821 23.2301 43.8946 23.2309C43.8957 24.2652 43.894 25.2994 43.8953 26.3337C43.6828 26.3337 43.4705 26.3339 43.258 26.3337C43.2569 25.2994 43.2576 24.2652 43.2576 23.2306Z" fill="white"/>
</g>
<defs>
<clipPath id="clip0_2094_73765">
<rect width="50.7826" height="32" fill="white" transform="translate(0.32959)"/>
</clipPath>
</defs>
</svg>
