<svg width="172" height="32" viewBox="0 0 172 32" fill="none" xmlns="http://www.w3.org/2000/svg">
<g clipPath="url(#clip0_2094_72654)">
<path fillRule="evenodd" clipRule="evenodd" d="M52.7933 0.180758C51.5341 0.372735 50.2632 0.949433 49.5705 1.64308C47.7644 3.45145 47.9424 6.51869 49.9328 7.88645C50.4036 8.20992 51.7892 8.72174 53.5312 9.21575C56.7377 10.1249 57.3018 10.4781 57.3018 11.5759C57.3018 12.9774 55.6565 13.8039 53.6146 13.4283C52.2656 13.1803 51.4663 12.6401 51.1488 11.762L50.9086 11.0978H47.7412L47.8532 11.7199C48.1797 13.5355 49.4304 14.9791 51.2954 15.6936C52.7192 16.2391 55.344 16.3028 56.9242 15.8304C60.45 14.7764 61.6746 10.6019 59.1427 8.26811C58.2713 7.4648 56.9847 6.96121 53.9324 6.22871C52.0993 5.78887 51.3683 5.32988 51.3683 4.61882C51.3683 2.74977 54.5563 1.99468 56.0632 3.50676C56.3948 3.83942 56.7014 4.21362 56.7446 4.33822C56.7948 4.48235 57.3807 4.58015 58.3545 4.60657C59.8699 4.6481 59.8852 4.6437 59.8264 4.18854C59.7939 3.9357 59.5535 3.28244 59.2924 2.73675C58.358 0.784825 55.6965 -0.261766 52.7933 0.180758ZM94.3383 0.130225C88.4816 0.908853 85.3257 7.35608 88.3428 12.3787C89.5209 14.34 91.5563 15.6534 94.0767 16.0785C98.9949 16.9082 103.612 13.0599 103.612 8.13106C103.612 4.17438 100.615 0.772768 96.6193 0.195305C95.8912 0.0902248 95.2092 0.015195 95.1039 0.0289762C94.9986 0.0425656 94.6541 0.0881169 94.3383 0.130225ZM112.809 0.208129C110.303 0.623283 107.908 2.43166 106.82 4.72888C106.238 5.95558 106.205 6.1443 106.207 8.22677C106.209 10.266 106.249 10.5096 106.76 11.5375C107.592 13.2115 108.79 14.4282 110.383 15.2153C113.814 16.9105 117.476 16.3671 120.103 13.7732C121.137 12.7523 121.606 12.0623 121.889 11.1457C122.02 10.7213 121.997 10.715 120.318 10.715H118.615L118.012 11.4647C117.681 11.8774 116.943 12.4428 116.371 12.7224C113.066 14.3396 109.346 11.9312 109.372 8.19098C109.382 6.73535 109.681 5.83079 110.489 4.81099C112.324 2.4931 116.157 2.48889 118.017 4.80257L118.615 5.54713H120.305C121.594 5.54713 121.996 5.48588 121.996 5.28969C121.996 4.85961 120.578 2.8116 119.822 2.14934C117.997 0.551318 115.278 -0.201091 112.809 0.208129ZM0.263672 0.47533C0.263672 0.528348 1.43257 2.48219 2.86101 4.8175C4.28964 7.1528 5.58161 9.30169 5.73206 9.59262C5.93265 9.98021 6.00576 10.8666 6.00576 12.9066V15.6915H9.06821V9.9295L11.7161 5.58503C13.1723 3.19555 14.4673 1.04686 14.5938 0.809904L14.8237 0.37924H11.2657L9.44911 3.62429C7.85299 6.47562 7.60264 6.82972 7.38406 6.54319C7.2474 6.36385 6.39604 4.90344 5.49204 3.29814L3.84865 0.37924H2.05616C1.07025 0.37924 0.263672 0.422502 0.263672 0.47533ZM15.9587 0.515903C15.9587 0.591124 17.185 4.08232 18.6839 8.27424L21.4093 15.8961L23.1015 15.8416L24.7937 15.7872L27.5537 8.14657C29.0719 3.94431 30.314 0.477432 30.314 0.442596C30.314 0.407761 29.5604 0.379242 28.6392 0.379433L26.9644 0.379627L26.2568 2.43912C25.8677 3.57185 25.0165 6.0754 24.3653 8.00264C23.7142 9.92987 23.1183 11.4362 23.0414 11.3501C22.9643 11.264 22.0949 8.7604 21.1096 5.78638L19.318 0.37924H17.6385C16.7146 0.37924 15.9587 0.440681 15.9587 0.515903ZM33.3764 8.13107V15.8886L38.9749 15.8379L44.5735 15.7872L44.6298 14.3995L44.686 13.0119H36.4389V9.758H42.3724V7.07835H39.5218C37.099 7.07835 36.6538 7.03299 36.555 6.77555C36.4911 6.60903 36.4389 5.74772 36.4389 4.86152V3.25029H44.686L44.6298 1.86262L44.5735 0.474943L38.9749 0.424226L33.3764 0.3735V8.13107ZM71.5933 0.506911C71.523 0.576965 71.4656 4.06529 71.4656 8.25874V15.8829H74.7195V9.758H78.3728L79.8479 12.7726L81.3229 15.7872L83.0934 15.8423C84.067 15.8726 84.8638 15.8593 84.8638 15.8132C84.8638 15.7669 84.1401 14.3302 83.2557 12.6204L81.6475 9.51185L82.518 8.91199C85.7586 6.67889 84.9174 1.64499 81.1278 0.592849C80.3058 0.364697 71.8121 0.287946 71.5933 0.506911ZM125.25 8.13107V15.8829H128.312V9.758H134.629V15.8829H137.691V0.37924H134.629V6.88695H128.312V0.37924H125.25V8.13107ZM142.658 0.519929C142.653 0.60051 142.648 4.06854 142.648 8.22677L142.648 15.7872H153.865L153.861 14.4474L153.858 13.1076L149.794 13.0559L145.73 13.0042V9.758H151.441L151.504 8.4178L151.568 7.0774L148.649 7.07797L145.73 7.07836V3.25795L149.797 3.20627L153.865 3.15459V0.474952L148.266 0.424226C145.187 0.396281 142.663 0.439349 142.658 0.519929ZM157.98 8.11653V15.8829H161.234V9.758L163.004 9.75838L164.775 9.75857L166.306 12.773L167.837 15.7872L169.625 15.8425L171.412 15.8976L169.759 12.6844C168.283 9.81312 168.142 9.45042 168.435 9.27949C169.237 8.81228 170.318 7.6851 170.638 6.98265C171.073 6.02717 171.098 4.31258 170.691 3.32149C170.308 2.3907 169.404 1.42546 168.411 0.888766C167.694 0.501366 167.338 0.470931 162.813 0.412553L157.98 0.350155L157.98 8.11653ZM93.5353 3.40667C92.5492 3.80727 91.6912 4.60255 91.0195 5.73853C90.581 6.48003 90.5106 6.81307 90.5135 8.13107C90.5173 9.89543 90.8649 10.7359 92.073 11.9019C93.0461 12.8409 93.9777 13.2033 95.4201 13.2033C96.8977 13.2033 97.9433 12.7305 98.9993 11.5849C100.894 9.52947 100.79 6.51238 98.7547 4.48963C97.3223 3.06616 95.3701 2.66096 93.5353 3.40667ZM74.7195 5.26003V7.26975H77.1181C80.0047 7.26975 80.7167 7.04773 81.1493 6.01262C81.5271 5.10805 81.3516 4.34608 80.6242 3.73397C80.0695 3.26733 79.9555 3.2503 77.3844 3.2503H74.7195V5.26003ZM161.234 5.26003V7.26975H163.537C166.038 7.26975 166.894 7.05443 167.429 6.29034C167.943 5.55708 167.834 4.46149 167.182 3.80977L166.622 3.2503H161.234L161.234 5.26003ZM78.6417 22.0103C78.4296 22.3535 74.528 31.2709 74.528 31.4124C74.528 31.4832 74.9706 31.5709 75.5113 31.6072L76.4945 31.6737L76.9719 30.5731L77.449 29.4725H81.7083L82.0957 30.4774L82.4829 31.4823L83.5778 31.5397C84.1797 31.5713 84.6724 31.5644 84.6724 31.5242C84.6724 31.4842 83.7378 29.305 82.5957 26.6817L80.519 21.9121L79.6463 21.8545C79.1491 21.8216 78.7169 21.8887 78.6417 22.0103ZM101.347 22.0256C99.1331 22.7014 97.8055 24.5263 97.8099 26.8886C97.8128 28.4171 98.1168 29.2671 99.0334 30.3113C100.055 31.4746 100.979 31.8584 102.76 31.8584C104.434 31.8584 105.394 31.5002 106.289 30.5417L106.755 30.0423L106.108 29.3757C105.471 28.7182 105.457 28.714 105.068 29.0683C103.464 30.5312 101.318 30.2779 100.279 28.5033C99.8105 27.7036 99.7883 26.1672 100.233 25.3246C101.048 23.7794 103.025 23.3493 104.58 24.3787L105.394 24.9177L106.072 24.2399C106.884 23.4286 106.791 23.2328 105.239 22.4735C104.091 21.9119 102.369 21.7138 101.347 22.0256ZM54.6221 26.8844V31.7694H56.7276V27.9413H61.3212V26.0273H56.7276V23.9326L59.3593 23.8793L61.9911 23.8261V22.1035L58.3066 22.0514L54.6221 21.9996V26.8844ZM64.5751 26.8673V31.7694L65.5799 31.7696L66.5848 31.7697V28.6112L67.4461 28.5591L68.3074 28.5069L69.434 30.1382L70.5604 31.7694H71.79C72.6561 31.7694 72.9798 31.7054 72.8856 31.5527C72.8119 31.4336 72.2559 30.6439 71.6497 29.7979L70.5478 28.2594L71.1327 27.8611C72.5196 26.9163 72.9522 25.4115 72.2762 23.8832C71.9709 23.1932 71.7092 22.9309 70.9626 22.5667C70.1443 22.1676 69.6957 22.1029 67.3026 22.0386L64.5751 21.9653V26.8673ZM86.7778 26.8886V31.7694H88.6919V28.7069C88.6919 27.0226 88.7564 25.6492 88.8354 25.6548C88.9145 25.6605 90.0141 27.0172 91.2791 28.6694L93.5793 31.6737L94.4851 31.732L95.391 31.7904V22.0078H93.2953L93.2425 24.947L93.1898 27.8864L90.9114 24.947L88.6331 22.0078H86.7778V26.8886ZM108.981 26.8844V31.7694H116.445V29.8553H111.086V27.7273L113.383 27.7864L115.68 27.8456L115.68 26.8407L115.68 25.8359H111.086V23.9326L113.718 23.8793L116.35 23.8261V22.1035L112.665 22.0514L108.981 21.9996V26.8844ZM66.6311 24.0462C66.5785 24.1356 66.5465 24.7688 66.5601 25.4531L66.5848 26.6972L68.1872 26.6891C69.6272 26.6821 69.826 26.6363 70.1491 26.2374C70.6079 25.6707 70.6064 25.0419 70.1445 24.4717C69.8283 24.0813 69.5793 24.0129 68.2537 23.9526C67.414 23.9146 66.6838 23.9567 66.6311 24.0462ZM79.071 25.6445C78.1741 27.6465 78.1504 27.5585 79.5874 27.5585C80.2787 27.5585 80.8443 27.5267 80.8443 27.4877C80.8443 27.4488 80.5515 26.7812 80.1934 26.0043L79.5426 24.5917L79.071 25.6445Z" fill="#1B361C"/>
</g>
<defs>
<clipPath id="clip0_2094_72654">
<rect width="171.472" height="32" fill="white"/>
</clipPath>
</defs>
</svg>
