<svg width="125" height="32" viewBox="0 0 125 32" fill="none" xmlns="http://www.w3.org/2000/svg">
<g clipPath="url(#clip0_2094_74493)">
<path fillRule="evenodd" clipRule="evenodd" d="M26.988 3.95389C24.1167 1.52813 20.4533 0.0429688 16.3938 0.0429688C7.43335 0.0429688 0.205566 7.17174 0.205566 15.9342C0.205566 24.6966 7.43335 31.8254 16.3938 31.8254C20.4533 31.8254 24.1167 30.3402 26.988 27.9145V31.1323H32.7801V0.637033H26.988V3.95389ZM16.4928 26.5778C10.8987 26.5778 6.24522 21.9738 6.24522 16.3302C6.24522 10.7361 10.8492 6.08262 16.4928 6.08262C22.0869 6.08262 26.7404 10.6866 26.7404 16.3302C26.7404 22.0729 22.1364 26.5778 16.4928 26.5778ZM51.1466 26.1818C54.2654 26.1818 57.0872 24.7956 58.9189 22.5679L62.3348 27.2709C59.513 30.1917 55.4535 31.8749 51.0971 31.8749C42.1861 31.8749 35.0573 24.7461 35.0573 15.9837C35.0573 7.22125 42.2356 0.0429688 51.1466 0.0429688C55.5031 0.0429688 59.414 1.82516 62.3843 4.64697L58.9684 9.34998C57.1367 7.17174 54.3149 5.73609 51.1961 5.73609C45.3544 5.73609 40.8 10.3401 40.8 15.9342C40.8 21.6768 45.4535 26.1818 51.1466 26.1818ZM118.672 0.637033V3.95389C115.801 1.52813 112.137 0.0429688 108.078 0.0429688C99.1172 0.0429688 91.8895 7.17174 91.8895 15.9342C91.8895 24.6966 99.1173 31.8254 108.078 31.8254C112.137 31.8254 115.801 30.3402 118.672 27.9145V31.1323H124.464V0.637033H118.672ZM108.177 26.5778C102.583 26.5778 97.9291 21.9738 97.9291 16.3302C97.9291 10.7361 102.533 6.08262 108.177 6.08262C113.771 6.08262 118.424 10.6866 118.424 16.3302C118.424 22.0729 113.771 26.5778 108.177 26.5778ZM83.8201 13.1124V0.785551H89.6122V31.0828H83.8201V18.8055H71.1467V31.1323H65.3546V0.785551H71.1467V13.1124H83.8201Z" fill="#54B848"/>
</g>
<defs>
<clipPath id="clip0_2094_74493">
<rect width="124.493" height="32" fill="white" transform="translate(0.129883)"/>
</clipPath>
</defs>
</svg>
