<svg width="73" height="32" viewBox="0 0 73 32" fill="none" xmlns="http://www.w3.org/2000/svg">
<g clipPath="url(#clip0_2094_72831)">
<path d="M51.3731 2.91535V4.079H61.3042C61.9663 4.079 62.9494 4.079 63.6115 4.74108C64.2736 5.40315 64.2735 6.38624 64.2735 7.04832V16.9795C64.2735 17.6416 64.2736 18.6246 63.6115 19.2867C62.9494 19.9488 61.9663 19.9488 61.3042 19.9488H56.5092C55.6866 19.9488 54.6032 19.9488 54.2019 19.046C53.7806 18.1431 54.3624 17.3005 54.864 16.6384L61.3243 8.0314H51.3931L47.4207 13.308C46.7586 14.1907 46.1768 14.9531 46.1768 15.9563C46.1768 16.9594 46.7185 17.6616 47.4207 18.6046L48.4037 19.9287C49.3868 21.2529 50.39 22.577 51.7141 23.2391C53.0383 23.9012 54.6032 23.9012 56.77 23.9012H61.0635C63.5513 23.9012 67.2629 23.9012 69.7507 21.4134C72.2385 18.9256 72.2385 15.2942 72.2385 13.97V9.99757C72.2385 8.67342 72.2385 5.04202 69.7507 2.55421C67.2629 0.0664079 63.5713 0.0664062 61.0835 0.0664062H54.222C53.5599 0.0664062 52.7373 0.0664072 52.0753 0.728485C51.4132 1.39056 51.4132 2.21314 51.4132 2.87522" fill="#C42126"/>
<path d="M39.5354 8.05176H49.3662L37.5291 23.9817H27.6982L39.5354 8.05176Z" fill="#C42126"/>
<path d="M0.813477 10.8606C0.813477 10.1985 0.813477 9.37591 1.47555 8.71383C2.13763 8.05176 2.96021 8.05176 3.62229 8.05176H20.2545C22.4012 8.05176 23.9862 8.05176 25.3104 8.71383C26.6345 9.37591 27.6176 10.7001 28.6207 12.0242L29.6038 13.3484C30.306 14.2913 30.8477 14.9935 30.8477 15.9967C30.8477 16.9998 30.2659 17.7622 29.6038 18.645L25.6514 23.9416H15.7002L22.1605 15.3346C22.662 14.6725 23.2439 13.85 22.8225 12.9271C22.4012 12.0242 21.3379 12.0242 20.5153 12.0242H12.7509V31.8866H4.80601V12.0242H0.83354L0.813477 10.8606Z" fill="#C42126"/>
</g>
<defs>
<clipPath id="clip0_2094_72831">
<rect width="71.5591" height="32" fill="white" transform="translate(0.770508)"/>
</clipPath>
</defs>
</svg>
