<svg width="104" height="32" viewBox="0 0 104 32" fill="none" xmlns="http://www.w3.org/2000/svg">
<g clipPath="url(#clip0_2094_73085)">
<mask id="mask0_2094_73085" style="mask-type:luminance" maskUnits="userSpaceOnUse" x="0" y="0" width="104" height="32">
<path d="M103.996 0.136719H0.329102V31.9773H103.996V0.136719Z" fill="white"/>
</mask>
<g mask="url(#mask0_2094_73085)">
<g clipPath="url(#clip1_2094_73085)">
<path fillRule="evenodd" clipRule="evenodd" d="M3.36468 22.7207V23.165L2.4761 23.3872C2.40206 23.3872 2.17991 23.4612 2.17991 23.8315V26.6453H6.32659V23.8315C6.32659 23.4612 6.10445 23.3872 6.0304 23.3872L5.14182 23.165V22.7207H8.77017V23.165L7.8816 23.3872C7.80755 23.3872 7.5854 23.4612 7.5854 23.8315V30.7179C7.5854 31.0882 7.80755 31.1622 7.8816 31.1622L8.77017 31.3844V31.8286H5.14182V31.3844L6.0304 31.1622C6.10445 31.1622 6.32659 31.0882 6.32659 30.7179V27.3858H2.17991V30.7179C2.17991 31.0882 2.40206 31.1622 2.4761 31.1622L3.36468 31.3844V31.8286H-0.263672V31.3844L0.624901 31.1622C0.698947 31.1622 0.921093 31.0882 0.921093 30.7179V23.8315C0.921093 23.4612 0.698947 23.3872 0.624901 23.3872L-0.263672 23.165V22.7207H3.36468ZM17.0635 23.7574C17.8781 24.646 18.2483 25.9789 18.2483 27.3117C18.2483 28.5705 17.8781 29.9774 17.0635 30.866C16.175 31.8286 15.0642 32.0508 14.1016 32.0508C13.139 32.0508 12.0283 31.8286 11.1397 30.866C10.3252 29.9774 9.95494 28.5705 9.95494 27.3117C9.95494 26.0529 10.3252 24.646 11.1397 23.7574C12.0283 22.7948 13.139 22.5727 14.1016 22.5727C15.0642 22.5727 16.175 22.7948 17.0635 23.7574ZM16.249 30.1255C15.8047 30.866 15.1383 31.3844 14.1016 31.3844C13.0649 31.3844 12.3985 30.9401 11.9542 30.1255C11.5099 29.3851 11.3618 28.2743 11.3618 27.3117C11.3618 26.3491 11.5099 25.2384 11.9542 24.4979C12.3985 23.7574 13.0649 23.2391 14.1016 23.2391C15.1383 23.2391 15.8047 23.6834 16.249 24.4979C16.6933 25.2384 16.8414 26.3491 16.8414 27.3117C16.9154 28.2743 16.6933 29.3851 16.249 30.1255ZM21.1362 22.7207C21.6545 22.7207 21.9507 22.7207 22.395 22.6467C22.7652 22.6467 23.1355 22.5727 23.6538 22.5727C24.3202 22.5727 25.0607 22.6467 25.579 23.165C25.9493 23.5353 26.1714 24.1277 26.1714 24.72C26.1714 25.2384 26.0233 25.6827 25.6531 26.0529C25.3569 26.3491 24.9126 26.6453 24.5424 26.7193C25.0607 26.7934 25.579 27.0155 25.8752 27.3117C26.2455 27.6079 26.6157 28.1262 26.6157 29.0889C26.6157 30.0515 26.1714 30.6439 25.7271 31.0141C25.1348 31.4584 24.2462 31.7546 23.3576 31.7546H19.285V31.3103L20.1735 31.0882C20.2476 31.0882 20.4697 31.0141 20.4697 30.6439V23.7574C20.4697 23.3872 20.2476 23.3131 20.1735 23.3131L19.285 23.091V22.7207H21.1362ZM21.9507 26.5712H22.8393C23.2836 26.5712 23.8759 26.5712 24.3943 26.1269C24.6905 25.8308 24.9126 25.3865 24.9126 24.8681C24.9126 24.3498 24.7645 23.9796 24.4683 23.6834C24.024 23.2391 23.4317 23.2391 23.1355 23.2391C22.6912 23.2391 22.3209 23.3131 21.9507 23.4612L21.9507 26.5712ZM21.9507 30.9401V27.2377H23.3576C23.7278 27.2377 24.4683 27.3117 24.9126 27.8301C25.2088 28.2003 25.3569 28.7186 25.3569 29.237C25.3569 29.7553 25.2088 30.1996 24.8386 30.6439C24.3202 31.1622 23.6538 31.2363 23.0614 31.2363C22.6171 31.1622 22.2469 31.0882 21.9507 30.9401ZM31.2807 22.7207V23.165L30.3922 23.3872C30.3181 23.3872 30.096 23.4612 30.096 23.8315V29.4591L34.5388 23.9796V23.8315C34.5388 23.4612 34.3167 23.3872 34.2426 23.3872L33.3541 23.165V22.7207H36.9824V23.165L36.0938 23.3872C36.0198 23.3872 35.7976 23.4612 35.7976 23.8315V30.7179C35.7976 31.0882 36.0198 31.1622 36.0938 31.1622L36.9824 31.3844V31.8286H33.3541V31.3844L34.2426 31.1622C34.3167 31.1622 34.5388 31.0882 34.5388 30.7179V25.0162L30.096 30.4958V30.7179C30.096 31.0882 30.3181 31.1622 30.3922 31.1622L31.2807 31.3844V31.8286H27.6524V31.3844L28.541 31.1622C28.615 31.1622 28.8371 31.0882 28.8371 30.7179V23.8315C28.8371 23.4612 28.615 23.3872 28.541 23.3872L27.6524 23.165V22.7207H31.2807ZM53.8653 23.7574C54.6799 24.646 55.0501 25.9789 55.0501 27.3117C55.0501 28.5705 54.6799 29.9774 53.8653 30.866C52.9768 31.8286 51.866 32.0508 50.9034 32.0508C49.9408 32.0508 48.8301 31.8286 47.9415 30.866C47.127 29.9774 46.7567 28.5705 46.7567 27.3117C46.7567 26.0529 47.127 24.646 47.9415 23.7574C48.8301 22.7948 49.9408 22.5727 50.9034 22.5727C51.9401 22.5727 52.9768 22.7948 53.8653 23.7574ZM53.0508 30.1255C52.6065 30.866 51.9401 31.3844 50.9034 31.3844C49.8667 31.3844 49.2744 30.866 48.8301 30.1255C48.3858 29.3851 48.2377 28.2743 48.2377 27.3117C48.2377 26.3491 48.3858 25.2384 48.8301 24.4979C49.2744 23.7574 49.9408 23.2391 50.9775 23.2391C52.0141 23.2391 52.6806 23.6834 53.1249 24.4979C53.5691 25.2384 53.7172 26.3491 53.7172 27.3117C53.7172 28.2743 53.4951 29.3851 53.0508 30.1255ZM58.6044 22.7207C58.6784 23.165 58.7525 23.4612 58.9006 23.7574L61.4182 29.8293L64.0839 23.7574C64.3061 23.2391 64.3801 23.0169 64.3801 22.7207H66.6756V23.165L65.787 23.3872C65.5649 23.4612 65.4909 23.6093 65.4909 23.8315L65.713 30.7179C65.713 30.866 65.713 31.0882 66.0092 31.1622L66.8978 31.3843V31.8286H63.2694V31.3843L64.158 31.1622C64.4542 31.0882 64.4542 30.792 64.4542 30.7179L64.3061 25.0162L61.6404 31.1622C61.5663 31.3103 61.4182 31.6065 61.4182 31.9767H60.8999C60.8258 31.6805 60.7518 31.4584 60.6777 31.1622L58.012 25.0162L57.8639 30.7179C57.8639 30.9401 57.938 31.0882 58.1601 31.1622L59.0487 31.3843V31.8286H56.0127V31.3843L56.7532 31.1622C56.9753 31.0882 57.0494 30.866 57.0494 30.7179L57.3456 23.8315C57.3456 23.6093 57.2715 23.4612 57.0494 23.3872L56.1608 23.165V22.7207H58.6044ZM74.5987 22.7207V24.7941H74.0804L73.9323 23.9796C73.9323 23.8315 73.7842 23.6834 73.6361 23.5353C73.414 23.4612 73.1178 23.4612 72.8956 23.4612H70.378V26.6453C70.8963 26.5712 71.4147 26.4972 71.859 26.4972C72.5994 26.4972 73.488 26.5712 74.2285 27.1636C74.8949 27.682 75.1911 28.3484 75.1911 29.1629C75.1911 30.1255 74.7468 30.7179 74.3026 31.0882C73.7102 31.5324 72.8216 31.8286 71.933 31.8286H67.8604V31.3844L68.749 31.1622C68.823 31.1622 69.0452 31.0882 69.0452 30.7179V23.8315C69.0452 23.4612 68.823 23.3872 68.749 23.3872L67.8604 23.165V22.7207H74.5987ZM70.4521 30.9401V27.3858C70.8963 27.2377 71.3406 27.1636 71.7849 27.1636C72.5254 27.1636 73.0437 27.3858 73.2659 27.682C73.6361 27.9781 73.8583 28.5705 73.8583 29.237C73.8583 29.9774 73.5621 30.4217 73.2659 30.7179C72.9697 30.9401 72.5254 31.2363 71.6368 31.2363C71.1925 31.1622 70.8223 31.0882 70.4521 30.9401ZM80.2264 22.5727C80.3004 22.7948 80.3004 23.0169 80.4485 23.2391L83.4104 30.6439C83.4845 30.792 83.6326 31.0141 83.7807 31.1622C83.9288 31.2363 84.0769 31.3844 84.299 31.3844V31.8286H81.115V31.3844L81.7814 31.2363C81.8554 31.2363 82.0776 31.1622 82.0776 30.9401C82.0776 30.792 82.0035 30.7179 82.0035 30.6439L81.189 28.4965H78.2271L77.4866 30.5698C77.4126 30.792 77.4126 30.866 77.4126 30.9401C77.4126 31.0141 77.4866 31.2363 77.6347 31.2363L78.2271 31.3843V31.8286H75.5614V31.3843L75.8576 31.3103C76.0057 31.2363 76.2278 31.1622 76.3759 31.0141C76.524 30.866 76.6721 30.6439 76.6721 30.4958L79.4119 23.2391C79.4859 23.0169 79.56 22.8688 79.634 22.5726L80.2264 22.5727ZM80.8928 27.8301H78.4492L79.634 24.5719L80.8928 27.8301ZM88.6678 22.7207V23.165L87.8533 23.3872C87.7793 23.3872 87.5571 23.4612 87.5571 23.8315V26.6453H91.7038V23.8315C91.7038 23.4612 91.4817 23.3872 91.4076 23.3872L90.519 23.165V22.7207H94.1474V23.165L93.2588 23.3872C93.1848 23.3872 92.9626 23.4612 92.9626 23.8315V30.7179C92.9626 31.0882 93.1848 31.1622 93.2588 31.1622L94.1474 31.3844V31.8286H90.519V31.3844L91.4076 31.1622C91.4817 31.1622 91.7038 31.0882 91.7038 30.7179V27.3858H87.5571V30.7179C87.5571 31.0882 87.7793 31.1622 87.8533 31.1622L88.7419 31.3844V31.8286H85.1135V31.3844L86.0021 31.1622C86.0762 31.1622 86.2983 31.0882 86.2983 30.7179V23.8315C86.2983 23.4612 86.0762 23.3872 86.0021 23.3872L85.1135 23.165V22.7207H88.6678ZM45.2758 31.2363C45.4979 31.3103 46.2384 31.3844 46.2384 31.3844V31.8286H43.6467C43.6467 31.7546 43.5727 31.2363 43.4246 30.9401L42.6841 29.0889C42.3139 28.1262 41.8696 27.5339 40.8329 27.5339H40.4627V30.792C40.4627 31.1622 40.6848 31.2363 40.7589 31.2363L41.6474 31.4584V31.9027H38.0191V31.4584L38.9077 31.2363C38.9817 31.2363 39.2038 31.1622 39.2038 30.792V23.9055C39.2038 23.5353 38.9817 23.4612 38.9077 23.4612L38.0191 23.2391V22.7207H41.6474V23.165L40.7589 23.3872C40.6848 23.3872 40.4627 23.4612 40.4627 23.8315V26.7934H40.981C41.2031 26.7934 41.4993 26.7934 41.7215 26.5712C41.9436 26.4231 42.0917 26.127 42.3139 25.6827L42.9803 24.1277C43.1284 23.7574 43.3505 23.3131 43.6467 22.9429C43.9429 22.6467 44.2391 22.4986 44.6093 22.4986C45.2017 22.4986 45.646 22.8688 45.646 23.3872C45.646 23.7574 45.3498 24.1277 44.9796 24.1277C44.6093 24.1277 44.6093 23.7574 44.3132 23.7574C44.091 23.7574 43.9429 23.9055 43.7948 24.0536C43.7948 24.1277 43.6467 24.2758 43.4246 24.72L42.9062 25.9789C42.6841 26.4231 42.462 26.8674 41.9436 27.0896C42.536 27.1636 42.9803 27.4598 43.2765 27.756C43.4246 27.9781 43.6467 28.2743 44.017 29.0889L44.8315 30.866C44.9055 30.9401 45.0536 31.1622 45.2758 31.2363ZM102.441 31.2363C102.663 31.3103 103.403 31.3844 103.403 31.3844V31.8286H100.812C100.812 31.7546 100.738 31.2363 100.59 30.9401L99.8491 29.0889C99.4788 28.1262 99.0345 27.5339 97.9979 27.5339H97.5536V30.792C97.5536 31.1622 97.7757 31.2363 97.8498 31.2363L98.7383 31.4584V31.9027H95.11V31.4584L95.9986 31.2363C96.0726 31.2363 96.2948 31.1622 96.2948 30.792V23.9055C96.2948 23.5353 96.0726 23.4612 95.9986 23.4612L95.11 23.2391V22.7207H98.7383V23.165L97.8498 23.3872C97.7757 23.3872 97.5536 23.4612 97.5536 23.8315V26.7934H98.0719C98.2941 26.7934 98.5903 26.7934 98.8864 26.5712C99.1086 26.4231 99.2567 26.127 99.4788 25.6827L100.145 24.1277C100.293 23.7574 100.516 23.3131 100.812 22.9429C101.182 22.7207 101.478 22.5727 101.848 22.5727C102.441 22.5727 102.885 22.9429 102.885 23.4612C102.885 23.8315 102.589 24.2017 102.219 24.2017C101.848 24.2017 101.848 23.8315 101.552 23.8315C101.33 23.8315 101.182 23.9796 101.034 24.1277C100.96 24.2017 100.886 24.3498 100.664 24.7941L100.145 26.0529C99.9231 26.4972 99.701 26.9415 99.1826 27.1636C99.775 27.2377 100.219 27.5339 100.516 27.8301C100.664 28.0522 100.886 28.3484 101.256 29.1629L102.071 30.9401C102.071 30.9401 102.219 31.1622 102.441 31.2363ZM10.7695 17.3893C11.8802 17.5374 13.4352 16.5748 15.3604 14.4274C16.7673 12.8724 18.1002 11.2433 19.285 9.54022V16.7969C19.2109 17.6114 18.4704 18.2779 17.5819 18.2779H3.73491C4.77158 17.3153 5.95635 15.9083 6.99302 14.2793C8.02969 12.6502 8.25183 12.2059 8.99231 10.5769C9.2885 10.4288 10.1771 10.2067 10.7695 9.98451C10.029 11.5395 9.21446 13.4648 9.14041 14.6495C8.99231 16.2786 9.65875 17.3153 10.7695 17.3893ZM6.77088 11.3174C6.77088 11.3174 5.43802 13.909 4.47539 15.1679C3.95706 15.8343 1.88372 19.0924 0.476807 18.0557C-0.856057 16.7229 2.6242 13.909 3.29063 13.4648C4.47539 12.5021 6.77088 11.3174 6.77088 11.3174ZM1.88372 2.20948C0.624906 3.24615 0.106568 4.28282 0.106568 4.28282V1.69114C0.106568 0.80257 0.847046 0.0620899 1.80967 0.0620899H14.9902C14.9902 0.0620899 14.2497 0.136139 13.5092 0.950666C13.065 1.39495 11.7321 3.24615 10.2511 2.87591C8.77017 2.50567 9.06636 1.32091 7.58541 0.876619C6.17849 0.50638 3.43872 0.950666 1.88372 2.20948ZM15.5826 1.39495C16.249 0.876619 16.0269 0.284237 15.5826 0.136141H17.6559C18.3964 0.136141 19.0628 0.654478 19.285 1.32091C18.1002 1.17281 16.175 1.91329 14.694 3.83854C13.139 5.76378 11.8061 8.05927 11.8061 8.05927C11.8061 8.05927 10.6214 8.4295 9.95494 8.5776C10.1771 8.20736 10.9916 6.50426 12.4726 4.43092C13.7314 2.65377 14.9902 1.83924 15.5826 1.39495ZM7.7335 9.24403C5.43802 9.91046 1.73562 11.8357 0.180614 13.909V6.80045C0.773 7.68902 1.51348 8.20736 2.4761 8.4295C3.73491 8.65165 4.91968 8.50355 6.0304 7.91117C6.54873 7.61498 6.99302 7.31879 7.36326 6.8745C8.17778 6.05997 7.88159 5.09735 7.21516 4.87521C6.54873 4.65306 5.8823 5.09735 5.58611 5.68974C5.21587 6.20807 4.77158 6.8745 3.36467 6.8745C2.62419 6.8745 1.80967 6.43021 1.58752 5.39354C1.21728 3.83854 3.21657 2.20948 5.06777 1.91329C8.02969 1.469 7.28921 3.39425 8.69612 4.43092C9.06636 4.72711 9.95493 5.0233 10.8435 4.43092C10.3992 5.0233 8.47398 7.91117 7.7335 9.24403ZM16.3231 3.83854C17.2116 2.87591 18.6185 2.20948 19.2109 2.87591C19.8033 3.61639 18.0262 5.0233 16.8414 5.76378C15.7307 6.50426 14.62 7.09664 13.6573 7.46688C14.2497 6.43021 15.6566 4.57901 16.3231 3.83854ZM16.7673 7.39284C17.4338 6.94855 18.5445 6.05997 19.285 5.39354V8.20736C18.7666 8.87379 15.6566 12.28 14.3978 13.4648C12.2504 15.4641 10.7695 15.1679 11.3618 13.0945C11.7321 11.8357 12.1764 10.6509 12.7688 9.54022C13.5092 9.16998 15.3604 8.35546 16.7673 7.39284Z" fill="#015290"/>
</g>
</g>
</g>
<defs>
<clipPath id="clip0_2094_73085">
<rect width="103.844" height="32" fill="white" transform="translate(0.152344)"/>
</clipPath>
<clipPath id="clip1_2094_73085">
<rect width="103.667" height="31.9887" fill="white" transform="matrix(1 0 0 -1 -0.263672 32.0508)"/>
</clipPath>
</defs>
</svg>
