<svg width="192" height="32" viewBox="0 0 192 32" fill="none" xmlns="http://www.w3.org/2000/svg">
<g clipPath="url(#clip0_2094_73877)">
<mask id="mask0_2094_73877" style="mask-type:luminance" maskUnits="userSpaceOnUse" x="0" y="0" width="191" height="32">
<path d="M190.839 0.0390625H0.226562V31.9994H190.839V0.0390625Z" fill="white"/>
</mask>
<g mask="url(#mask0_2094_73877)">
<path d="M48.0576 0.637695H50.7487V6.90054L55.2558 0.637695H58.4894L53.0005 7.76973L58.4894 15.1178H55.2558L50.7487 8.78412V15.1178H48.0576V0.637695Z" fill="#22428D"/>
<path d="M64.5233 8.78412L66.1602 4.54589L67.8333 8.78412H64.5233ZM59.0352 15.1178H62.0172L63.5054 11.3889H68.8512L70.3394 15.1178H73.3214L67.2511 0.637695H65.1055L59.0352 15.1178Z" fill="#22428D"/>
<path d="M74.8125 0.637695H77.5006V6.42947H82.8075V0.637695H85.4984V15.1178H82.8075V9.03771H77.5006V15.1178H74.8125V0.637695Z" fill="#22428D"/>
<path d="M95.0572 12.8734C92.26 12.8734 90.1138 10.6278 90.1138 7.91463C90.1138 5.198 92.2232 2.99134 95.0933 2.99134C97.9302 2.99134 100.073 5.198 100.073 7.91463C100.073 10.5917 97.9663 12.8734 95.0572 12.8734ZM95.0933 0.383789C90.769 0.383789 87.4229 3.78549 87.4229 7.95076C87.4229 12.1494 90.769 15.4795 95.0933 15.4795C99.4184 15.4795 102.764 12.1494 102.764 7.95076C102.764 3.74866 99.4184 0.383789 95.0933 0.383789Z" fill="#22428D"/>
<path d="M104.691 0.637695H107.38V6.42947H112.686V0.637695H115.378V15.1178H112.686V9.03771H107.38V15.1178H104.691V0.637695Z" fill="#22428D"/>
<path d="M123.81 11.207C121.449 11.2431 119.994 9.5409 119.994 7.55171C119.994 5.55975 121.449 3.89364 123.81 3.89364V11.207ZM123.81 15.8413H126.501V13.8139C130.281 13.7777 133.045 11.1709 133.045 7.55171C133.045 3.92977 130.317 1.325 126.501 1.28887V-0.522461H123.81V1.28887C120.03 1.325 117.267 3.92977 117.267 7.55171C117.267 11.1709 119.994 13.7777 123.81 13.8139V15.8413ZM126.538 3.89364C128.902 3.85751 130.353 5.55975 130.353 7.55171C130.353 9.5409 128.902 11.2431 126.538 11.207V3.89364Z" fill="#22428D"/>
<path d="M138.387 8.78412L140.024 4.54589L141.657 8.78412H138.387ZM132.898 15.1178H135.878L137.369 11.3889H142.712L144.203 15.1178H147.182L141.112 0.637695H138.969L132.898 15.1178Z" fill="#22428D"/>
<path d="M151.364 3.24247H152.965C153.652 3.24247 155.253 3.35086 155.253 5.16218C155.253 6.93667 153.652 7.04506 152.965 7.04506H151.364V3.24247ZM148.673 15.1178H151.364V9.65053H152.746C156.962 9.65053 157.944 6.9728 157.944 5.16218C157.944 3.7858 157.398 0.637695 152.746 0.637695H148.673V15.1178Z" fill="#22428D"/>
<path d="M159.687 0.637695H163.323L167.393 11.7147L171.427 0.637695H175.1V15.1178H172.373V4.25617L168.521 15.1178H166.229L162.377 4.25617V15.1178H159.687V0.637695Z" fill="#22428D"/>
<path d="M182.045 8.78412L183.678 4.54589L185.351 8.78412H182.045ZM176.556 15.1178H179.535L181.026 11.3889H186.369L187.86 15.1178H190.839L184.769 0.637695H182.626L176.556 15.1178Z" fill="#22428D"/>
<path d="M55.2553 20.1494V28.5119H54.1276V21.1631H49.4392V28.5119H48.2754V20.1494H55.2553Z" fill="#22428D"/>
<path d="M61.5798 20.9453C63.4682 20.9453 64.9231 22.4294 64.9231 24.3123C64.9231 26.1945 63.4321 27.6424 61.5437 27.6424C59.6163 27.6424 58.2705 26.1945 58.2705 24.3484C58.2705 22.5024 59.6524 20.9453 61.5798 20.9453ZM57.1797 31.4436H58.3066V26.9546H58.3435C58.6339 27.4257 59.5072 28.7284 61.5437 28.7284C64.1227 28.7284 66.0501 26.8823 66.0501 24.3845C66.0501 22.2488 64.5229 19.9678 61.5798 19.9678C60.8162 19.9678 59.3252 20.1491 58.3066 21.5971H58.2705V20.1491H57.1797V31.4436Z" fill="#22428D"/>
<path d="M71.7213 20.9453C73.6118 20.9453 74.991 22.3933 74.991 24.3123C74.991 26.1945 73.6118 27.6786 71.7213 27.6786C69.8301 27.6786 68.4509 26.2306 68.4509 24.3123C68.487 22.4294 69.8301 20.9453 71.7213 20.9453ZM71.7213 19.9316C69.2478 19.9316 67.3232 21.8145 67.3232 24.3123C67.3232 26.8101 69.2478 28.6923 71.7213 28.6923C74.194 28.6923 76.1186 26.8101 76.1186 24.3123C76.1186 21.8145 74.2302 19.9316 71.7213 19.9316Z" fill="#22428D"/>
<path d="M79.0283 27.4621L81.6804 21.3799L84.3351 27.4621H79.0283ZM82.298 20.1494H81.062L77.7916 27.4982H76.9189V30.6477H78.0466V28.5119H85.3169V30.6477H86.4445V27.4982H85.5712L82.298 20.1494Z" fill="#22428D"/>
<path d="M91.7143 20.9453C93.6027 20.9453 95.0569 22.4662 95.0569 24.3484C95.0569 26.1945 93.6027 27.6424 91.7511 27.6424C89.969 27.6424 88.3689 26.2306 88.3689 24.3123C88.3689 22.3933 89.8599 20.9453 91.7143 20.9453ZM96.1116 20.1491H95.0208V21.5971H94.9847C93.9661 20.04 92.4056 19.9316 91.6781 19.9316C88.6593 19.9316 87.2051 22.2849 87.2051 24.24C87.2051 26.8462 89.2047 28.6923 91.7143 28.6923C93.5298 28.6923 94.5115 27.6424 94.9847 26.9185H95.0208V28.4755H96.1116V20.1491Z" fill="#22428D"/>
<path d="M98.0391 28.5119V20.1494H99.1639V28.5119H98.0391ZM99.8546 24.2765L103.128 20.1494H104.474L101.236 24.2035L104.692 28.548H103.237L99.8546 24.2765Z" fill="#22428D"/>
<path d="M106.871 20.1494V27.4621H110.471V20.1494H111.632V27.4621H115.233V20.1494H116.396V28.5119H105.707V20.1494H106.871Z" fill="#22428D"/>
<path d="M119.448 20.1494V23.697H124.137V20.1494H125.3V28.5119H124.137V24.7107H119.448V28.5119H118.321V20.1494H119.448Z" fill="#22428D"/>
<path d="M8.83573 4.50934C10.6896 3.35043 12.8341 2.33951 15.1244 1.65097C25.3393 -1.49991 35.3709 1.72392 37.6257 8.89208C37.6621 8.96434 37.6621 9.03729 37.6985 9.14568C26.2849 10.8451 15.4877 9.75849 8.83573 4.50934ZM14.0337 16.095C13.0523 12.1854 10.6168 8.42101 7.3452 5.4876C1.89303 9.46875 -0.90614 15.1897 0.657071 20.2582C2.07458 24.8556 6.76366 27.8244 12.5798 28.5484C14.4337 24.2768 15.1244 20.2943 14.0337 16.095ZM14.1063 28.6568C16.978 28.802 20.069 28.44 23.1936 27.4986C32.4645 24.6388 38.644 17.5068 38.0258 10.8451C23.5936 16.1311 17.3416 22.2494 14.1063 28.6568Z" fill="#22428D"/>
<path d="M19.2324 10.6641C17.0506 10.6641 15.2695 12.4392 15.2695 14.6112C15.2695 16.7831 17.0506 18.5569 19.2324 18.5569C21.4115 18.5569 23.1935 16.7831 23.1935 14.6112C23.1935 12.4392 21.4115 10.6641 19.2324 10.6641ZM18.6142 13.5613C17.9231 13.9233 17.1961 13.8504 16.9779 13.4161C16.76 12.9819 17.1234 12.3663 17.7777 12.0043C18.4687 11.6423 19.1961 11.7146 19.4143 12.1495C19.6689 12.5838 19.3052 13.1987 18.6142 13.5613Z" fill="#22428D"/>
</g>
</g>
<defs>
<clipPath id="clip0_2094_73877">
<rect width="190.972" height="32" fill="white" transform="translate(0.109375)"/>
</clipPath>
</defs>
</svg>
