<svg width="130" height="32" viewBox="0 0 130 32" fill="none" xmlns="http://www.w3.org/2000/svg">
<g clipPath="url(#clip0_2094_74526)">
<path d="M8.40465 31.8204C5.88261 31.8204 3.96535 31.1256 2.64 29.723C1.31464 28.3204 0.658397 26.326 0.658397 23.7525C0.632662 22.5815 0.838542 21.4106 1.26317 20.3169C1.63633 19.3647 2.18963 18.4897 2.92308 17.7691C3.6308 17.0742 4.49292 16.5338 5.43225 16.1992C6.44878 15.839 7.50392 15.6459 8.58479 15.6588C9.18956 15.6588 9.78147 15.6974 10.3734 15.8003C10.8495 15.8776 11.3256 15.9934 11.7888 16.1349C12.1362 16.2378 12.4708 16.3665 12.7925 16.5338C13.0627 16.6625 13.2557 16.7783 13.3844 16.8426L12.3678 19.6477C11.8403 19.3775 11.2741 19.1588 10.6951 19.0044C9.98735 18.8113 9.2539 18.7213 8.53332 18.7341C7.99289 18.7341 7.46532 18.8242 6.96348 19.0044C6.44878 19.1845 5.98555 19.4805 5.59953 19.8665C5.1749 20.304 4.85321 20.8315 4.64733 21.3977C4.38998 22.1312 4.27417 22.9032 4.28704 23.6753C4.28704 24.3444 4.36424 25.0264 4.51865 25.6697C4.6602 26.2488 4.91755 26.7892 5.29071 27.2653C5.66386 27.7285 6.12709 28.0888 6.66753 28.3333C7.32377 28.6164 8.01862 28.7451 8.72633 28.7322C9.1767 28.7322 9.63993 28.7065 10.0903 28.6421C10.4506 28.5907 10.8109 28.5135 11.1712 28.4234C11.4542 28.3462 11.7245 28.2561 11.9947 28.1403C12.2392 28.0374 12.4451 27.9473 12.6381 27.8572L13.6031 30.6495C12.9469 31.0098 12.252 31.28 11.5186 31.4601C10.5021 31.7175 9.45978 31.8333 8.40465 31.8204Z" fill="#389244"/>
<path d="M20.0623 19.4293C20.8987 19.4036 21.7222 19.5194 22.52 19.7639C23.1119 19.944 23.6523 20.2786 24.1027 20.7289C24.5016 21.1535 24.7975 21.6811 24.9391 22.2473C25.1063 22.8907 25.1964 23.5726 25.1835 24.2418V31.1774C24.7074 31.2803 24.0383 31.409 23.1891 31.5505C22.1725 31.7049 21.1303 31.7821 20.1009 31.7693C19.406 31.7821 18.7112 31.7178 18.0292 31.5762C17.463 31.4604 16.9097 31.2417 16.4336 30.92C15.9961 30.624 15.6358 30.2123 15.4042 29.7233C15.1469 29.1572 15.0311 28.5395 15.0439 27.909C15.0311 27.3042 15.1726 26.6995 15.4557 26.159C15.7259 25.6958 16.0991 25.2969 16.5623 25.0138C17.0513 24.7179 17.5917 24.512 18.145 24.3962C18.7498 24.2675 19.3803 24.2032 19.9979 24.2032C20.384 24.2032 20.77 24.216 21.156 24.2546C21.4262 24.2804 21.7093 24.3318 21.9667 24.3962V24.0873C21.9924 23.5855 21.7994 23.0837 21.452 22.7234C21.1045 22.376 20.5126 22.2087 19.6634 22.2087C19.0972 22.2087 18.5439 22.2473 17.9906 22.3245C17.5016 22.3888 17.0255 22.5046 16.5623 22.6719L16.1377 19.9826C16.3307 19.9311 16.5752 19.8668 16.8711 19.7896C17.1671 19.7124 17.4759 19.6609 17.8233 19.6094C18.1836 19.558 18.5439 19.5065 18.9042 19.4808C19.2902 19.4422 19.6762 19.4164 20.0623 19.4293ZM20.3325 29.1829C20.6542 29.1829 20.9759 29.1829 21.2718 29.1571C21.5163 29.1443 21.7479 29.1314 21.9924 29.0928V26.5708C21.8637 26.545 21.6578 26.5064 21.3876 26.4807C21.1431 26.455 20.8987 26.4421 20.6542 26.4292C20.3582 26.4292 20.0623 26.4421 19.7663 26.4807C19.509 26.5064 19.2645 26.5836 19.0329 26.6994C18.8399 26.7895 18.6597 26.9439 18.5439 27.1241C18.4152 27.33 18.3509 27.5616 18.3638 27.7932C18.3638 28.3208 18.5439 28.681 18.8913 28.8741C19.3417 29.1057 19.8307 29.2086 20.3325 29.1829Z" fill="#389244"/>
<path d="M35.297 22.6982C34.9496 22.6081 34.6022 22.5309 34.2419 22.4665C33.8173 22.3765 33.3798 22.3379 32.9423 22.3379C32.6978 22.3379 32.4404 22.3636 32.196 22.3893C31.9772 22.4151 31.7585 22.4537 31.5397 22.5051V31.4995H28.207V20.3691C28.9019 20.1375 29.6096 19.9316 30.3173 19.7772C31.2052 19.5842 32.1188 19.4941 33.0324 19.4941C33.2125 19.4941 33.4312 19.507 33.6757 19.5327C33.9331 19.5585 34.1904 19.5842 34.4349 19.6228C34.6923 19.6614 34.9367 19.7 35.1941 19.7515C35.4128 19.7901 35.6316 19.8673 35.8503 19.9445L35.297 22.6982Z" fill="#389244"/>
<path d="M42.5418 15.8271C44.858 15.8271 46.6337 16.2389 47.8561 17.0496C49.0914 17.8602 49.709 19.1984 49.709 21.0385C49.709 22.9043 49.0785 24.2425 47.8304 25.0789C46.5822 25.9024 44.7808 26.327 42.4646 26.3142H41.358V31.4998H37.8838V16.2389C38.6816 16.0845 39.4922 15.9816 40.3029 15.9301C41.1393 15.8658 41.8856 15.8271 42.5418 15.8271ZM42.7477 18.8124C42.4904 18.8124 42.2459 18.8124 42.0014 18.8381C41.7569 18.8639 41.5382 18.8639 41.358 18.8896V23.3418H42.4518C43.6613 23.3418 44.5749 23.1745 45.1797 22.8528C45.7845 22.5183 46.0933 21.9135 46.0933 21.0256C46.1061 20.6525 46.0289 20.2793 45.8617 19.9576C45.7073 19.6745 45.4756 19.4429 45.1926 19.2756C44.858 19.0955 44.5106 18.9668 44.1245 18.9154C43.687 18.8253 43.2238 18.7995 42.7477 18.8124Z" fill="white"/>
<path d="M59.1535 22.6982C58.8061 22.6081 58.4586 22.5309 58.0983 22.4665C57.6737 22.3893 57.2362 22.3379 56.7987 22.3379C56.5542 22.3379 56.2969 22.3636 56.0524 22.3893C55.8337 22.4151 55.6149 22.4537 55.3962 22.5051V31.4995H52.0635V20.3691C52.7583 20.1375 53.466 19.9316 54.1737 19.7772C55.0616 19.5842 55.9752 19.4941 56.8888 19.4941C57.0689 19.4941 57.2877 19.507 57.545 19.5327C57.8024 19.5585 58.0469 19.5842 58.3042 19.6228C58.5616 19.6614 58.8061 19.7 59.0634 19.7515C59.2822 19.7901 59.5009 19.8673 59.7068 19.9445L59.1535 22.6982Z" fill="white"/>
<path d="M65.15 16.3412C65.1757 16.8816 64.957 17.4092 64.5581 17.7824C63.7603 18.4772 62.5636 18.4772 61.7658 17.7824C61.3669 17.4092 61.1482 16.8816 61.1739 16.3412C61.1482 15.8008 61.3669 15.2732 61.7658 14.9C62.5636 14.2052 63.7603 14.2052 64.5581 14.9C64.9698 15.2732 65.1757 15.8008 65.15 16.3412Z" fill="white"/>
<path d="M64.8415 31.5121H61.5088V19.7383H64.8415V31.5121Z" fill="white"/>
<path d="M67.415 25.6187C67.415 24.7952 67.5437 23.9845 67.8268 23.2125C68.3544 21.7327 69.4738 20.536 70.9279 19.9184C71.7385 19.5838 72.6006 19.4165 73.4756 19.4294C74.0547 19.4294 74.6337 19.4809 75.1999 19.5967C75.7146 19.7125 76.2293 19.8669 76.7182 20.0728L76.0234 22.7364C75.6888 22.6077 75.3414 22.5047 74.994 22.4275C74.5822 22.3375 74.1576 22.286 73.7458 22.2989C72.7679 22.2989 72.0216 22.6077 71.5455 23.2125C71.0565 23.8301 70.812 24.6279 70.8249 25.6315C70.8249 26.6867 71.0565 27.5102 71.5069 28.0892C71.9573 28.6683 72.7551 28.9642 73.8874 28.9642C74.3249 28.9642 74.7624 28.9256 75.187 28.8484C75.6245 28.7841 76.0491 28.6554 76.4609 28.4881L76.9241 31.2032C76.4609 31.3962 75.9719 31.5377 75.4701 31.6278C74.8396 31.7565 74.1962 31.808 73.54 31.808C72.5878 31.8337 71.6484 31.6664 70.7606 31.3319C70.0271 31.0488 69.3838 30.5984 68.8433 30.0194C68.3415 29.4532 67.9683 28.7841 67.7496 28.0635C67.518 27.2786 67.4022 26.4551 67.415 25.6187Z" fill="white"/>
<path d="M78.0436 25.709C78.0179 24.7697 78.1851 23.8432 78.5197 22.9683C78.8028 22.2348 79.2403 21.5786 79.7807 21.0124C80.2954 20.4977 80.9002 20.0988 81.5822 19.8286C82.2513 19.5712 82.959 19.4297 83.6796 19.4297C85.3523 19.4297 86.6648 19.9444 87.6428 20.9609C88.6078 21.9903 89.0968 23.483 89.0968 25.4646C89.0968 25.6576 89.0968 25.8634 89.0711 26.1079C89.0453 26.3395 89.0453 26.5454 89.0196 26.7256H81.4664C81.5307 27.3818 81.8781 27.9866 82.4314 28.3597C82.9976 28.7586 83.7568 28.9645 84.709 28.9645C85.3137 28.9645 85.9185 28.9131 86.5104 28.7972C86.9994 28.7072 87.4884 28.5785 87.9516 28.3855L88.402 31.0877C88.1703 31.1906 87.9259 31.2807 87.6814 31.3579C87.3597 31.4608 87.0251 31.538 86.6906 31.5895C86.3303 31.6538 85.9314 31.7182 85.5068 31.7568C85.095 31.8082 84.6704 31.8211 84.2586 31.8211C83.3193 31.8468 82.38 31.6796 81.505 31.345C80.7715 31.0619 80.1024 30.6244 79.562 30.0583C79.0473 29.505 78.6484 28.8487 78.4167 28.1281C78.1723 27.3432 78.0436 26.5326 78.0436 25.709ZM85.8799 24.4352C85.8671 24.1521 85.8156 23.8818 85.7384 23.6116C85.6612 23.3543 85.5325 23.1098 85.3524 22.891C85.1722 22.6723 84.9535 22.505 84.709 22.3764C84.4001 22.2348 84.0656 22.1705 83.731 22.1833C83.3965 22.1705 83.0748 22.2477 82.766 22.3764C82.5086 22.4922 82.277 22.6594 82.0969 22.8782C81.9167 23.0969 81.7752 23.3414 81.6851 23.5988C81.595 23.869 81.5178 24.1521 81.4664 24.4352H85.8799Z" fill="white"/>
<path d="M105.838 13.1246H108.797C109.659 13.1246 110.097 13.472 110.264 14.1283C110.856 14.1797 111.448 14.2698 112.04 14.3856C111.885 12.8801 110.804 11.6963 108.797 11.6963H105.838C103.676 11.6963 102.736 12.8801 102.582 14.3985C103.148 14.2827 103.727 14.1926 104.306 14.1283C104.435 13.3305 104.885 13.1246 105.838 13.1246Z" fill="white"/>
<path d="M121.06 25.2196C120.867 24.203 120.468 23.238 119.889 22.3758C119.657 22.0413 119.4 21.7196 119.117 21.4365C120.017 21.3336 120.223 20.6259 120.275 20.0597C120.326 19.4935 119.49 19.4549 118.872 19.4935C118.396 19.5193 117.946 19.6994 117.611 20.034C117.276 18.6571 116.62 17.0744 114.909 16.0193C114.021 15.5046 113.056 15.1443 112.052 14.9642C111.46 14.8483 110.868 14.7583 110.277 14.7068C109.376 14.6167 108.359 14.5781 107.214 14.5781C106.249 14.5781 105.284 14.6167 104.319 14.7068C103.74 14.7583 103.161 14.8483 102.595 14.977C101.694 15.1572 100.819 15.4789 100.021 15.9421C98.58 16.8299 97.8594 18.4384 97.1774 19.8795C96.8686 19.6479 96.4954 19.5193 96.1094 19.5064C95.5046 19.4678 94.7197 19.5064 94.7068 20.0726C94.694 20.6645 94.6682 21.2564 95.466 21.4236C95.1829 21.7196 94.9256 22.0284 94.694 22.363C94.0506 23.238 93.6517 24.2802 93.5488 25.3611C93.4587 26.4034 93.819 27.4457 94.5396 28.2177C94.5782 29.26 94.6039 30.5853 94.6168 31.0872C94.6554 31.9879 95.1443 31.975 96.8428 31.9493C97.9237 31.9364 99.1333 32.1938 99.159 30.8941C99.1719 30.5725 99.159 30.2636 99.1461 29.942C103.727 30.7397 111.01 30.8684 115.629 30.0063C115.629 30.2508 115.617 30.521 115.629 30.8941C115.655 32.1809 116.865 31.9235 117.946 31.9493C119.644 31.975 120.133 32.0007 120.172 31.0872C120.197 30.5982 120.21 29.3114 120.249 28.282C120.944 27.4328 121.253 26.3133 121.06 25.2196ZM117.302 26.0174C116.041 26.6736 114.549 26.5321 114.278 25.8501C114.034 25.2453 114.922 24.6277 115.642 23.9199C116.363 23.2122 117.418 22.8648 118.203 23.5082C118.859 24.0615 118.911 25.1938 117.302 26.0174ZM112.554 27.9218C111.949 28.5523 111.345 28.5265 110.122 28.5651C109.53 28.578 104.808 28.5523 104.216 28.5394C103.032 28.4879 102.389 28.5008 101.797 27.8703C101.205 27.2398 101.681 26.7379 102.543 26.7379C102.981 26.7379 111.396 26.7765 111.833 26.7894C112.683 26.8023 113.159 27.2912 112.554 27.9218ZM100.047 25.8629C99.7766 26.5449 98.284 26.6736 97.023 26.0302C95.4145 25.1938 95.466 24.0744 96.1351 23.5339C96.92 22.8905 98.0009 23.2637 98.6958 23.9457C99.3906 24.6148 100.291 25.2453 100.047 25.8629ZM101.051 17.2288C102.286 16.5083 104.152 16.238 107.214 16.238C110.47 16.238 112.593 16.6112 113.879 17.409C114.973 18.0781 115.861 19.6093 115.951 21.0376C114.549 21.5266 101.295 21.5652 98.58 21.0376C99.0818 19.4163 99.7123 18.0138 101.051 17.2288Z" fill="#389244"/>
<path d="M129.166 6.18876L124.186 0.475583C123.877 0.141027 123.35 0.0766872 122.976 0.346905L114.432 6.53618C114.034 6.85787 113.75 7.30824 113.66 7.81007L113.068 12.5067C113.03 12.9442 113.364 13.3431 113.802 13.3688H113.815L118.923 13.8964C119.464 13.935 119.991 13.7935 120.442 13.4975L128.998 7.26964C129.333 7.03802 129.423 6.57478 129.191 6.24023C129.179 6.21449 129.166 6.20163 129.166 6.18876ZM124.829 7.34684C124.611 7.56559 124.379 7.7586 124.122 7.93875C123.903 8.11889 123.646 8.24757 123.375 8.33764C123.169 8.40198 122.938 8.41484 122.719 8.37624C122.5 8.33764 122.307 8.24757 122.127 8.11889C121.934 7.97735 121.754 7.81007 121.587 7.62992L120.21 6.03435L121.098 5.39098L122.397 6.88361C122.552 7.08949 122.771 7.25677 123.002 7.35971C123.208 7.41118 123.414 7.37257 123.581 7.23103C123.646 7.17956 123.71 7.12809 123.774 7.07662C123.839 7.02515 123.903 6.97368 123.942 6.92221L122.024 4.72187L122.912 4.07849L125.318 6.83214C125.164 7.02515 125.01 7.19243 124.829 7.35971L124.829 7.34684ZM120.236 10.6924L117.868 7.97735C117.997 7.78433 118.151 7.60419 118.306 7.42404C118.499 7.2053 118.73 6.99941 118.962 6.83214C119.013 6.79353 119.078 6.75494 119.142 6.71633C119.219 6.67773 119.283 6.62626 119.361 6.58766C119.438 6.54905 119.515 6.51045 119.592 6.47185C119.657 6.44611 119.734 6.42038 119.798 6.39464L120.236 7.1667C120.146 7.2053 120.043 7.25676 119.914 7.30823C119.785 7.37257 119.657 7.44978 119.541 7.52698C119.476 7.57845 119.399 7.62992 119.348 7.68139C119.296 7.73286 119.245 7.78434 119.193 7.83581L121.098 10.0104L120.21 10.6538L120.236 10.6924ZM116.852 11.606C116.774 12.0692 116.337 12.3909 115.861 12.3266C115.397 12.3008 115.05 11.9148 115.076 11.4516V11.4258C115.153 10.9626 115.59 10.6409 116.067 10.7053C116.53 10.731 116.877 11.117 116.852 11.5803C116.852 11.5803 116.852 11.5931 116.852 11.606Z" fill="white"/>
</g>
<defs>
<clipPath id="clip0_2094_74526">
<rect width="128.908" height="32" fill="white" transform="translate(0.577148)"/>
</clipPath>
</defs>
</svg>
