<svg width="33" height="32" viewBox="0 0 33 32" fill="none" xmlns="http://www.w3.org/2000/svg">
<g clipPath="url(#clip0_2094_74433)">
<path d="M16.0416 4.76015H17.8819C18.0849 4.76015 18.2505 4.59499 18.2505 4.392C18.2505 4.18944 18.0849 4.02386 17.8819 4.02386H16.0416V4.76015ZM16.0416 6.54835H17.9365C18.1685 6.54835 18.3559 6.36007 18.3559 6.12683C18.3559 5.89443 18.1685 5.70615 17.9365 5.70615H16.0416V6.54835ZM19.0006 5.19302C19.2507 5.43677 19.4058 5.77675 19.4058 6.15373C19.4058 6.89296 18.806 7.49393 18.0664 7.49519H14.9893V3.07617L18.016 3.07659C18.7262 3.07785 19.3015 3.65445 19.3015 4.36511C19.302 4.6803 19.1885 4.96902 19.0006 5.19302Z" fill="#00354F"/>
<path d="M19.7085 12.7572H18.5793L18.2238 12.0209H15.7518L15.3958 12.7572H14.2666L16.4751 8.33984H17.4992L19.7085 12.7572ZM16.9878 9.46992L16.212 11.0745H17.7636L16.9878 9.46992Z" fill="#00354F"/>
<path d="M14.2217 13.7041H15.4871L16.9878 15.7159L18.4881 13.7041H19.754L17.514 16.5804V18.1219H16.4617V16.5804L14.2217 13.7041Z" fill="#00354F"/>
<path d="M24.3447 13.7041V14.6509H21.3996V15.3872L24.2393 15.3868V16.3332H21.3996V17.175H24.3447V18.1219H20.3477V13.7041H24.3447Z" fill="#00354F"/>
<path d="M27.5951 16.4387H26.8058V18.1214H25.7539V13.7041H28.4406C29.1937 13.7066 29.8044 14.3185 29.8044 15.0729C29.8044 15.6953 29.3925 16.2202 28.8226 16.3854L30.1191 18.1219H28.8567C28.8567 18.1219 27.5951 16.4387 27.5951 16.4387ZM28.3335 14.6509H26.8058V15.4923H28.3335C28.5646 15.491 28.7512 15.3028 28.7512 15.072C28.7516 14.8405 28.5646 14.6522 28.3335 14.6509Z" fill="#00354F"/>
<path d="M14.712 18.1219H13.5828L13.2272 17.3856H10.7553L10.3993 18.1219H9.27051L11.479 13.7041H12.5031L14.712 18.1219ZM11.9913 14.8342L11.215 16.4387H12.7666L11.9913 14.8342Z" fill="#00354F"/>
<path d="M5.32088 15.3906H7.16078C7.36418 15.3906 7.52934 15.2254 7.52934 15.0224C7.52934 14.8195 7.36418 14.6543 7.16078 14.6543H5.32088C5.32088 14.6543 5.32088 15.3906 5.32088 15.3906ZM5.32088 17.1788H7.21499C7.44739 17.1788 7.63441 16.9901 7.63441 16.7573C7.63441 16.5253 7.44739 16.3366 7.21499 16.3366H5.32046V17.1788L5.32088 17.1788ZM8.27951 15.8235C8.52956 16.0672 8.68506 16.4076 8.68506 16.7842C8.68506 17.5238 8.08535 18.1248 7.34611 18.1261H4.26855V13.707H7.29526C8.0055 13.7083 8.58125 14.2849 8.58125 14.9955C8.58083 15.3107 8.46736 15.5995 8.27951 15.8235Z" fill="#00354F"/>
<path d="M18.9863 19.0684V20.0152H16.0412V20.7515L18.8809 20.7511V21.6975H16.0412V22.5393H18.9863V23.4857H14.9893V19.0684H18.9863Z" fill="#00354F"/>
<path d="M18.2479 25.9055C18.2479 25.6739 18.0618 25.4865 17.831 25.4844H16.0407V26.3253H17.831C18.0622 26.3232 18.2479 26.1354 18.2479 25.9055ZM14.9893 28.9549V24.5371H17.9399C18.6917 24.5422 19.299 25.1532 19.299 25.9063C19.299 26.4791 18.9477 26.97 18.4484 27.1747L19.7752 28.9545H18.5127L17.2503 27.2722H16.0407V28.9545H14.9893L14.9893 28.9549Z" fill="#00354F"/>
<path d="M32.9274 14.9962C32.4164 6.63722 25.4766 0.015625 16.9891 0.015625C8.50155 0.015625 1.56182 6.63722 1.05078 14.9962C1.07137 15.3315 1.10121 15.664 1.1424 15.9934C1.48743 18.7739 2.54732 21.332 4.13212 23.4795C7.04031 27.4203 11.7161 29.9767 16.9895 29.9767C9.60725 29.9767 3.54292 24.2297 3.03398 16.9752C3.01045 16.6478 2.99784 16.3183 2.99784 15.9855C2.99784 15.6526 3.01045 15.3231 3.03314 14.9962C3.5425 7.74124 9.60683 1.9942 16.9891 1.9942C22.2638 1.9942 26.94 4.5519 29.8478 8.49435C31.4342 10.6452 32.4933 13.2084 32.8362 15.9934C32.8761 16.3179 32.9077 16.6448 32.9278 16.9752C32.9476 16.6474 32.9589 16.3179 32.9589 15.9855C32.9589 15.653 32.9476 15.3236 32.9274 14.9962Z" fill="#6ABD45"/>
<path d="M1.05105 16.9747C1.56209 25.3336 8.50182 31.9552 16.9894 31.9552C25.4769 31.9552 32.4166 25.3336 32.9277 16.9747C32.9071 16.6393 32.8772 16.3069 32.8361 15.9774C32.491 13.197 31.4311 10.6389 29.8463 8.49134C26.9386 4.55058 22.2628 1.99414 16.9894 1.99414C24.3712 1.99414 30.436 7.74118 30.9453 14.9957C30.968 15.3226 30.9806 15.6526 30.9806 15.985C30.9806 16.3178 30.968 16.6473 30.9453 16.9743C30.436 24.2296 24.3716 29.9767 16.9894 29.9767C11.7147 29.9767 7.03848 27.419 4.13071 23.4765C2.54423 21.3256 1.48518 18.7625 1.14225 15.9778C1.10232 15.6534 1.0708 15.3264 1.05063 14.9961C1.03088 15.3235 1.01953 15.653 1.01953 15.9854C1.01953 16.3178 1.03088 16.6473 1.05105 16.9747Z" fill="#41B9EA"/>
</g>
<defs>
<clipPath id="clip0_2094_74433">
<rect width="32" height="32" fill="white" transform="translate(0.964844)"/>
</clipPath>
</defs>
</svg>
