<svg width="250" height="32" viewBox="0 0 250 32" fill="none" xmlns="http://www.w3.org/2000/svg">
<g clipPath="url(#clip0_2094_74586)">
<path d="M199.312 3.82041C198.348 2.9686 197.223 2.30151 195.938 1.81653C194.654 1.33234 193.272 1.08984 191.798 1.08984H181.516V7.00146H191.798C192.895 7.00146 193.82 7.33625 194.577 8.00344C195.33 8.67233 195.71 9.49023 195.71 10.4588V31.2199H202.403V10.4588C202.403 9.1558 202.129 7.93718 201.58 6.8015C201.032 5.66618 200.277 4.67114 199.312 3.82041Z" fill="white"/>
<path d="M203.169 7.10378H216.597V1.04199H203.169V7.10378Z" fill="white"/>
<path d="M62.6228 0.991211C62.6267 1.76391 62.6292 2.70383 62.6292 2.83966C62.6319 5.95666 62.1025 13.8 57.1399 19.2691C54.764 21.889 51.6693 23.6535 47.9425 24.5157C47.6623 24.5815 47.3545 24.6386 47.0133 24.6889C46.2769 24.7836 45.2219 24.8129 44.477 24.8195H43.583V0.991211H36.7383V31.2191H41.7282C44.5715 31.2191 47.1231 31.1722 49.5765 30.6051C58.6434 28.5075 64.9378 22.5742 67.7775 13.4488C69.0627 9.31954 69.354 5.43233 69.3725 2.89887C69.3746 2.68117 69.3735 1.74367 69.3715 0.991211H62.6228Z" fill="white"/>
<path d="M10.3631 18.9093L25.249 18.9041V13.6875L9.59346 13.7122C4.77749 13.7122 0.966797 15.2276 0.966797 20.1251L0.973809 31.1697H30.1628V25.2585H7.81644L7.80697 21.2876C7.80487 19.9754 8.9497 18.9093 10.3631 18.9093Z" fill="white"/>
<path d="M0.970703 0.990234V6.62832C0.970703 10.0602 4.03245 12.8431 7.80913 12.8431V6.90256H30.161V0.990234H0.970703Z" fill="white"/>
<path d="M112.96 21.7983V1.0332H119.865V21.1991C119.865 22.1675 120.235 22.9859 120.978 23.6551C121.722 24.3218 122.629 24.6563 123.705 24.6563H143.564V31.1707H123.365C121.918 31.1707 120.565 30.9272 119.304 30.4436C118.043 29.9586 116.938 29.2908 115.992 28.4384C115.046 27.5866 114.305 26.593 113.766 25.457C113.228 24.3206 112.96 23.1012 112.96 21.7983Z" fill="white"/>
<path d="M249.484 6.95163V1.04004H220.615V31.1705H249.484V25.2588H227.46V18.3397H245.291V13.175H227.46V6.95163H249.484Z" fill="white"/>
<path d="M106.592 8.28861C104.631 4.84037 101.629 2.5898 97.4208 1.40882C95.0843 0.752866 92.7764 0.42814 90.504 0.416992C88.2312 0.42814 85.9247 0.752866 83.5882 1.40882C79.3794 2.5898 76.3788 4.84037 74.4162 8.28861C72.79 11.1463 72.2073 14.4165 72.634 18.2846C73.161 23.058 75.3742 26.5746 79.4016 29.0383C82.364 30.8501 85.8957 31.7242 90.504 31.7915C95.113 31.7242 98.6452 30.8501 101.607 29.0383C105.635 26.5746 107.848 23.058 108.374 18.2846C108.802 14.4165 108.219 11.1463 106.592 8.28861ZM95.8312 24.7425C94.2261 25.2598 93.0898 25.4448 90.504 25.4448C87.9192 25.4448 86.7828 25.2598 85.1771 24.7425C81.5636 23.5754 79.4935 20.8271 79.3489 17.0012C79.3073 15.8701 79.3749 14.7889 79.5527 13.786C80.0537 10.9697 81.7248 8.9599 84.518 7.8078C86.2937 7.07623 88.0889 6.79476 90.504 6.79476C92.9192 6.79476 94.7154 7.07623 96.4908 7.8078C99.2834 8.9599 100.955 10.9697 101.456 13.786C101.634 14.7889 101.702 15.8701 101.659 17.0012C101.515 20.8271 99.445 23.5754 95.8312 24.7425Z" fill="white"/>
<path d="M170.259 1.09082L170.245 17.6701C170.239 18.5512 170.123 19.45 169.903 20.3425C169.283 22.846 167.506 24.5279 164.764 25.2068C163.701 25.47 162.617 25.5824 161.522 25.5789C160.428 25.5824 159.342 25.47 158.281 25.2068C155.537 24.5279 153.762 22.846 153.14 20.3425C152.919 19.45 152.805 18.5512 152.8 17.6701L152.786 1.09082H145.911L145.925 18.0039C145.934 19.28 146.039 20.3613 146.247 21.3086C147.326 26.2562 150.331 29.4317 155.434 31.0161C157.354 31.6119 159.399 31.8679 161.522 31.8546C163.644 31.8679 165.689 31.6119 167.611 31.0161C172.713 29.4317 175.718 26.2562 176.798 21.3086C177.004 20.3613 177.111 19.28 177.117 18.0039L177.134 1.09082H170.259Z" fill="white"/>
</g>
<defs>
<clipPath id="clip0_2094_74586">
<rect width="248.986" height="32" fill="white" transform="translate(0.814453)"/>
</clipPath>
</defs>
</svg>
