<svg width="121" height="32" viewBox="0 0 121 32" fill="none" xmlns="http://www.w3.org/2000/svg">
<g clipPath="url(#clip0_2094_73097)">
<path d="M16.211 31.8198C11.3912 31.7966 6.86715 29.4924 4.01404 25.6077C3.96344 25.5527 3.93496 25.4809 3.93406 25.4062C3.93362 25.2338 4.07278 25.0935 4.24518 25.0926C4.3355 25.0932 4.42096 25.1336 4.47873 25.203C10.4564 31.7294 20.5931 32.1757 27.1203 26.198C27.4269 25.9175 27.7218 25.6256 28.0049 25.3222C28.1194 25.1941 28.3161 25.183 28.4442 25.2975C28.5115 25.3576 28.5493 25.4439 28.548 25.5341C28.5456 25.6086 28.5173 25.6799 28.468 25.7357C25.5927 29.5662 21.0822 31.8201 16.2926 31.8198H16.211ZM29.8964 24.9895L10.7172 21.2696L14.609 16.7715C14.6848 17.2865 14.9917 17.7387 15.4424 17.9992C15.6447 18.1168 15.8696 18.1903 16.1023 18.2151L23.662 19.682C23.7599 19.7123 23.8638 19.6575 23.8941 19.5596C23.906 19.5212 23.9051 19.4799 23.8915 19.442L23.4692 18.2823C23.4125 18.1587 23.4667 18.0124 23.5904 17.9557C23.6635 17.9221 23.7485 17.9264 23.8179 17.9672C23.8307 17.975 23.843 17.9835 23.8547 17.9928L23.8691 18.0064L30.3627 24.0681C30.5884 24.2526 30.6219 24.5852 30.4373 24.8109C30.337 24.9336 30.1869 25.0047 30.0284 25.0047C29.984 25.0053 29.9396 25.0002 29.8964 24.9895ZM2.09772 24.7335C1.97988 24.5285 2.01254 24.2701 2.1777 24.1009L14.9777 9.31254L16.9165 14.9375C16.1969 14.6522 15.3755 14.8882 14.9169 15.5118L9.87179 21.3392C9.83403 21.3744 9.81333 21.4243 9.81501 21.4759C9.81643 21.5653 9.88131 21.6409 9.96937 21.6559L11.1835 21.8686C11.2604 21.8764 11.3289 21.9208 11.3674 21.9878C11.436 22.1051 11.3966 22.2557 11.2794 22.3245C11.2674 22.3326 11.2542 22.3388 11.2403 22.3429L11.2195 22.3485L2.73836 24.9639C2.49764 25.0545 2.22669 24.9573 2.09852 24.7343L2.09772 24.7335ZM85.0028 14.4089V24.2057H80.1728V7.71373H85.8106L92.9952 17.5097V7.71933H93.0912V7.71373H97.8221V24.2057H92.1851L85.0028 14.4089ZM106.887 24.2049V18.2735L99.1401 7.71133H104.883L109.755 14.3569L114.634 7.71293H120.379L112.63 18.2751V24.2057L106.887 24.2049ZM73.0554 24.2049L71.8997 21.4415H64.6559L63.4985 24.2049H57.692L65.3701 7.71213H71.1734L78.8515 24.2049H73.0554ZM66.4434 17.1866H70.1169L68.2774 12.8077L66.4434 17.1866ZM39.638 24.2057V19.5668H52.4213C52.7766 19.5668 53.0647 19.2787 53.0647 18.9234C53.0647 18.568 52.7766 18.2799 52.4213 18.2799H44.2809C41.3629 18.2796 38.9977 15.9138 38.998 12.9958C38.9984 10.0783 41.3634 7.71328 44.2809 7.71293H57.0641V12.3518H44.2809C43.9255 12.3518 43.6375 12.6399 43.6375 12.9952C43.6375 13.3506 43.9255 13.6387 44.2809 13.6387H52.4213C55.3391 13.6028 57.7334 15.939 57.7693 18.8568C57.8052 21.7746 55.4689 24.169 52.5512 24.2049C52.5079 24.2054 52.4646 24.2054 52.4213 24.2049L39.638 24.2057ZM29.7205 22.6916C29.6749 22.6129 29.6661 22.5182 29.6965 22.4325C32.359 13.9546 27.6466 4.92802 19.1719 2.26548C18.7987 2.14817 18.4217 2.04473 18.041 1.95515C17.9528 1.93712 17.8771 1.88126 17.8338 1.80239C17.7486 1.65492 17.7978 1.46634 17.9442 1.37929C18.0098 1.34234 18.0866 1.33068 18.1601 1.3465C26.5373 2.39184 32.4846 10.0332 31.4377 18.4151C31.256 19.8711 30.8657 21.2933 30.2788 22.638C30.2249 22.8003 30.0497 22.8881 29.8874 22.8342C29.8872 22.8341 29.887 22.8341 29.8869 22.834C29.8148 22.8104 29.754 22.7608 29.7165 22.6948L29.7205 22.6916ZM2.38164 22.6588C2.31707 22.6213 2.26865 22.5612 2.24568 22.4901C-1.05591 14.7152 2.5728 5.73902 10.3469 2.44143C11.6989 1.86779 13.1266 1.49202 14.5858 1.32571C14.7552 1.29412 14.9182 1.40585 14.9497 1.57525C14.9813 1.74465 14.8696 1.90757 14.7002 1.93915C6.03114 3.88507 0.582889 12.4901 2.53041 21.1576C2.61625 21.5399 2.71596 21.9185 2.82953 22.2933C2.88385 22.4563 2.79576 22.6325 2.63278 22.6868C2.60103 22.6973 2.56783 22.7027 2.53441 22.7028C2.47911 22.7028 2.42488 22.6876 2.37765 22.6588H2.38164ZM17.3523 17.86C17.9577 17.3788 18.1632 16.5505 17.853 15.8421L15.34 8.54633C15.3274 8.49598 15.2951 8.45278 15.2505 8.42636C15.172 8.38402 15.0746 8.40236 15.0169 8.47034L14.2203 9.41651C14.1389 9.52607 13.9841 9.54889 13.8745 9.46749C13.8128 9.42158 13.7759 9.34951 13.7748 9.27254C13.7748 9.25775 13.7764 9.243 13.7796 9.22855V9.20936L15.7903 0.539503C15.8257 0.287762 16.0408 0.100314 16.295 0.0996094C16.5312 0.0997843 16.7387 0.256406 16.8037 0.483514L23.1781 18.9909L17.3523 17.86Z" fill="#C52126"/>
</g>
<defs>
<clipPath id="clip0_2094_73097">
<rect width="119.579" height="32" fill="white" transform="translate(0.952148)"/>
</clipPath>
</defs>
</svg>
