<svg width="67" height="32" viewBox="0 0 67 32" fill="none" xmlns="http://www.w3.org/2000/svg">
<g clipPath="url(#clip0_2094_72901)">
<path d="M0.69043 31.8878H32.5188V0.0585938H0.69043V31.8878Z" fill="#0758A4"/>
<path d="M34.5332 0.0341797V31.9213H66.4216V0.0341797H34.5332Z" fill="#0758A4"/>
<path d="M64.5083 1.94727V30.008H36.4463V1.94727H64.5083Z" fill="white"/>
<path d="M17.9042 22.5002C17.5544 22.0733 17.3769 21.513 17.3769 20.8356C17.3769 20.1402 17.546 19.5802 17.8798 19.1713C18.2434 18.7236 18.7793 18.4967 19.4727 18.4967H19.5258V17.3365H19.4727C18.391 17.3365 17.5561 17.6753 16.9913 18.3428C16.4775 18.9467 16.2169 19.7883 16.2169 20.8447C16.2169 21.8651 16.4997 22.7044 17.0574 23.3386C17.6438 24.0054 18.462 24.3438 19.4891 24.3438H19.5423V23.1838H19.4891C18.8117 23.1838 18.2783 22.9539 17.9042 22.5002ZM13.7837 22.5002C13.4339 22.0736 13.2564 21.5138 13.2564 20.8356C13.2564 20.1402 13.4256 19.5802 13.7592 19.1713C14.1226 18.7236 14.6586 18.4967 15.3522 18.4967H15.4054V17.3365H15.3522C14.2706 17.3365 13.4356 17.6753 12.8705 18.3428C12.3569 18.9467 12.0963 19.7883 12.0963 20.8447C12.0963 21.8651 12.3792 22.7044 12.9368 23.3386C13.5234 24.0054 14.3415 24.3438 15.3686 24.3438H15.4218V23.1838H15.3686C14.6911 23.1838 14.1578 22.9539 13.7837 22.5002ZM17.5708 11.202V14.4314H18.801V7.74527H17.5708V10.0739H16.9013C16.6251 10.0739 16.4191 10.0111 16.2891 9.88718C16.195 9.79936 16.1495 9.68213 16.1495 9.52817V7.74527H14.9193V9.65469C14.9193 10.0941 15.0932 10.4663 15.4361 10.7613C15.7749 11.0536 16.1907 11.202 16.672 11.202H17.5708ZM29.3404 17.1776L29.2538 17.268C29.2538 17.268 26.9656 19.6574 26.7957 19.8349V17.4964H25.7207V24.1445H26.7957V21.4136C26.8225 21.385 28.1992 19.9273 28.3542 19.7631C28.3627 20.0026 28.5099 24.1444 28.5099 24.1444H29.6053L29.3404 17.1776ZM21.2922 14.4314H22.5222V8.85661H23.559V7.74527H20.2724V8.85661H21.2922V14.4314ZM24.1255 17.268C24.1255 17.268 21.8374 19.6574 21.6674 19.8349V17.4964H20.5924V24.1445H21.6674V21.4136C21.6944 21.385 23.0709 19.9273 23.226 19.7631C23.2347 20.0026 23.3818 24.1444 23.3818 24.1444H24.4771L24.2122 17.1776L24.1255 17.268ZM26.3382 8.85661H26.7834C27.1003 8.85661 27.3186 8.95169 27.4505 9.14757C27.5566 9.3102 27.632 9.62526 27.6805 10.0566H26.3083C26.3118 9.92136 26.335 8.98575 26.3382 8.85661ZM26.2866 11.168C26.4202 11.1681 27.6969 11.1689 27.8219 11.1689C27.8365 11.3052 28.167 14.432 28.167 14.432L29.4061 14.4313L28.8384 9.54378C28.8389 8.90299 28.641 8.41927 28.2507 8.11508C27.9401 7.86979 27.5147 7.74527 26.9862 7.74527H25.1637L24.9375 14.4314H26.1676C26.1676 14.4314 26.2811 11.3144 26.2866 11.168ZM4.84496 8.85661H6.36853V14.4314H7.5986V7.74527H3.61496V14.4314H4.84496L4.84496 8.85661ZM5.42017 21.1255C5.33203 21.2959 5.22912 21.3817 5.11443 21.3817C5.00312 21.3817 4.90961 21.3081 4.82865 21.1558C4.74285 20.9943 4.69953 20.7581 4.69953 20.453V18.4967H4.74486C4.99892 18.4967 5.19291 18.6368 5.33786 18.9252C5.48676 19.2221 5.5622 19.6975 5.5622 20.3383C5.5622 20.6784 5.51445 20.9432 5.42017 21.1255ZM4.74734 17.5065H3.60742V24.1399H4.69953V22.2119C4.91107 22.3976 5.14161 22.5082 5.39419 22.5082C5.75754 22.5082 6.06036 22.3161 6.29425 21.9372C6.55568 21.5116 6.68834 20.8809 6.68834 20.0624C6.68834 19.4929 6.58206 18.9827 6.37258 18.5467C6.04287 17.8567 5.49602 17.5065 4.74734 17.5065ZM12.066 12.7958C11.9057 13.2286 11.6807 13.4391 11.3775 13.4391C11.0871 13.4391 10.8679 13.2258 10.7075 12.7869C10.5401 12.3284 10.4551 11.7465 10.4551 11.0577C10.4551 10.3508 10.5386 9.76924 10.703 9.32895C10.8598 8.90782 11.0805 8.70317 11.3775 8.70317C11.7108 8.70317 11.9481 8.91033 12.1027 9.3369C12.246 9.7292 12.3185 10.3019 12.3185 11.0394C12.3185 11.7517 12.2337 12.3426 12.066 12.7958ZM13.0157 13.5517C13.3806 12.9217 13.5658 12.0766 13.5658 11.0394C13.5658 10.0142 13.3742 9.1748 12.997 8.54447C12.6115 7.90125 12.0657 7.5752 11.3752 7.5752C10.7197 7.5752 10.1986 7.90336 9.82591 8.55053C9.46102 9.18234 9.27598 10.0229 9.27598 11.0485C9.27598 12.1097 9.45319 12.9668 9.80248 13.5961C10.1599 14.2407 10.6891 14.5675 11.3752 14.5675C12.0726 14.5675 12.6245 14.2258 13.0157 13.5517ZM9.93563 22.5421C9.79131 22.9795 9.57951 23.201 9.30647 23.201C9.04423 23.201 8.83781 22.9761 8.69328 22.5328C8.54322 22.0715 8.46703 21.486 8.46703 20.7925C8.46703 20.0815 8.54173 19.4961 8.68943 19.0526C8.83069 18.6273 9.03823 18.4117 9.30647 18.4117C9.61057 18.4117 9.82728 18.6244 9.96847 19.0613C10.0971 19.4568 10.1622 20.0328 10.1622 20.7745C10.1622 21.4912 10.0861 22.0857 9.93563 22.5421ZM10.7481 18.2949C10.4057 17.659 9.92125 17.3365 9.30775 17.3365C8.72595 17.3365 8.26329 17.6608 7.93249 18.3009C7.60747 18.9296 7.44257 19.7647 7.44257 20.7835C7.44257 21.8387 7.60041 22.691 7.9116 23.3162C8.22845 23.953 8.6982 24.2761 9.30775 24.2761C9.92717 24.2761 10.4174 23.938 10.7648 23.271C11.0897 22.646 11.2544 21.806 11.2544 20.7745C11.2544 19.755 11.0841 18.9207 10.7481 18.2949Z" fill="white"/>
<path d="M44.2054 10.3506C44.4414 10.8718 44.8287 11.4056 45.8819 12.1258C46.1177 12.2872 46.378 12.6227 46.1795 13.0945C45.9809 13.5664 45.6084 14.2367 45.8317 14.4972C46.0552 14.7585 46.8496 14.8947 47.4953 14.6342C47.4953 14.6342 47.632 15.0437 47.8682 15.3042C47.8682 15.3042 47.7564 15.528 47.384 15.4164C47.384 15.4164 47.5207 15.7514 47.3345 16.1114C47.3345 16.1114 46.9 16.0372 46.7133 15.6392C46.7133 15.6392 46.5395 15.9503 46.1923 16.0613C46.1923 16.0613 45.9062 15.9129 45.9687 15.3418C45.9687 15.3418 45.7575 15.851 45.1117 15.9374C45.1117 15.9374 44.7395 15.4659 45.2237 14.8322C45.2237 14.8322 44.8756 15.1433 44.2427 14.9942C44.2427 14.9942 44.143 14.6715 44.7145 14.2237C44.7145 14.2237 44.0682 14.1996 43.8203 13.6531C43.8203 13.6531 44.0934 13.3178 44.7637 13.3927C44.7637 13.3927 44.143 13.2557 44.007 12.5108C44.007 12.5108 44.4538 12.2253 45.1619 12.6844C45.1619 12.6844 45.0376 12.4486 44.7395 12.2129C44.4413 11.9769 44.0812 11.3184 44.2054 10.3506Z" fill="#0758A4"/>
<path d="M46.8032 17.8393C46.7092 17.7146 46.6392 17.5906 46.5869 17.4697C46.6976 18.3732 46.7382 18.9824 47.2257 19.5674C47.2257 19.5674 47.5201 19.1754 47.3301 18.2242C47.2482 18.2005 47.1569 18.1622 47.0674 18.1019C47.0674 18.1019 47.1788 18.4879 47.1094 18.8775C47.1094 18.8775 46.9329 18.7492 46.8032 17.8393Z" fill="#0758A4"/>
<path d="M45.9591 17.745C45.9013 17.6715 45.7891 17.5163 45.73 17.4053C45.6891 17.9299 45.5509 19.3108 46.0135 19.7426C46.0135 19.7426 46.3304 19.5107 46.4425 17.4972C46.3754 17.6098 46.258 17.7294 46.2003 17.7947C46.2003 17.7947 46.2773 18.4339 46.0481 18.8843C46.0481 18.8843 45.8183 18.7102 45.9591 17.745Z" fill="#0758A4"/>
<path d="M44.8578 18.8006C45.2469 18.3349 45.3631 16.9402 45.3631 16.9402C45.4168 16.9043 45.4706 16.8649 45.5245 16.8218C45.5472 16.8036 45.5687 16.7851 45.5891 16.7656C45.5885 16.8164 45.5908 16.8688 45.5956 16.9214C45.5396 17.7606 45.4734 18.6258 45.2113 19.0565C44.9545 19.4783 44.4833 19.6975 44.4833 19.6975C44.0405 18.9103 44.5752 17.8532 45.0231 17.1191C45.078 17.0978 45.1337 17.0724 45.1904 17.0435C45.0332 17.6088 44.7355 18.2808 44.8578 18.8006Z" fill="#0758A4"/>
<path d="M43.7601 16.3792C43.7574 16.4699 43.7741 16.5425 43.7859 16.5811C43.7908 16.596 43.7968 16.6166 43.807 16.6374C43.4361 17.0021 43.1617 17.349 42.6124 18.1128C42.0618 18.8769 41.1914 18.9072 41.1914 18.9072C41.2753 18.2891 41.4435 17.8 41.9087 17.273C42.3748 16.7459 42.9705 16.265 43.4092 15.9453C43.5217 15.9977 43.6687 16.0305 43.8548 16.0084C43.8688 16.0067 43.8828 16.005 43.898 16.0028C43.8387 16.0789 43.8036 16.1555 43.7838 16.2274C43.4518 16.4175 42.4901 16.906 42.1 17.6928C42.1 17.6928 42.709 17.5019 43.7601 16.3792Z" fill="#0758A4"/>
<path d="M43.0696 15.6095L43.1062 15.5444C43.1181 15.5232 43.1311 15.5035 43.1453 15.4844C42.7877 15.6238 41.5122 16.1049 41.0999 16.3182C40.6878 16.5325 40.0905 17.0189 39.7666 18.0048C39.7666 18.0048 40.6265 18.0824 41.3368 17.4948C42.0466 16.9062 42.8738 16.0861 43.2273 15.8248C43.1919 15.7917 43.1649 15.76 43.1453 15.7342C43.1453 15.7342 42.1844 16.5856 41.1684 16.9527C41.1684 16.9527 41.3859 16.5586 41.7873 16.2724C42.2759 15.9243 42.642 15.8076 43.0696 15.6095Z" fill="#0758A4"/>
<path d="M42.3405 15.0287C42.3539 14.9945 42.3686 14.9622 42.3831 14.9307C41.9623 15.0167 40.9106 15.1422 40.4404 15.2862C39.9711 15.4301 39.1213 15.7743 38.6172 16.7354C38.6172 16.7354 39.3575 16.9643 40.754 16.3065C42.15 15.6494 42.5877 15.5139 42.8545 15.4438C42.6415 15.428 42.4912 15.3561 42.4128 15.3082C41.8561 15.5555 41.1108 15.8499 40.3718 15.8685C40.3718 15.8685 40.7373 15.6104 41.1195 15.4498C41.5356 15.2752 41.993 15.1172 42.3405 15.0287Z" fill="#0758A4"/>
<path d="M42.3754 14.3358C42.5122 14.4003 42.6172 14.4323 42.7954 14.4514C42.6983 14.5135 42.6052 14.5942 42.5229 14.7013C42.0312 14.8432 41.1922 14.9982 39.8085 15.0982C38.4241 15.198 37.6865 14.9432 37.6865 14.9432C38.1691 14.6488 38.9377 14.3491 39.4581 14.249C39.9776 14.1486 41.3428 14.1591 41.9414 14.0781C41.9483 14.0843 42.0215 14.1441 42.1381 14.2152C41.635 14.2603 40.5626 14.3106 40.0087 14.5907C40.0087 14.5907 41.0307 14.7274 42.3754 14.3358Z" fill="#0758A4"/>
<path d="M42.2725 13.5414C42.342 13.4999 42.4265 13.4595 42.529 13.4208C41.8291 13.2086 40.8663 12.8703 39.4202 12.775C38.3579 12.7053 37.5915 12.7662 37.1953 12.8689C37.1953 12.8689 38.1614 13.5502 39.2668 13.7908C40.3721 14.0314 41.2698 13.8785 41.9259 13.884C41.9695 13.8194 42.0179 13.7472 42.0949 13.6743C41.3281 13.6791 40.0511 13.4803 39.5941 13.3285C39.5941 13.3285 40.7074 13.096 42.2725 13.5414Z" fill="#0758A4"/>
<path d="M42.2686 12.717C42.2723 12.7364 42.3537 13.1313 42.8115 13.3504C41.8289 12.9194 39.8903 12.6713 38.849 12.2385C37.4407 11.6538 37.1846 10.9233 37.1846 10.9233C38.4025 10.8913 39.3878 11.1891 40.1467 11.4214C41.0358 11.6942 42.3892 12.1988 42.8633 12.4102C42.6857 12.4175 42.4913 12.4684 42.3273 12.5779C41.6653 12.3241 41.3575 12.2174 40.7567 12.0489C40.2832 11.9164 39.9319 11.8901 39.6363 11.8616C39.6363 11.8616 40.053 12.1374 40.7402 12.3578C41.4209 12.5752 41.7159 12.6115 42.2686 12.717Z" fill="#0758A4"/>
<path d="M42.1941 11.6429C42.234 11.7129 42.3501 11.8798 42.396 11.9462C40.8401 11.6856 39.1298 10.509 38.6013 9.78029C38.0723 9.05099 38.223 7.96191 38.223 7.96191C38.7353 8.06609 39.8505 9.0273 40.1387 9.31563C40.4273 9.60407 41.3002 10.4528 41.9029 10.9272L42.0925 11.4743C41.5752 11.0586 40.9607 10.5936 40.5787 10.3059C40.2843 10.0836 39.8434 9.77012 39.4059 9.61999C39.4059 9.61999 39.8096 10.1461 40.1346 10.4014C40.5102 10.6985 40.8934 10.9566 41.207 11.1293C41.4865 11.2824 41.6292 11.3696 42.1941 11.6429Z" fill="#0758A4"/>
<path d="M46.5819 15.9964C46.6291 15.9561 46.6699 15.915 46.7039 15.877C46.7761 15.9677 47.0155 16.2685 47.1333 16.5669C47.2235 16.8225 47.3184 17.1695 47.3663 17.369C47.4138 17.5674 47.5553 17.9799 47.6411 18.1223C47.6411 18.1223 47.262 18.1698 46.9818 17.8427C46.706 17.5205 46.6123 17.1978 46.5694 16.8652C46.5354 16.6051 46.5464 16.2454 46.5819 15.9964Z" fill="#0758A4"/>
<path d="M45.9836 16.0459C46.0541 16.1401 46.1219 16.1787 46.1284 16.182L46.1789 16.2084L46.2329 16.1913C46.2796 16.1759 46.3231 16.1584 46.364 16.1379C46.4181 16.2911 46.4411 16.3655 46.4551 16.4957C46.4733 16.6686 46.5072 16.9413 46.4421 17.1642C46.3631 17.4356 46.2004 17.6009 46.1107 17.7061C46.1107 17.7061 45.8632 17.4332 45.7921 17.208C45.7178 16.9724 45.6915 16.6983 45.7828 16.4179C45.8324 16.2663 45.9128 16.1259 45.9836 16.0459Z" fill="#0758A4"/>
<path d="M45.1297 16.0727C45.3826 16.0386 45.5753 15.9468 45.7195 15.8408C45.7518 15.93 45.8011 16.0502 45.7646 16.2205C45.7272 16.391 45.6096 16.5798 45.4396 16.7161C45.1844 16.9198 44.8417 17.1124 44.464 17.0533C44.464 17.0533 44.3773 16.7701 45.1297 16.0727Z" fill="#0758A4"/>
<path d="M44.8437 15.5986C44.8742 15.851 44.9949 16.0092 45.0046 16.0214C44.9162 16.127 44.5974 16.6753 43.9317 16.5825C43.9317 16.5825 43.7517 16.2099 44.1947 15.9132C44.4956 15.7124 44.6376 15.6715 44.8437 15.5986Z" fill="#0758A4"/>
<path d="M44.9021 15.1307C44.7248 15.1755 44.4941 15.193 44.2115 15.1262L44.1351 15.1086L44.1127 15.0342C43.7708 15.3132 43.365 15.3592 43.2256 15.6102C43.2256 15.6102 43.3957 15.9265 43.8392 15.8735C44.282 15.8208 44.6152 15.6136 44.8524 15.3162C44.8615 15.2705 44.8806 15.1878 44.9021 15.1307Z" fill="#0758A4"/>
<path d="M44.1339 14.7386C44.1973 14.6454 44.2409 14.5006 44.3733 14.3542C44.0805 14.3041 43.8157 14.3 43.4719 14.3651C43.0633 14.4426 42.6464 14.5389 42.4375 15.1605C42.4375 15.1605 42.7003 15.384 43.1765 15.2869C43.5806 15.2042 43.933 15.03 44.1339 14.7386Z" fill="#0758A4"/>
<path d="M43.9618 14.0637C43.8584 13.9749 43.7649 13.8591 43.6966 13.7087L43.6616 13.6315C43.3081 13.4867 42.9383 13.4127 42.5777 13.5473C42.2166 13.6826 42.1208 13.8387 42.0293 13.9732C42.0293 13.9732 42.4297 14.3082 42.8904 14.3212C43.3516 14.3343 43.7767 14.2019 43.9618 14.0637Z" fill="#0758A4"/>
<path d="M44.0682 13.3371C44.1291 13.3137 44.198 13.2927 44.2756 13.2768C44.1184 13.1388 43.9639 12.9289 43.8891 12.6138C43.7251 12.6526 43.3381 12.6526 43.1683 12.5872C42.999 12.5223 42.664 12.5181 42.4033 12.6916C42.4033 12.6916 42.4904 13.148 43.0813 13.3046C43.6366 13.4514 43.8434 13.4136 44.0682 13.3371Z" fill="#0758A4"/>
<path d="M43.856 12.445L43.9339 12.3955C43.9442 12.3885 44.0767 12.3078 44.3025 12.2903C44.1121 12.1483 43.66 11.7691 43.3383 11.5872C42.9889 11.3908 42.4076 11.1308 42.1123 11.0918C42.1123 11.0918 42.3894 11.82 42.7123 12.113C43.047 12.4176 43.2817 12.5306 43.856 12.445Z" fill="#0758A4"/>
<path d="M44.4522 12.1104C44.3109 11.9261 44.1995 11.6732 44.1171 11.3741C44.0497 11.1305 43.8979 10.5267 43.8066 10.3701C43.7156 10.2132 43.3894 9.6654 42.7508 9.49609C42.7508 9.49609 42.5812 10.2089 42.9023 10.774C43.1793 11.2601 43.7467 11.7736 44.4522 12.1104Z" fill="#0758A4"/>
<path d="M47.9935 15.4284C48.0737 15.5073 48.1334 15.552 48.276 15.6233C48.276 15.6233 48.4801 16.0121 48.2335 16.4813C47.9865 16.9509 47.7783 17.4304 47.6787 17.6958C47.6787 17.6958 47.5457 17.6769 47.3988 16.9416C47.2992 16.4435 47.1733 16.3192 47.042 16.1491C47.1845 16.2218 47.3013 16.2441 47.3106 16.2454L47.4097 16.2621L47.4549 16.1739C47.5425 16.0048 47.5688 15.8415 47.5688 15.7062C47.5688 15.6614 47.5655 15.6198 47.5613 15.5824C47.7903 15.5877 47.9123 15.4721 47.959 15.4126C47.9628 15.4069 47.9671 15.4023 47.9698 15.3975L47.9935 15.4284Z" fill="#0758A4"/>
<path d="M42.5722 9.7951C42.5703 9.86286 42.5687 9.93908 42.5712 10.0195L42.5842 10.1945C42.2079 9.71386 41.7565 9.13342 41.3259 8.5998C41.0305 8.23342 40.7822 8.01191 40.5046 7.83326C40.7382 8.51178 41.1558 9.05297 41.4524 9.32287C41.7479 9.59256 42.1758 10.0491 42.5932 10.3271L42.6339 10.4646C42.6665 10.591 42.7153 10.7194 42.7849 10.8416C42.8823 11.0129 43.0103 11.1822 43.1622 11.3447C43.0405 11.2853 42.901 11.2204 42.7612 11.161L42.6321 11.1074C41.4834 10.4984 40.3438 9.23696 39.8825 8.35762C39.4214 7.4794 39.613 6.46063 39.7356 5.91406C40.2567 6.35617 41.008 7.22693 41.335 7.7008C41.7377 8.2818 42.2526 9.10541 42.5722 9.77495L42.5722 9.7951Z" fill="#0758A4"/>
<path d="M58.6826 13.5414C58.6125 13.4999 58.529 13.4595 58.4258 13.4208C59.126 13.2086 60.0887 12.8703 61.5355 12.775C62.597 12.7053 63.363 12.7662 63.7595 12.8689C63.7595 12.8689 62.7935 13.5502 61.6875 13.7908C60.5828 14.0314 59.685 13.8785 59.029 13.884C58.9854 13.8194 58.9371 13.7472 58.8602 13.6743C59.6269 13.6791 60.9039 13.4803 61.3604 13.3285C61.3604 13.3285 60.2475 13.096 58.6826 13.5414Z" fill="#0758A4"/>
<path d="M58.686 12.717C58.6829 12.7364 58.6013 13.1313 58.1435 13.3504C59.1263 12.9194 61.0648 12.6713 62.1062 12.2385C63.5146 11.6538 63.7707 10.9233 63.7707 10.9233C62.5534 10.8913 61.5667 11.1891 60.8086 11.4214C59.9195 11.6942 58.5653 12.1988 58.0918 12.4102C58.2694 12.4175 58.4637 12.4684 58.6274 12.5779C59.2903 12.3241 59.5977 12.2174 60.1983 12.0489C60.672 11.9164 61.0232 11.8901 61.3188 11.8616C61.3188 11.8616 60.9017 12.1374 60.2148 12.3578C59.5336 12.5752 59.2394 12.6115 58.686 12.717Z" fill="#0758A4"/>
<path d="M58.761 11.6429C58.7211 11.7129 58.6049 11.8798 58.5596 11.9462C60.1156 11.6856 61.8258 10.509 62.3549 9.78029C62.8834 9.05099 62.7328 7.96191 62.7328 7.96191C62.2198 8.06609 61.1052 9.0273 60.8168 9.31563C60.5283 9.60407 59.6555 10.4528 59.0527 10.9272L58.8632 11.4743C59.3805 11.0586 59.9949 10.5936 60.3771 10.3059C60.6713 10.0836 61.1116 9.77012 61.5503 9.61999C61.5503 9.61999 61.1463 10.1461 60.8209 10.4014C60.4449 10.6985 60.0633 10.9566 59.7485 11.1293C59.4698 11.2824 59.326 11.3696 58.761 11.6429Z" fill="#0758A4"/>
<path d="M58.3836 9.7951C58.3852 9.86286 58.3872 9.93908 58.3848 10.0195L58.3714 10.1945C58.748 9.71386 59.1994 9.13342 59.6302 8.5998C59.9255 8.23342 60.1736 8.01191 60.4506 7.83326C60.2177 8.51178 59.8 9.05297 59.5037 9.32287C59.2081 9.59256 58.7802 10.0491 58.3627 10.3271L58.3222 10.4646C58.2896 10.591 58.2405 10.7194 58.1712 10.8416C58.0729 11.0129 57.945 11.1822 57.7939 11.3447C57.9154 11.2853 58.0548 11.2204 58.1948 11.161L58.3239 11.1074C59.4724 10.4984 60.6123 9.23696 61.0735 8.35762C61.534 7.4794 61.3437 6.46063 61.2204 5.91406C60.6987 6.35617 59.9479 7.22693 59.6203 7.7008C59.2178 8.2818 58.7032 9.10541 58.3836 9.77495L58.3836 9.7951Z" fill="#0758A4"/>
<path d="M44.0403 16.7312C43.5664 17.2048 42.5683 18.2667 42.6625 19.4196C42.6625 19.4196 43.5897 19.1295 43.9713 18.4496C44.3527 17.7697 44.589 17.3438 44.7499 17.1902C44.6461 17.2044 44.5434 17.204 44.4433 17.1883L44.3593 17.1744C44.1241 17.6023 43.658 18.3045 43.2383 18.5491C43.2383 18.5491 43.1311 17.9808 44.3645 16.8288C44.3822 16.782 44.407 16.7284 44.4415 16.6689C44.3285 16.709 44.2 16.7332 44.0552 16.7296L44.0403 16.7312Z" fill="#0758A4"/>
<path d="M56.7497 10.3506C56.5136 10.8718 56.1261 11.4056 55.0734 12.1258C54.8374 12.2872 54.5771 12.6227 54.7758 13.0945C54.9743 13.5664 55.3467 14.2367 55.1227 14.4972C54.8993 14.7585 54.1046 14.8947 53.4592 14.6342C53.4592 14.6342 53.3232 15.0437 53.0869 15.3042C53.0869 15.3042 53.1989 15.528 53.5713 15.4164C53.5713 15.4164 53.4346 15.7514 53.6207 16.1114C53.6207 16.1114 54.0552 16.0372 54.2414 15.6392C54.2414 15.6392 54.4151 15.9503 54.7628 16.0613C54.7628 16.0613 55.0485 15.9129 54.9867 15.3418C54.9867 15.3418 55.1978 15.851 55.8429 15.9374C55.8429 15.9374 56.2158 15.4659 55.7316 14.8322C55.7316 14.8322 56.0792 15.1433 56.7125 14.9942C56.7125 14.9942 56.8115 14.6715 56.2406 14.2237C56.2406 14.2237 56.8858 14.1996 57.1345 13.6531C57.1345 13.6531 56.8612 13.3178 56.191 13.3927C56.191 13.3927 56.8115 13.2557 56.9482 12.5108C56.9482 12.5108 56.5016 12.2253 55.7939 12.6844C55.7939 12.6844 55.9177 12.4486 56.2154 12.2129C56.5136 11.9769 56.8736 11.3184 56.7497 10.3506Z" fill="#0758A4"/>
<path d="M54.1512 17.8393C54.245 17.7146 54.3152 17.5906 54.3673 17.4697C54.2571 18.3732 54.2161 18.9824 53.7285 19.5674C53.7285 19.5674 53.4341 19.1754 53.6248 18.2242C53.7066 18.2005 53.7979 18.1622 53.8873 18.1019C53.8873 18.1019 53.7758 18.4879 53.845 18.8775C53.845 18.8775 54.0218 18.7492 54.1512 17.8393Z" fill="#0758A4"/>
<path d="M54.9951 17.745C55.0538 17.6715 55.1658 17.5163 55.2251 17.4053C55.2655 17.9299 55.4033 19.3108 54.9416 19.7426C54.9416 19.7426 54.6237 19.5107 54.5127 17.4972C54.5796 17.6098 54.697 17.7294 54.754 17.7947C54.754 17.7947 54.6773 18.4339 54.9065 18.8843C54.9065 18.8843 55.1363 18.7102 54.9951 17.745Z" fill="#0758A4"/>
<path d="M56.0978 18.8006C55.7085 18.3349 55.592 16.9402 55.592 16.9402C55.538 16.9043 55.4842 16.8649 55.4305 16.8218C55.4083 16.8036 55.3864 16.7851 55.3659 16.7656C55.3663 16.8164 55.3647 16.8688 55.3594 16.9214C55.4159 17.7606 55.4821 18.6258 55.7444 19.0565C56.0009 19.4783 56.4723 19.6975 56.4723 19.6975C56.9152 18.9103 56.3802 17.8532 55.9332 17.1191C55.8771 17.0978 55.8212 17.0724 55.7653 17.0435C55.9224 17.6088 56.2199 18.2808 56.0978 18.8006Z" fill="#0758A4"/>
<path d="M57.1948 16.3792C57.198 16.4699 57.1807 16.5425 57.1688 16.5811C57.164 16.596 57.1588 16.6166 57.1486 16.6374C57.5182 17.0021 57.7939 17.349 58.3433 18.1128C58.8932 18.8769 59.764 18.9072 59.764 18.9072C59.6795 18.2891 59.5115 17.8 59.0463 17.273C58.5802 16.7459 57.984 16.265 57.5462 15.9453C57.4332 15.9977 57.2866 16.0305 57.101 16.0084C57.0866 16.0067 57.0721 16.005 57.0576 16.0028C57.1161 16.0789 57.1518 16.1555 57.1716 16.2274C57.5032 16.4175 58.466 16.906 58.8556 17.6928C58.8556 17.6928 58.2464 17.5019 57.1948 16.3792Z" fill="#0758A4"/>
<path d="M57.8855 15.6095L57.8493 15.5444C57.8374 15.5232 57.8244 15.5035 57.8105 15.4844C58.1673 15.6238 59.4435 16.1049 59.8556 16.3182C60.2678 16.5325 60.8646 17.0189 61.189 18.0048C61.189 18.0048 60.3292 18.0824 59.6187 17.4948C58.9082 16.9062 58.0812 16.0861 57.7275 15.8248C57.7636 15.7917 57.7905 15.76 57.8105 15.7342C57.8105 15.7342 58.7712 16.5856 59.7867 16.9527C59.7867 16.9527 59.5693 16.5586 59.1678 16.2724C58.6791 15.9243 58.3138 15.8076 57.8855 15.6095Z" fill="#0758A4"/>
<path d="M58.6145 15.0287C58.6003 14.9945 58.5859 14.9622 58.5712 14.9307C58.9921 15.0167 60.0443 15.1422 60.5139 15.2862C60.9833 15.4301 61.8332 15.7743 62.3373 16.7354C62.3373 16.7354 61.5975 16.9643 60.2002 16.3065C58.8043 15.6494 58.3679 15.5139 58.1006 15.4438C58.313 15.428 58.4636 15.3561 58.5423 15.3082C59.0993 15.5555 59.8436 15.8499 60.583 15.8685C60.583 15.8685 60.2176 15.6104 59.835 15.4498C59.4195 15.2752 58.9621 15.1172 58.6145 15.0287Z" fill="#0758A4"/>
<path d="M58.5796 14.3358C58.4427 14.4003 58.3373 14.4323 58.1592 14.4514C58.2567 14.5135 58.3492 14.5942 58.4321 14.7013C58.924 14.8432 59.7624 14.9982 61.1461 15.0982C62.5302 15.198 63.2681 14.9432 63.2681 14.9432C62.7862 14.6488 62.0168 14.3491 61.4976 14.249C60.977 14.1486 59.6116 14.1591 59.0131 14.0781C59.0063 14.0843 58.9336 14.1441 58.8164 14.2152C59.3199 14.2603 60.3925 14.3106 60.9458 14.5907C60.9458 14.5907 59.9248 14.7274 58.5796 14.3358Z" fill="#0758A4"/>
<path d="M54.3741 15.9964C54.3262 15.9561 54.2861 15.915 54.2516 15.877C54.1793 15.9677 53.9404 16.2685 53.8227 16.5669C53.7324 16.8225 53.637 17.1695 53.5896 17.369C53.5421 17.5674 53.4002 17.9799 53.3145 18.1223C53.3145 18.1223 53.6941 18.1698 53.9739 17.8427C54.2493 17.5205 54.3437 17.1978 54.3861 16.8652C54.4193 16.6051 54.4097 16.2454 54.3741 15.9964Z" fill="#0758A4"/>
<path d="M54.9707 16.0459C54.9007 16.1401 54.833 16.1787 54.8265 16.182L54.7765 16.2084L54.7221 16.1913C54.675 16.1759 54.6321 16.1584 54.5912 16.1379C54.5372 16.2911 54.5143 16.3655 54.5004 16.4957C54.4819 16.6686 54.4474 16.9413 54.5128 17.1642C54.5922 17.4356 54.7542 17.6009 54.8436 17.7061C54.8436 17.7061 55.0917 17.4332 55.1628 17.208C55.237 16.9724 55.2638 16.6983 55.1719 16.4179C55.1229 16.2663 55.0421 16.1259 54.9707 16.0459Z" fill="#0758A4"/>
<path d="M55.8258 16.0727C55.5725 16.0386 55.3796 15.9468 55.2353 15.8408C55.203 15.93 55.1538 16.0502 55.1912 16.2205C55.2279 16.391 55.3457 16.5798 55.5159 16.7161C55.7705 16.9198 56.1138 17.1124 56.491 17.0533C56.491 17.0533 56.5782 16.7701 55.8258 16.0727Z" fill="#0758A4"/>
<path d="M56.1119 15.5986C56.0819 15.851 55.9602 16.0092 55.9512 16.0214C56.0394 16.127 56.3581 16.6753 57.0236 16.5825C57.0236 16.5825 57.2033 16.2099 56.7606 15.9132C56.4596 15.7124 56.3182 15.6715 56.1119 15.5986Z" fill="#0758A4"/>
<path d="M56.0527 15.1307C56.2304 15.1755 56.4614 15.193 56.7437 15.1262L56.8195 15.1086L56.8428 15.0342C57.184 15.3132 57.5896 15.3592 57.729 15.6102C57.729 15.6102 57.5591 15.9265 57.1163 15.8735C56.6732 15.8208 56.3395 15.6136 56.1028 15.3162C56.0937 15.2705 56.0742 15.1878 56.0527 15.1307Z" fill="#0758A4"/>
<path d="M56.8211 14.7386C56.7569 14.6454 56.7141 14.5006 56.5811 14.3542C56.8744 14.3041 57.1397 14.3 57.4826 14.3651C57.8915 14.4426 58.3086 14.5389 58.517 15.1605C58.517 15.1605 58.2542 15.384 57.7779 15.2869C57.3739 15.2042 57.0217 15.03 56.8211 14.7386Z" fill="#0758A4"/>
<path d="M56.9941 14.0637C57.097 13.9749 57.1906 13.8591 57.259 13.7087L57.2941 13.6315C57.6486 13.4867 58.0177 13.4127 58.3779 13.5473C58.7396 13.6826 58.8347 13.8387 58.9262 13.9732C58.9262 13.9732 58.5263 14.3082 58.0652 14.3212C57.6044 14.3343 57.1788 14.2019 56.9941 14.0637Z" fill="#0758A4"/>
<path d="M56.8857 13.3371C56.8254 13.3137 56.757 13.2927 56.6797 13.2768C56.8368 13.1388 56.9906 12.9289 57.0654 12.6138C57.2303 12.6526 57.617 12.6526 57.7867 12.5872C57.9563 12.5223 58.291 12.5181 58.5513 12.6916C58.5513 12.6916 58.4653 13.148 57.8732 13.3046C57.3177 13.4514 57.1119 13.4136 56.8857 13.3371Z" fill="#0758A4"/>
<path d="M57.0992 12.445L57.0215 12.3955C57.0109 12.3885 56.8785 12.3078 56.6523 12.2903C56.8434 12.1483 57.295 11.7691 57.6173 11.5872C57.9665 11.3908 58.5474 11.1308 58.8432 11.0918C58.8432 11.0918 58.5662 11.82 58.2433 12.113C57.9086 12.4176 57.6739 12.5306 57.0992 12.445Z" fill="#0758A4"/>
<path d="M56.502 12.1104C56.6434 11.9261 56.7556 11.6732 56.8377 11.3741C56.9046 11.1305 57.0575 10.5267 57.1484 10.3701C57.2394 10.2132 57.5655 9.6654 58.2041 9.49609C58.2041 9.49609 58.3737 10.2089 58.0525 10.774C57.7746 11.2601 57.2081 11.7736 56.502 12.1104Z" fill="#0758A4"/>
<path d="M52.9614 15.4284C52.8801 15.5073 52.8208 15.552 52.6789 15.6233C52.6789 15.6233 52.4749 16.0121 52.7214 16.4813C52.9677 16.9509 53.1767 17.4304 53.2761 17.6958C53.2761 17.6958 53.4086 17.6769 53.5555 16.9416C53.6556 16.4435 53.7814 16.3192 53.9127 16.1491C53.7701 16.2218 53.6534 16.2441 53.6437 16.2454L53.5451 16.2621L53.4994 16.1739C53.4118 16.0048 53.386 15.8415 53.386 15.7062C53.386 15.6614 53.3891 15.6198 53.3935 15.5824C53.1641 15.5877 53.0424 15.4721 52.9951 15.4126C52.991 15.4069 52.9877 15.4023 52.9845 15.3975L52.9614 15.4284Z" fill="#0758A4"/>
<path d="M56.9149 16.7312C57.3881 17.2048 58.3863 18.2667 58.2921 19.4196C58.2921 19.4196 57.3649 19.1295 56.9834 18.4496C56.6018 17.7697 56.3659 17.3438 56.2051 17.1902C56.3084 17.2044 56.4107 17.204 56.5119 17.1883L56.596 17.1744C56.8311 17.6023 57.297 18.3045 57.7167 18.5491C57.7167 18.5491 57.8233 17.9808 56.5904 16.8288C56.5727 16.782 56.5475 16.7284 56.5136 16.6689C56.6259 16.709 56.7544 16.7332 56.8994 16.7296L56.9149 16.7312Z" fill="#0758A4"/>
<path d="M49.7529 7.5399C49.7529 7.45511 50.0774 7.38574 50.4771 7.38574C50.8773 7.38574 51.2012 7.45511 51.2012 7.5399C51.2012 7.62518 50.8773 7.69374 50.4771 7.69374C50.0774 7.69374 49.7529 7.62518 49.7529 7.5399Z" fill="#0758A4"/>
<path d="M47.2949 8.37334C47.2949 8.32647 47.5038 8.28906 47.7622 8.28906C48.0193 8.28906 48.2281 8.32647 48.2281 8.37334C48.2281 8.41984 48.0193 8.45753 47.7622 8.45753C47.5038 8.45753 47.2949 8.41984 47.2949 8.37334Z" fill="#0758A4"/>
<path d="M50.6191 7.87954C50.6191 7.95839 50.5558 8.02191 50.4769 8.02191C50.398 8.02191 50.334 7.95839 50.334 7.87954C50.334 7.80101 50.398 7.7373 50.4769 7.7373C50.5558 7.7373 50.6191 7.80101 50.6191 7.87954Z" fill="#0758A4"/>
<path d="M49.7015 7.3895C49.4604 6.81441 49.2994 6.39128 49.3059 6.24893C49.3102 6.16222 49.4124 6.099 49.5083 6.06968C49.604 6.03984 49.6897 6.0345 49.7537 6.08289C49.8789 6.17896 49.9959 6.95448 50.0388 7.27679C49.9163 7.30076 49.8434 7.3158 49.7015 7.3895Z" fill="#0758A4"/>
<path d="M50.141 7.26429C50.2019 7.25803 50.2649 7.254 50.3285 7.252C50.2901 6.94429 50.1837 6.43091 50.1207 6.22828C50.0581 6.02623 49.978 5.88065 49.8457 5.84375C49.8457 5.84375 49.9484 6.12554 50.0046 6.4173C50.0608 6.70898 50.1046 6.98773 50.141 7.26429Z" fill="#0758A4"/>
<path d="M49.3788 8.29285C49.644 8.22963 49.9159 7.94553 49.9159 7.94553C49.4879 8.00772 49.3788 8.29285 49.3788 8.29285ZM49.7765 8.26664C49.4067 8.4829 48.9912 8.44891 48.9912 8.44891C49.0709 8.30293 49.1468 8.16721 49.3788 8.00117C49.6107 7.83542 49.9884 7.79378 50.137 7.81447C50.1036 7.92555 49.9517 8.16379 49.7765 8.26664Z" fill="#0758A4"/>
<path d="M48.3938 8.87637V8.84621C48.0289 8.8928 47.5985 8.87285 47.5985 8.87285C47.6215 9.00874 47.6781 9.11189 47.774 9.17479C47.7976 8.87971 48.3938 8.87637 48.3938 8.87637ZM47.1846 8.4851C47.1846 8.4851 47.6447 8.6574 48.1057 8.63439C48.5661 8.61113 49.4146 8.60132 49.6891 8.46875C49.6891 8.46875 49.6434 8.64105 49.4245 8.74075C49.4245 8.74075 49.5408 8.74075 49.6532 8.83998C49.6532 8.83998 49.5869 8.98234 49.3916 9.05855C49.3916 9.05855 49.7425 9.4231 50.1172 9.39681C50.1172 9.39681 49.9443 9.61204 49.5602 9.52887C49.1764 9.4466 49.0533 9.23106 48.9869 9.14817C48.9869 9.14817 49.0369 9.35346 49.0133 9.43662C49.0133 9.43662 48.8444 9.42633 48.712 9.26058C48.712 9.26058 48.8084 9.42633 48.8276 9.56577C48.8276 9.56577 48.7223 9.57897 48.5326 9.46646C48.5326 9.46646 48.5725 9.569 48.5795 9.68817C48.5795 9.68817 48.1351 9.54562 47.9196 9.34377C47.9196 9.34377 47.9165 9.48241 47.9267 9.56254C47.9267 9.56254 47.2373 9.49278 47.1846 8.4851Z" fill="#0758A4"/>
<path d="M47.0789 8.55515C47.0949 8.77372 47.1516 8.98918 47.2281 9.14153C47.2281 9.14153 46.9562 8.93656 46.8899 8.76426C46.8232 8.59136 46.8072 8.47259 47.0789 8.55515Z" fill="#0758A4"/>
<path d="M46.5348 9.38363C46.5974 9.38363 46.6478 9.33353 46.6478 9.27143C46.6478 9.20902 46.5974 9.1584 46.5348 9.1584C46.473 9.1584 46.4224 9.20902 46.4224 9.27143C46.4224 9.33353 46.473 9.38363 46.5348 9.38363ZM47.1986 9.25146C47.3804 9.33413 47.5424 9.52941 47.5424 9.52941C47.2673 9.59274 47.1447 9.67199 47.1447 9.67199C46.6179 9.30098 46.1841 9.6755 46.1841 9.6755C45.8994 9.51309 45.8429 9.11879 45.9855 8.91009C46.128 8.7012 46.4493 8.73798 46.6016 8.77388C46.6978 9.07927 47.0356 9.17778 47.1986 9.25146Z" fill="#0758A4"/>
<path d="M47.6022 9.59961C47.6022 9.59961 47.7948 9.85499 47.9338 9.96742C47.9338 9.96742 47.2245 9.96105 47.0457 10.5743C47.0457 10.5743 46.8004 10.1994 46.9795 9.9543C47.1729 9.68955 47.3503 9.65637 47.6022 9.59961Z" fill="#0758A4"/>
<path d="M48.3809 9.75178C48.3809 9.75178 48.6097 9.81831 48.6855 9.83797C48.6855 9.83797 48.6893 9.70548 48.6828 9.64258C48.7527 9.65893 48.8378 9.68242 48.9114 9.68856C48.9114 9.68856 49.1398 10.199 49.3188 10.4043C49.3188 10.4043 49.3287 10.5171 49.2294 10.6893C49.2294 10.6893 49.0998 10.3879 48.868 10.1464C48.7367 10.0094 48.6527 9.9404 48.3809 9.75178Z" fill="#0758A4"/>
<path d="M47.7773 9.64258C47.8509 9.66244 48.2162 9.77707 48.3938 9.90442C48.6158 10.0632 48.7684 10.2453 48.7448 10.5598C48.7448 10.5598 48.5661 10.3118 48.3674 10.199C48.2104 10.1099 47.9268 9.86107 47.7773 9.64258Z" fill="#0758A4"/>
<path d="M47.783 7.33496C47.8509 7.33496 47.9816 7.36691 47.9816 7.475C47.9816 7.58428 47.8121 7.84672 47.7664 7.96398H47.7627C47.7167 7.84672 47.5469 7.58428 47.5469 7.475C47.5469 7.36691 47.6787 7.33496 47.746 7.33496L47.783 7.33496Z" fill="#0758A4"/>
<path d="M47.6354 8.18201C47.6031 8.02885 47.5428 7.63133 47.4482 7.54342C47.3581 7.45974 47.2264 7.45168 47.1606 7.45599C47.0945 7.45974 47.0243 7.52838 47.0521 7.61761C47.0795 7.70723 47.3731 8.14771 47.4115 8.20299C47.4798 8.19158 47.4662 8.19541 47.6354 8.18201Z" fill="#0758A4"/>
<path d="M47.8945 8.18201C47.9274 8.02885 47.9877 7.63133 48.0821 7.54342C48.1712 7.45974 48.3042 7.45168 48.3691 7.45599C48.4358 7.45974 48.506 7.52838 48.4778 7.61761C48.4506 7.70723 48.1567 8.14771 48.1184 8.20299C48.0497 8.19158 48.0635 8.19541 47.8945 8.18201Z" fill="#0758A4"/>
<path d="M48.0838 6.80002H47.855V6.54688H47.6699V6.80002H47.4404V6.95952H47.6699V7.25785H47.855V6.95952H48.0838V6.80002Z" fill="#0758A4"/>
<path d="M45.3092 8.43263C45.3098 8.38422 45.3131 8.33543 45.3194 8.28705C45.3373 8.16413 45.3383 8.05859 45.3249 7.97168C45.1609 8.03438 45.0489 8.07471 44.8223 8.4408C44.8223 8.4408 45.1839 8.21769 45.3092 8.43263Z" fill="#0758A4"/>
<path d="M45.6255 9.0138C45.6298 8.92257 45.6895 8.63573 45.7647 8.43279C45.8575 8.18498 45.8047 7.82383 45.6932 7.60535C45.5858 7.39415 45.5265 7.19554 45.5457 6.97656C45.5457 6.97656 45.3311 7.04833 45.2079 7.12426C45.1879 7.37832 45.3358 7.63167 45.4069 7.77645C45.4904 7.94735 45.4731 8.16924 45.4544 8.30556C45.423 8.53613 45.4703 8.78294 45.6255 9.0138Z" fill="#0758A4"/>
<path d="M45.65 7.07207C45.6418 7.04403 45.6418 6.9639 45.6574 6.93184C45.6574 6.93184 45.9944 6.60335 46.2785 6.54711C46.4576 6.51129 46.5687 6.59066 46.6207 6.63482C46.6207 6.63482 46.5206 6.62273 46.37 6.74594C46.2188 6.86914 46.031 7.01743 45.8882 7.05484C45.7478 7.09173 45.7176 7.08033 45.65 7.07207Z" fill="#0758A4"/>
<path d="M46.648 6.65918C46.7757 6.78641 46.8821 6.9203 46.8802 7.03645C46.8778 7.15734 46.7379 7.45919 46.6647 7.57493C46.591 7.69087 46.4837 7.8408 46.4963 8.02459C46.5028 8.11632 46.5662 8.21049 46.6416 8.28771C46.6416 8.28771 46.229 8.18971 46.1784 7.93465C46.1336 7.7065 46.2309 7.5464 46.2972 7.41997C46.3591 7.30152 46.5495 7.02436 46.5976 6.90873C46.6411 6.80427 46.6643 6.71685 46.648 6.65918Z" fill="#0758A4"/>
<path d="M49.0625 9.53418C49.1454 9.82565 49.2854 10.0998 49.4236 10.3158C49.5479 10.5112 49.6271 10.8314 49.6153 10.9398C49.6153 10.9398 49.8019 10.5279 49.706 10.2368C49.6324 10.0118 49.4315 9.67601 49.0625 9.53418Z" fill="#0758A4"/>
<path d="M49.5273 9.62988C49.5273 9.62988 49.8098 9.63371 49.9428 9.72122C50.1135 9.83394 50.2753 10.0791 50.3372 10.3737C50.3372 10.3737 50.0509 10.3242 49.9096 10.183C49.7685 10.0414 49.5941 9.82971 49.5273 9.62988Z" fill="#0758A4"/>
<path d="M48.0598 10.1416C48.0055 10.1462 47.8601 10.1793 47.7891 10.2003C47.7891 10.2003 48.0309 10.2708 48.1512 10.3704C48.2536 10.4547 48.3423 10.5861 48.3838 10.8068C48.4425 11.1143 48.6237 11.447 48.6782 11.5467L48.7001 11.5422C48.6663 11.3304 48.7993 10.8902 48.8327 10.8276C48.8327 10.8276 48.6421 10.707 48.5543 10.5821C48.4896 10.4903 48.3757 10.3373 48.0598 10.1416Z" fill="#0758A4"/>
<path d="M49.3159 10.8027C49.3862 10.9647 49.5733 11.2513 49.4858 11.5505C49.3981 11.8501 49.2035 11.9786 49.0823 12.2321C49.0823 12.2321 48.9864 11.7748 49.0081 11.4216C49.0286 11.0685 49.1577 10.9316 49.3159 10.8027Z" fill="#0758A4"/>
<path d="M49.8596 10.8154C49.8596 10.8154 50.1409 11.3615 50.1922 11.5762C50.2417 11.7876 50.1961 11.9292 50.1002 12.0578C50.0045 12.1867 49.8428 12.3245 49.6934 12.5943C49.6934 12.5943 49.5195 12.3657 49.4975 12.2451C49.4769 12.1246 49.5102 11.8377 49.548 11.7171C49.5851 11.5969 49.7345 11.2102 49.8596 10.8154Z" fill="#0758A4"/>
<path d="M50.0048 12.5596C49.9422 12.6263 49.6133 13.0216 49.5689 13.1373C49.5247 13.253 49.4487 13.471 49.5509 13.6219C49.6539 13.7729 49.8875 14.0156 50.0928 14.1181C50.0928 14.1181 49.8707 13.7708 49.8933 13.486C49.9077 13.3041 50.0482 13.1419 50.0753 13.0305C50.1021 12.9199 50.0844 12.7329 50.0048 12.5596Z" fill="#0758A4"/>
<path d="M49.36 12.3398C49.4106 12.41 49.499 12.5801 49.5106 12.7463C49.5225 12.9092 49.4963 13.041 49.4069 13.281C49.2944 13.5829 49.1196 13.9196 49.0389 14.0705C49.0389 14.0705 48.8837 13.8496 48.7988 13.6524C48.7988 13.6524 49.0408 13.3219 49.1432 13.0873C49.2628 12.8121 49.3133 12.5567 49.36 12.3398Z" fill="#0758A4"/>
<path d="M49.2472 12.2129C49.2472 12.2129 49.1432 12.9902 48.6858 13.568C48.3764 13.959 48.1245 14.0947 47.9582 14.0947C47.7069 14.0947 47.4547 13.8853 47.3694 13.6458C47.2845 13.406 47.3113 13.0342 47.4739 12.9023C47.4739 12.9023 47.6252 13.3689 47.9464 13.3858C48.3102 13.406 48.7792 12.999 49.2472 12.2129Z" fill="#0758A4"/>
<path d="M48.8727 11.8877C48.9113 12.0268 48.9227 12.2402 48.8727 12.4415C48.8339 12.5938 48.7412 12.7943 48.5625 12.906C48.4082 13.0023 48.0437 13.026 47.9043 12.6812C47.9043 12.6812 48.57 12.7316 48.8727 11.8877Z" fill="#0758A4"/>
<path d="M49.9621 15.0234C50.0532 15.257 50.3794 15.5526 50.3776 15.7351C50.3717 16.2189 50.1608 16.5154 50.1104 16.6749C50.1104 16.6749 49.7228 16.3673 49.6539 16.014C49.6193 15.8339 49.6598 15.2911 49.9621 15.0234Z" fill="#0758A4"/>
<path d="M49.5291 15.3648C49.5748 15.2397 49.7169 14.8979 49.8815 14.7784C49.8815 14.7784 50.0931 14.1573 49.4151 13.7764C49.4151 13.7764 49.1363 14.1463 49.0626 14.4937C48.9878 14.8411 49.358 15.0516 49.5291 15.3648Z" fill="#0758A4"/>
<path d="M48.6809 13.7988C48.572 13.9293 48.4183 14.1118 48.2987 14.1685C48.2987 14.1685 48.2587 14.4459 48.2814 14.6298C48.3158 14.9031 48.4919 15.1824 48.5667 15.3875C48.5667 15.3875 48.8627 15.0003 48.8972 14.7724C48.9309 14.5444 48.9251 14.3567 48.9369 14.2485C48.9369 14.2485 48.7716 13.9804 48.6809 13.7988Z" fill="#0758A4"/>
<path d="M47.9 15.127C47.8161 14.9998 47.5438 14.5297 47.54 14.1885C47.54 14.1885 47.8747 14.3659 48.1545 14.2361C48.1545 14.2361 48.1917 14.6796 48.1374 14.8299C48.0939 14.9518 48.0356 15.0247 47.9 15.127Z" fill="#0758A4"/>
<path d="M47.9766 15.2223C48.0309 15.1751 48.1642 15.0521 48.2187 14.9873C48.2187 14.9873 48.4402 15.3936 48.478 15.5128C48.478 15.5128 48.3672 15.5411 48.2455 15.4526C48.1238 15.3637 48.0958 15.3414 47.9766 15.2223Z" fill="#0758A4"/>
<path d="M49.0044 14.9834C48.9771 15.0863 48.6185 15.5841 48.5566 15.6455C48.5566 15.6455 48.5846 15.8262 48.7175 16.0856C48.8504 16.3449 49.0349 16.526 49.1333 16.6182C49.1333 16.6182 49.3545 16.2321 49.4205 16.0619C49.4951 15.8674 49.4866 15.6757 49.4541 15.6048C49.3793 15.4374 49.1196 15.1951 49.0044 14.9834Z" fill="#0758A4"/>
<path d="M49.5428 16.2871C49.6213 16.4476 49.861 16.7103 49.898 16.9178C49.9269 17.0815 49.9011 17.2148 49.857 17.3276C49.8126 17.44 49.6694 17.6588 49.5734 17.826C49.5734 17.826 49.2464 17.5176 49.1742 17.2967C49.1194 17.1301 49.1403 16.8939 49.2188 16.7475C49.297 16.6008 49.4682 16.4401 49.5428 16.2871Z" fill="#0758A4"/>
<path d="M48.6151 16.2432C48.7007 16.4277 48.9026 16.6128 48.9494 16.7754C49.0038 16.9665 49.0209 17.089 48.9296 17.3113C48.8472 17.5078 48.7476 17.6217 48.7137 17.741C48.7137 17.741 48.4474 17.397 48.4038 17.2535C48.3591 17.1099 48.3451 16.8744 48.3999 16.7246C48.4548 16.5741 48.5501 16.3792 48.6151 16.2432Z" fill="#0758A4"/>
<path d="M49.9245 17.5537C49.9245 17.5537 49.4671 18.1066 49.4777 18.3996C49.4913 18.765 49.7335 19.0073 49.768 19.2327C49.768 19.2327 50.0074 18.9612 50.0988 18.7791C50.2012 18.5739 50.2797 18.4 50.2528 18.168C50.225 17.9361 50.1634 17.7862 49.9245 17.5537Z" fill="#0758A4"/>
<path d="M49.0825 17.499C49.1546 17.6049 49.3593 17.9662 49.3011 18.1815C49.2434 18.3965 49.018 18.6998 48.9432 18.8297C48.9432 18.8297 48.7618 18.4577 48.7209 18.2872C48.6806 18.1167 48.7177 17.8404 49.0825 17.499Z" fill="#0758A4"/>
<path d="M53.6585 8.37334C53.6585 8.32647 53.4503 8.28906 53.1925 8.28906C52.9353 8.28906 52.7266 8.32647 52.7266 8.37334C52.7266 8.41984 52.9353 8.45753 53.1925 8.45753C53.4503 8.45753 53.6585 8.41984 53.6585 8.37334Z" fill="#0758A4"/>
<path d="M50.4816 6.94166C50.5117 6.73295 50.7539 6.28844 50.7539 6.09356C50.7539 5.94073 50.6303 5.81641 50.4772 5.81641C50.3241 5.81641 50.2002 5.94073 50.2002 6.09356C50.2002 6.28844 50.4427 6.73295 50.4722 6.94166H50.4816Z" fill="#0758A4"/>
<path d="M51.2536 7.3895C51.4951 6.81441 51.6554 6.39128 51.6491 6.24893C51.6445 6.16222 51.543 6.099 51.4467 6.06968C51.3502 6.03984 51.2648 6.0345 51.2017 6.08289C51.0759 6.17896 50.9595 6.95448 50.916 7.27679C51.0387 7.30076 51.1125 7.3158 51.2536 7.3895Z" fill="#0758A4"/>
<path d="M50.8138 7.26429C50.7524 7.25803 50.6896 7.254 50.627 7.252C50.6648 6.94429 50.7706 6.43091 50.8336 6.22828C50.8967 6.02623 50.9763 5.88065 51.1086 5.84375C51.1086 5.84375 51.0059 6.12554 50.9495 6.4173C50.8935 6.70898 50.8504 6.98773 50.8138 7.26429Z" fill="#0758A4"/>
<path d="M51.0392 7.94553C51.0392 7.94553 51.3105 8.22963 51.5763 8.29285C51.5763 8.29285 51.4662 8.00772 51.0392 7.94553ZM50.8174 7.81447C50.9659 7.79378 51.3441 7.83542 51.5763 8.00118C51.8082 8.16721 51.8838 8.30293 51.9636 8.44891C51.9636 8.44891 51.5477 8.4829 51.1779 8.26664C51.0031 8.16379 50.8512 7.92555 50.8174 7.81447Z" fill="#0758A4"/>
<path d="M53.1801 9.17479C53.2764 9.11189 53.3324 9.00874 53.355 8.87285C53.355 8.87285 52.925 8.8928 52.5606 8.84621V8.87637C52.5606 8.87637 53.1569 8.87971 53.1801 9.17479ZM53.0273 9.56254C53.038 9.48241 53.0345 9.34377 53.0345 9.34377C52.819 9.54562 52.3746 9.68817 52.3746 9.68817C52.3813 9.569 52.4213 9.46646 52.4213 9.46646C52.2324 9.57897 52.1259 9.56577 52.1259 9.56577C52.1457 9.42633 52.242 9.26058 52.242 9.26058C52.1098 9.42633 51.9408 9.43662 51.9408 9.43662C51.9175 9.35346 51.9672 9.14818 51.9672 9.14818C51.901 9.23106 51.7782 9.4466 51.3939 9.52887C51.009 9.61204 50.8369 9.39681 50.8369 9.39681C51.212 9.4231 51.5629 9.05855 51.5629 9.05855C51.3675 8.98234 51.3008 8.83998 51.3008 8.83998C51.4138 8.74075 51.5296 8.74075 51.5296 8.74075C51.3107 8.64105 51.2648 8.46875 51.2648 8.46875C51.5398 8.60132 52.3881 8.61113 52.8488 8.63439C53.3093 8.6574 53.7698 8.4851 53.7698 8.4851C53.7167 9.49278 53.0273 9.56254 53.0273 9.56254Z" fill="#0758A4"/>
<path d="M53.8756 8.55515C53.8591 8.77372 53.8028 8.98918 53.7266 9.14153C53.7266 9.14153 53.9979 8.93656 54.064 8.76426C54.1308 8.59136 54.1474 8.47259 53.8756 8.55515Z" fill="#0758A4"/>
<path d="M54.5325 9.27143C54.5325 9.20902 54.4817 9.1584 54.4193 9.1584C54.3581 9.1584 54.3069 9.20902 54.3069 9.27143C54.3069 9.33353 54.3581 9.38363 54.4193 9.38363C54.4817 9.38363 54.5325 9.33353 54.5325 9.27143ZM54.3532 8.77388C54.5059 8.73798 54.8273 8.7012 54.9693 8.91008C55.112 9.11879 55.0561 9.51309 54.7713 9.6755C54.7713 9.6755 54.3364 9.30098 53.8102 9.67199C53.8102 9.67199 53.6869 9.59274 53.4121 9.52941C53.4121 9.52941 53.5743 9.33413 53.7569 9.25146C53.9193 9.17778 54.2567 9.07927 54.3532 8.77388Z" fill="#0758A4"/>
<path d="M53.3527 9.59961C53.3527 9.59961 53.1605 9.85499 53.0215 9.96742C53.0215 9.96742 53.7303 9.96105 53.9095 10.5743C53.9095 10.5743 54.1545 10.1994 53.9753 9.9543C53.7826 9.68955 53.6043 9.65637 53.3527 9.59961Z" fill="#0758A4"/>
<path d="M52.5735 9.75178C52.5735 9.75178 52.3448 9.81831 52.269 9.83797C52.269 9.83797 52.2652 9.70548 52.2721 9.64258C52.2024 9.65893 52.1161 9.68242 52.0434 9.68856C52.0434 9.68856 51.8149 10.199 51.636 10.4043C51.636 10.4043 51.6258 10.5171 51.7255 10.6893C51.7255 10.6893 51.8544 10.3879 52.0866 10.1464C52.2178 10.0094 52.3018 9.9404 52.5735 9.75178Z" fill="#0758A4"/>
<path d="M53.1767 9.64258C53.1033 9.66244 52.7373 9.77707 52.5602 9.90442C52.338 10.0632 52.1852 10.2453 52.2084 10.5598C52.2084 10.5598 52.3881 10.3118 52.586 10.199C52.7438 10.1099 53.0269 9.86107 53.1767 9.64258Z" fill="#0758A4"/>
<path d="M53.172 7.33496C53.104 7.33496 52.9727 7.36691 52.9727 7.475C52.9727 7.58428 53.143 7.84672 53.1881 7.96398H53.1922C53.2375 7.84672 53.4077 7.58428 53.4077 7.475C53.4077 7.36691 53.2763 7.33496 53.208 7.33496L53.172 7.33496Z" fill="#0758A4"/>
<path d="M53.3203 8.18201C53.3522 8.02885 53.4125 7.63133 53.5076 7.54342C53.597 7.45974 53.7288 7.45168 53.7951 7.45599C53.8612 7.45974 53.9313 7.52838 53.9038 7.61761C53.8761 7.70723 53.5817 8.14771 53.5437 8.20299C53.4755 8.19158 53.489 8.19541 53.3203 8.18201Z" fill="#0758A4"/>
<path d="M53.0599 8.18201C53.0282 8.02885 52.9679 7.63133 52.873 7.54342C52.7832 7.45974 52.6513 7.45168 52.5851 7.45599C52.5195 7.45974 52.4491 7.52838 52.477 7.61761C52.5044 7.70723 52.7978 8.14771 52.8366 8.20299C52.9053 8.19158 52.8915 8.19541 53.0599 8.18201Z" fill="#0758A4"/>
<path d="M52.8711 6.80002H53.0995V6.54688H53.2843V6.80002H53.514V6.95952H53.2843V7.25785H53.0995V6.95952H52.8711V6.80002Z" fill="#0758A4"/>
<path d="M50.1221 5.30258H50.3502V5.04883H50.5353V5.30258H50.7652V5.46219H50.5353V5.75981H50.3502V5.46219H50.1221V5.30258Z" fill="#0758A4"/>
<path d="M55.6456 8.43263C55.6456 8.38422 55.6419 8.33543 55.6353 8.28705C55.6183 8.16413 55.6165 8.05859 55.6301 7.97168C55.7948 8.03438 55.9062 8.07471 56.1326 8.4408C56.1326 8.4408 55.7715 8.21769 55.6456 8.43263Z" fill="#0758A4"/>
<path d="M55.3291 9.0138C55.3247 8.92257 55.2651 8.63573 55.1902 8.43279C55.0977 8.18498 55.1499 7.82383 55.2613 7.60535C55.3689 7.39415 55.4288 7.19554 55.4088 6.97656C55.4088 6.97656 55.6235 7.04833 55.7466 7.12426C55.7668 7.37832 55.6185 7.63167 55.5481 7.77645C55.4642 7.94735 55.4815 8.16924 55.5003 8.30556C55.5319 8.53613 55.484 8.78294 55.3291 9.0138Z" fill="#0758A4"/>
<path d="M55.3057 7.07207C55.314 7.04403 55.3134 6.9639 55.2979 6.93184C55.2979 6.93184 54.9609 6.60335 54.6774 6.54711C54.498 6.51129 54.3868 6.59066 54.335 6.63482C54.335 6.63482 54.4346 6.62273 54.5853 6.74594C54.7368 6.86914 54.9237 7.01743 55.0669 7.05484C55.2074 7.09173 55.2386 7.08033 55.3057 7.07207Z" fill="#0758A4"/>
<path d="M54.3057 6.65918C54.1786 6.78641 54.072 6.9203 54.0743 7.03645C54.077 7.15734 54.2158 7.45919 54.2901 7.57493C54.3639 7.69087 54.4711 7.8408 54.4581 8.02459C54.4509 8.11632 54.3881 8.21049 54.3131 8.28771C54.3131 8.28771 54.726 8.18971 54.7767 7.93465C54.8211 7.7065 54.7238 7.5464 54.6577 7.41997C54.5953 7.30152 54.4052 7.02436 54.3575 6.90873C54.3139 6.80427 54.2906 6.71685 54.3057 6.65918Z" fill="#0758A4"/>
<path d="M51.8931 9.53418C51.8102 9.82565 51.6693 10.0998 51.5316 10.3158C51.4066 10.5112 51.3274 10.8314 51.3404 10.9398C51.3404 10.9398 51.1533 10.5279 51.2489 10.2368C51.3227 10.0118 51.5223 9.67601 51.8931 9.53418Z" fill="#0758A4"/>
<path d="M51.4271 9.62988C51.4271 9.62988 51.1445 9.63371 51.0116 9.72122C50.8417 9.83394 50.6792 10.0791 50.6172 10.3737C50.6172 10.3737 50.9041 10.3242 51.0451 10.183C51.1861 10.0414 51.3611 9.82971 51.4271 9.62988Z" fill="#0758A4"/>
<path d="M52.8954 10.1416C52.9493 10.1462 53.0944 10.1793 53.1649 10.2003C53.1649 10.2003 52.9239 10.2708 52.804 10.3704C52.7012 10.4547 52.6127 10.5861 52.5716 10.8068C52.5127 11.1143 52.3309 11.447 52.2766 11.5467L52.2549 11.5422C52.2884 11.3304 52.1553 10.8902 52.1221 10.8276C52.1221 10.8276 52.3136 10.707 52.4009 10.5821C52.4648 10.4903 52.5795 10.3373 52.8954 10.1416Z" fill="#0758A4"/>
<path d="M51.6396 10.8027C51.5688 10.9647 51.3822 11.2513 51.4688 11.5505C51.5561 11.8501 51.7518 11.9786 51.8723 12.2321C51.8723 12.2321 51.9681 11.7748 51.9471 11.4216C51.9262 11.0685 51.7975 10.9316 51.6396 10.8027Z" fill="#0758A4"/>
<path d="M50.4816 11.6407C50.4934 11.4664 50.8997 11.0438 50.8794 10.8154C50.8583 10.5868 50.5542 10.4247 50.4794 10.3916H50.4757C50.4009 10.4247 50.0968 10.5868 50.076 10.8154C50.0553 11.0438 50.4611 11.4664 50.4735 11.6407H50.4816Z" fill="#0758A4"/>
<path d="M51.0948 10.8154C51.0948 10.8154 50.8132 11.3615 50.7622 11.5762C50.7132 11.7876 50.7582 11.9292 50.8542 12.0578C50.9495 12.1867 51.1113 12.3245 51.2616 12.5943C51.2616 12.5943 51.4358 12.3657 51.4569 12.2451C51.4772 12.1246 51.4445 11.8377 51.4067 11.7171C51.3691 11.5969 51.2197 11.2102 51.0948 10.8154Z" fill="#0758A4"/>
<path d="M50.4802 12.9286C50.6095 12.8172 50.7236 12.6528 50.7596 12.5548C50.7951 12.4572 50.8053 12.3135 50.7197 12.2044C50.6174 12.0734 50.4889 11.9279 50.4802 11.8086H50.4739C50.4646 11.9279 50.337 12.0734 50.2348 12.2044C50.1493 12.3135 50.1596 12.4572 50.1954 12.5548C50.2311 12.6528 50.3468 12.8172 50.4755 12.9286H50.4802Z" fill="#0758A4"/>
<path d="M50.9505 12.5596C51.0125 12.6263 51.3412 13.0216 51.3859 13.1373C51.43 13.253 51.5057 13.471 51.403 13.6219C51.3014 13.7729 51.0673 14.0156 50.8623 14.1181C50.8623 14.1181 51.084 13.7708 51.0619 13.486C51.0474 13.3041 50.9063 13.1419 50.8795 13.0305C50.8526 12.9199 50.871 12.7329 50.9505 12.5596Z" fill="#0758A4"/>
<path d="M51.5948 12.3398C51.5442 12.41 51.4558 12.5801 51.444 12.7463C51.4322 12.9092 51.459 13.041 51.549 13.281C51.6611 13.5829 51.8349 13.9196 51.9167 14.0705C51.9167 14.0705 52.0712 13.8496 52.1561 13.6524C52.1561 13.6524 51.9138 13.3219 51.8117 13.0873C51.6915 12.8121 51.6415 12.5567 51.5948 12.3398Z" fill="#0758A4"/>
<path d="M51.707 12.2129C51.707 12.2129 51.8108 12.9902 52.2682 13.568C52.5781 13.959 52.8293 14.0947 52.996 14.0947C53.2477 14.0947 53.4995 13.8853 53.5846 13.6458C53.6696 13.406 53.6427 13.0342 53.4801 12.9023C53.4801 12.9023 53.3289 13.3689 53.0076 13.3858C52.6434 13.406 52.175 12.999 51.707 12.2129Z" fill="#0758A4"/>
<path d="M52.0833 11.8877C52.0447 12.0268 52.0329 12.2402 52.0833 12.4415C52.1216 12.5938 52.2147 12.7943 52.3929 12.906C52.5477 13.0023 52.9115 13.026 53.051 12.6812C53.051 12.6812 52.3854 12.7316 52.0833 11.8877Z" fill="#0758A4"/>
<path d="M50.4776 14.1966C50.5719 14.1518 50.6517 14.1178 50.7602 13.9528C50.8453 13.8229 50.9256 13.5828 50.8798 13.4123C50.8234 13.201 50.7086 13.1159 50.6403 12.9844C50.5834 13.0363 50.5493 13.077 50.4804 13.1174H50.4767C50.4079 13.077 50.3717 13.0363 50.3146 12.9844C50.2464 13.1159 50.1317 13.201 50.0753 13.4123C50.0307 13.5828 50.1104 13.8229 50.1953 13.9528C50.3034 14.1178 50.3831 14.1518 50.4772 14.1966H50.4776Z" fill="#0758A4"/>
<path d="M50.477 15.5071C50.5228 15.3018 50.9533 14.9033 50.9131 14.6869C50.8539 14.3625 50.6449 14.4311 50.4798 14.2939H50.4766C50.3108 14.4311 50.0999 14.3625 50.0406 14.6869C50.0014 14.9033 50.4288 15.3018 50.4751 15.5071H50.477Z" fill="#0758A4"/>
<path d="M50.9942 15.0234C50.9027 15.257 50.576 15.5526 50.5781 15.7351C50.5837 16.2189 50.7946 16.5154 50.8456 16.6749C50.8456 16.6749 51.2326 16.3673 51.301 16.014C51.3357 15.8339 51.2956 15.2911 50.9942 15.0234Z" fill="#0758A4"/>
<path d="M51.4256 15.3648C51.3798 15.2397 51.2376 14.8979 51.073 14.7784C51.073 14.7784 50.8622 14.1573 51.5397 13.7764C51.5397 13.7764 51.8186 14.1463 51.8932 14.4937C51.9671 14.8411 51.5975 15.0516 51.4256 15.3648Z" fill="#0758A4"/>
<path d="M52.2742 13.7988C52.3824 13.9293 52.5362 14.1118 52.6558 14.1685C52.6558 14.1685 52.6955 14.4459 52.6729 14.6298C52.6384 14.9031 52.4626 15.1824 52.3883 15.3875C52.3883 15.3875 52.0918 15.0003 52.0573 14.7724C52.0232 14.5444 52.0293 14.3567 52.0176 14.2485C52.0176 14.2485 52.1827 13.9804 52.2742 13.7988Z" fill="#0758A4"/>
<path d="M53.0555 15.127C53.1387 14.9998 53.4119 14.5297 53.415 14.1885C53.415 14.1885 53.0803 14.3659 52.8004 14.2361C52.8004 14.2361 52.7632 14.6796 52.8181 14.8299C52.8615 14.9518 52.9194 15.0247 53.0555 15.127Z" fill="#0758A4"/>
<path d="M52.9787 15.2223C52.9238 15.1751 52.7903 15.0521 52.736 14.9873C52.736 14.9873 52.5144 15.3936 52.4766 15.5128C52.4766 15.5128 52.5877 15.5411 52.7092 15.4526C52.8307 15.3637 52.8587 15.3414 52.9787 15.2223Z" fill="#0758A4"/>
<path d="M51.9515 14.9834C51.9788 15.0863 52.3376 15.5841 52.3982 15.6455C52.3982 15.6455 52.3713 15.8262 52.2379 16.0856C52.1048 16.3449 51.9209 16.526 51.8218 16.6182C51.8218 16.6182 51.6007 16.2321 51.535 16.0619C51.4603 15.8674 51.4693 15.6757 51.5011 15.6048C51.5759 15.4374 51.8354 15.1951 51.9515 14.9834Z" fill="#0758A4"/>
<path d="M50.4807 17.9319C50.5151 17.7952 50.7218 17.6337 50.8085 17.3969C50.8595 17.2563 50.8576 17.092 50.8014 16.9798C50.7369 16.8502 50.5049 16.53 50.4779 16.4375H50.477C50.4489 16.53 50.2192 16.8502 50.154 16.9798C50.0981 17.092 50.0959 17.2563 50.1475 17.3969C50.2337 17.6337 50.4403 17.7952 50.4744 17.9319H50.4807Z" fill="#0758A4"/>
<path d="M51.4123 16.2871C51.3336 16.4476 51.0945 16.7103 51.0575 16.9178C51.0279 17.0815 51.0543 17.2148 51.0979 17.3276C51.1419 17.44 51.2861 17.6588 51.3816 17.826C51.3816 17.826 51.7087 17.5176 51.7803 17.2967C51.8353 17.1301 51.8154 16.8939 51.7367 16.7475C51.6574 16.6008 51.4875 16.4401 51.4123 16.2871Z" fill="#0758A4"/>
<path d="M52.3404 16.2432C52.2547 16.4277 52.0519 16.6128 52.0057 16.7754C51.9512 16.9665 51.934 17.089 52.0261 17.3113C52.1078 17.5078 52.2069 17.6217 52.2411 17.741C52.2411 17.741 52.5071 17.397 52.5515 17.2535C52.5966 17.1099 52.61 16.8744 52.5556 16.7246C52.5003 16.5741 52.4049 16.3792 52.3404 16.2432Z" fill="#0758A4"/>
<path d="M50.4779 20.5739C50.4948 20.4055 50.8429 19.8847 50.8595 19.3315C50.8681 19.0552 50.6207 18.6221 50.4807 18.458H50.4738C50.3332 18.6221 50.088 19.0552 50.0959 19.3315C50.113 19.8847 50.4598 20.4055 50.477 20.5739H50.4779Z" fill="#0758A4"/>
<path d="M51.0301 17.5537C51.0301 17.5537 51.4881 18.1066 51.4774 18.3996C51.4641 18.765 51.2214 19.0073 51.1868 19.2327C51.1868 19.2327 50.9474 18.9612 50.8557 18.7791C50.7536 18.5739 50.675 18.4 50.703 18.168C50.7299 17.9361 50.7912 17.7862 51.0301 17.5537Z" fill="#0758A4"/>
<path d="M51.872 17.499C51.7999 17.6049 51.5962 17.9662 51.6536 18.1815C51.7117 18.3965 51.9372 18.6998 52.0121 18.8297C52.0121 18.8297 52.193 18.4577 52.234 18.2872C52.2747 18.1167 52.2371 17.8404 51.872 17.499Z" fill="#0758A4"/>
<path d="M50.7908 21.4601C50.8184 21.0305 51.0621 20.7731 51.1045 20.5493C51.1524 20.3039 51.1358 20.0685 50.9448 19.7852C50.7908 20.3138 50.6203 20.6999 50.4874 20.9656C50.4841 20.9722 50.4808 20.9797 50.4775 20.9875C50.474 20.9797 50.4712 20.9722 50.4681 20.9656C50.3345 20.6999 50.1638 20.3138 50.0101 19.7852C49.8197 20.0685 49.8027 20.3039 49.85 20.5493C49.8937 20.7731 50.137 21.0305 50.1638 21.4601C50.1913 21.8903 49.707 22.0548 49.707 22.0548C49.8707 22.1129 50.0564 22.1391 50.3517 21.8594C50.406 21.8083 50.447 21.7525 50.4775 21.6939C50.5084 21.7525 50.5492 21.8083 50.6035 21.8594C50.8985 22.1391 51.0842 22.1129 51.2478 22.0548C51.2478 22.0548 50.7634 21.8903 50.7908 21.4601Z" fill="#0758A4"/>
<path d="M49.2662 18.6016C49.3171 18.7623 49.4681 19.0588 49.4873 19.1499C49.5237 19.3203 49.4749 19.5267 49.164 19.7461C49.164 19.7461 48.9625 19.6058 48.883 19.4201C48.8088 19.2466 48.8523 19.1249 48.9299 19.0352C49.0068 18.9449 49.1892 18.7365 49.2662 18.6016Z" fill="#0758A4"/>
<path d="M49.9197 19.2383C49.9197 19.3247 49.8551 19.8112 49.7169 20.0527C49.5235 20.3918 49.2374 20.6442 48.9882 20.6442C48.7564 20.6442 48.7079 20.5066 48.5928 20.45C48.5928 20.45 48.6514 20.1557 48.9111 20.0779C49.2309 19.9832 49.721 19.5994 49.9197 19.2383Z" fill="#0758A4"/>
<path d="M49.0866 19.858C49.0329 19.8169 48.986 19.7886 48.9215 19.7139C48.9215 19.7139 48.6749 19.8054 48.4721 19.9419C48.2691 20.0782 48.0699 20.3103 47.9629 20.432C47.9629 20.432 48.2672 20.5106 48.4597 20.4231C48.4597 20.4231 48.5302 20.1327 48.7463 20.0031C48.7944 19.9748 48.9457 19.9307 49.0866 19.858Z" fill="#0758A4"/>
<path d="M48.8331 19.6084C48.7862 19.5357 48.6899 19.4008 48.7108 19.1895C48.7108 19.1895 48.284 19.459 48.1555 19.5628C48.0269 19.6669 47.7608 19.942 47.7012 20.0326C47.7012 20.0326 48.0241 19.9625 48.2722 19.8797C48.5445 19.7886 48.7329 19.6669 48.8331 19.6084Z" fill="#0758A4"/>
<path d="M48.1094 20.0713C47.8796 20.1531 47.3615 20.2371 47.1455 20.301C46.9281 20.3651 46.7715 20.477 46.5645 20.7034C46.5645 20.7034 46.8824 20.7916 47.052 20.846C47.052 20.846 47.3225 20.6611 47.6187 20.5478C47.8109 20.4742 47.9051 20.2715 48.1094 20.0713Z" fill="#0758A4"/>
<path d="M47.6282 21.5979C47.6779 21.544 47.7403 21.4804 47.6922 21.3517C47.6577 21.2576 47.4707 21.1544 47.3571 21.0999C47.1718 21.0117 46.6569 20.8738 46.4891 20.8242C46.4891 20.8242 46.4056 20.9223 46.3609 21.0261C46.341 21.066 46.3674 21.1074 46.44 21.12C46.583 21.1446 46.928 21.0804 47.0121 21.1345C47.103 21.1938 47.0713 21.2732 47.0713 21.3517C47.0713 21.3517 47.2285 21.2562 47.3273 21.2777C47.4656 21.3075 47.549 21.3717 47.6282 21.5979Z" fill="#0758A4"/>
<path d="M47.1699 20.8819C47.2069 20.8943 47.4078 20.9558 47.6034 21.0798C47.6034 21.0798 47.6903 21.0459 47.7329 20.9662C47.7743 20.8898 47.9507 20.6296 48.1119 20.5947C48.1119 20.5947 47.9743 20.5814 47.8959 20.5566C47.8959 20.5566 47.7284 20.5999 47.6094 20.6478C47.4906 20.6962 47.3425 20.7693 47.1699 20.8819Z" fill="#0758A4"/>
<path d="M48.4979 20.5537C48.4663 20.5683 48.4145 20.5927 48.2944 20.5977C48.2944 20.5977 47.8409 20.9121 47.7881 21.2246C47.7428 21.493 47.8841 21.6212 47.9516 21.6552C48.0207 21.6895 48.3365 21.8193 48.5421 21.3958C48.5421 21.3958 48.1916 21.5109 48.0965 21.342C48.0012 21.1734 48.1552 20.9281 48.2508 20.8574C48.3758 20.7638 48.6012 20.7004 48.7374 20.7252C48.7374 20.7252 48.6278 20.62 48.4979 20.5537Z" fill="#0758A4"/>
<path d="M45.5318 24.1475C45.587 23.9175 45.6481 23.6749 45.7535 23.4519C45.958 23.0191 46.4602 21.8652 47.5064 21.6613C47.6054 21.6423 47.3937 21.3991 47.2996 21.4111C47.2061 21.4227 47.0192 21.5433 46.9365 21.5979C46.9365 21.5979 46.9365 21.3517 46.9342 21.308C46.931 21.2636 46.8928 21.2475 46.8518 21.2491C46.8121 21.2499 46.5582 21.2475 46.4784 21.3395C46.24 21.6152 45.8373 22.3585 45.6097 22.9114C45.3811 23.464 45.225 23.6325 44.9845 23.5479C44.7439 23.464 44.6003 23.1879 44.1797 23.2722C44.0352 23.3003 43.8737 23.3986 43.7471 23.5428C43.7822 23.6101 43.8263 23.6924 44.0232 23.6924C44.2191 23.6924 44.5931 23.7749 44.8021 23.9206C45.0107 24.0661 45.2302 24.1148 45.5318 24.1475Z" fill="#0758A4"/>
<path d="M49.7104 20.5713C49.7334 20.7489 49.8197 20.9169 49.9153 21.0904C49.9153 21.0904 49.5968 22.5608 48.4444 22.6742C48.4444 22.6742 48.4677 22.3697 48.809 22.1373C49.1507 21.9052 49.6608 21.5452 49.6236 20.9988C49.6236 20.9988 49.5325 21.0175 49.3691 21.2223C49.2049 21.4268 48.8456 22.0189 48.29 22.0235C48.29 22.0235 48.3718 21.7458 48.6177 21.5858C48.8642 21.4268 49.178 21.2223 49.3197 20.976C49.4601 20.7302 49.6108 20.6168 49.7104 20.5713Z" fill="#0758A4"/>
<path d="M49.167 25.9254L49.8679 26.907L50.3989 25.9611L50.2107 25.624C50.0723 25.8733 49.9236 26.1417 49.8387 26.2878C49.7741 26.1967 49.5971 25.9488 49.3655 25.624L49.167 25.9254Z" fill="#0758A4"/>
<path d="M48.9867 25.0951C48.3041 24.1387 47.4597 22.9539 47.3742 22.8343L47.6394 22.6436L46.8027 22.3242L46.8187 23.2339L47.1015 23.0309L48.789 25.3967L48.9867 25.0951Z" fill="#0758A4"/>
<path d="M43.2229 19.7212C43.4295 19.4962 43.7795 19.69 44.1323 20.0153C44.486 20.3396 44.7087 20.6722 44.5021 20.8971C44.3117 21.1044 43.9456 20.928 43.5922 20.6034C43.2391 20.2786 43.0163 19.9456 43.2229 19.7212Z" fill="#0758A4"/>
<path d="M43.7924 23.7164C43.7809 23.7075 43.7703 23.6977 43.7594 23.688C43.5718 23.5234 43.4647 23.2706 43.4647 22.9943C43.4647 22.4627 43.8969 22.0305 44.4284 22.0305C44.9597 22.0305 45.3913 22.4627 45.3913 22.9943C45.3913 23.0664 45.3773 23.1836 45.3773 23.1836C45.4214 23.1011 45.5795 22.7338 45.612 22.667C45.4683 22.148 44.9919 21.7664 44.4284 21.7664C43.9436 21.7664 43.5234 22.0486 43.3243 22.4575C43.4001 21.9716 43.6418 21.5345 43.8135 21.3723C44.0184 21.179 44.3671 21.1172 44.3671 21.1172C44.1389 21.1538 43.837 21.013 43.4997 20.7033C43.1796 20.4089 43.0142 20.1523 43.0045 19.9375C43.0256 20.2409 43.0152 20.4108 42.9303 20.6568C42.8129 20.9934 42.4947 21.6122 42.608 22.3111C42.6714 22.6952 42.9489 23.2666 43.4147 23.7333C43.5131 23.8387 43.5513 23.9932 43.5625 24.0744C43.5625 24.0744 44.2498 24.0744 44.4124 24.0886C44.4124 24.0886 44.5755 24.0744 44.5727 23.9722C44.57 23.8706 44.4796 23.8446 44.3979 23.8446C44.3165 23.8446 43.9753 23.8525 43.7924 23.7164Z" fill="#0758A4"/>
<path d="M47.589 23.9502C47.1477 24.1103 46.7075 24.1944 46.2892 24.2585C46.0175 24.3002 45.7516 24.3144 45.4966 24.3018C45.501 24.344 45.5004 24.4003 45.4756 24.4415C45.4756 24.4415 45.5268 24.501 45.5268 24.5675C45.7861 24.5779 46.0553 24.5623 46.3302 24.5198C46.7866 24.4499 47.2671 24.3568 47.75 24.1746L47.589 23.9502Z" fill="#0758A4"/>
<path d="M48.313 23.9168C48.8984 23.5964 49.4706 23.1033 49.9855 22.3149L50.0781 22.1602C49.9377 22.2224 49.7563 22.1796 49.7563 22.1796C49.7483 22.193 49.725 22.2277 49.7138 22.2472C49.2326 22.9576 48.7009 23.4051 48.1562 23.6974L48.313 23.9168Z" fill="#0758A4"/>
<path d="M44.4507 24.1679C44.3697 24.1546 44.1132 24.1612 43.9586 24.1852C43.7902 24.2118 43.5975 24.2464 43.5778 24.3393C43.5584 24.4277 43.6197 24.5219 43.7048 24.6556C43.758 24.7383 43.8828 24.6912 43.9527 24.6651C44.0228 24.6389 44.4184 24.4267 44.4824 24.3567C44.5464 24.2868 44.5728 24.1881 44.4507 24.1679Z" fill="#0758A4"/>
<path d="M44.8551 24.4292C44.8125 24.402 44.7093 24.3625 44.6016 24.4032C44.4946 24.4438 44.1042 24.6739 44.0781 24.7817C44.0521 24.889 44.105 24.9441 44.1657 24.9679C44.2261 24.9918 44.3002 25.0146 44.3535 25.0197C44.451 25.0276 44.5467 24.9707 44.5961 24.9097C44.6463 24.8483 44.8287 24.6272 44.8551 24.5777C44.8809 24.5284 44.896 24.4553 44.8551 24.4292Z" fill="#0758A4"/>
<path d="M44.9019 24.672C44.846 24.7354 44.6876 24.927 44.6688 24.9583C44.6504 24.9895 44.6781 25.0391 44.7281 25.0339C44.7769 25.0288 45.045 25.001 45.2 24.8953C45.3539 24.79 45.4574 24.5873 45.3512 24.5131C45.2452 24.4384 45.0809 24.4719 44.9019 24.672Z" fill="#0758A4"/>
<path d="M44.988 24.0864C44.9374 24.074 44.735 24.0222 44.6903 24.0894C44.6356 24.1731 44.6748 24.2628 44.8325 24.3389C44.9897 24.4145 45.2872 24.4748 45.3455 24.3932C45.4042 24.3109 45.3228 24.1727 44.988 24.0864Z" fill="#0758A4"/>
<path d="M51.6874 18.6016C51.6362 18.7623 51.4861 19.0588 51.4663 19.1499C51.4301 19.3203 51.4791 19.5267 51.7896 19.7461C51.7896 19.7461 51.9908 19.6058 52.0712 19.4201C52.1454 19.2466 52.1012 19.1249 52.0243 19.0352C51.9466 18.9449 51.7648 18.7365 51.6874 18.6016Z" fill="#0758A4"/>
<path d="M51.0332 19.2383C51.0332 19.3247 51.0978 19.8112 51.2366 20.0527C51.4298 20.3918 51.7151 20.6442 51.9654 20.6442C52.1972 20.6442 52.2456 20.5066 52.3602 20.45C52.3602 20.45 52.3017 20.1557 52.0412 20.0779C51.7226 19.9832 51.2323 19.5994 51.0332 19.2383Z" fill="#0758A4"/>
<path d="M51.8672 19.858C51.9212 19.8169 51.9673 19.7886 52.032 19.7139C52.032 19.7139 52.2789 19.8054 52.4812 19.9419C52.6842 20.0782 52.8832 20.3103 52.9904 20.432C52.9904 20.432 52.6867 20.5106 52.4938 20.4231C52.4938 20.4231 52.4231 20.1327 52.2068 20.0031C52.1595 19.9748 52.0078 19.9307 51.8672 19.858Z" fill="#0758A4"/>
<path d="M52.1211 19.6084C52.168 19.5357 52.2644 19.4008 52.2434 19.1895C52.2434 19.1895 52.6707 19.459 52.7987 19.5628C52.9272 19.6669 53.1937 19.942 53.2535 20.0326C53.2535 20.0326 52.93 19.9625 52.6819 19.8797C52.4091 19.7886 52.2219 19.6669 52.1211 19.6084Z" fill="#0758A4"/>
<path d="M52.8447 20.0713C53.0745 20.1531 53.5918 20.2371 53.8085 20.301C54.0254 20.3651 54.1825 20.477 54.3899 20.7034C54.3899 20.7034 54.0719 20.7916 53.9023 20.846C53.9023 20.846 53.6316 20.6611 53.3356 20.5478C53.1429 20.4742 53.0499 20.2715 52.8447 20.0713Z" fill="#0758A4"/>
<path d="M53.3247 21.5979C53.2759 21.544 53.2135 21.4804 53.2612 21.3517C53.2956 21.2576 53.4831 21.1544 53.5965 21.0999C53.7822 21.0117 54.2971 20.8738 54.4641 20.8242C54.4641 20.8242 54.5481 20.9223 54.5923 21.0261C54.6122 21.066 54.5862 21.1074 54.5137 21.12C54.3704 21.1446 54.0248 21.0804 53.9415 21.1345C53.8507 21.1938 53.8824 21.2732 53.8824 21.3517C53.8824 21.3517 53.7253 21.2562 53.6257 21.2777C53.4879 21.3075 53.404 21.3717 53.3247 21.5979Z" fill="#0758A4"/>
<path d="M53.7835 20.8819C53.7465 20.8943 53.5458 20.9558 53.3493 21.0798C53.3493 21.0798 53.263 21.0459 53.2205 20.9662C53.1791 20.8898 53.0027 20.6296 52.8418 20.5947C52.8418 20.5947 52.9783 20.5814 53.0571 20.5566C53.0571 20.5566 53.2248 20.5999 53.3438 20.6478C53.4628 20.6962 53.6108 20.7693 53.7835 20.8819Z" fill="#0758A4"/>
<path d="M52.4556 20.5537C52.4867 20.5683 52.5383 20.5927 52.6582 20.5977C52.6582 20.5977 53.1121 20.9121 53.1653 21.2246C53.2111 21.493 53.0702 21.6212 53.0016 21.6552C52.9324 21.6895 52.6169 21.8193 52.4113 21.3958C52.4113 21.3958 52.7611 21.5109 52.8569 21.342C52.9526 21.1734 52.7983 20.9281 52.7026 20.8574C52.5777 20.7638 52.3526 20.7004 52.2148 20.7252C52.2148 20.7252 52.3252 20.62 52.4556 20.5537Z" fill="#0758A4"/>
<path d="M55.4215 24.1475C55.3661 23.9175 55.3052 23.6749 55.1996 23.4519C54.9959 23.0191 54.4939 21.8652 53.4477 21.6613C53.3485 21.6423 53.5605 21.3991 53.6537 21.4111C53.7485 21.4227 53.9346 21.5433 54.0174 21.5979C54.0174 21.5979 54.0174 21.3517 54.0198 21.308C54.0223 21.2636 54.0611 21.2475 54.102 21.2491C54.1418 21.2499 54.3958 21.2475 54.4754 21.3395C54.7139 21.6152 55.1164 22.3585 55.3442 22.9114C55.5728 23.464 55.7289 23.6325 55.969 23.5479C56.2101 23.464 56.3541 23.1879 56.7739 23.2722C56.9189 23.3003 57.0796 23.3986 57.2067 23.5428C57.1718 23.6101 57.127 23.6924 56.9311 23.6924C56.7342 23.6924 56.3607 23.7749 56.1514 23.9206C55.9424 24.0661 55.7234 24.1148 55.4215 24.1475Z" fill="#0758A4"/>
<path d="M51.2436 20.5713C51.2216 20.7489 51.1343 20.9169 51.0391 21.0904C51.0391 21.0904 51.3577 22.5608 52.5094 22.6742C52.5094 22.6742 52.4867 22.3697 52.1457 22.1373C51.8039 21.9052 51.2942 21.5452 51.3303 20.9988C51.3303 20.9988 51.4213 21.0175 51.5853 21.2223C51.7496 21.4268 52.1085 22.0189 52.6638 22.0235C52.6638 22.0235 52.582 21.7458 52.3365 21.5858C52.0907 21.4268 51.7763 21.2223 51.6353 20.976C51.4937 20.7302 51.3437 20.6168 51.2436 20.5713Z" fill="#0758A4"/>
<path d="M50.4791 21.9961C50.5458 22.1924 50.9821 22.807 51.1728 22.9822C51.3638 23.1578 51.8287 23.6224 52.0762 23.8551C52.0762 23.8551 51.3691 23.6795 50.972 23.3183C50.972 23.3183 50.6884 23.4836 50.4822 23.4836H50.471C50.2648 23.4836 49.9818 23.3183 49.9818 23.3183C49.5841 23.6795 48.877 23.8551 48.877 23.8551C49.1251 23.6224 49.5895 23.1578 49.7806 22.9822C49.9716 22.807 50.408 22.1924 50.4753 21.9961H50.4791Z" fill="#0758A4"/>
<path d="M50.4815 23.6284C50.6376 23.6284 50.7868 23.5661 50.8688 23.5303C50.7868 23.7059 50.6279 23.9792 50.4783 24.0928H50.475C50.325 23.9792 50.1678 23.7059 50.085 23.5303C50.1678 23.5661 50.3145 23.6284 50.4713 23.6284H50.4815Z" fill="#0758A4"/>
<path d="M51.0858 26.9073L53.8527 23.0309L54.1349 23.2339L54.151 22.3242L53.3139 22.6436L53.5788 22.8343C53.4433 23.025 51.375 25.9237 51.1147 26.2882L49.8617 24.0187L49.7073 24.254L48.5922 25.9386L48.3139 25.7525L48.3096 26.6489L49.1552 26.313L48.8721 26.1252C49.0254 25.893 49.6303 24.9796 49.8328 24.674L51.0858 26.9073Z" fill="#0758A4"/>
<path d="M51.5915 25.3842C51.4049 25.1026 51.2169 24.8196 51.1213 24.6739C51.0512 24.804 50.9084 25.059 50.7504 25.3414L50.5527 24.9877L51.0915 24.0186L51.2465 24.2539L51.8008 25.0913L51.5915 25.3842Z" fill="#0758A4"/>
<path d="M52.1611 25.6367L52.3608 25.9387L52.6397 25.7526L52.6445 26.649L51.7979 26.3131L52.0805 26.1253C52.052 26.0814 52.0074 26.0128 51.9518 25.9298L52.1611 25.6367Z" fill="#0758A4"/>
<path d="M57.7325 19.7212C57.5252 19.4962 57.1757 19.69 56.8218 20.0153C56.4684 20.3396 56.246 20.6722 56.4522 20.8971C56.6433 21.1044 57.0092 20.928 57.3627 20.6034C57.716 20.2786 57.9385 19.9456 57.7325 19.7212Z" fill="#0758A4"/>
<path d="M57.1618 23.7164C57.1736 23.7075 57.1837 23.6977 57.1941 23.688C57.382 23.5234 57.4895 23.2706 57.4895 22.9943C57.4895 22.4627 57.0575 22.0305 56.5257 22.0305C55.9946 22.0305 55.5629 22.4627 55.5629 22.9943C55.5629 23.0664 55.5769 23.1836 55.5769 23.1836C55.534 23.1011 55.3747 22.7338 55.3428 22.667C55.4859 22.148 55.9619 21.7664 56.5257 21.7664C57.0112 21.7664 57.431 22.0486 57.6302 22.4575C57.5541 21.9716 57.3119 21.5345 57.141 21.3723C56.9364 21.179 56.5865 21.1172 56.5865 21.1172C56.8157 21.1538 57.1172 21.013 57.4544 20.7033C57.7746 20.4089 57.9401 20.1523 57.9497 19.9375C57.9292 20.2409 57.9389 20.4108 58.0246 20.6568C58.1413 20.9934 58.4593 21.6122 58.3459 22.3111C58.2833 22.6952 58.005 23.2666 57.5401 23.7333C57.4405 23.8387 57.4031 23.9932 57.3916 24.0744C57.3916 24.0744 56.705 24.0744 56.542 24.0886C56.542 24.0886 56.3789 24.0744 56.3815 23.9722C56.3848 23.8706 56.4752 23.8446 56.5559 23.8446C56.6377 23.8446 56.9788 23.8525 57.1618 23.7164Z" fill="#0758A4"/>
<path d="M52.6396 23.916C52.0547 23.5953 51.4837 23.1024 50.9679 22.3149L50.876 22.1602C51.0158 22.2224 51.198 22.1796 51.198 22.1796C51.2065 22.193 51.2284 22.2277 51.2403 22.2472C51.7203 22.9567 52.2524 23.4045 52.7967 23.6971L52.6396 23.916Z" fill="#0758A4"/>
<path d="M53.3628 23.9492C53.8053 24.1101 54.246 24.1942 54.6643 24.2583C54.936 24.3001 55.2021 24.3143 55.4574 24.3017C55.4531 24.3438 55.4541 24.4002 55.4785 24.4413C55.4785 24.4413 55.4273 24.5008 55.4273 24.5673C55.1674 24.5777 54.8988 24.5622 54.6238 24.5197C54.168 24.4498 53.6863 24.3566 53.2041 24.1742L53.3628 23.9492Z" fill="#0758A4"/>
<path d="M56.5039 24.1679C56.5849 24.1546 56.8417 24.1612 56.9958 24.1852C57.1639 24.2118 57.3569 24.2464 57.3767 24.3393C57.3966 24.4277 57.3352 24.5219 57.2491 24.6556C57.1958 24.7383 57.071 24.6912 57.0008 24.6651C56.9315 24.6389 56.5359 24.4267 56.4714 24.3567C56.408 24.2868 56.3815 24.1881 56.5039 24.1679Z" fill="#0758A4"/>
<path d="M56.0991 24.4292C56.1422 24.402 56.2454 24.3625 56.3531 24.4032C56.4596 24.4438 56.8503 24.6739 56.8763 24.7817C56.9021 24.889 56.8494 24.9441 56.7891 24.9679C56.7286 24.9918 56.654 25.0146 56.6012 25.0197C56.5044 25.0276 56.4081 24.9707 56.3584 24.9097C56.309 24.8483 56.1261 24.6272 56.0991 24.5777C56.0733 24.5284 56.0593 24.4553 56.0991 24.4292Z" fill="#0758A4"/>
<path d="M56.052 24.672C56.1081 24.7354 56.2662 24.927 56.2852 24.9583C56.3032 24.9895 56.2761 25.0391 56.2265 25.0339C56.1769 25.0288 55.9084 25.001 55.7545 24.8953C55.5999 24.79 55.4967 24.5873 55.6032 24.5131C55.7086 24.4384 55.8734 24.4719 56.052 24.672Z" fill="#0758A4"/>
<path d="M55.9652 24.0864C56.016 24.074 56.2189 24.0222 56.2636 24.0894C56.3189 24.1731 56.2795 24.2628 56.122 24.3389C55.9642 24.4145 55.6673 24.4748 55.608 24.3932C55.5499 24.3109 55.6316 24.1727 55.9652 24.0864Z" fill="#0758A4"/>
</g>
<defs>
<clipPath id="clip0_2094_72901">
<rect width="65.8551" height="32" fill="white" transform="translate(0.650391)"/>
</clipPath>
</defs>
</svg>
