<svg width="33" height="32" viewBox="0 0 33 32" fill="none" xmlns="http://www.w3.org/2000/svg">
<g clipPath="url(#clip0_2094_72719)">
<path fillRule="evenodd" clipRule="evenodd" d="M0.916016 0.015625H32.8232V31.6381H0.916016V0.015625Z" fill="#F15C24"/>
<path d="M0.884766 5.30302C7.98703 4.33272 16.4476 5.66001 21.9086 11.0731C27.3696 16.4851 28.6952 24.9163 27.7151 31.9554C27.8033 25.1585 24.18 19.1043 19.0369 14.0085C13.8964 8.91157 7.74269 5.21649 0.884766 5.30302Z" fill="#010101"/>
<path d="M9.24754 14.1367V16.2482H7.29008V21.2771H5.06814V16.2482H3.1123V14.1367H9.24754Z" fill="#010101"/>
<path d="M8.10645 18.2549H11.3977L12.1531 22.1633H12.1944L12.916 18.2549H16.1991V25.3969H14.2085V19.7868H14.1595L13.0151 25.3969H11.1654L10.0547 19.7868H9.99643V25.3969H8.10645V18.2549Z" fill="#010101"/>
<path d="M19.2962 25.1793H19.3304L20.698 22.374H23.228L21.2705 25.7197L23.4097 29.5149H20.7568L19.3304 26.4849H19.2962V29.5149H17.0742V22.374H19.2962V25.1793Z" fill="#010101"/>
</g>
<defs>
<clipPath id="clip0_2094_72719">
<rect width="32" height="32" fill="white" transform="translate(0.868164)"/>
</clipPath>
</defs>
</svg>
