<svg width="144" height="32" viewBox="0 0 144 32" fill="none" xmlns="http://www.w3.org/2000/svg">
<g clipPath="url(#clip0_2094_74465)">
<path fillRule="evenodd" clipRule="evenodd" d="M61.8707 15.5826C63.6384 14.8986 64.7956 13.1891 64.7739 11.2938C64.7739 7.43395 62.0357 5.52051 58.2748 5.52051H48.4106V26.509H59.1325C62.4315 26.509 65.6646 24.1997 65.6646 20.6697C65.6646 16.4733 61.8707 15.6222 61.8707 15.5826ZM53.5571 9.87523H57.384C58.4133 9.81143 59.2994 10.5941 59.3632 11.6234C59.3633 11.6246 59.3634 11.6258 59.3635 11.627C59.3635 11.7018 59.3635 11.7777 59.3635 11.8547C59.3418 12.9287 58.4582 13.7843 57.384 13.7714H53.5242L53.5571 9.87523ZM57.417 22.1147H53.5901V17.9909H57.318C59.1985 17.9909 60.0892 18.8156 60.0892 20.0363C60.0892 21.5604 58.9676 22.1147 57.417 22.1147Z" fill="#EC1D24"/>
<path fillRule="evenodd" clipRule="evenodd" d="M77.0136 4.99316C70.9433 4.99316 67.3804 9.84275 67.3804 15.979C67.3804 22.1152 70.9433 26.9648 77.0136 26.9648C83.0838 26.9648 86.6467 22.1482 86.6467 15.979C86.6467 9.80976 83.1168 4.99316 77.0136 4.99316ZM77.0136 21.9502C74.0444 21.9502 72.5599 19.278 72.5599 15.979C72.5599 12.6799 74.0444 10.0407 77.0136 10.0407C79.9827 10.0407 81.5002 12.7129 81.5002 15.979C81.5002 19.311 79.9827 21.9502 77.0136 21.9502Z" fill="#EC1D24"/>
<path fillRule="evenodd" clipRule="evenodd" d="M97.8303 13.7684L97.1045 13.6034C95.3231 13.2405 93.9045 12.7787 93.9045 11.4921C93.9045 10.1065 95.2571 9.54562 96.4447 9.54562C98.0827 9.57002 99.6366 10.2753 100.733 11.4921L104 8.259C102.515 6.57649 100.107 4.95996 96.3457 4.95996C91.925 4.95996 88.56 7.43424 88.56 11.558C88.56 15.3189 91.2652 17.1664 94.5643 17.8592L95.2901 18.0241C98.0283 18.585 99.051 19.0139 99.051 20.3335C99.051 21.5871 97.9293 22.4119 96.2138 22.4119C94.1684 22.4119 92.3209 21.5211 90.9023 19.7067L87.5703 23.0057C89.4178 25.216 91.7601 26.9315 96.2798 26.9315C100.206 26.9315 104.395 24.6882 104.395 20.1025C104.461 15.3189 100.832 14.3952 97.8303 13.7684Z" fill="#EC1D24"/>
<path fillRule="evenodd" clipRule="evenodd" d="M116.14 21.9504C113.831 21.9504 111.422 20.037 111.422 15.8472C111.422 12.1193 113.666 10.0409 116.008 10.0409C117.855 10.0409 118.944 10.8987 119.802 12.3832L124.025 9.57903C121.913 6.37897 119.406 5.02637 115.942 5.02637C109.608 5.02637 106.177 9.94193 106.177 15.8802C106.177 22.1154 109.971 26.9979 115.876 26.9979C120.033 26.9979 122.012 25.5464 124.157 22.4453L119.901 19.5817C119.043 20.9607 118.119 21.9504 116.14 21.9504Z" fill="#EC1D24"/>
<path fillRule="evenodd" clipRule="evenodd" d="M138.111 5.52051V13.2402H131.744V5.52051H126.235V26.5024H131.744V18.2218H138.111V26.5024H143.621V5.52051H138.111Z" fill="#EC1D24"/>
<path d="M16.6738 0.176758C7.89174 0.176758 0.772461 7.29604 0.772461 16.0781C0.772461 24.8602 7.89174 31.9795 16.6738 31.9795C25.4559 31.9795 32.5752 24.8602 32.5752 16.0781C32.5752 7.29604 25.4559 0.176758 16.6738 0.176758C16.6738 0.176758 16.6738 0.176758 16.6738 0.176758ZM16.6738 30.4949C8.71164 30.4949 2.25703 24.0403 2.25703 16.0781C2.25703 8.11594 8.71164 1.66133 16.6738 1.66133C24.636 1.66133 31.0906 8.11594 31.0906 16.0781C31.0888 24.0395 24.6352 30.4931 16.6738 30.4949Z" fill="#010101"/>
<path d="M23.239 6.14844H22.1503V11.5919H11.2305V6.14844H10.1088C4.6246 9.76646 3.11173 17.1453 6.72975 22.6295C7.61596 23.9729 8.76551 25.1224 10.1088 26.0086H11.2305V20.5718H22.1503V26.0152H23.239C28.7233 22.4005 30.2388 15.0244 26.6241 9.54012C25.7368 8.19398 24.5852 7.04229 23.239 6.15504L23.239 6.14844ZM9.71296 23.8709C5.41032 20.0478 5.02151 13.4607 8.84455 9.15802C8.8448 9.15773 8.84506 9.15744 8.84531 9.15716C9.11783 8.85275 9.40752 8.56416 9.71296 8.29281L9.71296 23.8709ZM22.1503 19.0543H11.2305V13.0764H22.1503V19.0543ZM23.6349 23.8379V20.5388V11.5919V8.29281C27.9256 12.1456 28.2805 18.7473 24.4277 23.038C24.4263 23.0396 24.4248 23.0412 24.4234 23.0428C24.1739 23.3187 23.9108 23.5818 23.6349 23.8313V23.8379Z" fill="#010101"/>
</g>
<defs>
<clipPath id="clip0_2094_74465">
<rect width="143.118" height="32" fill="white" transform="translate(0.685547)"/>
</clipPath>
</defs>
</svg>
