<svg width="112" height="32" viewBox="0 0 112 32" fill="none" xmlns="http://www.w3.org/2000/svg">
<g clipPath="url(#clip0_2094_73793)">
<path d="M111.47 17.5202C111.47 18.9266 110.926 19.6275 109.826 19.6275C108.718 19.6275 108.163 18.9352 108.163 17.5398V10.6819L101.763 17.7525C101.646 19.009 101.103 19.6275 100.152 19.6275C99.0438 19.6275 98.4895 18.9245 98.4895 17.5202V6.99033C98.4895 5.58401 99.0438 4.88304 100.152 4.88304C101.239 4.88304 101.796 5.58619 101.796 6.99033V14.1238L108.141 6.82972C108.302 5.52977 108.868 4.88087 109.859 4.88087C110.937 4.88087 111.47 5.57316 111.47 6.95777V17.5202ZM91.8245 4.76367C92.794 4.76367 93.6918 4.92427 94.5222 5.24328C95.6309 5.66865 96.1853 6.27632 96.1853 7.06411C96.1853 8.00165 95.7483 8.47043 94.8636 8.47043C94.4788 8.47043 94.0309 8.35323 93.5419 8.11885C93.0505 7.89532 92.4962 7.77812 91.8788 7.77812C90.7485 7.77812 89.8637 8.25773 89.2007 9.20395C88.6246 10.0352 88.3376 11.0356 88.3376 12.2184C88.3376 13.4858 88.6158 14.5079 89.1811 15.3067C89.8202 16.2225 90.7376 16.6804 91.9549 16.6804C92.4027 16.6804 92.968 16.5416 93.6831 16.2658C94.3875 15.999 94.8136 15.8622 94.9745 15.8622C95.3787 15.8622 95.7113 16.0011 95.9548 16.2658C96.2005 16.5437 96.3179 16.8843 96.3179 17.2881C96.3179 18.2148 95.507 18.9287 93.8853 19.4278C93.2354 19.6189 92.5201 19.7143 91.7528 19.7143C89.6311 19.7143 87.9551 18.9787 86.7182 17.5202C85.5442 16.1466 84.9486 14.3908 84.9486 12.2379C84.9486 10.1306 85.5573 8.37276 86.7834 6.98816C88.0593 5.51023 89.7441 4.76367 91.8245 4.76367ZM84.7638 18.3189C84.7638 18.7031 84.6138 19.0113 84.316 19.2673C84.0182 19.5125 83.666 19.6298 83.2595 19.6298C82.6618 19.6298 82.0857 19.3216 81.5421 18.7139L76.3271 12.8478V17.4682C76.3271 18.9157 75.7727 19.6298 74.6641 19.6298C73.5663 19.6298 73.0207 18.9157 73.0207 17.4682V7.00986C73.0207 5.58401 73.5641 4.88087 74.6641 4.88087C75.7727 4.88087 76.3271 5.59487 76.3271 7.04242V10.365L81.0835 5.6578C81.6161 5.13695 82.1508 4.88087 82.6726 4.88087C83.0769 4.88087 83.4182 4.99805 83.6965 5.25414C83.9639 5.51024 84.1009 5.8401 84.1009 6.24376C84.1009 6.73424 83.8335 7.22254 83.3117 7.72386L79.1836 11.537L84.1009 16.6804C84.54 17.1361 84.7638 17.6808 84.7638 18.3189ZM63.571 7.86276C62.4189 7.86276 61.5557 8.34237 60.9798 9.29945C60.4884 10.1089 60.234 11.1094 60.234 12.3226C60.234 13.4402 60.5014 14.3887 61.0015 15.1764C61.6211 16.1031 62.4623 16.5719 63.5187 16.5719C64.6817 16.5719 65.5666 16.114 66.1644 15.209C66.6773 14.432 66.9317 13.4424 66.9317 12.2162C66.9317 11.0226 66.6861 10.033 66.1861 9.24519C65.586 8.32067 64.7122 7.86276 63.571 7.86276ZM70.2033 17.466C70.2033 18.9136 69.6708 19.6275 68.5925 19.6275C67.9208 19.6275 67.4947 19.3411 67.2904 18.766C67.2469 18.5316 67.1513 18.2125 67.0339 17.8067H66.9796C66.0187 19.0199 64.8035 19.6275 63.3318 19.6275C62.4254 19.6275 61.5927 19.4561 60.8145 19.1067C59.4711 18.4881 58.458 17.542 57.7755 16.2637C57.1363 15.0917 56.8254 13.7288 56.8254 12.1859C56.8254 10.6841 57.1559 9.32115 57.8277 8.108C58.5319 6.82973 59.545 5.89219 60.8667 5.29755C61.6449 4.94597 62.434 4.76584 63.2449 4.76584C64.7274 4.76584 65.9752 5.3518 66.9992 6.51287H67.0318V6.49117C67.0861 6.28935 67.16 6.06581 67.2666 5.79886C67.4903 5.18036 67.9382 4.88304 68.5883 4.88304C69.6664 4.88304 70.1991 5.58619 70.1991 7.01204V17.466H70.2033ZM55.5169 18.2343C55.5169 18.6922 55.356 19.0546 55.0364 19.3193C54.7277 19.5755 54.332 19.7143 53.8734 19.7143C52.956 19.7143 52.4017 19.1393 52.2104 17.9999L50.8344 9.57724C50.8018 9.60979 49.8321 12.5049 47.9236 18.256C47.6149 19.2239 47.0801 19.7143 46.3454 19.7143C45.5997 19.7143 45.0759 19.2239 44.7563 18.256L41.8977 9.57724C41.865 9.60979 41.3955 12.4311 40.4998 18.0216C40.3195 19.1501 39.763 19.7143 38.8369 19.7143C38.3782 19.7143 37.9825 19.5755 37.6629 19.3193C37.3542 19.0525 37.1934 18.7009 37.1934 18.2537C37.1934 17.924 37.3108 17.1578 37.5347 15.9534L39.3151 6.69952C39.539 5.48636 40.2541 4.8787 41.4586 4.8787C42.6433 4.8787 43.4106 5.4104 43.7628 6.47599L46.291 14.3235H46.3866L48.9562 6.48684C49.3082 5.4104 50.0757 4.8787 51.2604 4.8787C52.4561 4.8787 53.1691 5.48636 53.4039 6.68867L55.1734 15.9317C55.3995 17.1361 55.5169 17.9043 55.5169 18.2343Z" fill="#EA7624"/>
<path d="M40.2971 29.7466C39.4103 29.7466 38.7037 29.4515 38.1776 28.8612C37.6712 28.2969 37.4189 27.5677 37.4189 26.6713C37.4189 25.7968 37.6798 25.0675 38.2016 24.4816C38.7385 23.874 39.4429 23.5723 40.3146 23.5723C40.6276 23.5723 40.9232 23.6157 41.2015 23.7004C41.5515 23.8089 41.7993 23.9608 41.9514 24.1604C42.0362 24.2733 42.0797 24.3883 42.0797 24.5055C42.0797 24.6596 42.0232 24.7984 41.9102 24.9201C41.7972 25.0416 41.6623 25.1001 41.5081 25.1001C41.3623 25.1001 41.1885 25.061 40.9842 24.9786C40.7797 24.8983 40.5602 24.8571 40.3232 24.8571C39.8407 24.8571 39.469 25.0502 39.2102 25.4366C38.9842 25.7707 38.8712 26.1918 38.8712 26.6996C38.8712 27.1987 38.9929 27.6068 39.2342 27.9215C39.4972 28.2751 39.8733 28.4531 40.3623 28.4531C40.5776 28.4531 40.8167 28.4054 41.0798 28.3077C41.3428 28.2101 41.5211 28.1624 41.6123 28.1624C41.7623 28.1624 41.8906 28.2231 41.995 28.3447C42.1014 28.4662 42.1536 28.6007 42.1536 28.7504C42.1536 28.8807 42.1102 29.0044 42.0254 29.1216C41.721 29.5404 41.1471 29.7466 40.2971 29.7466Z" fill="#3B9E47"/>
<path d="M45.5324 23.7266C46.167 23.7266 46.4845 23.9371 46.4845 24.3538C46.4845 24.7662 46.167 24.9723 45.5324 24.9723H44.4367V26.0184H45.3801C46.0149 26.0184 46.3323 26.2224 46.3323 26.6347C46.3323 27.047 46.0149 27.2511 45.3801 27.2511H44.4367V28.3709H45.5736C46.2084 28.3709 46.5257 28.5749 46.5257 28.9873C46.5257 29.3975 46.2084 29.6037 45.5736 29.6037H44.0085C43.6715 29.6037 43.4346 29.545 43.2999 29.43C43.165 29.3149 43.0977 29.0914 43.0977 28.7572V24.6706C43.0977 24.3212 43.165 24.076 43.2999 23.9371C43.4346 23.7982 43.6759 23.7266 44.0237 23.7266H45.5324Z" fill="#3B9E47"/>
<path d="M48.5867 24.9745C48.1019 24.9745 47.8019 24.9615 47.6845 24.9333C47.3237 24.8573 47.1455 24.6641 47.1455 24.3538C47.1455 23.935 47.4629 23.7266 48.0975 23.7266H50.428C51.0605 23.7266 51.378 23.9371 51.378 24.3538C51.378 24.6641 51.1975 24.8573 50.8389 24.9333C50.7215 24.9615 50.4192 24.9745 49.9367 24.9745V28.7182C49.9367 29.3497 49.7127 29.6666 49.2671 29.6666C48.8171 29.6666 48.5911 29.3519 48.5911 28.7182V24.9745H48.5867Z" fill="#3B9E47"/>
<path d="M53.5168 25.6111H54.4189C55.0581 25.6111 55.558 25.7848 55.921 26.1298C56.2841 26.4748 56.4646 26.9675 56.4646 27.6056C56.4646 28.2392 56.2624 28.7341 55.8602 29.0943C55.4732 29.4329 54.958 29.6021 54.3123 29.6021H53.1038C52.7537 29.6021 52.5124 29.5327 52.3798 29.3916C52.245 29.2527 52.1777 29.0097 52.1777 28.6581V24.6019C52.1777 23.9682 52.4015 23.6514 52.8473 23.6514C53.2929 23.6514 53.5168 23.9682 53.5168 24.6019V25.6111ZM53.5168 26.8265V28.3716H54.0972C54.7102 28.3716 55.0167 28.1156 55.0167 27.6056C55.0167 27.0847 54.7102 26.8265 54.0972 26.8265H53.5168Z" fill="#3B9E47"/>
<path d="M63.332 27.743H63.3646L64.1406 24.4443C64.195 24.2121 64.308 24.0233 64.482 23.8757C64.6558 23.7281 64.8624 23.6543 65.0993 23.6543C65.3688 23.6543 65.5992 23.7412 65.7928 23.9127C65.9863 24.084 66.1036 24.3033 66.1471 24.5724L66.7927 28.5808C66.8254 28.7783 66.8405 28.9259 66.8405 29.0279C66.8405 29.4532 66.6405 29.6659 66.2384 29.6659C66.0036 29.6659 65.8298 29.5747 65.7232 29.3947C65.647 29.2774 65.5883 29.0821 65.5471 28.813L65.0385 25.601L65.0167 25.6033L64.258 28.5721C64.1776 28.8738 64.0863 29.093 63.9842 29.2253C63.8342 29.412 63.6232 29.5053 63.3472 29.5053C63.0732 29.5053 62.8603 29.412 62.7103 29.2253C62.608 29.0973 62.5189 28.8803 62.4363 28.5721L61.6711 25.6033H61.6581L61.1582 28.8151C61.1168 29.0908 61.0559 29.2883 60.9821 29.4055C60.8689 29.5791 60.6951 29.668 60.4582 29.668C60.0538 29.668 59.8516 29.4553 59.8516 29.03C59.8516 28.9671 59.8712 28.8173 59.9081 28.583L60.5538 24.5745C60.595 24.3054 60.7124 24.0863 60.9038 23.9148C61.0951 23.7433 61.3233 23.6565 61.5906 23.6565C61.8319 23.6565 62.0385 23.7281 62.2058 23.8736C62.3754 24.0189 62.4907 24.2099 62.5493 24.4465L63.332 27.743Z" fill="#3B9E47"/>
<path d="M70.095 23.6465C70.5732 23.6465 70.9037 23.9026 71.0863 24.4191L72.5688 28.638C72.634 28.8203 72.6667 28.9593 72.6667 29.0569C72.6667 29.2391 72.6037 29.3867 72.4731 29.4996C72.3449 29.6125 72.1884 29.6667 72.0058 29.6667C71.6689 29.6667 71.432 29.4561 71.2972 29.0352L71.0798 28.3472H68.9994L68.7581 29.0829C68.6298 29.4714 68.4146 29.6667 68.1125 29.6667C67.9233 29.6667 67.7712 29.6102 67.6516 29.4952C67.5343 29.3802 67.4756 29.2284 67.4756 29.0396C67.4756 28.9006 67.4973 28.7726 67.5408 28.6532L69.0712 24.5146C69.2864 23.9351 69.6277 23.6465 70.095 23.6465ZM70.0537 25.1027L69.3841 27.1623H70.7146L70.0689 25.1027H70.0537Z" fill="#3B9E47"/>
<path d="M73.5098 28.7182V24.6685C73.5098 24.3191 73.5771 24.076 73.712 23.9371C73.8467 23.7982 74.088 23.7266 74.4358 23.7266H75.9422C76.577 23.7266 76.8944 23.9371 76.8944 24.3538C76.8944 24.7662 76.577 24.9723 75.9422 24.9723H74.8467V28.716C74.8467 29.3475 74.6228 29.6644 74.1772 29.6644C73.7337 29.6665 73.5098 29.3497 73.5098 28.7182Z" fill="#3B9E47"/>
<path d="M79.4427 23.6465C79.921 23.6465 80.2513 23.9026 80.434 24.4191L81.9166 28.638C81.9818 28.8203 82.0144 28.9593 82.0144 29.0569C82.0144 29.2391 81.9513 29.3867 81.8209 29.4996C81.6927 29.6125 81.5362 29.6667 81.3535 29.6667C81.0165 29.6667 80.7796 29.4561 80.6448 29.0352L80.4274 28.3472H78.3471L78.1057 29.0829C77.9776 29.4714 77.7623 29.6667 77.4602 29.6667C77.2711 29.6667 77.1189 29.6102 76.9993 29.4952C76.8819 29.3802 76.8232 29.2284 76.8232 29.0396C76.8232 28.9006 76.845 28.7726 76.8884 28.6532L78.4188 24.5146C78.6319 23.9351 78.9732 23.6465 79.4427 23.6465ZM79.4015 25.1027L78.7318 27.1623H80.0622L79.4166 25.1027H79.4015Z" fill="#3B9E47"/>
<path d="M85.9937 26.4588V26.4826C86.6221 26.7344 86.9373 27.1815 86.9373 27.824C86.9373 29.0501 86.1655 29.6643 84.6221 29.6643C84.1329 29.6643 83.7199 29.6078 83.3808 29.4972C82.8808 29.3322 82.6309 29.0566 82.6309 28.6725C82.6309 28.3361 82.8178 28.1667 83.1874 28.1667C83.3417 28.1667 83.5003 28.1993 83.6547 28.2602C83.8851 28.3534 84.0307 28.4099 84.0894 28.4251C84.2133 28.4576 84.3982 28.4728 84.6438 28.4728C85.2417 28.4728 85.5394 28.2428 85.5394 27.7849C85.5394 27.5873 85.4698 27.4181 85.3286 27.2792C85.2221 27.1664 85.0656 27.1012 84.8613 27.0796C84.8134 27.0752 84.6416 27.0708 84.346 27.0708C83.7873 27.0708 83.5068 26.8843 83.5068 26.5152C83.5068 26.3482 83.5851 26.2135 83.7416 26.1052C83.859 26.0249 84.0155 25.977 84.2091 25.9597C84.2461 25.9553 84.4134 25.951 84.709 25.951C84.9133 25.951 85.0829 25.912 85.2177 25.8317C85.3829 25.7296 85.4677 25.5864 85.4677 25.3997C85.4677 24.9788 85.1982 24.7682 84.6612 24.7682C84.4938 24.7682 84.2787 24.8029 84.0134 24.8767C83.7482 24.9484 83.546 24.9852 83.4113 24.9852C83.0395 24.9852 82.8548 24.8159 82.8548 24.4774C82.8548 24.3646 82.9047 24.2538 83.009 24.1476C83.3265 23.8133 83.8874 23.6484 84.6938 23.6484C86.0915 23.6484 86.7915 24.1867 86.7915 25.2652C86.7915 25.8338 86.5264 26.2288 85.9937 26.4588Z" fill="#3B9E47"/>
<path d="M91.8335 26.0198L89.4076 29.2232C89.1815 29.5183 88.925 29.6659 88.6336 29.6659C88.2315 29.6659 88.0293 29.4012 88.0293 28.8715V24.6027C88.0293 23.9712 88.2532 23.6543 88.699 23.6543C89.1446 23.6543 89.3685 23.9712 89.3685 24.6049V27.3568L91.8423 24.0906C92.0618 23.7998 92.2988 23.6565 92.551 23.6565C92.9641 23.6565 93.1727 23.956 93.1727 24.5572V28.7218C93.1727 29.3533 92.9488 29.6703 92.5032 29.6703C92.0575 29.6703 91.8335 29.3556 91.8335 28.7218V26.0198Z" fill="#3B9E47"/>
<path d="M95.8596 27.22V28.7174C95.8596 29.3491 95.6356 29.6659 95.19 29.6659C94.7422 29.6659 94.5205 29.3512 94.5205 28.7174V24.6027C94.5205 23.9712 94.7444 23.6543 95.19 23.6543C95.6356 23.6543 95.8596 23.9712 95.8596 24.6049V25.9895H98.3269V24.6049C98.3269 23.9712 98.5508 23.6543 98.9965 23.6543C99.4443 23.6543 99.6661 23.9712 99.6661 24.6027V28.7174C99.6661 29.3491 99.4421 29.6659 98.9965 29.6659C98.5508 29.6659 98.3269 29.3491 98.3269 28.7174V27.22H95.8596Z" fill="#3B9E47"/>
<path d="M100.729 26.6688C100.729 25.7898 100.976 25.0759 101.47 24.5224C101.981 23.943 102.672 23.6543 103.541 23.6543C104.417 23.6543 105.111 23.9408 105.622 24.5137C106.115 25.065 106.363 25.7833 106.363 26.6688C106.363 27.5477 106.115 28.2639 105.622 28.8151C105.107 29.3838 104.413 29.668 103.541 29.668C102.672 29.668 101.981 29.3815 101.47 28.8086C100.976 28.2595 100.729 27.5456 100.729 26.6688ZM102.148 26.6839C102.148 27.1658 102.257 27.5651 102.478 27.8798C102.726 28.2488 103.081 28.4332 103.541 28.4332C104.004 28.4332 104.361 28.2509 104.613 27.8885C104.833 27.5673 104.944 27.1658 104.944 26.6839C104.944 26.1848 104.839 25.7768 104.631 25.4557C104.376 25.0759 104.015 24.8848 103.541 24.8848C103.07 24.8848 102.709 25.0759 102.461 25.4557C102.252 25.7768 102.148 26.1848 102.148 26.6839Z" fill="#3B9E47"/>
<path d="M108.34 29.6016C108.003 29.6016 107.766 29.543 107.631 29.428C107.496 29.3129 107.429 29.0893 107.429 28.7552V24.6687C107.429 24.3193 107.496 24.074 107.631 23.9352C107.766 23.7962 108.007 23.7246 108.355 23.7246H109.453C109.983 23.7246 110.435 23.8352 110.807 24.0544C111.257 24.317 111.483 24.6947 111.483 25.1895C111.483 25.8275 111.252 26.2594 110.789 26.4851V26.509C111.133 26.6154 111.381 26.7737 111.531 26.9799C111.681 27.1861 111.757 27.4704 111.757 27.8284C111.757 28.4231 111.548 28.8767 111.135 29.1871C110.77 29.4605 110.279 29.5972 109.659 29.5972H108.34V29.6016ZM108.768 24.8705V26.0207H109.348C109.611 26.0207 109.798 25.9881 109.905 25.9231C110.055 25.8362 110.131 25.6756 110.131 25.439C110.131 25.0593 109.87 24.8682 109.348 24.8682H108.768V24.8705ZM108.768 27.0667V28.4513H109.437C109.722 28.4513 109.935 28.4122 110.074 28.3384C110.257 28.2365 110.348 28.0542 110.348 27.7916C110.348 27.4855 110.261 27.2816 110.083 27.1796C109.955 27.1037 109.731 27.0667 109.413 27.0667H108.768Z" fill="#3B9E47"/>
<path d="M16.3849 30.5787C24.4168 30.5787 30.9279 24.0783 30.9279 16.0599C30.9279 8.04132 24.4168 1.54102 16.3849 1.54102C8.35296 1.54102 1.8418 8.04132 1.8418 16.0599C1.8418 24.0783 8.35296 30.5787 16.3849 30.5787Z" fill="white"/>
<path d="M16.3849 31.9615C7.60248 31.9615 0.457031 24.828 0.457031 16.0603C0.457031 7.29251 7.60248 0.161133 16.3849 0.161133C25.1672 0.161133 32.3126 7.29251 32.3126 16.0603C32.3126 24.828 25.1672 31.9615 16.3849 31.9615ZM16.3849 2.92383C9.12852 2.92383 3.22652 8.81817 3.22652 16.0603C3.22652 23.3022 9.12852 29.1966 16.3849 29.1966C23.6412 29.1966 29.5432 23.3022 29.5432 16.0603C29.5432 8.81817 23.639 2.92383 16.3849 2.92383Z" fill="#EA7624"/>
<path d="M24.7712 22.8674L24.3559 17.342C24.2842 16.3849 23.4864 15.6449 22.5234 15.6449H22.2843C21.9038 15.6449 21.5648 15.786 21.2713 15.9878C21.2625 15.9922 21.2539 16.0008 21.2452 16.0052C21.1712 16.0573 21.0908 16.0964 21.0256 16.1572C21.0169 16.1658 21.0039 16.1679 20.9952 16.1788L17.2366 20.0896L12.7845 14.2734C12.7737 14.2603 12.7585 14.2538 12.7476 14.2408C12.3454 13.759 11.7476 13.4443 11.0628 13.4443H10.5063C9.23899 13.4443 8.23684 14.5208 8.33249 15.7838L8.86291 22.8674H12.7258L13.1302 17.4658L16.4996 21.8692C16.6475 22.0601 16.8714 22.1795 17.1148 22.1925C17.1301 22.1947 17.1453 22.1947 17.1606 22.1947C17.3866 22.1947 17.6039 22.1036 17.7605 21.9386L20.3256 19.2714L20.0605 22.8674H24.7712Z" fill="#3B9E47"/>
<path d="M22.4172 15.164C23.4594 15.164 24.304 14.3207 24.304 13.2802C24.304 12.2399 23.4594 11.3965 22.4172 11.3965C21.3751 11.3965 20.5303 12.2399 20.5303 13.2802C20.5303 14.3207 21.3751 15.164 22.4172 15.164Z" fill="#EA7624"/>
<path d="M10.7953 12.9286C12.0779 12.9286 13.117 11.8912 13.117 10.6108C13.117 9.33034 12.0779 8.29297 10.7953 8.29297C9.51273 8.29297 8.47363 9.33034 8.47363 10.6108C8.47363 11.8912 9.51273 12.9286 10.7953 12.9286Z" fill="#EA7624"/>
<path d="M17.4235 18.1413C18.1702 18.1413 18.7755 17.5368 18.7755 16.7913C18.7755 16.0457 18.1702 15.4414 17.4235 15.4414C16.6767 15.4414 16.0713 16.0457 16.0713 16.7913C16.0713 17.5368 16.6767 18.1413 17.4235 18.1413Z" fill="#EA7624"/>
</g>
<defs>
<clipPath id="clip0_2094_73793">
<rect width="111.509" height="32" fill="white" transform="translate(0.389648)"/>
</clipPath>
</defs>
</svg>
