<svg width="124" height="32" viewBox="0 0 124 32" fill="none" xmlns="http://www.w3.org/2000/svg">
<g clipPath="url(#clip0_2094_72805)">
<path d="M79.1853 25.1426V26.2689H77.0226V30.9473H75.8979V25.1426H79.1853Z" fill="#025287"/>
<path d="M81.8668 25.1426C82.3859 25.1426 82.9048 25.3158 83.2509 25.7491C83.597 26.0956 83.8565 26.6154 83.8565 27.1353C83.8565 27.655 83.6834 28.175 83.2509 28.5215C82.9048 28.868 82.3859 29.1278 81.8668 29.1278H80.8288V31.0339H79.7041V25.1426H81.8668ZM81.8668 28.0015C82.1263 28.0015 82.2993 27.9149 82.4723 27.7417C82.6454 27.5684 82.7318 27.3952 82.7318 27.1353C82.7318 26.8754 82.6454 26.702 82.4723 26.5287C82.2993 26.3555 82.1263 26.2689 81.8668 26.2689H80.8288V28.0015H81.8668Z" fill="#025287"/>
<path d="M87.5764 25.1426H88.7011L86.9709 29.3879C86.5384 30.514 85.7598 31.0339 84.7218 31.0339V29.9943C85.0678 29.9943 85.2409 29.9943 85.5003 29.9076C85.6734 29.821 85.8464 29.6478 86.0195 29.3879L84.1162 25.3158H85.2409L86.5384 28.0884L87.5764 25.1426Z" fill="#025287"/>
<path d="M93.5451 25.1426V30.9473H92.4205V26.2689H90.3444V30.9473H89.2197V25.1426H93.5451Z" fill="#025287"/>
<path d="M98.9089 25.1426V30.9473H97.7842V26.2689H95.7082V30.9473H94.5835V25.1426H98.9089Z" fill="#025287"/>
<path d="M103.667 30.9473L103.321 29.9076H100.985L100.639 30.9473H99.4277L101.417 25.1426H102.802L104.878 30.9473H103.667ZM101.417 28.868H102.975L102.196 26.5287L101.417 28.868Z" fill="#025287"/>
<path d="M111.885 25.1426V30.9473H110.76V26.2689H108.684V30.9473H107.56V25.1426H111.885Z" fill="#025287"/>
<path d="M115.604 31.1203C114.739 31.1203 114.047 30.8604 113.442 30.2538C112.836 29.6475 112.577 28.9543 112.577 28.0881C112.577 27.2216 112.836 26.5285 113.442 25.9221C114.047 25.3155 114.739 25.0557 115.604 25.0557C116.123 25.0557 116.642 25.1423 117.075 25.4022C117.507 25.6622 117.853 26.0087 118.113 26.4418L117.161 27.0484C116.989 26.7883 116.815 26.6151 116.556 26.4418C116.296 26.2686 115.95 26.182 115.691 26.182C115.085 26.182 114.653 26.3552 114.307 26.7017C113.961 27.0484 113.788 27.4815 113.788 28.0881C113.788 28.6078 113.961 29.1275 114.307 29.4742C114.653 29.8207 115.085 29.994 115.691 29.994C116.037 29.994 116.296 29.9073 116.556 29.7341C116.815 29.5609 116.989 29.3874 117.161 29.1275L118.113 29.7341C117.853 30.1672 117.507 30.5137 117.075 30.7738C116.642 31.0336 116.123 31.1203 115.604 31.1203Z" fill="#025287"/>
<path d="M120.968 27.3952C121.573 27.3952 122.006 27.5684 122.352 27.9149C122.698 28.2616 122.871 28.6947 122.871 29.2145C122.871 29.7344 122.698 30.1675 122.352 30.514C122.006 30.8607 121.573 31.0339 120.968 31.0339H118.719V25.1426H122.352V26.2689H119.843V27.3952H120.968ZM120.968 29.9076C121.228 29.9076 121.4 29.821 121.573 29.7344C121.746 29.5611 121.833 29.3879 121.833 29.2145C121.833 28.9546 121.746 28.7813 121.573 28.6947C121.4 28.6081 121.228 28.5215 120.968 28.5215H119.93V29.9943H120.968V29.9076Z" fill="#025287"/>
<path d="M23.3888 27.5682C21.3992 26.182 20.4475 24.7092 21.2261 23.4097C21.2261 23.4097 24.5999 18.7313 22.2642 8.9414C22.2642 8.9414 28.7521 6.16904 29.7901 0.62431L25.0324 2.79023C25.2919 2.35703 25.4649 1.83722 25.638 1.3174C25.7244 0.970857 25.8974 0.537673 25.9838 0.104492L24.8594 0.62431L14.6516 5.30268C14.5651 5.30268 14.5651 5.38931 14.5651 5.38931C14.0461 6.60221 13.8731 7.90176 13.8731 9.37457C12.9215 9.11466 11.9699 8.9414 10.9318 8.9414C9.46125 8.9414 7.99064 9.28793 6.77956 9.98103V9.89439C6.69304 9.80774 6.60654 9.80774 6.52004 9.89439L5.13593 10.5875L4.87641 8.16167C4.87641 8.07502 4.78991 7.98839 4.61689 7.98839C4.53039 7.98839 4.35737 8.07502 4.35737 8.16167L4.01135 10.5009L2.80027 9.72113C2.71376 9.63448 2.62726 9.63448 2.54075 9.72113C2.45424 9.80775 2.45424 9.89439 2.54075 9.98103L3.31931 11.1939L0.897133 11.4538C0.810627 11.4538 0.724121 11.5405 0.724121 11.7138C0.724121 11.8004 0.810627 11.9737 0.897133 11.9737L3.23281 12.3202L2.45424 13.5331C2.36774 13.6198 2.36774 13.7064 2.45424 13.793H2.54075C1.8487 15.0926 1.41617 16.652 1.41617 18.2115C1.41617 23.4097 5.65497 27.6548 10.8453 27.6548C12.1429 27.6548 13.354 27.3949 14.4786 26.9618C14.5651 27.0484 14.6516 27.0484 14.7381 27.1351C18.3714 29.8208 21.0531 28.7811 23.1292 29.6475C24.8594 30.4271 25.5513 31.8133 25.5513 31.8133L28.6657 30.7738C27.541 28.8677 24.9458 28.6079 23.3888 27.5682ZM14.9111 5.73585L25.2055 0.970855C25.0324 1.57731 24.8594 2.18377 24.5133 2.70358L17.3333 6.0824C17.2468 6.0824 17.2468 6.16904 17.2468 6.16904C16.0357 8.85476 15.9492 12.4935 15.8627 15.699C15.8627 16.8253 15.7762 17.7783 15.7762 18.7313C15.6897 18.1248 15.6032 17.4317 15.5167 16.652C15.4302 16.3921 15.4302 16.0456 15.3437 15.7857C14.4786 12.3202 13.7001 8.42158 14.9111 5.73585ZM11.3644 21.3303C11.1049 21.1571 10.9318 20.5507 10.1533 20.3774C9.80727 20.2907 9.46124 20.2907 9.11522 20.3774C8.8557 20.464 8.42316 20.3774 8.16366 20.2907C8.07714 20.2041 7.90414 20.2041 7.90414 20.2041C7.73112 20.1175 7.4716 20.0308 7.2986 20.0308C6.95256 20.0308 6.43354 20.3774 6.43354 20.3774L7.99064 21.0705C7.99064 21.0705 8.25016 21.2437 8.50968 21.5036C9.11522 22.37 9.63427 22.6299 10.0668 22.8031C11.2779 23.8428 11.7969 24.9691 13.7866 26.6151C12.9215 26.9618 11.8834 27.1351 10.9318 27.1351C6.17402 27.1351 2.28123 23.2364 2.28123 18.4714C2.28123 16.5654 2.88677 14.746 4.01135 13.2732L4.27087 15.6124C4.27087 15.699 4.35737 15.7857 4.53039 15.7857C4.61689 15.7857 4.70341 15.699 4.78991 15.6124L5.13593 13.2732L6.34702 14.0529C6.43354 14.1396 6.52004 14.1396 6.60654 14.0529C6.69304 13.9663 6.69304 13.8797 6.60654 13.793L5.828 12.5801L8.25016 12.3202C8.33666 12.3202 8.42316 12.2336 8.42316 12.0603C8.42316 11.9737 8.33666 11.8004 8.25016 11.8004L5.9145 11.4538C7.2986 10.4142 9.0287 9.89439 10.9318 9.89439C11.9699 9.89439 12.9215 10.0677 13.8731 10.4142C14.0461 12.2336 14.3921 14.1396 14.7381 15.9589C14.8246 16.2188 14.8246 16.5654 14.9111 16.8253C15.3437 18.9046 15.5167 21.2437 14.8246 21.8503C13.4405 22.5432 11.7969 21.7636 11.3644 21.3303Z" fill="#025287"/>
<path d="M36.2783 21.7635C34.2887 21.7635 32.6451 21.0703 31.3474 19.7708C30.0499 18.4713 29.4443 16.8252 29.4443 14.9192C29.4443 12.9265 30.0499 11.3671 31.3474 9.9809C32.6451 8.68136 34.2887 7.98828 36.2783 7.98828C37.4894 7.98828 38.6139 8.24819 39.5655 8.85465C40.6035 9.37447 41.3821 10.1542 41.9012 11.1072L39.7385 12.4067C39.3925 11.8003 38.96 11.3671 38.3544 11.0205C37.7489 10.674 37.0567 10.5007 36.2783 10.5007C34.9806 10.5007 33.9426 10.9339 33.164 11.7136C32.3854 12.4934 31.9529 13.533 31.9529 14.8325C31.9529 16.1321 32.3854 17.1717 33.164 17.9514C33.9426 18.7312 34.9806 19.1644 36.2783 19.1644C37.0567 19.1644 37.7489 18.9911 38.3544 18.6445C38.96 18.298 39.3925 17.8648 39.7385 17.2584L41.9877 18.5579C41.3821 19.5109 40.6035 20.2906 39.6519 20.8105C38.6139 21.4168 37.4894 21.7635 36.2783 21.7635Z" fill="#025287"/>
<path d="M56.2615 8.24805V21.4167H53.6663V12.8398L49.9464 19.0776H49.6869L45.9673 12.9264V21.5033H43.3721V8.24805H46.0537L49.86 14.4859L53.6663 8.24805H56.2615Z" fill="#025287"/>
<path d="M68.372 8.24805V21.4167H65.7767V10.7605H61.1055V21.5033H58.5103V8.24805H68.372Z" fill="#025287"/>
<path d="M80.9153 13.273C82.213 13.273 83.2511 13.6195 84.0297 14.3992C84.8082 15.1789 85.2407 16.1319 85.2407 17.3449C85.2407 18.5578 84.8082 19.5974 84.0297 20.2905C83.2511 21.0702 82.1264 21.4167 80.9153 21.4167H75.8979V8.24805H84.2027V10.7605H78.4932V13.273H80.9153ZM80.9153 19.0776C81.4344 19.0776 81.867 18.9043 82.213 18.6444C82.5591 18.3845 82.732 17.9513 82.732 17.4315C82.732 16.9117 82.5591 16.4785 82.213 16.2186C81.867 15.9587 81.4344 15.7854 80.9153 15.7854H78.4932V19.0776H80.9153Z" fill="#025287"/>
<path d="M95.1022 21.5036L94.3237 19.1645H89.0468L88.2683 21.5036H85.5L90.0849 8.33496H93.2856L97.9569 21.5036H95.1022ZM89.9118 16.652H93.5451L91.7285 11.2806L89.9118 16.652Z" fill="#025287"/>
<path d="M106.608 8.24805H109.203V21.4167H106.608V15.9587H101.677V21.4167H99.0815V8.24805H101.677V13.5329H106.608V8.24805Z" fill="#025287"/>
<path d="M121.746 21.5033H118.719L114.047 15.3522V21.5033H111.452V8.24805H114.047V14.0527L118.546 8.24805H121.573L116.729 14.6591L121.746 21.5033Z" fill="#025287"/>
<path d="M123.304 23.8434H31.2612L30.396 22.8037H122.439L123.304 23.8434Z" fill="#E65B25"/>
</g>
<defs>
<clipPath id="clip0_2094_72805">
<rect width="122.811" height="32" fill="white" transform="translate(0.649414)"/>
</clipPath>
</defs>
</svg>
