<svg width="24" height="32" viewBox="0 0 24 32" fill="none" xmlns="http://www.w3.org/2000/svg">
<g clipPath="url(#clip0_2094_72835)">
<path fillRule="evenodd" clipRule="evenodd" d="M6.61886 29.0471C7.13687 29.0471 7.5572 29.5189 7.5572 30.1001C7.5572 30.6814 7.13687 31.1532 6.61886 31.1532C6.10086 31.1532 5.68055 30.6814 5.68055 30.1001C5.68055 29.5189 6.10086 29.0471 6.61886 29.0471ZM6.61886 28.2448C7.65091 28.2448 8.48788 29.0757 8.48788 30.1002C8.48788 31.1246 7.65091 31.9555 6.61886 31.9555C5.58682 31.9555 4.74985 31.1246 4.74985 30.1002C4.74985 29.0757 5.58682 28.2448 6.61886 28.2448ZM10.9898 29.0471C11.3101 29.0471 11.6114 29.1906 11.7808 29.4656L12.3947 28.8768C12.0521 28.4895 11.5497 28.2448 10.9898 28.2448C9.95781 28.2448 9.12084 29.0757 9.12084 30.1002C9.12084 31.1246 9.95781 31.9555 10.9898 31.9555C11.5627 31.9555 12.0753 31.6993 12.4182 31.2963L11.7803 30.7501C11.6099 31.0164 11.3041 31.1532 10.9898 31.1532C10.4719 31.1532 10.0515 30.6814 10.0515 30.1001C10.0515 29.5189 10.4719 29.0471 10.9898 29.0471ZM17.1679 30.3437H19.8524C19.8626 30.264 19.8679 30.1827 19.8679 30.1002C19.8679 29.0757 19.0606 28.2448 18.0651 28.2448C17.0697 28.2448 16.2624 29.0757 16.2624 30.1002C16.2624 31.1246 17.0697 31.9555 18.0651 31.9555C18.6328 31.9555 19.2856 31.8591 19.616 31.4369L19.2056 30.8428C18.9997 31.1388 18.455 31.2213 18.1074 31.2213C17.6479 31.2213 17.2634 30.8455 17.1679 30.3437ZM17.1883 29.7669C17.3102 29.3106 17.6757 28.979 18.1074 28.979C18.539 28.979 18.9045 29.3106 19.0264 29.7669H17.1883ZM12.9603 28.3296H15.8494V29.1257H14.8509V31.8707H13.9588V29.1257H12.9603V28.3296ZM21.3445 30.0452L20.1284 28.3296H21.2027L21.9306 29.4258L22.6585 28.3296H23.7328L22.5167 30.0452L23.7879 31.8707H22.7497L21.9306 30.6854L21.1115 31.8707H20.0733L21.3445 30.0452ZM21.9306 29.5917L21.9264 29.5986L21.9306 29.5987L21.9348 29.5986L21.9306 29.5917ZM2.57963 27.8645C2.9671 27.8645 3.28132 28.1787 3.28132 28.5662C3.28132 28.9537 2.9671 29.2679 2.57963 29.2679H1.39694V27.8645H2.57963ZM0.416992 27.0313H2.78134C3.62895 27.0313 4.31632 27.7186 4.31632 28.5662C4.31632 29.4138 3.62893 30.1012 2.78134 30.1012H1.39694V31.8707H0.416992V27.0313Z" fill="white"/>
<path fillRule="evenodd" clipRule="evenodd" d="M3.35135 3.0076H11.1744L8.18241 0.0156256H0.359375V7.83868L3.35135 10.8306C3.35135 10.8306 3.35135 3.0076 3.35135 3.0076ZM12.7897 3.0076H20.6127V10.8306L23.6047 7.83868V0.015625H15.7817L12.7897 3.0076ZM20.6127 12.4459V20.269H12.7897L15.7817 23.2609H23.6047V15.4379L20.6127 12.4459ZM11.1744 20.269H3.35134V12.4459L0.359375 15.4379V23.2609H8.18241C8.18241 23.2609 11.1744 20.269 11.1744 20.269Z" fill="white"/>
</g>
<defs>
<clipPath id="clip0_2094_72835">
<rect width="23.5117" height="32" fill="white" transform="translate(0.330078)"/>
</clipPath>
</defs>
</svg>
