<svg width="61" height="32" viewBox="0 0 61 32" fill="none" xmlns="http://www.w3.org/2000/svg">
<g clipPath="url(#clip0_2094_74371)">
<path d="M9.6846 3.02976C4.38952 4.8144 1.0752 7.59922 1.0752 9.85453C1.0752 11.5411 3.25206 13.8357 6.80173 15.4438C12.1753 17.8952 20.7847 19.6602 30.61 19.6602C41.5335 19.6602 51.0647 17.4638 56.1636 14.522C58.6935 13.0904 60.1447 11.3058 60.1447 9.85453C60.1447 8.34445 58.7131 6.61864 56.3205 5.20662C51.2608 2.20608 41.6904 0.0488266 30.61 0.0488281C22.4124 0.0488292 15.0385 1.24512 9.6846 3.02976ZM13.5284 11.5999C12.1164 11.5803 10.4102 10.8547 9.84149 10.384C9.41004 10.0114 8.95898 9.56036 8.8217 9.12891C8.15491 7.34427 10.0572 5.97148 11.4496 5.28508C12.5675 4.73596 14.2737 4.10839 15.921 3.67694C17.8626 3.18666 19.3334 2.85326 19.9806 2.71598C20.2748 2.65715 21.2749 2.46103 22.334 2.30414C23.491 2.12764 24.6089 1.99036 25.4522 1.93152C25.8052 1.91191 26.1974 1.91191 25.9228 2.14725C25.8836 2.16686 25.0992 3.16704 23.3538 4.53984C20.8827 6.50098 17.7841 9.14852 15.1758 10.9528C14.764 11.2273 14.1952 11.5999 13.5284 11.5999ZM45.9853 10.992C43.377 9.18774 40.3176 6.5402 37.827 4.55945C36.1012 3.18665 35.1794 2.26492 35.1402 2.22569C35.0029 2.08841 35.0029 2.00997 35.3363 2.00997C36.2973 1.99036 38.0819 2.18647 39.1998 2.36297C39.8666 2.46103 40.6314 2.63753 41.2982 2.7552C43.4162 3.12782 45.3577 3.67694 47.2797 4.3045C48.1426 4.57906 49.0055 4.95168 49.7703 5.32429C51.1627 6.01069 52.967 7.32466 52.2806 9.08968C52.1629 9.52113 51.7511 9.9722 51.3 10.3448C50.7509 10.8155 48.9466 11.5411 47.6915 11.5411C47.0443 11.5411 46.456 11.3058 45.9853 10.992ZM26.5308 13.4826C25.3737 13.4238 24.2363 13.2669 24.2363 13.2669C23.7852 13.2669 23.5303 12.7766 23.5303 12.7766C23.5303 12.7766 23.393 12.6197 23.0988 12.1883C22.8242 11.7568 22.7262 11.5215 22.7262 11.5215C22.6281 11.3254 22.5497 11.2077 22.5497 10.9528C22.5497 10.7567 22.9223 10.4625 22.9223 10.4625L25.158 8.57979L27.4133 6.8736C28.6488 5.97147 29.4137 5.55963 29.9432 5.42235C30.2374 5.34391 30.5119 5.3243 30.6296 5.3243C30.7669 5.3243 31.0022 5.34391 31.4533 5.52041C32.1004 5.75575 33.1987 6.40292 35.6305 8.32484L38.2584 10.5213C38.2584 10.5213 38.5526 10.7174 38.5918 10.9135C38.6114 11.0312 38.6114 11.1685 38.533 11.3058C38.533 11.3058 38.4545 11.5607 38.1604 12.0314C37.9839 12.2863 37.8466 12.5021 37.6309 12.7766C37.3563 13.1689 37.1798 13.2669 36.7483 13.3061C36.7483 13.3061 36.0227 13.3846 35.0422 13.4434C33.689 13.5219 31.8063 13.5807 30.6296 13.5415C30.355 13.5611 30.002 13.5611 29.5902 13.5611C28.6881 13.5611 27.531 13.5415 26.5308 13.4826Z" fill="url(#paint0_linear_2094_74371)"/>
<path d="M30.5177 0.971494C32.3615 0.979224 37.0448 5.10744 38.7378 6.10299C38.4865 5.81409 35.6256 2.9155 35.4475 2.65949C35.2205 2.38155 35.1753 2.15598 35.2545 2.04497C35.5031 1.68757 38.2824 2.0278 39.3544 2.18708C40.2093 2.30743 41.1971 2.45821 41.9325 2.58349C44.0435 2.97523 45.6009 3.29404 47.673 3.90286C48.8365 4.24989 49.8256 4.72383 50.538 5.1613C51.4833 5.7328 52.4155 6.8555 52.5371 8.93339C53.808 9.56328 56.3752 9.98409 56.3752 9.98409C56.3982 9.6719 56.5207 8.29022 54.7154 6.8923C50.5983 3.72232 41.4559 0.316748 30.3955 0.330117L30.5177 0.971494Z" fill="url(#paint1_linear_2094_74371)"/>
<path d="M50.6392 5.44254C51.5912 6.02495 52.5824 7.04394 52.53 8.95251C53.9882 10.1315 56.4879 10.2679 56.4879 10.2679C56.5097 9.96271 56.7163 8.53575 54.9644 7.06378C53.2932 5.66278 49.4249 3.99379 46.4219 3.57031C48.9161 4.35917 49.9254 5.00489 50.6392 5.44254Z" fill="url(#paint2_radial_2094_74371)"/>
<path d="M6.62173 6.91558C4.81138 8.3095 4.95678 9.66566 4.95543 9.98538C4.95543 9.98538 7.5544 9.57148 8.81184 8.94827C8.92133 6.86832 9.85687 5.72255 10.7921 5.15711C11.5211 4.71344 12.4997 4.24454 13.6859 3.91448C15.7601 3.30127 17.2901 2.96171 19.4137 2.58741C20.1413 2.46346 21.1186 2.31428 21.9885 2.18436C23.0491 2.02677 25.8073 1.7734 26.1015 2.10531C26.2366 2.27669 26.146 2.46245 25.9215 2.73744C25.7344 2.96659 22.858 5.79699 22.6094 6.08282C24.2953 5.12197 28.9903 0.980909 30.8146 0.973258L30.9488 0.303711C19.8743 0.320605 10.7324 3.73342 6.62173 6.91558Z" fill="url(#paint3_linear_2094_74371)"/>
<path d="M6.43939 6.85157C4.53087 8.49955 4.8864 9.75061 4.90762 10.0598C4.90762 10.0598 7.35099 9.8861 8.7783 8.71905C8.91958 6.62778 9.79781 5.8153 10.7514 5.23338C11.4597 4.79632 13.0073 3.99747 15.1822 3.16504C12.1812 3.58564 8.07597 5.42954 6.43939 6.85157Z" fill="url(#paint4_radial_2094_74371)"/>
<path d="M9.9548 3.15722C4.71863 4.90261 1.45801 7.607 1.45801 9.81272C1.45801 11.4622 3.60618 13.7063 7.11614 15.279C12.4099 17.6766 20.9066 19.4028 30.6118 19.4028C41.391 19.4028 50.8084 17.2546 55.8528 14.3968C58.3462 12.9774 59.7655 11.232 59.7655 9.81271C59.7655 8.35502 58.3462 6.66717 55.9871 5.26702C51.0002 2.35165 41.6595 0.222655 30.7077 0.222656C22.6329 0.222657 15.2293 1.41182 9.9548 3.15722ZM9.83972 14.1858C6.75172 12.8624 4.89125 11.2512 4.89125 9.40993C4.89125 7.54946 7.76826 5.30539 12.3907 3.8477C16.4377 2.58181 21.7506 1.54609 27.4471 1.35428C27.4854 1.35428 28.0416 1.20084 28.291 1.16248C29.0582 0.989861 29.9213 0.702159 30.6693 0.702159C31.6475 0.702159 32.9709 1.16248 33.4313 1.29674C33.6806 1.37346 33.9108 1.41182 34.1409 1.431C42.5418 1.75706 49.0055 3.40655 52.9566 5.61227C55.0281 6.78225 56.2939 8.12486 56.2939 9.37157C56.2939 10.906 55.1623 12.3061 52.9374 13.4761C48.6027 15.7585 39.6648 17.408 30.6118 17.408C22.4794 17.408 13.9251 15.9504 9.83972 14.1858Z" fill="url(#paint5_linear_2094_74371)"/>
<path d="M3.17606 6.83612C2.83201 7.12259 2.39702 7.54061 2.04849 8.09317C1.99225 8.17833 1.91171 8.31267 1.83877 8.46018C1.74226 8.61252 1.69289 8.75521 1.62199 8.93668C1.5754 9.06897 1.27991 9.88076 1.60734 10.737C1.93477 11.5932 2.76246 12.4943 2.89327 12.6296C2.89327 12.6296 4.65813 14.439 7.54011 15.6122C8.1309 15.8596 10.799 16.8752 12.3396 17.2769C13.1841 17.492 15.1148 17.976 16.9874 18.3441C18.5531 18.6523 20.0815 18.8503 20.8707 18.9392C21.3446 18.9994 23.7197 19.2794 25.9904 19.409C28.3026 19.5497 30.6199 19.5469 30.6199 19.5469L30.6223 17.5429C30.6223 17.5429 26.5864 17.642 20.6861 16.8851C18.5015 16.6004 14.5013 15.8181 12.4419 15.2328C10.3069 14.6384 8.243 13.6956 7.03417 12.8037C5.72497 11.8292 5.28378 11.065 5.18361 10.8154C4.72279 9.66733 4.92924 8.56439 5.50732 7.86174C5.98964 7.26707 6.22829 7.04145 6.22829 7.04145L4.21861 5.97949C4.21861 5.97949 3.76637 6.33721 3.17606 6.83612Z" fill="url(#paint6_linear_2094_74371)"/>
<path d="M54.9938 7.00274C54.9938 7.00274 55.3859 7.48073 55.6128 7.79395C56.1908 8.59617 56.5185 9.53149 56.0285 10.7409C55.9323 10.9977 55.4889 11.7656 54.1752 12.7337C52.9736 13.6277 50.9041 14.5673 48.7774 15.1702C46.7123 15.7565 42.7096 16.5431 40.5285 16.8195C34.6256 17.5761 30.5951 17.479 30.5951 17.479L30.5928 19.4819C30.5928 19.4819 32.905 19.4893 35.2198 19.3421C37.4936 19.2059 39.8732 18.9313 40.3441 18.8821C41.1339 18.7915 42.6615 18.5802 44.2183 18.273C46.1016 17.9114 48.0293 17.4278 48.8737 17.2126C50.4161 16.8103 53.0878 15.8193 53.6659 15.5544C57.0215 13.9952 58.3381 12.5863 58.3381 12.5863C58.4673 12.4526 59.2822 11.5522 59.6131 10.6935C59.9543 9.83194 59.6207 8.99726 59.5644 8.86932C59.4943 8.69007 59.4346 8.50806 59.3392 8.35759C59.2809 8.2632 59.2357 8.17632 59.1801 8.09219C58.8434 7.53337 58.4192 7.14098 58.0711 6.82721C57.49 6.30085 57.0728 6.0166 57.0728 6.0166L54.9938 7.00274Z" fill="url(#paint7_linear_2094_74371)"/>
<path d="M16.4551 13.5851C16.5 14.3133 16.6765 14.5681 16.8651 14.5905C16.9782 14.6009 24.0839 13.3353 24.0839 13.3353C23.9909 13.2961 23.8795 13.2525 23.8103 13.1609C23.3126 12.5049 23.2124 12.3531 22.9607 11.9295C22.8774 11.7873 22.7921 11.605 22.7158 11.4591C22.617 11.2716 22.6187 11.0664 22.6187 11.0664L16.4551 13.5851Z" fill="url(#paint8_linear_2094_74371)"/>
<path d="M38.5358 11.4508C38.4325 11.6497 38.3545 11.8202 38.2939 11.9206C38.0451 12.3437 37.9568 12.472 37.4574 13.1286C37.3858 13.2195 37.288 13.273 37.1953 13.3121C37.1953 13.3121 44.2341 14.5659 44.347 14.5555C44.5377 14.5336 44.9125 14.3119 44.9549 13.5848L38.6279 11.043C38.6279 11.043 38.6344 11.2637 38.5358 11.4508Z" fill="url(#paint9_linear_2094_74371)"/>
<path d="M30.583 5.37509C30.7238 5.37773 30.9111 5.36227 31.3204 5.49456C31.7567 5.63278 32.5585 6.07043 33.6331 6.8437C35.1578 7.88549 36.6367 9.20004 37.7041 10.0707L38.1469 10.4366C38.1469 10.4366 38.4621 10.6755 38.5464 10.8071C38.6523 10.9364 38.6158 11.0062 38.6158 11.0062C38.6158 11.0062 42.8536 12.7002 44.276 13.2741C44.4372 13.3449 44.9074 13.5542 44.9515 13.5144C44.9926 13.488 44.8216 13.3656 44.4386 12.9846C43.5502 12.1037 41.7159 10.3789 39.2743 8.39337C37.3153 6.81787 35.5922 5.23054 32.8564 3.61881C32.5563 3.43981 31.4281 2.78202 30.5884 2.77441L30.583 5.37509Z" fill="url(#paint10_linear_2094_74371)"/>
<path d="M28.405 3.61882C25.6691 5.23057 23.946 6.81792 21.987 8.39344C19.5453 10.379 17.711 12.1039 16.8226 12.9847C16.4397 13.3658 16.2686 13.4882 16.3097 13.5145C16.3538 13.5543 16.824 13.345 16.9852 13.2743C18.4076 12.7004 22.632 11.0093 22.632 11.0093C22.632 11.0093 22.609 10.9365 22.7149 10.8072C22.7992 10.6756 23.1144 10.4367 23.1144 10.4367L23.5572 10.0708C24.6246 9.20012 26.1036 7.88555 27.6283 6.84375C28.7029 6.07047 29.5047 5.63281 29.941 5.4946C30.3503 5.36231 30.5376 5.37776 30.6784 5.37513L30.673 2.77441C29.8333 2.78202 28.7051 3.43981 28.405 3.61882Z" fill="url(#paint11_linear_2094_74371)"/>
<path d="M32.46 1.4413C34.4665 2.1547 37.1863 4.87453 41.9126 8.90227C42.834 9.68998 44.6621 11.4586 46.5942 11.8896C48.7196 12.3801 51.4989 10.8195 52.3609 9.24411C53.3715 9.92778 55.4077 10.1804 56.2697 9.92778C56.0171 12.7814 51.0679 14.5946 48.6899 15.2634C43.7109 16.6605 34.7191 17.582 30.4536 17.4779C20.9565 17.2253 18.2663 16.5119 15.3979 15.9322C14.6696 15.7836 12.7672 15.2931 10.1366 14.4311C5.15763 12.8111 5.08331 10.7006 4.99414 9.66026C6.24259 10.3142 8.72462 8.91713 8.72462 8.91713C8.72462 8.91713 8.94756 11.2357 12.8713 11.845C15.5911 12.2612 17.6421 10.2102 18.5636 9.46704C21.5212 7.08905 26.8717 2.43709 28.6552 1.47102C29.4281 1.05487 30.1266 0.90625 30.6617 0.90625C31.1521 0.90625 31.6574 1.15891 32.46 1.4413ZM44.35 14.7878C44.35 14.7878 44.7216 14.6095 44.8405 14.2379C44.9594 13.8515 45.0486 13.6285 44.9594 13.5245C44.1568 12.0977 41.1397 10.225 39.2373 8.64961C38.1672 7.75786 37.1863 6.77693 36.1013 5.9595C34.6894 4.91912 33.5896 4.14627 32.6086 3.53691C32.0885 3.20994 31.4048 2.88296 30.6617 2.88296C29.9631 2.88296 29.1457 3.28425 28.6255 3.56664C27.5405 4.19086 25.7868 5.49876 24.3005 6.6729C22.1157 8.42667 19.7675 10.4331 18.0434 11.9491C17.6421 12.3058 16.7801 13.0638 16.3194 13.5245C16.141 13.688 16.0221 13.6731 16.3045 14.2974C16.3639 14.4163 16.468 14.5203 16.5869 14.6243C18.1623 15.4715 24.5978 15.8579 30.5873 15.9917C30.8995 15.9917 31.2116 16.0065 31.5088 16.0065C37.6024 16.0065 44.35 14.7878 44.35 14.7878ZM44.8999 13.5245L39.2373 8.64961C41.1397 10.225 43.9933 12.2166 44.8999 13.5245Z" fill="url(#paint12_linear_2094_74371)"/>
<path d="M28.9049 1.33196C27.4982 2.00968 24.0771 4.87839 19.343 8.90608C18.4224 9.68938 16.6002 11.4535 14.6557 11.8961C12.5427 12.3774 9.75784 10.8261 8.9036 9.2488C7.91979 9.90576 5.99149 10.1649 5.08008 9.9527C5.11232 10.2276 5.18837 10.4926 5.30136 10.748C5.52546 11.2536 5.89499 11.7205 6.3582 12.1481C6.751 12.5104 7.21098 12.8445 7.70685 13.1496C8.88827 13.8767 10.2727 14.4398 11.4324 14.8318C11.8812 14.9838 12.2966 15.11 12.6533 15.2102C13.1911 15.3613 15.0795 15.7995 15.6996 15.9387C17.0036 16.2314 20.4899 16.6469 22.0075 16.8778C22.8657 17.0084 23.6001 17.1091 24.2509 17.1867C25.5718 17.3049 26.8402 17.389 27.9934 17.4361C28.7029 17.4435 29.4355 17.4342 30.3226 17.4299C30.5201 17.4289 30.7097 17.4261 30.8907 17.4215C32.6924 17.3755 34.0405 17.3412 35.0844 17.3094C36.895 17.2151 38.3676 17.0986 39.6063 16.9687C39.8054 16.9357 40.0186 16.899 40.2575 16.8578C41.0499 16.7211 45.2441 16.0263 45.9513 15.8829C46.0278 15.8674 45.8212 15.9099 45.6138 15.9525C45.5862 15.9581 45.5586 15.9639 45.5316 15.9694C46.4146 15.7952 47.8564 15.5453 49.3899 15.0773C49.653 14.997 51.043 14.5869 51.3211 14.4963C51.7924 14.3424 52.2185 14.1831 52.604 14.0198C53.5359 13.6068 54.2248 13.1686 54.736 12.7303C54.9478 12.5355 55.1504 12.3287 55.3296 12.1341C56.1542 11.1496 56.2111 10.225 56.2631 9.65912C55.0162 10.3127 52.534 8.91203 52.534 8.91203C52.534 8.91203 52.3138 11.2401 48.3832 11.8408C45.6624 12.2567 43.6143 10.2055 42.6946 9.46549C39.7405 7.08942 34.4094 2.40654 32.602 1.47259C31.8211 1.06905 31.1329 0.899414 30.5911 0.899414C30.1035 0.899414 29.6841 0.956588 28.9049 1.33196ZM22.0166 8.64599C23.0888 7.75607 24.0724 6.77706 25.158 5.96371C26.5622 4.91271 27.6678 4.14465 28.6503 3.53391C29.1631 3.21508 29.859 2.87685 30.5884 2.87685C31.2995 2.87685 32.1113 3.27705 32.6287 3.57376C33.7153 4.19598 35.4656 5.49445 36.9529 6.68024C39.145 8.42763 41.485 10.4273 43.2097 11.9498C43.6167 12.3089 44.4809 13.0567 44.9431 13.5191C45.1108 13.6867 45.2332 13.6796 44.9495 14.3C44.8953 14.4187 44.7909 14.5238 44.6694 14.6247C43.0898 15.4718 37.0439 15.9147 31.0448 16.0441C30.5438 16.055 30.0472 16.0606 29.5528 16.0606C25.5491 16.0606 21.6849 15.6939 16.7493 14.7606C16.7493 14.7606 16.5312 14.613 16.4178 14.244C16.2985 13.8555 16.389 13.6053 16.4864 13.4943C17.5344 12.1435 20.1127 10.2263 22.0166 8.64599ZM16.5246 13.5581L22.0166 8.64599C20.1127 10.2263 17.4418 12.2594 16.5246 13.5581ZM45.3043 16.0152C45.1726 16.0428 45.3347 16.0097 45.5316 15.9694C45.4511 15.9853 45.3752 16.0005 45.3043 16.0152Z" fill="white"/>
<path d="M16.6133 13.4606C16.5691 13.4606 16.5777 13.3875 16.6107 13.3528C16.7023 13.2563 16.7664 13.1826 16.8027 13.1317C17.3 12.4322 27.8831 2.83799 30.3394 2.80669C30.3421 2.80658 30.7884 2.80669 30.7909 2.80669C31.8073 2.80669 34.6811 4.61855 38.905 8.13348C42.0676 10.7658 45.024 13.4619 44.95 13.5194C44.8757 13.577 44.1928 13.2458 44.1502 13.1625C43.6277 12.1418 33.192 2.95713 30.8725 2.95713H30.3041C27.8618 2.9588 17.454 12.5825 16.7493 13.3216C16.7169 13.3556 16.6561 13.4606 16.6133 13.4606Z" fill="#3E3A39"/>
<path d="M44.1038 14.6339C44.5687 14.5335 44.7715 14.317 44.7141 14.3262C44.7141 14.3262 38.0433 13.3213 37.8972 13.3646C37.8208 13.3873 43.869 14.4839 43.869 14.4839C43.8897 14.4928 44.2766 14.5388 44.1038 14.6339Z" fill="white"/>
<path d="M54.1558 12.7533C52.9565 13.6397 50.9229 14.5783 48.7851 15.1519C46.6994 15.7776 42.6845 16.5597 40.4945 16.8204C34.7067 17.5504 30.7439 17.4983 30.5875 17.4983L20.6283 16.8204C18.4904 16.5597 14.4755 15.6733 12.3898 15.1519C10.252 14.6304 8.21841 13.6397 7.01914 12.7533C6.08058 12.0755 5.6113 11.4497 5.35059 11.0848C5.87201 12.7533 7.17557 14.6826 8.84412 16.1426C9.88696 16.5075 11.1384 16.9768 12.3377 17.2897C13.1719 17.4983 15.1012 17.9675 16.9783 18.3325C18.5426 18.6454 20.1069 18.854 20.889 18.9582C21.3583 19.0104 23.7047 19.2711 25.9989 19.4275C28.2932 19.5318 30.5875 19.5318 30.6396 19.5318C30.6396 19.5318 32.8817 19.4797 35.2281 19.3232C37.4702 19.2189 39.8688 18.9582 40.3381 18.854C41.1202 18.8018 42.6323 18.5932 44.1966 18.2804C46.0737 17.9154 48.003 17.4461 48.8372 17.2375C50.0887 16.8725 50.7144 16.664 51.7572 16.299C53.5822 14.839 55.355 12.649 55.9286 10.9805C55.72 11.2933 55.1986 11.9712 54.1558 12.7533Z" fill="url(#paint13_linear_2094_74371)"/>
<path d="M38.455 9.88813C38.4084 10.0021 38.4501 10.66 38.6379 11.0018C38.7647 11.0997 44.9812 13.7057 45.0117 13.5821C45.0278 13.4827 43.8098 12.5118 41.8746 11.3725C40.4656 10.538 39.344 9.67953 38.7855 9.68273C38.6347 9.67952 38.5208 9.74211 38.455 9.88813Z" fill="url(#paint14_linear_2094_74371)"/>
<path d="M19.4262 11.2714C17.4947 12.4093 16.5926 13.33 16.6096 13.3936C16.636 13.5254 22.5234 11.0048 22.6536 10.9056C22.466 10.6808 22.5916 9.88871 22.6924 9.61744C22.7513 9.48723 22.7265 9.42832 22.6412 9.42677C22.28 9.42212 20.8647 10.4189 19.4262 11.2714Z" fill="url(#paint15_linear_2094_74371)"/>
<path d="M33.212 6.38073C32.9238 6.1871 31.5187 5.2207 30.678 5.2207C29.8598 5.2207 28.973 5.80661 28.414 6.15538C27.5571 6.68923 25.0703 8.81366 25.0703 8.81366C25.5393 8.44591 26.8596 7.45041 27.3128 7.09183L27.5456 6.91437C28.7814 6.02163 29.4404 5.67286 29.9549 5.51574C30.2422 5.42811 30.5461 5.39723 30.6664 5.39723C30.8044 5.40161 30.9865 5.42331 31.4205 5.5581C31.8549 5.69352 32.6549 6.1438 33.7362 6.91197C34.351 7.33554 35.8091 8.51194 36.3859 8.97537C36.3859 8.97537 34.8117 7.45625 33.212 6.38073Z" fill="#898989"/>
<path d="M52.5256 8.4954C52.5247 8.48474 52.5246 8.47079 52.5212 8.45605C52.5213 8.47 52.5214 8.48395 52.5256 8.4954ZM51.6104 10.2939C55.6918 11.3813 54.2701 12.7381 54.2701 12.7381C54.2701 12.7381 56.7795 10.8942 56.1542 8.81651C56.2819 9.29948 56.2435 9.74955 55.6393 9.72981C54.3465 9.69441 52.607 9.02641 52.5256 8.4954C52.5654 9.14169 52.1647 9.898 51.6104 10.2939Z" fill="url(#paint16_linear_2094_74371)"/>
<path d="M19.257 7.9233C19.257 7.9233 16.615 10.1021 16.1775 10.4068C15.6276 10.7904 14.667 11.4606 14.667 11.4606C14.667 11.4606 16.0671 11.1916 17.1284 10.4166C19.6908 8.41654 22.4752 6.13206 23.6074 5.06945C25.396 3.3894 25.7776 2.98249 25.9807 2.61439C26.1154 2.36408 26.1496 2.09536 26.0219 2.05762C25.1643 2.89719 19.257 7.9233 19.257 7.9233Z" fill="url(#paint17_radial_2094_74371)"/>
<path d="M35.33 2.61622C35.5267 2.97851 35.9138 3.39001 37.6995 5.06742C38.8294 6.12891 41.6216 8.42025 44.1805 10.4166C44.9497 11.0359 46.6803 11.3481 46.6803 11.3481C46.6803 11.3481 46.0741 11.1057 45.0112 10.2865C44.5849 9.95757 42.0496 7.92144 42.0496 7.92144C42.0496 7.92144 36.1051 2.88359 35.2484 2.0459C35.1896 2.06512 35.1955 2.3663 35.33 2.61622Z" fill="url(#paint18_radial_2094_74371)"/>
<path d="M30.7334 0.703125H30.6383C29.3544 0.703125 27.4047 1.27376 27.4047 1.27376C20.1291 1.51153 13.1388 3.12833 8.9541 5.22067C13.0912 3.22344 19.9864 1.65419 27.4523 1.41642C27.4523 1.41642 29.3068 0.845785 30.4957 0.798232H30.5432C31.7796 0.798231 33.7768 1.41642 33.7768 1.41642C45.57 1.8444 55.6512 5.17312 56.2694 9.21513C56.2694 9.35779 56.8401 12.9718 48.1379 15.2544C44.5238 16.2054 36.2971 17.3467 30.5432 17.2992C24.3613 17.2516 18.2745 16.2054 13.5192 15.4446C15.6115 15.9201 18.9878 16.5859 20.6522 16.8236C26.5012 17.5369 30.4957 17.4894 30.5908 17.4894C30.6859 17.4894 33.1586 17.6796 40.5294 16.8236C41.956 16.6334 44.5714 16.3005 48.4232 15.3495C57.0778 13.2096 56.5072 9.64311 56.5072 9.31024C56.1268 5.03046 45.2847 1.70174 33.7768 1.27376C33.7768 1.27376 31.9698 0.703125 30.7334 0.703125Z" fill="url(#paint19_linear_2094_74371)"/>
<path d="M22.9158 12.521C22.8865 12.4374 22.8654 12.3656 22.8359 12.2971C22.7201 12.0276 22.518 11.7515 22.4072 11.3799C22.2334 11.653 16.5694 13.5034 16.5244 13.694C16.6095 13.6619 20.9558 13.0603 22.9158 12.521Z" fill="white"/>
<path d="M23.6053 13.3883C23.5184 13.4055 23.5473 13.3218 23.2957 13.0908C22.884 13.3245 17.0942 14.511 16.8633 14.6077C16.885 14.5995 17.2757 14.6663 17.7769 14.7734C16.3075 14.549 22.1493 13.676 23.6053 13.3883Z" fill="#5A5858"/>
<path d="M22.0231 8.6092C21.4733 9.069 18.7845 11.348 17.665 12.4375C17.8649 12.3175 21.6932 9.80867 22.6928 9.61875C22.8227 9.09899 23.5724 7.52969 24.8119 6.42018C25.7914 5.60055 27.5306 4.29113 27.6606 4.20117C27.5506 4.27114 25.6315 5.4706 22.0231 8.6092Z" fill="url(#paint20_linear_2094_74371)"/>
<path d="M26.5611 2.91912C26.5281 2.87822 18.0419 10.1457 17.4004 10.6435C18.0835 10.1134 23.0456 6.00598 23.7354 5.49769C24.5405 4.90448 26.2568 3.28698 26.5611 2.91912Z" fill="white"/>
<path d="M5.30794 9.80871C4.96962 9.82029 4.89143 9.40746 5.01807 8.86194C4.39119 11.3548 7.09695 12.7381 7.09695 12.7381C7.09695 12.7381 5.67483 11.3809 9.75836 10.2964C9.19085 9.88967 8.77341 9.23804 8.77091 8.45898C8.77078 8.99503 6.50602 9.76829 5.30794 9.80871Z" fill="url(#paint21_linear_2094_74371)"/>
<path d="M28.3008 1.67618C28.3008 1.67618 29.275 0.913865 30.565 0.899572C31.7955 0.886043 33.0756 1.74879 33.0756 1.74879C33.0756 1.74879 31.6689 0.904883 30.565 0.935257C29.315 0.96967 28.3008 1.67618 28.3008 1.67618Z" fill="#F7F8F8"/>
<path d="M16.6815 13.2868C16.6061 13.3616 16.4906 13.4904 16.456 13.5855C16.4167 13.691 16.438 13.8257 16.5095 14.052C16.5572 14.2004 16.629 14.353 16.6676 14.3978C16.6812 14.4341 16.773 14.5486 16.773 14.5486C16.7316 14.4741 16.6395 14.1571 16.5875 14.0097C16.5217 13.8216 16.5138 13.7112 16.5541 13.6174C16.6168 13.4685 16.7489 13.3696 16.7489 13.3696C16.7489 13.3696 16.7103 13.2842 16.6882 13.2842C16.6856 13.2848 16.6839 13.2853 16.6815 13.2868Z" fill="url(#paint22_linear_2094_74371)"/>
<path d="M44.6768 13.4577C44.6768 13.4577 44.8603 13.5113 44.8905 13.604C44.9344 13.7383 44.9051 13.8358 44.8533 14.0093C44.8172 14.1313 44.7403 14.2971 44.7184 14.3373C44.7599 14.2907 44.8521 14.202 44.9178 14.0387C45.006 13.8181 45.0489 13.6656 45.01 13.5595C44.975 13.4648 44.8197 13.3846 44.7438 13.3105C44.7427 13.3087 44.7413 13.3084 44.7397 13.3087C44.7188 13.3088 44.6768 13.4577 44.6768 13.4577ZM44.7142 14.3422C44.7118 14.3491 44.7139 14.3466 44.7184 14.3373C44.7172 14.3392 44.716 14.3412 44.7142 14.3422Z" fill="url(#paint23_linear_2094_74371)"/>
<path d="M29.2653 1.09889C29.3098 1.09035 29.3543 1.08181 29.4028 1.06738C29.3632 1.07497 29.3138 1.08446 29.2653 1.09889ZM27.7011 1.49139C27.5044 1.53427 27.4251 1.57511 27.0532 1.5594C26.3774 1.53541 25.096 1.58668 24.2398 1.66393C22.9906 1.77564 21.1898 2.00348 20.6949 2.06774C21.1552 2.01012 22.7741 1.82232 24.2571 1.86045C25.523 1.889 25.8826 1.84047 26.087 2.07791C26.1711 2.16935 26.0199 2.58266 25.7018 3.00751C26.5655 2.59577 27.3649 2.08879 27.3968 2.04167C27.7402 1.66834 28.7383 1.23593 29.2653 1.09889C28.2244 1.33458 28.1291 1.39897 27.7011 1.49139Z" fill="url(#paint24_linear_2094_74371)"/>
<path d="M34.0139 2.17429C34.0741 2.21624 34.8752 2.74415 35.7382 3.15818C35.3607 2.79424 35.1578 2.18039 35.2423 2.08614C35.4454 1.85171 35.816 1.93337 37.0807 1.90376C38.5654 1.86651 40.1866 2.05655 40.6451 2.11224C40.1513 2.05026 38.3503 1.81776 37.1007 1.70433C35.8097 1.58876 34.8901 1.63825 34.1274 1.59599C33.9876 1.5919 33.7172 1.59055 33.5066 1.51658C33.2313 1.42588 32.7996 1.30731 31.9062 1.12207C32.4237 1.25592 33.6745 1.71306 34.0139 2.17429Z" fill="url(#paint25_linear_2094_74371)"/>
<path d="M30.4503 15.9895C24.9855 15.9983 20.3196 15.4328 17.2393 14.8994C19.7283 15.6011 24.5799 16.5141 30.5283 16.5138C36.4504 16.5174 41.4759 15.7165 43.8214 14.9122C40.7398 15.4508 35.8928 16.0108 30.4503 15.9895Z" fill="url(#paint26_linear_2094_74371)"/>
<path d="M8.70939 9.19715C8.86639 9.69992 9.38151 10.2027 9.78019 10.5361C10.38 11.0318 12.0171 11.7992 13.5959 11.9191C13.5959 11.9191 14.7196 12.0514 15.8575 11.3811C16.0445 11.2717 17.3129 10.275 17.3129 10.275C16.9406 10.5149 15.3406 11.7269 13.61 11.6792C12.047 11.6475 10.4823 10.8272 9.93719 10.3738C9.41502 9.93984 9.07808 9.47764 8.98106 9.13188C8.40243 7.25313 10.2618 5.8789 11.2567 5.38672C11.2567 5.38672 8.04609 6.81387 8.70939 9.19715Z" fill="url(#paint27_linear_2094_74371)"/>
<path d="M52.3002 9.17092C52.1941 9.51509 51.8559 9.97532 51.3357 10.4155C50.7954 10.8638 49.2327 11.6862 47.6679 11.7202C45.4428 11.6702 42.5214 9.24096 42.1592 9.00284C42.1592 9.00284 44.1061 10.7657 45.3628 11.354C46.6574 11.9503 47.866 11.8963 47.866 11.8963C49.4428 11.7762 50.8895 11.0699 51.4918 10.5736C51.892 10.2394 52.4122 9.7412 52.5663 9.22695C53.2286 6.84978 50.0871 5.49512 50.0871 5.49512C51.0816 5.97936 52.8684 7.284 52.3002 9.17092Z" fill="url(#paint28_linear_2094_74371)"/>
<path d="M20.2851 2.20782C20.2014 2.22742 20.1473 2.2054 19.9805 2.33629C20.6217 2.15551 24.1767 1.68986 27.0855 1.68058L27.2883 1.59277C24.3725 1.59604 21.1749 2.02088 20.2851 2.20782Z" fill="url(#paint29_linear_2094_74371)"/>
<path d="M33.969 1.68222C36.8783 1.68497 40.4332 2.15062 41.0804 2.33842C40.9071 2.20703 40.86 2.22304 40.7693 2.20945C39.8795 2.02251 36.6884 1.59817 33.7666 1.58789L33.969 1.68222Z" fill="url(#paint30_linear_2094_74371)"/>
<path d="M37.0051 13.3691C36.1113 13.4951 35.4188 13.5524 34.2872 13.5968C33.1854 13.6391 31.6806 13.6611 30.6079 13.6658C29.4959 13.6713 28.1301 13.644 26.907 13.5918C25.8055 13.5452 25.0861 13.462 24.0419 13.3213C23.2457 13.462 22.4485 13.6341 21.6499 13.7741C21.254 13.844 20.8579 13.9142 20.4622 13.9844C19.9659 14.0709 19.4185 14.1571 18.9229 14.2441C18.2362 14.3653 17.5498 14.4863 16.8633 14.6071C16.8633 14.6071 16.9212 14.6161 17.0307 14.6314C17.6557 14.7223 19.4796 15.1953 22.598 15.4954C25.1565 15.7408 28.1261 15.8592 30.3198 15.8592C30.4587 15.8592 30.5997 15.8578 30.7448 15.8565C33.0422 15.8248 36.2032 15.7515 38.7962 15.4878C41.3804 15.2247 43.6244 14.7475 44.2257 14.5903C44.3289 14.5672 44.3871 14.5578 44.3871 14.5578C43.6903 14.4059 43.1475 14.3676 42.4651 14.2425C41.974 14.1517 41.1495 14.0281 40.6572 13.938C40.264 13.865 39.8713 13.7936 39.4767 13.7213C38.6839 13.5758 38.0075 13.4671 37.2146 13.3213C37.1357 13.3326 37.0808 13.3591 37.0051 13.3691Z" fill="white"/>
<path d="M45.3221 27.2816C45.4778 27.2816 45.6043 27.1557 45.6043 27.0002V26.078C45.6043 25.9225 45.4778 25.798 45.3221 25.798C42.9816 25.7988 40.6412 25.7971 38.3003 25.798V31.9495H36.5543V24.1318H45.6492C46.486 24.1318 47.1652 24.8102 47.1652 25.6476V27.1879C47.1652 28.0254 46.486 28.7037 45.6492 28.7037H42.7913L47.2011 31.9495H44.241L38.2902 27.2816H45.3221ZM26.7211 25.7966H35.1452V24.1318H26.1783C25.3411 24.1318 24.6635 24.8102 24.6635 25.6476V30.4345C24.6635 31.2716 25.3411 31.9499 26.1783 31.9499H35.1452V30.286H26.7211C26.7211 30.286 26.4381 30.286 26.4381 29.9507V28.873H34.346V27.2087H26.4381V26.131C26.4381 25.7966 26.7211 25.7966 26.7211 25.7966ZM14.532 24.1318V27.0848H21.5097V24.1318H23.2538V31.9496H21.5097V28.9299H14.532V31.9496H12.7879V24.1318H14.532ZM1.03711 30.4345C1.03711 31.2715 1.71556 31.9499 2.55248 31.9499H11.3784V30.1386H3.09457C2.93901 30.1386 2.81278 30.0117 2.81278 29.8562V26.2255C2.81278 26.0694 2.93901 25.9431 3.09457 25.9431H11.3784V24.1318H2.55248C1.71556 24.1318 1.03711 24.8102 1.03711 25.6476L1.03711 30.4345ZM53.9037 27.765L57.6253 24.1323H60.1836L54.9158 29.2337V31.9495H52.7619V29.2469L47.4762 24.1323H50.0412L53.9037 27.765Z" fill="#C82127"/>
<path d="M9.65925 3.03254C4.33308 4.80138 1.03125 7.59222 1.03125 9.8524C1.03125 11.5426 3.21282 13.8225 6.77015 15.4537C12.1553 17.8908 20.7833 19.6596 30.6102 19.6596C41.5377 19.6596 51.0894 17.4584 56.219 14.53C58.7347 13.0756 60.1891 11.3068 60.1891 9.85239C60.1891 8.35871 58.7544 6.60952 56.3566 5.19445C51.3056 2.20708 41.7145 0.0058579 30.6102 0.00585938C22.4145 0.00586047 15.0051 1.24405 9.65925 3.03254ZM7.10426 15.3358C3.60589 13.7438 1.44398 11.5033 1.44398 9.87205C1.44398 7.65118 4.70651 4.93896 9.95406 3.20942C15.2213 1.46024 22.6307 0.261359 30.7084 0.261358C41.6556 0.261356 51.0108 2.38396 56.0028 5.31237C58.3613 6.70779 59.7763 8.39801 59.7763 9.87204C59.7763 11.2871 58.3416 13.0166 55.8456 14.4317C50.7946 17.2815 41.3804 19.4434 30.6102 19.4434C20.9209 19.4434 12.4108 17.7139 7.10426 15.3358Z" fill="url(#paint31_linear_2094_74371)"/>
</g>
<defs>
<linearGradient id="paint0_linear_2094_74371" x1="30.61" y1="19.6602" x2="30.61" y2="0.0488289" gradientUnits="userSpaceOnUse">
<stop stop-color="#BDBBB9"/>
<stop offset="0.13" stop-color="#BDBBB9"/>
<stop offset="0.23" stop-color="#928C8B"/>
<stop offset="0.36" stop-color="#E9E8E7"/>
<stop offset="0.58" stop-color="#2F2522"/>
<stop offset="0.65" stop-color="#3A302D"/>
<stop offset="0.75" stop-color="#504846"/>
<stop offset="0.87" stop-color="#7B7674"/>
<stop offset="1" stop-color="#7B7674"/>
</linearGradient>
<linearGradient id="paint1_linear_2094_74371" x1="56.7272" y1="10.7012" x2="32.3335" y2="-0.263163" gradientUnits="userSpaceOnUse">
<stop stop-color="#655F5D"/>
<stop offset="0.34" stop-color="#3A302D"/>
<stop offset="1" stop-color="#2F2522"/>
</linearGradient>
<radialGradient id="paint2_radial_2094_74371" cx="0" cy="0" r="1" gradientUnits="userSpaceOnUse" gradientTransform="translate(33.5782 1.81149) rotate(-161.908) scale(24.6785 3.53371)">
<stop stop-color="#7B7674"/>
<stop offset="0.87" stop-color="#3A302D"/>
<stop offset="1" stop-color="#231916"/>
</radialGradient>
<linearGradient id="paint3_linear_2094_74371" x1="4.60921" y1="10.6996" x2="28.7439" y2="-0.14837" gradientUnits="userSpaceOnUse">
<stop stop-color="#655F5D"/>
<stop offset="0.44" stop-color="#3A302D"/>
<stop offset="1" stop-color="#2F2522"/>
</linearGradient>
<radialGradient id="paint4_radial_2094_74371" cx="0" cy="0" r="1" gradientUnits="userSpaceOnUse" gradientTransform="translate(28.319 1.35338) rotate(-18.0923) scale(25.2819 3.62011)">
<stop stop-color="#7B7674"/>
<stop offset="0.87" stop-color="#3A302D"/>
<stop offset="1" stop-color="#231916"/>
</radialGradient>
<linearGradient id="paint5_linear_2094_74371" x1="30.6118" y1="19.4028" x2="30.6118" y2="0.222657" gradientUnits="userSpaceOnUse">
<stop stop-color="#413835"/>
<stop offset="0.01" stop-color="#413835"/>
<stop offset="0.18" stop-color="#453D3A"/>
<stop offset="0.23" stop-color="#58514E"/>
<stop offset="0.42" stop-color="#7D7776"/>
<stop offset="0.49" stop-color="#706A68"/>
<stop offset="0.66" stop-color="white"/>
<stop offset="0.82" stop-color="#D3D1D0"/>
<stop offset="0.96" stop-color="white"/>
<stop offset="1" stop-color="#BDBBB9"/>
</linearGradient>
<linearGradient id="paint6_linear_2094_74371" x1="14.3802" y1="20.7194" x2="17.1646" y2="10.3283" gradientUnits="userSpaceOnUse">
<stop stop-color="#504846"/>
<stop offset="0.65" stop-color="#95918F"/>
<stop offset="0.79" stop-color="#504846"/>
<stop offset="0.9" stop-color="#958F8E"/>
<stop offset="0.92" stop-color="#C7C5C4"/>
<stop offset="1" stop-color="white"/>
</linearGradient>
<linearGradient id="paint7_linear_2094_74371" x1="46.8179" y1="20.6238" x2="44.0675" y2="10.3596" gradientUnits="userSpaceOnUse">
<stop stop-color="#504846"/>
<stop offset="0.65" stop-color="#95918F"/>
<stop offset="0.79" stop-color="#504846"/>
<stop offset="0.9" stop-color="#958F8E"/>
<stop offset="0.92" stop-color="#C7C5C4"/>
<stop offset="1" stop-color="white"/>
</linearGradient>
<linearGradient id="paint8_linear_2094_74371" x1="20.3511" y1="13.9961" x2="19.9185" y2="11.5425" gradientUnits="userSpaceOnUse">
<stop stop-color="#655F5D"/>
<stop offset="0.08" stop-color="#B1AEAD"/>
<stop offset="0.52" stop-color="#E9E8E7"/>
<stop offset="0.97" stop-color="#77716F"/>
<stop offset="1" stop-color="#655F5D"/>
</linearGradient>
<linearGradient id="paint9_linear_2094_74371" x1="40.9877" y1="13.9834" x2="41.4193" y2="11.5352" gradientUnits="userSpaceOnUse">
<stop stop-color="#655F5D"/>
<stop offset="0.08" stop-color="#B1AEAD"/>
<stop offset="0.52" stop-color="#E9E8E7"/>
<stop offset="0.97" stop-color="#77716F"/>
<stop offset="1" stop-color="#655F5D"/>
</linearGradient>
<linearGradient id="paint10_linear_2094_74371" x1="33.8379" y1="10.6607" x2="42.064" y2="5.39656" gradientUnits="userSpaceOnUse">
<stop stop-color="#A6A2A1"/>
<stop offset="0.11" stop-color="#A6A2A1"/>
<stop offset="0.28" stop-color="#8B8585"/>
<stop offset="0.32" stop-color="#655F5D"/>
<stop offset="0.4" stop-color="#3A302D"/>
<stop offset="0.46" stop-color="#3A302D"/>
<stop offset="0.51" stop-color="#7B7674"/>
<stop offset="0.67" stop-color="#BDBBB9"/>
<stop offset="0.76" stop-color="#E9E8E7"/>
<stop offset="1" stop-color="#E9E8E7"/>
</linearGradient>
<linearGradient id="paint11_linear_2094_74371" x1="27.4234" y1="10.6608" x2="19.1972" y2="5.3966" gradientUnits="userSpaceOnUse">
<stop stop-color="#A6A2A1"/>
<stop offset="0.11" stop-color="#A6A2A1"/>
<stop offset="0.28" stop-color="#8B8585"/>
<stop offset="0.32" stop-color="#655F5D"/>
<stop offset="0.4" stop-color="#3A302D"/>
<stop offset="0.46" stop-color="#3A302D"/>
<stop offset="0.51" stop-color="#7B7674"/>
<stop offset="0.67" stop-color="#BDBBB9"/>
<stop offset="0.76" stop-color="#E9E8E7"/>
<stop offset="1" stop-color="#E9E8E7"/>
</linearGradient>
<linearGradient id="paint12_linear_2094_74371" x1="30.6319" y1="14.2974" x2="30.6319" y2="-0.565136" gradientUnits="userSpaceOnUse">
<stop stop-color="#E2E1E1"/>
<stop offset="0.03" stop-color="#E9E8E7"/>
<stop offset="0.66" stop-color="#D3D1D0"/>
<stop offset="1" stop-color="#504846"/>
</linearGradient>
<linearGradient id="paint13_linear_2094_74371" x1="4.2556" y1="15.2561" x2="56.3979" y2="15.2561" gradientUnits="userSpaceOnUse">
<stop stop-color="#504846"/>
<stop offset="0.08" stop-color="#504846"/>
<stop offset="0.26" stop-color="#453B3A"/>
<stop offset="0.5" stop-color="#716B69"/>
<stop offset="0.75" stop-color="#453B3A"/>
<stop offset="0.93" stop-color="#504846"/>
<stop offset="1" stop-color="#504846"/>
</linearGradient>
<linearGradient id="paint14_linear_2094_74371" x1="42.7565" y1="12.6669" x2="34.733" y2="7.85285" gradientUnits="userSpaceOnUse">
<stop stop-color="#231916"/>
<stop offset="1" stop-color="#504846"/>
</linearGradient>
<linearGradient id="paint15_linear_2094_74371" x1="18.7412" y1="12.4487" x2="26.4919" y2="7.79826" gradientUnits="userSpaceOnUse">
<stop stop-color="#231916"/>
<stop offset="1" stop-color="#504846"/>
</linearGradient>
<linearGradient id="paint16_linear_2094_74371" x1="54.2821" y1="8.58641" x2="53.4925" y2="11.8764" gradientUnits="userSpaceOnUse">
<stop stop-color="#3A302D"/>
<stop offset="0.18" stop-color="#3A302D"/>
<stop offset="0.39" stop-color="#A6A2A1"/>
<stop offset="0.49" stop-color="#E9E8E7"/>
<stop offset="0.6" stop-color="white"/>
<stop offset="1" stop-color="white"/>
</linearGradient>
<radialGradient id="paint17_radial_2094_74371" cx="0" cy="0" r="1" gradientUnits="userSpaceOnUse" gradientTransform="translate(20.0844 6.99999) rotate(-40.6315) scale(8.03734 0.735529)">
<stop stop-color="#504846"/>
<stop offset="0.01" stop-color="#504846"/>
<stop offset="1" stop-color="#928C8B"/>
</radialGradient>
<radialGradient id="paint18_radial_2094_74371" cx="0" cy="0" r="1" gradientUnits="userSpaceOnUse" gradientTransform="translate(41.2466 6.93513) rotate(-139.368) scale(8.0247 0.734374)">
<stop stop-color="#504846"/>
<stop offset="0.01" stop-color="#504846"/>
<stop offset="1" stop-color="#928C8B"/>
</radialGradient>
<linearGradient id="paint19_linear_2094_74371" x1="8.9541" y1="9.10525" x2="56.5149" y2="9.10525" gradientUnits="userSpaceOnUse">
<stop stop-color="#A4A09F"/>
<stop offset="0.44" stop-color="white"/>
<stop offset="0.76" stop-color="#928C8B"/>
<stop offset="1" stop-color="white"/>
</linearGradient>
<linearGradient id="paint20_linear_2094_74371" x1="17.665" y1="8.31933" x2="27.6606" y2="8.31933" gradientUnits="userSpaceOnUse">
<stop stop-color="#3A302D"/>
<stop offset="0.17" stop-color="#3A302D"/>
<stop offset="0.35" stop-color="#A6A2A1"/>
<stop offset="0.47" stop-color="#E9E8E7"/>
<stop offset="0.68" stop-color="#928C8B"/>
<stop offset="0.95" stop-color="#3A302D"/>
<stop offset="1" stop-color="#3A302D"/>
</linearGradient>
<linearGradient id="paint21_linear_2094_74371" x1="6.98009" y1="8.61033" x2="7.76994" y2="11.9014" gradientUnits="userSpaceOnUse">
<stop stop-color="#3A302D"/>
<stop offset="0.18" stop-color="#3A302D"/>
<stop offset="0.39" stop-color="#A6A2A1"/>
<stop offset="0.49" stop-color="#E9E8E7"/>
<stop offset="0.6" stop-color="white"/>
<stop offset="1" stop-color="white"/>
</linearGradient>
<linearGradient id="paint22_linear_2094_74371" x1="16.6041" y1="13.6217" x2="16.8184" y2="14.4895" gradientUnits="userSpaceOnUse">
<stop stop-color="#231916"/>
<stop offset="1" stop-color="#504846"/>
</linearGradient>
<linearGradient id="paint23_linear_2094_74371" x1="44.8479" y1="13.5928" x2="44.6738" y2="14.2978" gradientUnits="userSpaceOnUse">
<stop stop-color="#231916"/>
<stop offset="1" stop-color="#504846"/>
</linearGradient>
<linearGradient id="paint24_linear_2094_74371" x1="24.1565" y1="2.35113" x2="29.0982" y2="1.40253" gradientUnits="userSpaceOnUse">
<stop stop-color="#2F2522"/>
<stop offset="0.01" stop-color="#2F2522"/>
<stop offset="0.63" stop-color="#3A302D"/>
<stop offset="0.67" stop-color="#504846"/>
<stop offset="0.71" stop-color="#7B7674"/>
<stop offset="0.8" stop-color="#7B7674"/>
<stop offset="0.89" stop-color="#504846"/>
<stop offset="1" stop-color="#3A302D"/>
</linearGradient>
<linearGradient id="paint25_linear_2094_74371" x1="37.2009" y1="2.45603" x2="32.1566" y2="1.55703" gradientUnits="userSpaceOnUse">
<stop stop-color="#2F2522"/>
<stop offset="0.01" stop-color="#2F2522"/>
<stop offset="0.63" stop-color="#3A302D"/>
<stop offset="0.67" stop-color="#504846"/>
<stop offset="0.71" stop-color="#7B7674"/>
<stop offset="0.8" stop-color="#7B7674"/>
<stop offset="0.89" stop-color="#504846"/>
<stop offset="1" stop-color="#3A302D"/>
</linearGradient>
<linearGradient id="paint26_linear_2094_74371" x1="17.4433" y1="15.2324" x2="43.9465" y2="15.2324" gradientUnits="userSpaceOnUse">
<stop stop-color="#A6A2A1"/>
<stop offset="0.5" stop-color="#655F5D"/>
<stop offset="1" stop-color="#A6A2A1"/>
</linearGradient>
<linearGradient id="paint27_linear_2094_74371" x1="17.833" y1="10.9954" x2="9.01257" y2="7.46718" gradientUnits="userSpaceOnUse">
<stop stop-color="#7B7674"/>
<stop offset="0.01" stop-color="#7B7674"/>
<stop offset="0.3" stop-color="#E9E8E7"/>
<stop offset="0.55" stop-color="#B0ADAC"/>
<stop offset="0.8" stop-color="#3A302D"/>
<stop offset="1" stop-color="#3A302D"/>
</linearGradient>
<linearGradient id="paint28_linear_2094_74371" x1="42.2637" y1="11.5563" x2="52.2686" y2="7.55438" gradientUnits="userSpaceOnUse">
<stop stop-color="#7B7674"/>
<stop offset="0.01" stop-color="#7B7674"/>
<stop offset="0.3" stop-color="#E9E8E7"/>
<stop offset="0.55" stop-color="#B0ADAC"/>
<stop offset="0.8" stop-color="#3A302D"/>
<stop offset="1" stop-color="#3A302D"/>
</linearGradient>
<linearGradient id="paint29_linear_2094_74371" x1="27.4333" y1="1.52276" x2="20.9312" y2="2.16022" gradientUnits="userSpaceOnUse">
<stop stop-color="#3A302D"/>
<stop offset="0.14" stop-color="#7B7674"/>
<stop offset="1" stop-color="#3A302D"/>
</linearGradient>
<linearGradient id="paint30_linear_2094_74371" x1="33.6242" y1="1.52419" x2="40.1264" y2="2.16165" gradientUnits="userSpaceOnUse">
<stop stop-color="#3A302D"/>
<stop offset="0.14" stop-color="#7B7674"/>
<stop offset="1" stop-color="#3A302D"/>
</linearGradient>
<linearGradient id="paint31_linear_2094_74371" x1="30.6102" y1="19.6596" x2="30.6102" y2="0.00586012" gradientUnits="userSpaceOnUse">
<stop stop-color="#2F2522"/>
<stop offset="0.07" stop-color="#2F2522"/>
<stop offset="0.28" stop-color="#BDBBB9"/>
<stop offset="0.38" stop-color="#E9E8E7"/>
<stop offset="0.56" stop-color="#504846"/>
<stop offset="0.8" stop-color="#A09B9A"/>
<stop offset="1" stop-color="white"/>
</linearGradient>
<clipPath id="clip0_2094_74371">
<rect width="59.2464" height="32" fill="white" transform="translate(0.951172)"/>
</clipPath>
</defs>
</svg>
