<svg width="195" height="32" viewBox="0 0 195 32" fill="none" xmlns="http://www.w3.org/2000/svg">
<g clipPath="url(#clip0_2094_72682)">
<path fillRule="evenodd" clipRule="evenodd" d="M36.3223 1.63184H190.396C192.612 1.63184 194.09 3.49405 194.09 5.35627V26.9579C194.09 29.1926 192.243 30.6823 190.396 30.6823H36.3223C35.5834 30.6823 34.8444 30.3099 34.1055 29.9375C36.6918 26.5855 38.5392 21.7437 38.5392 16.5296C38.5392 11.3153 37.0612 6.4736 34.4749 2.37672C34.8444 2.00428 35.5834 1.63184 36.3223 1.63184Z" fill="#0099A2"/>
<path d="M176.725 16.5298C176.725 15.4125 177.094 14.2951 178.572 14.2951V19.1368C177.464 18.3919 176.725 17.6471 176.725 16.5298ZM181.528 13.9226C182.637 14.2951 183.006 15.4125 183.006 16.5298C183.006 17.6471 182.267 18.3919 181.159 18.7644V13.9226H181.528ZM178.572 11.3156C175.247 11.688 173.769 13.9226 173.769 16.5298C173.769 18.7644 175.247 20.9991 178.572 21.7439V22.8612H181.528V21.3715C184.484 20.9991 186.331 18.7644 186.331 16.1573C186.331 13.9226 184.853 11.6881 181.528 10.9431V10.1982H178.572V11.3156ZM166.749 16.1573V13.1778H168.596C170.444 13.1778 170.444 16.1573 168.596 16.1573H166.749ZM163.793 10.1982V22.4888H166.749V18.7644H168.596C174.139 18.7644 174.139 10.1982 168.596 10.1982H163.793ZM161.206 19.5093C160.468 19.5093 159.728 20.2542 159.728 20.9991C159.728 21.7439 160.468 22.4888 161.206 22.4888C162.315 22.4888 162.684 21.7439 162.684 20.9991C163.055 20.2542 162.315 19.5093 161.206 19.5093ZM153.078 15.0399L154.187 17.6471V18.0195H152.34V17.6471L153.078 15.0399ZM155.665 22.4888H158.99L153.818 10.1982H151.6L146.797 22.4888H150.122L150.862 20.6266H154.925L155.665 22.4888ZM146.058 10.1982H142.363L139.038 15.0399V10.1982H136.082V22.4888H139.038V17.6471L142.733 22.4888H146.428L141.624 16.5298L146.058 10.1982ZM129.431 18.0195H134.605V15.0399H129.8V13.1778H134.605V10.1982H126.475V22.4888H134.605V19.5093H129.431V18.0195ZM122.042 22.4888V13.1778H125.368V10.1982H115.761V13.1778H119.086V22.4888H122.042ZM105.415 10.1982V22.4888H108.371V13.1778H111.696V22.4888H114.652V10.1982H105.415ZM98.7646 15.0399L99.8731 17.6471V18.0195H97.6562V17.6471L98.7646 15.0399ZM101.351 22.4888H104.676L99.5036 10.1982H97.6562L92.853 22.4888H96.1783L96.9172 20.6266H100.982L101.351 22.4888ZM89.1581 15.7849H87.3108C85.4634 15.7849 85.4634 13.1778 87.3108 13.1778H89.1581V15.7849ZM89.1581 18.3919V22.4888H92.114V10.1982H87.3108C82.5075 10.1982 81.7685 16.1573 85.4634 18.0195L82.8769 21.7439V22.4888H86.2023L88.7887 18.3919H89.1581ZM72.1621 16.5298C72.1621 12.0605 78.8127 12.0605 78.8127 16.5298C78.8127 20.9991 72.1621 20.9991 72.1621 16.5298ZM69.2062 16.5298C69.2062 19.8818 71.7926 22.8612 75.4874 22.8612C78.8127 22.8612 81.7685 20.2542 81.7685 16.5298C81.7685 12.8053 78.8127 10.1982 75.4874 10.1982C71.7926 10.1982 69.2062 12.8053 69.2062 16.5298ZM61.4472 17.6471H64.0335C65.1419 17.6471 65.1419 19.8818 64.0335 19.8818H61.4472V17.6471ZM58.4913 10.1982V22.4888H64.0335C66.6198 22.4888 68.0978 20.6266 68.0978 18.3919C68.0978 17.2746 67.7282 16.1573 66.2504 15.7849C68.4672 14.2951 66.9894 10.1982 64.0335 10.1982H58.4913ZM61.4472 13.1778H63.6641C64.7725 13.1778 64.7725 15.0399 63.6641 15.0399H61.4472V13.1778ZM54.0575 22.4888V13.1778H57.3829V10.1982H47.7764V13.1778H51.1017V22.4888H54.0575Z" fill="white"/>
<path fillRule="evenodd" clipRule="evenodd" d="M1.09277 20.0211V11.8506C1.09277 10.6401 2.00017 10.0349 2.90758 10.0349H11.0742V1.86449C11.0742 0.956653 11.9816 0.0488281 13.1915 0.0488281H21.0556C22.2655 0.0488281 22.8704 0.956653 22.8704 1.86449V10.0349H31.037C32.2469 10.0349 32.8518 10.9427 32.8518 11.8506V20.0211C31.3394 19.4158 29.8272 18.8106 28.3148 18.2054L21.0556 15.482C20.7531 15.482 20.4507 15.1793 20.1482 15.1793L19.2408 14.8767C15.9137 13.061 15.3088 13.061 12.889 10.0349C12.5865 11.2453 12.889 13.6663 13.4939 14.8767C15.3088 19.4158 20.4507 20.9289 24.3827 21.8368H22.8704V22.1394C20.7531 21.8368 17.7284 20.9289 16.5185 19.4158C16.2162 20.0211 16.5185 20.6263 16.821 21.8368C17.1235 23.0471 18.3334 24.2576 18.9383 24.5602C19.8457 25.1654 20.7531 25.468 21.6606 25.7706C21.963 25.7706 22.2655 25.7706 22.8704 26.0733V26.9811C21.6606 26.6785 20.1482 26.3759 19.2408 26.0733C19.5433 27.5863 21.0556 28.7968 23.1729 29.4019V30.0071C23.1729 31.2176 22.2655 31.8228 21.3581 31.8228H13.1915C11.9816 31.8228 11.3767 30.915 11.3767 30.0071V21.8368H2.90758C2.00017 21.8368 1.09277 20.9289 1.09277 20.0211Z" fill="#EF3940"/>
</g>
<defs>
<clipPath id="clip0_2094_72682">
<rect width="193.362" height="32" fill="white" transform="translate(0.974609)"/>
</clipPath>
</defs>
</svg>
