<svg width="53" height="32" viewBox="0 0 53 32" fill="none" xmlns="http://www.w3.org/2000/svg">
<g clipPath="url(#clip0_2094_72709)">
<path d="M6.74975 18.2036C6.74974 15.9553 6.74978 13.707 6.74963 11.4588C6.74962 11.3376 6.75624 11.2157 6.74535 11.0955C6.7221 10.8389 6.59166 10.7067 6.33854 10.6813C6.23182 10.6706 6.12334 10.6766 6.01565 10.6766C4.33281 10.6764 2.64998 10.6765 0.967137 10.6764C0.8729 10.6764 0.778536 10.6791 0.684447 10.6753C0.385768 10.6633 0.371065 10.6564 0.370065 10.3433C0.366189 9.13165 0.36614 7.91999 0.370459 6.70837C0.371494 6.41884 0.381942 6.40821 0.666549 6.4076C2.30899 6.4041 3.95145 6.40888 5.59387 6.40235C5.80121 6.40152 5.87778 6.48159 5.90245 6.67785C6.12469 8.44542 7.01464 9.79073 8.50409 10.7477C9.14685 11.1607 9.85373 11.4092 10.6098 11.516C11.0166 11.5735 11.0193 11.5712 11.0194 11.9816C11.02 16.1685 11.0276 20.3555 11.0126 24.5423C11.0099 25.3037 11.2416 25.344 11.795 25.3401C13.4912 25.3283 15.1876 25.3358 16.8839 25.336C16.9916 25.336 17.0992 25.3395 17.2069 25.3395C17.3421 25.3395 17.3996 25.4113 17.3991 25.5407C17.3988 25.6214 17.4013 25.7022 17.4013 25.7829C17.4015 26.9138 17.4015 28.0447 17.4013 29.1756C17.4013 29.2563 17.3968 29.3371 17.3986 29.4178C17.4017 29.5579 17.325 29.607 17.1967 29.6047C17.116 29.6032 17.0352 29.6067 16.9544 29.6067C15.0831 29.6069 13.2118 29.6108 11.3405 29.6058C9.06776 29.5996 7.11379 27.8818 6.79724 25.6304C6.7633 25.389 6.74963 25.1499 6.74965 24.908C6.74981 22.6732 6.74975 20.4384 6.74975 18.2036Z" fill="#737C85"/>
<path d="M22.6324 6.40534C23.5613 6.40535 24.4902 6.40266 25.4191 6.40588C27.7287 6.41386 29.7388 8.28844 29.9295 10.5882C29.9664 11.0318 29.975 11.4734 29.9755 11.9166C29.9772 13.4513 29.9763 14.986 29.9761 16.5206C29.976 17.1051 30.0075 17.0571 29.4198 17.0577C28.3428 17.0589 27.2659 17.0583 26.1889 17.058C25.6234 17.0578 25.6535 17.0913 25.6535 16.5401C25.6534 14.8439 25.6535 13.1477 25.6534 11.4514C25.6534 11.3437 25.6569 11.2359 25.6517 11.1284C25.6363 10.8071 25.5339 10.7027 25.2087 10.6794C25.1015 10.6717 24.9934 10.6765 24.8857 10.6765C23.1895 10.6763 21.4933 10.6764 19.797 10.6762C19.6894 10.6761 19.5817 10.6734 19.474 10.6719C19.3422 10.6701 19.2777 10.6016 19.2758 10.4713C19.2746 10.3905 19.272 10.3098 19.272 10.229C19.2717 9.09823 19.2709 7.96741 19.2723 6.83659C19.2728 6.40747 19.2752 6.40607 19.7246 6.40563C20.6939 6.40469 21.6631 6.40534 22.6324 6.40534Z" fill="#737C85"/>
<path d="M14.079 10.6709C13.191 10.671 12.3027 10.6596 11.4149 10.6733C9.13132 10.7084 7.08152 8.9684 6.7986 6.65977C6.77232 6.44529 6.7546 6.23313 6.75458 6.01833C6.75438 4.20181 6.75446 2.38529 6.7545 0.568778C6.7545 0.474588 6.76129 0.379899 6.75385 0.286318C6.739 0.0994182 6.81021 0.0224849 7.00676 0.0234069C8.25811 0.0292692 9.50954 0.0316138 10.7608 0.0215088C10.9937 0.0196278 11.0207 0.126513 11.0199 0.314177C11.0151 1.37716 11.0177 2.44016 11.0177 3.50316C11.0178 4.25668 11.0165 5.0102 11.0182 5.76372C11.0194 6.28546 11.1379 6.40654 11.654 6.40697C13.3763 6.40841 15.0986 6.40752 16.8209 6.40754C16.9151 6.40754 17.0094 6.4055 17.1035 6.40811C17.3898 6.41602 17.3959 6.41668 17.398 6.6972C17.4022 7.28922 17.3994 7.88129 17.3994 8.47335C17.3994 9.09231 17.4016 9.71128 17.3985 10.3302C17.3968 10.6629 17.3927 10.6688 17.0662 10.6697C16.0705 10.6728 15.0748 10.6709 14.079 10.6709Z" fill="#E65125"/>
<path d="M29.9716 3.15709C29.9717 4.05869 29.9691 4.96029 29.9728 5.86187C29.9746 6.30957 30.0725 6.40684 30.5214 6.40741C32.2842 6.40964 34.0471 6.40834 35.8099 6.40839C35.9041 6.40839 35.9988 6.41492 36.0924 6.40753C36.2789 6.39281 36.3607 6.463 36.3555 6.66033C36.3454 7.0503 36.3532 7.44073 36.3532 7.83098C36.3533 8.66529 36.3558 9.49961 36.3518 10.3339C36.3502 10.663 36.3435 10.67 36.0074 10.6705C34.3926 10.6731 32.7778 10.6731 31.163 10.6705C30.8523 10.67 30.8432 10.6638 30.8088 10.3677C30.52 7.87545 28.4595 5.80046 25.8763 5.53434C25.7238 5.51863 25.6565 5.46337 25.6592 5.31447C25.6606 5.23379 25.6573 5.15302 25.6573 5.07229C25.6572 3.53824 25.6572 2.00418 25.6573 0.470127C25.6573 0.389398 25.661 0.308611 25.659 0.227948C25.6558 0.0975124 25.7096 0.0247657 25.8476 0.0283995C25.9013 0.029817 25.9552 0.0268051 26.009 0.0267977C27.2067 0.0266819 28.4043 0.0256122 29.6019 0.0273552C29.967 0.0278852 29.9701 0.0314588 29.9709 0.411944C29.9728 1.32699 29.9715 2.24204 29.9716 3.15709Z" fill="#E65125"/>
<path d="M45.7304 29.1363C45.6159 29.1353 45.5468 29.2256 45.4622 29.2856C44.7134 29.8168 43.8935 29.8801 43.0375 29.6332C42.5875 29.5034 42.3342 29.1658 42.187 28.7333C42.02 28.2423 41.9878 27.7303 41.9771 27.2225C41.9556 26.1998 41.9684 25.1764 41.9737 24.1533C41.9744 24.03 41.9042 23.8479 42.0749 23.8007C42.2788 23.7441 42.5024 23.7384 42.707 23.8146C42.787 23.8444 42.7649 23.9566 42.7654 24.0351C42.7676 24.3986 42.767 24.7621 42.7671 25.1255C42.7672 25.8929 42.773 26.6603 42.764 27.4275C42.7608 27.6991 42.7992 27.9641 42.8431 28.2281C42.9131 28.6487 43.1339 28.8748 43.5612 28.9283C44.151 29.0022 44.7419 29.0026 45.3193 28.8232C45.7319 28.695 45.7384 28.69 45.7387 28.2653C45.7398 26.9461 45.7391 25.6268 45.7392 24.3075C45.7393 24.1998 45.7446 24.092 45.7404 23.9845C45.7343 23.8271 45.8127 23.7659 45.9615 23.7747C45.9883 23.7763 46.0153 23.7747 46.0422 23.7738C46.5338 23.7567 46.5352 23.7567 46.5355 24.2444C46.5363 25.5367 46.5349 26.8291 46.5363 28.1215C46.5368 28.5235 46.4971 28.9303 46.6509 29.3174C46.7099 29.4661 46.6569 29.5481 46.5075 29.5801C46.4549 29.5914 46.4018 29.6008 46.3497 29.614C46.0933 29.6788 45.9246 29.5896 45.8435 29.3462C45.8225 29.2833 45.7948 29.2224 45.7678 29.1617C45.7632 29.1514 45.7463 29.1467 45.7304 29.1363Z" fill="#727C84"/>
<path d="M32.6965 24.3167C32.9724 24.1425 33.1882 23.9618 33.4385 23.8334C33.9199 23.5863 34.4213 23.5894 34.9291 23.6996C35.1765 23.7532 35.185 23.7902 35.132 24.0378C35.0249 24.5384 35.0258 24.5329 34.5231 24.4479C34.0075 24.3606 33.5111 24.4371 33.0227 24.6239C32.8103 24.7051 32.7446 24.8239 32.7466 25.0445C32.7562 26.1599 32.7509 27.2754 32.7508 28.3909C32.7508 28.6865 32.7541 28.9823 32.7497 29.2779C32.7449 29.5963 32.7418 29.5963 32.4452 29.6061C31.956 29.6224 31.9546 29.6224 31.9543 29.1347C31.9535 27.8445 31.953 26.5543 31.9547 25.2641C31.9552 24.8746 31.978 24.4843 31.8043 24.1168C31.7217 23.9418 31.7891 23.8348 31.9773 23.8003C32.0169 23.7931 32.0563 23.7846 32.0954 23.7747C32.3437 23.7118 32.508 23.8023 32.5883 24.0459C32.6134 24.1217 32.6473 24.1944 32.6965 24.3167Z" fill="#727C84"/>
<path d="M30.6767 23.867C30.6398 23.7365 30.4965 23.7751 30.395 23.7756C29.3727 23.7809 28.3494 23.739 27.3285 23.8066C26.815 23.8406 26.3174 23.9475 25.9382 24.3519C25.6325 24.678 25.5445 25.0794 25.5228 25.5008C25.4851 26.2321 25.539 26.9342 26.2499 27.3796C26.2664 27.3899 26.2655 27.4279 26.2727 27.4526C25.6618 27.9769 25.6863 28.6486 26.2743 29.0053C26.2055 29.1381 26.1014 29.1806 26.0215 29.2493C25.5647 29.6422 25.3878 30.1418 25.4778 30.7304C25.5658 31.3058 25.9422 31.6272 26.4802 31.7622C27.4069 31.9947 28.3454 32.0002 29.275 31.797C30.019 31.6343 30.5205 31.3136 30.5972 30.3517C30.6786 29.3302 30.3625 28.7575 29.383 28.6032C28.8919 28.5258 28.3977 28.4854 27.9002 28.4859C27.6313 28.4862 27.3611 28.5028 27.0946 28.4552C26.696 28.384 26.5915 28.2542 26.6006 27.8575C26.6075 27.5531 26.6234 27.5377 26.9186 27.5704C27.0519 27.5852 27.184 27.6125 27.3175 27.6224C27.952 27.6693 28.5799 27.6412 29.1865 27.4263C29.5869 27.2844 29.8966 27.0268 30.0393 26.6233C30.2856 25.9271 30.2071 25.2738 29.7111 24.6969C29.655 24.6316 29.5484 24.5871 29.6043 24.4362C29.8745 24.4362 30.1545 24.4379 30.4344 24.4352C30.5126 24.4345 30.6151 24.4573 30.6563 24.3768C30.7393 24.2148 30.7236 24.0324 30.6767 23.867ZM26.7647 29.1196C27.5082 29.2622 28.2679 29.1367 29.0126 29.2569C29.5265 29.3397 29.7028 29.5211 29.7431 30.0065C29.7884 30.5507 29.6072 30.8838 29.1759 31.0435C28.791 31.186 28.3827 31.1599 27.9839 31.2158C27.6256 31.1637 27.2589 31.1822 26.9094 31.0709C26.5261 30.9489 26.3618 30.7352 26.3423 30.3343C26.3251 29.9812 26.372 29.6377 26.5009 29.3058C26.5498 29.1797 26.6136 29.0906 26.7647 29.1196ZM29.2769 26.285C29.2034 26.5937 29.0216 26.7861 28.7143 26.8449C28.1426 26.9543 27.569 26.9686 26.9951 26.8507C26.6344 26.7765 26.4329 26.5532 26.3779 26.1974C26.3264 25.8636 26.3231 25.527 26.3744 25.1928C26.4373 24.7825 26.6354 24.5882 27.0501 24.5021C27.4218 24.4248 27.7977 24.4357 28.1736 24.4376C28.3753 24.4373 28.5777 24.4479 28.7785 24.4344C28.9855 24.4205 29.1131 24.5017 29.1692 24.6978C29.3181 25.219 29.4058 25.743 29.2769 26.285Z" fill="#727C84"/>
<path d="M52.6923 25.2534C52.6543 25.0011 52.5765 24.7564 52.4572 24.5273C52.2689 24.1654 51.9922 23.8927 51.6011 23.7755C50.7645 23.5247 49.9558 23.5633 49.2103 24.0749C49.1259 24.1329 49.0586 24.2369 48.9226 24.1873C48.9176 24.1367 48.9036 24.0828 48.9087 24.0307C48.9266 23.8432 48.8557 23.7741 48.6587 23.7692C48.1646 23.7569 48.1635 23.7466 48.1634 24.2357C48.1629 26.6042 48.1631 28.9727 48.1634 31.3413C48.1634 31.4354 48.1634 31.5298 48.1685 31.6237C48.1722 31.6923 48.1878 31.7682 48.2716 31.7719C48.4455 31.7796 48.6202 31.7793 48.7943 31.7731C48.8779 31.7701 48.8981 31.6978 48.9013 31.6281C48.9063 31.5206 48.9066 31.4128 48.9067 31.3052C48.9071 30.606 48.9069 29.9069 48.9069 29.1859C49.0796 29.1797 49.1474 29.2738 49.2321 29.3325C49.6068 29.5923 50.0265 29.7431 50.4757 29.758C51.7572 29.8006 52.512 29.3528 52.7045 28.0239C52.8381 27.1009 52.8312 26.1756 52.6923 25.2534ZM51.8769 28.0633C51.7725 28.6684 51.5338 28.9124 50.9845 28.9889C50.3869 29.0722 49.8124 29.0161 49.2454 28.8043C48.9958 28.7111 48.8871 28.5843 48.8999 28.3031C48.9242 27.7666 48.9069 27.2282 48.907 26.6906C48.9071 26.1395 48.9182 25.5881 48.9017 25.0376C48.895 24.811 48.9816 24.6926 49.1801 24.6111C49.8337 24.3427 50.5037 24.2797 51.1909 24.4408C51.5027 24.5139 51.6977 24.7197 51.8038 25.0222C51.9077 25.3185 51.933 25.6306 51.9468 25.9339C51.9792 26.6438 51.9985 27.3582 51.8769 28.0633Z" fill="#727C84"/>
<path d="M40.6245 25.9639C40.605 25.5923 40.5452 25.2185 40.4253 24.8577C40.21 24.2104 39.7731 23.8306 39.1065 23.6995C38.6265 23.6051 38.1381 23.6019 37.6615 23.6532C36.7726 23.7488 36.1686 23.996 35.8964 25.2182C35.7898 25.6964 35.804 26.1791 35.8041 26.7554C35.7968 27.1595 35.7855 27.6576 35.8972 28.1465C36.0781 28.9385 36.4336 29.5479 37.455 29.7035C37.9383 29.7771 38.4189 29.793 38.8981 29.7186C39.8268 29.5744 40.2927 29.1262 40.503 28.2089C40.6728 27.4677 40.6638 26.7142 40.6245 25.9639ZM39.7095 28.0554C39.5889 28.7221 39.4089 28.9225 38.7538 29.0002C38.316 29.0522 37.871 29.0593 37.4308 28.9625C37.0771 28.8847 36.8694 28.6743 36.7687 28.335C36.6684 27.9968 36.644 27.6464 36.6348 27.3005C36.6193 26.7106 36.6114 26.12 36.679 25.5296C36.7688 24.7464 37.026 24.4557 37.8059 24.3673C38.2075 24.3218 38.6119 24.3487 39.008 24.4379C39.4161 24.5298 39.5969 24.8283 39.6843 25.2063C39.7696 25.5752 39.7728 25.9518 39.7888 26.3271C39.794 26.4479 39.7896 26.5692 39.7896 26.6903C39.7907 27.1469 39.7911 27.6038 39.7095 28.0554Z" fill="#727C84"/>
</g>
<defs>
<clipPath id="clip0_2094_72709">
<rect width="52.5318" height="32" fill="white" transform="translate(0.335938)"/>
</clipPath>
</defs>
</svg>
