<svg width="47" height="32" viewBox="0 0 47 32" fill="none" xmlns="http://www.w3.org/2000/svg">
<g clipPath="url(#clip0_2094_74499)">
<mask id="mask0_2094_74499" style="mask-type:luminance" maskUnits="userSpaceOnUse" x="0" y="0" width="47" height="32">
<path d="M46.5772 0.000976562H0.167969V31.9718H46.5772V0.000976562Z" fill="white"/>
</mask>
<g mask="url(#mask0_2094_74499)">
<path fillRule="evenodd" clipRule="evenodd" d="M18.7102 4.07636C18.7117 4.11205 18.6725 4.11834 18.6557 4.07846C17.9618 2.68798 18.634 1.72416 19.9867 1.14923C20.3288 0.999551 21.059 0.670819 21.2961 0.368664C21.3205 0.332992 21.3604 0.33509 21.3709 0.369362C21.5311 0.921216 21.6122 1.47447 21.6423 2.02912C21.7108 3.9106 19.5656 4.83104 19.2642 4.2729C19.0942 3.93927 19.074 3.56648 19.1677 3.1643C19.281 2.76702 19.4656 2.47256 19.7125 2.26902C19.9538 2.05919 20.2308 1.86755 20.6295 1.73955C20.1308 1.81019 19.6769 1.98505 19.2747 2.28021C18.7068 2.75513 18.6648 3.39021 18.7102 4.07636Z" fill="#587A38"/>
<path fillRule="evenodd" clipRule="evenodd" d="M17.992 4.02364C17.9934 4.04602 18.0179 4.04671 18.0256 4.02155C18.3655 3.12276 17.8912 2.57231 17.0226 2.30303C16.8029 2.23238 16.3329 2.07571 16.1679 1.90505C16.1504 1.88476 16.1259 1.88826 16.1217 1.90994C16.0574 2.25966 16.0426 2.60518 16.0587 2.9479C16.135 4.10966 17.5122 4.54123 17.6625 4.17889C17.7465 3.9628 17.7353 3.73268 17.6527 3.49066C17.5583 3.25356 17.4261 3.08359 17.2611 2.97448C17.0995 2.86047 16.917 2.76045 16.6637 2.7066C16.975 2.71849 17.2653 2.79822 17.531 2.9542C17.9108 3.21089 17.9766 3.59909 17.992 4.02364Z" fill="#587A38"/>
<path opacity="0.9" d="M24.1686 14.5037V7.67446L18.3312 4.5459L12.6084 7.67446V14.5037H24.1686Z" fill="url(#paint0_linear_2094_74499)"/>
<path opacity="0.9" d="M29.5919 14.5034V10.7222L25.2576 8.39941L21.0078 10.7222V14.5034H29.5919Z" fill="url(#paint1_linear_2094_74499)"/>
<path opacity="0.9" d="M32.8963 14.5039V12.5448L30.4762 11.248L28.1045 12.5448V14.5039H32.8963Z" fill="url(#paint2_linear_2094_74499)"/>
<path d="M45.7685 14.1348H0.387695V15.7658H45.7685V14.1348Z" fill="#587A38"/>
<path d="M0.167969 18.5654H4.03723V19.3635H2.50338V24.1483H1.70113V19.3635H0.167969V18.5654Z" fill="#1B1C1B"/>
<path d="M7.14113 23.3503H10.0263V24.1483H6.33887V18.5654H9.95494V19.3635H7.14113V20.8393H9.37022V21.6373H7.14113V23.3503Z" fill="#1B1C1B"/>
<path d="M16.6699 18.5654V24.1483H15.8676V19.3635H13.3462V24.1483H12.5439V18.5654H16.6699Z" fill="#1B1C1B"/>
<path d="M23.5684 18.5661V24.149H22.7662V19.3642H20.905V20.2399C20.905 21.0421 20.8693 21.7129 20.798 22.2528C20.7266 22.7928 20.6189 23.2027 20.4755 23.4831C20.3314 23.7636 20.1734 23.9574 20.0013 24.0651C19.8293 24.1728 19.6194 24.2266 19.3718 24.2266C19.2837 24.2266 19.1914 24.2161 19.0934 24.1952C18.9962 24.1742 18.92 24.1539 18.8654 24.1329L18.7871 24.1098V23.2726C18.9319 23.3244 19.0655 23.3503 19.1865 23.3503C19.3271 23.3503 19.4474 23.3118 19.5481 23.2355C19.6488 23.1593 19.7446 23.0152 19.8349 22.8054C19.9251 22.5948 19.9915 22.2759 20.0349 21.8479C20.0776 21.4198 20.0992 20.8833 20.0992 20.2399V18.5654H23.5684V18.5661Z" fill="#1B1C1B"/>
<path d="M30.7976 24.1486H29.9953V20.1234L27.1458 24.1493H26.4541V18.5664H27.2563V22.5958L30.1058 18.5664H30.7976V24.1486Z" fill="#1B1C1B"/>
<path d="M33.6836 24.1483V18.5654H34.4859V23.3503H36.9325V18.5654H37.7346V23.3503H38.3585V25.3437H37.552V24.1483H33.6836Z" fill="#1B1C1B"/>
<path d="M42.6994 24.1483H40.7275V18.5654H41.5299V20.5588H42.6994C43.1869 20.5588 43.5946 20.7337 43.9226 21.0827C44.2509 21.4317 44.4152 21.8563 44.4152 22.3557C44.4152 22.8551 44.2509 23.2789 43.9226 23.6265C43.5946 23.9749 43.1869 24.1483 42.6994 24.1483ZM41.5299 23.3503H42.6994C42.9511 23.3503 43.1666 23.2551 43.345 23.0642C43.5234 22.8732 43.6121 22.6375 43.6121 22.3557C43.6121 22.0738 43.5234 21.8374 43.345 21.645C43.1666 21.4527 42.9511 21.3569 42.6994 21.3569H41.5299V23.3503ZM45.8769 18.5654V24.1483H45.0711V18.5654H45.8769Z" fill="#1B1C1B"/>
<path d="M0.75293 26.4697H2.79597C3.28348 26.4697 3.69126 26.6446 4.02067 26.9936C4.3501 27.3426 4.51449 27.7672 4.51449 28.2666C4.51449 28.766 4.3501 29.1898 4.02067 29.5374C3.69126 29.885 3.28278 30.0592 2.79597 30.0592H1.55518V32.0526H0.75293V26.4697ZM2.79668 27.2678H1.55518V29.2612H2.79597C3.04777 29.2612 3.26319 29.166 3.44155 28.9751C3.6199 28.7841 3.70873 28.5484 3.70873 28.2666C3.70873 27.9847 3.6199 27.7483 3.44155 27.5559C3.26319 27.3643 3.04847 27.2678 2.79668 27.2678Z" fill="#1B1C1B"/>
<path d="M7.05324 31.2546H9.93841V32.0526H6.25098V26.4697H9.86705V27.2678H7.05324V28.7436H9.28232V29.5416H7.05324V31.2546Z" fill="#1B1C1B"/>
<path d="M11.6025 32.0526V26.4697H14.8871V27.2678H12.4055V32.0526H11.6025Z" fill="#1B1C1B"/>
<path d="M20.6022 32.0519H19.8V28.0267L16.9505 32.0526H16.2588V26.4697H17.061V30.4991L19.9105 26.4697H20.6022V32.0519Z" fill="#1B1C1B"/>
<path d="M23.1179 31.2977C22.5996 30.7424 22.3408 30.0632 22.3408 29.2617C22.3408 28.4601 22.5996 27.781 23.1179 27.2256C23.6362 26.6703 24.2776 26.3926 25.042 26.3926C25.8065 26.3926 26.4479 26.6703 26.9662 27.2256C27.4844 27.781 27.7432 28.4601 27.7432 29.2617C27.7432 30.0632 27.4838 30.7424 26.9662 31.2977C26.4479 31.8531 25.8065 32.1308 25.042 32.1308C24.2776 32.1308 23.6362 31.8531 23.1179 31.2977ZM23.6935 27.7915C23.3263 28.1922 23.1424 28.6825 23.1424 29.261C23.1424 29.8401 23.3263 30.3304 23.6935 30.7326C24.0607 31.1347 24.5105 31.3362 25.0413 31.3362C25.5729 31.3362 26.0219 31.1347 26.3891 30.7326C26.7563 30.3304 26.9403 29.8394 26.9403 29.261C26.9403 28.6825 26.7563 28.1922 26.3891 27.7915C26.0219 27.3907 25.5722 27.19 25.0413 27.19C24.5105 27.19 24.0614 27.3907 23.6935 27.7915Z" fill="#1B1C1B"/>
<path d="M33.6084 26.4697V32.0526H32.8061V29.6193H30.2847V32.0526H29.4824V26.4697H30.2847V28.8254H32.8061V26.4697H33.6084Z" fill="#1B1C1B"/>
<path d="M36.122 31.2977C35.6036 30.7424 35.3447 30.0632 35.3447 29.2617C35.3447 28.4601 35.6036 27.781 36.122 27.2256C36.6401 26.6703 37.2815 26.3926 38.0461 26.3926C38.8106 26.3926 39.4518 26.6703 39.9702 27.2256C40.4886 27.781 40.7471 28.4601 40.7471 29.2617C40.7471 30.0632 40.4876 30.7424 39.9702 31.2977C39.4518 31.8531 38.8106 32.1308 38.0461 32.1308C37.2815 32.1308 36.6401 31.8531 36.122 31.2977ZM36.6982 27.7915C36.331 28.1922 36.1471 28.6825 36.1471 29.261C36.1471 29.8401 36.331 30.3304 36.6982 30.7326C37.0653 31.1347 37.5153 31.3362 38.0461 31.3362C38.5769 31.3362 39.0265 31.1347 39.3937 30.7326C39.7612 30.3304 39.9451 29.8394 39.9451 29.261C39.9451 28.6825 39.7612 28.1922 39.3937 27.7915C39.0265 27.3907 38.5776 27.19 38.0461 27.19C37.5143 27.19 37.0653 27.3907 36.6982 27.7915Z" fill="#1B1C1B"/>
<path d="M44.6755 32.0526H42.4863V26.4697H44.5648C44.9783 26.4697 45.3314 26.6187 45.6239 26.9174C45.9161 27.216 46.0622 27.5587 46.0622 27.9455C46.0622 28.1686 46.0203 28.3736 45.9357 28.5603C45.8512 28.7471 45.7673 28.8772 45.6848 28.9499L45.5524 29.0625C45.5713 29.073 45.5978 29.0905 45.6329 29.115C45.6673 29.1395 45.7295 29.1926 45.8202 29.2744C45.9106 29.3563 45.9883 29.4465 46.054 29.5451C46.119 29.6437 46.1798 29.7717 46.2358 29.9284C46.2919 30.0858 46.3197 30.2481 46.3197 30.4173C46.3197 30.8635 46.163 31.2482 45.8491 31.57C45.5349 31.8917 45.1433 32.0526 44.6755 32.0526ZM44.5648 27.2293H43.2883V28.7436H44.5648C44.7648 28.7436 44.9305 28.6715 45.0622 28.5274C45.1946 28.3834 45.2602 28.2029 45.2602 27.9861C45.2602 27.7693 45.1946 27.5888 45.0622 27.4447C44.9299 27.3013 44.7642 27.2293 44.5648 27.2293ZM43.2883 31.2937H44.6755C44.9134 31.2937 45.1124 31.2063 45.2747 31.0307C45.4362 30.8552 45.5174 30.6383 45.5174 30.3789C45.5174 30.1193 45.4373 29.9011 45.2771 29.7249C45.1169 29.5486 44.9161 29.4598 44.6762 29.4598H43.289V31.2937H43.2883Z" fill="#1B1C1B"/>
</g>
</g>
<defs>
<linearGradient id="paint0_linear_2094_74499" x1="12.6685" y1="8.16063" x2="31.7295" y2="17.4429" gradientUnits="userSpaceOnUse">
<stop stop-color="#E7B436"/>
<stop offset="0.4524" stop-color="#CC5E28"/>
<stop offset="1" stop-color="#C12026"/>
</linearGradient>
<linearGradient id="paint1_linear_2094_74499" x1="12.637" y1="8.05705" x2="32.8092" y2="14.5808" gradientUnits="userSpaceOnUse">
<stop stop-color="#DC9327"/>
<stop offset="0.4524" stop-color="#CC5E28"/>
<stop offset="1" stop-color="#C12030"/>
</linearGradient>
<linearGradient id="paint2_linear_2094_74499" x1="12.8033" y1="7.54401" x2="32.9756" y2="14.0678" gradientUnits="userSpaceOnUse">
<stop stop-color="#DC9327"/>
<stop offset="0.4524" stop-color="#CC5E28"/>
<stop offset="1" stop-color="#C12032"/>
</linearGradient>
<clipPath id="clip0_2094_74499">
<rect width="46.4723" height="32" fill="white" transform="translate(0.105469)"/>
</clipPath>
</defs>
</svg>
