<svg width="40" height="32" viewBox="0 0 40 32" fill="none" xmlns="http://www.w3.org/2000/svg">
<g clipPath="url(#clip0_2094_73948)">
<path fillRule="evenodd" clipRule="evenodd" d="M12.2566 0.0591218C9.4496 0.198362 7.16052 0.977996 5.20301 2.46187C4.64078 2.88833 3.69652 3.83308 3.24343 4.42355C1.8358 6.25836 1.04909 8.36688 0.784444 11.0099C0.712363 11.7349 0.702064 13.6058 0.765911 14.3586C1.0635 17.8633 2.19312 20.4217 4.3195 22.4084C5.67051 23.6709 7.25629 24.5058 9.26322 25.0112C10.4649 25.3142 11.4102 25.4115 13.1628 25.4127C15.0791 25.414 15.87 25.3069 17.639 24.8064C18.5792 24.5402 19.2135 24.3082 20.2381 23.8546L21.0505 23.4946L21.3872 23.6378C22.5261 24.1228 24.3724 24.7068 25.4794 24.9323C27.442 25.3321 30.1008 25.4201 31.978 25.1474C34.1425 24.8333 36.0197 24.044 37.3068 22.9075C39.0491 21.3689 39.8533 19.5861 39.8533 17.2593C39.8533 13.6699 38.1739 11.6922 33.9921 10.3563C33.4752 10.191 32.8636 10.0357 30.9668 9.58714C30.3109 9.43218 29.6282 9.26064 29.448 9.20598C27.9198 8.74016 27.2804 8.19064 27.1609 7.24214C27.026 6.16615 27.6439 5.33675 28.9753 4.80704C30.212 4.31478 32.2334 4.32066 33.9571 4.82156C35.5213 5.2758 37.2049 6.16385 38.284 7.10384C38.4025 7.2072 38.4591 7.22448 38.6743 7.22448H38.9256V1.65947L38.6414 1.53126C37.4088 0.975996 35.1907 0.386768 33.571 0.183761C31.8204 -0.0355072 29.7692 -0.0201827 28.4059 0.222413C25.1118 0.808277 22.4654 2.70869 21.5077 5.17648C20.962 6.58174 20.9115 8.42106 21.3728 10.0553C21.9392 12.0585 23.3334 13.4393 25.7914 14.4312C26.6399 14.7736 27.6037 15.0497 29.1782 15.4014C31.1542 15.8429 31.7803 16.0236 32.3477 16.3173C33.0458 16.6782 33.5061 17.1263 33.6781 17.6111C33.7728 17.8792 33.8037 18.4456 33.7419 18.7676C33.6637 19.1642 33.4917 19.4676 33.1642 19.7853C32.4836 20.4447 31.7432 20.7082 30.1976 20.8423C27.5708 21.0701 24.2488 19.9344 21.8702 17.9955C21.4068 17.6177 21.3934 17.6111 21.1051 17.6111H20.8435L20.2813 18.0872C18.4917 19.6035 17.014 20.4012 15.3561 20.7473C14.8989 20.8426 14.7187 20.8578 14.0062 20.8606C13.0804 20.8642 12.719 20.814 11.8839 20.5661C10.4278 20.1336 9.21585 19.2026 8.41782 17.9035C7.74849 16.8144 7.36956 15.6375 7.21819 14.1869C7.15846 13.6033 7.1564 11.9754 7.21613 11.4387C7.39839 9.80049 7.87824 8.3974 8.62891 7.30663C8.96667 6.81625 9.80075 5.98694 10.2713 5.67419C10.9911 5.19555 11.8128 4.8686 12.6315 4.73484C13.2441 4.63494 14.2873 4.66231 14.9545 4.7958C16.3663 5.07807 17.9356 5.84962 19.2351 6.90024C19.6295 7.2192 19.6388 7.22414 19.8777 7.2243L20.1207 7.22448V1.6567L19.6666 1.46617C18.1343 0.821686 16.5238 0.384938 14.9339 0.182484C14.416 0.116546 12.9466 0.023875 12.6572 0.0389015C12.5759 0.0431158 12.3957 0.0522257 12.2566 0.0591218ZM2.55763 28.0742C2.07263 28.2436 1.7493 28.5275 1.54541 28.9615C1.38683 29.2996 1.34461 29.5749 1.36727 30.1223C1.38993 30.69 1.47127 30.956 1.72665 31.2968C2.02836 31.6997 2.43613 31.8962 3.0653 31.9427C3.42879 31.9696 3.90143 31.878 4.28655 31.7057L4.47705 31.6207V31.1927C4.47705 30.9382 4.45954 30.7646 4.43483 30.7646C4.41218 30.7646 4.30302 30.8343 4.19285 30.9195C3.89628 31.1486 3.65224 31.2439 3.35773 31.2466C2.91598 31.2505 2.59265 31.0309 2.39597 30.5944C2.32698 30.4425 2.30844 30.3146 2.30844 29.9771C2.30844 29.6053 2.32183 29.5217 2.41863 29.3173C2.61736 28.8938 2.85008 28.7238 3.27948 28.6891C3.58016 28.6647 3.84582 28.7651 4.19285 29.0341C4.30302 29.1196 4.41218 29.1896 4.43483 29.1896C4.46057 29.1896 4.47705 29.0088 4.47705 28.7403V28.291L4.25154 28.1902C3.79743 27.9877 2.9685 27.9309 2.55763 28.0742ZM8.98829 28.0656C8.8606 28.0998 8.67628 28.1587 8.57743 28.1963L8.39826 28.2646V28.7059C8.39826 28.9485 8.40958 29.147 8.42399 29.147C8.43841 29.147 8.50946 29.0961 8.58154 29.0341C9.17363 28.5301 10.0613 28.5657 10.3877 29.1063C10.4505 29.2106 10.5143 29.3486 10.5298 29.4131L10.5576 29.5302H9.03051V30.2112H10.5607L10.5329 30.4135C10.4948 30.6933 10.3135 30.9708 10.0695 31.1235C9.88518 31.2385 9.83164 31.2503 9.50109 31.251C9.09744 31.2516 8.8503 31.1681 8.55889 30.933C8.47343 30.8638 8.38281 30.8072 8.35707 30.8072C8.32618 30.8072 8.31485 30.9482 8.32308 31.2417L8.33544 31.6761L8.62994 31.7763C10.2538 32.3273 11.4761 31.536 11.4761 29.9345C11.4761 29.2667 11.2949 28.7855 10.9118 28.4374C10.6657 28.2145 10.5205 28.133 10.2322 28.0554C9.95726 27.9813 9.28176 27.9867 8.98829 28.0656ZM16.3673 29.9546V31.8714H17.2529V30.6085C17.2529 29.914 17.2663 29.3594 17.2827 29.3762C17.3003 29.393 17.4609 29.7554 17.6401 30.1815L17.9665 30.9561H18.6162L18.9571 30.1474L19.2979 29.3386L19.3092 30.605L19.3206 31.8714H20.2463V28.0403H19.1713L18.7522 28.9982C18.5215 29.5251 18.3197 29.9418 18.3042 29.9241C18.2888 29.9064 18.0931 29.4801 17.8717 28.9768L17.4671 28.0616L16.9172 28.0496L16.3673 28.0378V29.9546ZM21.0474 29.9559V31.8714H23.6197V31.1922L22.8083 31.1806L21.9968 31.169L21.9845 30.6688L21.9732 30.1687H23.493V29.4895L22.7455 29.478L21.9968 29.4663L21.9845 29.1151L21.9721 28.764H23.6197V28.0403H21.0474V29.9559ZM24.7441 28.583C24.7019 29.4367 24.5537 30.2046 24.3014 30.8684C24.1953 31.1478 24.1778 31.1699 24.0512 31.1824L23.9152 31.1958V31.8714H27.7942V31.1952L27.615 31.1821L27.4359 31.169L27.4245 29.6046L27.4132 28.0403H24.7709L24.7441 28.583ZM28.2998 29.9573V31.8742L28.7477 31.8622L29.1957 31.8502L29.9185 30.5996L30.6404 29.3491L30.6517 30.6103L30.663 31.8714H31.5888V28.0376L31.0945 28.0495L30.5992 28.0616L29.9237 29.2084L29.2492 30.3553L29.2379 29.1978L29.2266 28.0403H28.2998V29.9573ZM32.3899 29.9559V31.8714H33.3177V30.3389L33.4546 30.3392C33.5854 30.3395 33.6132 30.373 34.0879 31.1055L34.5842 31.8714H36.586L36.6931 31.4989L36.7992 31.1265L37.4191 31.1146L38.0379 31.1029L38.1522 31.4872L38.2665 31.8714H38.7485C39.1161 31.8714 39.2252 31.8588 39.2108 31.8182C39.2005 31.789 38.9101 30.9264 38.5672 29.9014L37.9432 28.0378L37.4335 28.0496L36.9227 28.0616L36.307 29.9036C35.9682 30.9167 35.6809 31.756 35.6685 31.7687C35.6428 31.7945 34.4143 29.9847 34.4143 29.9213C34.4143 29.8992 34.4452 29.855 34.4833 29.823C34.5214 29.791 34.6285 29.6081 34.7202 29.4165C34.9313 28.9754 35.025 28.8854 35.2978 28.8588L35.51 28.8382V28.0403H35.2443C34.646 28.0403 34.3412 28.2414 34.0889 28.8029C33.8171 29.4075 33.641 29.6153 33.4 29.6153C33.3218 29.6153 33.3177 29.5806 33.3177 28.8278V28.0403H32.3899V29.9559ZM26.4875 29.9771V31.1903H25.7862C25.1385 31.1903 25.0881 31.1847 25.1097 31.1159C25.1231 31.0749 25.2024 30.8402 25.2868 30.5944C25.4186 30.2086 25.4989 29.8092 25.6277 28.9022L25.6472 28.764H26.4875V29.9771ZM12.8786 29C12.4029 29.1294 12.1495 29.3387 11.9539 29.7642C11.8509 29.9896 11.8375 30.0698 11.8375 30.4454C11.8375 30.8209 11.8509 30.9011 11.9539 31.1265C12.1104 31.4663 12.2669 31.6212 12.6294 31.7916C12.9146 31.9256 12.9569 31.9334 13.3945 31.9325C13.7776 31.9317 13.9011 31.9145 14.1009 31.8346L14.3439 31.7376V31.3575C14.3439 30.9472 14.3058 30.8913 14.1503 31.0686C13.931 31.3169 13.3801 31.3987 13.0784 31.2279C12.8415 31.0933 12.7293 30.8596 12.7252 30.492C12.7231 30.3258 12.7468 30.1194 12.7767 30.033C12.8971 29.6834 13.2462 29.4991 13.6427 29.5752C13.8496 29.615 14.0793 29.7335 14.175 29.8499C14.2039 29.8847 14.2543 29.9132 14.2873 29.9132C14.3346 29.9132 14.3439 29.8366 14.3346 29.5211L14.3223 29.129L14.0278 29.0337C13.6807 28.922 13.2153 28.9083 12.8786 29ZM5.02487 30.447V31.8748L5.38939 31.8624L5.75391 31.8502L6.29555 30.9797L6.83822 30.1093V31.8714H7.72378V29.0163L7.29335 29.0285L6.86396 29.0406L6.3769 29.8039L5.88983 30.5672L5.87851 29.7933L5.86616 29.0193H5.02487V30.447ZM37.6137 29.7061C37.7022 29.9956 37.7877 30.2756 37.8042 30.3283C37.8351 30.4231 37.831 30.4241 37.4314 30.4241C37.21 30.4241 37.0288 30.4113 37.0288 30.3958C37.0288 30.3232 37.416 29.141 37.4335 29.1591C37.4448 29.1703 37.5262 29.4165 37.6137 29.7061Z" fill="#2160AD"/>
</g>
<defs>
<clipPath id="clip0_2094_73948">
<rect width="39.2149" height="32" fill="white" transform="translate(0.680664)"/>
</clipPath>
</defs>
</svg>
