<svg width="222" height="32" viewBox="0 0 222 32" fill="none" xmlns="http://www.w3.org/2000/svg">
<g clipPath="url(#clip0_2094_74603)">
<path d="M0.229492 15.9163C0.229492 7.3037 7.26178 0.271401 15.8744 0.271401C24.4869 0.271401 31.5192 7.3037 31.5192 15.9163C31.5192 24.5289 24.4869 31.5611 15.8744 31.5611C7.26178 31.6402 0.229492 24.6079 0.229492 15.9163ZM15.8744 27.2944C20.4572 27.2944 23.5388 22.7115 23.5388 15.9163C23.5388 9.12103 20.4572 4.53818 15.8744 4.53818C11.2915 4.53818 8.20996 9.12103 8.20996 15.9163C8.28897 22.7115 11.3705 27.2944 15.8744 27.2944ZM164.264 0.271401C164.422 0.271401 164.659 0.350415 164.817 0.508444C164.975 0.666473 165.054 0.8245 165.054 0.982529V4.0641C165.054 4.53818 164.659 5.01227 164.106 5.01227H155.73V30.771C155.73 30.85 155.651 31.1661 155.414 31.4031C155.177 31.6402 154.782 31.6402 154.782 31.6402H148.303C147.75 31.6402 147.355 31.2451 147.355 30.692V4.93326H138.9C138.821 4.93326 138.505 4.85424 138.268 4.69621C138.031 4.45916 138.031 4.22213 137.952 4.0641V1.21957C137.952 0.745485 138.426 0.271401 138.9 0.271401H164.264ZM190.733 31.3241C190.971 31.0871 191.05 30.692 191.05 30.692V27.8475C191.05 27.3734 190.654 26.9783 190.101 26.8993H177.854V16.2323H186.151C186.704 16.2323 187.099 15.8373 187.099 15.3632V12.5977C187.099 12.5977 187.099 12.2026 186.862 11.9655C186.625 11.7285 186.309 11.7285 186.23 11.7285H177.854V5.01227H190.101C190.575 5.01227 191.05 4.6172 191.05 4.0641V1.14055C191.05 1.06154 191.05 0.745487 190.733 0.508444C190.496 0.2714 190.101 0.271401 190.101 0.271401H170.427C170.427 0.271401 170.032 0.2714 169.795 0.508444C169.558 0.745487 169.558 1.06154 169.479 1.14055V30.692C169.479 31.1661 169.874 31.5611 170.427 31.6402H190.022C190.101 31.6402 190.496 31.6402 190.733 31.3241ZM202.665 0.271401C202.665 0.271401 203.06 0.2714 203.297 0.508444C203.455 0.666473 203.534 0.982533 203.534 1.06155V30.692C203.534 31.1661 203.139 31.5611 202.665 31.5611H196.423C196.423 31.5611 196.027 31.5611 195.79 31.3241C195.553 31.0871 195.553 30.771 195.553 30.692V1.21957C195.553 0.745485 195.948 0.271401 196.502 0.271401H202.665ZM62.0188 31.0871C62.0188 31.008 62.0188 30.929 61.9398 30.771L55.1446 18.4447C55.1446 18.4447 60.4386 16.4694 60.3595 9.83215C60.2805 4.30113 55.5397 0.271401 49.2185 0.271401H36.9712C36.4181 0.271401 36.0231 0.66647 36.0231 1.21957V30.771C36.0231 30.85 36.1021 31.1661 36.2601 31.3241C36.4972 31.5611 36.8132 31.5611 36.8922 31.6402H43.4504C43.9245 31.6402 44.3986 31.2451 44.3986 30.771V4.6172V4.45916H45.9789C49.6926 4.45916 54.4335 5.40734 54.5125 10.1482C54.6705 14.8101 50.1667 16.7064 46.453 16.8644C46.1369 16.8644 45.8999 17.1015 45.8999 17.4176C45.8999 17.4966 45.8999 17.5756 45.9789 17.7336L51.0358 27.2153C53.2482 31.008 55.6977 31.7982 58.7002 31.6402H61.3867C61.7818 31.6402 62.0188 31.3241 62.0188 31.0871ZM100.815 0.508444C100.973 0.666473 101.052 0.903518 101.052 1.06155L104.055 30.692C104.055 30.929 104.055 31.1661 103.897 31.3241C103.739 31.4821 103.501 31.5611 103.185 31.5611H96.7062C96.7062 31.5611 96.3112 31.5611 96.0741 31.3241C95.9161 31.1661 95.8371 30.85 95.8371 30.771L93.8617 11.1754L86.9084 31.2451C86.8294 31.4821 86.5924 31.6402 86.3553 31.6402H82.2466C81.4564 31.6402 81.1404 31.2451 80.8243 30.534L73.9501 10.7013L71.4216 30.3759C71.3426 31.1661 70.7105 31.5611 69.7623 31.6402H67.0758C66.7597 31.6402 66.5227 31.4031 66.5227 31.0871L70.3944 1.21957C70.4734 0.587461 70.8685 0.271401 71.5796 0.271401H78.0588C78.1378 0.271401 78.4539 0.350415 78.6909 0.508444C78.7699 0.587458 78.8489 0.666472 78.8489 0.745486L85.6442 20.3411L92.2814 1.21957C92.5975 0.508441 92.9925 0.192383 93.7037 0.192383H100.262C100.341 0.271398 100.578 0.350415 100.815 0.508444ZM137.557 31.6402C137.873 31.6402 138.11 31.4031 138.11 31.0871V30.929L138.031 30.85V30.771L127.68 0.824505C127.601 0.74549 127.601 0.587458 127.443 0.508444C127.285 0.350415 126.969 0.271401 126.89 0.271401H120.411C119.857 0.271401 119.62 0.429431 119.383 1.06155L108.637 30.771C108.637 30.85 108.558 30.929 108.558 31.008C108.558 31.3241 108.795 31.5611 109.111 31.5611H112.588C113.22 31.5611 113.536 31.2451 113.773 30.534L116.539 22.8695H125.23C125.309 22.8695 125.388 22.8696 125.467 22.7905C125.705 22.7115 125.784 22.3955 125.784 22.1584C124.835 19.3139 122.781 18.2077 120.569 18.2077H118.119L121.912 8.09383L125.467 18.2867L127.522 24.0548L128.549 27.0573C129.497 29.6648 132.026 31.5611 135.107 31.5611L137.557 31.6402ZM221.391 30.771C221.47 30.85 221.47 30.929 221.47 31.0871C221.47 31.4031 221.233 31.6402 220.917 31.6402H218.31C215.386 31.7192 213.016 31.0081 210.803 27.2154L205.43 16.7854C205.351 16.7064 205.351 16.5484 205.351 16.3904C205.351 16.2323 205.43 16.0743 205.43 15.9953L213.253 3.27395L214.517 1.29859C214.517 1.29859 215.07 0.350419 215.86 0.350419H219.653C219.969 0.350419 220.206 0.587453 220.206 0.903511C220.206 0.982525 220.206 1.14056 220.127 1.21957L212.304 14.0199L221.391 30.771Z" fill="#F39327"/>
</g>
<defs>
<clipPath id="clip0_2094_74603">
<rect width="221.659" height="32" fill="white" transform="translate(0.0947266)"/>
</clipPath>
</defs>
</svg>
