<svg width="143" height="32" viewBox="0 0 143 32" fill="none" xmlns="http://www.w3.org/2000/svg">
<g clipPath="url(#clip0_2094_73817)">
<path fillRule="evenodd" clipRule="evenodd" d="M43.953 2.80611H57.3806V0.149414H43.953V2.80611ZM57.3806 7.46355H43.953V4.80685H57.3806V7.46355ZM28.1364 27.3512C29.201 27.7324 30.3432 27.9229 31.5631 27.9229C32.783 27.9229 33.9141 27.7324 34.9566 27.3512C36.0212 26.9477 36.9416 26.3648 37.7179 25.6026C38.4942 24.8404 39.1041 23.8989 39.5477 22.778C39.9913 21.6347 40.2131 20.3121 40.2131 18.8101V18.1375C40.2131 16.7253 39.9913 15.4811 39.5477 14.405C39.1041 13.3066 38.4942 12.3874 37.7179 11.6477C36.9416 10.8855 36.0212 10.3138 34.9566 9.93268C33.9141 9.55162 32.783 9.36109 31.5631 9.36109C30.3432 9.36109 29.201 9.55162 28.1364 9.93268C27.094 10.3138 26.1846 10.8855 25.4083 11.6477C24.632 12.3874 24.0221 13.3066 23.5785 14.405C23.1349 15.4811 22.9131 16.7253 22.9131 18.1375V18.8101C22.9131 20.3121 23.1349 21.6347 23.5785 22.778C24.0221 23.8989 24.632 24.8404 25.4083 25.6026C26.1846 26.3648 27.094 26.9477 28.1364 27.3512ZM33.3929 24.3585C32.8163 24.5827 32.2063 24.6947 31.5631 24.6947C30.9199 24.6947 30.2989 24.5827 29.7 24.3585C29.1234 24.1343 28.6021 23.7868 28.1364 23.316C27.6928 22.8453 27.3268 22.24 27.0385 21.5002C26.7724 20.7605 26.6392 19.8638 26.6392 18.8101V18.1375C26.6392 17.1736 26.7724 16.3441 27.0385 15.6492C27.3268 14.9542 27.6928 14.3826 28.1364 13.9343C28.6021 13.4859 29.1234 13.1496 29.7 12.9254C30.2989 12.7013 30.9199 12.5892 31.5631 12.5892C32.2063 12.5892 32.8163 12.7013 33.3929 12.9254C33.9917 13.1496 34.513 13.4859 34.9566 13.9343C35.4224 14.3826 35.7883 14.9542 36.0544 15.6492C36.3428 16.3441 36.487 17.1736 36.487 18.1375V18.8101C36.487 19.8638 36.3428 20.7605 36.0544 21.5002C35.7883 22.24 35.4224 22.8453 34.9566 23.316C34.513 23.7868 33.9917 24.1343 33.3929 24.3585ZM4.75722 9.73093H0.631836V27.553H4.29145V15.2794L8.94917 23.854H11.6106L16.2684 15.2794V27.553H19.928V9.73093H16.0022L10.3797 20.1551L4.75722 9.73093ZM50.8463 27.9229C49.6707 27.9229 48.5618 27.7435 47.5194 27.3848C46.4769 27.0038 45.5564 26.4433 44.7579 25.7036C43.9817 24.9414 43.3607 23.9886 42.8949 22.8453C42.4292 21.702 42.1963 20.357 42.1963 18.8101V18.1375C42.1963 16.658 42.418 15.369 42.8616 14.2705C43.3052 13.1721 43.9041 12.2642 44.6582 11.5468C45.4344 10.807 46.3216 10.2578 47.3197 9.89909C48.3178 9.5404 49.3824 9.36109 50.5136 9.36109C53.1973 9.36109 55.2489 10.0896 56.6683 11.5468C58.11 13.0039 58.8308 15.0887 58.8308 17.8013V19.6844H45.9224C45.9445 20.6035 46.0887 21.3882 46.3549 22.0382C46.6432 22.6659 47.0092 23.1816 47.4528 23.5851C47.9185 23.9662 48.4398 24.2464 49.0164 24.4257C49.6153 24.605 50.2252 24.6947 50.8463 24.6947C52.1105 24.6947 53.031 24.493 53.6076 24.0895C54.2064 23.686 54.6167 23.1591 54.8386 22.509H58.4981C58.1433 24.28 57.2672 25.6251 55.8699 26.5442C54.4948 27.4633 52.8203 27.9229 50.8463 27.9229ZM50.6799 12.5892C50.0588 12.5892 49.46 12.6677 48.8834 12.8246C48.3289 12.9815 47.8298 13.2393 47.3862 13.598C46.9649 13.9343 46.621 14.3826 46.3549 14.943C46.0887 15.4811 45.9445 16.1424 45.9224 16.927H55.1712C55.1491 16.0976 55.016 15.4026 54.772 14.8422C54.5502 14.2817 54.2397 13.8334 53.8405 13.4971C53.4412 13.1608 52.9644 12.9254 52.4099 12.7909C51.8776 12.6564 51.3009 12.5892 50.6799 12.5892ZM69.4874 24.3921H67.4912V31.7563H70.8847V27.553H83.0611V31.7563H86.4545V24.3921H84.1255V9.73093H70.9845V14.7749C70.9845 15.7837 70.9512 16.7925 70.8847 17.8013C70.8182 18.7877 70.7183 19.718 70.5853 20.5923C70.4522 21.4442 70.2859 22.2064 70.0863 22.8789C69.9088 23.5515 69.7092 24.0558 69.4874 24.3921ZM80.4662 12.8919V24.3921H73.2135C73.6793 23.316 74.012 21.9934 74.2116 20.4242C74.4113 18.8325 74.511 17.1736 74.511 15.4474V12.8919H80.4662ZM96.4469 27.9229C95.2719 27.9229 94.1627 27.7435 93.1202 27.3848C92.0777 27.0038 91.1571 26.4433 90.3586 25.7036C89.5828 24.9414 88.9615 23.9886 88.4956 22.8453C88.0296 21.702 87.7971 20.357 87.7971 18.8101V18.1375C87.7971 16.658 88.0191 15.369 88.4622 14.2705C88.9062 13.1721 89.5047 12.2642 90.2594 11.5468C91.0352 10.807 91.9223 10.2578 92.9209 9.89909C93.9187 9.5404 94.9832 9.36109 96.1143 9.36109C98.7978 9.36109 100.849 10.0896 102.269 11.5468C103.711 13.0039 104.432 15.0887 104.432 17.8013V19.6844H91.5231C91.5458 20.6035 91.6898 21.3882 91.9557 22.0382C92.2444 22.6659 92.6103 23.1816 93.0535 23.5851C93.5194 23.9662 94.0407 24.2464 94.6172 24.4257C95.2166 24.605 95.8264 24.6947 96.4469 24.6947C97.7114 24.6947 98.6319 24.493 99.2085 24.0895C99.807 23.686 100.218 23.1591 100.44 22.509H104.099C103.744 24.28 102.868 25.6251 101.471 26.5442C100.096 27.4633 98.4213 27.9229 96.4469 27.9229ZM96.281 12.5892C95.6597 12.5892 95.0612 12.6677 94.4839 12.8246C93.9301 12.9815 93.4308 13.2393 92.9868 13.598C92.5656 13.9343 92.2216 14.3826 91.9557 14.943C91.6898 15.4811 91.5458 16.1424 91.5231 16.927H100.772C100.75 16.0976 100.617 15.4026 100.373 14.8422C100.151 14.2817 99.8403 13.8334 99.441 13.4971C99.0418 13.1608 98.5652 12.9254 98.0106 12.7909C97.4788 12.6564 96.9015 12.5892 96.281 12.5892ZM106.173 27.8892C106.394 27.9117 106.594 27.9229 106.771 27.9229C107.68 27.9229 108.479 27.7435 109.167 27.3848C109.854 27.0038 110.43 26.3536 110.896 25.4346C111.362 24.5154 111.706 23.2824 111.927 21.7356C112.171 20.1663 112.293 18.1824 112.293 15.7837V12.8919H118.415V27.553H122.075V9.73093H108.767V15.1112C108.767 16.927 108.711 18.429 108.601 19.6171C108.49 20.8053 108.323 21.758 108.101 22.4754C107.902 23.1703 107.636 23.6635 107.304 23.955C106.97 24.224 106.571 24.3585 106.106 24.3585C105.884 24.3585 105.717 24.3473 105.607 24.3248V27.822C105.784 27.8669 105.973 27.8892 106.173 27.8892ZM133.713 27.9229C132.494 27.9229 131.352 27.7324 130.288 27.3512C129.245 26.9477 128.335 26.3648 127.559 25.6026C126.783 24.8404 126.173 23.8989 125.73 22.778C125.286 21.6347 125.064 20.3121 125.064 18.8101V18.1375C125.064 16.7253 125.286 15.4811 125.73 14.405C126.173 13.3066 126.783 12.3874 127.559 11.6477C128.335 10.8855 129.245 10.3138 130.288 9.93268C131.352 9.55162 132.494 9.36109 133.713 9.36109C134.934 9.36109 136.065 9.55162 137.108 9.93268C138.172 10.3138 139.093 10.8855 139.868 11.6477C140.645 12.3874 141.255 13.3066 141.698 14.405C142.142 15.4811 142.364 16.7253 142.364 18.1375V18.8101C142.364 20.3121 142.142 21.6347 141.698 22.778C141.255 23.8989 140.645 24.8404 139.868 25.6026C139.093 26.3648 138.172 26.9477 137.108 27.3512C136.065 27.7324 134.934 27.9229 133.713 27.9229ZM133.713 24.6947C134.357 24.6947 134.967 24.5827 135.544 24.3585C136.142 24.1343 136.664 23.7868 137.108 23.316C137.573 22.8453 137.939 22.24 138.206 21.5002C138.493 20.7605 138.638 19.8638 138.638 18.8101V18.1375C138.638 17.1736 138.493 16.3441 138.206 15.6492C137.939 14.9542 137.573 14.3826 137.108 13.9343C136.664 13.4859 136.142 13.1496 135.544 12.9254C134.967 12.7013 134.357 12.5892 133.713 12.5892C133.071 12.5892 132.45 12.7013 131.85 12.9254C131.274 13.1496 130.753 13.4859 130.288 13.9343C129.844 14.3826 129.478 14.9542 129.189 15.6492C128.923 16.3441 128.79 17.1736 128.79 18.1375V18.8101C128.79 19.8638 128.923 20.7605 129.189 21.5002C129.478 22.24 129.844 22.8453 130.288 23.316C130.753 23.7868 131.274 24.1343 131.85 24.3585C132.45 24.5827 133.071 24.6947 133.713 24.6947Z" fill="#F05332"/>
</g>
<defs>
<clipPath id="clip0_2094_73817">
<rect width="142" height="32" fill="white" transform="translate(0.544922)"/>
</clipPath>
</defs>
</svg>
