<svg width="59" height="32" viewBox="0 0 59 32" fill="none" xmlns="http://www.w3.org/2000/svg">
<g clipPath="url(#clip0_2094_72773)">
<path d="M36.9327 0.0644531C36.9327 0.0644531 31.1446 0.150842 27.5451 3.46243C24.5214 6.25568 26.134 8.55939 28.6681 8.30022C28.7257 8.30022 28.7545 8.35782 28.6681 8.38661C27.1995 8.67458 24.4063 8.64578 23.456 5.70855C22.5633 2.9153 24.7518 0.0644531 24.7518 0.0644531H20.9507V15.3841C20.9507 15.3841 26.7388 15.2977 30.3383 11.9862C33.3619 9.19291 31.7493 6.8892 29.2153 7.14837C29.1577 7.14837 29.1289 7.09078 29.2153 7.06198C30.6839 6.74522 33.4771 6.80281 34.4274 9.71124C35.3201 12.5045 33.1316 15.3553 33.1316 15.3553H36.9039V0.0644531H36.9327Z" fill="#C42328"/>
<path d="M7.21538 25.3184H2.92472C1.19694 25.3184 0.419434 26.2398 0.419434 27.4493V29.7818C0.419434 30.8761 0.822583 31.9415 2.92472 31.9415H7.21538C9.28872 31.9415 9.72067 30.8761 9.72067 29.7818V29.5514H7.53214C7.47455 29.9546 7.24418 30.3289 6.46668 30.3289H3.64463C2.55037 30.3289 2.55037 29.5514 2.55037 29.0331V27.91C2.55037 27.3053 2.95352 26.9598 3.52944 26.9598H6.55307C7.0714 26.9598 7.44576 27.2189 7.53214 27.7085H9.69187V27.4493C9.72067 26.2398 8.94317 25.3184 7.21538 25.3184Z" fill="#C42328"/>
<path d="M1.22573 22.4675H3.0687V21.7764H0.419434V24.4256H1.22573V22.4675Z" fill="#C42328"/>
<path d="M52.8576 22.3816H53.0016L53.4335 23.3031H52.4256L52.8576 22.3816ZM52.1089 23.9942H53.7215L53.9519 24.4549H54.9021L53.6063 21.8057H52.2529L50.957 24.4549H51.9073L52.1089 23.9942Z" fill="#C42328"/>
<path d="M31.3756 22.4675H33.2762V24.4256H34.1113V21.7764H30.5693V24.4256H31.4044V22.4675H31.3756Z" fill="#C42328"/>
<path d="M41.5695 22.4675H43.4412V24.4256H44.2763V21.7764H40.7344V24.4256H41.5695V22.4675Z" fill="#C42328"/>
<path d="M33.7079 29.3787C33.7079 29.3787 34.8598 27.1325 34.9174 26.9886C34.975 26.8446 35.3493 26.8158 35.4357 26.9886C35.5221 27.1613 36.674 29.3787 36.674 29.3787H33.7079ZM33.6792 25.3184L30.1084 31.9703H32.4409L33.0168 30.8473H37.3939L37.9698 31.9703H40.3023L36.818 25.3184H33.6792ZM45.6873 28.6587H42.4333V26.9886H45.6873C46.3496 26.9886 46.5799 27.2189 46.5799 27.8236C46.5511 28.4284 46.1768 28.6587 45.6873 28.6587ZM48.7109 27.7949C48.7109 25.3184 46.7815 25.3184 45.8312 25.3184H40.3023V31.9703L42.4333 31.9703V30.3289H45.8888C46.6951 30.3289 48.7109 30.3001 48.7109 27.7949ZM51.4465 29.3787C51.4465 29.3787 52.6848 26.9886 52.7424 26.8734C52.8 26.7582 53.0591 26.7582 53.1455 26.8734C53.2031 26.9886 54.4414 29.3787 54.4414 29.3787H51.4465ZM54.5565 25.3184H51.3601L47.8182 31.9703H50.1507L50.7266 30.8473H55.1325L55.6796 31.9703H58.0121L54.5565 25.3184Z" fill="#C42328"/>
<path d="M27.4591 27.7085H23.0244V25.3472H20.8071V31.9991H23.0244V29.5514H27.4879V31.9703H29.6764V25.3184H27.4591V27.7085Z" fill="#C42328"/>
<path d="M12.8594 30.3001C12.773 30.4153 12.6866 30.4441 12.6866 30.3001V25.3471H10.6133V31.9991H14.1552L17.6684 27.0461C17.7548 26.9021 17.8412 26.9597 17.8412 27.0461V31.9991H19.9145V25.3471H16.3438C16.3438 25.3183 12.9458 30.1561 12.8594 30.3001ZM11.4196 22.4675H12.6002C12.773 22.4675 12.917 22.5251 12.917 22.7842C12.917 23.0434 12.773 23.101 12.6002 23.101H11.4196V22.4675ZM11.4196 23.7633H12.6002C13.3777 23.7633 13.7233 23.6769 13.7233 22.7842C13.7233 21.8916 13.3777 21.7764 12.6002 21.7764H10.6133V24.4256H11.4196C11.4196 24.4256 11.4196 23.7633 11.4196 23.7633ZM21.4119 23.7345H20.8648V24.4256H21.3543C22.1318 24.4256 22.2182 24.1089 22.535 23.4466L23.4565 21.7764H22.5638L22.0167 22.8418C21.9591 22.9282 21.9591 22.957 21.9303 22.957L21.8727 22.8994L20.98 21.7764H19.8857L21.5271 23.6481C21.5271 23.7345 21.4983 23.7345 21.4119 23.7345Z" fill="#C42328"/>
</g>
<defs>
<clipPath id="clip0_2094_72773">
<rect width="57.7016" height="32" fill="white" transform="translate(0.382812)"/>
</clipPath>
</defs>
</svg>
