<svg width="68" height="32" viewBox="0 0 68 32" fill="none" xmlns="http://www.w3.org/2000/svg">
<g clipPath="url(#clip0_2094_73921)">
<path fillRule="evenodd" clipRule="evenodd" d="M0.0917984 28.8926C0.11644 19.7416 2.65809 9.30392 9.63003 3.8105C15.7325 -0.998219 22.2573 -0.0864638 29.3102 0.855214C34.39 1.53463 40.5963 2.3707 45.1533 2.34078C47.4045 2.3267 49.823 2.20701 51.6483 0.511987C51.606 1.96763 50.5939 4.01996 49.4903 5.22038C54.8852 5.31543 62.9783 5.46856 67.2942 0.015625C68.3626 8.85332 66.1853 17.5924 61.4382 23.6667C57.7788 28.3469 52.4966 31.3357 46.6406 31.8496C36.6659 32.7262 27.0572 26.5446 17.4996 24.4201C10.8692 22.9468 5.00085 23.716 0.0917969 28.8908" fill="#0C9547"/>
<path fillRule="evenodd" clipRule="evenodd" d="M25.584 24.1735C32.9168 25.5658 40.3692 27.039 47.1282 24.1436C44.6446 32.0607 33.4026 27.8223 25.584 24.1735Z" fill="white"/>
<path fillRule="evenodd" clipRule="evenodd" d="M14.3123 19.1922C16.3153 18.4019 17.5016 15.2899 17.7041 13.3854C17.7375 13.1513 17.7586 12.9208 17.7727 12.6902C16.0988 15.9025 14.9846 14.2497 13.7209 13.6864C12.8619 13.3027 11.8938 14.1916 12.0698 13.9065C14.138 10.5587 14.5376 12.8732 16.1745 12.9155C16.7201 12.9296 17.4594 12.5019 17.785 12.3522C17.8466 8.38312 15.0586 5.36975 13.3829 11.1008C12.4043 11.1025 10.9856 11.1008 10.2217 11.1096C11.2197 8.02581 15.3032 5.10044 18.6581 8.30215C21.6926 11.0849 20.8318 18.9088 14.0324 20.0494C13.3565 20.1638 12.5609 20.0828 11.9149 19.7941C11.1264 19.516 10.5649 18.8155 10.5649 17.997C10.5649 16.9374 11.5101 16.0732 12.6665 16.0732C13.8229 16.0732 14.7681 16.9374 14.7681 17.997C14.7681 18.4494 14.5974 18.8648 14.3105 19.1922" fill="white"/>
<path d="M48.7997 16.4467C48.7997 16.7952 48.8191 17.0539 48.8561 17.2211C48.8948 17.3866 48.9758 17.4675 49.099 17.4675C49.1817 17.4675 49.2891 17.413 49.4211 17.3021C49.4985 17.2352 49.6164 17.1067 49.7273 17.1067C49.8382 17.1067 49.8946 17.1806 49.8946 17.3338C49.8946 17.5239 49.7819 17.7351 49.5619 17.9621C49.0884 18.4656 48.6167 18.7173 48.1414 18.7173C47.895 18.7173 47.6996 18.6574 47.5571 18.5324C47.4163 18.411 47.2931 18.2086 47.1874 17.9234C47.1505 17.8213 47.1206 17.721 47.0695 17.6242C47.0185 17.5362 46.978 17.5327 46.9111 17.5908C46.8477 17.6471 46.7386 17.7562 46.5802 17.9199C46.3391 18.1698 46.068 18.3899 45.7617 18.5782C44.6704 19.2559 43.4014 18.6433 43.4014 17.2475C43.4014 16.2495 44.0139 15.6264 44.7954 15.1494L46.7228 13.9737C46.9833 13.8152 46.9428 13.854 46.9428 13.5565V12.8841C46.9428 12.467 46.9604 11.5799 46.3637 11.5799C45.9817 11.5799 45.672 11.9266 45.4361 12.6183C45.3639 12.8454 45.2918 13.0161 45.2231 13.1323C45.0049 13.5037 43.4278 14.2588 43.4278 13.4122C43.4278 12.87 43.9136 12.2153 44.3043 11.8773C44.9521 11.2982 45.7564 11.0078 46.714 11.0078C48.0394 11.0078 48.7997 11.5218 48.7997 12.8524V16.4449L48.7997 16.4467ZM46.9445 15.3554C46.9445 14.8942 46.897 14.6636 46.8037 14.6636C46.7474 14.6636 46.4394 14.8784 45.8779 15.3079C45.4203 15.674 45.1932 16.0876 45.1932 16.5576C45.1932 16.8233 45.2583 17.0486 45.3851 17.2352C45.5135 17.4218 45.6825 17.5151 45.892 17.5151C46.0574 17.5151 46.2334 17.4552 46.4183 17.3338C46.6031 17.2123 46.7368 17.0645 46.8196 16.8867C46.9041 16.686 46.9463 16.4396 46.9463 16.1474V15.3536L46.9445 15.3554Z" fill="white"/>
<path d="M52.8577 11.9658C53.3593 11.4835 53.9296 11.01 54.646 11.01C55.1705 11.01 55.644 11.1807 56.07 11.5169C56.4924 11.8549 56.8268 12.3072 57.0697 12.8793C57.3109 13.4496 57.4305 14.0691 57.4305 14.7327C57.4305 15.4913 57.288 16.1848 57.0081 16.822C56.7265 17.4592 56.341 17.9591 55.8482 18.3234C55.3571 18.686 54.815 18.8673 54.2218 18.8673C53.8856 18.8673 53.5265 18.7969 53.1411 18.6561C53.1287 18.6543 53.1006 18.642 53.0548 18.6262C53.0108 18.6103 52.9756 18.605 52.9475 18.605C52.8876 18.605 52.8577 18.7811 52.8577 19.1296V21.0464C52.8577 21.1643 52.8999 21.3016 52.9879 21.4582C53.0742 21.6149 53.2678 21.7187 53.5635 21.7715C53.8416 21.8244 53.9807 21.9493 53.9807 22.1482C53.9807 22.3471 53.8821 22.4316 53.6814 22.4316H50.0221C49.8179 22.4316 49.7158 22.3383 49.7158 22.1482C49.7158 21.9458 49.8302 21.8191 50.0626 21.7715C50.3935 21.7205 50.6082 21.6149 50.705 21.4582C50.8018 21.3016 50.8494 21.1643 50.8494 21.0464V14.0744C50.8494 13.6344 50.8212 13.3352 50.7631 13.1732C50.705 13.0131 50.5607 12.9233 50.3336 12.9039C50.2562 12.8969 50.1823 12.8916 50.1207 12.8722C49.913 12.8124 49.9077 12.5889 50.0168 12.4463C50.089 12.3512 50.1805 12.3424 50.2879 12.3125C50.7842 12.1717 51.7629 11.8654 52.3437 11.1121C52.3965 11.0435 52.437 10.9819 52.4775 10.9396C52.6817 10.7266 52.8383 10.885 52.8542 11.1297C52.863 11.2758 52.8595 11.4254 52.8595 11.5733V11.9658H52.8577ZM52.8577 16.3802C52.8577 17.6211 53.1499 18.2425 53.736 18.2425C54.1056 18.2425 54.4154 18.0911 54.6636 17.7866C54.91 17.4821 55.0896 17.1001 55.2022 16.6442C55.3149 16.1884 55.3694 15.7272 55.3694 15.2608C55.3694 14.7943 55.3149 14.3332 55.2057 13.8579C55.0966 13.3827 54.9223 12.9814 54.6812 12.654C54.4401 12.3284 54.1373 12.1629 53.7712 12.1629C53.4051 12.1629 53.1481 12.3372 52.9351 12.6734C52.8788 12.7631 52.8559 12.9286 52.8559 13.1838V16.3802H52.8577Z" fill="white"/>
<path d="M42.5061 18.0902C42.2791 18.0568 42.1224 18.0128 42.0309 17.9617C41.9429 17.9125 41.8848 17.8297 41.8619 17.7171C41.8355 17.6044 41.8232 17.4126 41.8232 17.138V12.8415C41.8232 12.5387 41.8355 12.3328 41.8619 12.2219C41.8901 12.1093 41.9464 12.0318 42.0309 11.9861C42.1171 11.9421 42.2861 11.898 42.5413 11.8523C42.8388 11.8523 42.9532 11.495 42.786 11.282C42.7332 11.2134 42.6628 11.1781 42.58 11.1781H36.629C36.5515 11.1781 36.4882 11.2134 36.4354 11.282C36.2505 11.5284 36.4354 11.8523 36.7205 11.8523C36.937 11.8963 37.0884 11.9456 37.1764 11.9984C37.2644 12.0529 37.3225 12.1374 37.3489 12.2536C37.377 12.3715 37.3894 12.5669 37.3894 12.845C37.3894 14.0771 37.4703 15.3655 37.3031 16.5871C37.245 17.0095 37.1746 17.3228 37.0901 17.52C37.0145 17.6995 36.7927 17.9811 36.6501 17.696C36.4917 17.3404 36.4706 16.9391 36.2523 16.5941C35.9795 16.1664 35.3652 16.3547 35.0941 16.6768C34.9832 16.8106 34.9093 16.9778 34.8636 17.1574C34.677 17.3123 34.457 17.4707 34.3197 17.4707C34.1982 17.4707 34.1155 17.3879 34.0768 17.2242C34.0398 17.057 34.0204 16.7983 34.0204 16.4498V12.8573C34.0204 11.5267 33.2601 11.0127 31.9347 11.0127C30.9771 11.0127 30.1745 11.3031 29.525 11.884C29.136 12.2219 28.6485 12.8749 28.6485 13.4188C28.6485 14.2654 30.2256 13.5086 30.4438 13.139C30.5125 13.0228 30.5829 12.8538 30.6568 12.625C30.8927 11.9333 31.2024 11.5865 31.5844 11.5865C32.1828 11.5865 32.1635 12.4736 32.1635 12.8908V13.5631C32.1635 13.8606 32.204 13.8219 31.9435 13.9803L30.0161 15.1561C29.2346 15.6331 28.6221 16.2562 28.6221 17.2542C28.6221 18.65 29.8911 19.2643 30.9824 18.5848C31.2869 18.3947 31.5598 18.1765 31.8009 17.9266C31.9593 17.7629 32.0684 17.6537 32.1318 17.5974C32.1987 17.5376 32.2409 17.5428 32.292 17.6308C32.343 17.7277 32.3729 17.828 32.4099 17.9301C32.5155 18.2152 32.637 18.4194 32.7795 18.5391C32.9204 18.6623 33.1175 18.7221 33.3639 18.7221C33.8391 18.7221 34.3091 18.4687 34.7843 17.967C34.8002 17.9494 34.8231 17.9265 34.8459 17.9037C34.8952 18.1642 35.0008 18.4088 35.1557 18.5884C35.7419 19.259 36.8736 18.9914 37.3295 18.2944C37.6199 17.8438 37.7995 17.3475 37.8664 16.8001C37.9315 16.2562 37.9667 15.6612 37.9667 15.0117V12.7236C37.9667 12.4543 37.9808 12.2659 38.0054 12.1603C38.0301 12.0565 38.0917 11.9878 38.1885 11.9509C38.287 11.9157 38.4631 11.8981 38.7165 11.8981H39.2446C39.4804 11.8981 39.6423 11.9086 39.7286 11.928C39.8113 11.9473 39.8659 11.9913 39.8853 12.06C39.9046 12.1286 39.9152 12.2624 39.9152 12.4613V17.138C39.9152 17.4232 39.9029 17.6185 39.8764 17.7312C39.8536 17.8403 39.792 17.9178 39.6987 17.9653C39.6036 18.0128 39.4347 18.0568 39.1918 18.092C38.838 18.092 38.7394 18.7697 39.153 18.7697H42.5941C42.9884 18.7697 42.9215 18.092 42.5044 18.092M32.1705 16.1488C32.1705 16.4392 32.1283 16.6874 32.0438 16.8863C31.9593 17.0641 31.8273 17.2137 31.6425 17.3334C31.4577 17.4548 31.2817 17.5147 31.1162 17.5147C30.9085 17.5147 30.7378 17.4214 30.6093 17.2348C30.4825 17.0482 30.4174 16.8229 30.4174 16.5572C30.4174 16.0872 30.6445 15.6736 31.1021 15.3075C31.6618 14.8762 31.9716 14.6615 32.028 14.6615C32.123 14.6615 32.1688 14.8921 32.1688 15.3532V16.147L32.1705 16.1488Z" fill="white"/>
<path d="M22.0598 13.4311C22.0598 12.9453 22.0458 12.6074 22.0211 12.4173C21.9982 12.2289 21.9366 12.0951 21.8416 12.0212C21.7465 11.9473 21.5723 11.8892 21.3241 11.8487C21.1305 11.8135 21.0231 11.7097 21.0178 11.5337C21.0108 11.3066 21.1516 11.1904 21.4174 11.1904L24.6737 11.1939C25.9586 11.1939 27.5603 11.4104 27.5603 13.0491C27.5603 14.019 26.8562 14.5593 25.4481 14.6773C26.7031 14.7248 27.8578 15.1384 27.8578 16.6099C27.8578 18.2293 26.4725 18.7679 25.1542 18.7679C23.8358 18.7679 22.5773 18.752 21.2889 18.752C21.2185 18.752 21.1551 18.7239 21.0988 18.6693C21.0442 18.6147 21.0178 18.5426 21.0178 18.4546C21.0178 18.2381 21.1217 18.1166 21.3241 18.092C21.574 18.062 21.7483 18.0075 21.8469 17.9212C21.9437 17.835 22.0035 17.6995 22.0264 17.5129C22.0493 17.3263 22.0616 16.9919 22.0616 16.5096V13.4293L22.0598 13.4311ZM23.9643 13.8729C23.9643 14.0542 23.9714 14.1739 23.9837 14.2355C23.996 14.2936 24.0259 14.3323 24.0787 14.3464C24.128 14.3605 24.2336 14.3675 24.3903 14.3675C25.207 14.3675 25.6153 13.9063 25.6153 12.9858C25.6153 12.6144 25.5273 12.324 25.3531 12.1163C25.1771 11.9051 24.9342 11.8012 24.6226 11.8012C24.3111 11.8012 24.1192 11.8558 24.0154 11.9667C23.9837 12.0001 23.9661 12.1884 23.9661 12.5405V13.8747L23.9643 13.8729ZM23.9643 17.0218C23.9643 17.3157 23.9766 17.5358 24.0013 17.6818C24.0242 17.8262 24.091 17.9459 24.1984 18.0304C24.3058 18.1184 24.4748 18.1624 24.7106 18.1624C25.1172 18.1624 25.42 18.0286 25.6206 17.7593C25.823 17.4865 25.9234 17.1221 25.9234 16.661C25.9234 16.3283 25.8706 16.0608 25.7597 15.8531C25.6523 15.6436 25.4745 15.4465 25.2263 15.2599C25.082 15.1525 24.9465 15.0856 24.818 15.0628C24.6913 15.0381 24.5064 15.0258 24.2706 15.0258C24.1351 15.0258 24.0523 15.0645 24.0154 15.142C23.9784 15.2194 23.9626 15.3514 23.9626 15.538V17.0236L23.9643 17.0218Z" fill="white"/>
</g>
<defs>
<clipPath id="clip0_2094_73921">
<rect width="67.5703" height="32" fill="white"/>
</clipPath>
</defs>
</svg>
