<svg width="33" height="32" viewBox="0 0 33 32" fill="none" xmlns="http://www.w3.org/2000/svg">
<g clipPath="url(#clip0_2094_74625)">
<path d="M0.508789 0.015625H32.4485V31.9553H0.508789V0.015625Z" fill="#E4292A"/>
<path d="M11.7436 9.43812C13.3246 7.81719 14.9216 6.2202 16.5265 4.61523C18.0916 6.21222 19.6646 7.80122 21.2456 9.37424C20.9422 9.69364 20.6308 10.0051 20.3194 10.3165C19.0498 9.05485 17.7962 7.78525 16.5345 6.51564C16.3828 6.57952 16.303 6.73124 16.1832 6.83504C15.0094 8.01681 13.8356 9.20656 12.6539 10.3803C12.3664 10.045 12.047 9.74954 11.7436 9.43812ZM4.5332 16.6565C6.68115 14.5006 8.8211 12.3366 10.969 10.1727C13.0212 12.2408 15.0653 14.3089 17.1254 16.369C17.2133 16.4569 17.3011 16.5527 17.3809 16.6565C16.7741 16.6645 16.1672 16.6565 15.5604 16.6565C14.0353 15.1234 12.4942 13.5903 10.977 12.0412C9.45191 13.5823 7.92679 15.1314 6.37772 16.6565C5.76288 16.6485 5.14804 16.6645 4.5332 16.6565ZM14.4585 12.169C15.1452 11.5222 15.7919 10.8275 16.4707 10.1727C18.6026 12.3366 20.7586 14.4846 22.8905 16.6565H21.1179C21.0221 16.6645 20.9662 16.5687 20.9023 16.5207C20.3354 15.9538 19.7684 15.3789 19.2015 14.812C18.8741 15.1952 18.4988 15.5306 18.1475 15.8979C17.8361 15.5785 17.5167 15.2671 17.2053 14.9477C17.5726 14.5964 17.9159 14.2371 18.2752 13.8777C17.6764 13.2629 17.0615 12.664 16.4707 12.0492C16.1193 12.4005 15.76 12.7519 15.4166 13.1192C15.0733 12.8317 14.7779 12.4884 14.4585 12.169ZM19.9601 12.169C20.6468 11.5222 21.2856 10.8275 21.9723 10.1807C24.0963 12.3526 26.2682 14.4846 28.3842 16.6645H26.5317C25.0145 15.1234 23.4734 13.5983 21.9643 12.0492C21.597 12.4005 21.2536 12.7758 20.8863 13.1272C20.5829 12.7998 20.2555 12.4963 19.9601 12.169ZM10.0268 16.6565C10.6976 15.9858 11.3683 15.323 12.0231 14.6443C12.3425 14.9557 12.6539 15.2751 12.9653 15.5865C12.598 15.9458 12.2466 16.3131 11.8793 16.6645C11.2565 16.6485 10.6417 16.6645 10.0268 16.6565ZM12.2866 20.7208C12.6938 20.7208 13.093 20.7208 13.5003 20.7128C13.5083 22.8927 13.5162 25.0806 13.5003 27.2605C13.125 27.2525 12.7497 27.2525 12.3744 27.2605C12.3664 25.6954 12.3904 24.1384 12.3584 22.5733C11.6957 23.6114 11.017 24.6414 10.3303 25.6715C9.65153 24.6574 8.98879 23.6193 8.31007 22.5973C8.2941 24.1543 8.31805 25.7034 8.30208 27.2605H7.19218V20.7208C7.59941 20.7208 8.00664 20.7208 8.41387 20.7288C9.04468 21.7668 9.71542 22.7729 10.3382 23.811C10.993 22.7889 11.6398 21.7509 12.2866 20.7208ZM14.8497 20.7288C15.8159 20.7048 16.7901 20.7208 17.7562 20.7208C18.3311 20.7128 18.938 20.8406 19.3692 21.2398C19.9201 21.7429 20.008 22.6452 19.6167 23.268C19.457 23.5315 19.1855 23.6832 18.9619 23.8749C19.489 24.0186 20 24.3939 20.1437 24.9448C20.3034 25.5277 20.1916 26.2304 19.7365 26.6536C19.2334 27.1327 18.5068 27.2445 17.8441 27.2605H14.8657C14.8497 25.0886 14.8657 22.9087 14.8497 20.7288ZM15.9596 21.7668C15.9756 22.3338 15.9676 22.9007 15.9596 23.4676C16.4786 23.4756 16.9897 23.4676 17.5087 23.4756C17.86 23.4676 18.2513 23.4117 18.5068 23.1482C18.7224 22.9326 18.7384 22.5893 18.6665 22.3098C18.5308 21.9425 18.1235 21.7748 17.7482 21.7668C17.1653 21.7269 16.5585 21.687 15.9596 21.7668ZM15.9676 24.4418V26.2384C16.5665 26.2464 17.1574 26.2384 17.7482 26.2464C18.1076 26.2464 18.5068 26.2144 18.7863 25.9669C19.1536 25.6715 19.1696 25.0486 18.8182 24.7372C18.5467 24.5137 18.1714 24.4578 17.8281 24.4418C17.2133 24.4338 16.5904 24.4418 15.9676 24.4418ZM22.4913 20.7128C23.5533 20.4573 24.7111 20.7448 25.5495 21.4395C25.3419 21.7269 25.1503 22.0224 24.9347 22.3098C24.3837 21.9106 23.721 21.5912 23.0263 21.655C22.7468 21.695 22.4434 21.7828 22.2837 22.0303C22.0441 22.3577 22.1399 22.8767 22.5072 23.0604C23.2099 23.4437 24.0483 23.4596 24.759 23.8429C25.2062 24.0585 25.5894 24.4498 25.6932 24.9448C25.7651 25.4399 25.7411 25.9829 25.4697 26.4141C25.1024 27.0369 24.3518 27.3084 23.6651 27.3563C22.6031 27.4202 21.5411 27.0289 20.7586 26.3103C20.9901 26.0388 21.2217 25.7673 21.4373 25.4798C21.9004 25.8631 22.4194 26.2144 23.0263 26.2943C23.4814 26.3582 24.0164 26.3661 24.3757 26.0388C24.6951 25.7593 24.6951 25.1524 24.3198 24.9209C23.8647 24.6175 23.2978 24.5536 22.7867 24.3939C22.2517 24.2422 21.6848 24.0425 21.3335 23.5874C21.0141 23.1802 21.0061 22.6372 21.07 22.1501C21.1738 21.4235 21.7966 20.8805 22.4913 20.7128Z" fill="white"/>
</g>
<defs>
<clipPath id="clip0_2094_74625">
<rect width="32" height="32" fill="white" transform="translate(0.492676)"/>
</clipPath>
</defs>
</svg>
