<svg width="93" height="32" viewBox="0 0 93 32" fill="none" xmlns="http://www.w3.org/2000/svg">
<g clipPath="url(#clip0_2094_74644)">
<path d="M31.956 0.0214844C32.0007 0.0214844 32.0007 0.0661572 32.0454 0.0661572C32.6261 0.24485 32.9835 0.646909 32.9835 1.27234V10.2963C32.7602 10.3857 32.6261 10.2963 32.4921 10.1176C32.3581 9.93896 32.1794 9.76026 32.0007 9.58156C29.1863 6.81182 26.3719 3.99741 23.6021 1.22766C23.3788 1.0043 23.1554 0.780929 22.932 0.602236C22.7087 0.468216 22.6193 0.289524 22.664 0.0214844C25.7465 0.0214843 28.8289 0.0214844 31.956 0.0214844Z" fill="#233166"/>
<path d="M11.3171 0.0214844C11.3618 0.289524 11.2277 0.423543 11.049 0.602236C10.781 0.825602 10.513 1.09364 10.2449 1.31701C9.88754 1.62972 9.57483 1.98711 9.21744 2.34449C6.84976 4.71218 4.4374 7.12454 2.06972 9.53689C1.89102 9.71559 1.71233 9.89428 1.53364 10.1176C1.39962 10.2963 1.22093 10.341 0.997559 10.2963V1.0043C1.13158 0.780929 1.22093 0.557562 1.35495 0.423542C1.53364 0.244849 1.757 0.155504 1.98037 0.0214844H11.3171Z" fill="#233166"/>
<path d="M0.997551 21.5983C1.22092 21.5536 1.39961 21.643 1.53363 21.8217C1.89102 22.2684 2.29308 22.6705 2.69514 23.0725C5.28619 25.6636 7.83256 28.2099 10.4236 30.801C10.647 31.0244 10.8703 31.2031 11.0937 31.4264C11.2724 31.5604 11.3171 31.6945 11.2277 31.9178H2.47177C1.71232 31.9178 1.17624 31.6945 0.908203 30.9797C0.997551 27.8526 0.997551 24.7254 0.997551 21.5983Z" fill="#233166"/>
<path d="M16.4991 30.9797C15.1589 30.9351 13.5953 30.3096 12.2998 29.0588C10.0214 26.7805 7.69843 24.5021 5.4201 22.2238C4.70532 21.509 3.94588 20.7942 3.32045 20.0348C1.26548 17.4884 1.53352 13.7359 3.81186 11.4128C6.62627 8.55376 9.48536 5.73934 12.2998 2.92492C14.8908 0.333869 19.0454 0.289196 21.6812 2.92492C24.5403 5.73934 27.3993 8.59843 30.2138 11.4575C31.3306 12.5743 31.9114 13.9145 32.0007 15.4781C32.1347 17.5331 31.4646 19.2753 29.9904 20.7496C27.7121 23.0279 25.3891 25.3509 23.1107 27.6292C22.4853 28.2547 21.8599 28.8801 21.2344 29.4609C20.0283 30.4437 18.554 30.9797 16.4991 30.9797ZM17.0352 23.3853H22.932C23.3341 23.3853 23.4234 23.2959 23.2894 22.8939L22.6193 20.8836C22.4853 20.5262 22.3513 20.4369 21.9492 20.4369H16.1864C15.963 20.3922 15.9183 20.3028 16.0523 20.1241C16.0523 20.0795 16.097 20.0795 16.1417 20.0348C18.42 17.0417 20.743 14.0486 23.0214 11.0555C23.2001 10.7874 23.3341 10.5194 23.3341 10.2067V9.08984C23.3341 8.73245 23.2001 8.59843 22.8874 8.59843H11.7637C11.4063 8.59843 11.3616 8.73245 11.451 9.04516L12.1211 11.0555C12.2551 11.4575 12.3891 11.5469 12.7912 11.5469H17.7499C17.8393 11.5469 17.9733 11.5915 18.0626 11.6362C18.018 11.7256 17.9733 11.8596 17.9286 11.9489L17.8839 11.9936C15.5609 15.0314 13.1932 18.0692 10.8702 21.107C10.6915 21.3303 10.6022 21.5984 10.6022 21.8664V22.8492C10.6022 23.2513 10.6915 23.3853 11.1383 23.3853C13.1039 23.3853 15.0695 23.3853 17.0352 23.3853Z" fill="#049DA8"/>
<path d="M69.2132 9.93892H69.928C70.9108 9.93892 71.8936 9.93892 72.8764 9.89425C73.0998 9.89425 73.3231 9.84957 73.5465 9.8049C73.9485 9.71555 74.2613 9.44751 74.3953 9.04545C74.5293 8.59872 74.6633 8.15199 74.7527 7.70526C74.842 7.25852 75.0207 7.07983 75.4674 7.03516C75.6461 7.03516 75.8248 7.03516 76.0035 7.07983C76.3162 7.16918 76.4056 7.3032 76.4056 7.61591V9.62621C76.4056 9.84957 76.4503 9.89425 76.6736 9.89425H79.9794C80.2921 9.89425 80.4709 9.9836 80.5155 10.2963C80.5602 10.5197 80.5602 10.743 80.5602 10.9664C80.5155 11.4131 80.2922 11.5472 79.8454 11.5472H76.4502V17.7567C76.4502 18.2928 76.5396 18.8289 76.6736 19.3203C76.8076 19.8117 77.0757 19.9904 77.6118 19.9904C78.1925 19.9904 78.7733 19.8564 79.2647 19.5437C79.5327 19.365 79.7561 19.4097 79.9794 19.633C80.2475 19.9011 80.2922 20.1691 80.1135 20.4371C79.7114 21.1072 79.1307 21.5093 78.3712 21.7327C77.5224 21.956 76.629 22.0007 75.7355 21.822C74.5293 21.554 73.8145 20.8392 73.6358 19.5884C73.5912 19.1863 73.5465 18.7842 73.5465 18.3822V11.9939C73.5465 11.7259 73.4125 11.5918 73.1444 11.5918H69.2579V18.1141C69.2579 18.5609 69.3919 18.9629 69.4812 19.4097C69.5706 19.8117 69.8833 19.9904 70.2853 19.9904C70.9108 20.0351 71.4915 19.8564 72.0276 19.5437C72.3403 19.365 72.5637 19.4097 72.7871 19.633C73.0551 19.9011 73.0551 20.1244 72.8764 20.4371C72.385 21.1966 71.6702 21.6433 70.7768 21.822C69.9726 21.956 69.2132 21.956 68.4091 21.822C67.2922 21.5987 66.6221 20.8839 66.3988 19.767C66.3094 19.4097 66.3094 19.0076 66.3094 18.6502V11.8599C66.3094 11.6812 66.2201 11.6365 66.0861 11.6365H65.3266C65.0586 11.6365 64.8799 11.5472 64.8352 11.2791C64.7905 11.0558 64.7905 10.8324 64.7905 10.6537C64.8352 10.341 64.9692 10.207 65.2819 10.1623C65.55 10.1176 65.8627 10.0729 66.1307 10.0283C66.7115 9.89425 67.0689 9.53686 67.2476 9.00078C67.3816 8.6434 67.4709 8.24134 67.5603 7.88395C67.6943 7.3032 68.007 7.03516 68.6324 7.12451C69.1238 7.16918 69.2579 7.34788 69.2579 7.83928V9.71556C69.2132 9.71556 69.2132 9.8049 69.2132 9.93892Z" fill="#233166"/>
<path d="M87.4402 20.7046C86.8595 21.1513 86.234 21.5087 85.5193 21.732C84.5365 22.0001 83.509 22.0894 82.4815 21.7767C81.5433 21.5087 80.8732 20.8832 80.6499 19.9004C80.3372 18.7389 80.4265 17.5774 81.2753 16.6393C81.7667 16.0585 82.3921 15.7011 83.1069 15.4331C84.1791 15.031 85.2959 14.897 86.4574 14.8077H86.9488C87.0828 14.8077 87.1275 14.763 87.1275 14.629C87.1275 13.8695 87.1722 13.1101 86.9935 12.3506C86.6808 11.1445 85.9213 10.8764 84.8492 10.9658C84.4918 11.0104 84.1344 11.0998 83.8217 11.3678C83.509 11.6359 83.4196 11.9933 83.5983 12.306C84.0897 13.1548 83.7323 14.0036 82.7942 14.2269C81.9901 14.4503 81.0519 14.1822 80.8732 13.1548C80.7839 12.708 80.8286 12.306 81.0072 11.9039C81.32 11.1445 81.856 10.6084 82.5708 10.251C83.7323 9.62558 84.9832 9.44689 86.3234 9.5809C86.9488 9.67025 87.5742 9.80427 88.155 10.0723C89.2271 10.6084 89.8079 11.5465 89.9866 12.708C90.0313 13.1101 90.0759 13.5122 90.0759 13.9142V19.0963C90.0759 19.3197 90.1206 19.4984 90.1653 19.7217C90.21 19.9451 90.344 20.0791 90.5673 20.0345C90.8354 19.9898 91.0587 19.9451 91.2821 19.8111C91.5948 19.6324 91.8182 19.6771 92.0416 19.9451C92.2649 20.2131 92.2649 20.4812 92.0416 20.7492C91.1928 21.6874 90.1653 22.1788 88.9144 21.8661C88.3337 21.732 87.9316 21.3747 87.5742 20.9279C87.5296 20.8386 87.4849 20.7939 87.4402 20.7046ZM87.1275 16.1479C86.9041 16.1926 86.6808 16.1925 86.5021 16.2372C85.7873 16.3712 85.1172 16.5053 84.5365 16.8627C83.8217 17.3094 83.4643 17.9348 83.5983 18.7836C83.6877 19.4984 84.045 19.9004 84.7598 19.9451C85.6086 19.9898 86.4127 19.7217 87.0828 19.1857C87.1722 19.0963 87.2169 18.9623 87.2169 18.8283V16.3712C87.1275 16.3266 87.1275 16.2372 87.1275 16.1479Z" fill="#233166"/>
<path d="M57.1068 15.3438C57.1068 16.3713 57.2408 17.3094 57.6876 18.2029C58.179 19.0963 58.9831 19.5877 59.9659 19.7218C60.77 19.8558 61.5741 19.7664 62.3783 19.6324C62.7803 19.5431 63.1824 19.3644 63.4951 19.0963C63.7185 18.9176 63.9418 18.873 64.2099 19.0517C64.4332 19.1857 64.5673 19.409 64.5673 19.6771C64.5673 19.8111 64.5226 19.9005 64.4332 20.0345C63.5844 21.196 62.3783 21.7767 60.904 21.9108C59.8766 22.0001 58.8937 21.9554 57.9109 21.6874C56.0793 21.1513 54.8732 19.9898 54.2924 18.1582C53.7117 16.3266 53.7117 14.4503 54.6498 12.7081C55.7666 10.5191 57.5982 9.4469 60.0553 9.49157C62.557 9.53625 64.3886 11.2785 64.7013 13.8249C64.746 14.0929 64.746 14.4056 64.746 14.6737C64.746 15.0757 64.4779 15.3438 64.0312 15.3438H57.4195C57.3302 15.3438 57.1962 15.3438 57.1068 15.3438ZM57.1068 13.8696L57.1962 13.9142H61.4848C61.6188 13.9142 61.6635 13.8249 61.6635 13.7355C61.6635 13.5122 61.7082 13.2888 61.6635 13.0654C61.5741 12.2613 61.2168 11.5465 60.4573 11.1445C59.5638 10.6978 57.9109 10.9658 57.4195 12.5294C57.2855 12.9314 57.2408 13.4228 57.1068 13.8696Z" fill="#233166"/>
<path d="M47.3235 20.258C47.5469 20.3027 47.6809 20.3027 47.8596 20.3027C48.7977 20.3474 49.7806 20.392 50.7187 20.258C51.2995 20.1687 51.7015 19.9006 51.9249 19.3645C52.0589 19.0072 52.1929 18.6051 52.3269 18.2477C52.461 17.8903 52.7737 17.7116 53.2204 17.801C53.6225 17.8903 53.7118 18.1137 53.6671 18.5157C53.5778 19.3199 53.4884 20.124 53.4438 20.9281C53.3991 21.5535 53.3097 21.6875 52.6843 21.6875H44.3751C43.705 21.6875 43.4816 21.1961 43.7943 20.7047C44.7772 19.1412 45.76 17.6223 46.7428 16.0587C47.7256 14.5398 48.7084 13.0656 49.6912 11.5914C49.7359 11.502 49.7806 11.4127 49.8699 11.2787C49.1105 11.2787 48.4404 11.234 47.7703 11.234C47.3235 11.234 46.8768 11.2787 46.4301 11.368C45.894 11.4574 45.5366 11.7701 45.3132 12.2615C45.1792 12.5295 45.0899 12.8422 44.9558 13.155C44.7771 13.6464 44.1964 13.8251 43.7943 13.5123C43.705 13.423 43.6156 13.2443 43.6603 13.1103C43.705 12.2615 43.7943 11.4127 43.8837 10.5192C43.9284 10.1172 44.0624 9.93848 44.4644 9.93848H52.729C53.3991 9.93848 53.5331 10.4746 53.2651 10.8766C52.9524 11.368 52.6843 11.9041 52.3269 12.3955C51.2101 14.1378 50.0486 15.8354 48.9318 17.5776C48.3957 18.3817 47.9043 19.2305 47.4129 20.0793C47.4129 20.124 47.3682 20.1687 47.3235 20.258Z" fill="#233166"/>
<path d="M32.9835 21.5986V30.578C32.9835 31.2481 32.6261 31.6948 32.0454 31.8735C31.9113 31.9182 31.7773 31.9182 31.6433 31.9182H22.664C22.6193 31.7395 22.6193 31.5608 22.798 31.4268C23.066 31.2481 23.2894 30.98 23.5128 30.7567C25.8358 28.4336 28.1588 26.1106 30.4818 23.7876C31.1519 23.1175 31.822 22.4028 32.5368 21.688C32.6261 21.6433 32.8048 21.6433 32.9835 21.5986Z" fill="#233166"/>
<path d="M90.1206 7.30286C90.1206 6.63276 90.6567 6.09668 91.3268 6.09668C91.9969 6.09668 92.533 6.63276 92.533 7.30286C92.533 7.97296 91.9969 8.50904 91.3268 8.50904C90.6567 8.50904 90.1206 7.97296 90.1206 7.30286ZM90.3887 7.30286C90.3887 7.83894 90.7907 8.241 91.2821 8.241C91.8182 8.241 92.2649 7.83894 92.2649 7.30286C92.2649 6.81145 91.8182 6.36472 91.3268 6.36472C90.7907 6.36472 90.3887 6.76678 90.3887 7.30286Z" fill="#233166"/>
<path d="M91.6843 7.70536C91.729 7.79471 91.729 7.83938 91.7736 7.92873C91.4609 8.10742 91.0589 8.06275 90.8355 7.83938C90.6121 7.57134 90.6121 7.16928 90.8355 6.90124C91.0589 6.6332 91.4609 6.54386 91.7736 6.76722C91.7736 6.85657 91.729 6.90124 91.6843 6.99059C91.4162 6.90124 91.1929 6.85657 91.0142 7.12461C90.8802 7.3033 90.8802 7.482 91.0142 7.66069C91.1929 7.83938 91.4162 7.75003 91.6843 7.70536Z" fill="#233166"/>
</g>
<defs>
<clipPath id="clip0_2094_74644">
<rect width="91.798" height="32" fill="white" transform="translate(0.851562)"/>
</clipPath>
</defs>
</svg>
