<svg width="174" height="32" viewBox="0 0 174 32" fill="none" xmlns="http://www.w3.org/2000/svg">
<g clipPath="url(#clip0_2094_73918)">
<path fillRule="evenodd" clipRule="evenodd" d="M32.7328 0.192383H26.3716V31.998H39.0939L48.447 0.197591V31.998H54.8081V0.192383H42.0873L32.7328 31.998V0.192383ZM6.81833 6.5532H0.45752V31.9977H6.81865V6.55351H22.2535V0.192383H6.81833V6.5532ZM88.1093 0.192383H99.2433L109.814 31.998H103.453L101.214 25.2634H86.138L83.8997 31.998H77.5386L88.1093 0.192383ZM93.6765 2.58206L99.1001 18.9023H88.2521L93.6765 2.58206ZM60.4236 0.192383H81.4648V6.55351H66.7847V31.998H60.4236V0.192383ZM119.167 0.192383H112.806V31.998H119.167V19.6508H134.134V13.2896H119.167V0.192383ZM134.136 0.192383H140.498V31.998H134.136V0.192383ZM161.732 0.192383H143.865V6.55351H155.371V31.998H161.732V0.192383ZM166.768 0.192383H173.236V6.66008H166.768V0.192383Z" fill="#5062AD"/>
</g>
<defs>
<clipPath id="clip0_2094_73918">
<rect width="173.105" height="32" fill="white" transform="translate(0.351562)"/>
</clipPath>
</defs>
</svg>
