<svg width="112" height="32" viewBox="0 0 112 32" fill="none" xmlns="http://www.w3.org/2000/svg">
<g clipPath="url(#clip0_2094_72838)">
<mask id="mask0_2094_72838" style="mask-type:luminance" maskUnits="userSpaceOnUse" x="0" y="0" width="112" height="32">
<path d="M111.708 0.0263672H0.841797V31.9063H111.708V0.0263672Z" fill="white"/>
</mask>
<g mask="url(#mask0_2094_72838)">
<path d="M46.7085 10.4035C46.3283 10.0909 45.8849 9.84091 45.3781 9.65336C44.8712 9.46582 44.3011 9.40332 43.6675 9.40332H39.4863V22.4678H42.2738V17.7171H43.8576C44.4911 17.7171 45.0613 17.5921 45.5681 17.4046C46.0749 17.217 46.5184 16.9045 46.8352 16.5919C47.2152 16.2169 47.4687 15.7793 47.6587 15.2792C47.8488 14.7791 47.9755 14.2166 47.9755 13.5915C47.9755 12.9039 47.8488 12.2788 47.6587 11.7162C47.4053 11.1536 47.0885 10.7785 46.7085 10.4035ZM44.7445 14.7791C44.4278 15.0292 44.0477 15.1542 43.6675 15.1542H42.2104V11.9037H43.6675C44.1744 11.9037 44.5545 12.0287 44.8079 12.2788C45.0613 12.5288 45.2514 12.9039 45.2514 13.4664C45.188 14.0916 45.0613 14.5291 44.7445 14.7791Z" fill="#005B9C"/>
<path d="M57.3525 10.6535C57.0353 10.2784 56.5919 9.9659 56.0221 9.71586C55.5152 9.46582 54.8814 9.34082 54.1214 9.34082C53.3613 9.34082 52.6641 9.46582 52.1575 9.71586C51.5873 9.9659 51.2072 10.2784 50.8271 10.716C50.5103 11.0911 50.2569 11.5911 50.0669 12.0287C49.9402 12.5288 49.8135 13.0289 49.8135 13.529V18.1547C49.8135 18.7173 49.8768 19.2798 50.0669 19.8424C50.1936 20.4051 50.447 20.8426 50.8271 21.2802C51.1438 21.7178 51.5873 22.0303 52.1575 22.2178C52.6641 22.4678 53.3613 22.5929 54.1214 22.5929C54.7551 22.5929 55.3249 22.4678 55.8318 22.2803C56.3387 22.0928 56.7822 21.7803 57.1622 21.4677C57.5422 21.0926 57.7959 20.6551 58.0491 20.155C58.2394 19.6549 58.3657 19.0298 58.3657 18.4047V13.529C58.3657 13.0289 58.3028 12.5288 58.1126 12.0287C57.9857 11.4662 57.7325 11.0286 57.3525 10.6535ZM55.642 18.5297C55.642 18.9673 55.5152 19.2798 55.1986 19.5924C54.8814 19.8424 54.5648 19.9675 54.1848 19.9675C53.6145 19.9675 53.2344 19.7799 53.0442 19.4674C52.791 19.1549 52.6641 18.7173 52.6641 18.2172V13.4039C52.6641 13.2789 52.6641 13.0914 52.7276 12.9039C52.791 12.7164 52.8544 12.5913 52.9813 12.4038C53.1076 12.2788 53.2344 12.1537 53.4247 12.0287C53.6145 11.9662 53.8682 11.9037 54.1214 11.9037C54.3746 11.9037 54.6283 11.9662 54.818 12.0912C55.0083 12.2163 55.1352 12.3413 55.2615 12.4663C55.3883 12.5913 55.4518 12.7789 55.5152 12.9664C55.5786 13.1539 55.5786 13.2789 55.5786 13.4039V18.5297H55.642Z" fill="#005B9C"/>
<path d="M63.8774 12.9029C63.9409 12.7154 64.0043 12.5904 64.1306 12.4028C64.2575 12.2778 64.3843 12.1528 64.5741 12.0278C64.7644 11.9653 65.0176 11.9028 65.2713 11.9028C65.5244 11.9028 65.7781 11.9653 65.9679 12.0278C66.1582 12.1528 66.2845 12.2778 66.4748 12.4028C66.6016 12.5279 66.6651 12.7154 66.728 12.8404C66.7914 13.028 66.8548 13.153 66.8548 13.278L69.4522 12.5279C69.3893 12.0903 69.199 11.7153 69.0087 11.2777C68.819 10.9026 68.5024 10.5276 68.1852 10.215C67.8686 9.90247 67.4252 9.65243 66.9817 9.46489C66.4748 9.27734 65.9679 9.21484 65.3347 9.21484C64.5741 9.21484 63.8774 9.33989 63.3705 9.58993C62.8002 9.83997 62.4202 10.1525 62.0402 10.59C61.7235 10.9651 61.4698 11.4652 61.2801 11.9028C61.1532 12.4028 61.0264 12.9029 61.0264 13.403V18.1537C61.0264 18.7163 61.0898 19.2789 61.2801 19.8415C61.4069 20.4041 61.6601 20.8417 62.0402 21.2792C62.3568 21.7168 62.8002 22.0294 63.3705 22.2169C63.9409 22.4669 64.5741 22.592 65.3347 22.592C66.4114 22.592 67.2983 22.2794 68.0584 21.7168C68.819 21.1542 69.2624 20.3416 69.4522 19.3414L66.8548 18.5913C66.7914 19.0289 66.6016 19.3414 66.3479 19.5915C66.0313 19.8415 65.7147 19.9665 65.3347 19.9665C64.7644 19.9665 64.3843 19.779 64.194 19.4665C64.0043 19.1539 63.8774 18.7163 63.8774 18.2162V13.403C63.814 13.2155 63.8774 13.0905 63.8774 12.9029Z" fill="#005B9C"/>
<path d="M74.647 12.9029C74.7104 12.7154 74.7733 12.5904 74.9001 12.4028C75.027 12.2778 75.1538 12.1528 75.3436 12.0278C75.5339 11.9653 75.7871 11.9028 76.0408 11.9028C76.294 11.9028 76.5472 11.9653 76.7374 12.0278C76.9277 12.1528 77.054 12.2778 77.2443 12.4028C77.3712 12.5279 77.4341 12.7154 77.4975 12.8404C77.5609 13.028 77.6244 13.153 77.6244 13.278L80.2217 12.5279C80.1583 12.0903 79.9685 11.7153 79.7783 11.2777C79.5885 10.9026 79.2714 10.5276 78.9548 10.215C78.6381 9.90247 78.1947 9.65243 77.7512 9.46489C77.2443 9.27734 76.7374 9.21484 76.1037 9.21484C75.3436 9.21484 74.647 9.33989 74.1401 9.58993C73.5697 9.83997 73.1897 10.1525 72.8097 10.59C72.4931 10.9651 72.2394 11.4652 72.0496 11.9028C71.9227 12.4028 71.7959 12.9029 71.7959 13.403V18.1537C71.7959 18.7163 71.8593 19.2789 72.0496 19.8415C72.1759 20.4041 72.4296 20.8417 72.8097 21.2792C73.1263 21.7168 73.5697 22.0294 74.1401 22.2169C74.647 22.4669 75.3436 22.592 76.1037 22.592C77.1809 22.592 78.0678 22.2794 78.8279 21.7168C79.5885 21.1542 80.032 20.3416 80.2217 19.3414L77.6244 18.5913C77.5609 19.0289 77.4341 19.3414 77.1175 19.5915C76.8009 19.8415 76.4842 19.9665 76.1037 19.9665C75.5339 19.9665 75.1538 19.779 74.9636 19.4665C74.7733 19.1539 74.647 18.7163 74.647 18.2162V13.403C74.5201 13.2155 74.5835 13.0905 74.647 12.9029Z" fill="#005B9C"/>
<path d="M82.8193 22.4678H90.4851V19.905H85.5435V17.1545H89.8513V14.6541H85.5435V11.9037H90.4851V9.40332H82.8193V22.4678Z" fill="#005B9C"/>
<path d="M92.0059 11.9037H94.8564V22.4678H97.5806V11.9037H100.432V9.40332H92.0059V11.9037Z" fill="#005B9C"/>
<path d="M109.237 9.40332L105.436 16.967V9.40332H102.648V22.4678H105.246L108.92 15.3417H108.984V22.4678H111.708V9.40332H109.237Z" fill="#005B9C"/>
<path d="M18.6438 7.77747L3.62929 6.96484C1.85543 9.52776 0.841797 12.6533 0.841797 15.9662C0.841797 16.8414 0.905149 17.7165 1.09521 18.5917L18.8338 8.34005C18.7071 8.15256 18.7071 7.96501 18.6438 7.77747Z" fill="#005B9C"/>
<path d="M22.6348 8.71517L33.0245 18.4042C33.1512 17.5916 33.2146 16.7789 33.2146 15.9038C33.2146 12.4658 32.1376 9.34026 30.237 6.71484L23.0149 7.65251C23.0149 8.02755 22.8248 8.40264 22.6348 8.71517Z" fill="#005B9C"/>
<path d="M19.2142 8.96484L1.47559 20.4666C2.67927 24.4672 5.46676 27.8428 9.14117 29.8431L19.5309 9.21489C19.4042 9.21489 19.3409 9.08984 19.2142 8.96484Z" fill="#005B9C"/>
<path d="M20.291 9.59082L10.8516 30.7191C12.7521 31.4692 14.8427 31.9068 16.9967 31.9068C19.1507 31.9068 21.1779 31.4693 23.0152 30.7816L20.6711 9.71587C20.5444 9.65337 20.4177 9.65337 20.291 9.59082Z" fill="#005B9C"/>
<path d="M21.4951 9.58988L24.7894 29.968C28.4639 27.9677 31.2513 24.5922 32.5184 20.5291L22.0653 9.33984C21.8753 9.46484 21.6852 9.52733 21.4951 9.58988Z" fill="#005B9C"/>
<path d="M19.4676 5.83978L16.0466 0.0263672C11.6119 0.276406 7.68412 2.27672 4.95996 5.33969L18.7074 6.96494C18.8341 6.5274 19.0875 6.15232 19.4676 5.83978Z" fill="#005B9C"/>
<path d="M20.8607 5.40219C21.7477 5.40219 22.5079 5.96477 22.8247 6.7149L28.9698 5.27719C26.2457 2.27672 22.3812 0.276406 18.0732 0.0263672L20.3539 5.46474C20.4806 5.40219 20.6707 5.40219 20.8607 5.40219Z" fill="#005B9C"/>
</g>
</g>
<defs>
<clipPath id="clip0_2094_72838">
<rect width="110.933" height="32" fill="white" transform="translate(0.841797)"/>
</clipPath>
</defs>
</svg>
