<svg width="116" height="32" viewBox="0 0 116 32" fill="none" xmlns="http://www.w3.org/2000/svg">
<g clipPath="url(#clip0_2094_72825)">
<path d="M13.0831 6.80469C15.1249 11.9854 11.7961 15.3103 8.48083 18.6409C5.39512 22.0434 2.67687 25.5806 8.1442 31.9469C6.10116 26.7676 9.43055 23.4407 12.7433 20.1145C15.8322 16.7037 18.5498 13.1717 13.0831 6.80469Z" fill="#EF4043"/>
<path d="M8.14389 0.179688C10.1882 5.36168 6.86077 8.68461 3.54293 12.0134C0.457885 15.4197 -2.25975 18.9569 3.20948 25.3219C1.16583 20.1387 4.49455 16.8164 7.80921 13.4876C10.8962 10.0813 13.6112 6.54543 8.14389 0.179688ZM92.0384 20.6959V31.285H96.676V27.4086H101.772V25.0905H96.676V23.0141H106.785V31.285H111.423V23.0141H115.624V20.6959M82.0881 28.9867V27.1508H88.1358V24.8314H82.0881V23.0135H89.8556V20.6953H77.4506V31.2844H89.9512V28.9867" fill="#00B375"/>
<path d="M33.1749 20.6959H20.3242V23.0141H24.4308V31.285H29.069V23.0141H33.1749M36.6871 27.272L38.8327 23.1738L40.8866 27.272H36.6871ZM42.332 20.6953H37.361L31.5725 31.2844H34.587L35.5386 29.4664H42.0383L42.9868 31.2844H48.1232" fill="#EF4043"/>
<path d="M71.7599 20.6963V25.9892L64.3432 20.6963H60.7432V31.2847H63.918V25.4589L71.5336 31.2847H74.9335V20.6963" fill="#00B375"/>
<path d="M59.168 20.6963H46.5859V23.0144H50.6919V31.2853H55.3307V23.0144H59.168" fill="#EF4043"/>
</g>
<defs>
<clipPath id="clip0_2094_72825">
<rect width="115.771" height="32" fill="white"/>
</clipPath>
</defs>
</svg>
