<svg width="99" height="32" viewBox="0 0 99 32" fill="none" xmlns="http://www.w3.org/2000/svg">
<g clipPath="url(#clip0_2094_74448)">
<path d="M63.8549 22.6646C61.5791 19.2997 58.2954 17.3652 54.8655 17.3652H46.0386L52.297 26.5985C54.5729 29.9635 57.8565 31.8979 61.2865 31.8979H70.1134L63.8549 22.6646Z" fill="#114069"/>
<path d="M88.7911 2.91406C85.0035 2.91406 80.8096 5.88887 77.3471 11.0582L67.6099 25.5584L71.9014 31.9144H73.1043C76.8919 31.9144 81.0859 28.9396 84.5484 23.7702L98.5609 2.91406H88.7911Z" fill="#CF1F40"/>
<mask id="mask0_2094_74448" style="mask-type:luminance" maskUnits="userSpaceOnUse" x="67" y="2" width="32" height="30">
<path d="M88.7921 2.91406C85.0045 2.91406 80.8105 5.88887 77.348 11.0582L67.6108 25.5584L71.9186 31.9144H73.1215C76.9091 31.9144 81.1031 28.9396 84.5656 23.7702L98.5618 2.91406H88.7921Z" fill="white"/>
</mask>
<g mask="url(#mask0_2094_74448)">
<path d="M98.5618 2.91406H67.6108V31.8981H98.5618V2.91406Z" fill="url(#paint0_linear_2094_74448)"/>
</g>
<path d="M8.24351 13.1551C7.93465 13.4965 7.60953 13.7566 7.23565 13.9679C6.86177 14.1792 6.48788 14.3418 6.13026 14.4556C5.75637 14.5694 5.415 14.6506 5.08989 14.6994C4.76477 14.7482 4.48842 14.7644 4.2771 14.7644C3.56184 14.7644 2.99289 14.6669 2.57024 14.4556C2.14759 14.2442 1.82248 13.9841 1.59489 13.6428C1.36731 13.3177 1.22101 12.9438 1.13973 12.5374C1.05845 12.131 1.02594 11.7246 1.02594 11.3345C1.00969 10.6029 1.12348 10.0015 1.35106 9.51381C1.57864 9.02614 1.8875 8.65226 2.27764 8.35965C2.66778 8.06705 3.13919 7.87198 3.67563 7.74193C4.21207 7.62814 4.81354 7.56312 5.44751 7.56312H7.83711V7.3843C7.83711 7.238 7.82086 7.10795 7.78835 6.99416C7.75583 6.88037 7.67455 6.78284 7.56076 6.70156C7.44697 6.62028 7.28442 6.55526 7.05683 6.52275C6.82925 6.49023 6.52039 6.47398 6.14651 6.47398C6.01647 6.47398 5.8214 6.47399 5.59381 6.49024C5.36623 6.5065 5.10614 6.52276 4.82979 6.53901C4.55344 6.55526 4.2771 6.57152 4.017 6.60403C3.74066 6.63654 3.49682 6.65279 3.28549 6.66905C3.09043 6.70156 2.92787 6.71781 2.81408 6.71781C2.70029 6.71781 2.60275 6.71782 2.52147 6.6853C2.44019 6.65279 2.39143 6.60402 2.35892 6.52274C2.3264 6.44146 2.29389 6.34393 2.26138 6.19763L1.93627 4.75087C1.8875 4.52329 1.92001 4.32821 2.01754 4.16566C2.11508 4.0031 2.39143 3.84054 2.83033 3.67798C3.10668 3.58045 3.41554 3.48291 3.77317 3.40163C4.13079 3.32036 4.48842 3.27159 4.84605 3.22282C5.20368 3.17405 5.5613 3.14154 5.91893 3.12529C6.2603 3.10903 6.56916 3.09277 6.82925 3.09277C7.96716 3.09277 8.87748 3.19031 9.54397 3.38538C10.2267 3.58045 10.7469 3.87305 11.1208 4.23068C11.4947 4.60456 11.7385 5.05972 11.8523 5.61242C11.9661 6.16512 12.0311 6.79909 12.0311 7.51435V10.4241C12.0311 10.9118 12.0799 11.2044 12.2099 11.3182C12.3237 11.432 12.5513 11.5133 12.8927 11.562C13.104 11.5945 13.234 11.6271 13.2991 11.6921C13.3641 11.7408 13.3966 11.8546 13.3966 12.0172V13.8704C13.3966 14.0654 13.3316 14.2117 13.1853 14.3093C13.0552 14.4068 12.8601 14.4718 12.6488 14.5368C12.3725 14.6181 12.1124 14.6669 11.836 14.6831C11.5597 14.6994 11.2833 14.7157 10.9745 14.7157C10.6819 14.7157 10.4055 14.6994 10.1292 14.6506C9.85283 14.6181 9.59273 14.5368 9.36515 14.4231C9.13757 14.3093 8.92625 14.1467 8.74743 13.9516C8.56862 13.7566 8.42232 13.4965 8.34104 13.1551H8.24351ZM7.73958 10.164H6.2603C5.9677 10.164 5.74012 10.2291 5.57756 10.3754C5.415 10.5054 5.33372 10.7492 5.33372 11.1069C5.33372 11.3345 5.38249 11.497 5.48002 11.5783C5.57756 11.6758 5.75637 11.7083 6.01646 11.7083C6.27656 11.7083 6.56916 11.6596 6.89428 11.5458C7.21939 11.432 7.512 11.3019 7.73958 11.1719V10.164Z" fill="#114069"/>
<path d="M23.7027 11.2694C24.0604 11.2694 24.2554 11.4645 24.2554 11.8383V14.0329C24.2554 14.3905 24.0766 14.5856 23.7027 14.5856H14.9084C14.6808 14.5856 14.5345 14.5368 14.4857 14.4555C14.4207 14.358 14.3882 14.2442 14.3882 14.0654V12.2772C14.3882 12.1635 14.4044 12.0172 14.437 11.8546C14.4695 11.692 14.5833 11.497 14.7946 11.2694L18.9723 6.62023H15.2497C14.8921 6.62023 14.7133 6.42516 14.7133 6.05128V3.85675C14.7133 3.49913 14.8921 3.32031 15.2497 3.32031H23.5727C23.8003 3.32031 23.9466 3.36908 24.0116 3.45036C24.0766 3.54789 24.1091 3.66168 24.1091 3.84049V5.64489C24.1091 5.77493 24.0929 5.92124 24.0604 6.0838C24.0279 6.24635 23.8978 6.44142 23.7027 6.65275L19.5575 11.2694H23.7027Z" fill="#114069"/>
<path d="M32.6112 13.6099L32.5624 13.5936C31.9935 14.0325 31.392 14.3414 30.7743 14.5039C30.1566 14.6828 29.6364 14.764 29.2137 14.764C28.3847 14.764 27.7344 14.634 27.2793 14.3739C26.8241 14.1138 26.4828 13.7562 26.2714 13.3335C26.0438 12.9109 25.9301 12.4232 25.8813 11.8868C25.8488 11.3503 25.8325 10.7976 25.8325 10.2449V3.87267C25.8325 3.77513 25.865 3.66134 25.9138 3.53129C25.9626 3.40125 26.1089 3.31997 26.3527 3.31997H29.5551C29.7664 3.31997 29.9127 3.36874 29.9777 3.48253C30.059 3.58006 30.0915 3.71011 30.0915 3.87267V9.4484C30.0915 10.0336 30.1891 10.4075 30.4166 10.57C30.628 10.7326 30.9043 10.8139 31.2619 10.8139C31.522 10.8139 31.7496 10.7651 31.9772 10.6838C32.1885 10.6026 32.4161 10.5213 32.6274 10.44V3.85641C32.6274 3.75887 32.6599 3.64508 32.7087 3.51504C32.7575 3.38499 32.9038 3.30371 33.1476 3.30371H36.35C36.5613 3.30371 36.7076 3.35248 36.7889 3.46627C36.8702 3.5638 36.9027 3.69385 36.9027 3.85641V14.0325C36.9027 14.1788 36.8702 14.3089 36.7889 14.4227C36.7076 14.5365 36.5613 14.5852 36.35 14.5852H33.1476C32.9038 14.5852 32.7575 14.5202 32.7087 14.3739C32.6599 14.2439 32.6274 14.1301 32.6274 14.0325V13.6099H32.6112Z" fill="#114069"/>
<path d="M43.4375 5.01123L43.4863 5.05999C43.7139 4.81616 43.974 4.58858 44.2503 4.36099C44.5429 4.14967 44.8355 3.9546 45.1281 3.79204C45.4207 3.62948 45.7133 3.49944 45.9734 3.4019C46.2498 3.28811 46.4936 3.22309 46.7049 3.19058C47.03 3.14181 47.2414 3.15807 47.3714 3.20684C47.5015 3.2556 47.5827 3.46693 47.6315 3.8083L47.9729 6.62055C47.9891 6.73434 47.9891 6.84813 47.9891 6.92941C47.9891 7.01069 47.9729 7.07571 47.9241 7.14073C47.8754 7.18949 47.7941 7.23827 47.6803 7.27077C47.5665 7.30329 47.4039 7.35205 47.1926 7.40082C46.4774 7.53086 45.8434 7.67717 45.2744 7.80721C44.7055 7.93726 44.0878 8.13233 43.4213 8.34365V14.0332C43.4213 14.1307 43.3888 14.2445 43.34 14.3745C43.2912 14.5046 43.1449 14.5859 42.9011 14.5859H39.6987C39.4874 14.5859 39.3411 14.5371 39.2598 14.4233C39.1785 14.3095 39.146 14.1957 39.146 14.0332V3.85706C39.146 3.71075 39.1785 3.58071 39.2598 3.46692C39.3411 3.36938 39.4874 3.30436 39.6987 3.30436H42.9011C43.1449 3.30436 43.2912 3.36938 43.34 3.51569C43.3888 3.64573 43.4213 3.75952 43.4213 3.85706V5.01123H43.4375Z" fill="#114069"/>
<path d="M56.6371 13.2854C56.3119 13.4805 55.9706 13.6593 55.6455 13.8381C55.3041 14.0169 54.9627 14.1632 54.5726 14.3095C54.1987 14.4395 53.7923 14.5533 53.3696 14.6346C52.947 14.7159 52.4918 14.7647 51.9879 14.7647C50.9638 14.7647 50.216 14.5046 49.7609 14.0006C49.3057 13.4967 49.0781 12.7327 49.0781 11.7411C49.0781 10.4569 49.4032 9.49778 50.0372 8.89632C50.6874 8.29485 51.7116 7.98599 53.1258 7.98599H56.6371V6.97815C56.6371 6.52299 56.5883 6.1491 56.507 5.82398C56.4257 5.51512 56.2794 5.25503 56.0519 5.04371C55.8405 4.84864 55.5317 4.68608 55.1578 4.58855C54.7839 4.49101 54.2962 4.44225 53.7273 4.44225C53.2396 4.44225 52.7032 4.4585 52.118 4.50727C51.5328 4.55603 50.9638 4.60481 50.4436 4.66983C50.2323 4.68608 50.1185 4.63731 50.1022 4.50727L50.0047 4.10087C50.0047 3.95457 50.086 3.84078 50.2485 3.7595C50.4924 3.66197 50.7687 3.59694 51.0938 3.53192C51.419 3.4669 51.7441 3.41813 52.0692 3.38562C52.3943 3.35311 52.7194 3.3206 53.0283 3.30434C53.3371 3.28809 53.6135 3.28809 53.8573 3.28809C54.7026 3.28809 55.3854 3.36936 55.9056 3.53192C56.4257 3.69448 56.8321 3.93832 57.1247 4.26343C57.4173 4.58855 57.6124 4.99494 57.7262 5.48262C57.84 5.97029 57.8888 6.53924 57.8888 7.18947V12.7652C57.8888 12.9765 57.905 13.1391 57.9375 13.2529C57.97 13.3667 58.0188 13.4479 58.0838 13.513C58.1489 13.578 58.2464 13.6105 58.3602 13.643C58.474 13.6593 58.6365 13.6918 58.8316 13.6918C58.9942 13.6918 59.0754 13.7568 59.0754 13.9031V14.3583C59.0754 14.4395 59.0592 14.4883 59.0104 14.5371C58.9616 14.5858 58.8804 14.6184 58.7341 14.6509C57.9863 14.7322 57.4661 14.6671 57.141 14.4883C56.8159 14.3095 56.6371 13.9031 56.6046 13.2854H56.6371ZM56.6533 9.0914H52.9795C52.5894 9.0914 52.2317 9.12391 51.9229 9.20519C51.5978 9.28647 51.3377 9.41651 51.1101 9.61158C50.8825 9.80665 50.7037 10.0667 50.5899 10.4081C50.4761 10.7332 50.4111 11.1559 50.4111 11.6761C50.4111 12.4238 50.5574 12.944 50.85 13.2204C51.1426 13.4967 51.6791 13.6268 52.4431 13.6268C52.7682 13.6268 53.1421 13.578 53.5485 13.4642C53.9549 13.3667 54.3612 13.2366 54.7514 13.0741C55.1415 12.9278 55.4992 12.7652 55.8405 12.6026C56.1656 12.4401 56.442 12.31 56.6533 12.18L56.6533 9.0914Z" fill="#114069"/>
<path d="M62.6678 0.817042C62.6678 1.04462 62.6191 1.23969 62.5378 1.40225C62.4402 1.56481 62.2289 1.64609 61.9038 1.64609C61.5624 1.64609 61.3349 1.56481 61.2536 1.40225C61.1723 1.23969 61.1235 1.04462 61.1235 0.817042C61.1235 0.589462 61.1723 0.39439 61.2698 0.248089C61.3674 0.101788 61.5787 0.0205078 61.8876 0.0205078C62.2127 0.0205078 62.4077 0.0855304 62.5053 0.231834C62.6191 0.378132 62.6678 0.573205 62.6678 0.817042ZM61.2861 3.87313C61.2861 3.74308 61.3186 3.64554 61.3674 3.59678C61.4161 3.54801 61.5137 3.53175 61.6275 3.53175H62.1964C62.3102 3.53175 62.3915 3.54801 62.4402 3.59678C62.4728 3.64554 62.489 3.72682 62.489 3.87313V14.2443C62.489 14.3744 62.4728 14.4719 62.4402 14.5207C62.4077 14.5694 62.3265 14.5857 62.1964 14.5857H61.6275C61.5137 14.5857 61.4161 14.5694 61.3674 14.5207C61.3186 14.4719 61.2861 14.3906 61.2861 14.2443V3.87313Z" fill="#114069"/>
<path d="M70.0973 4.66992C69.7884 4.73494 69.4958 4.81622 69.2032 4.91376C68.9106 5.02755 68.618 5.12508 68.3579 5.23888C68.0815 5.35267 67.8377 5.46646 67.6264 5.56399C67.3988 5.67778 67.2362 5.75906 67.1224 5.80783V14.2283C67.1224 14.4559 67.0086 14.5697 66.7811 14.5697H66.1633C66.0333 14.5697 65.952 14.5534 65.9195 14.5047C65.887 14.4559 65.8545 14.3746 65.8545 14.2283V3.85713C65.8545 3.62955 65.952 3.51576 66.1471 3.51576H66.7486C66.8786 3.51576 66.9599 3.53202 67.0087 3.58078C67.0574 3.62955 67.0899 3.71083 67.0899 3.85713V4.84873C67.1875 4.76745 67.35 4.66992 67.5613 4.52362C67.7727 4.39357 68.0165 4.24727 68.2766 4.11722C68.5367 3.98718 68.813 3.84087 69.1219 3.71083C69.4145 3.58078 69.7071 3.46699 70.016 3.38571C70.0972 3.3532 70.146 3.3532 70.1623 3.38571C70.1785 3.41822 70.211 3.46699 70.211 3.54827L70.3086 4.31229C70.3248 4.52362 70.2598 4.62116 70.0973 4.66992Z" fill="#114069"/>
</g>
<defs>
<linearGradient id="paint0_linear_2094_74448" x1="83.0863" y1="31.8981" x2="83.0863" y2="-59.0404" gradientUnits="userSpaceOnUse">
<stop stop-color="#7C1317"/>
<stop offset="0.0055" stop-color="#7C1317"/>
<stop offset="0.1279" stop-color="#88181A"/>
<stop offset="0.3559" stop-color="#AC1F23"/>
<stop offset="0.5769" stop-color="#D42027"/>
<stop offset="1" stop-color="#D42027"/>
</linearGradient>
<clipPath id="clip0_2094_74448">
<rect width="97.7204" height="32" fill="white" transform="translate(0.964844)"/>
</clipPath>
</defs>
</svg>
