<svg width="35" height="32" viewBox="0 0 35 32" fill="none" xmlns="http://www.w3.org/2000/svg">
<g clipPath="url(#clip0_2094_73843)">
<mask id="mask0_2094_73843" style="mask-type:luminance" maskUnits="userSpaceOnUse" x="0" y="0" width="35" height="32">
<path d="M34.8251 0.015625H0.791016V31.9553H34.8251V0.015625Z" fill="white"/>
</mask>
<g mask="url(#mask0_2094_73843)">
<path d="M33.3799 8.93788V7.93895H33.3085C31.8572 7.93827 30.432 8.31668 29.1798 9.03516C28.9625 8.0842 28.7041 7.14559 28.4047 6.21934C28.9249 5.91178 29.463 5.63453 30.0165 5.38901C29.6947 5.16794 29.3622 4.95601 29.0189 4.75322C28.6972 4.9108 28.3837 5.07934 28.0774 5.25471C27.667 4.11525 27.1954 2.99787 26.6643 1.90729C26.197 1.68257 25.7157 1.47842 25.2232 1.28932C25.9936 2.74219 26.653 4.24899 27.1959 5.79732C26.3269 6.36935 25.5208 7.02831 24.7909 7.7636C24.4183 6.62524 23.972 5.51127 23.4548 4.42848C23.9691 3.91395 24.5109 3.42639 25.0777 2.96784C24.7013 2.84315 24.318 2.73079 23.9291 2.62665C23.6031 2.90069 23.2897 3.19392 22.9847 3.48851C22.3863 2.34412 21.7139 1.23838 20.9714 0.178081C20.5279 0.112311 20.0788 0.0575036 19.6255 0.0205078C20.618 1.35314 21.4932 2.76587 22.2418 4.2435C21.485 5.05326 20.7993 5.92413 20.1921 6.84693C19.7041 5.80329 19.1392 4.79583 18.502 3.83244C18.9591 3.17839 19.4511 2.54444 19.978 1.93059C19.5653 1.89359 19.1498 1.86618 18.7301 1.85248C18.4391 2.21148 18.1593 2.57687 17.8907 2.94865C17.622 2.57778 17.3422 2.21239 17.0512 1.85248C16.6314 1.86618 16.2117 1.89359 15.8032 1.93059C16.3293 2.54444 16.8213 3.17839 17.2792 3.83244C16.642 4.79583 16.0772 5.80329 15.5891 6.84693C14.9819 5.92382 14.2958 5.05289 13.5381 4.2435C14.2876 2.76613 15.1633 1.35344 16.1558 0.0205078C15.7011 0.0575036 15.2534 0.112311 14.8098 0.178081C14.0674 1.23838 13.3949 2.34412 12.7966 3.48851C12.4916 3.19438 12.1768 2.90709 11.8522 2.62665C11.4632 2.73079 11.0799 2.84315 10.7036 2.96784C11.2704 3.42639 11.8122 3.91395 12.3265 4.42848C11.8092 5.51127 11.363 6.62524 10.9904 7.7636C10.2598 7.02626 9.45288 6.36543 8.58255 5.79182C9.12563 4.24376 9.78447 2.73701 10.5539 1.28385C10.0628 1.47293 9.58147 1.6771 9.1128 1.90181C8.58276 2.99266 8.11157 4.11001 7.70112 5.24924C7.3947 5.07385 7.08133 4.90532 6.75816 4.74775C6.41678 4.95054 6.08376 5.15881 5.76199 5.38352C6.31546 5.62903 6.85362 5.90628 7.37371 6.2139C7.07337 7.1392 6.81503 8.07781 6.59862 9.02967C5.34645 8.31118 3.92123 7.93277 2.46995 7.93351H2.3986V8.93238H2.46995C3.85804 8.93055 5.21653 9.32534 6.37897 10.0683C5.62534 13.9763 5.62534 17.988 6.37897 21.896C5.2139 22.6399 3.85242 23.0347 2.46156 23.0319H2.3916V24.0307H2.46156C3.91284 24.0315 5.33805 23.6531 6.59024 22.9346C6.80571 23.8855 7.06358 24.8246 7.36392 25.7518C6.84833 26.0596 6.31483 26.3378 5.76619 26.5848C6.08795 26.8068 6.42096 27.0178 6.76371 27.222C7.08552 27.063 7.39936 26.8954 7.70531 26.7191C8.11576 27.8583 8.58694 28.9757 9.11699 30.0665C9.58566 30.2913 10.067 30.4954 10.558 30.6845C9.78714 29.2306 9.12683 27.7229 8.58255 26.1738C9.45162 25.6022 10.2576 24.9437 10.9876 24.2089C11.3615 25.3474 11.8091 26.4613 12.3279 27.544C11.8135 28.0585 11.2718 28.5461 10.705 29.0046C11.0813 29.1293 11.4647 29.2417 11.8536 29.3458C12.1782 29.0718 12.493 28.7785 12.798 28.484C13.396 29.6273 14.0679 30.7322 14.8098 31.7917C15.2547 31.8588 15.7025 31.9122 16.1572 31.9492C15.1647 30.6163 14.289 29.2036 13.5395 27.7262C14.2968 26.9165 14.9829 26.0456 15.5905 25.1228C16.0789 26.1662 16.6438 27.1737 17.2807 28.1373C16.8227 28.7895 16.3311 29.4235 15.806 30.0391C16.2173 30.0748 16.6329 30.1021 17.0526 30.1159C17.3436 29.7569 17.6234 29.3915 17.892 29.0197C18.1607 29.3915 18.4405 29.7569 18.7315 30.1159C19.1512 30.1021 19.5709 30.0748 19.978 30.0391C19.452 29.4235 18.9605 28.7895 18.5034 28.1373C19.1403 27.1737 19.7051 26.1662 20.1935 25.1228C20.8012 26.0456 21.4873 26.9165 22.2446 27.7262C21.495 29.2036 20.6194 30.6163 19.6269 31.9492C20.0816 31.9122 20.5293 31.8588 20.9728 31.7917C21.7175 30.7333 22.3923 29.6294 22.9931 28.4867C23.2981 28.7813 23.6129 29.0704 23.9375 29.3485C24.3264 29.2444 24.7098 29.1321 25.0861 29.0074C24.5168 28.5481 23.9727 28.0596 23.4562 27.544C23.9734 26.4617 24.4197 25.3482 24.7923 24.2102C25.5224 24.9446 26.3283 25.6026 27.1973 26.1738C26.6563 27.7231 25.9993 29.2312 25.2316 30.6859C25.7227 30.4968 26.211 30.2926 26.6727 30.0679C27.2008 28.9774 27.6701 27.8605 28.0787 26.7218C28.3847 26.8981 28.6985 27.0658 29.0203 27.2247C29.3631 27.0205 29.6961 26.8137 30.0179 26.5876C29.4648 26.3433 28.9266 26.0679 28.4061 25.7627C28.7065 24.8364 28.9648 23.8974 29.1812 22.9455C30.4334 23.664 31.8587 24.0424 33.3099 24.0417H33.3799V23.0428H33.3099C31.9214 23.0443 30.5626 22.6496 29.3995 21.9069C30.1531 17.9989 30.1531 13.9873 29.3995 10.0792C30.562 9.33629 31.9204 8.94154 33.3085 8.94332L33.3799 8.93788ZM22.7133 5.2095C23.2223 6.31877 23.6542 7.46048 24.006 8.62681C23.1083 9.69569 22.4021 10.9058 21.9172 12.2058C21.652 10.7529 21.2381 9.32985 20.6818 7.95817C21.2694 6.98155 21.9496 6.06127 22.7133 5.2095ZM17.8934 4.74363C18.53 5.74726 19.0853 6.79823 19.5541 7.88691C18.8223 9.17612 18.264 10.5528 17.8934 11.9825C17.5228 10.5528 16.9646 9.17612 16.2327 7.88691C16.7011 6.79829 17.2559 5.74731 17.892 4.74363H17.8934ZM13.0722 5.2095C13.835 6.05901 14.5151 6.97647 15.1037 7.94995C14.5474 9.32163 14.1335 10.7447 13.8682 12.1976C13.3834 10.8976 12.6772 9.68747 11.7794 8.61859C12.1316 7.45504 12.5635 6.3161 13.0722 5.2095ZM7.29396 21.2163C6.68585 17.7536 6.68585 14.2147 7.29396 10.752C8.0425 11.4123 8.64103 12.2193 9.0507 13.1206C9.46042 14.0219 9.67211 14.9976 9.67211 15.9842C9.67211 16.9708 9.46042 17.9464 9.0507 18.8477C8.64103 19.7491 8.0425 20.5561 7.29396 21.2163ZM8.25933 25.1899C7.96554 24.2527 7.71557 23.3014 7.50943 22.3358C8.52752 21.5618 9.34637 20.5651 9.9005 19.4255C10.0647 20.6666 10.3172 21.895 10.656 23.1018C9.94344 23.8882 9.13908 24.59 8.25933 25.1927V25.1899ZM9.9005 12.5388C9.34606 11.3993 8.52725 10.4027 7.50943 9.62846C7.71557 8.66383 7.96554 7.71244 8.25933 6.77431C9.13893 7.37613 9.94328 8.07697 10.656 8.86248C10.317 10.0701 10.0646 11.2994 9.9005 12.5415V12.5388ZM10.6938 15.9821C10.6937 13.911 10.9468 11.8474 11.4478 9.83533C12.7852 11.6184 13.5129 13.7698 13.5269 15.9821C13.5269 18.2265 12.7672 20.327 11.4478 22.1303C10.9471 20.1186 10.694 18.0554 10.6938 15.9849V15.9821ZM13.0722 26.7575C12.5629 25.6483 12.131 24.5066 11.7794 23.3402C12.6774 22.2715 13.3837 21.0613 13.8682 19.7612C14.1331 21.2142 14.547 22.6373 15.1037 24.0088C14.5152 24.9858 13.8352 25.9068 13.0722 26.7602V26.7575ZM17.892 27.2247C17.2552 26.2207 16.6999 25.1693 16.2313 24.0801C16.9632 22.7908 17.5214 21.4142 17.892 19.9845C18.2627 21.4142 18.8209 22.7908 19.5527 24.0801C19.0843 25.1702 18.529 26.2226 17.892 27.2275V27.2247ZM20.0382 22.84C19.388 21.5381 18.9229 20.155 18.656 18.7294H17.1281C16.8613 20.1552 16.3957 21.5383 15.7445 22.84C14.1485 18.4002 14.1485 13.5599 15.7445 9.12009C16.3948 10.422 16.8598 11.8051 17.1267 13.2307H18.656C18.9228 11.8051 19.3879 10.422 20.0382 9.12009C21.635 13.5597 21.635 18.4004 20.0382 22.84ZM22.7133 26.7602C21.95 25.911 21.2699 24.9935 20.6818 24.0198C21.2385 22.6482 21.6524 21.2251 21.9172 19.7721C22.4017 21.0722 23.1081 22.2824 24.006 23.3511C23.6541 24.5147 23.2222 25.6537 22.7133 26.7602ZM24.3376 22.133C23.0169 20.3298 22.2572 18.2293 22.2572 15.9849C22.2711 13.7723 22.9993 11.6207 24.3376 9.83811C25.3431 13.8772 25.3431 18.0938 24.3376 22.133ZM27.5261 6.77703C27.8199 7.71427 28.0694 8.66566 28.2746 9.63118C27.2576 10.4059 26.4393 11.4025 25.885 12.5415C25.7207 11.3004 25.4683 10.0719 25.1295 8.86525C25.8417 8.0798 26.6456 7.37896 27.5247 6.77703H27.5261ZM27.5261 25.1927C26.6466 24.5909 25.8422 23.89 25.1295 23.1045C25.4683 21.8977 25.7207 20.6693 25.885 19.4282C26.4387 20.5668 27.2566 21.563 28.2732 22.3371C28.0689 23.3027 27.8194 24.2546 27.5247 25.1927H27.5261ZM28.4915 21.219C27.7428 20.559 27.1441 19.7522 26.7343 18.851C26.3245 17.9497 26.1128 16.9742 26.1128 15.9876C26.1128 15.001 26.3245 14.0255 26.7343 13.1242C27.1441 12.223 27.7428 11.4162 28.4915 10.7561C29.0978 14.2185 29.0978 17.7567 28.4915 21.219Z" fill="#232323"/>
<path d="M4.1991 17.3684H3.63946V15.6338L2.51041 17.3684L1.37995 15.6338V17.3684H0.820312V14.6006H1.37995L2.51041 16.3353L3.63946 14.6006H4.1991V17.3684Z" fill="#232323" stroke="#232323" stroke-width="0.0187793" stroke-miterlimit="10"/>
<path d="M19.2685 16.5388C19.2685 17.0924 18.9859 17.3692 18.4207 17.3692H16.5837V16.8211H18.4207C18.4949 16.8211 18.5661 16.7922 18.6185 16.7408C18.671 16.6894 18.7005 16.6197 18.7005 16.5471C18.7005 16.4744 18.671 16.4047 18.6185 16.3533C18.5661 16.3019 18.4949 16.273 18.4207 16.273H17.2902C16.725 16.273 16.4424 15.9962 16.4424 15.4427C16.4424 14.8891 16.725 14.6123 17.2902 14.6123H19.1272V15.1604H17.2902C17.216 15.1604 17.1448 15.1893 17.0924 15.2407C17.0399 15.292 17.0104 15.3618 17.0104 15.4345C17.0104 15.5071 17.0399 15.5768 17.0924 15.6282C17.1448 15.6796 17.216 15.7085 17.2902 15.7085H18.4207C18.9859 15.7085 19.2685 15.9853 19.2685 16.5388Z" fill="#232323" stroke="#232323" stroke-width="0.0187793" stroke-miterlimit="10"/>
<path d="M34.8084 15.1546H33.678V17.3688H33.1183V15.1546H31.9893V14.6064H34.814L34.8084 15.1546Z" fill="#232323" stroke="#232323" stroke-width="0.0187793" stroke-miterlimit="10"/>
</g>
</g>
<defs>
<clipPath id="clip0_2094_73843">
<rect width="34.1033" height="32" fill="white" transform="translate(0.770508)"/>
</clipPath>
</defs>
</svg>
