<svg width="107" height="32" viewBox="0 0 107 32" fill="none" xmlns="http://www.w3.org/2000/svg">
<g clipPath="url(#clip0_2094_73784)">
<path d="M25.9603 9.54688H33.6318L33.8938 16.9564H33.9686L37.1495 9.54688H44.7836L42.0518 23.0562H37.4115L39.5819 12.4658H39.4697L34.6422 23.0562H30.3387L29.9271 12.4658H29.7774L27.6443 23.0562H23.2285L25.9603 9.54688Z" fill="#066AB5"/>
<path d="M49.4236 23.2814L49.8353 21.1109H48.8997C45.3446 21.1109 44.0723 19.0902 44.0723 17.1068C44.0723 14.1504 46.4673 10.6702 51.1825 10.6702H52.0057L52.4174 8.64941H57.5816L57.17 10.6702H57.9933C59.9018 10.6702 62.933 11.1193 62.933 14.7118C62.933 17.8552 60.6876 21.1484 56.0473 21.1484H55.0369L54.6253 23.3188H49.4236M51.5567 13.7762H51.2573C49.8727 13.7762 48.9745 15.2357 48.9745 16.508C48.9745 17.2939 49.461 18.0798 50.3966 18.0798H50.696L51.5567 13.7762ZM55.4111 18.0423H55.7105C57.17 18.0423 57.9558 16.4706 57.9558 15.2731C57.9558 14.4124 57.4693 13.7388 56.5338 13.7388H56.2344L55.4111 18.0423Z" fill="#066AB5"/>
<path d="M78.3138 9.54688L77.4905 13.551H72.925L71.0165 23.0562H65.8523L67.7608 13.551H63.1953L64.0186 9.54688H78.3138Z" fill="#066AB5"/>
<path d="M84.6385 9.54688L83.0668 17.2932H83.1417L88.1188 9.54688H94.1437L91.4119 23.0562H86.2477L87.782 15.497H87.7071L82.7674 23.0562H76.7051L79.4369 9.54688H84.6385Z" fill="#066AB5"/>
<path d="M98.1846 28.1461L98.8956 24.3291L106.155 26.4996L98.1846 28.1461Z" fill="#066AB5"/>
<path d="M96.4636 25.1892H21.6944C20.3098 25.1892 19.711 26.7235 19.1497 28.2204C18.9626 28.7443 18.6258 29.5301 18.4012 29.8669C17.9522 29.4179 17.6528 27.3222 17.5031 26.4989L17.4283 26.0499C16.9792 23.2058 16.5676 20.212 16.1933 17.2931C14.4719 4.60705 13.6861 0.153832 11.3285 0.11641C8.37214 0.0789877 7.32433 5.31807 4.18088 20.8482L3.76923 22.869C3.32017 25.1892 2.27235 25.1892 1.82329 25.1892H0.401251L0.0644531 27.21H1.82329C2.98337 27.21 5.079 26.686 5.7526 23.2806L6.16424 21.2599C8.07277 11.6798 9.90645 2.62369 11.1788 2.17462C12.3015 3.37213 13.3867 11.5301 14.21 17.5925C14.5842 20.5114 14.9958 23.5052 15.4449 26.3867L15.5197 26.8357C15.8565 29.1185 16.3056 32 18.4387 32C19.8233 32 20.422 30.4657 20.9834 28.9688C21.2079 28.4075 21.5821 27.4719 21.8067 27.21H96.0894L96.4636 25.1892Z" fill="#066AB5"/>
</g>
<defs>
<clipPath id="clip0_2094_73784">
<rect width="106.292" height="32" fill="white"/>
</clipPath>
</defs>
</svg>
