<svg width="201" height="32" viewBox="0 0 201 32" fill="none" xmlns="http://www.w3.org/2000/svg">
<g clipPath="url(#clip0_2094_72887)">
<path d="M0.970703 0.0966797V31.7834H32.2779L0.970703 0.0966797Z" fill="white"/>
<path d="M0.970703 0.0966797V31.7834H32.2779L0.970703 0.0966797Z" fill="white"/>
<path d="M32.2779 0.0966797H0.970703V31.7834L32.2779 0.0966797Z" fill="#063E5F"/>
<path d="M32.2779 0.0966797H0.970703V31.7834L32.2779 0.0966797Z" fill="white"/>
<path d="M140.715 5.86426C136.117 5.86426 132.08 9.63383 132.08 14.2869V24.587H135.782V20.8395H145.646V24.587H149.349V14.2869C149.349 9.63383 145.311 5.86426 140.715 5.86426ZM145.646 17.0994H135.782V14.2943C135.782 11.71 138.161 9.61174 140.715 9.61174C143.268 9.61174 145.646 11.71 145.646 14.2943V17.0994Z" fill="#19406F"/>
<path d="M191.894 5.86426C187.297 5.86426 183.26 9.63383 183.26 14.2869V24.587H186.962V20.8395H196.826V24.587H200.529V14.2869C200.529 9.63383 196.491 5.86426 191.894 5.86426ZM196.826 17.0994H186.962V14.2943C186.962 11.71 189.34 9.61174 191.894 9.61174C194.447 9.61174 196.826 11.71 196.826 14.2943V17.0994Z" fill="#19406F"/>
<path d="M103.099 5.86426C97.992 5.86426 93.8457 10.0535 93.8457 15.2293C93.8457 20.3978 97.9848 24.5944 103.099 24.5944C108.206 24.5944 112.351 20.4051 112.351 15.2293C112.351 10.0535 108.206 5.86426 103.099 5.86426ZM103.099 20.8395C100.036 20.8395 97.5483 18.3216 97.5483 15.222C97.5483 12.1224 100.036 9.60439 103.099 9.60439C106.161 9.60439 108.649 12.1224 108.649 15.222C108.649 18.3289 106.161 20.8395 103.099 20.8395Z" fill="#19406F"/>
<path d="M89.9256 14.235C90.3839 13.4176 90.6458 12.4827 90.6458 11.474C90.6458 8.37441 88.158 5.85645 85.0955 5.85645H77.8213V24.5792H86.9505C90.013 24.5792 92.5007 22.0612 92.5007 18.9616C92.4934 16.9811 91.4678 15.2363 89.9256 14.235ZM81.5166 9.60394H85.0955C86.1139 9.60394 86.9432 10.4433 86.9432 11.474C86.9432 12.5048 86.1139 13.344 85.0955 13.344H81.5166V9.60394ZM86.9432 20.839H81.5166V17.0915H86.9432C87.9616 17.0915 88.7908 17.9309 88.7908 18.9616C88.7908 19.9923 87.9616 20.839 86.9432 20.839Z" fill="#19406F"/>
<path d="M66.4052 5.86426C61.2987 5.86426 57.1523 10.0535 57.1523 15.2293C57.1523 20.3978 61.2914 24.5944 66.4052 24.5944C71.5189 24.5944 75.6581 20.4051 75.6581 15.2293C75.6581 10.0535 71.5117 5.86426 66.4052 5.86426ZM66.4052 20.8395C63.3427 20.8395 60.8549 18.3216 60.8549 15.222C60.8549 12.1224 63.3427 9.60439 66.4052 9.60439C69.4676 9.60439 71.9555 12.1224 71.9555 15.222C71.9555 18.3289 69.4676 20.8395 66.4052 20.8395Z" fill="#19406F"/>
<path d="M161.047 13.3887L161.068 13.3519H156.754C155.736 13.3519 154.907 12.5125 154.907 11.4819C154.907 10.4511 155.736 9.61174 156.754 9.61174H163.534L166 5.86426H156.747C153.685 5.86426 151.196 8.38221 151.196 11.4819C151.196 14.3826 153.365 16.7681 156.151 17.0625L156.129 17.0994H160.442C161.461 17.0994 162.29 17.9387 162.29 18.9694C162.29 20.0002 161.461 20.8395 160.442 20.8395H153.663L151.196 24.587H160.45C163.512 24.587 166 22.069 166 18.9694C166 16.0686 163.825 13.6831 161.047 13.3887Z" fill="#19406F"/>
<path d="M172.161 5.86426C169.099 5.86426 166.61 8.38221 166.61 11.4819C166.61 14.3826 168.779 16.7681 171.564 17.0625L171.543 17.0994H175.857C176.875 17.0994 177.704 17.9387 177.704 18.9694C177.704 20.0002 176.875 20.8395 175.857 20.8395H169.077L166.61 24.587H175.864C178.926 24.587 181.413 22.069 181.413 18.9694C181.413 16.0686 179.246 13.6831 176.46 13.3887L176.482 13.3519H172.168C171.15 13.3519 170.321 12.5125 170.321 11.4819C170.321 10.4511 171.15 9.61174 172.168 9.61174H178.948L181.413 5.86426H172.161Z" fill="#19406F"/>
<path d="M44.52 24.586H40.8174V5.86328H49.5319C51.0886 5.86328 52.4271 6.40073 53.5546 7.48302C54.7039 8.58002 55.5986 10.1924 55.6205 11.79C55.6351 13.2404 55.2932 14.4184 54.3839 15.5375C53.5182 16.6198 52.638 17.437 51.2996 17.7242L55.9259 24.586H51.6123L47.2624 18.1071C47.0878 17.8641 46.8114 17.7242 46.5131 17.7242H44.52V24.586ZM44.52 14.286H49.4519C50.8122 14.286 51.9179 13.1668 51.9179 11.79C51.9179 10.4133 50.8122 9.29418 49.4519 9.29418H44.52V14.286Z" fill="#19406F"/>
<path d="M130.044 5.86426L122.478 14.0145L130.233 24.5796H125.919L120.019 16.6576L118.521 18.4688V24.5723H114.818V5.86426H118.521V13.2488L125.192 5.86426H130.044Z" fill="#19406F"/>
</g>
<defs>
<clipPath id="clip0_2094_72887">
<rect width="199.68" height="32" fill="white" transform="translate(0.970703)"/>
</clipPath>
</defs>
</svg>
