<svg width="120" height="32" viewBox="0 0 120 32" fill="none" xmlns="http://www.w3.org/2000/svg">
<g clipPath="url(#clip0_2094_74352)">
<path d="M5.49972 8.59826V17.3296H13.6391C16.6729 17.1077 18.9668 14.5178 18.9668 11.4101V11.3361C18.9668 8.0803 17.0429 5.71247 13.6391 5.41649H0.246094V0.162861H13.7131C20.0027 0.532835 24.2204 5.2685 24.2204 11.3361V11.4101C24.2204 17.4776 19.5587 22.3613 13.6391 22.6573H0.246094V8.59826H5.49972ZM56.8521 12.076V16.0717C56.8521 16.8117 57.444 17.4036 58.184 17.4036H72.8349V22.6573H56.8521C53.9663 22.6573 51.5984 20.2894 51.5984 17.4036V0.162861H56.8521V12.076ZM97.3272 17.3296H105.911L100.731 7.63633C100.583 7.26636 100.213 7.04437 99.843 7.04437C99.473 7.04437 99.1771 7.26636 98.9551 7.56234L90.9636 22.5093H84.9701L95.2553 3.34464C96.2173 1.49477 97.6972 0.0888672 99.843 0.0888672C101.989 0.0888672 103.395 1.49477 104.431 3.34464L114.716 22.5093H94.5894L97.3272 17.3296ZM75.4987 22.5833H80.7524V5.41649H89.1138V0.162861H67.0633V5.41649H75.4247V22.5833H75.4987ZM48.9346 5.41649H33.5437C32.8778 5.41649 32.2858 5.93445 32.2118 6.6744V8.59826H44.051L41.2392 13.8519H32.2118V17.3296H49.0086V22.5833H26.8842V11.3361V5.41649C26.8842 2.53069 29.326 0.162861 32.2118 0.162861H49.0086V5.41649H48.9346Z" fill="#F78F20"/>
<path d="M93.1096 25.2461H114.642H116.122L119.6 31.8316H89.6318L93.1096 25.2461Z" fill="#F78F20"/>
<path d="M80.0127 31.8316L83.5644 25.2461H85.5623H89.484L86.0063 31.8316H80.0127Z" fill="#F78F20"/>
<path d="M0.246094 25.2469H3.20588C3.79784 25.2469 4.24181 25.2469 4.53779 25.3208C4.83377 25.3948 5.05575 25.4688 5.27774 25.6168C5.49972 25.7648 5.7217 25.9128 5.86969 26.1348C6.01768 26.3568 6.09168 26.6528 6.09168 26.8747C6.09168 27.1707 6.01768 27.4667 5.7957 27.7627C5.64771 27.9847 5.35173 28.2066 5.05575 28.3546C5.49972 28.5026 5.86969 28.6506 6.09168 28.9466C6.31366 29.2426 6.46165 29.5385 6.46165 29.9085C6.46165 30.2045 6.38766 30.5005 6.23967 30.7965C6.09168 31.0924 5.86969 31.3144 5.57371 31.4624C5.27774 31.6104 4.98176 31.7584 4.53779 31.7584C4.3158 31.7584 3.72385 31.8324 2.76191 31.8324H0.246094V25.2469ZM1.72599 26.3568V27.9107H3.79784C4.01983 27.9107 4.24181 27.8367 4.3898 27.6887C4.53779 27.5407 4.61178 27.3927 4.61178 27.1707C4.61178 26.9487 4.53779 26.8007 4.3898 26.6527C4.24181 26.5048 4.09382 26.4308 3.79784 26.4308H1.72599V26.3568ZM1.72599 28.9466V30.7225H3.13189C3.64985 30.7225 4.01983 30.7225 4.16781 30.6485C4.3898 30.6485 4.53779 30.5005 4.68578 30.3525C4.83377 30.2045 4.90776 30.0565 4.90776 29.7605C4.90776 29.5385 4.83377 29.3906 4.75977 29.2426C4.68578 29.0946 4.46379 29.0206 4.3158 28.9466C4.09382 28.8726 3.64985 28.8726 2.9839 28.8726H1.72599V28.9466ZM19.4847 31.8324H17.8568L17.1909 30.3525H14.2311L13.6391 31.8324H12.0853L14.971 25.2469H16.5249L19.4847 31.8324ZM16.7469 29.2426L15.711 26.8007L14.6751 29.2426H16.7469ZM26.2922 31.8324V26.3568H24.0724V25.2468H29.992V26.3568H27.7721V31.8324H26.2922ZM37.6874 31.8324V26.3568H35.4676V25.2468H41.3872V26.3568H39.1673V31.8324H37.6874ZM47.4547 31.8324V25.2469H52.9303V26.3568H48.9346V27.8367H52.6344V28.9466H48.9346V30.7225H53.0783V31.8324L47.4547 31.8324ZM59.4419 31.8324V25.2469H62.6236C63.4376 25.2469 64.0295 25.3208 64.3255 25.3948C64.6955 25.5428 64.9915 25.7648 65.2135 26.0608C65.4355 26.3568 65.5094 26.7267 65.5094 27.0967C65.5094 27.6147 65.3615 27.9847 64.9915 28.3546C64.6955 28.6506 64.1775 28.8726 63.5116 28.9466C63.8076 29.0946 64.1035 29.3166 64.3255 29.4646C64.5475 29.6865 64.8435 30.0565 65.2135 30.5005L66.1014 31.7584H64.3255L63.2156 30.3525C62.8456 29.8345 62.5497 29.5386 62.4017 29.3906C62.2537 29.2426 62.1057 29.1686 61.9577 29.0946C61.8097 29.0206 61.5137 29.0206 61.2177 29.0206H60.9218V31.7584H59.4419V31.8324ZM60.9218 28.0587H62.0317C62.7716 28.0587 63.2156 28.0587 63.3636 27.9847C63.5116 27.9107 63.6596 27.8367 63.8076 27.6887C63.8816 27.5407 63.9556 27.3927 63.9556 27.1707C63.9556 26.9487 63.8816 26.8007 63.7336 26.6527C63.5856 26.5048 63.4376 26.4308 63.1416 26.3568H60.9218V28.0587ZM73.5749 31.8324V29.0206L70.8371 25.1729H72.6129L74.3888 27.7627L76.0907 25.1729H77.7926L75.0548 29.0206V31.7584H73.5749V31.8324Z" fill="#F78F20"/>
</g>
<defs>
<clipPath id="clip0_2094_74352">
<rect width="119.579" height="32" fill="white" transform="translate(0.172852)"/>
</clipPath>
</defs>
</svg>
