<svg width="128" height="32" viewBox="0 0 128 32" fill="none" xmlns="http://www.w3.org/2000/svg">
<path d="M20.341 3.14844H5.65754C3.54909 3.14844 1.83984 4.85768 1.83984 6.96614V18.7129C1.83984 20.8214 3.54909 22.5306 5.65754 22.5306H20.341C22.4494 22.5306 24.1587 20.8214 24.1587 18.7129V6.96614C24.1587 4.85768 22.4494 3.14844 20.341 3.14844Z" fill="white"/>
<path d="M26.4334 7.97918V18.4973C26.4334 22.7855 22.9139 26.2646 18.5759 26.2646H7.93559C3.59761 26.2646 0.078125 22.7855 0.078125 18.4973V7.97918C0.078125 3.691 3.59761 0.211914 7.93559 0.211914H18.5759C22.9139 0.211914 26.4334 3.691 26.4334 7.97918ZM21.5225 16.3937V16.4746C21.5225 16.96 21.1951 17.3647 20.704 17.3647C20.3766 17.3647 20.0492 17.2837 19.8036 16.96C19.5581 16.6364 19.2307 16.2319 18.9852 15.5037C19.7218 12.9955 22.0135 5.06645 22.0135 5.06645H17.6755C17.6755 5.06645 17.2663 6.92736 16.9389 8.62641V8.54554C16.6115 7.81736 16.0386 6.92736 15.3838 6.36099C14.238 5.30918 12.9284 4.82373 11.3733 4.82373C9.16334 4.82373 7.36265 5.63281 5.88937 7.17009C4.4161 8.70737 3.67947 10.7301 3.67947 12.9955C3.67947 15.5037 4.4161 17.5264 5.88937 19.0637C7.36265 20.6819 9.16334 21.4101 11.5369 21.4101C12.9284 21.4101 14.238 21.0055 15.3838 20.1964C16.1205 19.7109 16.8571 18.9828 17.5937 18.0119C17.8393 18.9019 18.1667 19.5492 18.494 20.0346C19.067 20.7628 19.8854 21.2482 20.7858 21.2482C21.6861 21.2482 22.5865 20.7628 22.9957 20.0346C23.405 19.3874 23.5687 18.5783 23.5687 17.1219V16.3128L21.5225 16.3937ZM14.3198 18.0119C13.665 18.9828 12.8465 19.4682 11.8643 19.4682C10.7185 19.4682 9.89995 18.9828 9.24517 17.9309C8.59039 16.8792 8.263 15.261 8.263 13.1573C8.263 11.2156 8.59039 9.67828 9.327 8.62641C9.98178 7.57462 10.8003 7.17009 11.8643 7.17009C12.8465 7.17009 13.5832 7.57463 14.238 8.46466C14.9746 9.35462 15.5475 10.8919 15.9567 12.9146C15.5475 15.5037 14.9746 17.041 14.3198 18.0119ZM39.611 5.5519C39.2836 4.17645 38.4651 3.28645 36.5826 3.28645C34.8638 3.28645 33.8816 4.17645 33.5542 5.5519L32.2446 11.5392H33.7179C34.0453 11.5392 34.3727 11.2965 34.4545 10.9728L34.7001 9.75916H38.5469L38.7925 10.9728C38.8743 11.2965 39.2017 11.5392 39.5291 11.5392H41.0024L39.611 5.5519ZM35.1093 8.14099L35.6004 5.95645C35.6004 5.63281 35.9278 5.06645 36.5826 5.06645C37.3192 5.06645 37.5648 5.63281 37.6466 5.95645L38.1377 8.14099H35.1093ZM44.5219 5.30917V8.86919C44.5219 10.5682 43.5397 11.6201 42.1483 11.6201H41.8209L41.4116 9.92099L41.8209 9.84012C42.2301 9.75916 42.5575 9.43557 42.5575 8.86919V4.6619C42.5575 4.01464 43.1305 3.44827 43.7853 3.44827H49.7602V11.5392H47.7958V5.30917H44.5219ZM67.1121 3.52918H66.3755V2.55827H64.9841C64.6567 2.55827 64.4111 2.801 64.4111 3.12464V3.44827H63.6745C61.219 3.44827 59.6639 5.06645 59.6639 7.49372C59.6639 9.84011 61.219 11.5392 63.6745 11.5392H64.4111V12.5101H65.8025C66.1299 12.5101 66.3755 12.2674 66.3755 11.9437V11.5392H67.1121C69.5675 11.5392 71.1227 9.92099 71.1227 7.49372C71.1227 5.22827 69.5675 3.52918 67.1121 3.52918ZM63.6745 9.84012C62.283 9.84012 61.6282 9.03095 61.6282 7.57463C61.6282 6.11827 62.283 5.30917 63.6745 5.30917H64.4111V9.84012H63.6745ZM67.1121 9.84012H66.3755V5.30917H67.1121C68.5035 5.30917 69.1583 6.11827 69.1583 7.57463C69.1583 8.95008 68.5035 9.84012 67.1121 9.84012ZM55.9807 5.5519H53.116V3.52918H51.0698V11.0537C51.0698 11.3773 51.3154 11.6201 51.6428 11.6201H55.8988C57.6176 11.6201 58.9273 10.3255 58.9273 8.62641C59.0091 6.84645 57.9451 5.5519 55.9807 5.5519ZM55.9807 9.75916H53.116V7.3319H55.9807C56.4718 7.3319 57.0448 7.73645 57.0448 8.54554C57.0448 9.35462 56.4718 9.75916 55.9807 9.75916ZM78.5709 5.5519C78.2435 4.17645 77.425 3.28645 75.5425 3.28645C73.8237 3.28645 72.8415 4.17645 72.5141 5.5519L71.1227 11.5392H72.596C72.9234 11.5392 73.2508 11.2965 73.3326 10.9728L73.5781 9.75916H77.425L77.6706 10.9728C77.7524 11.2965 78.0798 11.5392 78.4072 11.5392H79.8803L78.5709 5.5519ZM74.0692 8.14099L74.5603 5.95645C74.5603 5.63281 74.8877 5.06645 75.5425 5.06645C76.1973 5.06645 76.5247 5.63281 76.6065 5.95645L77.0976 8.14099H74.0692ZM90.1937 18.74C90.5212 18.4164 90.7662 17.9309 90.7662 17.2837C90.7662 15.8274 89.6204 14.8564 88.2289 14.8564H83.3184C82.9909 14.8564 82.7451 15.0992 82.7451 15.4228V22.3C82.7451 22.6237 82.9909 22.8664 83.3184 22.8664H88.4747C89.9479 22.8664 91.012 21.8146 91.012 20.3583C91.012 19.7109 90.6845 19.1446 90.1937 18.74ZM88.1472 16.5555C88.393 16.5555 88.8021 16.8792 88.8021 17.3647C88.8021 17.8501 88.4747 18.0928 88.1472 18.1737H84.6275V16.5555H88.1472ZM88.3105 21.3292H84.6275V19.7109H88.3105C88.5563 19.7109 88.9655 20.0346 88.9655 20.52C88.9655 21.0055 88.5563 21.3292 88.3105 21.3292ZM76.9339 14.6946C74.4785 14.6946 72.7596 16.3937 72.7596 18.9019C72.7596 21.4101 74.4785 23.1091 76.9339 23.1091H77.6706C80.1261 23.1091 81.8452 21.4101 81.8452 18.9019C81.8452 16.3937 80.1261 14.6946 77.6706 14.6946H76.9339ZM74.9695 18.9019C74.9695 17.4455 75.7062 16.3128 77.1795 16.3128H77.5887C78.9802 16.3128 79.7987 17.4455 79.7987 18.9019C79.7987 20.3583 79.062 21.4909 77.5887 21.4909H77.1795C75.7062 21.4909 74.9695 20.3583 74.9695 18.9019ZM39.6928 14.8564H47.3048L47.0592 16.0701C46.9774 16.3937 46.65 16.6364 46.3226 16.6364H44.5219V22.9474H42.4757V16.6364H40.5932C40.2658 16.6364 39.9384 16.3937 39.8565 16.0701L39.6928 14.8564ZM107.054 14.8564H109.101V22.9474H107.054V19.7919H103.208V22.9474H101.161V14.8564H103.208V18.0928H107.054V14.8564ZM62.9378 16.96C62.6104 15.5847 61.792 14.6946 59.9095 14.6946C58.1906 14.6946 57.2084 15.5847 56.881 16.96L55.4896 22.9474H56.9628C57.2902 22.9474 57.6176 22.7046 57.6995 22.381L57.945 21.1674H61.792L62.0375 22.381C62.1194 22.7046 62.4468 22.9474 62.7741 22.9474H64.2474L62.9378 16.96ZM58.3543 19.4682L58.8454 17.2837C58.9273 16.96 59.1728 16.3937 59.9095 16.3937C60.6461 16.3937 60.8916 16.96 60.9735 17.2837L61.4646 19.4682H58.3543ZM98.8697 16.96C98.5422 15.5847 97.7232 14.6946 95.8408 14.6946C94.1218 14.6946 93.1401 15.5847 92.8127 16.96L91.4211 22.9474H92.8943C93.2218 22.9474 93.5493 22.7046 93.6309 22.381L93.8767 21.1674H97.7232L97.9689 22.381C98.0506 22.7046 98.3781 22.9474 98.7056 22.9474H100.179L98.8697 16.96ZM94.3676 19.4682L94.8584 17.2837C94.9408 16.96 95.1858 16.3937 95.9225 16.3937C96.6591 16.3937 96.9049 16.96 96.9865 17.2837L97.4781 19.4682H94.3676ZM40.3476 22.9474H36.4189C34.0453 22.9474 32.4083 21.3292 32.4083 18.9019C32.4083 16.5555 34.0453 14.8564 36.4189 14.8564H39.3654L39.1199 16.0701C39.0381 16.3937 38.7107 16.6364 38.3833 16.6364H36.4189C35.1093 16.6364 34.3727 17.5264 34.3727 18.821C34.3727 20.1155 35.1093 21.0055 36.4189 21.0055H39.2836C39.611 21.0055 39.9384 21.2482 40.0202 21.5719L40.3476 22.9474ZM52.7068 14.8564H48.4507C48.1233 14.8564 47.8777 15.0992 47.8777 15.4228V22.9474H49.9239V20.8437H52.7886C54.7529 20.8437 55.817 19.5492 55.817 17.8501C55.7352 16.1509 54.4255 14.8564 52.7068 14.8564ZM52.7068 19.1446H49.8421V16.7173H52.7068C53.1979 16.7173 53.7708 17.1219 53.7708 17.9309C53.7708 18.74 53.1979 19.1446 52.7068 19.1446ZM125.961 21.2482C126.288 21.2482 126.616 21.4101 126.698 21.8146L126.943 22.9474H120.231C119.905 22.9474 119.659 22.7046 119.659 22.381V15.5037C119.659 15.18 119.905 14.9373 120.231 14.9373H126.943L126.698 16.0701C126.616 16.4746 126.288 16.6364 125.961 16.6364H121.623V18.1737H126.288V19.7109H121.623V21.2482H125.961ZM110.41 22.9474V14.8564H112.456V20.1964L115.894 15.3419C116.058 15.0992 116.548 14.8564 116.876 14.8564H118.349V22.9474H116.303V17.6074L112.865 22.4619C112.702 22.7046 112.21 22.9474 111.883 22.9474H110.41ZM70.3042 18.9019L73.1689 23.0282H71.2864C70.8771 23.0282 70.6316 22.9474 70.3861 22.5428L68.8309 20.1964H68.5854L67.1121 22.4619C66.8666 22.8664 66.621 22.9474 66.2118 22.9474H64.4111L67.194 18.9828L64.3293 14.8564H66.2118C66.621 14.8564 66.8666 14.9373 67.1121 15.3419L68.5854 17.6074H68.8309L70.3042 15.3419C70.5497 14.9373 70.8771 14.8564 71.2045 14.8564H73.0052L70.3042 18.9019ZM32.572 29.1773C32.572 28.1255 33.3087 27.1546 34.5364 27.1546C35.0274 27.1546 35.3548 27.2355 35.6822 27.4783L35.4367 27.8828C35.1912 27.721 34.9456 27.64 34.6182 27.64C33.7179 27.64 33.2268 28.3682 33.2268 29.1773C33.2268 29.9864 33.7179 30.7146 34.6182 30.7146C35.0274 30.7146 35.3548 30.5528 35.5186 30.3909L35.7641 30.7955C35.6004 30.9573 35.1093 31.2 34.5364 31.2C33.2268 31.1191 32.572 30.1482 32.572 29.1773ZM36.4189 27.2355H38.4651V27.721H36.91V28.8537H38.3014V29.2583H36.91V30.6336H38.5469V31.1191H36.4189V27.2355ZM39.4473 27.2355H40.5114C41.3298 27.2355 41.9028 27.64 41.9028 28.3682C41.9028 29.0964 41.3298 29.5819 40.4294 29.5819H40.0202V31.1191H39.4473V27.2355ZM40.4294 29.0964C41.0842 29.0964 41.3298 28.8536 41.3298 28.3682C41.3298 27.9637 41.0842 27.64 40.4294 27.64H39.9384V29.0964H40.4294ZM42.6394 27.2355H43.7034C44.4401 27.2355 45.013 27.4783 45.013 28.2064C45.013 28.6919 44.7674 28.9346 44.2763 29.0155C44.7674 29.0964 45.0948 29.42 45.0948 29.9864C45.0948 30.7955 44.4401 31.0382 43.6215 31.0382H42.6394V27.2355ZM43.7034 28.8537C44.2763 28.8537 44.5219 28.6919 44.5219 28.2064C44.5219 27.8019 44.2763 27.64 43.7034 27.64H43.2123V28.8537H43.7034ZM43.7034 30.7146C44.3582 30.7146 44.6037 30.5528 44.6037 30.0674C44.6037 29.5819 44.4401 29.3391 43.7034 29.3391H43.1305V30.7146H43.7034ZM46.077 27.2355H46.5681V30.3909C46.65 30.3101 46.7318 30.0674 46.9774 29.8246L48.6961 27.3164H49.1873V31.2H48.6961V27.9637C48.6143 28.0446 48.5325 28.2874 48.3688 28.4491L46.4862 31.1191H45.9952L46.077 27.2355ZM50.0876 29.1773C50.0876 28.1255 50.8242 27.1546 52.052 27.1546C52.543 27.1546 52.8705 27.2355 53.1979 27.4783L52.9523 27.8828C52.7068 27.721 52.4612 27.64 52.1338 27.64C51.2335 27.64 50.7424 28.3682 50.7424 29.1773C50.7424 29.9864 51.2335 30.7146 52.1338 30.7146C52.543 30.7146 52.8704 30.5528 53.0341 30.3909L53.2797 30.7955C53.116 30.9573 52.6249 31.2 52.052 31.2C50.7424 31.1191 50.0876 30.1482 50.0876 29.1773ZM55.2441 27.2355H57.454V27.721H55.817V28.8537H56.4718C57.2902 28.8537 57.8632 29.2583 57.8632 29.9864C57.8632 30.7146 57.2902 31.2 56.39 31.2H55.3259V27.2355H55.2441ZM56.3081 30.6336C56.9628 30.6336 57.2084 30.3909 57.2084 29.9055C57.2084 29.501 56.9628 29.1773 56.3081 29.1773H55.7352V30.6336H56.3081ZM58.4361 31.0382L58.518 30.6336H58.6817C59.0091 30.6336 59.1728 30.4719 59.4183 29.9864L59.5002 29.7437L58.3543 27.0737H58.8454L59.7457 29.1773L60.6461 27.0737H61.1372L59.7457 30.1482C59.5002 30.7955 59.1728 30.9573 58.5999 30.9573C58.5999 31.1191 58.518 31.1191 58.4361 31.0382ZM61.1372 30.6336H61.4646C61.792 30.3909 61.8738 29.9864 61.9556 29.1773L62.1194 27.1546H64.4111V30.5528H64.8203L64.7385 31.9282H64.4111V31.1191H61.792L61.7101 31.9282H61.3827L61.1372 30.6336ZM63.92 30.6336V27.64H62.6922L62.5286 29.2583C62.4468 29.9864 62.283 30.3909 62.1194 30.6336H63.92ZM65.4751 31.0382L65.5569 30.6336H65.7207C66.0481 30.6336 66.2118 30.4719 66.4573 29.9864L66.5392 29.7437L65.3933 27.0737H65.8844L66.7847 29.1773L67.685 27.0737H68.1762L66.7847 30.1482C66.5392 30.7955 66.2118 30.9573 65.6388 30.9573C65.6388 31.1191 65.557 31.1191 65.4751 31.0382ZM73.5781 31.1191H68.9128V27.2355H69.4857V30.6336H71.0408V27.2355H71.6138V30.6336H73.1689V27.2355H73.7418V30.6336H74.1511L74.0692 31.9282H73.7418L73.5781 31.1191ZM74.8877 27.2355H76.9339V27.721H75.3788V28.8537H76.7702V29.2583H75.3788V30.6336H77.0158V31.1191H74.8877V27.2355ZM77.9161 27.2355H80.0445V27.64H78.489V31.1191H77.9161V27.2355ZM80.2895 29.1773C80.2895 28.1255 81.0261 27.1546 82.2543 27.1546C83.4817 27.1546 84.2183 28.0446 84.2183 29.1773C84.2183 30.3101 83.4817 31.2 82.2543 31.2C81.0261 31.1191 80.2895 30.2291 80.2895 29.1773ZM83.6459 29.1773C83.6459 28.3682 83.1543 27.64 82.2543 27.64C81.3536 27.64 80.8628 28.3682 80.8628 29.1773C80.8628 29.9864 81.3536 30.7146 82.2543 30.7146C83.1543 30.7146 83.6459 29.9864 83.6459 29.1773ZM86.3465 27.2355H87.4106C88.1472 27.2355 88.7205 27.4783 88.7205 28.2064C88.7205 28.6919 88.4747 28.9346 87.9839 29.0155C88.4747 29.0964 88.8021 29.42 88.8021 29.9864C88.8021 30.7955 88.1472 31.0382 87.3289 31.0382H86.2648L86.3465 27.2355ZM87.3289 28.8537C87.9014 28.8537 88.1472 28.6919 88.1472 28.2064C88.1472 27.8019 87.9014 27.64 87.3289 27.64H86.8373V28.8537H87.3289ZM87.4106 30.7146C88.0655 30.7146 88.3105 30.5528 88.3105 30.0674C88.3105 29.5819 88.0655 29.3391 87.4106 29.3391H86.8373V30.7146H87.4106ZM91.012 27.2355H91.5845V28.8537H93.7126V27.2355H94.2859V31.1191H93.7126V29.3391H91.5845V31.1191H91.012V27.2355ZM96.4141 27.2355H96.9049L98.3781 31.1191H97.8056L97.4781 30.1482H95.7591L95.4316 31.0382H94.8584L96.4141 27.2355ZM97.314 29.7437L96.8232 28.4491C96.7415 28.1255 96.6591 27.9637 96.5774 27.8019C96.5774 27.9637 96.4957 28.2064 96.3324 28.4491L95.8408 29.7437H97.314ZM98.7056 29.1773C98.7056 28.1255 99.4422 27.1546 100.67 27.1546C101.161 27.1546 101.489 27.2355 101.816 27.4783L101.57 27.8828C101.325 27.721 101.08 27.64 100.752 27.64C99.8513 27.64 99.3605 28.3682 99.3605 29.1773C99.3605 29.9864 99.8513 30.7146 100.752 30.7146C101.161 30.7146 101.489 30.5528 101.652 30.3909L101.898 30.7955C101.734 30.9573 101.243 31.2 100.67 31.2C99.3605 31.1191 98.7056 30.1482 98.7056 29.1773ZM103.289 27.64H102.144V27.1546H104.926V27.64H103.78V31.0382H103.208L103.289 27.64ZM105.253 29.1773C105.253 28.1255 105.99 27.1546 107.218 27.1546C108.446 27.1546 109.182 28.0446 109.182 29.1773C109.182 30.3101 108.446 31.2 107.218 31.2C105.99 31.2 105.253 30.2291 105.253 29.1773ZM108.527 29.1773C108.527 28.3682 108.036 27.64 107.136 27.64C106.236 27.64 105.745 28.3682 105.745 29.1773C105.745 29.9864 106.236 30.7146 107.136 30.7146C108.036 30.7146 108.527 29.9864 108.527 29.1773ZM109.591 30.6336C109.919 30.6336 110.082 30.3101 110.41 29.8246C110.574 29.5819 110.737 29.3391 110.901 29.2583C110.328 29.2583 109.837 28.8536 109.837 28.2874C109.837 27.64 110.328 27.2355 111.146 27.2355H112.293V31.1191H111.72V29.3391H111.556C111.31 29.3391 111.146 29.6628 110.82 30.1482C110.328 30.8764 110.165 31.0382 109.837 31.0382H109.673L109.591 30.6336ZM111.72 28.9346V27.64H111.146C110.574 27.64 110.328 27.8019 110.328 28.2874C110.328 28.7728 110.574 28.9346 111.146 28.9346H111.72ZM118.022 31.1191H113.357V27.2355H113.929V30.6336H115.484V27.2355H116.058V30.6336H117.612V27.2355H118.186V30.6336H118.595L118.513 31.9282H118.186L118.022 31.1191ZM119.331 27.2355H121.378V27.721H119.822V28.8537H121.214V29.2583H119.905V30.6336H121.46V31.1191H119.331V27.2355ZM122.605 27.2355H123.096L123.997 29.8246C124.079 30.1482 124.16 30.3101 124.243 30.5528C124.243 30.3909 124.324 30.1482 124.488 29.8246L125.389 27.2355H125.879L126.453 31.1191H125.879L125.552 28.6919C125.552 28.4491 125.552 28.2874 125.47 28.1255C125.47 28.2064 125.389 28.4491 125.306 28.6919L124.406 31.1191H123.915L123.015 28.6919C122.933 28.4491 122.851 28.2874 122.851 28.1255C122.851 28.2064 122.851 28.4491 122.769 28.6919L122.442 31.1191H122.032L122.605 27.2355Z" fill="#CE253E"/>
</svg>
