<svg width="195" height="32" viewBox="0 0 195 32" fill="none" xmlns="http://www.w3.org/2000/svg">
<g clipPath="url(#clip0_2094_73950)">
<path fillRule="evenodd" clipRule="evenodd" d="M10.9095 1.31751C14.5807 -0.216388 18.8442 -0.229468 22.5436 1.21853C25.5721 2.38435 28.212 4.51987 30.0075 7.21774C32.087 10.3565 33.0137 14.2464 32.4961 17.9812C32.0851 21.2395 30.6035 24.3485 28.3485 26.7306C25.617 29.6582 21.7383 31.4986 17.7326 31.6873C11.924 32.0945 5.99943 28.9035 3.21011 23.788C4.85041 22.893 6.43847 21.9084 8.08264 21.0191C9.51378 23.461 11.9819 25.2733 14.7564 25.8562C17.5963 26.4727 20.6845 25.7702 22.9826 23.9953C24.9313 22.5399 26.2989 20.3446 26.7846 17.9643C27.248 15.7056 26.9136 13.2898 25.8337 11.2514C24.6043 8.84876 22.3511 6.9935 19.7616 6.23686C17.3328 5.46151 14.6181 5.71933 12.3462 6.85712C10.5675 7.73898 9.09535 9.17574 8.05843 10.8591C6.43296 9.93615 4.83557 8.96274 3.19141 8.07343C4.89161 5.03179 7.68656 2.62723 10.9095 1.31751ZM46.7067 9.02438C48.3116 7.86233 50.3742 7.59884 52.3061 7.68665C53.995 7.75391 55.8559 7.85295 57.2328 8.96089C58.2922 9.8334 58.7256 11.2421 58.8415 12.5649C58.9386 14.3117 58.8975 16.0624 58.9012 17.8093C58.8695 19.3357 58.8097 20.9855 57.9148 22.2877C57.2403 23.3564 55.9754 23.8571 54.7722 24.0252C53.1487 24.242 51.5027 24.212 49.8679 24.1504C48.4162 24.0439 46.8001 23.8029 45.7688 22.667C44.6926 21.4376 44.6515 19.7057 44.6776 18.1568C46.1518 18.1586 47.6259 18.1606 49.1 18.1475C49.1486 18.764 49.0944 19.4291 49.3915 19.9934C49.9538 20.6903 50.9235 20.651 51.7344 20.651C52.534 20.6342 53.4681 20.5594 53.9988 19.8719C54.4472 19.1078 54.4322 18.1886 54.4603 17.3291C53.0814 17.1909 51.682 17.4207 50.3144 17.2058C50.3985 16.2306 50.3405 15.2515 50.3555 14.2744C51.7194 14.2987 53.0833 14.2706 54.4472 14.2893C54.4229 13.4691 54.5014 12.5424 53.967 11.8531C53.4177 11.2122 52.5022 11.2421 51.7325 11.2178C51.0524 11.2477 50.2938 11.2197 49.7259 11.6587C49.2271 12.0193 49.1635 12.677 49.0477 13.2337C47.6091 13.1646 46.1649 13.1759 44.7263 13.2319C44.5693 11.6064 45.3969 9.97164 46.7067 9.02438ZM151.774 7.80999C153.506 7.84732 155.24 7.77822 156.972 7.84733C155.128 10.4668 153.273 13.0843 151.357 15.6514C151.434 15.8289 151.513 16.0101 151.626 16.1689C153.596 18.7304 155.475 21.3592 157.467 23.9038C156.561 24.0906 155.619 23.9224 154.7 23.9766C153.803 23.9468 152.903 24.0663 152.015 23.9112C150.732 21.899 149.256 20.0158 147.912 18.0428C147.636 17.43 146.875 17.7159 146.352 17.6598C146.352 19.7691 146.339 21.8766 146.36 23.9841C144.914 23.9692 143.469 23.9842 142.025 23.9766C142.033 18.5958 142.036 13.2169 142.023 7.83615C143.467 7.79316 144.914 7.83425 146.36 7.81747C146.33 9.82779 146.369 11.84 146.341 13.8503C146.825 13.8279 147.526 14.1119 147.838 13.6018C149.138 11.6625 150.472 9.74745 151.774 7.80999ZM161.891 7.84548C160.376 8.05849 158.78 8.6769 157.932 10.0277C156.832 11.7951 157.138 13.9531 157.09 15.9316C157.131 17.8634 156.854 19.9672 157.887 21.7066C158.868 23.3751 160.895 23.9785 162.713 24.1224C164.63 24.2251 166.605 24.2905 168.468 23.7413C169.828 23.3489 171.085 22.3755 171.573 21.0153C172.227 19.4067 171.997 17.6374 172.038 15.9465C171.991 14.0147 172.298 11.9259 171.274 10.1772C170.467 8.72917 168.802 8.05473 167.235 7.84172C165.465 7.60821 163.66 7.61569 161.891 7.84548ZM163.313 11.4906C164.314 11.399 165.342 11.3673 166.332 11.5821C167.207 11.7428 167.567 12.7218 167.578 13.514C167.612 15.0685 167.597 16.6247 167.58 18.1792C167.533 18.891 167.391 19.758 166.695 20.1223C165.805 20.5295 164.791 20.4324 163.84 20.425C163.137 20.3746 162.267 20.2905 161.895 19.5954C161.375 18.6482 161.59 17.5327 161.538 16.5014C161.581 15.1992 161.407 13.8671 161.712 12.5855C161.917 11.8718 162.609 11.5149 163.313 11.4906ZM60.8612 7.82679C63.049 7.80439 65.2368 7.82679 67.4246 7.81932C68.895 7.83055 70.4102 7.72403 71.8245 8.21165C72.9268 8.53862 73.8031 9.47657 74.1245 10.5751C74.6251 12.1931 74.5486 13.925 74.3991 15.5916C74.2963 16.8134 73.8554 18.1325 72.7549 18.8032C71.8189 19.3077 70.7315 19.4497 69.6834 19.4871C68.1887 19.5057 66.6959 19.5095 65.2031 19.5057C65.1658 20.9929 65.1844 22.4819 65.19 23.9692C63.744 23.9859 62.2979 23.9729 60.8536 23.9953C60.8836 18.6052 60.8686 13.2169 60.8612 7.82679ZM65.1844 11.3673C65.1864 12.8993 65.1733 14.4313 65.1901 15.9634C66.3129 15.9484 67.4377 15.9877 68.5624 15.9465C69.0145 15.8961 69.6386 15.8756 69.8235 15.3636C70.115 14.5958 70.0702 13.7476 70.0458 12.9404C70.016 12.3631 69.8048 11.6046 69.1453 11.4925C67.845 11.2272 66.5016 11.414 65.1844 11.3673ZM81.9116 11.5765C81.9079 10.321 81.8724 9.06178 81.9303 7.80624C86.2649 7.83987 90.5994 7.79877 94.9339 7.8287C94.9208 9.06548 94.8871 10.3061 94.9526 11.5429C93.499 11.6307 92.0417 11.5541 90.5881 11.5859C90.5732 15.713 90.5676 19.8401 90.5919 23.9673C89.1421 24.0065 87.6941 23.9635 86.2443 23.9916C86.2611 19.8514 86.2985 15.7074 86.2275 11.5691C84.7888 11.5971 83.3502 11.5746 81.9116 11.5765ZM96.3463 7.81184C100.242 7.83424 104.139 7.80253 108.035 7.8287C108.023 8.99637 108.01 10.1659 108.044 11.3355C105.585 11.4065 103.125 11.3318 100.668 11.3692C100.744 12.3537 100.535 13.372 100.793 14.3304C103.05 14.2669 105.311 14.3043 107.569 14.3117C107.568 15.3039 107.562 16.2978 107.569 17.2899C105.281 17.3217 102.99 17.2973 100.701 17.3011C100.655 18.353 100.655 19.4086 100.716 20.4604C103.196 20.4156 105.675 20.4436 108.154 20.4455C108.173 21.6281 108.188 22.8108 108.156 23.9935C104.285 23.9598 100.412 23.9841 96.5425 23.9804C96.4921 23.9411 96.393 23.8627 96.3426 23.8253C96.3706 18.4875 96.365 13.1497 96.3463 7.81184ZM112.298 18.921C112.36 15.2123 112.244 11.4999 112.356 7.79506C116.707 7.85294 121.061 7.79877 125.414 7.82117C125.371 13.2113 125.371 18.6052 125.414 23.9953C123.972 23.9505 122.527 24.0046 121.083 23.9598C121.068 19.8308 121.1 15.7018 121.068 11.5746C119.54 11.5784 118.01 11.6046 116.481 11.5541C116.3 14.1324 116.508 16.7294 116.371 19.3133C116.28 20.7463 115.766 22.211 114.682 23.1938C113.184 24.3222 111.117 24.3522 109.374 23.9019C109.436 22.7697 109.395 21.6357 109.404 20.5034C110.084 20.5744 110.787 20.6679 111.463 20.509C112.085 20.2549 112.279 19.53 112.298 18.921ZM127.802 7.82117C131.682 7.81 135.563 7.83239 139.445 7.80999C139.477 8.98889 139.451 10.1697 139.46 11.3486C137.029 11.3673 134.597 11.3822 132.166 11.3411C132.11 12.3332 132.035 13.3402 132.181 14.3286C134.445 14.265 136.713 14.3155 138.982 14.3024C139.019 15.302 138.998 16.3015 138.987 17.303C136.697 17.3142 134.404 17.2917 132.114 17.3123C132.119 18.3567 132.086 19.3992 132.125 20.4436C134.615 20.4343 137.104 20.438 139.594 20.4417C139.645 21.6244 139.581 22.8071 139.624 23.9916C135.686 23.9542 131.747 24.0009 127.809 23.9635C127.785 18.5827 127.798 13.202 127.802 7.82117ZM173.996 23.9337C174.048 18.5567 173.964 13.1777 174.039 7.80062C176.315 7.84923 178.592 7.79507 180.868 7.8287C181.75 10.8647 182.71 13.8765 183.607 16.9069C183.715 17.2992 183.85 17.6841 184.012 18.0597C185.049 14.6593 186 11.2346 186.987 7.81932C189.328 7.81747 191.669 7.81932 194.01 7.81932C194.004 13.215 194.017 18.6108 194.004 24.0065C192.569 23.9524 191.132 23.9729 189.699 23.9991C189.798 19.9971 189.976 15.997 190.105 11.995C190.114 11.8045 190.047 11.627 189.993 11.4495C188.595 15.614 187.257 19.7991 185.899 23.9766C184.64 23.9859 183.383 23.9841 182.125 23.9729C180.982 20.3596 179.779 16.763 178.6 13.159C178.402 12.5854 178.295 11.9652 177.946 11.4551C177.959 15.6383 178.241 19.8196 178.316 24.0028C176.877 23.9355 175.433 24.0346 173.996 23.9337ZM15.5598 11.556C13.4093 12.152 11.9203 14.4949 12.3537 16.6958C12.7067 19.1545 15.3262 20.9818 17.755 20.4081C20.2343 19.9766 21.9662 17.2488 21.2768 14.8218C20.7369 12.3724 17.9456 10.79 15.5598 11.556Z" fill="#1E417B"/>
<path fillRule="evenodd" clipRule="evenodd" d="M2.1553 10.1533C2.38503 10.2467 2.61483 10.3458 2.8279 10.4728C5.9461 12.3056 9.11854 14.0525 12.2124 15.9283C9.09614 17.8564 5.87699 19.6164 2.70645 21.4548C2.53449 21.5576 2.38503 21.6883 2.25804 21.8435C1.43408 19.9882 1.11837 17.9461 1.01367 15.934C1.07346 13.9628 1.47707 12.0048 2.1553 10.1533ZM77.9422 13.9217C79.2519 13.4378 80.7802 14.5364 80.7129 15.934C80.7764 17.2698 79.3603 18.3609 78.086 17.9909C76.9744 17.75 76.214 16.4795 76.5541 15.3865C76.7278 14.7046 77.2696 14.1273 77.9422 13.9217Z" fill="#E57825"/>
</g>
<defs>
<clipPath id="clip0_2094_73950">
<rect width="193.362" height="32" fill="white" transform="translate(0.895508)"/>
</clipPath>
</defs>
</svg>
