<svg width="93" height="32" viewBox="0 0 93 32" fill="none" xmlns="http://www.w3.org/2000/svg">
<g clipPath="url(#clip0_2094_74628)">
<path fillRule="evenodd" clipRule="evenodd" d="M16.5889 7.47284C19.2236 7.47284 21.8584 7.13751 24.3973 6.51475L24.7326 6.41895L24.9721 6.65847C26.7925 8.33511 28.038 10.4908 28.5649 12.9339L28.6128 13.2692L28.3733 13.5088C24.7326 17.2453 22.05 21.892 20.6607 26.9219L20.5649 27.2573L20.2296 27.3531C19.0799 27.6884 17.8344 27.88 16.5889 27.88C15.3434 27.88 14.1458 27.6884 12.9482 27.3052L12.6607 27.2094L12.5649 26.874C11.1278 21.892 8.44518 17.2453 4.80446 13.4609L4.56494 13.2213L4.66075 12.9339C5.1877 10.5387 6.48111 8.33511 8.30147 6.65847L8.54099 6.41895L8.87632 6.51475C11.4152 7.13751 14.05 7.47284 16.5889 7.47284Z" fill="#1F3364"/>
<path fillRule="evenodd" clipRule="evenodd" d="M6.00195 15.6171C6.00195 12.7908 7.10375 10.1081 9.11573 8.14405C11.1277 6.13207 13.7624 5.03027 16.5888 5.03027C19.4151 5.03027 22.0978 6.13207 24.0618 8.14405C26.0738 10.156 27.1756 12.7908 27.1756 15.6171C27.1756 21.4614 22.4331 26.2039 16.5888 26.2039C13.7624 26.2039 11.1277 25.1021 9.11573 23.0902C7.10375 21.1261 6.00195 18.4434 6.00195 15.6171Z" fill="#1F3364"/>
<path d="M8.78073 7.42467C8.01427 8.19114 7.34361 9.00551 6.76876 9.96359C6.24181 10.8738 5.81067 11.8798 5.57115 12.9337C7.39151 14.8498 8.97235 16.9576 10.3137 19.257C11.6071 21.5085 12.661 23.9037 13.3795 26.4905C13.8586 26.6343 14.3855 26.7301 14.8646 26.8259C15.3915 26.9217 15.9664 26.9696 16.5412 26.9696C17.1161 26.9696 17.6909 26.9217 18.2658 26.8259C18.7927 26.7301 19.2718 26.6343 19.7508 26.4905C20.4694 23.9516 21.5232 21.5085 22.8167 19.257C24.158 16.9576 25.7388 14.8498 27.5592 12.9337C27.3197 11.8798 26.8885 10.8738 26.3616 9.96359C25.8346 9.05341 25.164 8.19114 24.3975 7.42467C23.152 7.7121 21.9065 7.95162 20.6131 8.14323C19.2718 8.28695 17.9304 8.38276 16.5891 8.38276C15.1999 8.38276 13.8586 8.28695 12.5173 8.09533C11.2718 7.99952 10.0262 7.76 8.78073 7.42467ZM6.19391 9.62826C6.81666 8.57437 7.58313 7.61629 8.4454 6.80192L8.58912 6.6582L8.78073 6.70611C10.0262 7.04144 11.3197 7.28096 12.6131 7.42467C13.9065 7.61629 15.2478 7.66419 16.5891 7.66419C17.9304 7.66419 19.2718 7.56838 20.5652 7.42467C21.9065 7.28096 23.1999 6.99353 24.4454 6.70611L24.637 6.6582L24.7807 6.80192C25.643 7.61629 26.4095 8.57437 26.9843 9.58036C27.5592 10.5863 27.9903 11.736 28.2777 12.9337L28.3256 13.1253L28.1819 13.269C26.3616 15.1851 24.7328 17.2929 23.4394 19.5923C22.146 21.8438 21.0921 24.2869 20.3735 26.8738L20.3256 27.0654L20.134 27.1133C19.5592 27.3049 18.9843 27.4007 18.4095 27.4965C17.8346 27.5923 17.2119 27.6402 16.5891 27.6402C15.9664 27.6402 15.3915 27.5923 14.8167 27.4965C14.1939 27.4007 13.6191 27.257 13.0442 27.0654L12.8526 27.0175L12.8047 26.8259C12.0861 24.2869 11.0322 21.8438 9.73882 19.5923C8.3975 17.2929 6.81666 15.1851 4.9484 13.269L4.80469 13.1253L4.85259 12.9337C5.18792 11.7839 5.61906 10.6822 6.19391 9.62826Z" fill="#DCDDDE"/>
<path d="M6.28955 15.6168C6.28955 12.7904 7.43925 10.2036 9.30752 8.33535C11.1758 6.46708 13.7626 5.31738 16.589 5.31738C19.4153 5.31738 22.0021 6.46708 23.8704 8.33535C25.7387 10.2036 26.8884 12.7904 26.8884 15.6168C26.8884 18.4431 25.7387 21.03 23.8704 22.8982C22.0021 24.7665 19.4153 25.9162 16.589 25.9162C13.7626 25.9162 11.1758 24.7665 9.30752 22.8982C7.43925 21.03 6.28955 18.491 6.28955 15.6168ZM9.78656 8.81439C8.06201 10.5389 6.96021 12.9821 6.96021 15.6168C6.96021 18.2994 8.06201 20.6946 9.78656 22.4192C11.5111 24.1437 13.9542 25.2455 16.589 25.2455C19.2716 25.2455 21.6668 24.1437 23.3913 22.4192C25.1159 20.6946 26.2177 18.2515 26.2177 15.6168C26.2177 12.9341 25.1159 10.5389 23.3913 8.81439C21.6668 7.08984 19.2237 5.98804 16.589 5.98804C13.9542 5.98804 11.5111 7.04193 9.78656 8.81439Z" fill="#DCDDDE"/>
<path d="M13.0919 15.1375C13.4272 15.0896 13.7626 15.0896 14.05 15.1854C14.3374 15.2812 14.5769 15.4728 14.7686 15.7603L14.9123 16.1435L14.529 15.9998C13.9542 15.7124 13.3793 15.8561 12.8524 16.0477C12.1338 16.2393 11.4632 16.4788 10.6967 15.8561C10.553 15.7603 10.4093 15.6165 10.3135 15.4249C10.2177 15.2812 10.1697 15.0896 10.1218 14.9938L9.88232 14.4189L10.3614 14.8022C10.4093 14.7543 11.4153 15.5207 13.0919 15.1375Z" fill="#DCDDDE"/>
<path fillRule="evenodd" clipRule="evenodd" d="M16.3974 12.3594C15.6788 12.3594 15.0081 12.5031 14.7686 12.8384C14.7686 12.8384 14.4812 13.1258 14.4333 13.3175C14.4333 13.3175 12.6129 12.072 12.0381 14.7546C12.0381 14.7546 13.1399 13.9881 13.7626 14.4672C13.7626 14.4672 14.098 14.8983 14.6728 15.0899C15.4872 15.2815 15.3914 15.4731 15.4393 15.6169C15.4393 15.6169 15.3435 15.8564 14.6249 16.2875C13.9543 16.7187 13.571 16.527 12.9004 16.3354C12.9004 16.3354 12.8525 17.2456 14.098 17.2456H14.5291C14.5291 17.2456 13.0441 17.8684 13.6189 19.4013C13.6189 19.4013 14.1459 18.7785 14.7207 18.6348C14.7207 18.6348 13.092 20.5031 15.2477 22.2755C15.2477 22.2755 15.2477 20.6468 15.8704 20.1199C15.8704 20.1199 16.2057 21.4133 16.1099 22.1318C16.1099 22.1318 16.062 22.7546 15.8704 23.0899C15.8704 23.0899 18.4093 23.042 17.6908 19.9761C17.6908 19.9761 18.6968 20.3115 18.5052 21.7007C18.5052 21.7007 20.8046 20.551 19.2716 18.2037C19.2716 18.2037 20.1339 18.2037 20.4213 19.2576C20.4213 19.2576 21.6668 17.3893 19.6069 15.569C19.6069 15.569 20.3734 15.3773 20.8046 16.0001C20.8046 16.0001 20.7566 14.563 19.4153 13.8444C19.1279 13.6528 19.6069 13.1737 19.4632 12.8863L16.3974 12.3594Z" fill="#CF1F44"/>
<path fillRule="evenodd" clipRule="evenodd" d="M17.9785 13.4608C17.9785 13.4608 18.7929 12.4069 20.0384 12.5506C20.0384 12.5506 19.7031 14.0835 18.3138 14.3709L17.9785 13.4608Z" fill="#CF1F44"/>
<path fillRule="evenodd" clipRule="evenodd" d="M18.3613 13.6051C18.3613 13.6051 18.8404 13.1261 19.4152 13.0303C19.4152 13.0303 19.1278 13.7009 18.505 13.8446L18.3613 13.6051Z" fill="#DCDDDE"/>
<path fillRule="evenodd" clipRule="evenodd" d="M15.9185 15.0894C15.7748 14.9936 15.5832 14.9457 15.3916 15.0415C15.8706 15.0415 15.9665 15.76 16.4934 15.6163C16.5892 15.5684 16.685 15.5684 16.7808 15.4726C16.4455 15.6163 16.1581 15.281 15.9185 15.0894Z" fill="#DCDDDE"/>
<path fillRule="evenodd" clipRule="evenodd" d="M18.6967 17.0542C18.6488 16.7668 18.553 16.5752 18.4092 16.3836C18.2176 16.144 17.9781 16.0003 17.6907 15.9045C17.7386 16.192 17.8344 16.5273 17.8344 16.8147C17.8344 17.1021 17.7865 17.3417 17.6428 17.5812C17.547 17.7249 17.4512 17.8207 17.3075 17.9165C17.4033 17.6291 17.4033 17.3896 17.4033 17.1979C17.3554 16.8147 17.1158 16.6231 16.8763 16.3836C16.8763 16.6231 16.8763 16.8626 16.8284 17.0542C16.7326 17.3417 16.6368 17.4854 16.4931 17.6291C16.5889 17.2938 16.541 17.0063 16.4452 16.8626L16.1578 17.0063C16.1578 17.0063 16.3015 17.2938 16.1578 17.5812C16.0619 17.7728 15.8703 17.9644 15.6787 18.1081C16.3015 18.0602 16.8284 18.0123 17.1158 17.3417C17.1637 17.8207 16.8763 18.156 16.6368 18.4914C17.1637 18.3955 17.6428 18.2518 17.9781 17.7249C18.1697 17.3896 18.2655 17.0063 18.2176 16.5273C18.553 16.9584 18.5051 17.4854 18.5051 18.0123C18.9362 17.5333 19.2236 17.0542 19.2236 16.3357C19.2236 15.8566 19.032 15.3297 18.5051 14.8027L18.4092 15.1381C18.9362 15.9524 18.8404 16.671 18.6967 17.0542Z" fill="#DCDDDE"/>
<path d="M13.8585 15.4729C13.6189 15.425 13.3794 15.3771 13.1399 15.425C12.0381 15.7124 11.1758 15.4729 10.6968 15.2812C10.7447 15.3771 10.8405 15.4729 10.9363 15.5208C11.5111 15.9998 12.1339 15.8561 12.7567 15.6645C13.1399 15.5687 13.4752 15.4729 13.8585 15.4729Z" fill="#CF1F44"/>
<path fillRule="evenodd" clipRule="evenodd" d="M16.9723 11.4015C17.1639 11.7369 17.5471 12.2159 17.9782 12.2159C18.4094 12.2159 18.6968 12.0243 18.8884 11.6889H18.601C18.3136 11.5931 18.1699 11.3057 18.2657 10.9704C18.3615 10.683 18.6489 10.4913 18.9842 10.5871C19.08 10.6351 19.1759 10.683 19.2238 10.7309C19.1759 10.5871 19.1279 10.4434 19.1759 10.2997C19.2717 10.0123 19.607 9.72487 19.9423 9.77278L18.6968 12.8386H14.5771L13.3315 9.91649C13.619 9.86859 14.0022 10.1081 14.098 10.4434C14.1459 10.5871 14.098 10.7309 14.0501 10.8267C14.098 10.7788 14.1938 10.6351 14.2896 10.5871C14.5771 10.4913 14.9603 10.7788 15.0082 11.0662C15.0561 11.4015 14.9603 11.641 14.6729 11.7368C14.5291 11.7848 14.4333 11.7368 14.3375 11.7368C14.5291 12.0722 14.8645 12.2638 15.2956 12.2638C15.7268 12.2638 16.0621 11.7848 16.2537 11.4494C16.1579 11.4973 16.0621 11.5452 15.9184 11.5452C15.583 11.5452 15.3435 11.3057 15.3435 10.9704C15.3435 10.6351 15.583 10.3955 15.9184 10.3955C16.0142 10.3955 16.11 10.4434 16.2058 10.4913C16.11 10.3955 16.0142 10.2518 16.0142 10.0602C16.0142 9.72487 16.2537 9.48535 16.589 9.48535C16.9244 9.48535 17.1639 9.72487 17.1639 10.0602C17.1639 10.2039 17.0681 10.3955 16.9723 10.4913C17.0681 10.4434 17.1639 10.3955 17.2597 10.3955C17.595 10.3955 17.8345 10.683 17.8345 10.9704C17.8345 11.2578 17.595 11.5452 17.2597 11.5452C17.1639 11.5452 16.9723 11.4015 16.9723 11.4015Z" fill="#E6B23A"/>
<path d="M15.5832 13.5571H15.3916C15.3916 13.7487 15.2479 13.8445 15.1042 13.8445C14.9605 13.8445 14.8167 13.7487 14.8167 13.605C14.7688 13.605 14.7209 13.605 14.6251 13.5571C14.673 13.7487 14.7688 13.9403 15.0084 13.9882C15.0084 13.9882 15.3916 14.0841 15.5353 13.605C15.5832 13.6529 15.5832 13.605 15.5832 13.5571ZM15.0084 12.8385C14.9605 12.8864 14.9126 12.9344 14.9126 12.9823C14.9126 12.9823 14.7688 13.126 14.673 13.2697C14.7688 13.3176 14.9605 13.3655 15.2479 13.2697C15.679 13.2218 15.9185 13.2697 16.0143 13.3655C16.206 13.4134 16.3497 13.605 16.3497 13.605L16.1102 13.8445C16.1102 13.8445 15.9664 13.6529 15.9185 13.8445C15.679 14.5631 15.0084 14.4194 15.0084 14.4194C14.4335 14.3236 14.3377 13.7487 14.3377 13.5092C14.0982 13.3655 12.9006 12.7427 12.3257 14.5152C12.7569 14.3236 13.4275 14.0841 13.9066 14.4673C13.9066 14.4673 14.194 14.8505 14.7209 14.9942C15.5353 15.2338 15.5353 15.4254 15.5832 15.617V15.7607C15.5832 15.7607 15.4395 16.0481 14.7209 16.5272C14.0503 16.9583 13.667 16.8625 13.1401 16.6709C13.2359 16.9104 13.4754 17.1978 14.1461 17.1499H14.5772L15.679 17.0541L14.673 17.4853C14.673 17.4853 13.4754 17.9643 13.7628 19.1619C13.9545 18.9703 14.3377 18.6829 14.7209 18.5391L15.2479 18.3954L14.8646 18.7787C14.8646 18.7787 13.4754 20.3595 15.1042 21.9403C15.1521 21.4134 15.2958 20.4074 15.7748 20.0242L15.9664 19.8805L16.0143 20.12C16.0143 20.12 16.3497 21.4613 16.2539 22.2278C16.2539 22.2757 16.2539 22.6589 16.1102 22.9942C16.685 22.8984 18.0263 22.3715 17.4994 20.12L17.4515 19.8326L17.7389 19.9284C17.7389 19.9284 18.697 20.2637 18.697 21.5092C19.2239 21.126 20.2299 20.12 19.1281 18.4433L18.9365 18.2038H19.2239C19.2239 18.2038 19.9904 18.2038 20.3736 18.9703C20.6132 18.3954 20.8527 17.102 19.4634 15.8086L19.2239 15.617L19.5593 15.5212C19.5593 15.5212 20.0862 15.3775 20.5173 15.6649C20.3736 15.2338 20.0862 14.5631 19.2718 14.132C19.0323 14.3236 18.697 14.5152 18.3617 14.611L18.3137 14.2757C19.0802 14.132 19.703 13.2218 19.8467 12.7427C18.7928 12.7427 18.1221 13.605 18.1221 13.605L17.8826 13.4134C17.8826 13.4134 18.7449 12.3116 20.0862 12.4553H20.2778L20.2299 12.6469C20.2299 12.6469 20.0862 13.3176 19.5593 13.8924C20.9485 14.6589 20.9964 16.1439 20.9964 16.1439L21.0443 16.7667L20.709 16.2397C20.5173 15.9523 20.2778 15.8565 20.0383 15.8565C21.7628 17.6769 20.5652 19.4972 20.5652 19.4972L20.3736 19.8326L20.2778 19.4493C20.1341 18.9703 19.8946 18.7308 19.6551 18.635C20.8527 20.9344 18.6012 22.0361 18.6012 22.0361L18.3137 22.1799L18.3617 21.8445C18.4575 21.0781 18.2179 20.6948 17.9784 20.4553C18.4575 23.3296 15.9185 23.3775 15.9185 23.3775H15.6311L15.7748 23.1379C15.9664 22.8505 15.9664 22.2757 15.9664 22.2757C16.0143 21.7966 15.9185 21.0781 15.8227 20.6469C15.4874 21.2697 15.4874 22.4194 15.4874 22.4194V22.7547L15.2 22.5152C13.6191 21.2218 13.9545 19.8805 14.3377 19.1619C14.0503 19.3535 13.8587 19.593 13.8587 19.593L13.667 19.8326L13.5712 19.5451C13.188 18.4912 13.667 17.8206 14.0982 17.4852C12.8048 17.4373 12.8527 16.3835 12.8527 16.3835V16.1439L13.0443 16.1918C13.1401 16.2397 13.188 16.2397 13.2359 16.2397C13.7149 16.3835 14.0503 16.5272 14.6251 16.1439C15.1042 15.8086 15.2958 15.6649 15.3437 15.5691C15.3437 15.4733 15.3437 15.3775 14.7209 15.2337C14.1461 15.09 13.8108 14.6589 13.7149 14.5631C13.188 14.1799 12.182 14.8505 12.182 14.8505L11.8467 15.09L11.9425 14.6589C12.2778 13.126 12.9964 12.7906 13.5712 12.7906C13.8587 12.7906 14.1461 12.8864 14.4335 13.0302C14.4814 12.9343 14.5772 12.8385 14.6251 12.7427H15.0084V12.8385Z" fill="#DCDDDE"/>
<path fillRule="evenodd" clipRule="evenodd" d="M85.1397 12.0717H80.014L77.3313 18.7303V12.0717H73.8822V21.0297H79.966L80.493 19.6884H84.8044L85.4271 21.0297H88.8283L85.1397 12.0717ZM69.7625 16.8621L66.1217 12.0238H61.7146V18.6824L58.9361 12.0717H53.8583L51.7505 17.389H48.5888C48.3014 18.4908 47.7265 19.0178 46.6247 19.0178C45.3792 19.0178 44.5169 18.0597 44.5169 16.6705C44.5169 14.8501 45.2355 13.9399 46.6247 13.9399C47.7265 13.9399 48.3972 14.419 48.5888 15.4729H52.1816V15.3291C52.1816 13.1735 49.978 11.7363 46.6726 11.7363C43.1277 11.7363 41.4511 13.1255 41.1636 16.2872C40.6367 15.7124 39.8223 15.2812 39.1996 15.2333L37.8583 15.1375L35.8942 15.0896C35.0319 15.0896 34.5529 14.7543 34.5529 14.2752C34.5529 13.7004 35.0319 13.413 35.9421 13.413C36.996 13.413 37.3792 13.7962 37.3792 14.7543H41.1636V14.6585C41.1636 12.7902 39.3912 11.7842 36.1337 11.7842C32.5409 11.7842 30.7684 12.7902 30.7684 14.7543C30.7684 16.4788 32.0619 17.389 34.5529 17.4369L36.0379 17.4848C37.1397 17.5327 37.6187 17.7723 37.6187 18.3471C37.6187 18.8261 36.9481 19.3052 36.2295 19.3052C34.984 19.3052 34.3612 18.874 34.3612 18.0597H30.4331V18.1555C30.4331 20.1196 32.3972 21.1734 35.9421 21.1734C39.3912 21.1734 41.0678 20.407 41.5948 18.6345C42.6966 20.5028 44.1337 21.1734 46.9122 21.1734C48.6846 21.1734 49.5948 20.9339 50.7445 20.0717L50.3612 20.9818H53.7145L54.3373 19.5926H58.7445L59.3193 20.9818H65.0678V15.6645L69.1397 20.9818H73.2115V12.0717H69.9062V16.8621H69.7625ZM81.3553 17.389L82.5529 14.419L83.8942 17.3411L81.3553 17.389ZM55.1517 17.389L56.3493 14.3232L57.6906 17.389H55.1517Z" fill="#1F3364"/>
</g>
<defs>
<clipPath id="clip0_2094_74628">
<rect width="92.3593" height="32" fill="white" transform="translate(0.492676)"/>
</clipPath>
</defs>
</svg>
