<svg width="100" height="32" viewBox="0 0 100 32" fill="none" xmlns="http://www.w3.org/2000/svg">
<g clipPath="url(#clip0_2094_72858)">
<mask id="mask0_2094_72858" style="mask-type:luminance" maskUnits="userSpaceOnUse" x="0" y="0" width="100" height="32">
<path d="M99.9701 0.105469H0.834961V31.9597H99.9701V0.105469Z" fill="white"/>
</mask>
<g mask="url(#mask0_2094_72858)">
<path fillRule="evenodd" clipRule="evenodd" d="M26.2295 15.6162H30.3676L35.6667 20.7367H31.5584C28.5813 17.9085 26.2295 15.6162 26.2295 15.6162Z" fill="white"/>
<path fillRule="evenodd" clipRule="evenodd" d="M49.0035 20.6168H52.9332C50.2538 17.9374 48.1401 15.8535 48.1401 15.8535L46.2051 17.7886L49.0035 20.6168Z" fill="white"/>
<path fillRule="evenodd" clipRule="evenodd" d="M7.11674 26.0652H12.0586C12.0586 26.0652 13.7257 26.1247 13.5471 24.7553C13.3983 23.4454 12.1777 23.624 12.1479 23.624H7.11674V26.0652ZM4.25879 31.8704V20.6768H12.7433C13.0708 20.6768 16.6432 20.8554 16.5242 25.1423C16.4051 28.6254 13.3387 28.9231 13.3387 28.9231H7.11674V31.8704C7.11674 31.8704 4.25879 31.8704 4.25879 31.8704Z" fill="#12274B"/>
<path fillRule="evenodd" clipRule="evenodd" d="M22.7157 23.8021C21.3761 23.8021 20.2746 24.9036 20.2746 26.2731C20.2746 27.6425 21.3761 28.744 22.7157 28.744C24.0554 28.744 25.1867 27.6425 25.1867 26.2731C25.1569 24.9036 24.0554 23.8021 22.7157 23.8021ZM22.7157 20.6465C25.7821 20.6465 28.2828 23.177 28.2828 26.2433C28.2828 29.3394 25.7821 31.8401 22.7157 31.8401C19.6494 31.8401 17.1487 29.3096 17.1487 26.2433C17.1189 23.177 19.6196 20.6465 22.7157 20.6465Z" fill="#12274B"/>
<path fillRule="evenodd" clipRule="evenodd" d="M41.055 31.8704H33.1956C33.1361 31.8704 29.1469 31.4834 28.9682 26.7202C28.8194 22.9691 30.9926 21.7783 31.0819 21.7188L33.2552 23.9218C32.7788 24.2492 32.0941 24.666 31.9453 26.3331C31.7964 28.0003 33.4933 28.9529 34.7437 28.9232L38.1673 28.8934L41.055 31.8704Z" fill="#12274B"/>
<path fillRule="evenodd" clipRule="evenodd" d="M54.9874 21.3617L52.2188 18.6526V15.2588H54.9874V17.6106H58.9468V15.2588H61.7155V26.3631H60.0483L58.9468 25.2914V20.3495H54.9874V21.3617Z" fill="#12274B"/>
<path fillRule="evenodd" clipRule="evenodd" d="M83.1495 19.3373L81.1847 21.2426H83.1495V19.3373ZM62.7568 26.3631V15.2588H65.5255V21.5999L71.9261 15.2588H75.5581L71.0032 19.7839L75.052 23.7731L83.5961 15.2588H85.9479V26.3631H83.1495V23.6242H78.8328L76.0642 26.3631H73.623L69.0086 21.8083L64.4537 26.3631H62.7568Z" fill="#12274B"/>
<path fillRule="evenodd" clipRule="evenodd" d="M97.9456 23.922L99.9105 26.3632H91.8427C91.8427 26.3632 87.139 25.6487 86.8115 20.6473C86.5138 15.6757 90.5626 15.2589 91.1282 15.2589C91.6939 15.2589 91.6938 15.1993 91.7236 15.2589L93.1228 17.1642C93.0633 17.1344 89.7588 17.2535 89.5206 19.9031C89.2527 22.5824 91.158 23.7732 92.8847 23.922H97.9456Z" fill="#12274B"/>
<path fillRule="evenodd" clipRule="evenodd" d="M48.1396 15.3183L64.7812 31.9302H59.7798L45.6687 17.819L48.1396 15.3183ZM53.2303 20.9747H49.3602L54.4509 26.0952H58.3806C56.7134 24.4578 54.8677 22.6121 53.2303 20.9747ZM48.9732 20.5877L46.1747 17.7893L48.08 15.884C48.08 15.884 50.164 17.9679 52.8135 20.6174H48.9732V20.5877ZM45.1923 18.2656L58.8569 31.9599H53.8257L42.6916 20.7961L45.1923 18.2656ZM47.2762 20.9747C48.7052 22.3739 50.6105 24.309 52.4265 26.0952H48.5564L43.4061 20.9747H47.2762ZM43.4061 20.5877L45.1626 18.8312C45.1626 18.8312 45.8473 19.5159 46.919 20.5877H43.4061ZM57.8745 31.5431C57.8745 31.5134 55.5226 29.1615 52.8433 26.4822H48.9732L54.0341 31.5431H57.8745ZM63.8285 31.5431H59.8691L54.8379 26.4822H58.7676C61.566 29.2806 63.8285 31.5431 63.8285 31.5431ZM42.126 31.8706L44.5969 29.3401L30.4858 15.2588H25.4844L42.126 31.8706ZM37.0353 26.2143C35.3979 24.5769 33.5521 22.7311 31.885 21.0938H35.8147L40.9054 26.2143H37.0353ZM41.2924 26.6013L44.0908 29.3997L42.1855 31.305C42.1855 31.305 40.1016 29.2211 37.452 26.5715H41.2924V26.6013ZM45.0732 28.9531L47.5739 26.4227L36.4399 15.2588H31.4384L45.0732 28.9531ZM42.9595 26.2143H46.8297L41.6794 21.0938H37.8093C39.6253 22.9098 41.5603 24.8151 42.9595 26.2143ZM46.8595 26.6013H43.3466C44.4183 27.6432 45.103 28.3577 45.103 28.3577L46.8595 26.6013ZM32.3911 15.6756C32.3911 15.7053 34.7429 18.0572 37.4223 20.7365H41.2924L36.2315 15.6756C36.2315 15.6756 32.3911 15.6756 32.3911 15.6756ZM26.437 15.6458H30.3965L35.4277 20.7068H31.498C28.6996 17.9083 26.437 15.6458 26.437 15.6458Z" fill="#12274B" stroke="white" stroke-width="0.0874317"/>
<path fillRule="evenodd" clipRule="evenodd" d="M46.8596 26.6006H43.3467C44.4184 27.6425 45.1031 28.357 45.1031 28.357L46.8596 26.6006Z" fill="#E21F26"/>
<path fillRule="evenodd" clipRule="evenodd" d="M41.293 26.6006H37.4229C40.0724 29.2501 42.1563 31.3341 42.1563 31.3341L44.0616 29.4288L41.293 26.6006Z" fill="#E21F26"/>
<path fillRule="evenodd" clipRule="evenodd" d="M63.8285 31.5424H59.8691L54.8379 26.4814H58.7676C61.566 29.2799 63.8285 31.5424 63.8285 31.5424Z" fill="#E21F26"/>
<path fillRule="evenodd" clipRule="evenodd" d="M57.875 31.5424H54.0346L48.9736 26.4814H52.8438C55.5231 29.1608 57.875 31.5126 57.875 31.5424Z" fill="#E21F26"/>
<path fillRule="evenodd" clipRule="evenodd" d="M42.9598 26.2142H46.83L41.6797 21.0938H37.8096C39.6256 22.9097 41.5606 24.815 42.9598 26.2142Z" fill="#12274B"/>
<path fillRule="evenodd" clipRule="evenodd" d="M37.036 26.2142H40.9061L35.8154 21.0938H31.8857C33.5529 22.7609 35.3986 24.5769 37.036 26.2142Z" fill="#12274B"/>
<path fillRule="evenodd" clipRule="evenodd" d="M47.2764 20.9746H43.4062L48.5565 26.0951H52.4267C50.6404 24.3089 48.7054 22.3738 47.2764 20.9746Z" fill="#12274B"/>
<path fillRule="evenodd" clipRule="evenodd" d="M53.2305 20.9746H49.3604L54.4511 26.0951H58.3808C56.7136 24.4577 54.8679 22.612 53.2305 20.9746Z" fill="#12274B"/>
<path fillRule="evenodd" clipRule="evenodd" d="M43.377 20.6168H46.9494C45.8777 19.5451 45.1632 18.8604 45.1632 18.8604L43.377 20.6168Z" fill="white"/>
<path fillRule="evenodd" clipRule="evenodd" d="M32.2432 15.6162H36.2324L41.5017 20.7367H37.4827C34.6843 18.0276 32.2432 15.646 32.2432 15.6162Z" fill="white"/>
<path fillRule="evenodd" clipRule="evenodd" d="M20.7513 3.14178H23.7581L25.068 2.5166H20.7811C20.4834 2.5166 20.4238 2.63568 20.4238 2.78453C20.4238 2.96316 20.5727 3.11201 20.7513 3.14178Z" fill="#12274B"/>
<path fillRule="evenodd" clipRule="evenodd" d="M0.894531 2.15915C1.13269 2.75456 1.69833 3.67744 1.99603 4.30261H6.75928C7.56308 4.30261 8.33711 4.33238 9.14091 4.33238C9.94471 4.33238 10.7485 4.36216 11.5225 4.36216C12.2668 4.54078 12.8324 4.95756 13.1599 5.49343C13.4874 6.02929 13.6362 6.68424 13.5767 7.30942C13.5171 7.93459 13.279 8.55977 12.892 9.0361C12.505 9.51242 11.9095 9.83989 11.1951 9.89944C10.5103 9.9292 9.82563 9.9292 9.14091 9.9292C8.45619 9.9292 7.77147 9.89943 7.05699 9.9292C7.7417 10.7032 8.5455 11.1796 9.43861 11.4475C10.3317 11.6857 11.3141 11.6857 12.2966 11.4773C12.9813 11.2986 13.666 10.9116 14.2316 10.4055C14.7973 9.89943 15.2438 9.27426 15.5118 8.61931C15.6308 8.2323 15.7201 7.84528 15.7797 7.45827C15.8095 7.36896 15.8095 7.27964 15.8392 7.19033C15.8392 6.65447 15.7797 6.1186 15.6606 5.61251C15.5415 5.10641 15.3331 4.63009 15.0354 4.2133C15.0057 4.15376 14.8866 4.09422 14.8866 4.00491C14.7973 3.97514 14.8568 3.88583 14.7973 3.82629C13.9339 2.8141 12.6836 2.24846 11.3439 2.09961H0.894531V2.15915Z" fill="#12274B"/>
<path fillRule="evenodd" clipRule="evenodd" d="M2.32324 4.80856C2.50186 5.13604 2.65072 5.49328 2.79957 5.82076C2.94842 6.178 3.12704 6.50548 3.30566 6.83295C4.61556 6.83295 5.92545 6.86272 7.23534 6.86272C8.54524 6.86272 9.85513 6.89249 11.165 6.92226C11.2543 6.95203 11.3139 7.01157 11.3436 7.10088C11.3436 7.21996 11.3436 7.39858 11.1948 7.42835C11.1353 7.42835 11.1055 7.45813 11.0459 7.45813C9.79559 7.45813 8.54524 7.42835 7.29488 7.42835C6.04453 7.42835 4.79418 7.39858 3.54382 7.39858C3.72245 7.75583 3.90107 8.11307 4.10946 8.47031L4.64533 9.54205C5.68729 9.54205 6.75902 9.57182 7.80098 9.57182C8.84294 9.57182 9.91467 9.60159 10.9566 9.60159C11.4032 9.57182 11.82 9.36342 12.207 9.09549C12.5642 8.79779 12.8619 8.44054 13.0406 8.02376C13.1299 7.7856 13.1596 7.51767 13.1894 7.24973C13.1894 6.9818 13.1596 6.71387 13.0703 6.4757C12.9512 6.14823 12.8024 5.82076 12.5642 5.55282C12.3261 5.31466 12.0879 5.10627 11.7902 4.95742C11.6116 4.83834 11.3734 4.83834 11.165 4.7788C9.70628 4.74902 8.21776 4.74902 6.75902 4.74902H2.35301C2.32324 4.74902 2.32324 4.77879 2.32324 4.80856Z" fill="#12274B"/>
<path fillRule="evenodd" clipRule="evenodd" d="M19.5311 1.981V1.26651H20.3944V1.41536C20.2158 1.44513 20.0967 1.50467 19.9479 1.59399C19.8288 1.6833 19.68 1.92146 19.68 1.981H19.5311ZM13.6068 0.105469C13.6366 0.313861 13.6961 0.581795 13.7557 0.819958C14.232 0.760417 14.6785 0.581794 15.1549 0.522253L15.3037 0.552025C15.8098 0.849728 16.3755 0.998579 16.8518 1.32605C16.822 1.4749 16.6434 1.56422 16.5838 1.71307C16.1373 2.54664 15.9884 3.52905 16.0778 4.54125C16.3159 5.52367 16.3159 6.65494 16.2861 7.75644C16.2266 8.44116 15.9587 9.03656 15.661 9.63197C15.1549 10.5548 14.232 11.448 13.2793 11.7457C12.4458 11.9838 11.6717 12.4601 10.8977 12.8769C10.213 13.3235 9.9153 14.038 9.6176 14.7822C9.29012 15.4372 8.84357 17.789 8.15885 17.8188C7.74207 17.8783 6.96804 17.9974 6.67033 17.7295L6.58102 17.3127V14.3357C6.64056 14.038 6.96804 14.0975 7.17643 14.0677C7.19628 14.0677 7.21612 14.0578 7.23597 14.038L6.46194 13.2342C6.13447 13.2639 5.807 13.3533 5.62837 13.651L5.53906 13.8594V18.0272C5.5986 18.4738 5.89631 18.9203 6.31309 19.0692L22.3891 19.1585L20.8112 17.0745L16.435 17.0448C16.3159 16.5982 16.3457 15.9433 16.0778 15.6158C15.8098 15.2883 15.393 14.6929 15.006 14.6632C14.9465 14.6334 14.9465 14.5441 14.9465 14.5143L17.1793 12.6685C17.7151 12.1029 18.251 11.9838 19.2632 12.0434L22.5975 19.1585H27.0928L25.6638 17.3425L24.2646 17.3723L22.6272 12.0136L28.1347 11.9838V10.019H28.7004L28.6706 9.48312H28.2538L28.224 4.184L27.3905 3.05273V9.45335C27.3012 9.48312 27.1821 9.45335 27.0928 9.48312V2.99319L26.1997 4.30308L26.2294 9.45335H25.8424V9.98922L26.4081 10.019V10.7037L22.3593 8.14345C22.2997 7.66713 22.1509 6.92287 21.8234 6.56563C21.4066 6.14884 20.9005 5.82137 20.067 5.73206C19.6502 5.4939 19.5906 5.25573 19.2632 4.92826C19.2036 4.6901 18.9357 4.57102 18.9357 4.30308C19.1143 4.24354 19.3227 4.27331 19.5311 4.27331C19.7693 4.54124 19.7693 4.71987 20.1265 4.86872C20.4838 5.01757 21.0792 5.01757 21.4959 4.80918C21.9127 4.60079 22.27 3.82676 22.5379 3.43974H20.6028C20.2158 3.40997 20.067 3.14204 20.0372 2.87411C20.0372 2.60618 20.1563 2.30847 20.4838 2.21916L22.5081 2.24893C22.5975 1.92146 22.3593 1.59399 22.002 1.38559C21.883 1.29628 21.3173 1.14743 21.0792 1.11766C21.0792 0.998579 20.9899 0.760414 20.841 0.552022C20.6921 0.31386 20.3349 0.16501 19.8883 0.105469C19.8883 0.105469 13.6068 0.105468 13.6068 0.105469Z" fill="#12274B"/>
</g>
</g>
<defs>
<clipPath id="clip0_2094_72858">
<rect width="99.1957" height="32" fill="white" transform="translate(0.774414)"/>
</clipPath>
</defs>
</svg>
