<svg width="125" height="32" viewBox="0 0 125 32" fill="none" xmlns="http://www.w3.org/2000/svg">
<g clipPath="url(#clip0_2094_73815)">
<path d="M9.43159 0.210183L0.974609 31.9266H8.75024L17.1985 0.210183H9.43159ZM43.6209 0.210183H33.6967L20.9579 10.3216L20.9535 10.315L14.6647 15.3174L26.7504 31.9266H36.6746L24.5867 15.3152L43.6209 0.210183ZM116.331 6.98883C116.479 6.78203 116.405 6.53169 116.222 6.28354L111.349 0.210183H86.0146L84.1447 7.27182H115.676C115.922 7.27182 116.148 7.24352 116.331 6.98883ZM47.217 24.2837C46.9471 23.8941 46.8796 23.3956 47.0124 22.8906L50.6215 9.3681C50.7565 8.83913 51.1135 8.29928 51.6316 7.8835C52.1497 7.46773 52.7374 7.26964 53.2686 7.26964H79.4928L81.378 0.208008H54.3896C52.067 0.208008 49.4939 1.09615 47.2562 2.88333C45.001 4.67051 43.4815 7.01495 42.8611 9.3398L39.2563 22.8927C38.6359 25.2045 38.8993 27.5185 40.1837 29.2861C41.4593 31.0471 43.5207 31.9266 45.8238 31.9266H72.9145L74.8039 24.8584H48.46C47.9528 24.8584 47.5043 24.6669 47.217 24.2837ZM121.238 12.5441H82.7494L80.8838 19.5927H119.414L124.388 16.4646L121.238 12.5441ZM108.271 24.8649H79.4885L77.6208 31.9266H99.7373L108.806 26.2146C109.08 26.0491 109.185 25.6421 109.059 25.3395C108.956 25.0935 108.784 24.8649 108.271 24.8649Z" fill="#F47A20"/>
</g>
<defs>
<clipPath id="clip0_2094_73815">
<rect width="123.646" height="32" fill="white" transform="translate(0.899414)"/>
</clipPath>
</defs>
</svg>
