<svg width="183" height="32" viewBox="0 0 183 32" fill="none" xmlns="http://www.w3.org/2000/svg">
<g clipPath="url(#clip0_2094_72744)">
<path fillRule="evenodd" clipRule="evenodd" d="M56.5798 10.0107V26.7421H59.6773V10.0107H56.5798ZM105.931 10.4004C103.943 10.4004 102.117 11.4318 102.117 14.2968V15.7406H100.66V18.3993H102.117V26.7421H105.215V18.3993H107.434V15.7406H105.215V14.4115C105.215 13.4717 105.815 13.0592 106.694 13.0592C107.133 13.0592 107.573 13.1281 107.942 13.2884V10.7671C107.318 10.5151 106.74 10.4004 105.931 10.4004ZM36.04 11.519V14.5076H39.7788V27.1305H42.9168V14.5076H46.6559V11.519H36.04ZM65.9578 15.4428C62.8598 15.4428 61.0566 17.689 61.0566 21.2418C61.0566 24.8401 63.0448 27.0403 66.6743 27.0403C67.8997 27.0403 68.917 26.8797 69.8183 26.4669V24.1752C68.8936 24.542 68.0154 24.6567 67.0905 24.6567C65.4954 24.6567 64.5245 24.0147 64.2703 22.4105H70.4889C70.8585 17.9641 69.1249 15.4428 65.9578 15.4428ZM77.5033 15.4428C76.0701 15.4428 75.1684 16.1532 74.6598 16.8638V15.7408H71.8857V31.7844H74.9834V25.917C75.5151 26.5132 76.3244 27.0404 77.5728 27.0404C80.3235 27.0404 81.5718 24.6336 81.5718 21.2418C81.5718 18.1473 80.4854 15.4428 77.5033 15.4428ZM87.4089 15.4428C84.3109 15.4428 82.5076 17.689 82.5076 21.2418C82.5076 24.8401 84.4958 27.0403 88.1254 27.0403C89.3508 27.0403 90.3679 26.8797 91.2695 26.4669V24.1752C90.3448 24.542 89.4662 24.6567 88.5415 24.6567C86.9464 24.6567 85.9754 24.0147 85.7212 22.4105H91.9397C92.3098 17.9641 90.5758 15.4428 87.4089 15.4428ZM131.993 15.4428C130.791 15.4428 129.843 15.9471 129.195 16.7722V15.7408H126.421V26.7423H129.473V19.3163C129.866 18.6514 130.398 18.2849 131.022 18.2849C131.738 18.2849 132.178 18.7203 132.178 19.6141V26.7423H135.206V19.2703C135.599 18.6515 136.108 18.2849 136.755 18.2849C137.495 18.2849 137.911 18.7203 137.911 19.6141V26.7423H140.962V18.9726C140.962 17.0014 139.876 15.4428 137.633 15.4428C136.431 15.4428 135.437 15.8327 134.628 16.7722C134.096 15.9471 133.195 15.4428 131.993 15.4428ZM146.644 15.4428C145.373 15.4428 144.009 15.718 142.991 16.0845V18.7204C143.916 18.3307 145.095 18.0328 146.344 18.0328C147.869 18.0328 148.286 18.8121 148.286 19.7059V20.3018C147.615 20.1643 147.107 20.0956 146.505 20.0956C144.032 20.0956 142.298 21.2644 142.298 23.625C142.298 25.94 143.94 27.0403 145.835 27.0403C146.991 27.0403 147.985 26.7193 148.817 26.0546C149.28 26.6503 150.066 26.9027 150.921 26.9027C151.476 26.9027 151.938 26.8336 152.401 26.6963V24.5419C152.285 24.5648 152.146 24.5878 152.031 24.5878C151.591 24.5878 151.314 24.4043 151.314 23.8542V19.9351C151.314 16.7951 149.719 15.4428 146.644 15.4428ZM159.325 15.4428C157.868 15.4428 156.944 16.0389 156.319 16.7722V15.7408H153.545V26.7423H156.643V19.3849C156.944 18.8121 157.498 18.2849 158.308 18.2849C159.117 18.2849 159.579 18.6746 159.579 19.6141V26.7423H162.677V18.9495C162.677 16.6578 161.082 15.4428 159.325 15.4428ZM177.509 15.4428C174.411 15.4428 172.608 17.689 172.608 21.2418C172.608 24.8401 174.596 27.0403 178.225 27.0403C179.451 27.0403 180.468 26.8797 181.37 26.4669V24.1752C180.445 24.542 179.566 24.6567 178.642 24.6567C177.047 24.6567 176.075 24.0147 175.821 22.4105H182.04C182.41 17.9641 180.676 15.4428 177.509 15.4428ZM112.85 15.443C109.637 15.443 107.856 17.6203 107.856 21.2415C107.856 24.863 109.637 27.0403 112.85 27.0403C116.04 27.0403 117.82 24.863 117.82 21.2415C117.82 17.5971 116.04 15.443 112.85 15.443ZM169.24 15.443C166.189 15.443 163.969 17.5516 163.969 21.3331C163.969 25.0004 166.119 27.0403 169.102 27.0403C170.234 27.0403 171.09 26.8797 171.783 26.5588V23.9002C171.205 24.1523 170.535 24.3585 169.587 24.3585C167.992 24.3585 167.09 23.2356 167.09 21.2415C167.09 19.2474 168.107 18.0785 169.726 18.0785C170.488 18.0785 171.09 18.2391 171.668 18.537V15.9471C170.905 15.5803 170.188 15.443 169.24 15.443ZM99.0844 15.4935C97.6479 15.5012 96.5656 16.1468 95.9582 17.414V15.7408H93.1839V26.7423H96.2816V20.5079C96.8828 18.9726 98.0617 18.4454 99.5414 18.6288V15.5117C99.3853 15.4988 99.233 15.4928 99.0844 15.4935ZM124.835 15.4935C123.398 15.5012 122.316 16.1468 121.708 17.414V15.7408H118.935V26.7423H122.032V20.5079C122.633 18.9726 123.812 18.4454 125.292 18.6288V15.5117C125.136 15.4988 124.984 15.4928 124.835 15.4935ZM50.5523 15.5106C47.4544 15.5106 45.6512 17.7569 45.6512 21.3096C45.6512 24.908 47.6394 27.1083 51.2689 27.1083C52.4944 27.1083 53.5113 26.9476 54.4129 26.535V24.2431C53.4882 24.6101 52.6097 24.7246 51.685 24.7246C50.09 24.7246 49.119 24.0829 48.8648 22.4786H55.0835C55.4531 18.0321 53.7194 15.5106 50.5523 15.5106ZM66.004 17.9641C67.1829 17.9641 67.6453 18.8121 67.6453 20.3705H64.1546C64.2702 18.8808 64.8251 17.9641 66.004 17.9641ZM87.4549 17.9641C88.6338 17.9641 89.0963 18.8121 89.0963 20.3705H85.6057C85.7213 18.8808 86.276 17.9641 87.4549 17.9641ZM177.555 17.9641C178.734 17.9641 179.196 18.8121 179.196 20.3705H175.706C175.821 18.8808 176.376 17.9641 177.555 17.9641ZM50.5984 18.0321C51.7776 18.0321 52.2398 18.8802 52.2398 20.4389H48.7491C48.8648 18.9488 49.4195 18.0321 50.5984 18.0321ZM112.85 18.1017C114.168 18.1017 114.699 19.2245 114.699 21.2415C114.699 23.2585 114.168 24.3585 112.85 24.3585C111.509 24.3585 110.977 23.2585 110.977 21.2415C110.977 19.2245 111.509 18.1017 112.85 18.1017ZM76.6709 18.1246C77.9885 18.1246 78.4972 19.2476 78.4972 21.2418C78.4972 23.2356 77.9885 24.3585 76.6709 24.3585C75.9312 24.3585 75.3535 23.9232 74.9834 23.2357V19.2476C75.3535 18.5599 75.9312 18.1246 76.6709 18.1246ZM147.176 22.0666C147.546 22.0666 147.893 22.1124 148.286 22.2043V24.3128C147.8 24.7485 147.315 24.9543 146.621 24.9543C145.882 24.9543 145.28 24.5189 145.28 23.5335C145.28 22.4334 146.043 22.0666 147.176 22.0666Z" fill="white"/>
<path d="M19.7154 0.0761719L1.72885 0.0810449C1.1622 0.0689622 0.648715 0.581314 0.671671 1.14917C0.668047 2.9651 0.671793 4.77966 0.6694 6.59438C0.662151 6.9061 0.740606 7.23243 0.978622 7.44749L7.40379 13.8026L7.40984 7.18168C7.41112 7.00699 7.19244 6.95213 7.05229 6.96421C5.47801 6.96058 3.90376 6.97271 2.33068 6.96062C1.98997 6.99204 1.66251 6.69833 1.69996 6.34916C1.69392 4.81716 1.69872 3.28527 1.69751 1.75327C1.64918 1.39323 1.97053 1.06943 2.32936 1.10688L18.7452 1.11293C19.0726 1.11534 19.318 1.43672 19.2878 1.75327C19.2926 3.28406 19.2986 4.81591 19.2853 6.3467C19.3035 6.6415 19.08 6.90247 18.7985 6.96288C17.2145 6.96047 15.6317 6.96779 14.0478 6.9618C13.8968 6.98596 13.666 6.91218 13.5862 7.08979C13.5067 13.3562 13.5507 20.0084 13.5549 25.4448C13.5839 25.6756 13.4606 25.8738 13.347 26.0623C12.8239 26.1964 12.2801 26.1336 11.7473 26.1444L7.83329 26.1013C7.83329 26.1013 10.4063 28.8399 11.7003 30.0892C12.2379 30.5682 12.7599 31.1789 13.3314 31.2576L18.2861 31.2334C18.6896 31.1887 18.9807 30.7899 18.9578 30.3948C18.9675 26.769 18.9494 23.142 18.9663 19.515C18.982 19.1332 19.4954 19.2986 19.7431 19.2564C19.7431 19.2564 30.0751 19.7311 30.1136 9.88587C30.0751 0.165345 19.6725 0.0827018 19.7154 0.0761719Z" fill="url(#paint0_linear_2094_72744)"/>
</g>
<defs>
<linearGradient id="paint0_linear_2094_72744" x1="0.298126" y1="15.7209" x2="29.7752" y2="15.5271" gradientUnits="userSpaceOnUse">
<stop stop-color="#742D8C"/>
<stop offset="1" stop-color="#EB2281"/>
</linearGradient>
<clipPath id="clip0_2094_72744">
<rect width="181.76" height="32" fill="white" transform="translate(0.557617)"/>
</clipPath>
</defs>
</svg>
