<svg width="228" height="32" viewBox="0 0 228 32" fill="none" xmlns="http://www.w3.org/2000/svg">
<g clipPath="url(#clip0_2094_74357)">
<path d="M91.9165 11.2935L87.4031 3.46665C86.7508 2.31871 87.5596 0.883789 88.8902 0.883789H88.9423C89.5685 0.883789 90.1425 1.22296 90.4294 1.74475L93.795 7.61488C94.1081 8.16276 94.9168 8.16276 95.2299 7.61488L98.7259 1.71865C99.039 1.19686 99.6129 0.883789 100.213 0.883789C101.544 0.883789 102.378 2.3448 101.7 3.49274L97.004 11.2935C96.6909 11.8414 96.6648 12.4936 96.9779 13.0415L102.091 21.8597C102.744 23.0077 101.935 24.4426 100.604 24.4426H100.552C99.926 24.4426 99.352 24.1034 99.039 23.5816L95.0473 16.5897C94.7603 16.0679 94.0037 16.0679 93.7167 16.5897L89.5424 23.6338C89.2293 24.1556 88.6815 24.4687 88.0553 24.4687C86.7247 24.4687 85.8899 23.0077 86.5682 21.8597L91.8904 13.0415C92.2296 12.5197 92.2296 11.8414 91.9165 11.2935Z" fill="white"/>
<path d="M2.71689 0.0488281C3.70829 0.0488281 4.54315 0.857608 4.54315 1.8751V5.13628C4.54315 9.88457 5.89981 13.5371 8.61311 16.0156C11.0133 18.2071 14.3789 19.3811 18.3184 19.3811C30.3196 19.3811 32.0936 10.4585 32.0936 5.13628V1.84901C32.0936 0.857611 32.9024 0.0488281 33.8938 0.0488281C34.8852 0.0488281 35.7201 0.857611 35.7201 1.84901V5.11019C35.7201 11.476 33.7373 16.2765 29.8499 19.3811C26.1192 22.3553 21.5013 22.9815 18.2923 22.9815C13.4136 22.9815 9.18708 21.4944 6.13461 18.6767C2.71689 15.546 0.890625 10.8499 0.890625 5.11019V1.84901C0.916717 0.857611 1.72549 0.0488281 2.71689 0.0488281Z" fill="white"/>
<path d="M11.1956 0.0234375H25.4665C27.0058 0.0234375 28.2581 1.27574 28.2581 2.81501C28.2581 9.52001 24.6317 13.3552 18.318 13.3552C12.0044 13.3552 8.37793 9.52001 8.37793 2.81501C8.40402 1.27574 9.65631 0.0234375 11.1956 0.0234375ZM23.1707 3.67596H13.4393C12.6566 3.67596 12.0826 4.40647 12.2392 5.16306C12.8653 8.24162 14.8742 9.75482 18.3441 9.75482C20.6661 9.75482 23.6403 9.23303 24.449 5.16307C24.5795 4.38039 23.9534 3.67596 23.1707 3.67596Z" fill="#D47729"/>
<path d="M18.3183 19.3555C24.632 19.3555 28.2584 23.1906 28.2584 29.8956V30.1043C28.2584 31.0436 27.5018 31.8262 26.5365 31.8262C25.4929 31.8262 24.632 30.9653 24.632 29.8956C24.632 23.6863 21.0316 22.9819 18.3444 22.9819C14.0918 22.9819 12.0307 25.2517 12.0307 29.8956V30.1043C12.0307 31.0436 11.248 31.8262 10.3088 31.8262C9.26525 31.8262 8.4043 30.9653 8.4043 29.8956C8.4043 23.1906 12.0046 19.3555 18.3183 19.3555Z" fill="white"/>
<path d="M47.1992 0.727539C50.5908 0.727539 53.3041 1.04061 55.9653 3.02341C59.8265 5.91935 60.5048 10.0676 60.5048 12.5461C60.5048 16.4595 58.8612 19.8511 55.7565 22.0427C53.0171 23.9733 50.4343 24.3124 47.1209 24.3124H43.7554C42.9205 24.3124 42.2422 23.6341 42.2422 22.7992V2.24072C42.2422 1.40586 42.9205 0.727539 43.7554 0.727539H47.1992ZM45.8686 19.4337C45.8686 20.2686 46.5469 20.9469 47.3818 20.9469C49.2342 20.9469 51.5822 20.8425 53.6433 19.2511C55.6 17.764 56.7219 15.3116 56.7219 12.5461C56.7219 9.88494 55.6783 7.22382 53.6955 5.73672C51.6344 4.19744 49.182 4.09308 47.4079 4.09308C46.573 4.09308 45.8947 4.77141 45.8947 5.60627V19.4337H45.8686Z" fill="white"/>
<path d="M69.7666 0.727539C73.1582 0.727539 75.8715 1.04061 78.5326 3.02341C82.42 5.91935 83.0722 10.0676 83.0722 12.5461C83.0722 16.4595 81.4286 19.8511 78.3239 22.0427C75.5845 23.9733 73.0017 24.3124 69.6883 24.3124H66.3228C65.4879 24.3124 64.8096 23.6341 64.8096 22.7992V2.24072C64.8096 1.40586 65.4879 0.727539 66.3228 0.727539H69.7666ZM68.436 19.4337C68.436 20.2686 69.1143 20.9469 69.9492 20.9469C71.8015 20.9469 74.1496 20.8425 76.2107 19.2511C78.1674 17.764 79.2892 15.3116 79.2892 12.5461C79.2892 9.88494 78.2457 7.22382 76.2628 5.73672C74.2018 4.19744 71.7494 4.09308 69.9753 4.09308C69.1404 4.09308 68.4621 4.77141 68.4621 5.60627V19.4337H68.436Z" fill="white"/>
<path d="M121.867 4.64078H117.197C116.284 4.64078 115.553 5.37129 115.553 6.28442V8.52813C115.553 9.44126 116.284 10.1718 117.197 10.1718H121.606C122.519 10.1718 123.249 10.9023 123.249 11.8154C123.249 12.7285 122.519 13.459 121.606 13.459H117.197C116.284 13.459 115.553 14.1895 115.553 15.1027V22.7469C115.553 23.66 114.823 24.3905 113.909 24.3905H113.649C112.735 24.3905 112.005 23.66 112.005 22.7469V2.99716C112.005 2.08402 112.735 1.35352 113.649 1.35352H121.867C122.78 1.35352 123.51 2.08402 123.51 2.99716C123.51 3.91029 122.78 4.64078 121.867 4.64078Z" fill="#D47729"/>
<path d="M131.364 2.99716V22.7469C131.364 23.66 130.633 24.3905 129.72 24.3905H129.459C128.546 24.3905 127.815 23.66 127.815 22.7469V2.99716C127.815 2.08402 128.546 1.35352 129.459 1.35352H129.72C130.607 1.35352 131.364 2.08402 131.364 2.99716Z" fill="#D47729"/>
<path d="M143.887 6.28442V22.7469C143.887 23.66 143.156 24.3905 142.243 24.3905H141.982C141.069 24.3905 140.338 23.66 140.338 22.7469V6.28442C140.338 5.37129 139.608 4.64078 138.695 4.64078H136.712C135.799 4.64078 135.068 3.91029 135.068 2.99716C135.068 2.08402 135.799 1.35352 136.712 1.35352H147.513C148.426 1.35352 149.157 2.08402 149.157 2.99716C149.157 3.91029 148.426 4.64078 147.513 4.64078H145.53C144.617 4.64078 143.887 5.37129 143.887 6.28442Z" fill="#D47729"/>
<path d="M152.757 22.7466V3.9361C152.757 2.449 154.557 1.71849 155.601 2.78816L166.584 14.2936C167.602 15.3633 169.428 14.6328 169.428 13.1457V2.97078C169.428 2.05764 170.159 1.32715 171.072 1.32715H171.333C172.246 1.32715 172.976 2.05764 172.976 2.97078V21.6509C172.976 23.138 171.176 23.8685 170.132 22.7988L159.149 11.2933C158.131 10.2237 156.305 10.9542 156.305 12.4413V22.7466C156.305 23.6597 155.574 24.3902 154.661 24.3902H154.4C153.487 24.3902 152.757 23.6597 152.757 22.7466Z" fill="#D47729"/>
<path d="M188.891 4.64078H183.021C182.108 4.64078 181.377 5.37129 181.377 6.28442V8.52813C181.377 9.44126 182.108 10.1718 183.021 10.1718H188.63C189.543 10.1718 190.274 10.9023 190.274 11.8154C190.274 12.7285 189.543 13.459 188.63 13.459H183.047C182.134 13.459 181.403 14.1895 181.403 15.1027V19.4335C181.403 20.3467 182.134 21.0772 183.047 21.0772H188.891C189.804 21.0772 190.535 21.8077 190.535 22.7208C190.535 23.6339 189.804 24.3644 188.891 24.3644H179.473C178.56 24.3644 177.829 23.6339 177.829 22.7208V2.99716C177.829 2.08402 178.56 1.35352 179.473 1.35352H188.891C189.804 1.35352 190.535 2.08402 190.535 2.99716C190.535 3.91029 189.804 4.64078 188.891 4.64078Z" fill="#D47729"/>
<path d="M205.144 5.16246C204.962 4.97984 204.727 4.79721 204.492 4.64067C204.205 4.45805 203.84 4.32761 203.501 4.27543C201.231 3.88408 199.3 4.90157 199.3 6.93655C199.3 8.5541 200.683 9.33679 201.779 9.75422L204.075 10.6673C206.318 11.5544 209.449 13.2502 209.527 17.2941C209.632 21.8858 205.327 25.4079 200.787 24.7557C199.144 24.5209 197.735 23.7643 196.639 22.512C196.222 22.0424 195.752 21.3901 195.387 20.5553C194.787 19.2247 195.517 17.868 196.926 17.555L197.161 17.5028C197.709 17.3984 198.205 17.7376 198.335 18.2855C198.492 19.016 198.805 19.6943 199.196 20.2161C200.031 21.3119 200.97 21.5728 202.144 21.5728C204.805 21.5728 206.005 19.6682 206.005 17.7115C206.005 15.4156 204.127 14.4242 202.692 13.7981L200.474 12.8328C198.126 11.8153 195.778 10.2238 195.778 7.01482C195.778 3.28402 198.935 0.883789 202.509 0.883789C204.91 0.883789 206.266 1.69256 207.127 2.44916C207.623 2.89268 208.379 3.36229 208.51 4.43196C208.562 4.79721 208.458 5.00593 208.275 5.13638L207.805 5.42336C206.971 5.91907 205.797 5.78861 205.144 5.16246Z" fill="#D47729"/>
<path d="M223.277 5.16246C223.094 4.97984 222.859 4.79721 222.625 4.64067C222.338 4.45805 221.972 4.32761 221.633 4.27543C219.363 3.88408 217.433 4.90157 217.433 6.93655C217.433 8.5541 218.815 9.33679 219.911 9.75422L222.207 10.6673C224.451 11.5544 227.582 13.2502 227.66 17.2941C227.764 21.8858 223.459 25.4079 218.92 24.7557C217.276 24.5209 215.867 23.7643 214.772 22.512C214.354 22.0424 213.885 21.3901 213.519 20.5553C212.919 19.2247 213.624 17.868 215.059 17.555L215.293 17.5028C215.841 17.3984 216.337 17.7376 216.467 18.2855C216.624 19.016 216.937 19.6943 217.328 20.2161C218.163 21.3119 219.102 21.5728 220.276 21.5728C222.938 21.5728 224.138 19.6682 224.138 17.7115C224.138 15.4156 222.259 14.4242 220.824 13.7981L218.633 12.8328C216.285 11.8153 213.937 10.2238 213.937 7.01482C213.937 3.28402 217.094 0.883789 220.668 0.883789C223.068 0.883789 224.425 1.69256 225.286 2.44916C225.781 2.89268 226.538 3.36229 226.668 4.43196C226.721 4.79721 226.642 5.00593 226.434 5.13638L225.964 5.42336C225.077 5.91907 223.903 5.78861 223.277 5.16246Z" fill="#D47729"/>
</g>
<defs>
<clipPath id="clip0_2094_74357">
<rect width="227.2" height="32" fill="white" transform="translate(0.751953)"/>
</clipPath>
</defs>
</svg>
