<svg width="126" height="32" viewBox="0 0 126 32" fill="none" xmlns="http://www.w3.org/2000/svg">
<g clipPath="url(#clip0_2094_74350)">
<path fillRule="evenodd" clipRule="evenodd" d="M75.5479 0.0825541H83.0272V27.875C83.0272 29.4899 82.0923 30.9346 80.7324 31.5297C80.3075 31.6996 79.7974 31.8696 79.2875 31.8696C78.2676 31.8696 77.3328 31.4447 76.6527 30.6796L51.5802 11.7265V31.8696H44.1008V3.99219C44.1008 2.37733 45.0358 0.932475 46.3957 0.337531C47.8406 -0.257414 49.4554 0.0825537 50.4752 1.18745L75.5479 20.1407V0.0825541ZM122.209 14.9562C121.359 14.0213 120.339 13.3413 119.234 12.8314C118.044 12.3214 116.854 12.0664 115.579 12.0664H95.5209C94.4162 12.0664 93.5661 11.1315 93.5661 10.0266C93.5661 8.92174 94.4162 7.98681 95.5209 7.98681H119.319C121.359 7.98681 123.059 6.20199 123.059 4.07718C123.059 1.86739 121.359 0.167548 119.319 0.167548H95.5209C94.2462 0.167548 92.9713 0.422525 91.8663 0.932478C90.7615 1.44243 89.7415 2.12237 88.8917 3.05727C88.0417 3.99219 87.3618 5.0121 86.8518 6.20199C86.3419 7.39188 86.0869 8.75175 86.0869 10.0266C86.0869 11.3865 86.3419 12.6614 86.8518 13.8513C87.3618 15.0412 88.0417 16.0611 88.8917 16.996C89.7415 17.9309 90.7615 18.6108 91.8663 19.1209C93.0562 19.6308 94.2462 19.8857 95.5209 19.8857H115.579C116.684 19.8857 117.534 20.8207 117.534 21.9255C117.534 23.0304 116.684 23.9653 115.579 23.9653H89.8265C87.7868 23.9653 86.0869 25.7501 86.0869 27.875C86.0869 30.0848 87.7868 31.7846 89.8265 31.7846H115.579C116.854 31.7846 118.129 31.5296 119.234 31.0196C120.339 30.5097 121.359 29.8298 122.209 28.8948C123.059 27.96 123.738 26.94 124.248 25.7501C124.758 24.5603 125.013 23.2004 125.013 21.9255C125.013 20.6506 124.758 19.2908 124.248 18.1009C123.738 16.911 123.059 15.8061 122.209 14.9562ZM39.7663 15.9761C39.7663 24.7303 32.9669 31.8696 24.6377 31.8696H0.754883V0.0825541H24.5527C32.9669 0.0825541 39.7663 7.2219 39.7663 15.9761ZM32.542 16.656C32.542 14.5312 32.0319 11.4715 30.587 9.94164C29.1423 8.41178 26.8474 7.05191 24.7226 7.05191H7.9792V24.5603H24.7226C26.8474 24.5603 28.8022 23.7103 30.2471 22.2654C31.692 20.8207 32.542 18.7807 32.542 16.656Z" fill="#F18A21"/>
</g>
<defs>
<clipPath id="clip0_2094_74350">
<rect width="124.493" height="32" fill="white" transform="translate(0.679688)"/>
</clipPath>
</defs>
</svg>
