<svg width="137" height="32" viewBox="0 0 137 32" fill="none" xmlns="http://www.w3.org/2000/svg">
<g clipPath="url(#clip0_2094_74414)">
<path d="M25.914 0.130859H25.6094V31.7862H25.914V0.130859Z" fill="#E22041"/>
<path d="M40.5788 17.77C39.8619 17.9152 38.9957 18.0164 38.2641 18.0164C35.7849 18.0164 34.1572 16.9004 34.1572 14.364V10.6826H36.4569V14.1175C36.4569 15.422 37.1292 16.002 38.5029 16.002C39.2346 16.002 39.9364 15.9148 40.5788 15.7555V10.6826H42.8785V21.2341H40.5788C40.5788 21.2341 40.5788 17.77 40.5788 17.77Z" fill="#E22041"/>
<path d="M85.889 21.2341V14.19L80.5875 21.2341H78.5713V10.6826H80.8562V17.5092L85.9933 10.6826H88.1886V21.2341H85.889Z" fill="#E22041"/>
<path d="M100.703 15.9874V15.9585C100.703 12.9728 103.137 10.5088 106.483 10.5088C109.828 10.5088 112.232 12.9293 112.232 15.9293V15.9585C112.232 18.9442 109.798 21.4083 106.453 21.4083C103.107 21.4083 100.703 18.9878 100.703 15.9874ZM109.828 15.9874V15.9585C109.828 14.1033 108.424 12.5524 106.453 12.5524C104.482 12.5524 103.107 14.0741 103.107 15.9293V15.9585C103.107 17.8138 104.511 19.3646 106.483 19.3646C108.454 19.3646 109.828 17.8426 109.828 15.9874Z" fill="#E22041"/>
<path d="M125.354 15.9874V15.9585C125.354 12.9728 127.788 10.5088 131.133 10.5088C134.478 10.5088 136.882 12.9293 136.882 15.9293V15.9585C136.882 18.9442 134.448 21.4083 131.103 21.4083C127.758 21.4083 125.354 18.9878 125.354 15.9874ZM134.478 15.9874V15.9585C134.478 14.1033 133.074 12.5524 131.103 12.5524C129.132 12.5524 127.758 14.0741 127.758 15.9293V15.9585C127.758 17.8138 129.162 19.3646 131.133 19.3646C133.104 19.3646 134.478 17.8426 134.478 15.9874Z" fill="#E22041"/>
<path d="M47.7565 19.2486V14.9615C47.7771 16.043 48.658 16.9138 49.7442 16.9149H53.0172V14.9293H47.7565V12.6682H53.7299V10.6826H45.4863V21.2343H53.7299V19.2486C53.7299 19.2486 47.7565 19.2486 47.7565 19.2486Z" fill="#E22041"/>
<path d="M96.8225 15.8137C97.9872 15.3789 98.7042 14.7121 98.7042 13.3641V13.3496C98.7042 11.6248 97.211 10.5088 94.6422 10.5088C92.7009 10.5088 91.3566 11.2044 90.162 12.2336L91.5509 13.7409C92.4469 13.0161 93.4476 12.4944 94.5973 12.4944C95.7023 12.4944 96.3746 12.9293 96.3746 13.6829V13.6973C96.3746 14.4657 95.7174 14.9873 94.5825 14.9873L91.8447 14.9875C91.8477 16.0122 92.6786 16.842 93.7039 16.8432L94.5228 16.8425C95.852 16.8281 96.6732 17.2774 96.6732 18.089V18.1038C96.6732 18.9734 95.762 19.4226 94.5376 19.4226C93.2681 19.4226 92.2527 18.9154 91.3268 18.205L89.9678 19.7994C91.0433 20.727 92.5217 21.4083 94.4779 21.4083C97.3451 21.4227 99.0027 20.0602 99.0027 18.2922V18.2774C99.0027 16.7993 98.1067 16.1325 96.8225 15.8137Z" fill="#E22041"/>
<path d="M121.653 15.7263C122.429 15.3059 123.102 14.6395 123.102 13.4363V13.4075C123.102 12.6827 122.863 12.103 122.37 11.6102C121.743 11.0158 120.757 10.6826 119.518 10.6826H114.515V21.2341H119.652C122.101 21.2341 123.714 20.2632 123.714 18.3352V18.3064C123.714 16.886 122.907 16.1756 121.653 15.7263ZM119.189 12.6391C120.234 12.6391 120.817 13.0595 120.817 13.7699V13.7987C120.817 14.6247 120.13 14.9871 119.039 14.9871L116.74 14.9874V12.6391H119.189ZM121.429 18.0744C121.429 18.886 120.757 19.2776 119.652 19.2776H116.74V15.0302C116.766 16.0345 117.586 16.8412 118.596 16.8424H119.562C120.847 16.8424 121.429 17.2916 121.429 18.0456C121.429 18.0456 121.429 18.0744 121.429 18.0744Z" fill="#E22041"/>
<path d="M61.2902 10.6826C61.2897 10.6826 61.2892 10.6827 61.2887 10.6827L56.0664 10.6826V21.2341H58.3513V18.0159H61.2887V18.0156C61.2892 18.0156 61.2897 18.0157 61.2902 18.0157C63.3152 18.0157 64.9568 16.3741 64.9568 14.3492C64.9568 12.3242 63.3152 10.6826 61.2902 10.6826ZM61.3062 16.0332H58.3513V12.6971H61.2834V12.6994C61.2911 12.6993 61.2984 12.6971 61.3062 12.6971C62.2275 12.6971 62.9743 13.4438 62.9743 14.3651C62.9743 15.2864 62.2275 16.0332 61.3062 16.0332Z" fill="#E22041"/>
<path d="M66.8232 10.6826H69.1082V15.4367L73.6483 10.6826H76.4707L72.0054 15.1759L76.6649 21.2345H73.9022L70.4525 16.6977L69.1082 18.0458V21.2345H66.8232C66.8232 21.2345 66.8232 10.6826 66.8232 10.6826Z" fill="#E22041"/>
<path d="M34.1045 26.1025V26.0949C34.1045 25.3131 34.711 24.6748 35.5782 24.6748C36.111 24.6748 36.4298 24.8448 36.6942 25.0979L36.3132 25.5246C36.0914 25.3283 35.8661 25.2074 35.5744 25.2074C35.0844 25.2074 34.7305 25.6039 34.7305 26.0874V26.0949C34.7305 26.5784 35.0767 26.9826 35.5744 26.9826C35.905 26.9826 36.107 26.8542 36.3325 26.654L36.7137 27.0279C36.422 27.3263 36.0992 27.5152 35.5549 27.5152C34.7228 27.5152 34.1045 26.892 34.1045 26.1025Z" fill="#E22041"/>
<path d="M39.2569 25.2904L38.7591 25.4112L38.6348 24.9353L39.4398 24.7012H39.8481V27.4697H39.2569C39.2569 27.4697 39.2569 25.2904 39.2569 25.2904Z" fill="#E22041"/>
<path d="M42.2399 26.3141H42.2359C42.096 26.4462 41.8978 26.5256 41.6449 26.5256C41.0344 26.5256 40.6377 26.1932 40.6377 25.6417V25.6341C40.6377 25.0827 41.0773 24.6748 41.7111 24.6748C42.0883 24.6748 42.3098 24.7654 42.5238 24.9695C42.7259 25.1658 42.8582 25.468 42.8582 26.0081V26.0157C42.8582 26.9071 42.4226 27.5152 41.6294 27.5152C41.2171 27.5152 40.9412 27.383 40.7039 27.1903L41.0189 26.7484C41.2249 26.9109 41.4038 26.9901 41.6411 26.9901C42.0921 26.9901 42.2244 26.567 42.2399 26.3141ZM42.2437 25.6152V25.6077C42.2437 25.3546 42.0494 25.1696 41.7304 25.1696C41.4116 25.1696 41.2327 25.3546 41.2327 25.6077V25.6152C41.2327 25.8683 41.4271 26.0421 41.7422 26.0421C42.061 26.0421 42.2437 25.857 42.2437 25.6152Z" fill="#E22041"/>
<path d="M44.8494 25.2221H43.5V24.7197H45.5258V25.1578L44.2582 27.4694H43.5817L44.8494 25.2221Z" fill="#E22041"/>
<path d="M47.1856 26.873H45.7934L45.6924 26.4612L47.2518 24.7012H47.7573V26.4008H48.1422V26.873H47.7573V27.4697H47.1856V26.873ZM47.1856 26.4008V25.4981L46.3961 26.4008L47.1856 26.4008Z" fill="#E22041"/>
<path d="M13.0586 14.974C12.2405 14.4743 11.0186 14.4311 9.36919 16.437C8.58335 17.3946 7.82486 18.7319 6.91213 19.8287C6.00015 20.9255 4.93714 21.7815 3.54181 21.7815C1.76605 21.7815 0.915918 20.4322 0.522675 18.7483C0.324237 17.9044 0.240239 16.9804 0.212272 16.1019C0.182569 15.222 0.206518 14.3908 0.224616 13.7341C0.234517 13.374 0.331695 12.8121 0.465905 12.4491C1.18427 10.548 3.26307 9.4893 5.10877 10.0821C6.5358 10.541 7.46093 11.8495 7.40162 13.2978C7.37276 14.0315 7.32171 14.8011 7.28966 15.4384C7.26085 16.0755 7.24761 16.5848 7.30284 16.7935C7.38021 17.0965 7.68489 17.0925 7.86154 16.927C7.94717 16.8446 8.17522 16.5864 8.44775 16.2813C8.71665 15.9734 9.03288 15.6162 9.29464 15.3345C9.81383 14.7714 11.0144 13.6312 13.1829 13.6312C15.5722 13.6312 17.4433 15.4557 17.3626 17.7051C17.2815 19.9589 15.8134 21.7815 12.8918 21.7815C10.4533 21.7815 9.12501 20.2502 9.78915 18.3053C10.3923 16.537 12.8408 16.0252 13.8694 16.3554C13.885 16.3423 13.8759 15.4705 13.0586 14.974ZM11.1857 12.0751C9.53304 12.0751 8.23125 11.3877 8.26086 10.5493C8.2922 9.71182 9.6442 9.02344 11.2969 9.02344C12.9508 9.02344 14.2514 9.71182 14.2217 10.5489C14.1905 11.3877 12.8424 12.0751 11.1857 12.0751Z" fill="#E22041"/>
</g>
<defs>
<clipPath id="clip0_2094_74414">
<rect width="136.767" height="32" fill="white" transform="translate(0.198242)"/>
</clipPath>
</defs>
</svg>
