<svg width="46" height="32" viewBox="0 0 46 32" fill="none" xmlns="http://www.w3.org/2000/svg">
<g clipPath="url(#clip0_2094_74539)">
<path d="M9.52344 7.37627C9.52344 7.06504 9.8586 6.89746 10.2177 6.89746H13.737C14.0721 6.89746 14.2158 7.25657 14.2158 7.56779C14.2158 7.9269 14.0482 8.26207 13.737 8.26207H11.1035V9.9379H12.6357C12.9469 9.9379 13.1145 10.2252 13.1145 10.5364C13.1145 10.7997 12.9709 11.1349 12.6357 11.1349H11.1035V13.6965C11.1035 14.0078 10.6965 14.1753 10.3135 14.1753C9.93043 14.1753 9.52344 14.0078 9.52344 13.6965L9.52344 7.37627Z" fill="#010101"/>
<path d="M22.4038 9.93837H23.9121C24.2233 9.93837 24.3909 10.2257 24.3909 10.5369C24.3909 10.8002 24.2472 11.1354 23.9121 11.1354H22.4038V12.8352H25.1091C25.4203 12.8352 25.5879 13.1464 25.5879 13.5294C25.5879 13.8407 25.4442 14.1998 25.1091 14.1998H21.4941C21.1589 14.1998 20.7998 14.0322 20.7998 13.721V7.40068C20.7998 7.08946 21.135 6.92188 21.4941 6.92188H25.1091C25.4442 6.92188 25.5879 7.28098 25.5879 7.59221C25.5879 7.95131 25.4203 8.28648 25.1091 8.28648H22.4038V9.93837Z" fill="#010101"/>
<path d="M35.4034 12.2362C35.4034 11.0392 32.1954 11.2307 32.1954 8.90849C32.1954 7.42418 33.5122 6.84961 34.781 6.84961C35.3077 6.84961 36.792 6.94537 36.792 7.7354C36.792 7.99875 36.6005 8.54938 36.1695 8.54938C35.8104 8.54938 35.6189 8.16633 34.781 8.16633C34.0628 8.16633 33.7755 8.45362 33.7755 8.76484C33.7755 9.77034 36.9835 9.57882 36.9835 12.0686C36.9835 13.505 35.9301 14.2711 34.4458 14.2711C33.1291 14.2711 32.0039 13.6247 32.0039 12.9784C32.0039 12.6432 32.3151 12.1404 32.6982 12.1404C33.177 12.1404 33.4882 12.8826 34.4219 12.8826C34.8768 12.8826 35.4034 12.715 35.4034 12.2362Z" fill="#010101"/>
<path d="M12.133 17.9588C11.8936 17.9588 11.6542 18.1982 11.6542 18.6052V19.2756C11.6542 19.3713 11.5106 19.491 11.2951 19.491C11.0797 19.491 10.96 19.3953 10.96 19.2756V17.6237C10.96 17.504 11.1036 17.4082 11.2951 17.4082C11.4627 17.4082 11.6064 17.48 11.6064 17.6237V17.7912C11.7021 17.5997 11.9176 17.4082 12.133 17.4082H12.2527C12.3724 17.4082 12.4921 17.5518 12.4921 17.6955C12.4921 17.8631 12.3724 17.9828 12.2527 17.9828L12.133 17.9588Z" fill="#010101"/>
<path d="M17.3518 18.1978C17.3518 18.5808 17.1363 18.6048 16.9209 18.6048H16.059V18.6287C16.059 18.8442 16.2505 18.9878 16.5139 18.9878C16.7772 18.9878 16.9209 18.8202 17.0645 18.8202C17.2321 18.8202 17.3278 19.0117 17.3278 19.1075C17.3278 19.2751 17.0166 19.4905 16.5139 19.4905C15.8675 19.4905 15.3887 19.1314 15.3887 18.5808V18.2696C15.3887 17.7908 15.8435 17.3838 16.3942 17.3838C16.8969 17.3838 17.3518 17.719 17.3518 18.1978ZM16.6096 18.2456C16.6815 18.2456 16.7054 18.2217 16.7054 18.1499C16.7054 17.9823 16.5378 17.8865 16.3942 17.8865C16.2266 17.8865 16.0829 17.9823 16.0829 18.1499V18.2456H16.6096Z" fill="#010101"/>
<path d="M21.1108 18.7479C21.1108 18.8676 21.1586 18.9155 21.3023 18.9155H21.4938C21.6853 18.9155 21.7811 19.0592 21.7811 19.2028C21.7811 19.3465 21.6853 19.4901 21.4938 19.4901H21.3023C20.7517 19.4901 20.4404 19.2746 20.4404 18.7479V16.7369C20.4404 16.6172 20.632 16.5215 20.7756 16.5215C20.9432 16.5215 21.1108 16.5933 21.1108 16.7369V17.4312H21.6135C21.7332 17.4312 21.7811 17.5509 21.7811 17.6706C21.7811 17.7903 21.7332 17.91 21.6135 17.91H21.1108C21.1108 17.91 21.1108 18.7479 21.1108 18.7479Z" fill="#010101"/>
<path d="M26.5934 18.2452V19.2746C26.5934 19.3943 26.4498 19.4901 26.2583 19.4901C26.0907 19.4901 25.9471 19.3943 25.9471 19.2746V19.1788C25.7795 19.3704 25.5879 19.514 25.2767 19.514C24.9655 19.514 24.7021 19.3225 24.7021 18.9394C24.7021 18.4367 25.1331 18.2931 25.7316 18.2931H25.8992V18.2452C25.8992 18.1015 25.8273 17.9339 25.564 17.9339C25.2049 17.9339 25.157 18.0776 25.0373 18.0776C24.8937 18.0776 24.7979 17.91 24.7979 17.7424C24.7979 17.527 25.2288 17.4073 25.564 17.4073C26.3062 17.3833 26.5934 17.7903 26.5934 18.2452ZM25.8992 18.6043C25.6358 18.6043 25.3964 18.6282 25.3964 18.8437C25.3964 18.9634 25.4682 19.0352 25.564 19.0352C25.7076 19.0352 25.8992 18.8437 25.8992 18.6043Z" fill="#010101"/>
<path d="M30.4477 16.6892C30.4477 16.8567 30.2801 17.0004 30.0886 17.0004C29.8971 17.0004 29.7295 16.8567 29.7295 16.6892C29.7295 16.5216 29.8971 16.3779 30.0886 16.3779C30.2801 16.4019 30.4477 16.5455 30.4477 16.6892ZM30.4238 17.6228V19.2747C30.4238 19.3705 30.2801 19.4902 30.0886 19.4902C29.8971 19.4902 29.7534 19.3944 29.7534 19.2747V17.6228C29.7534 17.5031 29.8971 17.4074 30.0886 17.4074C30.2801 17.4074 30.4238 17.5031 30.4238 17.6228Z" fill="#010101"/>
<path d="M34.3256 16.4264V19.2753C34.3256 19.3711 34.182 19.4908 33.9904 19.4908C33.7989 19.4908 33.6553 19.395 33.6553 19.2753V16.4264C33.6553 16.3067 33.7989 16.2109 33.9904 16.2109C34.182 16.2349 34.3256 16.3067 34.3256 16.4264Z" fill="#010101"/>
<path d="M45.0751 25.7149H1.12047C0.785303 25.7149 0.545898 25.4516 0.545898 25.1404V0.577499C0.545898 0.266274 0.809243 0.00292969 1.12047 0.00292969H45.0751C45.4103 0.00292969 45.6497 0.266274 45.6497 0.577499V25.1404C45.6497 25.4755 45.3863 25.7149 45.0751 25.7149ZM1.69504 24.5658H44.4766V1.15207H1.69504V24.5658Z" fill="#010101"/>
<path d="M0.833008 29.0192C0.833008 28.8755 0.97665 28.8037 1.12029 28.8037H2.62854C2.77218 28.8037 2.82006 28.9474 2.82006 29.091C2.82006 29.2586 2.74824 29.3783 2.62854 29.3783H1.52728V30.0965H2.17367C2.29337 30.0965 2.36519 30.2162 2.36519 30.3598C2.36519 30.4795 2.29337 30.5992 2.17367 30.5992H1.52728V31.7005C1.52728 31.8441 1.3597 31.916 1.19211 31.916C1.02453 31.916 0.856948 31.8441 0.856948 31.7005L0.833008 29.0192Z" fill="#010101"/>
<path d="M3.05957 31.6526V31.6047L3.87354 29.0192C3.92143 28.8755 4.11295 28.8037 4.30447 28.8037C4.496 28.8037 4.68752 28.8755 4.7354 29.0192L5.54937 31.6047V31.6526C5.54937 31.8202 5.30997 31.916 5.11845 31.916C4.99874 31.916 4.92692 31.892 4.90298 31.7963L4.75934 31.2696H3.8496L3.70596 31.7963C3.68202 31.892 3.58626 31.916 3.4905 31.916C3.32291 31.916 3.05957 31.7963 3.05957 31.6526ZM4.63964 30.7429L4.32841 29.5937L4.01719 30.7429H4.63964Z" fill="#010101"/>
<path d="M6.36378 29.0187C6.36378 28.9229 6.43561 28.8271 6.57925 28.8271H7.46504C8.06355 28.8271 8.51842 29.0426 8.51842 29.7369C8.51842 30.2157 8.30296 30.479 7.99173 30.5987L8.51842 31.5324C8.54236 31.5564 8.54236 31.5803 8.54236 31.6042C8.54236 31.7718 8.3269 31.9394 8.11143 31.9394C8.01567 31.9394 7.94385 31.9155 7.89597 31.8197L7.29746 30.6945H7.01018V31.7239C7.01018 31.8676 6.84259 31.9394 6.67501 31.9394C6.50743 31.9394 6.33984 31.8676 6.33984 31.7239L6.36378 29.0187ZM7.05806 29.3778V30.1678H7.48898C7.72839 30.1678 7.87203 30.0721 7.87203 29.7608C7.87203 29.4735 7.72839 29.3778 7.48898 29.3778C7.48898 29.3778 7.05806 29.3778 7.05806 29.3778Z" fill="#010101"/>
<path d="M11.5346 30.096H12.181C12.3007 30.096 12.3725 30.2157 12.3725 30.3594C12.3725 30.4791 12.3007 30.5988 12.181 30.5988H11.5346V31.317H12.6837C12.8034 31.317 12.8753 31.4606 12.8753 31.6043C12.8753 31.7479 12.8034 31.8916 12.6837 31.8916H11.1515C11.0079 31.8916 10.8643 31.8197 10.8643 31.6761V28.9708C10.8643 28.8272 11.0079 28.7793 11.1515 28.7793H12.6837C12.8274 28.7793 12.8753 28.9229 12.8753 29.0666C12.8753 29.2342 12.8034 29.3539 12.6837 29.3539H11.5346V30.096Z" fill="#010101"/>
<path d="M13.498 31.6526V31.6047L14.312 29.0192C14.3599 28.8755 14.5514 28.8037 14.7429 28.8037C14.9345 28.8037 15.126 28.8755 15.1739 29.0192L15.9879 31.6047V31.6526C15.9879 31.8202 15.7484 31.916 15.5569 31.916C15.4372 31.916 15.3654 31.892 15.3415 31.7963L15.1978 31.2696H14.2881L14.1444 31.7963C14.1205 31.892 14.0247 31.916 13.929 31.916C13.7614 31.916 13.498 31.7963 13.498 31.6526ZM15.0781 30.7429L14.7669 29.5937L14.4557 30.7429H15.0781Z" fill="#010101"/>
<path d="M18.1186 31.0776C18.1186 30.5748 16.754 30.6466 16.754 29.6651C16.754 29.0187 17.3285 28.7793 17.8552 28.7793C18.0946 28.7793 18.7171 28.8272 18.7171 29.1623C18.7171 29.282 18.6453 29.5214 18.4537 29.5214C18.3101 29.5214 18.2143 29.3539 17.8552 29.3539C17.544 29.3539 17.4243 29.4736 17.4243 29.6172C17.4243 30.0481 18.7889 29.9524 18.7889 31.0297C18.7889 31.6521 18.334 31.9634 17.7116 31.9634C17.137 31.9634 16.6582 31.7 16.6582 31.4127C16.6582 31.2691 16.7779 31.0536 16.9455 31.0536C17.137 31.0536 17.2807 31.3649 17.6876 31.3649C17.9031 31.3649 18.1186 31.293 18.1186 31.0776Z" fill="#010101"/>
<path d="M21.5413 28.8037C21.6849 28.8037 21.7328 28.9474 21.7328 29.091C21.7328 29.2586 21.661 29.4022 21.5413 29.4022H20.9428V31.7005C20.9428 31.8441 20.7752 31.916 20.6076 31.916C20.44 31.916 20.2725 31.8441 20.2725 31.7005V29.4022H19.6739C19.5542 29.4022 19.4824 29.2586 19.4824 29.091C19.4824 28.9474 19.5542 28.8037 19.6739 28.8037L21.5413 28.8037Z" fill="#010101"/>
<path d="M25.2524 31.0776C25.2524 30.5748 23.8878 30.6466 23.8878 29.6651C23.8878 29.0187 24.4623 28.7793 24.989 28.7793C25.2284 28.7793 25.8509 28.8272 25.8509 29.1623C25.8509 29.282 25.779 29.5214 25.5875 29.5214C25.4199 29.5214 25.3481 29.3539 24.989 29.3539C24.6778 29.3539 24.5581 29.4736 24.5581 29.6172C24.5581 30.0481 25.9227 29.9524 25.9227 31.0297C25.9227 31.6521 25.4678 31.9634 24.8454 31.9634C24.2708 31.9634 23.792 31.7 23.792 31.4127C23.792 31.2691 23.9117 31.0536 24.0793 31.0536C24.2708 31.0536 24.4144 31.3649 24.8214 31.3649C25.0369 31.3649 25.2524 31.293 25.2524 31.0776Z" fill="#010101"/>
<path d="M27.4789 30.096H28.1253C28.245 30.096 28.3168 30.2157 28.3168 30.3594C28.3168 30.4791 28.245 30.5988 28.1253 30.5988H27.4789V31.317H28.6281C28.7478 31.317 28.8196 31.4606 28.8196 31.6043C28.8196 31.7479 28.7478 31.8916 28.6281 31.8916H27.0959C26.9522 31.8916 26.8086 31.8197 26.8086 31.6761V28.9708C26.8086 28.8272 26.9522 28.7793 27.0959 28.7793H28.6281C28.7717 28.7793 28.8196 28.9229 28.8196 29.0666C28.8196 29.2342 28.7478 29.3539 28.6281 29.3539H27.4789V30.096Z" fill="#010101"/>
<path d="M29.6812 29.0187C29.6812 28.9229 29.753 28.8271 29.8966 28.8271H30.7824C31.3809 28.8271 31.8358 29.0426 31.8358 29.7369C31.8358 30.2157 31.6203 30.479 31.3091 30.5987L31.8358 31.5324C31.8597 31.5564 31.8597 31.5803 31.8597 31.6042C31.8597 31.7718 31.6443 31.9394 31.4288 31.9394C31.3331 31.9394 31.2612 31.9155 31.2134 31.8197L30.6148 30.6945H30.3276V31.7239C30.3276 31.8676 30.16 31.9394 29.9924 31.9394C29.8248 31.9394 29.6572 31.8676 29.6572 31.7239L29.6812 29.0187ZM30.3515 29.3778V30.1678H30.7824C31.0218 30.1678 31.1655 30.0721 31.1655 29.7608C31.1655 29.4735 31.0218 29.3778 30.7824 29.3778C30.7824 29.3778 30.3515 29.3778 30.3515 29.3778Z" fill="#010101"/>
<path d="M32.5303 29.1384V29.0905C32.5303 28.9229 32.7697 28.8271 32.9612 28.8271C33.0809 28.8271 33.1527 28.8511 33.1767 28.9469L33.7752 31.1254L34.3737 28.9469C34.3976 28.8511 34.4934 28.8271 34.5891 28.8271C34.7807 28.8271 35.0201 28.9468 35.0201 29.0905V29.1384L34.2061 31.7239C34.1582 31.8676 33.9667 31.9394 33.7752 31.9394C33.5837 31.9394 33.3921 31.8676 33.3442 31.7239L32.5303 29.1384Z" fill="#010101"/>
<path d="M35.834 29.0187C35.834 28.875 36.0016 28.8271 36.1691 28.8271C36.3367 28.8271 36.5043 28.875 36.5043 29.0187V31.7239C36.5043 31.8676 36.3367 31.9394 36.1691 31.9394C36.0016 31.9394 35.834 31.8676 35.834 31.7239V29.0187Z" fill="#010101"/>
<path d="M38.5397 29.3783C38.3003 29.3783 38.1567 29.5219 38.1567 29.8092V30.9344C38.1567 31.2217 38.3003 31.3653 38.5397 31.3653C38.8749 31.3653 38.8988 31.102 38.9228 30.9344C38.9467 30.7668 39.0903 30.7429 39.2579 30.7429C39.4973 30.7429 39.5931 30.7908 39.5931 31.0541C39.5931 31.6287 39.1143 31.9399 38.5158 31.9399C37.9412 31.9399 37.4863 31.6766 37.4863 30.9344V29.8092C37.4863 29.0671 37.9651 28.8037 38.5158 28.8037C39.1382 28.8037 39.5931 29.1149 39.5931 29.6416C39.5931 29.905 39.4734 29.9529 39.2579 29.9529C39.0664 29.9529 38.9228 29.905 38.9228 29.7613C38.9228 29.6656 38.9228 29.3783 38.5397 29.3783Z" fill="#010101"/>
<path d="M41.1733 30.0965H41.8196C41.9394 30.0965 42.0351 30.2162 42.0351 30.3598C42.0351 30.4795 41.9633 30.5992 41.8196 30.5992H41.1733V31.3175H42.3224C42.4421 31.3175 42.5379 31.4611 42.5379 31.6047C42.5379 31.7484 42.466 31.892 42.3224 31.892H40.7902C40.6466 31.892 40.5029 31.8202 40.5029 31.7005V28.9952C40.5029 28.8516 40.6466 28.8037 40.7902 28.8037H42.3224C42.466 28.8037 42.5379 28.9474 42.5379 29.091C42.5379 29.2586 42.466 29.3783 42.3224 29.3783H41.1733V30.0965Z" fill="#010101"/>
<path d="M44.6684 31.0776C44.6684 30.5748 43.3038 30.6466 43.3038 29.6651C43.3038 29.0187 43.8783 28.7793 44.405 28.7793C44.6444 28.7793 45.2669 28.8272 45.2669 29.1623C45.2669 29.282 45.1951 29.5214 45.0035 29.5214C44.836 29.5214 44.7641 29.3539 44.405 29.3539C44.0938 29.3539 43.9741 29.4736 43.9741 29.6172C43.9741 30.0481 45.3387 29.9524 45.3387 31.0297C45.3387 31.6521 44.8838 31.9634 44.2614 31.9634C43.6868 31.9634 43.208 31.7 43.208 31.4127C43.208 31.2691 43.3277 31.0536 43.4953 31.0536C43.6868 31.0536 43.8305 31.3649 44.2375 31.3649C44.4529 31.3649 44.6684 31.293 44.6684 31.0776Z" fill="#010101"/>
</g>
<defs>
<clipPath id="clip0_2094_74539">
<rect width="45.1713" height="32" fill="white" transform="translate(0.485352)"/>
</clipPath>
</defs>
</svg>
