<svg width="30" height="32" viewBox="0 0 30 32" fill="none" xmlns="http://www.w3.org/2000/svg">
<g clipPath="url(#clip0_2094_73929)">
<path d="M13.4712 0.281132C14.4894 0.0609832 15.539 -0.0137106 16.5808 0.00594549C17.2648 0.049189 17.9567 0.0924326 18.6289 0.241819C18.6643 0.261475 18.6997 0.269338 18.743 0.261475C18.7744 0.265406 18.8373 0.277201 18.8648 0.281132C18.8963 0.30865 18.9317 0.320444 18.9749 0.316513C19.1125 0.324375 19.2422 0.363687 19.3759 0.399068C19.3955 0.406931 19.4348 0.422655 19.4545 0.430518C19.6707 0.458036 19.883 0.524867 20.0874 0.59563C20.1071 0.603492 20.1464 0.615286 20.1661 0.623148L20.2014 0.62708C20.2211 0.634942 20.2565 0.654598 20.2761 0.666392C20.3744 0.670323 20.4688 0.705704 20.5552 0.752879C20.5749 0.760741 20.6142 0.776466 20.6339 0.784328C20.7951 0.819709 20.9523 0.886541 21.1056 0.953371C21.1253 0.961234 21.1646 0.973027 21.1842 0.98089C21.255 1.00055 21.3258 1.02413 21.3847 1.06345C21.4044 1.07131 21.4398 1.09096 21.4594 1.09883C21.8958 1.27573 22.3243 1.48016 22.7292 1.71996C22.7449 1.73175 22.7803 1.75141 22.8 1.7632C23.0516 1.87721 23.2835 2.03839 23.5155 2.19171C23.5312 2.2035 23.5666 2.22316 23.5862 2.23495C23.7435 2.32144 23.885 2.43544 24.0265 2.54159C24.0422 2.55338 24.0776 2.57697 24.0934 2.59269C24.3882 2.78925 24.6673 3.01333 24.9307 3.25314C24.9464 3.26493 24.9779 3.28852 24.9975 3.30424C25.1823 3.44577 25.3356 3.62267 25.5165 3.77206C25.7602 3.98435 25.9646 4.23988 26.1887 4.47182C26.515 4.82956 26.8216 5.20696 27.1047 5.60008C27.1912 5.72195 27.2934 5.83988 27.3563 5.97748C27.3681 5.9932 27.3956 6.02465 27.4074 6.04038C27.4781 6.12686 27.541 6.22514 27.5921 6.33129C27.6039 6.34701 27.6315 6.37846 27.6432 6.39419C27.6904 6.45709 27.7258 6.52785 27.7533 6.59861C27.7651 6.61434 27.7887 6.64972 27.8005 6.66937C27.9735 6.91311 28.0875 7.19223 28.2369 7.45169C28.4727 7.92737 28.685 8.4109 28.8659 8.91017C28.8934 8.9888 28.9248 9.06742 28.9406 9.14998C28.9484 9.16963 28.9641 9.20894 28.972 9.2286C29.0664 9.48806 29.1568 9.75539 29.2079 10.0266C29.2039 10.0699 29.2157 10.1053 29.2433 10.1367L29.2511 10.1721C29.2472 10.2153 29.2551 10.2507 29.2826 10.2822C29.314 10.349 29.3258 10.4198 29.3258 10.4905C29.3179 10.5298 29.3297 10.5691 29.3573 10.5967C29.3612 10.6281 29.373 10.6871 29.3808 10.7185C29.3691 10.7578 29.3769 10.7972 29.4005 10.8325C29.5224 11.3121 29.5735 11.8114 29.6246 12.3028C29.6364 12.5033 29.6678 12.7038 29.6482 12.9043C29.5656 12.7942 29.4831 12.6802 29.4241 12.5544C29.4123 12.5387 29.3848 12.5072 29.373 12.4915C29.2275 12.295 29.086 12.0905 28.9484 11.89C28.9366 11.8743 28.9091 11.8429 28.8973 11.8232C28.516 11.3318 28.1111 10.8522 27.6904 10.3922C27.6786 10.3765 27.655 10.3411 27.6432 10.3254C27.486 10.2232 27.4349 10.0266 27.4074 9.84973C27.3995 9.83008 27.3838 9.79076 27.3759 9.77111C27.3366 9.69641 27.3052 9.61386 27.2894 9.5313C27.2816 9.51165 27.2698 9.47233 27.2619 9.45268C27.0654 8.97307 26.8609 8.49346 26.6329 8.02958C26.6211 8.01385 26.5975 7.97847 26.5897 7.95881C26.5189 7.84088 26.4482 7.72294 26.3931 7.59714C26.3813 7.57748 26.3617 7.5421 26.3499 7.52638C26.2752 7.42417 26.2044 7.31802 26.1572 7.20402C26.1454 7.18829 26.1219 7.15291 26.1101 7.13719C26.0314 7.0507 25.9725 6.95242 25.9292 6.84628C25.9174 6.83055 25.8899 6.7991 25.8742 6.78338C25.4968 6.26052 25.0919 5.76126 24.6477 5.29344C24.1877 4.8217 23.6806 4.39319 23.1577 3.99221C23.142 3.98041 23.1105 3.95289 23.0948 3.9411C22.9808 3.87427 22.8707 3.79565 22.7685 3.71702C22.7528 3.70523 22.7213 3.67771 22.7017 3.66592C22.5484 3.58729 22.4108 3.48115 22.2614 3.39859C22.1317 3.31604 21.9862 3.25707 21.8643 3.16272C21.8447 3.15486 21.8093 3.1352 21.7896 3.12341C21.5774 3.02119 21.369 2.91112 21.1607 2.79711C21.141 2.78925 21.1017 2.77746 21.082 2.7696C21.0584 2.7578 21.0152 2.74208 20.9955 2.73028C20.9759 2.72242 20.9405 2.70277 20.9208 2.69097C20.8501 2.68311 20.7833 2.64773 20.7204 2.60842C20.7007 2.60055 20.6653 2.5809 20.6457 2.57303C20.5317 2.54945 20.4255 2.50227 20.3233 2.45117C20.3036 2.4433 20.2643 2.42758 20.2486 2.41972C20.1543 2.40792 20.0638 2.36861 19.9774 2.3293C19.9577 2.32144 19.9184 2.30571 19.8987 2.30178C19.8004 2.28606 19.71 2.25461 19.6196 2.21922C19.6 2.21136 19.5606 2.19564 19.5449 2.18777C19.423 2.17205 19.3051 2.13667 19.195 2.09343C19.1754 2.08556 19.1361 2.07377 19.1164 2.06591C18.9788 2.05411 18.8491 2.0148 18.7194 1.97549C18.6879 1.9519 18.6525 1.94011 18.6093 1.94404C18.0589 1.85755 17.5085 1.75534 16.9542 1.72782C16.0776 1.66492 15.1931 1.70817 14.3243 1.84576C14.1356 1.86935 13.9508 1.92045 13.7582 1.93618C13.7188 1.93225 13.6795 1.94011 13.652 1.96763C13.6245 1.97549 13.5655 1.98728 13.538 1.99514C13.5184 1.99908 13.479 2.01087 13.4555 2.0148C13.3808 2.03839 13.2982 2.05804 13.2196 2.05804C13.1999 2.06591 13.1606 2.0777 13.141 2.08556C12.9169 2.15632 12.6928 2.23102 12.4648 2.28606C12.4255 2.28212 12.3901 2.29392 12.3586 2.32144C12.2289 2.38827 12.0835 2.42365 11.9498 2.48262C11.8083 2.53372 11.6746 2.61235 11.5252 2.6438C11.5056 2.65559 11.4702 2.67525 11.4545 2.68311C11.3326 2.78139 11.1635 2.73422 11.022 2.72242C10.1532 2.60448 9.28049 2.53372 8.40776 2.47475C8.4628 2.42758 8.52176 2.37254 8.59253 2.34895C8.60825 2.33716 8.6397 2.30964 8.65543 2.29785C8.74584 2.22709 8.84019 2.16026 8.94634 2.11308C8.96206 2.10129 8.99351 2.07377 9.00924 2.05804C9.08786 2.00301 9.17435 1.95583 9.26083 1.91652C9.27656 1.90473 9.31194 1.88114 9.3316 1.87328C9.91735 1.51947 10.5346 1.20104 11.1793 0.965164C11.1989 0.957301 11.2343 0.937645 11.254 0.929783C11.3247 0.886539 11.4073 0.855089 11.4898 0.843296C11.5095 0.835433 11.5449 0.815777 11.5645 0.807915C11.6038 0.788258 11.6471 0.772534 11.6943 0.764671C11.7139 0.756809 11.7493 0.737153 11.769 0.725359H11.8004C11.8201 0.717497 11.8594 0.701771 11.879 0.693909C11.9301 0.66639 11.9891 0.650666 12.0441 0.646734C12.0638 0.638872 12.1031 0.619216 12.1188 0.611353L12.1542 0.607422C12.1935 0.611354 12.2328 0.603491 12.2643 0.575972C12.3036 0.552385 12.3508 0.53666 12.398 0.532729C12.4373 0.53666 12.4766 0.524866 12.5041 0.497348C12.5237 0.493417 12.5591 0.485554 12.5788 0.481623C12.5984 0.477692 12.6378 0.461967 12.6613 0.458036C12.7871 0.410861 12.9208 0.37548 13.0584 0.367617C13.0781 0.359755 13.1174 0.34403 13.137 0.336168C13.2156 0.31258 13.2982 0.296855 13.3808 0.292924C13.4043 0.312581 13.4397 0.304719 13.4712 0.281132ZM3.6156 8.48953C3.8554 7.92736 4.107 7.36127 4.42936 6.84235C5.04657 6.90131 5.65984 6.96815 6.26918 7.06643C6.19055 7.18436 6.12372 7.31016 6.0451 7.4281C6.0333 7.44382 6.00578 7.47527 5.99399 7.491C5.94682 7.60894 5.87605 7.71508 5.81709 7.82515C5.63625 8.13965 5.49079 8.47381 5.32961 8.8001C5.32175 8.81975 5.3021 8.85513 5.29423 8.87479C5.2903 8.91803 5.27851 8.95735 5.25492 8.99666C5.24313 9.01631 5.2274 9.05169 5.21561 9.07135C5.18416 9.18143 5.14485 9.28757 5.09374 9.38978C5.08588 9.40944 5.07015 9.44482 5.06229 9.46447C4.9876 9.73573 4.87752 9.99912 4.80676 10.2704C4.75172 10.4473 4.72027 10.632 4.65737 10.809C4.62985 10.8404 4.61806 10.8758 4.62592 10.9151C4.55909 11.3751 4.44902 11.8311 4.41364 12.295C4.31929 13.1441 4.32715 14.0011 4.41757 14.8503C4.43722 15.0901 4.49619 15.3259 4.50799 15.5697C4.50012 15.609 4.51192 15.6483 4.5355 15.6797C4.59054 15.9313 4.64951 16.1829 4.70062 16.4385C4.69668 16.4778 4.70455 16.5132 4.73207 16.5446C4.77138 16.6508 4.80283 16.7608 4.82248 16.8709C4.81855 16.9102 4.83035 16.9495 4.85787 16.981L4.86573 17.0124C4.87359 17.0321 4.88538 17.0714 4.89325 17.091C4.91683 17.1422 4.93649 17.2011 4.94042 17.2601C4.94828 17.2797 4.96794 17.3151 4.97973 17.3348L4.98366 17.3702C4.99153 17.3898 5.00332 17.4291 5.00725 17.4488C5.11733 17.724 5.2274 18.0031 5.33747 18.2783C5.34534 18.2979 5.36499 18.3333 5.37286 18.353C5.44755 18.4827 5.50259 18.6203 5.56549 18.7579C5.64018 18.9151 5.74239 19.0606 5.80922 19.2218C5.81708 19.2414 5.83674 19.2768 5.84853 19.2965C6.23379 19.9687 6.67802 20.6056 7.17729 21.1952C7.18908 21.211 7.2166 21.2424 7.22839 21.2581C7.41709 21.4508 7.58614 21.6591 7.77877 21.8518C7.99498 22.0719 8.23086 22.2645 8.45101 22.4808C8.46673 22.4925 8.49818 22.5201 8.51391 22.5319C8.82447 22.7913 9.14683 23.0311 9.47312 23.267C9.48885 23.2788 9.5203 23.3063 9.53995 23.3181C9.64217 23.3653 9.74045 23.4321 9.83086 23.5029C9.84659 23.5147 9.88197 23.5343 9.90163 23.5461C10.0785 23.6444 10.2554 23.7466 10.4205 23.8567C10.4363 23.8685 10.4717 23.8921 10.4913 23.8999C10.5503 23.9117 10.6053 23.9432 10.6564 23.9786C10.6761 23.9903 10.7115 24.01 10.7272 24.0179C10.8648 24.0768 10.9945 24.1476 11.1242 24.2144C11.1439 24.2262 11.1793 24.2419 11.1989 24.2537C11.3876 24.3206 11.5724 24.4071 11.7532 24.4935C11.7729 24.5014 11.8083 24.5211 11.8279 24.5289C11.9105 24.5446 11.993 24.5722 12.0677 24.6154C12.0874 24.6233 12.1228 24.639 12.1424 24.6508C12.3154 24.694 12.4884 24.753 12.6535 24.8159C12.6731 24.8238 12.7125 24.8395 12.7321 24.8474C12.8422 24.8631 12.9523 24.8945 13.0545 24.9378C13.0859 24.9614 13.1213 24.9732 13.1606 24.9692C13.2864 24.981 13.4083 25.0125 13.5262 25.0557C13.5577 25.0793 13.593 25.0911 13.6363 25.0832C14.1473 25.1697 14.6545 25.268 15.1734 25.3034C16.1562 25.3977 17.1469 25.3427 18.1179 25.1854C18.3066 25.1579 18.4914 25.1029 18.6801 25.0872C18.7194 25.0911 18.7587 25.0832 18.7901 25.0557C18.8216 25.0518 18.8805 25.04 18.9081 25.0321C18.9277 25.0282 18.967 25.0164 18.9906 25.0125C19.0535 24.9889 19.1203 24.9692 19.1872 24.9653C19.2068 24.9574 19.2461 24.9456 19.2658 24.9378C19.8948 24.753 20.5199 24.5368 21.1135 24.2537C21.6324 24.0179 22.1277 23.7309 22.6113 23.4321C22.627 23.4203 22.6624 23.4007 22.682 23.3889C22.8 23.2788 22.9454 23.208 23.0752 23.1098C23.6059 22.7245 24.1051 22.296 24.569 21.8321C24.8049 21.8596 25.0447 21.84 25.2845 21.8478C25.886 21.8478 26.4717 21.6984 27.0418 21.5255C26.8609 21.8203 26.6211 22.0837 26.401 22.351C25.9292 22.8896 25.43 23.4007 24.8796 23.8567C24.8639 23.8685 24.8324 23.896 24.8128 23.9078C24.6516 24.065 24.4707 24.1987 24.286 24.3284C24.2703 24.3402 24.2388 24.3677 24.2231 24.3795C23.9047 24.6311 23.5587 24.8474 23.2167 25.0675C23.1184 25.1265 23.0241 25.1972 22.9179 25.2405C22.9022 25.2523 22.8668 25.2759 22.8472 25.2837C22.5405 25.4724 22.2103 25.6257 21.8879 25.783C21.7621 25.842 21.6403 25.9166 21.5027 25.9442C21.483 25.952 21.4476 25.9756 21.4319 25.9835C21.369 26.0228 21.3022 26.0464 21.2314 26.0621C21.2118 26.07 21.1764 26.0896 21.1567 26.0975C21.1174 26.1171 21.0742 26.1289 21.0349 26.1407C21.0152 26.1486 20.9798 26.1643 20.9602 26.1722C20.8855 26.2154 20.8029 26.2429 20.7164 26.2587C20.6968 26.2705 20.6614 26.2901 20.6417 26.298H20.6103C20.5906 26.3058 20.5513 26.3216 20.5317 26.3294C20.4806 26.3569 20.4216 26.3727 20.3666 26.3766C20.3469 26.3845 20.3076 26.4041 20.2919 26.412L20.2565 26.4159C20.2132 26.412 20.1779 26.4198 20.1464 26.4474C19.9695 26.526 19.7729 26.5771 19.5803 26.6085C19.541 26.6007 19.5056 26.6125 19.4742 26.64C19.3444 26.6872 19.2108 26.7225 19.0732 26.7304C19.0339 26.7225 18.9985 26.7304 18.967 26.7579C18.3341 26.9152 17.6855 26.9781 17.0368 27.0292C15.8142 27.1117 14.5798 27.0174 13.3808 26.7579C13.3493 26.7343 13.3139 26.7225 13.2707 26.7304C13.1331 26.7225 12.9994 26.6872 12.8697 26.64C12.8383 26.6125 12.8029 26.6046 12.7636 26.6085C12.6535 26.6007 12.5434 26.5692 12.4412 26.5299C12.4215 26.5221 12.3822 26.5063 12.3626 26.4985C12.3075 26.4945 12.2486 26.4788 12.2014 26.4513C12.1817 26.4434 12.1424 26.4277 12.1228 26.4198C12.1031 26.4198 12.0677 26.4159 12.0481 26.412C12.0284 26.4041 11.993 26.3845 11.9734 26.3727C11.8083 26.3373 11.651 26.2783 11.4977 26.2115C11.478 26.2036 11.4387 26.1879 11.423 26.18C11.1557 26.0896 10.8884 25.9874 10.6368 25.8537C10.6171 25.8459 10.5778 25.8341 10.5581 25.8262C10.4992 25.8105 10.4441 25.783 10.393 25.7476C10.3734 25.7358 10.338 25.7162 10.3223 25.7083C10.2633 25.6926 10.1965 25.6808 10.1532 25.6336C10.1375 25.6218 10.1021 25.6021 10.0825 25.5904C10.0235 25.5786 9.96846 25.5471 9.92128 25.5117C9.90163 25.5039 9.86625 25.4842 9.84659 25.4724C9.58713 25.3505 9.33946 25.1933 9.09179 25.0478C9.07607 25.0361 9.04462 25.0085 9.02889 24.9967C8.42349 24.639 7.86525 24.2026 7.32667 23.7466C6.97286 23.4478 6.65837 23.1058 6.32421 22.7835C6.27704 22.7363 6.22986 22.693 6.19448 22.638C6.18269 22.6223 6.1591 22.5869 6.14731 22.5712C6.07261 22.5122 6.01364 22.4414 5.95468 22.3707C5.21167 21.5058 4.57089 20.5545 4.07162 19.5323C3.95761 19.3004 3.83181 19.0763 3.75319 18.8286C3.7414 18.8129 3.72174 18.7736 3.70995 18.7579C3.69029 18.7186 3.6785 18.6753 3.67063 18.636C3.66277 18.6164 3.64312 18.581 3.63525 18.5613C3.58022 18.4591 3.5409 18.353 3.51732 18.239C3.50945 18.2193 3.49373 18.18 3.48587 18.1603C3.40331 17.9559 3.31682 17.7476 3.27751 17.5313C3.26965 17.5117 3.25392 17.4724 3.24606 17.4527C3.17923 17.2601 3.11633 17.0596 3.08488 16.8552C3.08881 16.8119 3.07702 16.7765 3.0495 16.7451C3.04557 16.7254 3.04164 16.6861 3.03771 16.6625C3.04557 16.6193 3.03771 16.5839 3.01019 16.5485C2.97874 16.4699 2.95908 16.3834 2.94336 16.3009C2.80183 15.5657 2.68783 14.8188 2.67997 14.0719C2.621 13.5923 2.67603 13.1087 2.69176 12.6252C2.73107 12.0276 2.80576 11.4301 2.93943 10.8483C2.96301 10.8168 2.97088 10.7775 2.96301 10.7382C2.96301 10.6674 2.97481 10.5927 3.00626 10.5298C3.03378 10.4984 3.04164 10.463 3.03771 10.4237C3.0495 10.235 3.11633 10.0502 3.17137 9.86939C3.17923 9.84973 3.19102 9.81042 3.19889 9.79076C3.23427 9.60206 3.29717 9.42123 3.364 9.24039C3.37186 9.22073 3.38759 9.18142 3.39545 9.16177C3.42297 9.0399 3.46621 8.91803 3.52518 8.80402C3.53304 8.78437 3.54877 8.74505 3.55663 8.7254C3.54877 8.63892 3.58808 8.56422 3.6156 8.48953Z" fill="#008655"/>
<path d="M3.76934 4.29457C4.13494 4.27885 4.50054 4.24347 4.86615 4.24347C5.55804 4.19629 6.25387 4.22774 6.9497 4.21988C7.89712 4.26312 8.84455 4.28671 9.78411 4.40858C9.85487 4.4243 9.92957 4.4361 10.0043 4.4361C10.2755 4.44789 10.5428 4.47541 10.8062 4.52652C10.8652 4.54224 10.9242 4.55404 10.9871 4.55404C11.2033 4.56583 11.4195 4.59335 11.6318 4.64445C11.679 4.66411 11.7261 4.6759 11.7733 4.67197C11.9659 4.67983 12.1546 4.71128 12.3394 4.76239C12.3709 4.78598 12.4102 4.79777 12.4495 4.78991C12.6264 4.79777 12.7994 4.82529 12.9684 4.8764C12.9999 4.89998 13.0352 4.91178 13.0785 4.90391C13.2397 4.91571 13.4008 4.94323 13.5542 4.99433C13.5738 5.00219 13.6131 5.01792 13.6328 5.02578C13.7822 5.03364 13.9316 5.06509 14.0691 5.1162C14.1006 5.13979 14.136 5.15158 14.1792 5.14372C14.3129 5.15551 14.4465 5.18696 14.5763 5.23414C14.5959 5.242 14.6352 5.25379 14.6549 5.25772C14.7257 5.26166 14.7925 5.27345 14.8554 5.30097C14.8829 5.32849 14.9183 5.34028 14.9615 5.34028C15.1266 5.35994 15.2878 5.41104 15.4451 5.46215C15.4647 5.47001 15.504 5.48574 15.5237 5.4936C15.5905 5.4936 15.6574 5.50932 15.7203 5.54077C15.7399 5.5447 15.7832 5.5565 15.8028 5.56043C15.8225 5.56436 15.8579 5.57615 15.8736 5.58009C15.8932 5.58795 15.9325 5.60367 15.9522 5.61154C16.0623 5.62726 16.1684 5.65871 16.2706 5.69802C16.2903 5.70588 16.3296 5.72161 16.3493 5.72947C16.5222 5.77272 16.6991 5.81989 16.8642 5.89065C16.8839 5.89851 16.9232 5.91424 16.9429 5.9221C17.0765 5.95355 17.2063 6.00073 17.3321 6.05576C17.3517 6.06363 17.391 6.07542 17.4107 6.08328C17.4932 6.09508 17.5758 6.12653 17.6505 6.16584C17.6701 6.1737 17.7095 6.18943 17.7252 6.19729C17.8785 6.23267 18.024 6.29164 18.1655 6.35847C18.1851 6.36633 18.2245 6.38206 18.2441 6.38992L18.2756 6.39385C18.2952 6.40171 18.3306 6.42137 18.3503 6.43316C18.4328 6.44496 18.5154 6.48034 18.5901 6.52358C18.6097 6.53144 18.649 6.54324 18.6687 6.5511C18.6923 6.56289 18.7355 6.58255 18.7591 6.59041C18.7788 6.59827 18.8181 6.61793 18.8338 6.62579L18.8652 6.62972C18.8849 6.64152 18.9203 6.66117 18.9399 6.66904C19.0382 6.69262 19.1365 6.73587 19.223 6.78697C19.2426 6.79483 19.278 6.81449 19.2977 6.82235C20.4613 7.31376 21.5778 7.9113 22.6471 8.58747C22.6628 8.59927 22.6943 8.62679 22.71 8.63858C22.9341 8.76045 23.1503 8.90197 23.3508 9.05922C23.3665 9.07101 23.4019 9.0946 23.4176 9.1064C23.8186 9.36586 24.1999 9.6607 24.5694 9.9634C24.5852 9.9752 24.6166 10.0027 24.6323 10.0145C24.711 10.0656 24.7857 10.1246 24.8446 10.1953C24.8604 10.2071 24.8918 10.2347 24.9075 10.2465C25.3203 10.5767 25.7016 10.9462 26.0712 11.3236C26.3975 11.642 26.708 11.9723 26.9911 12.33C27.0029 12.3457 27.0304 12.3772 27.0422 12.3968C27.4353 12.8411 27.7695 13.3325 28.0918 13.8239C28.308 14.1541 28.4928 14.5079 28.6107 14.8853C28.6225 14.905 28.6383 14.9403 28.6501 14.96V14.9914C28.6579 15.0111 28.6736 15.0504 28.6815 15.0701C28.7051 15.1212 28.7248 15.1762 28.7287 15.2312C28.7365 15.2509 28.7523 15.2863 28.7641 15.3059C28.8309 15.5064 28.8663 15.7148 28.8977 15.9231C28.9095 16.1669 28.9056 16.4145 28.8977 16.6583C28.8623 16.9177 28.8152 17.1811 28.7287 17.4327C28.7208 17.4524 28.7051 17.4878 28.6933 17.5074C28.4181 18.3487 27.797 19.0603 27.0422 19.5123C26.94 19.5674 26.8417 19.6421 26.7238 19.6657C26.7041 19.6775 26.6687 19.6932 26.6491 19.705C26.5783 19.7561 26.4918 19.7797 26.4093 19.7875C26.3896 19.7993 26.3542 19.819 26.3346 19.8268L26.2992 19.8308C26.2795 19.8386 26.2402 19.8544 26.2206 19.8583C26.1655 19.8819 26.1066 19.8937 26.0476 19.8976C26.0083 19.8937 25.9729 19.9015 25.9414 19.9291C25.737 19.992 25.5247 20.0038 25.3124 20.0155H12.021C11.5374 20.0116 11.0539 20.0273 10.5704 20.0077C10.5704 19.992 10.5743 19.9566 10.5743 19.9369C10.5664 19.9173 10.5468 19.8819 10.5389 19.8622C10.4603 19.6971 10.3934 19.5202 10.3345 19.3472C10.3266 19.3276 10.3109 19.2883 10.303 19.2725C10.1143 18.8008 9.91777 18.333 9.74479 17.8573C9.73693 17.8376 9.71728 17.8023 9.70941 17.7826C9.68976 17.7433 9.67796 17.704 9.6701 17.6607C9.66224 17.6411 9.64258 17.6057 9.63079 17.59C9.6072 17.5389 9.59148 17.4799 9.57575 17.4288C11.6239 17.4131 13.6721 17.4249 15.7163 17.4209H23.736C23.9208 17.4288 24.1056 17.4209 24.2864 17.3974C24.3061 17.3895 24.3454 17.3777 24.365 17.3698C24.4869 17.3148 24.6048 17.2598 24.7267 17.2087C24.7424 17.1969 24.7778 17.1733 24.7975 17.1615C24.825 17.13 24.8525 17.1064 24.8879 17.0868C24.9036 17.075 24.939 17.0514 24.9586 17.0435C25.0373 16.9492 25.1159 16.8548 25.2024 16.7684C25.2142 16.7487 25.2338 16.7133 25.2456 16.6976C25.2692 16.6308 25.3007 16.5679 25.3242 16.501C25.4029 16.2927 25.3832 16.0607 25.3282 15.8484C25.2928 15.7069 25.2299 15.5733 25.1984 15.4278C25.1906 15.4081 25.1788 15.3688 25.1709 15.3492C24.9783 14.8853 24.6874 14.4686 24.424 14.044C24.4122 14.0283 24.3847 13.9968 24.3729 13.9811C24.1606 13.6823 23.9365 13.3954 23.7203 13.1005C23.7085 13.0848 23.681 13.0533 23.6692 13.0376C23.5591 12.9197 23.4608 12.7978 23.3665 12.672C23.3547 12.6563 23.3272 12.6248 23.3154 12.6091C22.997 12.2986 22.7257 11.9408 22.3837 11.6538C22.2304 11.4926 22.0456 11.359 21.8962 11.1939C21.8805 11.1821 21.849 11.1546 21.8294 11.1428C21.2829 10.6907 20.7326 10.2386 20.139 9.84547C19.7065 9.5349 19.2426 9.26757 18.7945 8.98453C18.7748 8.97273 18.7394 8.95701 18.7198 8.94521C18.5311 8.843 18.3463 8.73686 18.1615 8.63465C18.1458 8.62285 18.1104 8.6032 18.0908 8.5914C17.8077 8.45774 17.5286 8.31622 17.2574 8.15897C17.2377 8.15111 17.1984 8.13538 17.1787 8.12752C17.0294 8.07248 16.8878 7.99779 16.7463 7.9231C16.7266 7.91523 16.6913 7.89558 16.6716 7.88771C16.306 7.72653 15.9365 7.56928 15.5669 7.41204C15.5473 7.40417 15.5119 7.38452 15.4922 7.37666C15.449 7.36879 15.4058 7.357 15.3664 7.33734C15.3468 7.32555 15.3114 7.30982 15.2918 7.29803C15.2485 7.2941 15.2053 7.27837 15.166 7.25872C15.1463 7.24692 15.1109 7.22727 15.0913 7.21941C14.9026 7.1683 14.7178 7.08968 14.537 7.01498C14.5173 7.00712 14.478 6.99533 14.4583 6.98746L14.4269 6.97567C14.4072 6.96781 14.3679 6.95208 14.3483 6.94422L14.3129 6.94029C14.2932 6.93243 14.2578 6.91277 14.2382 6.90491C14.1124 6.87739 13.9944 6.83022 13.8765 6.77911C13.8569 6.77125 13.8175 6.75945 13.7979 6.75159C13.6524 6.72014 13.507 6.67297 13.3655 6.61793C13.3458 6.61007 13.3065 6.59827 13.2868 6.59041C13.1885 6.57469 13.0981 6.54324 13.0077 6.50785C12.9881 6.49999 12.9487 6.48427 12.9291 6.4764C12.6775 6.42137 12.4298 6.33881 12.1822 6.26412C12.1625 6.25626 12.1232 6.24446 12.1035 6.2366C12.0367 6.23267 11.9659 6.21301 11.903 6.18943C11.8834 6.18156 11.8441 6.16977 11.8244 6.16191C11.7025 6.15011 11.5807 6.11866 11.4667 6.07149C11.4352 6.04397 11.3959 6.03611 11.3566 6.04004C11.3369 6.04004 11.2976 6.03611 11.278 6.03218C11.2583 6.02431 11.219 6.00859 11.1993 6.00073C11.1168 6.00073 11.0342 5.985 10.9595 5.95748C10.9399 5.94962 10.9006 5.9339 10.8848 5.92603C10.7355 5.91424 10.5939 5.87886 10.4524 5.83562C10.4328 5.83168 10.3934 5.81989 10.3699 5.81596C10.2087 5.7963 10.0475 5.76878 9.89811 5.71768C9.86666 5.69409 9.82735 5.6823 9.78804 5.69016C9.62292 5.67837 9.46174 5.65085 9.30449 5.60367C9.26125 5.58402 9.21014 5.57222 9.16297 5.57222C8.97427 5.5565 8.78164 5.52898 8.59687 5.47787C8.55363 5.45822 8.50645 5.44642 8.45535 5.45035C8.25093 5.44642 8.05043 5.40318 7.84994 5.35994C7.79097 5.34028 7.732 5.33242 7.6691 5.33242C7.41357 5.31669 7.15804 5.28524 6.90645 5.23807C6.84748 5.22235 6.78458 5.21055 6.72561 5.21448C6.39932 5.19876 6.07696 5.16338 5.75067 5.12799C5.27892 5.07689 4.80717 5.04544 4.33149 5.04151C4.07203 5.01399 3.80864 5.04151 3.54918 5.01006C3.28186 4.97861 3.01453 4.99433 2.74328 4.99433C2.38947 4.99826 2.03959 4.98647 1.68578 4.99826C1.38307 5.02971 1.07644 5.01792 0.773734 5.03365C0.69511 5.04544 0.628279 5.0022 0.573242 4.94716C0.585036 4.84888 0.585036 4.75453 0.585036 4.65625C0.620417 4.6759 0.659729 4.6759 0.69511 4.64445C0.915259 4.58942 1.1472 4.5619 1.37521 4.5501C1.42632 4.55404 1.47349 4.54224 1.52067 4.52259C1.78406 4.47148 2.05531 4.44396 2.32657 4.43217C2.41306 4.43217 2.49954 4.42037 2.58603 4.40072C2.97523 4.33782 3.37228 4.33389 3.76934 4.29457ZM7.66518 12.6563C12.0249 12.6484 16.3807 12.6563 20.7404 12.6524C20.7915 12.7192 20.8505 12.7821 20.8977 12.8529C20.9095 12.8686 20.937 12.9 20.9488 12.9197C21.0864 13.073 21.22 13.2342 21.3301 13.4072C21.3419 13.4229 21.3694 13.4543 21.3812 13.474C21.4677 13.5723 21.5463 13.6823 21.6092 13.7963C21.621 13.8121 21.6446 13.8475 21.6564 13.8632C21.7311 13.9497 21.794 14.0479 21.849 14.1502C21.8608 14.1698 21.8805 14.2052 21.8923 14.2209C22.1164 14.5354 22.2775 14.8892 22.4662 15.2273C18.1222 15.2194 13.7782 15.2273 9.4303 15.2234C9.18656 15.2312 8.9389 15.2116 8.69516 15.2312C8.66371 15.1566 8.62833 15.0819 8.6126 15.0032C8.60474 14.9836 8.58902 14.9482 8.58115 14.9285C8.50253 14.7634 8.4357 14.5865 8.37673 14.4136C8.36887 14.3939 8.35314 14.3546 8.34921 14.3349C8.10941 13.7767 7.89319 13.2145 7.66518 12.6563Z" fill="#0956A4"/>
<path d="M1.7793 31.4513V29.5801H2.40043V30.9639H2.99405V29.5801H3.61518V31.4513H1.7793ZM3.28103 31.8169V31.3137L3.41076 31.4513H2.99405V30.9639L3.85891 30.9639V31.8209H3.28103V31.8169Z" fill="#4B494A"/>
<path d="M4.83377 31.4784C4.65687 31.4784 4.49962 31.4469 4.36595 31.3801C4.23229 31.3133 4.13008 31.2228 4.05539 31.1088C3.98069 30.9948 3.94531 30.8651 3.94531 30.7196C3.94531 30.5703 3.98069 30.4405 4.05539 30.3265C4.12615 30.2125 4.22836 30.1221 4.35023 30.0592C4.4721 29.9963 4.61755 29.9648 4.7748 29.9648C4.92026 29.9648 5.05392 29.9924 5.17579 30.0513C5.29765 30.1103 5.39593 30.1929 5.47063 30.3069C5.54532 30.4209 5.5807 30.5585 5.5807 30.7236C5.5807 30.7432 5.5807 30.7668 5.57677 30.7943C5.57677 30.8219 5.57284 30.8454 5.57284 30.8651H4.45244V30.5742H5.25441L5.0264 30.6528C5.0264 30.5938 5.01461 30.5467 4.99495 30.5074C4.97529 30.468 4.94778 30.4366 4.91239 30.413C4.87701 30.3894 4.83377 30.3776 4.78266 30.3776C4.73156 30.3776 4.68831 30.3894 4.65293 30.413C4.61755 30.4366 4.59003 30.468 4.57038 30.5074C4.55072 30.5467 4.54286 30.5978 4.54286 30.6528V30.7432C4.54286 30.8061 4.55465 30.8572 4.58217 30.9044C4.60576 30.9476 4.64114 30.983 4.68831 31.0027C4.73549 31.0263 4.79053 31.0381 4.85736 31.0381C4.92419 31.0381 4.97922 31.0302 5.0264 31.0105C5.06964 30.9909 5.11682 30.9673 5.16399 30.9319L5.47849 31.2504C5.40773 31.325 5.32124 31.384 5.2151 31.4273C5.10502 31.4587 4.98316 31.4784 4.83377 31.4784Z" fill="#4B494A"/>
<path d="M5.80078 31.4507V29.9883H6.40226V30.5033H6.81504V29.9883H7.41651V31.4507H6.81504V30.975H6.40226V31.4507H5.80078Z" fill="#4B494A"/>
<path d="M8.0341 31.4507V30.3303L8.16383 30.46H7.58594V29.9883H9.0798V30.46H8.50191L8.63164 30.3303V31.4507H8.0341Z" fill="#4B494A"/>
<path d="M9.25684 31.9698V29.9884H9.8308V30.185L9.83473 30.7196L9.86225 31.2543V31.9698L9.25684 31.9698ZM10.2318 31.4784C10.106 31.4784 9.99984 31.4508 9.91728 31.3958C9.83473 31.3408 9.77183 31.2582 9.73251 31.1481C9.6932 31.0381 9.67355 30.8965 9.67355 30.7236C9.67355 30.5467 9.6932 30.4051 9.72858 30.2911C9.76396 30.1811 9.82293 30.0985 9.90549 30.0435C9.98804 29.9884 10.0942 29.9648 10.2278 29.9648C10.3576 29.9648 10.4755 29.9963 10.5817 30.0553C10.6878 30.1182 10.7743 30.2046 10.8372 30.3187C10.9001 30.4327 10.9315 30.5663 10.9315 30.7236C10.9315 30.8808 10.9001 31.0145 10.8372 31.1285C10.7743 31.2425 10.6878 31.329 10.5817 31.3879C10.4794 31.4469 10.3615 31.4784 10.2318 31.4784ZM10.0903 31.0066C10.1335 31.0066 10.1767 30.9948 10.2121 30.9752C10.2475 30.9555 10.275 30.9201 10.2986 30.8808C10.3222 30.8415 10.3301 30.7865 10.3301 30.7236C10.3301 30.6607 10.3183 30.6056 10.2986 30.5624C10.279 30.5191 10.2475 30.4877 10.2121 30.468C10.1767 30.4484 10.1374 30.4366 10.0903 30.4366C10.047 30.4366 10.0038 30.4484 9.96839 30.468C9.93301 30.4877 9.90549 30.5231 9.8819 30.5624C9.86224 30.6056 9.85045 30.6567 9.85045 30.7236C9.85045 30.7865 9.86224 30.8376 9.8819 30.8808C9.90156 30.9241 9.93301 30.9555 9.96839 30.9752C10.0038 30.9948 10.0431 31.0066 10.0903 31.0066Z" fill="#4B494A"/>
<path d="M11.5367 31.4784C11.4187 31.4784 11.3165 31.4587 11.2379 31.4155C11.1593 31.3762 11.0964 31.3211 11.057 31.2504C11.0177 31.1835 10.9941 31.1049 10.9941 31.0223C10.9941 30.928 11.0177 30.8494 11.0649 30.7825C11.1121 30.7157 11.1868 30.6685 11.2851 30.6332C11.3833 30.5978 11.5091 30.582 11.6624 30.582H11.9691V30.873H11.7607C11.6978 30.873 11.6507 30.8848 11.6192 30.9044C11.5917 30.9241 11.576 30.9555 11.576 30.9948C11.576 31.0302 11.5878 31.0577 11.6153 31.0774C11.6428 31.101 11.6782 31.1088 11.7214 31.1088C11.7607 31.1088 11.8 31.097 11.8354 31.0774C11.8708 31.0538 11.8944 31.0184 11.9101 30.9712L11.9887 31.1521C11.9652 31.2621 11.918 31.3408 11.8433 31.3958C11.7607 31.4508 11.6624 31.4784 11.5367 31.4784ZM11.9494 31.4508V31.1914L11.9062 31.1206V30.6292C11.9062 30.5585 11.8826 30.5034 11.8394 30.468C11.7961 30.4287 11.7253 30.413 11.6271 30.413C11.5602 30.413 11.4934 30.4248 11.4266 30.4444C11.3597 30.4641 11.3008 30.4916 11.2536 30.527L11.061 30.13C11.1475 30.0749 11.2497 30.0356 11.3676 30.0081C11.4855 29.9806 11.6035 29.9648 11.7175 29.9648C11.9691 29.9648 12.1617 30.0199 12.3032 30.1339C12.4408 30.2479 12.5116 30.4248 12.5116 30.6685V31.4548H11.9494V31.4508Z" fill="#4B494A"/>
<path d="M12.6455 31.4507L12.6691 30.9632C12.6809 30.9632 12.6888 30.9672 12.7005 30.9672H12.7281C12.7674 30.9672 12.7988 30.9593 12.8224 30.9436C12.846 30.9278 12.8657 30.9043 12.8775 30.8767C12.8892 30.8492 12.901 30.8099 12.905 30.7706C12.9089 30.7313 12.9128 30.6802 12.9168 30.6251L12.9364 29.9883H14.332V31.4507H13.7266V30.3342L13.8563 30.46H13.3335L13.4553 30.3264L13.4435 30.6487C13.4396 30.7824 13.4278 30.9003 13.4082 31.0025C13.3885 31.1087 13.361 31.1952 13.3256 31.2659C13.2863 31.3367 13.2352 31.3917 13.1723 31.431C13.1055 31.4704 13.0229 31.49 12.9246 31.49C12.8853 31.49 12.8421 31.4861 12.7949 31.4782C12.7477 31.4743 12.6966 31.4625 12.6455 31.4507Z" fill="#4B494A"/>
<path d="M15.543 30.4286C15.7396 30.4286 15.889 30.4718 15.9951 30.5583C16.1012 30.6448 16.1523 30.7667 16.1523 30.92C16.1523 31.0851 16.0894 31.2148 15.9676 31.3092C15.8457 31.4035 15.6767 31.4507 15.4644 31.4507H14.6152V29.9883H15.2167V30.4286H15.543ZM15.4054 31.0458C15.4447 31.0458 15.4801 31.034 15.4998 31.0143C15.5233 30.9947 15.5351 30.9593 15.5351 30.9121C15.5351 30.8649 15.5233 30.8335 15.4998 30.8138C15.4762 30.7942 15.4447 30.7863 15.4054 30.7863H15.2167V31.0497H15.4054V31.0458Z" fill="#4B494A"/>
<path d="M16.3252 31.4507V29.9883H16.9267V30.5033H17.3395V29.9883H17.9409V31.4507H17.3395V30.975H16.9267V31.4507H16.3252Z" fill="#4B494A"/>
<path d="M18.6607 31.4784C18.5427 31.4784 18.4405 31.4587 18.3619 31.4155C18.2833 31.3762 18.2204 31.3211 18.1811 31.2504C18.1418 31.1835 18.1182 31.1049 18.1182 31.0223C18.1182 30.928 18.1418 30.8494 18.1889 30.7825C18.2361 30.7157 18.3108 30.6685 18.4091 30.6332C18.5074 30.5978 18.6332 30.582 18.7865 30.582H19.0931V30.873H18.8848C18.8219 30.873 18.7747 30.8848 18.7432 30.9044C18.7157 30.9241 18.7 30.9555 18.7 30.9948C18.7 31.0302 18.7118 31.0577 18.7393 31.0774C18.7668 31.101 18.8022 31.1088 18.8454 31.1088C18.8848 31.1088 18.9241 31.097 18.9594 31.0774C18.9948 31.0538 19.0184 31.0184 19.0341 30.9712L19.1128 31.1521C19.0892 31.2621 19.042 31.3408 18.9673 31.3958C18.8887 31.4508 18.7904 31.4784 18.6607 31.4784ZM19.0774 31.4508V31.1914L19.0341 31.1206V30.6292C19.0341 30.5585 19.0106 30.5034 18.9673 30.468C18.9241 30.4287 18.8533 30.413 18.755 30.413C18.6882 30.413 18.6214 30.4248 18.5545 30.4444C18.4877 30.4641 18.4287 30.4916 18.3816 30.527L18.1889 30.13C18.2754 30.0749 18.3776 30.0356 18.4956 30.0081C18.6135 29.9806 18.7314 29.9648 18.8454 29.9648C19.097 29.9648 19.2897 30.0199 19.4312 30.1339C19.5688 30.2479 19.6395 30.4248 19.6395 30.6685V31.4548H19.0774V31.4508Z" fill="#4B494A"/>
<path d="M19.7725 31.4507L20.1538 30.8964H20.7631L20.4093 31.4507H19.7725ZM20.7985 31.4507V30.9908L20.8732 31.0773H20.5391C20.311 31.0773 20.1341 31.0301 20.0005 30.9397C19.8668 30.8492 19.8039 30.7195 19.8039 30.5505C19.8039 30.3736 19.8707 30.232 20.0083 30.1338C20.1459 30.0355 20.3307 29.9844 20.5626 29.9844H21.3332V31.4507H20.7985ZM20.7985 30.8099V30.3107L20.8732 30.4561H20.5784C20.5273 30.4561 20.4919 30.464 20.4644 30.4836C20.4368 30.5033 20.425 30.5308 20.425 30.5741C20.425 30.6605 20.4762 30.7038 20.5784 30.7038H20.8732L20.7985 30.8099Z" fill="#4B494A"/>
<path d="M22.4424 31.4513V29.5801H24.2507V31.4513H23.6296V29.9339L23.7672 30.0676H22.9259L23.0635 29.9339V31.4513H22.4424Z" fill="#4B494A"/>
<path d="M24.585 31.4513V29.5801H26.3933V31.4513H25.7722V29.9339L25.9098 30.0676H25.0685L25.2061 29.9339V31.4513H24.585Z" fill="#4B494A"/>
<path d="M26.707 31.4513V29.5801H27.336V31.4513H26.707ZM27.1552 30.7752V30.2798H27.8628V30.7752H27.1552ZM27.9729 30.5825L27.3911 30.5236L27.9296 29.5801H28.5862L27.9729 30.5825ZM27.8746 31.4513L27.4107 30.5747L27.9139 30.2798L28.5862 31.4513H27.8746Z" fill="#4B494A"/>
</g>
<defs>
<clipPath id="clip0_2094_73929">
<rect width="29.1101" height="32" fill="white" transform="translate(0.570312)"/>
</clipPath>
</defs>
</svg>
