<svg width="90" height="32" viewBox="0 0 90 32" fill="none" xmlns="http://www.w3.org/2000/svg">
<g clipPath="url(#clip0_2094_74656)">
<path d="M79.2244 15.5064V23.5879C79.2244 24.192 79.1572 24.7826 78.9827 25.3733C78.5532 26.7292 77.5061 27.548 76.0831 27.642C75.5193 27.6823 74.9689 27.6286 74.4319 27.4272C74.3782 27.4004 74.3111 27.4004 74.2171 27.3735V31.8841H68.8205V25.6955C68.7534 25.7492 68.7266 25.7492 68.6997 25.776C68.0151 26.7023 67.0754 27.2259 65.9746 27.4809C64.659 27.7763 63.3569 27.7628 62.0681 27.3467C60.6854 26.9037 59.692 26.0445 59.2356 24.635C59.2222 24.5947 59.1953 24.5544 59.1685 24.5007C59.1282 24.5679 59.0879 24.6215 59.0745 24.6887C58.5375 26.1116 57.5173 27.0379 56.0943 27.5212C54.3089 28.1253 52.4966 28.1119 50.7246 27.4541C49.3956 26.9708 48.4559 26.0579 47.9458 24.7155C47.9323 24.6618 47.9055 24.6216 47.8786 24.5679C47.8652 24.5544 47.8518 24.541 47.8115 24.5276C47.7847 24.5813 47.7712 24.6215 47.7578 24.6752C47.3417 25.9103 46.4959 26.7157 45.3146 27.2124C44.536 27.5346 43.7305 27.6689 42.8982 27.6823C42.0793 27.6957 41.2739 27.6017 40.4953 27.3333C39.918 27.1319 39.3945 26.85 38.9381 26.4607C38.8844 26.407 38.8172 26.3667 38.7367 26.2996C38.6562 26.6755 38.7367 27.0379 38.683 27.4272C38.6025 27.4406 38.5219 27.4541 38.4414 27.4541C37.5285 27.4541 36.6157 27.4675 35.7028 27.4541C34.0516 27.4272 32.83 26.4741 32.3602 24.89C32.3199 24.7692 32.293 24.6484 32.1991 24.4605C32.1856 24.5007 32.1722 24.541 32.1722 24.5813C31.7024 26.1251 30.615 27.0111 29.1115 27.4272C27.5811 27.8434 26.0507 27.8165 24.5606 27.2124C23.2182 26.662 22.3188 25.6821 22.0235 24.2322C21.9563 23.9101 21.9295 23.5744 21.9295 23.2388C21.9161 20.9567 21.9295 18.688 21.9295 16.4059V15.9226H21.8624C21.3254 19.7619 20.7884 23.6013 20.2514 27.4406H14.2508C13.5527 22.1649 12.8681 16.8891 12.1834 11.6268C11.9418 11.5597 8.90791 11.5329 8.47833 11.6134C8.55888 11.7208 8.626 11.8148 8.69312 11.8953C9.40461 12.7947 10.1161 13.6942 10.8142 14.6204C11.284 15.238 11.7002 15.8958 12.0358 16.5938C12.358 17.265 12.5325 17.9497 12.519 18.7014C12.4922 20.0707 12.5056 21.4534 12.5056 22.8227C12.5056 23.4939 12.3982 24.1517 12.1566 24.7826C11.6465 26.0848 10.7202 26.9708 9.44488 27.4541C7.59233 28.1521 5.6995 28.179 3.83353 27.4675C1.99439 26.7292 0.987565 25.3599 0.759352 23.4268C0.732504 23.1852 0.719079 22.9301 0.719079 22.6884V15.9897H4.53158C4.57185 15.8286 4.46446 15.7749 4.39734 15.6944C3.91406 15.0903 3.40394 14.4996 2.92066 13.8955C2.42396 13.278 1.96754 12.6202 1.59166 11.9222C1.00099 10.8751 0.678807 9.74743 0.705655 8.51239C0.732504 7.4116 0.705655 6.32423 0.705655 5.22344C0.705655 4.49853 0.826474 3.78704 1.10838 3.11582C1.65878 1.82709 2.62533 0.967937 3.94091 0.511511C5.71292 -0.106007 7.51177 -0.0925831 9.28378 0.538359C11.2572 1.24985 12.4251 2.90104 12.4788 5.00865V5.45165H16.788C16.9625 6.90147 17.137 8.33788 17.2981 9.76085H17.3652C17.5263 8.33788 17.7008 6.9149 17.8619 5.4785H23.2585C23.2182 5.81411 23.1779 6.14971 23.1377 6.55244C23.6344 6.14971 24.1042 5.84096 24.6278 5.63959C25.1647 5.43823 25.7151 5.30398 26.2789 5.25029C26.8562 5.18317 27.4334 5.19659 28.0107 5.26371C28.5745 5.33083 29.1249 5.46507 29.6619 5.69329C30.1988 5.90808 30.6687 6.23026 31.0983 6.63299C31.2057 6.43163 31.1385 6.24368 31.152 6.06917C31.1654 5.89465 31.152 5.70671 31.152 5.49192H32.1319C32.1454 4.87441 32.1319 4.28374 32.1319 3.69307V1.90764H37.5419C37.5419 2.29694 37.5554 2.68625 37.5554 3.08897V5.4785H38.6427V6.65984C38.7367 6.59272 38.8038 6.56587 38.8575 6.52559C39.6898 5.78726 40.6832 5.4248 41.784 5.29056C42.7506 5.16974 43.7171 5.22344 44.6568 5.49192C45.865 5.84096 46.8315 6.48532 47.4491 7.61296C47.4625 7.63981 47.4893 7.66666 47.543 7.72036C47.5564 7.61296 47.5699 7.53242 47.5699 7.46529V5.23686C47.5699 4.71331 47.637 4.18977 47.7981 3.67964C48.2679 2.109 49.315 1.10218 50.832 0.538359C51.7046 0.216176 52.6174 0.10878 53.5571 0.122204C54.47 0.135629 55.3694 0.256448 56.242 0.592055C58.1482 1.33039 59.3027 2.94131 59.3564 4.9818C59.3833 5.76041 59.3698 6.5256 59.3698 7.3042V7.70693C59.437 7.63981 59.4772 7.61296 59.4907 7.58611C60.1216 6.43163 61.115 5.78726 62.35 5.46508C63.7059 5.11604 65.0752 5.12947 66.4176 5.57247C67.317 5.8678 68.0822 6.3645 68.646 7.12969C68.6729 7.15654 68.6997 7.18338 68.7803 7.26393V5.50535C68.9011 5.49192 68.9816 5.4785 69.0622 5.4785H73.9218C74.244 5.61274 74.5393 5.43823 74.8346 5.37111C75.8414 5.11604 76.808 5.18316 77.7208 5.74698C77.7611 5.77383 77.8014 5.77383 77.8551 5.80068C77.8551 5.73356 77.8685 5.67986 77.8685 5.62617C77.8685 5.58589 77.8685 5.54562 77.8819 5.49192H83.2651C83.4127 6.83435 83.5738 8.17678 83.7215 9.50579H83.7752C83.9229 8.17678 84.0705 6.84778 84.2316 5.49192H89.6282C89.6282 5.55905 89.6416 5.61274 89.6282 5.66644C89.4537 6.9149 89.2657 8.17679 89.0912 9.42525C88.8899 10.8751 88.6751 12.3115 88.4737 13.7613C88.2455 15.3588 88.0173 16.9428 87.7891 18.5403C87.5877 19.9767 87.3864 21.4131 87.185 22.8495C86.9165 24.7558 86.6346 26.6755 86.3393 28.5817C86.2721 29.0381 86.1379 29.4811 85.9902 29.9107C85.6143 30.9578 84.8492 31.5485 83.7752 31.7364C83.3725 31.8035 82.9698 31.8572 82.5536 31.8572C81.3052 31.8572 80.0567 31.8304 78.8217 31.817C78.7948 31.817 78.7545 31.8035 78.7277 31.8035C78.6471 31.5753 78.6337 27.5615 78.7143 27.1856H80.8219C80.9293 26.9708 80.889 26.7829 80.8487 26.5949C80.7279 25.7895 80.5937 24.984 80.4863 24.1785C80.3386 23.1315 80.1909 22.0978 80.0433 21.0507C79.8419 19.6009 79.6405 18.1645 79.4258 16.7146C79.3721 16.2985 79.3049 15.8958 79.2512 15.4796C79.2646 15.5065 79.2378 15.5064 79.2244 15.5064ZM1.7259 17.01V22.5274C1.7259 22.7153 1.7259 22.9167 1.73933 23.1046C1.86014 24.7289 2.63875 25.87 4.16912 26.4875C4.28994 26.5412 4.41076 26.5815 4.53158 26.6218C5.5384 26.9305 6.57207 26.9842 7.61917 26.85C8.31723 26.7694 8.98845 26.5815 9.60596 26.2325C10.5188 25.7223 11.1095 24.9572 11.3377 23.9503C11.4317 23.561 11.4719 23.1449 11.4719 22.7421C11.4854 21.3326 11.4719 19.923 11.4854 18.5269C11.4854 18.0973 11.4048 17.6946 11.2303 17.3053C10.9752 16.7146 10.6531 16.1508 10.2772 15.6273C9.75363 14.9024 9.20323 14.1774 8.65284 13.466C7.86081 12.4323 7.05535 11.4255 6.26331 10.3918C6.02168 10.0696 5.83374 9.70715 5.6458 9.34469C5.55183 9.17018 5.48471 8.95539 5.48471 8.76745C5.47128 7.61296 5.45786 6.44505 5.48471 5.29056C5.51155 4.3777 5.94113 4.0421 6.84056 4.13607C7.29699 4.18976 7.55205 4.3777 7.64602 4.83413C7.71314 5.11604 7.72656 5.41138 7.72656 5.69329C7.73999 7.18338 7.72656 8.67348 7.72656 10.177V10.5663H11.4451C11.4585 10.4723 11.4719 10.4321 11.4719 10.3918C11.4719 8.59293 11.5122 6.78065 11.4585 4.9818C11.4048 3.34403 10.5859 2.18954 9.05557 1.57203C8.38435 1.26327 7.68629 1.14245 6.98823 1.1156C5.86059 1.06191 4.75979 1.19615 3.73955 1.73312C2.78642 2.2164 2.15548 2.98158 1.90042 4.01525C1.80645 4.39113 1.75275 4.78044 1.73933 5.15632C1.7259 6.4182 1.7259 7.66666 1.73933 8.92854C1.73933 9.10306 1.75275 9.27758 1.7796 9.43867C1.88699 10.2441 2.18233 10.9825 2.6119 11.6537C3.04148 12.3249 3.51133 12.9961 4.00803 13.627C4.67925 14.4862 5.39073 15.3051 6.06195 16.1508C6.57207 16.7818 7.04192 17.453 7.37753 18.2047C7.60574 18.7014 7.75341 19.2116 7.75341 19.762V22.5274C7.75341 22.7556 7.72656 22.9838 7.67286 23.1986C7.56547 23.6818 7.29698 23.8832 6.81371 23.9235C6.67947 23.9369 6.5318 23.9369 6.39756 23.9235C5.92771 23.8832 5.65922 23.6684 5.56525 23.212C5.51155 22.9435 5.4847 22.6616 5.4847 22.3797C5.47128 20.7285 5.4847 19.0773 5.4847 17.4127V17.0234C4.2094 17.01 2.98779 17.01 1.7259 17.01ZM58.3899 10.6469V8.88828C58.3899 7.58612 58.4033 6.28396 58.3764 4.99523C58.3362 3.26349 57.4099 2.02846 55.7721 1.45121C55.1546 1.23642 54.5237 1.12903 53.8793 1.10218C52.7517 1.04848 51.6509 1.18273 50.6306 1.7197C49.6372 2.22982 49.0063 3.03528 48.7512 4.12265C48.6438 4.56565 48.6304 5.00865 48.6304 5.46508V22.5408C48.6304 22.7287 48.6304 22.9301 48.6438 23.118C48.7646 24.6752 49.503 25.8029 50.9662 26.4338C51.1273 26.5009 51.2884 26.5546 51.4495 26.6083C52.4563 26.9171 53.49 26.9574 54.5371 26.8366C55.1949 26.756 55.8258 26.5815 56.4031 26.2727C57.3696 25.7626 58.0005 24.984 58.2422 23.9101C58.3362 23.5208 58.3764 23.1046 58.3764 22.7019C58.3899 20.903 58.3899 19.1176 58.3764 17.3187C58.3764 17.2248 58.363 17.1308 58.3496 17.0502C57.92 16.9831 54.8727 16.9965 54.6176 17.0771V22.2857C54.6176 22.5811 54.6042 22.8898 54.5371 23.1851C54.4431 23.6684 54.1746 23.8832 53.6914 23.9101C53.5571 23.9235 53.4363 23.9235 53.3021 23.9101C52.8054 23.8832 52.5234 23.655 52.4295 23.1583C52.3758 22.863 52.3624 22.5676 52.3624 22.2589V5.76041C52.3624 5.57247 52.3624 5.37111 52.3758 5.18317C52.4563 4.32401 52.8456 4.01525 53.7048 4.0958C54.2015 4.14949 54.4565 4.35086 54.5505 4.83413C54.6042 5.11604 54.6176 5.41138 54.6311 5.69329C54.6445 7.22366 54.6311 8.7406 54.6311 10.271C54.6311 10.3918 54.6445 10.5126 54.6445 10.6469C55.9064 10.6469 57.128 10.6469 58.3899 10.6469ZM73.2103 25.2256C73.2371 25.2122 73.2505 25.2122 73.2774 25.1988C73.3445 25.2928 73.4251 25.3733 73.4922 25.4673C74.0157 26.1116 74.6601 26.5815 75.5192 26.6352C76.8348 26.7157 77.7611 26.1653 78.0833 24.8498C78.1907 24.3933 78.2175 23.9369 78.2175 23.4805V9.43867C78.2175 9.2373 78.2175 9.03594 78.2041 8.82115C78.1773 8.3513 78.0967 7.88145 77.8954 7.45187C77.5463 6.67326 76.9288 6.27053 76.0831 6.23026C75.036 6.18999 74.1902 6.60614 73.4922 7.37132C73.4116 7.45187 73.3445 7.54584 73.2774 7.62639C73.2505 7.61296 73.2237 7.61296 73.1969 7.59954V6.49875H69.8408V30.8236C70.1764 30.8907 72.9418 30.8773 73.2103 30.8101V25.2256ZM38.5756 16.4327V17.7215C38.5756 19.6009 38.5622 21.4803 38.5756 23.3597C38.589 24.635 39.1931 25.5612 40.3208 26.1385C40.5355 26.2459 40.7772 26.3399 41.0054 26.407C41.9182 26.6755 42.8445 26.7157 43.7842 26.5681C44.4017 26.4741 44.9924 26.2862 45.5294 25.9506C46.2275 25.5075 46.6839 24.89 46.8584 24.0846C46.9255 23.7758 46.9524 23.4402 46.9524 23.1314V9.41182C46.8852 8.32445 46.4154 7.47872 45.4891 6.90147C45.2072 6.72696 44.8984 6.59271 44.5897 6.48532C43.7305 6.18999 42.8445 6.16314 41.9451 6.27053C41.2739 6.35108 40.6429 6.5256 40.0657 6.87463C39.3542 7.3042 38.8709 7.92172 38.683 8.7406C38.6159 9.04936 38.589 9.37154 38.5756 9.69373C38.5756 11.9356 38.5756 14.1909 38.5756 16.4327ZM68.4312 16.4596V9.85482C68.4312 9.66688 68.4312 9.46551 68.4178 9.27757C68.3507 8.37815 67.9748 7.65323 67.2633 7.10284C66.9143 6.83435 66.525 6.63299 66.0954 6.49875C65.2228 6.21684 64.3234 6.17656 63.424 6.27053C62.7528 6.33765 62.1218 6.5256 61.5446 6.87463C60.7928 7.33105 60.2961 7.98884 60.1216 8.848C60.0545 9.15676 60.041 9.46552 60.041 9.77428V23.3731C60.0947 24.6887 60.7123 25.6284 61.907 26.1922C62.095 26.2862 62.3097 26.3533 62.5111 26.4204C63.424 26.6889 64.3502 26.7157 65.2899 26.5815C65.8672 26.5009 66.4176 26.3264 66.9277 26.0311C67.6392 25.6149 68.1359 25.0243 68.3238 24.2188C68.4044 23.8698 68.4312 23.4939 68.4447 23.1314C68.4447 20.903 68.4312 18.688 68.4312 16.4596ZM27.9167 18.5672V22.1112C27.9167 22.5274 27.9167 22.9435 27.9033 23.3731C27.8899 24.0175 27.7153 24.2591 26.9099 24.192C26.5609 24.1651 26.3998 23.9906 26.3461 23.6416C26.3192 23.4805 26.3192 23.3194 26.3192 23.1583V17.2248C26.3192 17.1174 26.3326 17.0234 26.3461 16.8757H31.2996C31.3131 16.7818 31.3131 16.7146 31.3131 16.6475V9.46551C31.3131 9.21045 31.2728 8.95539 31.2057 8.70033C30.9237 7.61296 30.1854 6.94175 29.1652 6.55244C28.2657 6.20341 27.326 6.16314 26.3729 6.25711C25.8091 6.31081 25.2453 6.44505 24.7351 6.70011C23.5538 7.29078 22.9363 8.23048 22.9363 9.55948C22.9229 14.1506 22.9363 18.7283 22.9363 23.3194C22.9363 23.6013 22.9766 23.8832 23.0437 24.1517C23.2987 25.2122 24.0102 25.87 24.9768 26.2727C25.5675 26.5144 26.1984 26.6218 26.8293 26.6486C27.7556 26.6889 28.6819 26.5815 29.5276 26.1653C30.6955 25.5881 31.2996 24.6484 31.3131 23.3462C31.3265 21.8561 31.3131 20.366 31.3131 18.8625C31.3131 18.7686 31.2996 18.6746 31.2862 18.5672H27.9167ZM79.0499 6.49875C79.0633 6.59272 79.0633 6.67326 79.0767 6.74039C79.2781 8.20363 79.4928 9.66688 79.6942 11.1436C79.8956 12.5397 80.0835 13.9492 80.2849 15.3454C80.5131 16.9697 80.7413 18.594 80.9695 20.2184C81.1306 21.4131 81.2917 22.5945 81.4662 23.7892C81.5736 24.5679 81.7213 25.333 81.8287 26.1116C81.8958 26.5546 81.9629 26.9977 81.8689 27.4541C81.8018 27.8165 81.5871 28.0582 81.2246 28.1387C81.0232 28.179 80.8219 28.1924 80.6205 28.2058C80.3251 28.2193 80.0298 28.2058 79.7076 28.2058V30.8102C79.815 30.8236 79.8956 30.837 79.9761 30.837C80.7682 30.8504 81.5602 30.8638 82.3522 30.8504C82.7013 30.8504 83.0369 30.8102 83.3725 30.7833C84.2719 30.6893 84.8894 30.2195 85.1311 29.3335C85.2653 28.8502 85.3727 28.3535 85.4532 27.8568C85.7352 26.0043 85.9768 24.1383 86.2453 22.2857C86.5809 19.9365 86.9165 17.5872 87.2521 15.238C87.6146 12.6739 87.977 10.1233 88.3395 7.55927C88.3932 7.21024 88.4334 6.86121 88.4871 6.48533H85.1445C85.1176 6.60614 85.1042 6.70011 85.0908 6.80751C84.97 7.8546 84.8626 8.9017 84.7418 9.94879C84.6209 11.0093 84.5135 12.0564 84.3927 13.1169C84.2316 14.4996 84.084 15.8958 84.0303 17.2919C83.99 18.3121 83.9497 19.3324 83.896 20.3526C83.8692 20.8493 83.8423 21.3326 83.802 21.8293C83.802 21.883 83.7752 21.9367 83.7483 21.9904C83.7215 21.9904 83.6946 21.9904 83.6812 21.977C83.5604 19.3995 83.4933 16.822 83.2248 14.2446C82.9563 11.6671 82.661 9.08964 82.3791 6.49875C81.2649 6.49875 80.1641 6.49875 79.0499 6.49875ZM12.519 6.49875C13.3916 13.1572 14.2508 19.7754 15.1233 26.3936H19.3654C20.2917 19.762 21.2046 13.1438 22.1308 6.49875H18.8016C18.7882 6.56587 18.7613 6.61957 18.7613 6.67326C18.6539 7.65324 18.5331 8.63321 18.4257 9.61319C18.2915 10.8348 18.1438 12.043 17.9961 13.2646C17.8753 14.2714 17.7411 15.2648 17.6605 16.2716C17.5666 17.5469 17.5129 18.8223 17.4458 20.0976C17.4055 20.8225 17.3652 21.5608 17.3249 22.2857C17.3249 22.3663 17.2981 22.4334 17.2847 22.5139H17.2041C17.1907 22.4065 17.1773 22.2991 17.1773 22.1918C17.137 20.7419 17.1236 19.2921 17.0564 17.8423C17.0028 16.5804 16.9222 15.3051 16.788 14.0566C16.5598 11.8416 16.2778 9.64004 16.0228 7.43845C15.9825 7.12969 15.9422 6.83436 15.902 6.51218C14.7743 6.49875 13.6735 6.49875 12.519 6.49875ZM37.6627 26.3533V23.7624C37.5554 23.7624 37.4748 23.749 37.3943 23.749C36.9781 23.7355 36.8036 23.6147 36.7096 23.212C36.6425 22.9167 36.6022 22.5945 36.6022 22.2857C36.5888 18.0034 36.6022 13.721 36.6022 9.42525C36.6022 9.33128 36.6156 9.2373 36.6291 9.11648H37.703C37.703 8.21706 37.7164 7.3579 37.6896 6.45847H36.5888V2.88761H33.179V6.4719H32.1991C32.2125 7.37133 32.1722 8.2439 32.2259 9.12991H33.179V23.561C33.179 24.1114 33.2864 24.635 33.5415 25.1182C33.9039 25.8029 34.4678 26.2727 35.2464 26.3399C36.0384 26.407 36.8304 26.3667 37.6225 26.3801C37.6225 26.3936 37.6359 26.3801 37.6627 26.3533ZM53.5034 22.9167C53.5303 22.9032 53.5705 22.9032 53.5974 22.8898C53.6108 22.675 53.6242 22.4737 53.6242 22.2589V16.4596C53.6242 16.3253 53.6377 16.1911 53.6377 16.0166H59.0074V11.6671H53.6242V5.82753C53.6242 5.63959 53.6108 5.43823 53.5974 5.25029C53.5974 5.19659 53.5571 5.14289 53.5168 5.04892C53.4631 5.12947 53.4094 5.18317 53.396 5.22344C53.3826 5.34426 53.3826 5.4785 53.3826 5.61274V22.3931C53.3826 22.5274 53.3826 22.6482 53.396 22.7824C53.4094 22.8227 53.4631 22.863 53.5034 22.9167ZM6.67947 5.06235C6.46468 5.12947 6.49153 5.26371 6.49153 5.37111C6.49153 6.44505 6.4781 7.51899 6.4781 8.57951C6.4781 8.78088 6.54522 8.94197 6.70632 9.14333C6.71974 9.03594 6.73316 8.99566 6.73316 8.94197V5.5322C6.73316 5.39796 6.70632 5.25029 6.67947 5.06235ZM6.51838 18.8357C6.49153 18.9296 6.4781 18.9565 6.4781 18.9968V22.6348C6.4781 22.7019 6.4781 22.769 6.50495 22.8227C6.51838 22.8495 6.55865 22.8898 6.59892 22.8898C6.62577 22.8898 6.67947 22.8495 6.69289 22.8227C6.71974 22.7019 6.73316 22.5945 6.73316 22.4737C6.73316 21.5742 6.74659 20.6748 6.73316 19.7754C6.73316 19.4666 6.69289 19.1579 6.51838 18.8357Z" fill="#010101"/>
<path d="M1.72569 17.0102H5.47107V22.3665C5.47107 22.6484 5.49792 22.9303 5.55162 23.1988C5.64559 23.6552 5.91407 23.87 6.38392 23.9102C6.51817 23.9237 6.66583 23.9237 6.80008 23.9102C7.28335 23.8834 7.55184 23.6686 7.65923 23.1853C7.71293 22.9706 7.72635 22.7423 7.73978 22.5141C7.7532 21.5879 7.73978 20.6616 7.73978 19.7487C7.73978 19.1983 7.59211 18.6882 7.3639 18.1915C7.02829 17.4397 6.55844 16.7685 6.04832 16.1376C5.36368 15.2919 4.65219 14.473 3.9944 13.6138C3.4977 12.9829 3.02785 12.3251 2.59827 11.6404C2.16869 10.9692 1.87336 10.2309 1.76597 9.42544C1.73912 9.25092 1.72569 9.08983 1.72569 8.91531C1.72569 7.65343 1.71227 6.40497 1.72569 5.14309C1.72569 4.75378 1.77939 4.36448 1.88678 4.00202C2.15527 2.96835 2.78621 2.20317 3.72591 1.71989C4.74616 1.19634 5.84695 1.0621 6.97459 1.10237C7.68608 1.14265 8.38414 1.26347 9.05536 1.53195C10.5857 2.14947 11.418 3.30396 11.4583 4.94172C11.512 6.74058 11.4717 8.55286 11.4717 10.3517C11.4717 10.392 11.4583 10.4323 11.4449 10.5262H7.72635V5.65321C7.72635 5.3713 7.6995 5.07597 7.64581 4.79406C7.55184 4.33763 7.29678 4.14969 6.84035 4.09599C5.94092 4.00202 5.51134 4.33763 5.4845 5.25048C5.45765 6.40497 5.47107 7.57289 5.4845 8.72738C5.4845 8.92874 5.55162 9.1301 5.64559 9.30462C5.83353 9.66708 6.02147 10.0295 6.2631 10.3517C7.04171 11.3854 7.8606 12.4056 8.65263 13.4259C9.20303 14.1374 9.75342 14.8623 10.277 15.5872C10.6528 16.1107 10.9885 16.6611 11.2301 17.2652C11.3912 17.6545 11.4852 18.0573 11.4852 18.4868C11.4717 19.8964 11.4852 21.3059 11.4717 22.7021C11.4717 23.1048 11.418 23.521 11.3375 23.9103C11.1093 24.9305 10.5052 25.6823 9.60575 26.1924C8.98824 26.5414 8.31702 26.7294 7.61896 26.8099C6.57186 26.9441 5.53819 26.8904 4.53137 26.5817C4.41055 26.5414 4.28973 26.5011 4.16891 26.4474C2.65197 25.8299 1.85994 24.6889 1.73912 23.0645C1.72569 22.8766 1.72569 22.6752 1.72569 22.4873V17.3592C1.72569 17.2787 1.72569 17.1713 1.72569 17.0102Z" fill="white"/>
<path d="M58.3896 10.647H54.6576C54.6576 10.5128 54.6442 10.392 54.6442 10.2712V5.69348C54.6442 5.41157 54.6308 5.11624 54.5637 4.83433C54.4697 4.35105 54.2146 4.14969 53.7179 4.09599C52.8588 4.01544 52.4695 4.3242 52.3889 5.18336C52.3755 5.3713 52.3755 5.57266 52.3755 5.7606V22.2591C52.3755 22.5544 52.3889 22.8632 52.4426 23.1585C52.5366 23.6552 52.8185 23.87 53.3152 23.9103C53.4495 23.9237 53.5703 23.9237 53.7045 23.9103C54.1878 23.8834 54.4563 23.6686 54.5502 23.1853C54.6039 22.89 54.6308 22.5947 54.6308 22.2859C54.6442 20.675 54.6308 19.0641 54.6308 17.4532V17.0773C54.8724 16.9967 57.9332 16.9833 58.3627 17.0504C58.3762 17.131 58.3896 17.225 58.3896 17.3189C58.3896 19.1178 58.403 20.9032 58.3896 22.7021C58.3896 23.1048 58.3359 23.5209 58.2554 23.9103C58.0137 24.9842 57.3828 25.7628 56.4162 26.2729C55.8256 26.5817 55.1946 26.7562 54.5502 26.8367C53.5032 26.971 52.4695 26.9307 51.4627 26.6085C51.3016 26.5548 51.1405 26.5011 50.9794 26.434C49.5161 25.8165 48.7778 24.6889 48.657 23.1182C48.6436 22.9303 48.6436 22.7289 48.6436 22.541V5.46527C48.6436 5.00884 48.6704 4.56584 48.7644 4.12284C49.0194 3.03547 49.6504 2.23002 50.6438 1.71989C51.664 1.19634 52.7648 1.0621 53.8925 1.10237C54.5368 1.12922 55.1678 1.23662 55.7853 1.4514C57.4096 2.02865 58.3359 3.26368 58.3896 4.99542C58.4164 6.29758 58.403 7.59973 58.403 8.88847V10.3114C58.3896 10.4188 58.3896 10.5262 58.3896 10.647Z" fill="white"/>
<path d="M73.2103 25.2256V30.8101C72.9418 30.8772 70.1764 30.8906 69.8408 30.8235V6.4987H73.1969V7.59949C73.2237 7.61292 73.2506 7.61291 73.2774 7.62634C73.3446 7.54579 73.4251 7.45182 73.4922 7.37128C74.1769 6.60609 75.036 6.18994 76.0831 6.23021C76.9423 6.25706 77.5464 6.65979 77.8954 7.45182C78.0968 7.89482 78.1639 8.35125 78.2041 8.8211C78.2176 9.02247 78.2176 9.22383 78.2176 9.43862V23.4804C78.2176 23.9369 78.1907 24.4067 78.0833 24.8497C77.7611 26.1653 76.8349 26.7157 75.5193 26.6351C74.6601 26.5814 74.0158 26.1116 73.4922 25.4672C73.4251 25.3733 73.3446 25.2927 73.2774 25.1987C73.2506 25.2122 73.2372 25.2122 73.2103 25.2256ZM74.8212 16.4595V10.4723C74.8212 10.177 74.781 9.8682 74.7138 9.58629C74.6601 9.35807 74.499 9.19698 74.2574 9.14329C73.7741 9.02247 73.3983 9.22383 73.2909 9.72053C73.2372 10.0024 73.2237 10.2978 73.2237 10.5797V22.3394C73.2237 22.5542 73.2372 22.7689 73.2506 22.9837C73.264 23.1045 73.2909 23.2388 73.3311 23.3596C73.4385 23.6415 73.6399 23.7892 73.9352 23.8026C74.4051 23.8295 74.6736 23.6415 74.7541 23.1717C74.8078 22.9166 74.8078 22.6615 74.8078 22.4065C74.8212 20.4063 74.8212 18.4329 74.8212 16.4595Z" fill="white"/>
<path d="M38.5758 16.4326V9.69361C38.5758 9.37143 38.6026 9.04924 38.6832 8.74048C38.8711 7.9216 39.3544 7.31751 40.0659 6.87451C40.6431 6.52548 41.2741 6.33754 41.9453 6.27042C42.8447 6.17644 43.7307 6.20329 44.5899 6.4852C44.8986 6.5926 45.2074 6.72684 45.4893 6.90136C46.4156 7.46518 46.8854 8.32433 46.9526 9.4117C46.966 9.53252 46.9526 9.65333 46.9526 9.76073V23.1313C46.9526 23.4535 46.9257 23.7757 46.8586 24.0845C46.6841 24.8899 46.2276 25.5074 45.5296 25.9504C44.9926 26.286 44.4019 26.474 43.7844 26.5679C42.8447 26.7022 41.9184 26.6753 41.0056 26.4069C40.764 26.3397 40.5357 26.2458 40.321 26.1384C39.1799 25.5611 38.5892 24.6349 38.5758 23.3595C38.5624 21.4801 38.5758 19.6007 38.5758 17.7213C38.5758 17.2918 38.5758 16.8622 38.5758 16.4326ZM43.5696 16.4192V9.8547C43.5696 9.66676 43.5696 9.4654 43.5428 9.27746C43.4891 8.87473 43.3146 8.71364 42.9118 8.68679H42.6165C42.2272 8.70021 42.0527 8.8613 41.999 9.25061C41.9721 9.4654 41.9721 9.68018 41.9721 9.89497V22.9702C41.9721 23.1045 41.9721 23.2522 41.9856 23.3864C42.0124 24.071 42.2406 24.2455 42.9521 24.2053H42.979C43.3146 24.1516 43.4757 24.0173 43.5294 23.6683C43.5562 23.4535 43.5696 23.2387 43.5696 23.0239C43.5696 20.8224 43.5696 18.6208 43.5696 16.4192Z" fill="white"/>
<path d="M68.4314 16.4591V23.131C68.4314 23.4935 68.4046 23.8694 68.3106 24.2184C68.1093 25.0238 67.6126 25.6145 66.9145 26.0307C66.4044 26.326 65.854 26.5005 65.2767 26.5811C64.337 26.7153 63.4108 26.6885 62.4979 26.42C62.2965 26.3663 62.0952 26.2857 61.8938 26.1918C60.699 25.6279 60.0815 24.6882 60.0278 23.3727V9.77384C60.0278 9.46509 60.0413 9.1429 60.1084 8.84757C60.2829 7.97499 60.7662 7.33062 61.5314 6.8742C62.1086 6.52516 62.753 6.33722 63.4108 6.2701C64.3102 6.17613 65.2096 6.2164 66.0822 6.49831C66.4983 6.63256 66.9011 6.83392 67.2501 7.10241C67.9616 7.6528 68.3375 8.39114 68.4046 9.27714C68.418 9.46508 68.418 9.66645 68.418 9.85439C68.4314 12.056 68.4314 14.2576 68.4314 16.4591ZM63.451 16.4323V23.319C63.451 24.0573 63.7061 24.2721 64.4981 24.1781C64.78 24.1513 64.9545 23.9902 64.9948 23.7083C65.0217 23.5203 65.0485 23.319 65.0485 23.131V9.70672C65.0485 9.61275 65.0485 9.51878 65.0351 9.41138C64.9814 8.82071 64.8069 8.65962 64.2162 8.67305C64.1357 8.67305 64.0685 8.67305 63.988 8.68647C63.7329 8.71332 63.5584 8.83414 63.5047 9.0892C63.4644 9.30399 63.4376 9.51877 63.4376 9.72014C63.451 11.962 63.451 14.2039 63.451 16.4323Z" fill="white"/>
<path d="M27.9166 18.5672H31.2861C31.2995 18.6746 31.3129 18.7685 31.3129 18.8625C31.3129 20.3526 31.3263 21.8427 31.3129 23.3462C31.2995 24.6484 30.6954 25.6015 29.5275 26.1653C28.6817 26.5815 27.7689 26.6889 26.8292 26.6486C26.1982 26.6217 25.5673 26.5278 24.9766 26.2727C23.9967 25.87 23.2986 25.1988 23.0435 24.1517C22.9764 23.8832 22.9361 23.6013 22.9361 23.3194C22.9361 18.7283 22.9227 14.1506 22.9361 9.55945C22.9361 8.24387 23.5671 7.29075 24.735 6.70008C25.2451 6.44502 25.8089 6.31078 26.3728 6.25708C27.3259 6.16311 28.2656 6.21681 29.165 6.55241C30.1853 6.94172 30.9236 7.61294 31.2055 8.7003C31.2726 8.94194 31.3129 9.21043 31.3129 9.46549C31.3263 11.855 31.3129 14.258 31.3129 16.6475C31.3129 16.7146 31.2995 16.7683 31.2995 16.8757H26.3459C26.3325 17.0099 26.3191 17.1173 26.3191 17.2247V23.1583C26.3191 23.3194 26.3325 23.4804 26.3459 23.6415C26.3996 24.004 26.5607 24.1651 26.9097 24.1919C27.7152 24.2591 27.8897 24.0174 27.9031 23.3731C27.9166 22.9569 27.9166 22.5408 27.9166 22.1112V18.9565C27.9166 18.8356 27.9166 18.7148 27.9166 18.5672ZM27.9031 14.5399C27.9031 14.4191 27.9166 14.3251 27.9166 14.2311V9.73397C27.9166 9.55946 27.9031 9.38494 27.8763 9.22385C27.8226 8.87482 27.6481 8.72715 27.2856 8.7003C27.1648 8.7003 27.044 8.68688 26.9366 8.7003C26.5876 8.72715 26.413 8.87482 26.3593 9.22385C26.3325 9.41179 26.3325 9.61316 26.3325 9.8011V14.5399C26.856 14.5399 27.3527 14.5399 27.9031 14.5399Z" fill="white"/>
<path d="M79.0498 6.49877H82.3925C82.6744 9.08966 82.9697 11.6671 83.2382 14.2446C83.5067 16.8086 83.5738 19.3995 83.6946 21.977C83.7215 21.977 83.7483 21.977 83.7617 21.9904C83.7752 21.9367 83.802 21.883 83.8154 21.8293C83.8557 21.3326 83.8826 20.8493 83.9094 20.3527C83.9631 19.3324 84.0034 18.3122 84.0436 17.2919C84.0973 15.8958 84.245 14.5131 84.4061 13.117C84.5269 12.0564 84.6477 11.0093 84.7551 9.94882C84.876 8.90172 84.9834 7.85463 85.1042 6.80754C85.1176 6.70014 85.1444 6.60617 85.1579 6.48535H88.5005C88.4468 6.86123 88.4065 7.21026 88.3529 7.55929C87.9904 10.1233 87.6279 12.674 87.2655 15.238C86.9299 17.5872 86.5943 19.9365 86.2587 22.2857C85.9902 24.1383 85.7351 26.0043 85.4666 27.8568C85.3995 28.3535 85.2787 28.8502 85.1444 29.3335C84.9028 30.2329 84.2853 30.6894 83.3859 30.7833C83.0503 30.8236 82.7012 30.8504 82.3656 30.8504C81.5736 30.8504 80.7816 30.837 79.9895 30.837C79.909 30.837 79.8284 30.8236 79.721 30.8102V28.2059C80.0432 28.2059 80.3385 28.2193 80.6339 28.2059C80.8352 28.1924 81.0366 28.1924 81.238 28.1387C81.6004 28.0582 81.8018 27.8166 81.8823 27.4541C81.9763 26.9977 81.9092 26.5547 81.8421 26.1117C81.7347 25.3331 81.587 24.5679 81.4796 23.7893C81.3051 22.5945 81.144 21.4132 80.9829 20.2184C80.7547 18.5941 80.5265 16.9697 80.2983 15.3454C80.0969 13.9493 79.8955 12.5397 79.7076 11.1436C79.5062 9.68033 79.2915 8.21708 79.0901 6.74041C79.0632 6.67329 79.0498 6.59274 79.0498 6.49877Z" fill="white"/>
<path d="M12.519 6.49878H15.902C15.9422 6.80754 15.9825 7.11629 16.0228 7.42505C16.2778 9.62664 16.5598 11.8416 16.788 14.0432C16.9222 15.3051 17.0028 16.567 17.0565 17.8289C17.1236 19.2787 17.137 20.7285 17.1773 22.1784C17.1773 22.2858 17.1907 22.3931 17.2041 22.5005H17.2847C17.2981 22.42 17.3249 22.3529 17.3249 22.2723C17.3652 21.5474 17.4055 20.8091 17.4458 20.0842C17.5129 18.8089 17.5666 17.5335 17.6605 16.2582C17.7411 15.2514 17.8888 14.258 17.9962 13.2512C18.1304 12.0296 18.2781 10.8214 18.4257 9.59979C18.5331 8.61981 18.6539 7.63984 18.7613 6.65987C18.7613 6.60617 18.7882 6.55247 18.8016 6.48535H22.1308C21.2046 13.1304 20.2917 19.7351 19.3654 26.3802H15.1234C14.2508 19.7754 13.3916 13.1572 12.519 6.49878Z" fill="white"/>
<path d="M37.6629 26.3536C37.6361 26.3805 37.6226 26.3939 37.6226 26.3939C36.8306 26.3805 36.0386 26.4207 35.2465 26.3536C34.4679 26.2865 33.9041 25.8166 33.5416 25.132C33.2866 24.6487 33.1792 24.1252 33.1792 23.5748V9.14366H32.2261C32.1724 8.25766 32.2261 7.38508 32.1992 6.48565H33.1792V2.90137H36.589V6.47223H37.6898C37.7032 7.37166 37.6898 8.23081 37.7032 9.13024H36.6292C36.6158 9.25106 36.6024 9.34503 36.6024 9.439V22.2995C36.6024 22.6082 36.6427 22.917 36.7098 23.2257C36.8038 23.6285 36.9783 23.7493 37.3944 23.7627C37.475 23.7627 37.5689 23.7761 37.6629 23.7761V26.3536Z" fill="white"/>
<path d="M74.8209 16.4593V22.3794C74.8209 22.6345 74.8075 22.9029 74.7672 23.1446C74.6732 23.6144 74.4182 23.7889 73.9483 23.7755C73.6395 23.7621 73.4382 23.6144 73.3442 23.3325C73.3039 23.2117 73.2771 23.0909 73.2637 22.9566C73.2368 22.7418 73.2368 22.5271 73.2368 22.3123V10.5526C73.2368 10.2707 73.2502 9.97534 73.3039 9.69343C73.4113 9.19674 73.7872 8.99537 74.2705 9.11619C74.5121 9.18331 74.6732 9.33098 74.7269 9.55919C74.794 9.85452 74.8343 10.1499 74.8343 10.4452C74.8209 12.4588 74.8209 14.4591 74.8209 16.4593Z" fill="#010101"/>
<path d="M43.5692 16.4189V23.0237C43.5692 23.2385 43.5692 23.4533 43.5289 23.668C43.4752 24.0036 43.3275 24.1513 42.9785 24.205H42.9517C42.2402 24.2453 42.012 24.0842 41.9851 23.3861C41.9851 23.2519 41.9717 23.1042 41.9717 22.97V9.89471C41.9717 9.67992 41.9717 9.46513 41.9985 9.25034C42.0522 8.86104 42.2267 8.71337 42.616 8.68652H42.9114C43.3141 8.69995 43.4886 8.86104 43.5423 9.27719C43.5692 9.46513 43.5692 9.6665 43.5692 9.85444C43.5692 12.0426 43.5692 14.2308 43.5692 16.4189Z" fill="#010101"/>
<path d="M63.4507 16.4323V9.73362C63.4507 9.51883 63.4775 9.30404 63.5178 9.10268C63.5715 8.84762 63.746 8.7268 64.0011 8.69995C64.0816 8.68653 64.1487 8.68652 64.2293 8.68652C64.82 8.68652 64.9945 8.83419 65.0482 9.42486C65.0616 9.51883 65.0616 9.6128 65.0616 9.7202V23.1445C65.0616 23.3324 65.0348 23.5338 65.0079 23.7217C64.9676 24.0036 64.7931 24.1647 64.5112 24.1916C63.7192 24.2721 63.4775 24.0573 63.4641 23.3324V17.1841C63.4507 16.929 63.4507 16.674 63.4507 16.4323Z" fill="#010101"/>
<path d="M27.9034 14.5401H26.3193V9.80129C26.3193 9.61335 26.3193 9.41199 26.3462 9.22405C26.3999 8.87501 26.5744 8.71392 26.9234 8.7005C27.0442 8.68707 27.1651 8.68707 27.2725 8.7005C27.6215 8.71392 27.8094 8.87501 27.8631 9.22405C27.89 9.39856 27.9034 9.55965 27.9034 9.73417V14.2313C27.9168 14.3119 27.9034 14.4192 27.9034 14.5401Z" fill="#010101"/>
</g>
<defs>
<clipPath id="clip0_2094_74656">
<rect width="89.098" height="32" fill="white" transform="translate(0.649902)"/>
</clipPath>
</defs>
</svg>
