<svg width="135" height="32" viewBox="0 0 135 32" fill="none" xmlns="http://www.w3.org/2000/svg">
<g clipPath="url(#clip0_2094_73082)">
<path d="M10.0353 14.2247C7.28355 14.2247 5.6282 12.0857 5.6282 9.39842C5.6282 6.6897 7.28355 4.46466 10.0353 4.46466C12.873 4.46466 14.3134 6.6897 14.3134 9.39842C14.3134 12.0857 12.8623 14.2247 10.0353 14.2247ZM10.0353 0.132812C4.5748 0.132812 0.586914 3.95944 0.586914 9.2265C0.586914 14.5365 4.0051 18.5458 10.0353 18.5458C15.915 18.5458 19.3976 14.5365 19.3976 9.2265C19.3976 3.95944 15.4636 0.132812 10.0353 0.132812ZM31.587 8.57078C30.8346 8.88251 29.6737 9.09744 29.0072 9.09744C27.008 9.09744 26.191 8.38804 26.191 5.57181V0.530521H21.1498V6.17374C21.1498 11.86 24.0842 13.3111 27.5131 13.3111C29.0072 13.3111 30.5336 13.0208 31.587 12.6984V18.1589H36.6498V0.519761H31.587V8.57078ZM75.4322 0.530521H69.8857L64.8659 8.46331V0.530521H59.7601V18.1696H64.8659V10.1293L70.176 18.1696H76.1309L69.875 8.91469L75.4322 0.530521ZM50.6558 11.559H45.7435L48.1834 4.48615L50.6558 11.559ZM44.8083 0.530521L38.8856 18.1696H44.1418L44.9588 15.5899H51.4512L52.2681 18.1696H57.5351L51.5909 0.530521H44.8083ZM102.595 14.1388V11.0108H106.453C107.797 11.0108 108.614 11.4515 108.614 12.6016C108.614 13.7518 107.948 14.1388 106.626 14.1388H102.595ZM106.217 4.62589C107.432 4.62589 108.131 4.9806 108.131 6.13074C108.131 7.29163 107.292 7.66784 106.077 7.66784H102.595V4.62589H106.217ZM110.044 9.29094C112.044 8.74277 112.936 7.1304 112.936 5.43206C112.936 2.08912 110.667 0.541249 106.723 0.541249H97.5643V18.1804H107.872C111.194 18.1804 113.463 16.439 113.463 13.5583C113.463 11.43 112.312 9.88213 110.044 9.29094ZM85.4612 14.2247C82.7093 14.2247 81.0539 12.0857 81.0539 9.39842C81.0539 6.6897 82.7093 4.46466 85.4612 4.46466C88.2984 4.46466 89.739 6.6897 89.739 9.39842C89.7499 12.0857 88.2984 14.2247 85.4612 14.2247ZM85.4612 0.132812C80.0005 0.132812 76.0127 3.95944 76.0127 9.2265C76.0127 14.5365 79.4308 18.5458 85.4612 18.5458C91.3406 18.5458 94.823 14.5365 94.823 9.2265C94.823 3.95944 90.9004 0.132812 85.4612 0.132812ZM124.619 14.2247C121.868 14.2247 120.212 12.0857 120.212 9.39842C120.212 6.6897 121.868 4.46466 124.619 4.46466C127.457 4.46466 128.909 6.6897 128.909 9.39842C128.909 12.0857 127.457 14.2247 124.619 14.2247ZM124.619 0.132812C119.159 0.132812 115.172 3.95944 115.172 9.2265C115.172 14.5365 118.6 18.5458 124.619 18.5458C130.5 18.5458 133.982 14.5365 133.982 9.2265C133.982 3.95944 130.059 0.132812 124.619 0.132812Z" fill="#D51F36"/>
<path d="M6.42308 27.371H2.67169V24.415H1.40332V31.6383H2.67169V28.4888H6.42308V31.6383H7.69149V24.415H6.42308V27.371ZM11.3568 24.415L8.51915 31.6383H9.95952L10.4862 30.2517H13.7969L14.3236 31.6383H15.764L12.9262 24.415H11.3568ZM10.8517 29.1446L12.1523 25.7049L13.453 29.1446H10.8517ZM15.1835 25.5329H17.3763V31.6383H18.6447V25.5329H20.8268V24.415H15.1835V25.5329ZM24.8683 28.6286L22.8798 24.415H21.4394L24.1589 29.725C23.8149 30.3915 23.5677 30.6494 22.9765 30.6494C22.6326 30.6494 22.2994 30.4667 22.0307 30.241L21.5791 31.2836C21.8049 31.5201 22.4069 31.7781 23.0626 31.7781C24.2987 31.7781 24.8468 31.1654 25.2983 30.2947L28.3081 24.4257H26.8569L24.8683 28.6286ZM32.2959 24.415H29.125V31.6383H30.3934V28.9403H32.2959C33.8008 28.9403 34.6607 27.8976 34.6607 26.683C34.6607 25.4577 33.8223 24.415 32.2959 24.415ZM32.1239 27.8332H30.3934V25.5329H32.1239C32.8441 25.5329 33.3601 25.9843 33.3601 26.683C33.3601 27.371 32.8441 27.8332 32.1239 27.8332ZM37.176 24.415L34.3382 31.6383H35.7786L36.3053 30.2517H39.616L40.1427 31.6383H41.5831L38.7453 24.415H37.176ZM36.66 29.1446L37.9607 25.7049L39.2613 29.1446H36.66ZM43.6361 28.1342C43.3889 30.2625 42.9805 30.6494 42.2065 30.6494V31.7781C43.6038 31.7781 44.539 31.2944 44.8938 28.2309L45.1947 25.5436H47.6992V31.6491H48.9677V24.4257H44.0661L43.6361 28.1342ZM53.622 27.113H51.7194V24.415H50.451V31.6383H53.622C55.1375 31.6383 55.9868 30.5956 55.9868 29.3702C55.976 28.1557 55.1269 27.113 53.622 27.113ZM53.45 30.5205H51.7194V28.2309H53.45C54.1594 28.2309 54.6861 28.6823 54.6861 29.381C54.6754 30.069 54.1594 30.5205 53.45 30.5205ZM61.9524 27.371H58.201V24.415H56.9327V31.6383H58.201V28.4888H61.9524V31.6383H63.2208V24.415H61.9524V27.371ZM70.8956 31.6383H72.164V24.415H70.8956V31.6383ZM67.8644 27.113H65.9618V24.415H64.6935V31.6383H67.8644C69.38 31.6383 70.2292 30.5956 70.2292 29.3702C70.2292 28.1557 69.3692 27.113 67.8644 27.113ZM67.6924 30.5205H65.9618V28.2309H67.6924C68.4126 28.2309 68.9286 28.6823 68.9286 29.381C68.9286 30.069 68.4126 30.5205 67.6924 30.5205ZM73.6473 31.6383H78.5919V30.5205H74.9157V28.5211H78.5166V27.4033H74.9157V25.5329H78.5919V24.415H73.6473V31.6383ZM88.309 27.371H84.5472V24.415H83.2785V31.6383H84.5472V28.4888H88.309V31.6383H89.5771V24.415H88.309V27.371ZM93.2429 24.415L90.4049 31.6383H91.8456L92.3725 30.2517H95.6832L96.2093 31.6383H97.65L94.812 24.415H93.2429ZM92.7268 29.1446L94.0274 25.7049L95.328 29.1446H92.7268ZM98.4887 31.6383H99.7568V25.5329H103.519V31.6383H104.787V24.415H98.4987V31.6383H98.4887ZM107.518 29.4348V24.4257H106.249V31.6491H107.475L111.236 26.4896V31.6491H112.505V24.4257H111.205L107.518 29.4348ZM113.461 25.5329H115.654V31.6383H116.923V25.5329H119.116V24.415H113.472V25.5329H113.461ZM125.715 24.415H124.146L121.319 27.8546V24.415H120.051V31.6383H121.319V29.3381L121.943 28.5964L124.371 31.6383H125.931L122.781 27.8332L125.715 24.415ZM131.746 24.415L128.048 29.424V24.415H126.779V31.6383H128.005L131.767 26.4788V31.6383H133.035V24.415H131.746Z" fill="#D51F36"/>
</g>
<defs>
<clipPath id="clip0_2094_73082">
<rect width="133.647" height="32" fill="white" transform="translate(0.505859)"/>
</clipPath>
</defs>
</svg>
