<svg width="198" height="32" viewBox="0 0 198 32" fill="none" xmlns="http://www.w3.org/2000/svg">
<g clipPath="url(#clip0_2094_72784)">
<path d="M0.205078 25.1111L8.68206 24.343C9.0387 25.358 9.50507 26.0713 10.136 26.4828C10.767 26.9217 11.59 27.1412 12.6599 27.1412C13.8121 27.1412 14.69 26.8943 15.321 26.4005C15.8148 26.0438 16.0617 25.5775 16.0617 25.0288C16.0617 24.4252 15.7325 23.9314 15.0741 23.6022C14.6077 23.3553 13.3732 23.081 11.398 22.7244C8.43516 22.2031 6.37764 21.7368 5.22543 21.2704C4.07322 20.8315 3.11304 20.0907 2.31747 19.0483C1.52189 18.0058 1.13782 16.7987 1.13782 15.4545C1.13782 13.973 1.54932 12.7111 2.4272 11.6686C3.27764 10.5987 4.45728 9.80314 5.9387 9.28191C7.44755 8.76067 9.4502 8.48633 11.9467 8.48633C14.6077 8.48633 16.5555 8.67836 17.8175 9.08986C19.0794 9.50137 20.1493 10.1323 20.9723 10.9554C21.8228 11.8058 22.5086 12.958 23.0847 14.412L14.9369 15.2624C14.7175 14.5217 14.3883 14.0005 13.8944 13.6438C13.236 13.1775 12.4405 12.958 11.4803 12.958C10.5201 12.958 9.83427 13.1226 9.39533 13.4792C8.98383 13.8633 8.76436 14.2748 8.76436 14.7686C8.76436 15.3173 9.0387 15.7288 9.6148 16.0031C10.1635 16.2775 11.398 16.5518 13.2635 16.7713C16.0891 17.1005 18.2015 17.5394 19.6006 18.1155C20.9723 18.6916 22.0422 19.5146 22.7829 20.5845C23.5236 21.6545 23.8803 22.8067 23.8803 24.0961C23.8803 25.3854 23.4962 26.6474 22.7281 27.8545C21.9599 29.0615 20.7254 30.0491 19.052 30.7624C17.3785 31.4757 15.1015 31.8323 12.221 31.8323C8.16083 31.8323 5.25286 31.2562 3.55198 30.104C1.79623 28.9244 0.671449 27.2509 0.205078 25.1111Z" fill="#A21C35"/>
<path d="M28.7911 29.089C31.0133 30.8996 33.8938 31.8049 37.4876 31.8049C41.4929 31.8049 44.6478 30.7075 46.9247 28.5129C49.2017 26.3182 50.3265 23.5199 50.3265 20.0907C50.3265 17.0456 49.4212 14.4669 47.5831 12.3819C45.3062 9.80314 41.9318 8.48633 37.4601 8.48633C33.5646 8.48633 30.4646 9.58367 28.1602 11.8058C25.8557 14.0005 24.731 16.8261 24.731 20.2279C24.731 23.8766 26.0752 26.8394 28.7911 29.089ZM34.4973 15.7288C35.3203 14.7686 36.3354 14.2748 37.5973 14.2748C38.777 14.2748 39.7646 14.7412 40.5601 15.7014C41.3557 16.6615 41.7672 18.1155 41.7672 20.0633C41.7672 22.1483 41.3832 23.6845 40.5876 24.6173C39.792 25.55 38.777 26.0438 37.5424 26.0438C36.3079 26.0438 35.3203 25.55 34.4973 24.5899C33.7017 23.6297 33.2902 22.1483 33.2902 20.1182C33.2902 18.1704 33.7017 16.689 34.4973 15.7288Z" fill="#A21C35"/>
<path d="M61.8486 9.00692H65.9088V15.2892H61.8486V31.3104H53.2893V15.2892H50.0796V9.00692H53.2893V7.99188C53.2893 7.08657 53.3991 6.07152 53.5911 5.00161C53.7831 3.90427 54.1672 3.0264 54.6884 2.34055C55.2371 1.65471 55.9778 1.07861 56.9654 0.667109C57.953 0.228172 59.3796 0.0361328 61.2451 0.0361328C62.7539 0.0361328 64.9212 0.200735 67.7743 0.557373L66.8141 5.71489C65.7991 5.55028 64.9486 5.46799 64.3451 5.46799C63.5769 5.46799 63.0283 5.60516 62.6716 5.85206C62.3424 6.09896 62.0955 6.51046 61.9583 7.08656C61.876 7.38833 61.8486 8.01931 61.8486 9.00692Z" fill="#A21C35"/>
<path d="M77.1847 15.2896V23.1904C77.1847 24.1506 77.267 24.7816 77.459 25.0833C77.7334 25.5497 78.2272 25.7966 78.913 25.7966C79.544 25.7966 80.4218 25.6046 81.5466 25.248L82.1776 31.1187C80.0652 31.5851 78.09 31.8046 76.2794 31.8046C74.167 31.8046 72.5758 31.5302 71.5882 30.9816C70.5732 30.4329 69.8325 29.6099 69.3661 28.4851C68.8723 27.3878 68.6528 25.5772 68.6528 23.0807V15.2896H65.5254V9.00726H68.6528V4.91966L77.2121 0.530273V15.2896H77.1847Z" fill="#A21C35"/>
<path d="M84.0972 0.530273H92.6564V31.3108H84.0972V0.530273Z" fill="#A7A9AC"/>
<path d="M96.251 31.3104H104.838V9.00684H96.251V31.3104Z" fill="#A7A9AC"/>
<path d="M96.251 0.530273V6.40107H104.838V0.530273H96.251Z" fill="#A7A9AC"/>
<path d="M108.074 9.00757H116.057V12.6288C117.237 11.1474 118.444 10.0775 119.651 9.4465C120.858 8.81553 122.34 8.48633 124.095 8.48633C126.455 8.48633 128.293 9.1996 129.637 10.5987C130.981 11.9978 131.64 14.1925 131.64 17.1279V31.3111H123.08V19.0483C123.08 17.6492 122.806 16.6615 122.312 16.0854C121.791 15.5093 121.078 15.2076 120.118 15.2076C119.075 15.2076 118.252 15.5916 117.594 16.3872C116.963 17.1828 116.634 18.5819 116.634 20.612V31.3111H108.074V9.00757Z" fill="#A7A9AC"/>
<path d="M159.348 21.3527C159.348 18.4173 158.854 16.0031 157.894 14.1651C156.934 12.327 155.535 10.9279 153.697 9.94031C151.859 8.98014 149.335 8.48633 146.152 8.48633C142.229 8.48633 139.157 9.55624 136.935 11.7235C134.713 13.8907 133.588 16.689 133.588 20.2005C133.588 22.6421 134.137 24.7819 135.261 26.5925C136.359 28.4031 137.758 29.7199 139.459 30.5704C141.132 31.3934 143.464 31.8323 146.399 31.8323C149.801 31.8323 152.38 31.3385 154.218 30.3784C156.029 29.4182 157.592 27.7996 158.854 25.55L150.46 24.7819C149.938 25.4403 149.445 25.9341 148.978 26.181C148.237 26.5925 147.442 26.812 146.619 26.812C145.302 26.812 144.232 26.3182 143.409 25.358C142.833 24.6996 142.449 23.6846 142.312 22.3129H159.348V21.3527ZM142.339 18.2527C142.476 16.9084 142.806 15.8934 143.327 15.235C144.122 14.1376 145.22 13.6164 146.564 13.6164C147.716 13.6164 148.676 13.973 149.39 14.6863C150.103 15.3996 150.542 16.6067 150.706 18.2801H142.339V18.2527Z" fill="#A7A9AC"/>
<path d="M39.4357 3.52009C49.2021 4.56257 53.0976 5.41301 62.1782 7.85461C69.7498 9.91213 81.8206 9.00681 81.8206 9.00681V15.2891C77.1021 15.9475 66.8419 15.7006 58.31 12.6006C43.0569 7.03159 36.1437 5.90682 27.9685 5.33071C16.9127 4.53514 3.74459 6.20859 3.74459 6.20859L3.60742 5.11124C3.63485 5.11124 22.7012 1.73691 39.4357 3.52009Z" fill="#A7A9AC"/>
<path d="M159.211 4.67264H159.622C160.226 4.67264 160.281 4.37087 160.281 4.20627C160.281 3.79476 159.705 3.79476 159.622 3.79476H159.211V4.67264ZM159.951 3.05405C160.829 3.05405 161.268 3.52042 161.268 4.12396C161.268 4.67263 160.884 4.94697 160.5 5.02928C160.747 5.08414 160.884 5.35848 160.912 5.44078L161.543 6.94962H160.5L160.006 5.71511C159.979 5.66024 159.842 5.41334 159.513 5.41334H159.211V6.97706H158.251V3.05405H159.951ZM159.677 7.93723C161.296 7.93723 162.64 6.62042 162.64 4.97441C162.64 3.35582 161.323 2.01157 159.677 2.01157C158.059 2.01157 156.714 3.32839 156.714 4.97441C156.742 6.62043 158.059 7.93723 159.677 7.93723ZM159.677 1.16113C161.79 1.16113 163.518 2.86202 163.518 5.00184C163.518 7.11422 161.817 8.84254 159.677 8.84254C157.565 8.84254 155.836 7.14166 155.836 5.00184C155.864 2.86201 157.565 1.16113 159.677 1.16113Z" fill="#A7A9AC"/>
<path d="M185.162 20.8311H174.162V31.8319H185.162V20.8311Z" fill="#A7A9AC"/>
<path d="M197.398 20.8311H186.397V31.8319H197.398V20.8311Z" fill="#A7A9AC"/>
<path d="M185.162 8.56836H174.162V19.5692H185.162V8.56836Z" fill="#A21C35"/>
<path d="M197.398 8.56836H186.397V19.5692H197.398V8.56836Z" fill="#A7A9AC"/>
<path d="M178.304 23.904V26.1535H181.541V26.9491H178.304V29.5553H177.371V23.1084H181.925V23.904L178.304 23.904Z" fill="white"/>
<path d="M189.689 23.0811H190.622V28.7324H194.106V29.5279H189.689L189.689 23.0811Z" fill="white"/>
<path d="M177.179 16.5512L177.508 15.8379C177.975 16.2768 178.798 16.5786 179.648 16.5786C180.773 16.5786 181.239 16.1397 181.239 15.591C181.239 14.0273 177.344 15.0149 177.344 12.6007C177.344 11.6131 178.112 10.7627 179.813 10.7627C180.581 10.7627 181.349 10.9547 181.898 11.3388L181.596 12.0795C181.047 11.7229 180.389 11.5583 179.84 11.5583C178.743 11.5583 178.277 12.0246 178.277 12.5733C178.277 14.137 182.172 13.1494 182.172 15.5361C182.172 16.5238 181.377 17.3742 179.676 17.3742C178.661 17.3468 177.673 17.0176 177.179 16.5512Z" fill="white"/>
<path d="M188.619 14.0547C188.619 12.1618 190.018 10.7627 191.911 10.7627C193.804 10.7627 195.176 12.1618 195.176 14.0547C195.176 15.9476 193.777 17.3468 191.911 17.3468C190.018 17.3468 188.619 15.9476 188.619 14.0547ZM194.298 14.0547C194.298 12.6282 193.283 11.5857 191.911 11.5857C190.512 11.5857 189.497 12.6282 189.497 14.0547C189.497 15.4813 190.512 16.5237 191.911 16.5237C193.283 16.5512 194.298 15.4813 194.298 14.0547Z" fill="white"/>
</g>
<defs>
<clipPath id="clip0_2094_72784">
<rect width="197.565" height="32" fill="white" transform="translate(0.0844727)"/>
</clipPath>
</defs>
</svg>
