<svg width="231" height="32" viewBox="0 0 231 32" fill="none" xmlns="http://www.w3.org/2000/svg">
<g clipPath="url(#clip0_2094_73768)">
<path d="M168.134 0.918945V31.377H161.272V0.918945H168.134Z" fill="white" fill-opacity="0.8"/>
<path d="M188.617 31.8886C181.122 31.8886 176.774 27.6295 176.774 20.179V0.918945H183.713V20.1679C183.713 23.6152 185.459 25.4055 188.617 25.4055C191.776 25.4055 193.599 23.6152 193.599 20.1679V0.918945H200.505V20.1679C200.505 27.6184 196.112 31.8774 188.617 31.8774L188.617 31.8886Z" fill="white" fill-opacity="0.8"/>
<path d="M80.1735 31.8886C72.6785 31.8886 68.3306 27.6295 68.3306 20.179V0.918945H75.2695V20.1679C75.2695 23.6152 77.0154 25.4055 80.1735 25.4055C83.3316 25.4055 85.1553 23.6152 85.1553 20.1679V0.918945H92.061V20.1679C92.061 27.6184 87.6685 31.8774 80.1735 31.8774L80.1735 31.8886Z" fill="white" fill-opacity="0.8"/>
<path d="M219.086 12.6288C215.461 11.7726 213.682 11.261 213.682 9.39285C213.682 7.85827 214.871 6.83521 217.896 6.83521C220.287 6.83521 222.756 7.55802 224.968 8.97028L225.602 9.40396L229.172 4.04406L228.549 3.64373C225.002 1.29738 221.977 0.363281 218.23 0.363281C211.758 0.363281 206.687 3.25453 206.687 9.18157C206.687 16.0872 213.081 18.2111 217.373 19.1119C220.309 19.7123 222.867 20.3907 222.867 22.5591C222.867 24.4384 220.91 25.3725 218.141 25.3725C215.372 25.328 212.77 24.2271 210.223 22.4368L209.6 21.992L209.2 22.5591L207.755 24.6274L205.897 27.2852L206.476 27.7188C210.101 30.6101 213.337 31.8889 217.674 31.8889C225.124 31.8889 229.895 28.3082 229.895 22.3478C229.895 16.0427 224.991 14.0856 219.075 12.6399L219.086 12.6288Z" fill="white" fill-opacity="0.8"/>
<path d="M146.449 31.377L140.211 21.2021H137.487V31.377H130.625V0.918945H141.746C148.985 0.918945 153.077 4.87772 153.077 11.1828C153.077 15.6087 150.864 18.7223 146.939 20.1679L154.345 31.3659H146.438L146.449 31.377ZM137.498 7.22407V15.2306H141.545C144.692 15.2306 146.06 13.9962 146.06 11.2273C146.06 8.50289 144.692 7.22407 141.545 7.22407C141.545 7.22407 137.498 7.22407 137.498 7.22407Z" fill="white" fill-opacity="0.8"/>
<path d="M96.431 31.377L106.806 0.918945H114.49L124.865 31.377H117.615L115.847 25.539H105.494L103.67 31.377H96.4199H96.431ZM107.24 19.6119H114.101C112.911 15.8644 111.588 11.2162 110.732 8.36945L110.643 8.08033L110.554 8.36945C109.697 11.2273 108.385 15.8644 107.229 19.6119H107.24Z" fill="white" fill-opacity="0.8"/>
<path d="M0.25293 31.377L10.628 0.918945H18.312L28.6871 31.377H21.4368L19.6687 25.539H9.31585L7.49214 31.377H0.25293ZM11.0617 19.6119H17.9228C16.733 15.8644 15.4097 11.2162 14.5534 8.36945L14.4645 8.08033L14.3755 8.36945C13.5193 11.2273 12.2071 15.8644 11.0506 19.6119H11.0617Z" fill="white" fill-opacity="0.8"/>
<path d="M62.0472 25.2607H55.4307V31.8772H62.0472V25.2607Z" fill="#079AB7"/>
<path d="M55.4309 18.6445H48.8145V25.261H55.4309V18.6445Z" fill="white"/>
<path d="M46.29 0.363281C37.5829 0.363281 30.5327 7.42458 30.5327 16.1205C30.5327 24.8276 37.594 31.8778 46.29 31.8778H48.8142V25.2613H46.29C41.2525 25.2613 37.1492 21.158 37.1492 16.1205C37.1492 11.0831 41.2525 6.97978 46.29 6.97978C51.3274 6.97978 55.4307 11.0831 55.4307 16.1205V18.6448H62.0472V16.1205C62.0472 7.42458 54.997 0.363281 46.29 0.363281Z" fill="white"/>
</g>
<defs>
<clipPath id="clip0_2094_73768">
<rect width="230.076" height="32" fill="white" transform="translate(0.112305)"/>
</clipPath>
</defs>
</svg>
