<svg width="90" height="32" viewBox="0 0 90 32" fill="none" xmlns="http://www.w3.org/2000/svg">
<g clipPath="url(#clip0_2094_73791)">
<path d="M50.7389 14.533C50.5309 13.1464 50.3922 11.5518 50.6002 10.3038C50.6695 9.88785 50.8082 9.33322 51.0162 8.91724C51.2242 8.50125 51.5708 8.22393 52.0561 8.3626C53.1654 8.63992 52.2641 12.5917 50.7389 14.533ZM73.4099 10.3732C73.6872 10.4425 74.2418 10.5812 74.0338 11.6211C73.6872 13.2157 72.0233 14.4637 69.9434 14.533C70.8446 11.9678 72.2312 10.0959 73.4099 10.3732ZM89.1478 24.4472C88.8705 23.8926 88.1772 23.7539 87.6919 24.0312C85.9586 25.1405 84.2947 25.5565 83.7401 25.3485C83.6708 24.8632 84.1561 23.3379 85.1267 22.09C86.5133 20.2874 86.9986 18.6928 86.652 17.5142C86.444 16.8902 85.9587 16.1276 84.5721 15.7809C82.8388 15.3649 80.8282 17.0288 78.8176 19.3861C79.2336 17.5142 79.5803 15.5729 79.7189 13.6317C79.7883 12.5224 79.2336 12.2451 78.9563 12.1064C78.055 11.8291 77.7777 12.7304 77.5004 13.1464C77.223 13.6317 76.9457 14.117 76.6684 14.6023C75.6284 16.4742 72.3006 22.09 70.6367 21.674C68.9727 21.258 68.9727 18.6928 69.4581 16.4049C72.6473 16.6129 75.2125 14.8796 75.8364 12.1064C76.2524 10.1652 75.4205 8.6399 73.6872 8.22391C71.122 7.59994 68.9034 10.3732 67.7248 13.8397C67.2395 13.7703 66.1995 13.4237 65.8529 13.1464C65.9222 10.4425 65.6449 7.59994 64.1196 7.18396C62.8717 6.90664 61.8317 7.53061 61.5544 8.84788C61.2078 10.4425 62.0397 12.5224 63.6343 14.117C63.4957 16.0582 63.0797 18.1381 62.317 19.3861C61.9011 20.0101 61.6237 20.0101 61.4851 20.0101C61.2078 19.8021 59.8212 14.949 59.4745 10.9971C59.4052 9.61052 58.2959 9.3332 57.7412 9.40253C57.0479 9.40253 56.4933 10.0265 56.5626 10.7891C56.7706 17.0289 55.4533 18.6928 55.0374 19.0394C54.8294 19.2474 54.4827 19.3861 53.8588 19.2474C53.1655 19.0394 52.4028 18.0688 51.7789 16.7515C54.4134 14.3943 56.216 10.3038 55.6614 7.53061C55.384 6.144 54.5521 5.24272 53.3735 4.89607C51.0162 4.34143 49.075 5.93602 48.3817 9.05588C47.8964 11.3438 48.1737 14.325 49.075 16.8209C47.8964 18.4848 46.7178 20.0101 45.6085 19.7328C44.7765 19.5248 44.5685 17.1675 46.7871 11.4825C47.3417 10.0265 47.0644 8.91723 46.7871 8.29327C46.1631 6.97599 44.7765 6.07469 42.5579 5.52006C42.0726 5.38139 41.518 5.24274 41.0327 5.10407C40.6167 2.95483 39.854 1.49889 38.5368 1.15224C37.1502 0.805585 35.8329 1.70687 35.4862 3.16281C35.0703 4.9654 36.7342 6.21334 38.8141 7.11464C38.9528 8.50125 39.0914 10.0265 39.1607 11.5518C39.4381 17.5142 38.8834 19.1088 38.6061 19.5248C37.9128 19.1781 36.8728 16.9595 36.3875 15.0876C36.1795 14.3943 35.5556 14.0477 34.9316 14.1863C34.3076 14.325 33.8223 14.949 33.8916 15.6423C34.169 18.4155 33.1983 21.1887 32.297 21.3967C32.2277 21.3967 32.0891 21.466 31.8117 21.1194C30.7024 19.9407 30.0091 16.1969 30.7024 13.077C31.1878 10.7892 31.8117 10.0959 32.0891 10.1652C32.4357 10.2345 32.6437 10.4425 33.1983 11.7598C33.545 12.661 34.2383 12.7304 34.7236 12.5224C35.3476 12.2451 35.5556 11.5518 35.3476 10.8585C34.6543 8.43192 33.337 7.32263 31.8117 7.4613C30.6331 7.53063 29.1078 8.50125 28.2066 12.4531C27.9986 13.493 27.8599 14.6023 27.8599 15.7116C27.8599 17.7222 25.9187 22.4367 24.948 22.9913C24.8094 23.0606 24.74 22.9913 24.74 22.9913C24.6014 22.8526 23.3534 21.5353 24.4627 13.0771C25.156 8.08528 25.572 2.67753 22.2442 1.9149C21.2735 1.70691 20.3029 1.9149 19.4709 2.53886C17.8763 3.7868 17.0444 7.94661 16.4204 11.5518C16.0044 4.41079 13.7859 0.112303 11.0127 0.0429688C10.1807 0.0429688 9.41806 0.389621 8.79409 1.08292C7.19949 3.02416 7.33815 9.7492 7.96213 16.4049C6.85284 10.2345 4.77293 4.96542 2.90102 2.46953C2.48503 1.91489 1.37575 1.70689 0.82111 2.19221C0.266466 2.67753 0.197142 3.50948 0.613117 4.06414C3.52499 7.94664 6.2982 18.6235 7.96213 25.0019C8.44744 26.7351 8.79409 28.2604 9.14074 29.3004C9.55673 30.687 9.9727 31.6576 10.8047 31.8656C11.6366 32.0736 12.2606 31.2416 12.3993 30.6177C12.5379 29.9937 12.3299 29.2311 11.8446 26.5272C11.2206 22.9913 10.458 17.6529 10.042 12.7305C9.41806 5.17347 10.25 3.23221 10.666 2.74691C10.8047 2.60824 10.874 2.60824 10.874 2.60824C10.9433 2.60824 12.1913 2.67757 13.5085 9.6106C14.2712 13.9091 14.8258 18.9702 15.0338 21.6741C15.1031 22.298 15.1031 22.8527 15.1725 23.1993C15.2418 23.754 15.3111 24.9326 16.4204 24.9326C16.9751 24.9326 17.599 24.5859 17.7377 23.754C17.807 23.4073 17.807 22.8527 17.8763 21.6047C18.2923 11.6212 19.3323 5.86675 20.9269 4.48014C21.1349 4.27216 21.3429 4.27216 21.6202 4.34148C21.9668 4.41081 22.8681 5.24276 21.8975 12.5918C20.7189 21.7434 21.9668 23.9619 23.0761 24.9325C23.8387 25.5565 24.74 25.6952 25.7106 25.3485C26.8199 24.9326 27.8599 22.7833 28.5532 20.4954C28.8998 21.3967 29.3158 22.2287 29.8705 22.7833C30.3558 23.3379 30.9104 23.6153 31.4651 23.7539C31.881 23.8233 32.2277 23.8233 32.6437 23.7539C34.2383 23.4073 35.2089 21.9513 35.7635 20.1487C36.3875 20.9807 37.1501 21.7433 37.9821 21.9513C38.6754 22.1593 39.5074 22.0207 39.9927 21.466C40.9633 20.2874 41.5179 17.1675 41.2406 11.0665C41.1713 9.88785 41.102 8.70925 41.0326 7.6693C41.2406 7.73863 41.7259 7.94661 41.8646 7.94661C43.1819 8.29327 44.1525 8.77858 44.4298 9.33322C44.4991 9.40255 44.6378 9.67987 44.3605 10.3038C42.4192 15.2263 41.9339 18.4155 42.8352 20.2181C43.2512 21.05 43.9445 21.6047 44.8458 21.8126C47.203 22.3673 49.0056 20.1487 49.9762 18.7621C50.8082 20.2181 51.9175 21.3273 53.1654 21.674C56.1466 22.3673 57.3252 19.5941 57.8105 16.6822C58.7812 20.634 59.6825 21.7433 60.7224 22.0207C61.3464 22.1593 62.6637 22.2286 63.7036 20.634C64.2583 19.8021 64.7436 18.6235 65.0209 17.1675C65.0902 16.6822 65.2289 16.0582 65.2982 15.3649C65.5755 15.5036 66.4768 15.7809 66.7541 15.8503C65.9222 19.8021 66.8235 23.0606 69.8047 23.7539C72.2312 24.3085 74.4498 21.6047 76.4604 18.2075C76.0444 20.0101 75.5591 21.8127 74.8658 23.6152C74.4498 24.7245 75.0738 25.1405 75.2818 25.2792C76.1137 25.7645 76.7377 25.0018 76.9457 24.7245C77.1537 24.5165 77.3617 24.1699 77.7083 23.7539C78.5403 22.6446 79.7882 21.05 81.0362 19.7328C82.0068 18.6928 82.7694 18.2075 83.1854 18.3462C83.8094 18.4848 83.8094 19.4554 82.9081 20.634C82.0068 21.8127 80.9669 24.1699 81.2442 25.8338C81.3828 26.6658 81.7988 27.0817 82.1455 27.2898C82.3535 27.4284 82.6308 27.4977 82.8388 27.5671C84.9187 28.0524 87.9692 26.1805 88.3852 25.9725C89.2865 25.6952 89.4252 25.0019 89.1478 24.4472Z" fill="#E21F26"/>
</g>
<defs>
<clipPath id="clip0_2094_73791">
<rect width="89.098" height="32" fill="white" transform="translate(0.291992)"/>
</clipPath>
</defs>
</svg>
