<svg width="193" height="32" viewBox="0 0 193 32" fill="none" xmlns="http://www.w3.org/2000/svg">
<g clipPath="url(#clip0_2094_74475)">
<path d="M0.935059 20.7434L23.1154 4.11035L34.1168 11.8009V8.04506L23.1154 0.354492L0.935059 16.9876V20.7434Z" fill="url(#paint0_linear_2094_74475)"/>
<path d="M0.935059 26.4672L23.1154 9.65527L34.1168 17.3459V13.5899L23.1154 5.89941L0.935059 22.5325V26.4672Z" fill="url(#paint1_linear_2094_74475)"/>
<path d="M0.935059 28.2553V31.8323L23.1154 15.0204L34.1168 22.7109V19.1339L23.1154 11.4434L0.935059 28.2553Z" fill="url(#paint2_linear_2094_74475)"/>
<path d="M0.935059 20.7434L23.1154 4.11035L34.1168 11.8009V8.04506L23.1154 0.354492L0.935059 16.9876V20.7434Z" stroke="url(#paint3_linear_2094_74475)" stroke-width="0.0576468"/>
<path d="M0.935059 20.7434L23.1154 4.11035L34.1168 11.8009V8.04506L23.1154 0.354492L0.935059 16.9876V20.7434Z" stroke="white" stroke-width="0.0576468"/>
<path d="M0.935059 26.4672L23.1154 9.65527L34.1168 17.3459V13.5899L23.1154 5.89941L0.935059 22.5325V26.4672Z" stroke="url(#paint4_linear_2094_74475)" stroke-width="0.0576468"/>
<path d="M0.935059 26.4672L23.1154 9.65527L34.1168 17.3459V13.5899L23.1154 5.89941L0.935059 22.5325V26.4672Z" stroke="white" stroke-width="0.0576468"/>
<path d="M0.935059 28.2553V31.8323L23.1154 15.0204L34.1168 22.7109V19.1339L23.1154 11.4434L0.935059 28.2553Z" stroke="url(#paint5_linear_2094_74475)" stroke-width="0.0576468"/>
<path d="M0.935059 28.2553V31.8323L23.1154 15.0204L34.1168 22.7109V19.1339L23.1154 11.4434L0.935059 28.2553Z" stroke="white" stroke-width="0.0576468"/>
<path d="M27.4795 23.5488H19.1841V31.8324H27.4795V23.5488Z" fill="#EB6824"/>
<path d="M61.3994 9.28822H51.9685V13.3739H55.3636C57.8495 13.3739 59.8179 13.9776 61.2688 15.185C62.7294 16.3826 63.4597 18.0005 63.4597 20.0385C63.4597 22.0862 62.7342 23.7331 61.2833 24.979C59.842 26.2153 57.922 26.8432 55.5232 26.8625H47.5723V5.76758H61.3994V9.28822ZM51.9685 16.8801V23.3708H55.4362C56.5485 23.3708 57.4336 23.0666 58.0914 22.458C58.7587 21.8496 59.0925 21.0333 59.0925 20.0096C59.0925 19.0533 58.7733 18.2999 58.1349 17.7494C57.5061 17.1892 56.6405 16.8994 55.5378 16.8801H51.9685Z" fill="#1F448F"/>
<path d="M83.2652 18.271H80.7551V26.8625H76.4024V18.271H73.8343L69.2349 26.8625H63.8086L70.3957 15.5472L64.1278 5.76758H69.5396L74.2406 14.2721H76.4024V5.76758H80.7551V14.2721H82.8735L87.4583 5.76758H92.8557L86.7038 15.5326L93.1893 26.8625H87.7484L83.2652 18.271Z" fill="#1F448F"/>
<path d="M106.915 7.6512H107.176C108.831 7.6512 110.325 8.01824 111.66 8.75231C113.005 9.47673 114.049 10.5102 114.794 11.8528C115.539 13.1953 115.911 14.7215 115.911 16.4311C115.911 18.9617 115.098 21.0287 113.474 22.632C111.858 24.2354 109.672 25.0371 106.915 25.0371V27.7319H102.722V25.0371H102.447C100.773 25.0371 99.2642 24.6798 97.9197 23.965C96.5753 23.2406 95.5306 22.2264 94.7858 20.9225C94.0506 19.6185 93.6831 18.131 93.6831 16.4601C93.6831 14.7698 94.0506 13.2582 94.7858 11.9252C95.5209 10.5923 96.551 9.55399 97.8762 8.81026C99.2013 8.05687 100.681 7.67052 102.316 7.6512H102.722V4.89844H106.915V7.6512ZM102.447 11.2587C101.005 11.2587 99.8688 11.7127 99.0369 12.6207C98.2147 13.5286 97.8036 14.8084 97.8036 16.4601C97.8036 18.0054 98.2147 19.2225 99.0369 20.1111C99.8591 20.9901 101.015 21.4296 102.505 21.4296H102.722V11.2587H102.447ZM106.915 11.2587V21.4296H107.205C108.627 21.4296 109.745 20.9852 110.557 20.0966C111.379 19.1983 111.791 17.9765 111.791 16.4311C111.791 14.818 111.389 13.5527 110.586 12.6351C109.784 11.7176 108.632 11.2587 107.133 11.2587H106.915Z" fill="#1F448F"/>
<path d="M139.378 9.28822H129.946V13.3739H133.342C135.827 13.3739 137.796 13.9776 139.247 15.1849C140.707 16.3826 141.438 18.0005 141.438 20.0386C141.438 22.0862 140.713 23.733 139.261 24.979C137.82 26.2153 135.901 26.8432 133.501 26.8625H125.551V5.76758H139.378V9.28822ZM129.946 16.8801V23.3708H133.414C134.526 23.3708 135.412 23.0666 136.07 22.458C136.737 21.8496 137.071 21.0334 137.071 20.0095C137.071 19.0533 136.752 18.2999 136.113 17.7494C135.484 17.1892 134.618 16.8994 133.516 16.8801H129.946Z" fill="#1F448F"/>
<path d="M153.045 26.8626C152.851 26.4859 152.711 26.0174 152.624 25.4572C151.609 26.5873 150.288 27.1524 148.663 27.1524C147.126 27.1524 145.849 26.708 144.833 25.8194C143.827 24.9308 143.324 23.8104 143.324 22.4581C143.324 20.7968 143.938 19.5219 145.167 18.6333C146.405 17.7447 148.19 17.2955 150.52 17.2858H152.451V16.3876C152.451 15.6631 152.262 15.0836 151.884 14.6489C151.517 14.2143 150.931 13.997 150.129 13.997C149.422 13.997 148.866 14.1661 148.46 14.5041C148.064 14.8421 147.865 15.3058 147.865 15.8949H143.673C143.673 14.987 143.953 14.1468 144.514 13.374C145.074 12.6013 145.868 11.9976 146.893 11.563C147.919 11.1187 149.07 10.8965 150.346 10.8965C152.281 10.8965 153.814 11.3843 154.946 12.3598C156.087 13.3257 156.658 14.6876 156.658 16.4455V23.2406C156.668 24.728 156.875 25.8532 157.281 26.6162V26.8626H153.045ZM149.578 23.9505C150.197 23.9505 150.768 23.8152 151.289 23.5447C151.812 23.2647 152.199 22.8928 152.451 22.4292V19.7344H150.883C148.785 19.7344 147.667 20.4588 147.532 21.9076L147.517 22.1538C147.517 22.6754 147.701 23.1053 148.069 23.4434C148.436 23.7814 148.939 23.9505 149.578 23.9505Z" fill="#1F448F"/>
<path d="M173.488 26.8619H169.28V20.8347H164.072V26.8619H159.878V11.1855H164.072V17.4734H169.28V11.1855H173.488V26.8619Z" fill="#1F448F"/>
<path d="M182.889 21.081H181.206V26.8619H177.014V11.1855H181.206V17.0823H182.702L186.125 11.1855H191.421L186.285 18.647L191.901 26.8619H186.314L182.889 21.081Z" fill="#1F448F"/>
</g>
<defs>
<linearGradient id="paint0_linear_2094_74475" x1="34.1168" y1="10.549" x2="0.935059" y2="10.549" gradientUnits="userSpaceOnUse">
<stop stop-color="#1EA64A"/>
<stop offset="1" stop-color="#174995"/>
</linearGradient>
<linearGradient id="paint1_linear_2094_74475" x1="-8.61491" y1="16.1833" x2="-8.27806" y2="16.1833" gradientUnits="userSpaceOnUse">
<stop stop-color="#1EA64A"/>
<stop offset="1" stop-color="#174995"/>
</linearGradient>
<linearGradient id="paint2_linear_2094_74475" x1="-8.61491" y1="21.6378" x2="-8.27806" y2="21.6378" gradientUnits="userSpaceOnUse">
<stop stop-color="#1EA64A"/>
<stop offset="1" stop-color="#174995"/>
</linearGradient>
<linearGradient id="paint3_linear_2094_74475" x1="34.5866" y1="10.56" x2="0.995693" y2="10.56" gradientUnits="userSpaceOnUse">
<stop stop-color="#1EA64A"/>
<stop offset="1" stop-color="#174995"/>
</linearGradient>
<linearGradient id="paint4_linear_2094_74475" x1="34.5866" y1="16.1945" x2="0.995693" y2="16.1945" gradientUnits="userSpaceOnUse">
<stop stop-color="#1EA64A"/>
<stop offset="1" stop-color="#174995"/>
</linearGradient>
<linearGradient id="paint5_linear_2094_74475" x1="34.5866" y1="21.649" x2="0.995693" y2="21.649" gradientUnits="userSpaceOnUse">
<stop stop-color="#1EA64A"/>
<stop offset="1" stop-color="#174995"/>
</linearGradient>
<clipPath id="clip0_2094_74475">
<rect width="191.326" height="32" fill="white" transform="translate(0.803711)"/>
</clipPath>
</defs>
</svg>
