<svg width="203" height="32" viewBox="0 0 203 32" fill="none" xmlns="http://www.w3.org/2000/svg">
<g clipPath="url(#clip0_2094_73905)">
<mask id="mask0_2094_73905" style="mask-type:luminance" maskUnits="userSpaceOnUse" x="0" y="0" width="203" height="32">
<path d="M202.094 0.0615234H0.519043V31.8044H202.094V0.0615234Z" fill="white"/>
</mask>
<g mask="url(#mask0_2094_73905)">
<path fillRule="evenodd" clipRule="evenodd" d="M3.04365 0.0714696C5.81521 0.0714696 8.47157 0.0428997 11.1266 0.0826024C12.5022 0.103251 13.2621 0.964753 13.1577 2.27676C12.9253 5.14107 12.6777 8.05543 12.4316 10.961H26.9308C27.2263 7.38344 27.5235 3.73573 27.8238 0.104163H38.0479L35.603 30.7357C35.5814 31.0792 35.5614 31.3141 35.0821 31.3116C31.8635 31.2941 28.6472 31.3013 25.3001 31.3013C25.6674 26.7061 26.0328 22.1422 26.4013 17.5368H11.9072C11.539 22.0886 11.1686 26.64 10.7956 31.2464H0.519043L3.04365 0.0714696Z" fill="#00AE9C"/>
<path fillRule="evenodd" clipRule="evenodd" d="M112.901 31.4519C113.387 24.1187 113.872 16.823 114.359 9.48242C119.745 8.88982 123.38 8.50124 127.799 8.43997C134.036 8.35296 141.974 7.73967 141.973 15.305L140.949 31.443H131.573L132.541 15.9656C132.646 13.2695 129.731 13.2533 127.643 13.3384C126.27 13.3949 124.904 13.5457 123.469 13.6619C123.087 19.6209 122.706 25.5193 122.323 31.4519H112.901Z" fill="#00AE9C"/>
<path fillRule="evenodd" clipRule="evenodd" d="M103.033 17.4237C103.04 14.195 100.459 12.6503 97.4814 12.7103C94.7227 12.7662 91.7079 14.2518 91.2734 17.4237H103.033ZM90.8197 21.8653C90.8727 24.809 94.1421 26.145 96.6843 26.5892C100.87 27.3205 105.906 26.393 110.211 25.8308L109.441 30.568C103.971 32.0853 92.7629 32.6247 86.8308 29.7201C81.5661 27.1422 80.1332 21.3558 82.3173 16.4063C84.7277 10.945 90.851 8.33531 96.7241 8.14043C101.15 7.99284 105.697 9.14641 108.452 11.8834C110.762 14.1778 111.928 17.5897 111.137 21.8653H90.8197Z" fill="#00AE9C"/>
<path fillRule="evenodd" clipRule="evenodd" d="M193.744 17.4237C193.751 14.195 191.169 12.6503 188.192 12.7103C185.433 12.7662 182.418 14.2518 181.984 17.4237H193.744ZM181.53 21.8653C181.583 24.809 184.852 26.145 187.394 26.5892C191.58 27.3205 196.616 26.393 200.921 25.8308L200.151 30.568C194.681 32.0853 183.473 32.6247 177.541 29.7201C172.276 27.1422 170.843 21.3558 173.028 16.4063C175.438 10.945 181.561 8.33531 187.434 8.14043C191.86 7.99284 196.407 9.14641 199.162 11.8834C201.472 14.1778 202.638 17.5897 201.847 21.8653H181.53Z" fill="#00AE9C"/>
<path fillRule="evenodd" clipRule="evenodd" d="M79.3517 14.027C75.4975 13.4067 68.1023 12.2471 64.5936 13.2515C62.4742 14.0699 65.5231 15.3349 66.2168 15.6428C69.2162 16.9742 73.1405 18.2557 76.0308 19.886C81.4217 22.2481 82.4056 29.3023 73.0299 31.0073C67.8605 31.9815 58.4425 31.3184 52.8223 30.6724L53.2408 25.5384C60.3074 26.5961 62.4767 26.5437 67.6582 26.5415C68.4952 26.5412 69.7915 25.4879 68.6587 24.8832C64.4432 22.8488 57.7968 21.2673 54.8066 18.2811C52.4767 15.9571 52.8621 12.4455 55.6073 10.5711C61.1846 6.76048 74.2907 8.08674 79.8527 9.21552L79.3517 14.027Z" fill="#00AE9C"/>
<path fillRule="evenodd" clipRule="evenodd" d="M170.107 14.027C166.252 13.4067 158.857 12.2471 155.349 13.2515C153.229 14.0699 156.278 15.3349 156.972 15.6428C159.971 16.9742 163.895 18.2557 166.786 19.886C172.177 22.2481 173.16 29.3023 163.785 31.0073C158.615 31.9815 149.197 31.3184 143.577 30.6724L143.996 25.5384C151.062 26.5961 153.232 26.5437 158.413 26.5415C159.25 26.5412 160.546 25.4879 159.414 24.8832C155.198 22.8488 148.552 21.2673 145.562 18.2811C143.232 15.9571 143.617 12.4455 146.362 10.5711C151.939 6.76048 165.046 8.08674 170.608 9.21552L170.107 14.027Z" fill="#00AE9C"/>
</g>
<path fillRule="evenodd" clipRule="evenodd" d="M41.1269 8.5625H51.1853C50.5798 16.1497 49.9764 23.7019 49.3733 31.2675H39.314C39.9205 23.6743 40.5228 16.1211 41.1269 8.5625Z" fill="#00AE9C"/>
<path fillRule="evenodd" clipRule="evenodd" d="M41.3716 6.07766C41.5341 4.04349 41.6884 2.09442 41.8466 0.101519L49.7122 0.0742188C52.6114 0.076747 51.6813 2.12488 51.4217 6.07766H41.3716Z" fill="#00AE9C"/>
</g>
<defs>
<clipPath id="clip0_2094_73905">
<rect width="201.956" height="32" fill="white" transform="translate(0.395996)"/>
</clipPath>
</defs>
</svg>
