<svg width="101" height="32" viewBox="0 0 101 32" fill="none" xmlns="http://www.w3.org/2000/svg">
<g clipPath="url(#clip0_2094_72757)">
<mask id="mask0_2094_72757" style="mask-type:luminance" maskUnits="userSpaceOnUse" x="0" y="0" width="101" height="32">
<path d="M100.348 0.0185547H0.667969V31.9161H100.348V0.0185547Z" fill="white"/>
</mask>
<g mask="url(#mask0_2094_72757)">
<path d="M0.667969 7.9906L14.475 0.0185547L28.282 7.9906V23.944L14.475 31.9161L0.667969 23.944V7.9906Z" fill="#0B91CF"/>
<path d="M42.5531 16.0651C42.008 15.5734 41.2318 15.2023 40.2339 14.9611C39.2175 14.7106 38.58 14.4972 38.2935 14.3116C37.9978 14.1168 37.85 13.9591 37.85 13.6344C37.85 13.319 37.9516 13.1148 38.2011 12.92C38.4505 12.7345 38.774 12.688 39.1805 12.688H42.4053V10.7119H39.2452C38.1826 10.7119 37.2863 10.981 36.5748 11.5191C35.8541 12.0664 35.5122 12.7159 35.5122 13.6808C35.5122 14.6364 35.771 15.2765 36.3439 15.759C36.9075 16.2229 37.8037 16.6032 39.0234 16.9001C39.7904 17.0857 40.354 17.2527 40.6312 17.4476C40.9176 17.6516 41.0193 17.9022 41.0193 18.2269C41.0193 18.5423 40.8991 18.765 40.6312 18.9783C40.3909 19.1639 40.0583 19.2474 39.5779 19.2474H35.5122V21.2421H39.5316C40.6774 21.2421 41.6106 20.9452 42.3037 20.3608C43.0244 19.7577 43.3478 19.0804 43.3478 18.1619C43.3755 17.2527 43.1167 16.5754 42.5531 16.0651Z" fill="white"/>
<path d="M60.7763 16.0651C60.2312 15.5734 59.455 15.2023 58.4571 14.9611C57.4407 14.7106 56.8031 14.4972 56.5166 14.3116C56.221 14.1168 56.0731 13.9591 56.0731 13.6344C56.0731 13.319 56.1747 13.1148 56.4243 12.92C56.6737 12.7345 56.9971 12.688 57.4037 12.688H60.6377V10.7119H57.4776C56.415 10.7119 55.5187 10.981 54.8072 11.5191C54.0865 12.0664 53.7446 12.7159 53.7446 13.6808C53.7446 14.6364 54.0033 15.2765 54.5762 15.759C55.1399 16.2229 56.0361 16.6032 57.2558 16.9001C58.0228 17.0857 58.5864 17.2527 58.8636 17.4476C59.1501 17.6516 59.2517 17.9022 59.2517 18.2269C59.2517 18.5423 59.1316 18.765 58.8636 18.9783C58.6234 19.1639 58.2907 19.2474 57.8103 19.2474H53.7446V21.2421H57.764C58.9098 21.2421 59.843 20.9452 60.5361 20.3608C61.2568 19.7577 61.5802 19.0804 61.5802 18.1619C61.5894 17.2527 61.34 16.5754 60.7763 16.0651Z" fill="white"/>
<path d="M48.4325 14.7106L46.1225 10.7119H43.6831L47.3052 17.0672V21.2328H49.5597V17.0672L53.1911 10.7119H50.7518L48.4325 14.7106Z" fill="white"/>
<path d="M62.2544 12.651H65.2481V21.2328H67.512V12.651H70.5057V10.7119H62.2544V12.651Z" fill="white"/>
<path d="M74.3806 16.9279H79.1207V15.0075H74.3806V12.7159H79.6473V10.7119H72.126V21.2328H79.8137V19.2381H74.3806V16.9279Z" fill="white"/>
<path d="M98.0146 10.7119V15.1466H93.6997V10.7119H91.4453V21.2328H93.6997V17.0486H98.0146V21.2328H100.27V10.7119H98.0146Z" fill="white"/>
<path d="M82.5216 12.2238C81.4402 13.2815 80.9785 14.3948 80.9785 15.9441C80.9785 17.4564 81.4777 18.6533 82.5399 19.7017C83.575 20.7222 84.9242 21.2418 86.5319 21.2418H89.4704V19.1264H86.421C85.5614 19.1264 84.8222 18.8203 84.2217 18.2172C83.5933 17.5863 83.3166 16.8812 83.3166 15.9256C83.3166 14.9422 83.575 14.3298 84.2313 13.7175C84.8038 13.1887 85.5614 12.9104 86.4944 12.8825H89.4888V10.7208H86.4944C84.878 10.7115 83.5471 11.2218 82.5216 12.2238Z" fill="white"/>
<path d="M12.9922 16.0651C12.447 15.5734 11.6708 15.2023 10.6729 14.9611C9.65649 14.7106 9.01894 14.4972 8.7325 14.3116C8.43682 14.1168 8.28898 13.9591 8.28898 13.6344C8.28898 13.319 8.39062 13.1148 8.6401 12.92C8.8896 12.7345 9.21296 12.688 9.61957 12.688H12.8628V10.7119H9.70275C8.6401 10.7119 7.74381 10.981 7.03233 11.5191C6.3116 12.0664 5.96973 12.7159 5.96973 13.6808C5.96973 14.6364 6.22845 15.2765 6.80133 15.759C7.36497 16.2229 8.26126 16.6032 9.48098 16.9001C10.2479 17.0857 10.8115 17.2527 11.0887 17.4476C11.3751 17.6516 11.4768 17.9022 11.4768 18.2269C11.4768 18.5423 11.3567 18.765 11.0887 18.9783C10.8485 19.1639 10.5158 19.2474 10.0354 19.2474H5.96973V21.2421H9.98919C11.1349 21.2421 12.0682 20.9452 12.7612 20.3608C13.4819 19.7577 13.8053 19.0804 13.8053 18.1619C13.8145 17.2527 13.5558 16.5754 12.9922 16.0651Z" fill="white"/>
<path d="M14.4766 12.651H17.4796V21.2328H19.7342V12.651H22.728V10.7119H14.4766V12.651Z" fill="white"/>
</g>
</g>
<defs>
<clipPath id="clip0_2094_72757">
<rect width="99.8681" height="32" fill="white" transform="translate(0.514648)"/>
</clipPath>
</defs>
</svg>
