<svg width="64" height="48" viewBox="0 0 64 48" fill="none" xmlns="http://www.w3.org/2000/svg">
<g clip-path="url(#clip0_2056_20132)">
<path d="M63.6194 20.6104H40.6162V14.7227H63.6194V20.6104Z" fill="#E669A2"/>
<path d="M60.6316 20.6107H40.6162V5.88477H60.6316V20.6107Z" fill="#F3BE26"/>
<path d="M52.3623 20.6106H40.6162V0H52.3623V20.6106Z" fill="#EE9C34"/>
<path d="M54.6732 20.6106H40.6162V2.2998H54.6732V20.6106Z" fill="#F3BC87"/>
<path d="M40.6133 2.30371V20.6091H52.3613V2.30371H40.6133Z" fill="#E3721C"/>
<path d="M28.8389 20.6104H40.6175V23.5546H28.8389V20.6104Z" fill="#AD1B02"/>
<path d="M40.6133 5.88184V20.6091H54.6802V5.88184H40.6133Z" fill="#E88D14"/>
<path d="M40.6133 5.88184V20.6091H52.3613V5.88184H40.6133Z" fill="#D85604"/>
<path d="M47.9617 20.6102H40.6162V11.7715H47.9617V20.6102Z" fill="#C14303"/>
<path d="M40.6133 14.7266V20.6083H60.6387V14.7266H40.6133Z" fill="#DB4E18"/>
<path d="M40.6133 14.7266V20.6083H54.6802V14.7266H40.6133Z" fill="#D1390D"/>
<path d="M40.6133 14.7266V20.6083H52.3613V14.7266H40.6133Z" fill="#C22303"/>
<path d="M40.6133 14.7266V20.6083H47.9692V14.7266H40.6133Z" fill="#AD1B02"/>
<path d="M43.1764 31.6994C41.1723 32.0557 40.1034 33.5699 40.1034 36.1975C40.1034 38.8697 41.5286 40.6512 43.6218 40.6512C44.6461 40.6512 45.5369 40.2949 47.4074 39.3596C47.4074 41.5419 47.4074 41.5419 47.4074 41.5419C45.136 42.6108 43.7999 42.878 42.0185 42.878C40.0144 42.878 38.5892 42.3881 37.4758 41.1856C36.3178 40.0277 35.6943 38.5134 35.6943 36.7765C35.6943 32.9909 38.5447 30.3633 42.6865 30.3633C45.4033 30.3633 47.3183 31.6548 47.3183 33.4808C47.3183 34.6833 46.4276 35.5295 45.136 35.5295C44.468 35.5295 43.9336 35.3068 43.1764 34.906" fill="white"/>
<path d="M33.1563 36.7765C34.9823 34.5052 35.6504 33.5699 35.6504 32.4565C35.6504 31.3431 34.7596 30.3633 33.5126 30.3633C32.8 30.3633 32.132 30.7641 31.8202 31.1204C31.8202 35.7967 31.8202 35.7967 31.8202 35.7967C28.8363 39.805 28.8363 39.805 28.8363 39.805C28.8363 30.7196 28.8363 30.7196 28.8363 30.7196C25.986 30.7196 25.986 30.7196 25.986 30.7196C21.2651 38.5134 21.2651 38.5134 21.2651 38.5134C21.2651 30.7196 21.2651 30.7196 21.2651 30.7196C19.6618 30.7196 19.6618 30.7196 19.6618 30.7196C15.3418 31.6994 15.3418 31.6994 15.3418 31.6994C15.3418 32.8128 15.3418 32.8128 15.3418 32.8128C17.7022 33.0355 17.7022 33.0355 17.7022 33.0355C17.7022 42.6998 17.7022 42.6998 17.7022 42.6998C20.6862 42.6998 20.6862 42.6998 20.6862 42.6998C25.2289 35.2177 25.2289 35.2177 25.2289 35.2177C25.2289 42.6998 25.2289 42.6998 25.2289 42.6998C28.5691 42.6998 28.5691 42.6998 28.5691 42.6998" fill="white"/>
<path d="M6.30028 41.1854C6.65657 41.1854 6.74565 41.1854 6.96833 41.1854C9.37329 41.1854 10.7094 39.7157 10.7094 36.7763C10.7094 34.3268 9.6405 32.9907 7.63637 32.9907C7.36915 32.9907 6.96833 33.0353 6.30028 33.1689V41.1854ZM6.30028 46.4407C8.25988 46.886 8.25988 46.886 8.25988 46.886C8.25988 47.9995 8.25988 47.9995 8.25988 47.9995C0.555098 47.9995 0.555099 47.9995 0.555099 47.9995C0.555099 46.886 0.555099 46.886 0.555099 46.886C2.33655 46.4407 2.33655 46.4407 2.33655 46.4407C2.33655 32.9907 2.33655 32.9907 2.33655 32.9907C0.376953 32.9907 0.376953 32.9907 0.376953 32.9907C0.376953 31.8773 0.376953 31.8773 0.376953 31.8773C5.05326 30.4521 5.05327 30.4521 5.05327 30.4521C6.30028 30.4521 6.30028 30.4521 6.30028 30.4521C6.30028 32.0555 6.30028 32.0555 6.30028 32.0555C8.48256 30.7194 9.23968 30.4967 10.3976 30.4967C12.9807 30.4967 14.9403 32.9016 14.9403 36.2419C14.9403 40.072 12.3127 42.6996 8.30441 42.6996C7.85905 42.6996 7.10193 42.6551 6.30028 42.6106" fill="white"/>
</g>
<defs>
<clipPath id="clip0_2056_20132">
<rect width="63.2416" height="48" fill="white" transform="translate(0.378906)"/>
</clipPath>
</defs>
</svg>
