<svg width="67" height="33" viewBox="0 0 67 33" fill="none" xmlns="http://www.w3.org/2000/svg">
<g clip-path="url(#clip0_2056_20300)">
<mask id="mask0_2056_20300" style="mask-type:luminance" maskUnits="userSpaceOnUse" x="-276" y="-74" width="623" height="622">
<path d="M-275.131 547.807H346.141V-73.4656H-275.131V547.807Z" fill="white"/>
</mask>
<g mask="url(#mask0_2056_20300)">
<path d="M34.6414 28.239C33.3733 28.1544 31.9111 27.9321 30.7579 27.5981C30.5418 27.5355 29.6474 27.2068 29.4199 27.1024C25.4049 25.2426 22.6078 21.1827 22.6078 16.4726C22.6078 10.0123 27.8638 4.75009 34.3283 4.75009C40.7354 4.75009 45.9558 9.92253 46.0456 16.3098H50.2797C50.19 7.58888 43.0711 0.521137 34.3283 0.521137C25.5333 0.521137 18.3747 7.6755 18.3747 16.4726C18.3747 22.5374 21.7854 27.8121 26.7794 30.5069C27.6811 30.9838 28.9753 31.4754 29.4147 31.61C30.8382 32.0337 32.5853 32.3155 34.1404 32.4335C34.6685 32.4731 36.5127 32.494 37.0502 32.4961H66.2083V28.2786H37.0992C36.712 28.2786 35.0202 28.264 34.6414 28.239ZM37.0992 21.6169C36.7913 21.6169 35.1809 21.6064 34.8835 21.5814C34.3794 21.5386 33.6488 21.4634 33.1792 21.3559C32.649 21.214 32.1512 21.0261 31.9268 20.903C30.354 20.0524 29.2821 18.3888 29.2821 16.4726C29.2821 13.685 31.5396 11.4244 34.3283 11.4244C37.0585 11.4244 39.2784 13.5963 39.3671 16.3098H43.4353C43.3498 11.3524 39.3087 7.35719 34.3283 7.35719C29.2926 7.35719 25.2108 11.4379 25.2108 16.4726C25.2108 20.0232 27.2459 23.0895 30.2099 24.5913C30.666 24.8585 31.5239 25.1382 31.7681 25.2019C32.6052 25.4221 33.7292 25.5724 34.6414 25.6392C34.9785 25.6674 36.6296 25.6799 36.9781 25.682V25.6882H66.2072V21.6169H37.0992ZM15.7655 32.4804H11.5032V4.75949H5.27455V0.49609H15.7655V32.4804ZM0.594727 6.88962V10.9892H5.27455V32.4804H9.36992V6.88962H0.594727Z" fill="white"/>
<path d="M58.6767 0.793209C57.1414 0.793209 55.8682 2.01743 55.8682 3.55372C55.8682 5.09 57.1414 6.36328 58.6767 6.36328C60.2589 6.36328 61.4831 5.09 61.4831 3.55372C61.4831 2.01743 60.2589 0.793209 58.6767 0.793209ZM58.6767 5.91033C57.4086 5.91033 56.3159 4.91362 56.3159 3.55372C56.3159 2.2627 57.4086 1.24094 58.6767 1.24094C59.9437 1.24094 61.0312 2.2627 61.0312 3.55372C61.0312 4.91362 59.9437 5.91033 58.6767 5.91033Z" fill="white"/>
<path d="M59.7461 4.31052C59.7461 4.00055 59.7001 3.7125 59.3453 3.59874C59.7899 3.44428 59.8337 3.15309 59.8337 2.97671C59.8337 2.26388 59.1867 2.17308 58.9205 2.17308H57.6963V4.93359H58.2066V3.80121H58.6085C59.1867 3.80121 59.2347 4.06735 59.2347 4.31052C59.2347 4.78122 59.2347 4.86993 59.3453 4.93359H59.8567C59.7461 4.82192 59.7899 4.7353 59.7461 4.31052ZM58.8088 3.39835H58.2066V2.52898H58.7222C59.0792 2.52898 59.3213 2.64169 59.3213 2.97671C59.3213 3.15309 59.2347 3.39835 58.8088 3.39835Z" fill="white"/>
</g>
</g>
<defs>
<clipPath id="clip0_2056_20300">
<rect width="65.6135" height="32" fill="white" transform="translate(0.592773 0.496094)"/>
</clipPath>
</defs>
</svg>
