<svg width="33" height="33" viewBox="0 0 33 33" fill="none" xmlns="http://www.w3.org/2000/svg">
<g clip-path="url(#clip0_2056_20754)">
<path d="M7.60012 23.4961C6.34747 23.4958 5.11785 23.1594 4.03951 22.522C2.96118 21.8846 2.07364 20.9695 1.4695 19.8722C0.865355 18.7748 0.566737 17.5355 0.604795 16.2834C0.642853 15.0314 1.01619 13.8124 1.68587 12.7538C2.35555 11.6952 3.29702 10.8357 4.41208 10.2649C5.52714 9.69419 6.77493 9.43311 8.02528 9.50893C9.27562 9.58475 10.4827 9.99471 11.5206 10.696C12.5586 11.3973 13.3893 12.3643 13.9261 13.4961H28.6001L31.6001 16.4961L28.6001 19.4961L26.6001 17.4961L24.6001 19.4961L22.6001 17.4961L20.6001 19.4961L18.6001 17.4961L16.6001 19.4961H13.9261C13.3583 20.6932 12.4624 21.7045 11.3426 22.4126C10.2228 23.1206 8.92502 23.4964 7.60012 23.4961ZM5.60012 18.4961C6.13055 18.4961 6.63926 18.2854 7.01433 17.9103C7.38941 17.5352 7.60012 17.0265 7.60012 16.4961C7.60012 15.9657 7.38941 15.457 7.01433 15.0819C6.63926 14.7068 6.13055 14.4961 5.60012 14.4961C5.06969 14.4961 4.56098 14.7068 4.1859 15.0819C3.81083 15.457 3.60012 15.9657 3.60012 16.4961C3.60012 17.0265 3.81083 17.5352 4.1859 17.9103C4.56098 18.2854 5.06969 18.4961 5.60012 18.4961Z" fill="white"/>
</g>
<defs>
<clipPath id="clip0_2056_20754">
<rect width="32" height="32" fill="white" transform="translate(0.600586 0.496094)"/>
</clipPath>
</defs>
</svg>
