<svg width="33" height="33" viewBox="0 0 33 33" fill="none" xmlns="http://www.w3.org/2000/svg">
<g clip-path="url(#clip0_2056_20750)">
<path d="M4.80078 18.4961C3.73992 18.4961 2.7225 18.9175 1.97235 19.6677C1.22221 20.4178 0.800781 21.4352 0.800781 22.4961L0.800781 24.4961C0.800781 25.557 1.22221 26.5744 1.97235 27.3245C2.7225 28.0747 3.73992 28.4961 4.80078 28.4961H28.8008C29.8616 28.4961 30.8791 28.0747 31.6292 27.3245C32.3794 26.5744 32.8008 25.557 32.8008 24.4961V22.4961C32.8008 21.4352 32.3794 20.4178 31.6292 19.6677C30.8791 18.9175 29.8616 18.4961 28.8008 18.4961H4.80078ZM5.80078 24.4961C5.53556 24.4961 5.28121 24.3907 5.09367 24.2032C4.90614 24.0157 4.80078 23.7613 4.80078 23.4961C4.80078 23.2309 4.90614 22.9765 5.09367 22.789C5.28121 22.6014 5.53556 22.4961 5.80078 22.4961C6.066 22.4961 6.32035 22.6014 6.50789 22.789C6.69542 22.9765 6.80078 23.2309 6.80078 23.4961C6.80078 23.7613 6.69542 24.0157 6.50789 24.2032C6.32035 24.3907 6.066 24.4961 5.80078 24.4961ZM9.80078 24.4961C9.53556 24.4961 9.28121 24.3907 9.09367 24.2032C8.90614 24.0157 8.80078 23.7613 8.80078 23.4961C8.80078 23.2309 8.90614 22.9765 9.09367 22.789C9.28121 22.6014 9.53556 22.4961 9.80078 22.4961C10.066 22.4961 10.3204 22.6014 10.5079 22.789C10.6954 22.9765 10.8008 23.2309 10.8008 23.4961C10.8008 23.7613 10.6954 24.0157 10.5079 24.2032C10.3204 24.3907 10.066 24.4961 9.80078 24.4961ZM4.80078 4.49609C3.73992 4.49609 2.7225 4.91752 1.97235 5.66767C1.22221 6.41781 0.800781 7.43523 0.800781 8.49609L0.800781 10.4961C0.800781 11.557 1.22221 12.5744 1.97235 13.3245C2.7225 14.0747 3.73992 14.4961 4.80078 14.4961H28.8008C29.8616 14.4961 30.8791 14.0747 31.6292 13.3245C32.3794 12.5744 32.8008 11.557 32.8008 10.4961V8.49609C32.8008 7.43523 32.3794 6.41781 31.6292 5.66767C30.8791 4.91752 29.8616 4.49609 28.8008 4.49609H4.80078ZM5.80078 10.4961C5.53556 10.4961 5.28121 10.3907 5.09367 10.2032C4.90614 10.0157 4.80078 9.76131 4.80078 9.49609C4.80078 9.23088 4.90614 8.97652 5.09367 8.78899C5.28121 8.60145 5.53556 8.49609 5.80078 8.49609C6.066 8.49609 6.32035 8.60145 6.50789 8.78899C6.69542 8.97652 6.80078 9.23088 6.80078 9.49609C6.80078 9.76131 6.69542 10.0157 6.50789 10.2032C6.32035 10.3907 6.066 10.4961 5.80078 10.4961ZM9.80078 10.4961C9.53556 10.4961 9.28121 10.3907 9.09367 10.2032C8.90614 10.0157 8.80078 9.76131 8.80078 9.49609C8.80078 9.23088 8.90614 8.97652 9.09367 8.78899C9.28121 8.60145 9.53556 8.49609 9.80078 8.49609C10.066 8.49609 10.3204 8.60145 10.5079 8.78899C10.6954 8.97652 10.8008 9.23088 10.8008 9.49609C10.8008 9.76131 10.6954 10.0157 10.5079 10.2032C10.3204 10.3907 10.066 10.4961 9.80078 10.4961Z" fill="white"/>
</g>
<defs>
<clipPath id="clip0_2056_20750">
<rect width="32" height="32" fill="white" transform="translate(0.800781 0.496094)"/>
</clipPath>
</defs>
</svg>
