<svg width="32" height="33" viewBox="0 0 32 33" fill="none" xmlns="http://www.w3.org/2000/svg">
<g clip-path="url(#clip0_2056_20746)">
<path fillRule="evenodd" clipRule="evenodd" d="M16 30.3621C16.068 30.3511 16.1349 30.3343 16.2 30.3121C16.352 30.2661 16.548 30.1901 16.788 30.0761C17.268 29.8501 17.882 29.4961 18.574 29.0101C20.3132 27.7582 21.855 26.2529 23.148 24.5441C26.202 20.5501 28.762 14.4821 27.654 6.16809C27.6289 5.98961 27.5541 5.82179 27.4381 5.68385C27.3221 5.54591 27.1696 5.44341 26.998 5.38809C25.696 4.96209 23.498 4.26809 21.324 3.67809C19.104 3.07609 17.062 2.63009 16 2.63009V30.3621ZM10.144 1.61609C12.314 1.02609 14.62 0.496094 16 0.496094C17.38 0.496094 19.686 1.02609 21.856 1.61609C24.076 2.21609 26.314 2.92609 27.63 3.35609C28.1802 3.5378 28.668 3.87102 29.0374 4.3175C29.4067 4.76397 29.6426 5.30557 29.718 5.88009C30.91 14.8341 28.144 21.4701 24.788 25.8601C23.3649 27.7381 21.668 29.3918 19.754 30.7661C19.0922 31.2417 18.391 31.6598 17.658 32.0161C17.098 32.2801 16.496 32.4961 16 32.4961C15.504 32.4961 14.904 32.2801 14.342 32.0161C13.609 31.6598 12.9078 31.2417 12.246 30.7661C10.3321 29.3918 8.63517 27.738 7.21201 25.8601C3.85601 21.4701 1.09001 14.8341 2.28201 5.88009C2.35739 5.30557 2.5933 4.76397 2.96264 4.3175C3.33199 3.87102 3.81979 3.5378 4.37001 3.35609C6.28039 2.72971 8.20562 2.14954 10.144 1.61609Z" fill="white"/>
</g>
<defs>
<clipPath id="clip0_2056_20746">
<rect width="32" height="32" fill="white" transform="translate(0 0.496094)"/>
</clipPath>
</defs>
</svg>
