<svg width="539" height="83" viewBox="0 0 539 83" fill="none" xmlns="http://www.w3.org/2000/svg">
<path fillRule="evenodd" clipRule="evenodd" d="M75.4389 50.9451L55.759 8.62537C52.479 1.4744 44.045 -1.57355 36.8994 1.70886C29.7538 4.99126 26.7082 13.4318 29.9881 20.5827L34.908 31.1333C34.908 31.1333 38.188 38.9875 32.2138 42.9733C25.4196 46.9592 19.5625 42.6217 14.0569 42.6217C6.3256 42.7391 0 49.0693 0 56.9238C0 64.7778 6.3256 71.1085 14.1741 71.1085C19.6797 71.1085 24.3653 68.0605 26.7081 63.4883C26.7081 63.4883 30.5738 55.8685 36.7823 55.048C45.5677 53.8758 49.7848 63.0197 49.7848 63.0197C53.0647 70.1706 61.4991 73.2185 68.6445 69.9359C75.673 66.5363 78.8357 58.0959 75.4389 50.9451Z" fill="#FA573A"/>
<path d="M157.723 25.9843C155.145 21.411 151.513 17.7758 147.061 15.196C142.609 12.4989 137.571 11.209 132.065 11.209C126.559 11.209 121.404 12.4989 116.835 15.196C112.266 17.7758 108.751 21.411 106.057 25.9843C103.479 30.4404 102.19 35.6 102.19 41.1114C102.19 46.623 103.362 51.7826 105.705 56.3559C108.165 60.8119 111.446 64.4473 115.663 67.0271C119.881 69.6068 124.684 70.8967 129.839 70.8967C134.057 70.8967 137.923 70.0758 141.555 68.3169C143.898 67.1444 146.124 65.7372 147.998 63.9779C147.998 65.8545 148.584 67.3787 149.873 68.6686L149.99 68.7859C151.279 69.9585 152.919 70.6621 154.793 70.6621C156.668 70.6621 158.308 70.0758 159.597 68.7859C160.886 67.496 161.589 65.8545 161.589 63.861V41.1114C161.706 35.6 160.417 30.4404 157.723 25.9843ZM148.584 41.1114C148.584 44.3948 147.881 47.4436 146.476 50.1407C145.07 52.7205 143.078 54.8313 140.501 56.3559C138.04 57.8805 135.228 58.5841 132.065 58.5841C128.902 58.5841 126.09 57.8805 123.513 56.3559C121.052 54.8313 118.944 52.7205 117.538 50.1407C116.132 47.4436 115.312 44.3948 115.312 41.1114C115.312 37.828 116.015 34.7792 117.421 32.0821C118.944 29.385 120.935 27.2742 123.396 25.7498C125.973 24.2253 128.785 23.4045 131.948 23.4045C135.111 23.4045 137.923 24.2253 140.383 25.7498C142.961 27.2742 144.952 29.385 146.358 31.9648C147.881 34.7792 148.584 37.828 148.584 41.1114Z" fill="#1DB1DF"/>
<path d="M223.799 54.8313C221.338 53.0725 218.409 53.1898 215.48 55.4176C212.903 57.5285 209.505 58.5841 205.171 58.5841C201.89 58.5841 198.961 57.8805 196.384 56.3559C193.924 54.8313 191.932 52.8378 190.526 50.258C189.12 47.5609 188.417 44.5122 188.417 41.1114C188.417 35.7173 189.94 31.4958 192.87 28.3296C195.915 25.0462 199.664 23.5218 204.585 23.5218C206.928 23.5218 209.037 23.8736 210.911 24.6944C212.786 25.398 214.426 26.6879 215.949 28.2124C217.355 29.7368 219.112 30.5576 221.104 30.5576C222.276 30.5576 223.447 30.2059 224.384 29.6195C226.845 27.9778 227.313 25.9843 227.313 24.5772C227.313 23.17 226.845 21.8801 225.907 20.9419C220.284 14.4924 213.137 11.209 204.702 11.209C199.079 11.209 194.041 12.4989 189.589 15.0787C185.137 17.5413 181.623 21.1765 179.045 25.7498C176.585 30.2059 175.413 35.3655 175.413 41.1114C175.413 46.623 176.702 51.7826 179.162 56.3559C181.739 60.8119 185.371 64.4473 189.94 67.0271C194.51 69.6068 199.664 70.8967 205.288 70.8967C213.02 70.8967 219.581 68.4343 224.853 63.6263C226.024 62.5711 226.493 61.1639 226.493 59.7566C226.259 57.8805 225.439 56.2386 223.799 54.8313Z" fill="#1DB1DF"/>
<path d="M316.703 17.5413C312.837 13.3198 307.565 11.209 301.239 11.209C297.255 11.209 293.624 12.0298 290.343 13.5543C287.649 14.8442 285.305 16.4859 283.431 18.4794C281.674 16.3686 279.565 14.8442 277.222 13.6715C274.293 12.1471 270.895 11.3262 267.146 11.3262C264.1 11.3262 261.171 11.9126 258.594 12.9679C256.837 13.6715 255.196 14.6096 253.673 15.665C253.322 14.9615 252.853 14.3751 252.384 13.7888C251.096 12.4989 249.573 11.9126 247.581 11.9126C245.706 11.9126 244.067 12.4989 242.661 13.7888C241.372 15.0787 240.786 16.7204 240.786 18.7139V64.0953C240.786 65.9714 241.372 67.6133 242.661 68.9032L242.778 69.0206C244.066 70.1931 245.706 70.8967 247.581 70.8967C249.573 70.8967 251.213 70.3105 252.502 69.0206C253.673 67.7307 254.376 66.0888 254.376 64.2126V35.131C254.376 31.7303 255.314 28.9159 257.305 26.8052C259.297 24.6944 261.874 23.639 265.155 23.639C268.201 23.639 270.544 24.5772 272.418 26.4534C274.175 28.2124 275.113 31.0267 275.113 34.7792V63.9779C275.113 65.8545 275.699 67.496 276.987 68.7859L277.105 68.9032C278.393 70.0758 280.033 70.7794 281.908 70.7794C283.899 70.7794 285.54 70.1931 286.828 68.9032C288 67.6133 288.703 65.9714 288.703 64.0953V35.131C288.703 31.7303 289.64 28.9159 291.632 26.8052C293.624 24.6944 296.201 23.639 299.364 23.639C302.41 23.639 304.753 24.5772 306.628 26.4534C308.385 28.2124 309.322 31.0267 309.322 34.7792V63.9779C309.322 65.8545 309.908 67.496 311.197 68.7859L311.314 68.9032C312.603 70.0758 314.243 70.7794 316.118 70.7794C318.109 70.7794 319.749 70.1931 321.038 68.9032C322.209 67.6133 322.912 65.9714 322.912 64.0953V34.7792C322.678 27.5088 320.687 21.6455 316.703 17.5413Z" fill="#1DB1DF"/>
<path d="M391.917 25.5332C389.339 20.9598 385.709 17.3246 381.137 14.7448C376.57 12.0477 371.532 10.7578 366.026 10.7578C360.52 10.7578 355.365 12.0477 350.913 14.7448C346.461 17.3246 342.829 20.9598 340.252 25.5332C337.674 29.9892 336.386 35.1489 336.386 40.6604V75.7226C336.386 77.7161 336.971 79.3576 338.26 80.6475C339.549 81.8201 341.096 82.6244 342.971 82.6244C344.962 82.6244 346.695 81.9374 347.984 80.6475C349.273 79.3576 349.858 77.7161 349.858 75.7226V63.5269C351.733 65.2857 353.959 66.6929 356.302 67.8659C359.934 69.6247 363.917 70.4457 368.018 70.4457C373.173 70.4457 377.975 69.1558 382.193 66.576C386.411 63.9958 389.81 60.3608 392.151 55.9048C394.612 51.3315 395.785 46.1716 395.785 40.6604C395.785 35.1489 394.496 29.9892 391.917 25.5332ZM382.664 40.6604C382.664 43.9438 381.959 46.9925 380.436 49.6896C379.03 52.2694 377.04 54.3803 374.461 55.9048C372.001 57.429 369.189 58.1326 366.026 58.1326C362.863 58.1326 360.051 57.429 357.474 55.9048C355.013 54.3803 353.022 52.2694 351.616 49.6896C350.21 46.9925 349.39 43.9438 349.39 40.6604C349.39 37.3769 350.093 34.328 351.616 31.6309C353.022 28.9338 355.013 26.8231 357.474 25.4159C360.051 23.8915 362.863 23.0706 366.026 23.0706C369.189 23.0706 372.001 23.8915 374.461 25.4159C377.04 26.9403 379.03 29.0511 380.436 31.6309C381.842 34.328 382.664 37.3769 382.664 40.6604Z" fill="#1DB1DF"/>
<path d="M464.904 25.8672C462.326 21.2938 458.696 17.6586 454.245 15.0788C449.793 12.3817 444.754 11.0918 439.247 11.0918C433.74 11.0918 428.588 12.3817 424.019 15.0788C419.447 17.6586 415.934 21.2938 413.239 25.8672C410.661 30.3232 409.372 35.4829 409.372 40.9943C409.372 46.5059 410.544 51.6654 412.889 56.2387C415.346 60.6947 418.629 64.3301 422.847 66.9099C427.065 69.4897 431.867 70.7796 437.023 70.7796C441.241 70.7796 445.104 69.9586 448.738 68.1998C451.082 67.0272 453.306 65.62 455.18 63.8608C455.18 65.7373 455.768 67.2615 457.057 68.5514L457.173 68.6687C458.463 69.8413 460.102 70.5449 461.975 70.5449C463.849 70.5449 465.492 69.9586 466.781 68.6687C468.067 67.3788 468.771 65.7373 468.771 63.7438V40.9943C468.888 35.4829 467.482 30.3232 464.904 25.8672ZM455.768 40.9943C455.768 44.2777 455.063 47.3264 453.657 50.0235C452.251 52.6033 450.261 54.7142 447.683 56.2387C445.221 57.7633 442.409 58.4669 439.247 58.4669C436.085 58.4669 433.273 57.7633 430.695 56.2387C428.233 54.7142 426.126 52.6033 424.72 50.0235C423.314 47.3264 422.493 44.2777 422.493 40.9943C422.493 37.7109 423.198 34.662 424.604 31.9649C426.126 29.2678 428.116 27.157 430.578 25.6326C433.156 24.1082 435.968 23.2873 439.13 23.2873C442.293 23.2873 445.104 24.1082 447.566 25.6326C450.144 27.157 452.134 29.2678 453.54 31.8476C454.946 34.662 455.768 37.7109 455.768 40.9943Z" fill="#1DB1DF"/>
<path d="M538.31 61.9492L517.225 16.0986C515.581 12.5806 513.007 11.7598 511.13 11.7598C509.607 11.7598 508.435 12.1115 507.383 12.8151C506.328 13.5187 505.506 14.5741 504.805 15.9813L483.599 61.7145C483.132 62.6528 482.895 63.5907 482.895 64.5289C482.895 66.0535 483.599 68.164 486.645 69.8059C487.7 70.3921 488.873 70.7438 490.041 70.7438C491.684 70.7438 494.025 70.1575 495.431 67.1087L511.247 32.3984L526.595 67.2261C528.118 70.1575 530.345 70.8611 531.868 70.8611C532.803 70.8611 533.858 70.6268 535.147 70.0401C536.32 69.5712 537.258 68.8676 537.959 67.9297C538.664 66.9914 539 65.863 539 64.5731C538.883 63.8698 538.664 63.0044 538.31 61.9492Z" fill="#1DB1DF"/>
</svg>
