<svg width="567" height="81" viewBox="0 0 567 81" fill="none" xmlns="http://www.w3.org/2000/svg">
<path d="M0 40.2925C0 18.2227 18.0202 0.202484 40.09 0.202484C62.1597 0.202484 80.18 18.2227 80.18 40.2925C80.18 62.3622 62.1597 80.3824 40.09 80.3824C18.0202 80.5849 0 62.5647 0 40.2925ZM40.09 69.4488C51.8335 69.4488 59.73 57.7053 59.73 40.2925C59.73 22.8797 51.8335 11.1361 40.09 11.1361C28.3465 11.1361 20.4499 22.8797 20.4499 40.2925C20.6524 57.7053 28.5489 69.4488 40.09 69.4488ZM420.337 0.202484C420.742 0.202484 421.35 0.404957 421.755 0.809906C422.16 1.21486 422.362 1.6198 422.362 2.02475V9.92126C422.362 11.1361 421.35 12.351 419.933 12.351H398.47V78.3577C398.47 78.5602 398.268 79.3701 397.66 79.9775C397.053 80.5849 396.04 80.5849 396.04 80.5849H379.438C378.02 80.5849 377.008 79.5725 377.008 78.1552V12.1485H355.343C355.141 12.1485 354.331 11.946 353.723 11.541C353.116 10.9336 353.116 10.3262 352.913 9.92126V2.63217C352.913 1.41732 354.128 0.202484 355.343 0.202484H420.337ZM488.166 79.775C488.774 79.1676 488.976 78.1552 488.976 78.1552V70.8661C488.976 69.6513 487.964 68.6389 486.547 68.4365H455.163V41.1024H476.423C477.84 41.1024 478.853 40.09 478.853 38.8752V31.7885C478.853 31.7885 478.853 30.7762 478.245 30.1687C477.638 29.5613 476.828 29.5613 476.625 29.5613H455.163V12.351H486.547C487.762 12.351 488.976 11.3386 488.976 9.92126V2.42969C488.976 2.22721 488.976 1.41733 488.166 0.809906C487.559 0.202482 486.547 0.202484 486.547 0.202484H436.13C436.13 0.202484 435.118 0.202482 434.511 0.809906C433.903 1.41733 433.903 2.22721 433.701 2.42969V78.1552C433.701 79.3701 434.713 80.3825 436.13 80.5849H486.344C486.547 80.5849 487.559 80.5849 488.166 79.775ZM518.74 0.202484C518.74 0.202484 519.753 0.202482 520.36 0.809906C520.765 1.21486 520.967 2.02476 520.967 2.22723V78.1552C520.967 79.3701 519.955 80.3824 518.74 80.3824H502.745C502.745 80.3824 501.732 80.3824 501.125 79.775C500.517 79.1676 500.517 78.3577 500.517 78.1552V2.63217C500.517 1.41732 501.53 0.202484 502.947 0.202484H518.74ZM158.335 79.1676C158.335 78.9651 158.335 78.7626 158.133 78.3577L140.72 46.7717C140.72 46.7717 154.286 41.7098 154.083 24.7019C153.881 10.5287 141.732 0.202484 125.534 0.202484H94.1507C92.7334 0.202484 91.721 1.21485 91.721 2.63217V78.3577C91.721 78.5602 91.9235 79.3701 92.3285 79.775C92.9359 80.3824 93.7458 80.3825 93.9483 80.5849H110.754C111.968 80.5849 113.183 79.5726 113.183 78.3577V11.3386V10.9336H117.233C126.749 10.9336 138.898 13.3633 139.1 25.5118C139.505 37.4578 127.964 42.3172 118.448 42.7222C117.638 42.7222 117.03 43.3296 117.03 44.1395C117.03 44.342 117.03 44.5444 117.233 44.9494L130.191 69.2463C135.861 78.9651 142.137 80.9899 149.831 80.5849H156.715C157.728 80.5849 158.335 79.775 158.335 79.1676ZM257.75 0.809906C258.155 1.21486 258.358 1.82228 258.358 2.22723L266.052 78.1552C266.052 78.7627 266.052 79.3701 265.647 79.775C265.242 80.18 264.634 80.3824 263.825 80.3824H247.222C247.222 80.3824 246.209 80.3824 245.602 79.775C245.197 79.3701 244.994 78.5602 244.994 78.3577L239.933 28.144L222.115 79.5725C221.912 80.18 221.305 80.5849 220.697 80.5849H210.169C208.144 80.5849 207.334 79.5725 206.524 77.7503L188.909 26.9291L182.43 77.3453C182.227 79.3701 180.607 80.3825 178.178 80.5849H171.294C170.484 80.5849 169.876 79.9775 169.876 79.1676L179.798 2.63217C180 1.01239 181.012 0.202484 182.835 0.202484H199.438C199.64 0.202484 200.45 0.404957 201.057 0.809906C201.26 1.01238 201.462 1.21485 201.462 1.41733L218.875 51.631L235.883 2.63217C236.693 0.809899 237.705 0 239.528 0H256.333C256.535 0.202477 257.143 0.404957 257.75 0.809906ZM351.901 80.5849C352.711 80.5849 353.318 79.9775 353.318 79.1676V78.7627L353.116 78.5602V78.3577L326.592 1.61981C326.389 1.41734 326.389 1.01238 325.984 0.809906C325.579 0.404957 324.769 0.202484 324.567 0.202484H307.964C306.547 0.202484 305.939 0.607436 305.332 2.22723L277.795 78.3577C277.795 78.5602 277.593 78.7626 277.593 78.9651C277.593 79.775 278.2 80.3824 279.01 80.3824H287.919C289.539 80.3824 290.349 79.5725 290.956 77.7503L298.043 58.1102H320.315C320.517 58.1102 320.72 58.1103 320.922 57.9078C321.53 57.7053 321.732 56.8954 321.732 56.288C319.303 48.9989 314.038 46.1642 308.369 46.1642H302.092L311.811 20.2475L320.922 46.3667L326.187 61.1474L328.819 68.8414C331.249 75.5231 337.728 80.3824 345.624 80.3824L351.901 80.5849ZM566.727 78.3577C566.929 78.5602 566.929 78.7626 566.929 79.1676C566.929 79.9775 566.322 80.5849 565.512 80.5849H558.83C551.339 80.7874 545.264 78.9651 539.595 69.2464L525.827 42.5197C525.624 42.3172 525.624 41.9123 525.624 41.5073C525.624 41.1024 525.827 40.6974 525.827 40.4949L545.872 7.89651L549.111 2.83466C549.111 2.83466 550.529 0.404968 552.554 0.404968H562.272C563.082 0.404968 563.69 1.01237 563.69 1.82227C563.69 2.02474 563.69 2.4297 563.487 2.63217L543.442 35.4331L566.727 78.3577Z" fill="#F39327"/>
</svg>
