<svg width="155" height="33" viewBox="0 0 155 33" fill="none" xmlns="http://www.w3.org/2000/svg">
<g clip-path="url(#clip0_2056_20829)">
<g clip-path="url(#clip1_2056_20829)">
<path d="M22.4805 0.496094H9.52144C4.26953 0.496094 0 4.7676 0 10.0162V22.976C0 28.2239 4.26953 32.4961 9.52144 32.4961H22.4799C27.7272 32.4961 31.9987 28.2239 31.9987 22.976V10.0162C31.9993 4.7676 27.7278 0.496094 22.4805 0.496094Z" fill="#000F27"/>
<path d="M26.1009 20.4297L26.0891 20.5723C26.0435 21.1276 25.6956 21.6894 25.1179 21.6894C24.6762 21.6894 24.321 21.5257 24.0312 21.1903C23.6833 20.7895 23.3703 20.3083 23.0534 19.4361C23.9507 16.3906 26.7189 6.63482 26.7189 6.63482H21.4657C21.4657 6.63482 20.9804 8.92242 20.5427 11.0034C20.5209 10.9525 20.4985 10.9024 20.4754 10.8542C20.0376 9.91866 19.3385 8.87884 18.5621 8.148C17.2087 6.87579 15.6169 6.25586 13.6951 6.25586C11.0424 6.25586 8.79835 7.23692 7.02505 9.17263C5.26033 11.0965 4.32812 13.565 4.32812 16.3101C4.32812 19.3675 5.21346 21.8789 6.95903 23.771C8.77987 25.7483 10.9572 26.6693 13.8093 26.6693C15.471 26.6693 17.0568 26.1755 18.5271 25.203C19.4771 24.5758 20.344 23.707 21.1633 22.5787C21.5072 23.6925 21.8539 24.4537 22.2685 25.0234C22.9392 25.9431 23.9441 26.4699 25.0248 26.4699C26.1498 26.4699 27.1744 25.8936 27.7006 24.9673C28.1667 24.1454 28.3568 23.1253 28.3568 21.4478V20.4297H26.1009ZM17.2952 22.38C16.499 23.5459 15.4591 24.1612 14.2879 24.1612C12.9233 24.1612 11.8914 23.5499 11.1315 22.2862C10.3346 20.9632 9.93126 18.9806 9.93126 16.3919C9.93126 14.0185 10.3591 12.1323 11.2022 10.7855C11.9944 9.52122 12.9873 8.931 14.3262 8.931C15.5179 8.931 16.4481 9.42615 17.2569 10.493C18.1237 11.6378 18.8565 13.5293 19.3814 15.9608C18.7225 19.248 18.0782 21.2352 17.2952 22.38Z" fill="white"/>
<path d="M48.0182 7.09778C47.6551 5.46246 46.6239 4.32031 44.3607 4.32031C42.2315 4.32031 41.0649 5.46246 40.7018 7.09778L39.0586 14.5H40.8154C41.2161 14.5 41.6149 14.1804 41.7007 13.7889L42.0328 12.283H46.6879L47.0206 13.7889C47.1065 14.1798 47.5046 14.5 47.9053 14.5H49.6628L48.0182 7.09778ZM42.493 10.1968L43.072 7.57511C43.1651 7.15126 43.4952 6.5036 44.3613 6.5036C45.2269 6.5036 45.5563 7.1506 45.6507 7.57511L46.2291 10.1968H42.493Z" fill="#000F27"/>
<path d="M53.9934 6.79074H57.9124V14.4979H60.338V4.55859H53.0223C52.2228 4.55859 51.5665 5.21351 51.5665 6.01434V11.0372C51.5665 11.7092 51.2569 12.1371 50.7188 12.2447L50.2217 12.3635L50.6719 14.4986H51.1334C52.7932 14.4986 53.9934 13.2634 53.9934 11.1626V6.79074Z" fill="#000F27"/>
<path d="M81.4227 4.55965H80.5387V3.4043H78.8406C78.4399 3.4043 78.1124 3.72978 78.1124 4.13118V4.55965H77.2284C74.2298 4.55965 72.3555 6.60364 72.3555 9.52899C72.3555 12.455 74.2298 14.499 77.2284 14.499H78.1124V15.7039H79.8105C80.2112 15.7039 80.5387 15.3764 80.5387 14.9776V14.499H81.4227C84.4213 14.499 86.295 12.455 86.295 9.52899C86.295 6.60364 84.4213 4.55965 81.4227 4.55965ZM77.2284 12.3038C75.5673 12.3038 74.7817 11.2528 74.7817 9.52899C74.7817 7.80652 75.5673 6.75548 77.2284 6.75548H78.1124V12.3038H77.2284ZM81.4227 12.3038H80.5387V6.75548H81.4227C83.0844 6.75548 83.8674 7.80652 83.8674 9.52899C83.8674 11.2528 83.0838 12.3038 81.4227 12.3038Z" fill="#000F27"/>
<path d="M67.8662 7.07988H64.3843V4.56055H61.958V13.7717C61.958 14.1718 62.2861 14.4992 62.6862 14.4992H67.8662C69.9814 14.4992 71.5739 12.9055 71.5739 10.7896C71.5739 8.67427 70.2376 7.07988 67.8662 7.07988ZM67.8662 12.2677H64.3843V9.31136H67.8662C68.4577 9.31136 69.1483 9.84084 69.1483 10.7889C69.1483 11.7363 68.4577 12.2677 67.8662 12.2677Z" fill="#000F27"/>
<path d="M95.3437 7.09778C94.9793 5.46246 93.9487 4.32031 91.6849 4.32031C89.5577 4.32031 88.3905 5.46246 88.0261 7.09778L86.3828 14.5H88.1409C88.5404 14.5 88.9398 14.1804 89.0243 13.7889L89.357 12.283H94.0128L94.3442 13.7889C94.43 14.1798 94.8288 14.5 95.2289 14.5H96.9857L95.3437 7.09778ZM89.8185 10.1968L90.3949 7.57511C90.4906 7.15126 90.82 6.5036 91.6849 6.5036C92.5511 6.5036 92.8792 7.1506 92.9749 7.57511L93.5526 10.1968H89.8185Z" fill="#000F27"/>
<path d="M109.409 23.2897C109.837 22.8685 110.112 22.2948 110.112 21.4992C110.112 19.7378 108.747 18.5059 106.985 18.5059H101.053C100.653 18.5059 100.325 18.8327 100.325 19.2334V27.7177C100.325 28.1177 100.653 28.4452 101.053 28.4452L107.359 28.4465C109.217 28.4465 110.451 27.1169 110.451 25.3555C110.451 24.4688 110.03 23.7743 109.409 23.2897ZM106.982 20.569C107.305 20.569 107.746 20.9308 107.746 21.5487C107.746 22.1713 107.305 22.4889 106.982 22.5278H102.703V20.5683L106.982 20.569ZM107.177 26.3841H102.702V24.4233H107.177C107.5 24.4629 107.94 24.7798 107.94 25.403C107.94 26.0203 107.5 26.3841 107.177 26.3841Z" fill="#000F27"/>
<path d="M93.3813 18.2773C90.382 18.2773 88.2852 20.4131 88.2852 23.4758C88.2852 26.5371 90.3813 28.6749 93.3813 28.6749H94.2118C97.2118 28.6749 99.3079 26.5371 99.3079 23.4758C99.3079 20.4131 97.2124 18.2773 94.2118 18.2773H93.3813ZM90.9062 23.4758C90.9062 21.6932 91.8555 20.3306 93.5278 20.3306H94.0665C95.7375 20.3306 96.6862 21.6932 96.6862 23.4758C96.6862 25.2583 95.7369 26.6223 94.0665 26.6223H93.5278C91.8549 26.6216 90.9062 25.2583 90.9062 23.4758Z" fill="#000F27"/>
<path d="M48.1016 18.5059L48.4211 20.0091C48.5063 20.4099 48.9037 20.7367 49.3038 20.7367H51.5656V28.4445H53.9925V20.7373H56.1838C56.5832 20.7373 56.98 20.4105 57.0645 20.0098L57.384 18.5065H48.1016" fill="#000F27"/>
<path d="M129.832 18.5059V22.4525H125.111V18.5059H122.685V28.4452H125.111V24.5843H129.832V28.4452H132.259V18.5059H129.832Z" fill="#000F27"/>
<path d="M76.3408 21.0444C75.977 19.4084 74.9478 18.2676 72.6826 18.2676C70.5567 18.2676 69.3888 19.4091 69.0264 21.0444L67.3818 28.4453H69.1393C69.54 28.4453 69.9381 28.127 70.0246 27.7355L70.356 26.229H75.0098L75.3419 27.7355C75.4271 28.127 75.8265 28.4453 76.2272 28.4453H77.984L76.3408 21.0444ZM70.8169 24.1421L71.3945 21.5204C71.4883 21.0972 71.8177 20.4489 72.6839 20.4489C73.5501 20.4489 73.8795 21.0972 73.9739 21.5217L74.5516 24.1414H70.8169V24.1421Z" fill="#000F27"/>
<path d="M119.969 21.0444C119.605 19.4084 118.576 18.2676 116.311 18.2676C114.183 18.2676 113.017 19.4091 112.653 21.0444L111.01 28.4453H112.768C113.167 28.4453 113.566 28.127 113.651 27.7355L113.985 26.229H118.639L118.972 27.7355C119.059 28.127 119.456 28.4453 119.856 28.4453H121.615L119.969 21.0444ZM114.443 24.1421L115.022 21.5204C115.118 21.0972 115.446 20.4489 116.311 20.4489C117.175 20.4489 117.506 21.0972 117.601 21.5217L118.178 24.1414H114.443V24.1421Z" fill="#000F27"/>
<path d="M48.8567 28.4175V28.4459H44.1165C41.2466 28.4459 39.2422 26.4025 39.2422 23.4752C39.2422 20.5492 41.2472 18.5059 44.1165 18.5059H47.7126L47.3607 20.0289C47.2709 20.4198 46.8695 20.7373 46.4688 20.7373H44.1165C42.5828 20.7373 41.6684 21.8821 41.6684 23.4759C41.6684 25.0689 42.5821 26.2144 44.1165 26.2144H47.6201C48.0196 26.2144 48.4216 26.5326 48.5114 26.9234L48.8567 28.4175Z" fill="#000F27"/>
<path d="M63.888 18.5059L58.7087 18.5065C58.3073 18.5065 57.9805 18.834 57.9805 19.2341V28.4459H60.4074V25.9246H63.888C66.262 25.9246 67.5976 24.3302 67.5976 22.2162C67.5976 20.1016 66.0032 18.5059 63.888 18.5059ZM63.888 23.6937H60.4074V20.74H63.888C64.4802 20.74 65.1714 21.2688 65.1714 22.2169C65.1714 23.1636 64.4802 23.6937 63.888 23.6937Z" fill="#000F27"/>
<path d="M152.828 26.3458H147.601V24.4371H153.283V22.5199H147.601V20.602H152.828C153.258 20.602 153.598 20.4132 153.717 19.893L154.041 18.5039H145.903C145.504 18.5039 145.175 18.8307 145.175 19.2314V27.7157C145.175 28.1158 145.503 28.4446 145.903 28.4446H154.041L153.717 27.0555C153.598 26.5359 153.259 26.3458 152.828 26.3458Z" fill="#000F27"/>
<path d="M133.923 28.4452V18.5059H136.35V25.0636L140.553 19.0921C140.79 18.7699 141.31 18.5059 141.713 18.5059H143.512V28.4452H141.085V21.8881L136.88 27.8589C136.644 28.1811 136.123 28.4452 135.722 28.4452H133.923Z" fill="#000F27"/>
<path d="M85.3029 23.4224L88.6898 18.5059H86.4609C85.9797 18.5059 85.641 18.6524 85.3432 19.1192L83.5389 21.9528H83.216L81.4104 19.1192C81.114 18.6518 80.7759 18.5059 80.292 18.5059H77.9912L81.4507 23.5274L78.0638 28.4445H80.292C80.7753 28.4445 81.114 28.2993 81.4104 27.8312L83.216 24.997H83.5389L85.3432 27.8312C85.641 28.2993 85.9797 28.4445 86.4609 28.4445H88.7617L85.3029 23.4224Z" fill="#000F27"/>
</g>
</g>
<defs>
<clipPath id="clip0_2056_20829">
<rect width="154.041" height="32" fill="white" transform="translate(0 0.496094)"/>
</clipPath>
<clipPath id="clip1_2056_20829">
<rect width="154.041" height="32" fill="white" transform="translate(0 0.496094)"/>
</clipPath>
</defs>
</svg>
