<svg width="511" height="242" viewBox="0 0 511 242" fill="none" xmlns="http://www.w3.org/2000/svg">
<path fillRule="evenodd" clipRule="evenodd" d="M1.14441e-05 218.382C0.186367 149.178 19.4076 70.2427 72.1329 28.6987C118.283 -7.6672 167.627 -0.772047 220.964 6.3494C259.38 11.4875 306.315 17.8103 340.778 17.584C357.803 17.4775 376.092 16.5723 389.896 3.75374C389.576 14.762 381.922 30.2828 373.576 39.3609C414.375 40.0797 475.579 41.2378 508.218 0C516.298 66.8351 499.832 132.925 463.932 178.861C436.258 214.256 396.312 236.858 352.026 240.745C276.591 247.374 203.926 200.625 131.647 184.559C81.5039 173.417 37.1247 179.234 0 218.369" fill="#0C9547"/>
<path fillRule="evenodd" clipRule="evenodd" d="M192.784 182.695C248.238 193.224 304.597 204.366 355.712 182.469C336.93 242.342 251.912 210.289 192.784 182.695Z" fill="white"/>
<path fillRule="evenodd" clipRule="evenodd" d="M107.54 145.025C122.689 139.048 131.66 115.514 133.191 101.111C133.444 99.3409 133.604 97.5972 133.71 95.8534C121.051 120.146 112.625 107.647 103.068 103.387C96.5721 100.486 89.251 107.208 90.5821 105.051C106.223 79.7337 109.244 97.2378 121.624 97.5572C125.75 97.6637 131.341 94.4292 133.803 93.2977C134.269 63.2812 113.184 40.4925 100.512 83.8335C93.1112 83.8468 82.3825 83.8335 76.6055 83.9001C84.1529 60.579 115.035 38.4559 140.406 62.6688C163.354 83.7137 156.845 142.882 105.424 151.507C100.313 152.372 94.2959 151.76 89.4108 149.577C83.4474 147.474 79.2011 142.176 79.2011 135.986C79.2011 127.973 86.3492 121.437 95.0946 121.437C103.84 121.437 110.988 127.973 110.988 135.986C110.988 139.407 109.697 142.549 107.527 145.025" fill="white"/>
<path d="M368.357 124.258C368.357 126.894 368.504 128.851 368.783 130.115C369.076 131.366 369.689 131.979 370.62 131.979C371.246 131.979 372.058 131.566 373.056 130.727C373.642 130.222 374.534 129.25 375.372 129.25C376.211 129.25 376.637 129.809 376.637 130.967C376.637 132.405 375.785 134.002 374.121 135.719C370.54 139.526 366.973 141.43 363.379 141.43C361.516 141.43 360.038 140.977 358.96 140.032C357.895 139.113 356.963 137.583 356.164 135.426C355.885 134.654 355.659 133.895 355.273 133.163C354.887 132.498 354.58 132.471 354.075 132.91C353.595 133.336 352.77 134.162 351.572 135.4C349.748 137.29 347.699 138.954 345.382 140.378C337.13 145.503 327.532 140.871 327.532 130.315C327.532 122.767 332.164 118.055 338.075 114.448L352.65 105.556C354.62 104.358 354.314 104.651 354.314 102.401V97.3166C354.314 94.1619 354.447 87.4531 349.935 87.4531C347.046 87.4531 344.704 90.0753 342.92 95.3066C342.374 97.0237 341.828 98.3149 341.309 99.1935C339.659 102.002 327.732 107.713 327.732 101.31C327.732 97.2101 331.406 92.2584 334.361 89.7026C339.259 85.3233 345.342 83.127 352.584 83.127C362.607 83.127 368.357 87.0138 368.357 97.077V124.245L368.357 124.258ZM354.328 116.005C354.328 112.518 353.968 110.774 353.263 110.774C352.837 110.774 350.507 112.398 346.261 115.646C342.8 118.415 341.083 121.543 341.083 125.097C341.083 127.107 341.575 128.811 342.534 130.222C343.506 131.633 344.783 132.338 346.367 132.338C347.619 132.338 348.95 131.886 350.347 130.967C351.745 130.049 352.757 128.93 353.382 127.586C354.021 126.069 354.341 124.205 354.341 121.995V115.992L354.328 116.005Z" fill="white"/>
<path d="M399.04 90.3684C402.833 86.7211 407.146 83.1404 412.564 83.1404C416.531 83.1404 420.111 84.4316 423.332 86.974C426.527 89.5297 429.056 92.9507 430.893 97.2768C432.717 101.59 433.622 106.275 433.622 111.293C433.622 117.03 432.544 122.275 430.427 127.094C428.297 131.912 425.382 135.693 421.655 138.448C417.941 141.19 413.842 142.561 409.356 142.561C406.813 142.561 404.098 142.029 401.183 140.964C401.09 140.951 400.877 140.857 400.531 140.738C400.198 140.618 399.932 140.578 399.719 140.578C399.266 140.578 399.04 141.909 399.04 144.545V159.04C399.04 159.932 399.359 160.97 400.025 162.155C400.677 163.34 402.141 164.125 404.377 164.525C406.481 164.924 407.532 165.869 407.532 167.373C407.532 168.877 406.787 169.516 405.269 169.516H377.595C376.051 169.516 375.279 168.811 375.279 167.373C375.279 165.842 376.145 164.884 377.902 164.525C380.404 164.139 382.028 163.34 382.76 162.155C383.492 160.97 383.852 159.932 383.852 159.04V106.315C383.852 102.987 383.639 100.724 383.199 99.4998C382.76 98.2885 381.669 97.6096 379.952 97.4632C379.366 97.4099 378.807 97.37 378.341 97.2236C376.77 96.771 376.73 95.0805 377.556 94.0023C378.101 93.2835 378.793 93.2169 379.605 92.9907C383.359 91.9258 390.76 89.6096 395.153 83.9125C395.552 83.3933 395.858 82.9275 396.164 82.608C397.709 80.9973 398.893 82.1953 399.013 84.0456C399.08 85.1504 399.053 86.2818 399.053 87.4V90.3684H399.04ZM399.04 123.753C399.04 133.137 401.249 137.836 405.682 137.836C408.477 137.836 410.82 136.691 412.697 134.388C414.56 132.085 415.918 129.197 416.77 125.749C417.622 122.302 418.035 118.814 418.035 115.287C418.035 111.759 417.622 108.272 416.797 104.678C415.971 101.084 414.654 98.0489 412.83 95.573C411.006 93.1105 408.717 91.8592 405.948 91.8592C403.179 91.8592 401.236 93.177 399.625 95.7194C399.199 96.3983 399.026 97.6496 399.026 99.5797V123.753H399.04Z" fill="white"/>
<path d="M320.757 136.692C319.04 136.439 317.855 136.106 317.163 135.72C316.497 135.347 316.058 134.722 315.885 133.87C315.685 133.018 315.592 131.567 315.592 129.491V96.9982C315.592 94.7087 315.685 93.1513 315.885 92.3127C316.098 91.4608 316.524 90.8751 317.163 90.529C317.815 90.1962 319.093 89.8635 321.023 89.5174C323.273 89.5174 324.138 86.8152 322.873 85.2046C322.474 84.6854 321.942 84.4192 321.316 84.4192H276.311C275.725 84.4192 275.246 84.6854 274.847 85.2046C273.449 87.0681 274.847 89.5174 277.003 89.5174C278.64 89.8501 279.785 90.2229 280.451 90.6222C281.116 91.0348 281.556 91.6737 281.755 92.5523C281.968 93.4441 282.061 94.9217 282.061 97.0248C282.061 106.343 282.674 116.086 281.409 125.324C280.97 128.519 280.437 130.888 279.799 132.379C279.226 133.737 277.549 135.867 276.471 133.71C275.273 131.021 275.113 127.986 273.462 125.377C271.399 122.143 266.754 123.567 264.704 126.003C263.865 127.015 263.306 128.279 262.96 129.637C261.549 130.808 259.885 132.006 258.847 132.006C257.928 132.006 257.303 131.381 257.01 130.143C256.73 128.878 256.584 126.922 256.584 124.286V97.118C256.584 87.0548 250.834 83.168 240.81 83.168C233.569 83.168 227.499 85.3643 222.587 89.757C219.646 92.3127 215.958 97.2511 215.958 101.364C215.958 107.767 227.885 102.043 229.536 99.2478C230.055 98.3693 230.587 97.0914 231.146 95.361C232.93 90.1297 235.273 87.5074 238.161 87.5074C242.687 87.5074 242.541 94.2162 242.541 97.3709V102.456C242.541 104.705 242.847 104.413 240.877 105.611L226.301 114.502C220.391 118.11 215.759 122.822 215.759 130.369C215.759 140.925 225.356 145.57 233.609 140.432C235.912 138.995 237.975 137.344 239.799 135.454C240.997 134.216 241.822 133.391 242.301 132.965C242.807 132.512 243.126 132.552 243.512 133.218C243.898 133.95 244.125 134.709 244.404 135.481C245.203 137.637 246.121 139.181 247.2 140.086C248.265 141.018 249.755 141.471 251.619 141.471C255.213 141.471 258.767 139.554 262.361 135.76C262.481 135.627 262.654 135.454 262.827 135.281C263.2 137.251 263.998 139.101 265.17 140.459C269.602 145.53 278.161 143.507 281.609 138.236C283.805 134.828 285.163 131.075 285.669 126.935C286.161 122.822 286.427 118.323 286.427 113.411V96.1064C286.427 94.0698 286.534 92.6455 286.72 91.8468C286.907 91.0615 287.373 90.5423 288.105 90.2628C288.85 89.9966 290.181 89.8635 292.098 89.8635H296.091C297.875 89.8635 299.1 89.9433 299.752 90.0898C300.378 90.2362 300.79 90.5689 300.937 91.0881C301.083 91.6072 301.163 92.6189 301.163 94.123V129.491C301.163 131.647 301.07 133.125 300.87 133.976C300.697 134.802 300.231 135.387 299.526 135.747C298.807 136.106 297.529 136.439 295.692 136.705C293.016 136.705 292.271 141.83 295.399 141.83H321.422C324.404 141.83 323.898 136.705 320.744 136.705M242.594 122.01C242.594 124.206 242.275 126.083 241.636 127.587C240.997 128.932 239.998 130.063 238.601 130.968C237.203 131.887 235.872 132.339 234.621 132.339C233.05 132.339 231.759 131.634 230.787 130.223C229.829 128.812 229.336 127.108 229.336 125.098C229.336 121.544 231.053 118.416 234.514 115.647C238.747 112.386 241.09 110.762 241.516 110.762C242.235 110.762 242.581 112.506 242.581 115.993V121.996L242.594 122.01Z" fill="white"/>
<path d="M166.135 101.457C166.135 97.7829 166.029 95.2272 165.842 93.7896C165.669 92.3653 165.203 91.3536 164.484 90.7946C163.766 90.2355 162.448 89.7962 160.571 89.4901C159.107 89.2239 158.295 88.4385 158.255 87.1074C158.202 85.3903 159.266 84.5117 161.276 84.5117L185.902 84.5383C195.619 84.5383 207.732 86.1756 207.732 98.5682C207.732 105.903 202.408 109.989 191.759 110.881C201.25 111.24 209.982 114.369 209.982 125.497C209.982 137.743 199.506 141.816 189.536 141.816C179.566 141.816 170.048 141.696 160.305 141.696C159.772 141.696 159.293 141.483 158.867 141.071C158.455 140.658 158.255 140.112 158.255 139.447C158.255 137.809 159.04 136.891 160.571 136.705C162.461 136.478 163.779 136.066 164.524 135.413C165.256 134.761 165.709 133.736 165.882 132.325C166.055 130.914 166.148 128.385 166.148 124.738V101.443L166.135 101.457ZM180.538 104.798C180.538 106.169 180.591 107.074 180.684 107.54C180.777 107.979 181.004 108.272 181.403 108.379C181.776 108.485 182.574 108.538 183.759 108.538C189.935 108.538 193.023 105.051 193.023 98.0891C193.023 95.2804 192.358 93.0841 191.04 91.5134C189.709 89.916 187.872 89.1307 185.516 89.1307C183.16 89.1307 181.709 89.5433 180.924 90.3819C180.684 90.6348 180.551 92.0591 180.551 94.7213V104.811L180.538 104.798ZM180.538 128.611C180.538 130.834 180.631 132.498 180.817 133.603C180.99 134.695 181.496 135.6 182.308 136.239C183.12 136.904 184.398 137.237 186.182 137.237C189.256 137.237 191.546 136.225 193.063 134.189C194.594 132.126 195.353 129.37 195.353 125.883C195.353 123.367 194.954 121.344 194.115 119.773C193.303 118.189 191.959 116.698 190.082 115.287C188.99 114.475 187.965 113.969 186.994 113.796C186.035 113.61 184.637 113.517 182.854 113.517C181.829 113.517 181.203 113.809 180.924 114.395C180.644 114.981 180.524 115.979 180.524 117.39V128.625L180.538 128.611Z" fill="white"/>
</svg>
