<svg width="201" height="29" viewBox="0 0 201 29" fill="none" xmlns="http://www.w3.org/2000/svg">
<path d="M2.24609 7.27734H4.07227L8.73047 18.8691L13.3789 7.27734H15.2148L9.43359 21.4961H8.00781L2.24609 7.27734ZM1.65039 7.27734H3.26172L3.52539 15.9492V21.4961H1.65039V7.27734ZM14.1895 7.27734H15.8008V21.4961H13.9258V15.9492L14.1895 7.27734ZM19.991 18.6348L24.8641 10.9297H26.6805V21.4961H24.8641V13.791L19.991 21.4961H18.1941V10.9297H19.991V18.6348ZM30.5875 12.9609V25.5586H28.7711V10.9297H30.4312L30.5875 12.9609ZM37.7066 16.125V16.3301C37.7066 17.0983 37.6155 17.8112 37.4332 18.4688C37.2509 19.1198 36.984 19.6862 36.6324 20.168C36.2874 20.6497 35.8609 21.0241 35.3531 21.291C34.8453 21.5579 34.2626 21.6914 33.6051 21.6914C32.9345 21.6914 32.3421 21.5807 31.8277 21.3594C31.3134 21.138 30.8772 20.8158 30.5191 20.3926C30.1611 19.9694 29.8746 19.4616 29.6598 18.8691C29.4514 18.2767 29.3082 17.6094 29.2301 16.8672V15.7734C29.3082 14.9922 29.4547 14.2923 29.6695 13.6738C29.8844 13.0553 30.1676 12.528 30.5191 12.0918C30.8772 11.6491 31.3102 11.3138 31.818 11.0859C32.3258 10.8516 32.9117 10.7344 33.5758 10.7344C34.2398 10.7344 34.829 10.8646 35.3434 11.125C35.8577 11.3789 36.2906 11.7435 36.6422 12.2188C36.9937 12.694 37.2574 13.2637 37.4332 13.9277C37.6155 14.5853 37.7066 15.3177 37.7066 16.125ZM35.8902 16.3301V16.125C35.8902 15.5977 35.8349 15.1029 35.7242 14.6406C35.6135 14.1719 35.441 13.7617 35.2066 13.4102C34.9788 13.0521 34.6858 12.7721 34.3277 12.5703C33.9697 12.362 33.5432 12.2578 33.0484 12.2578C32.5927 12.2578 32.1956 12.3359 31.857 12.4922C31.525 12.6484 31.2418 12.86 31.0074 13.127C30.773 13.3874 30.581 13.6868 30.4312 14.0254C30.288 14.3574 30.1806 14.7025 30.109 15.0605V17.5898C30.2392 18.0456 30.4215 18.4753 30.6559 18.8789C30.8902 19.276 31.2027 19.5983 31.5934 19.8457C31.984 20.0866 32.4755 20.207 33.068 20.207C33.5562 20.207 33.9762 20.1061 34.3277 19.9043C34.6858 19.696 34.9788 19.4128 35.2066 19.0547C35.441 18.6966 35.6135 18.2865 35.7242 17.8242C35.8349 17.3555 35.8902 16.8574 35.8902 16.3301ZM45.4418 19.6895V14.25C45.4418 13.8333 45.3572 13.472 45.1879 13.166C45.0251 12.8535 44.7777 12.6126 44.4457 12.4434C44.1137 12.2741 43.7035 12.1895 43.2152 12.1895C42.7595 12.1895 42.3591 12.2676 42.0141 12.4238C41.6755 12.5801 41.4086 12.7852 41.2133 13.0391C41.0245 13.293 40.9301 13.5664 40.9301 13.8594H39.1234C39.1234 13.4818 39.2211 13.1074 39.4164 12.7363C39.6117 12.3652 39.8917 12.0299 40.2562 11.7305C40.6273 11.4245 41.0701 11.1836 41.5844 11.0078C42.1052 10.8255 42.6846 10.7344 43.3227 10.7344C44.0909 10.7344 44.768 10.8646 45.3539 11.125C45.9464 11.3854 46.4086 11.7793 46.7406 12.3066C47.0792 12.8275 47.2484 13.4818 47.2484 14.2695V19.1914C47.2484 19.543 47.2777 19.9173 47.3363 20.3145C47.4014 20.7116 47.4958 21.0534 47.6195 21.3398V21.4961H45.7348C45.6436 21.2878 45.572 21.0111 45.5199 20.666C45.4678 20.3145 45.4418 19.9889 45.4418 19.6895ZM45.7543 15.0898L45.7738 16.3594H43.9477C43.4333 16.3594 42.9743 16.4017 42.5707 16.4863C42.1671 16.5645 41.8285 16.6849 41.5551 16.8477C41.2816 17.0104 41.0733 17.2155 40.9301 17.4629C40.7868 17.7038 40.7152 17.987 40.7152 18.3125C40.7152 18.6445 40.7901 18.9473 40.9398 19.2207C41.0896 19.4941 41.3142 19.7122 41.6137 19.875C41.9197 20.0312 42.294 20.1094 42.7367 20.1094C43.2901 20.1094 43.7784 19.9922 44.2016 19.7578C44.6247 19.5234 44.96 19.237 45.2074 18.8984C45.4613 18.5599 45.598 18.2311 45.6176 17.9121L46.3891 18.7812C46.3435 19.0547 46.2198 19.3574 46.018 19.6895C45.8161 20.0215 45.546 20.3405 45.2074 20.6465C44.8754 20.946 44.4783 21.1966 44.016 21.3984C43.5603 21.5938 43.046 21.6914 42.473 21.6914C41.7569 21.6914 41.1286 21.5514 40.5883 21.2715C40.0544 20.9915 39.6378 20.6172 39.3383 20.1484C39.0453 19.6732 38.8988 19.1426 38.8988 18.5566C38.8988 17.9902 39.0095 17.4922 39.2309 17.0625C39.4522 16.6263 39.7712 16.265 40.1879 15.9785C40.6046 15.6855 41.1059 15.4642 41.6918 15.3145C42.2777 15.1647 42.932 15.0898 43.6547 15.0898H45.7543ZM56.3312 10.9297V12.4238H50.9895V10.9297H56.3312ZM51.2531 10.9297V21.4961H49.4465V10.9297H51.2531ZM57.9328 10.9297V21.4961H56.1164V10.9297H57.9328ZM59.5547 16.3301V16.1055C59.5547 15.3438 59.6654 14.6374 59.8867 13.9863C60.1081 13.3288 60.4271 12.7591 60.8438 12.2773C61.2604 11.7891 61.765 11.4115 62.3574 11.1445C62.9499 10.8711 63.6139 10.7344 64.3496 10.7344C65.0918 10.7344 65.7591 10.8711 66.3516 11.1445C66.9505 11.4115 67.4583 11.7891 67.875 12.2773C68.2982 12.7591 68.6204 13.3288 68.8418 13.9863C69.0632 14.6374 69.1738 15.3438 69.1738 16.1055V16.3301C69.1738 17.0918 69.0632 17.7982 68.8418 18.4492C68.6204 19.1003 68.2982 19.6699 67.875 20.1582C67.4583 20.64 66.9538 21.0176 66.3613 21.291C65.7754 21.5579 65.1113 21.6914 64.3691 21.6914C63.627 21.6914 62.9596 21.5579 62.3672 21.291C61.7747 21.0176 61.2669 20.64 60.8438 20.1582C60.4271 19.6699 60.1081 19.1003 59.8867 18.4492C59.6654 17.7982 59.5547 17.0918 59.5547 16.3301ZM61.3613 16.1055V16.3301C61.3613 16.8574 61.4232 17.3555 61.5469 17.8242C61.6706 18.2865 61.8561 18.6966 62.1035 19.0547C62.3574 19.4128 62.6732 19.696 63.0508 19.9043C63.4284 20.1061 63.8678 20.207 64.3691 20.207C64.8639 20.207 65.2969 20.1061 65.668 19.9043C66.0456 19.696 66.3581 19.4128 66.6055 19.0547C66.8529 18.6966 67.0384 18.2865 67.1621 17.8242C67.2923 17.3555 67.3574 16.8574 67.3574 16.3301V16.1055C67.3574 15.5846 67.2923 15.0931 67.1621 14.6309C67.0384 14.1621 66.8496 13.7487 66.5957 13.3906C66.3483 13.026 66.0358 12.7396 65.6582 12.5312C65.2871 12.3229 64.8509 12.2188 64.3496 12.2188C63.8548 12.2188 63.4186 12.3229 63.041 12.5312C62.6699 12.7396 62.3574 13.026 62.1035 13.3906C61.8561 13.7487 61.6706 14.1621 61.5469 14.6309C61.4232 15.0931 61.3613 15.5846 61.3613 16.1055ZM77.5437 10.9297V12.4238H72.4363V10.9297H77.5437ZM79.1355 10.9297V21.4961H77.3289V10.9297H79.1355ZM71.9969 10.9297H73.8133L73.5398 16.0273C73.4943 16.8151 73.4194 17.5117 73.3152 18.1172C73.2176 18.7161 73.0809 19.2305 72.9051 19.6602C72.7358 20.0898 72.521 20.4414 72.2605 20.7148C72.0066 20.9818 71.7006 21.1803 71.3426 21.3105C70.9845 21.4342 70.5711 21.4961 70.1023 21.4961H69.5359V19.9043L69.9266 19.875C70.2065 19.8555 70.4441 19.7904 70.6395 19.6797C70.8413 19.569 71.0105 19.4062 71.1473 19.1914C71.284 18.9701 71.3947 18.6868 71.4793 18.3418C71.5704 17.9967 71.6388 17.5866 71.6844 17.1113C71.7365 16.6361 71.7755 16.0827 71.8016 15.4512L71.9969 10.9297ZM83.1988 18.6348L88.0719 10.9297H89.8883V21.4961H88.0719V13.791L83.1988 21.4961H81.402V10.9297H83.1988V18.6348ZM96.2172 20.207C96.6469 20.207 97.044 20.1191 97.4086 19.9434C97.7732 19.7676 98.0727 19.5267 98.307 19.2207C98.5414 18.9082 98.6749 18.5534 98.7074 18.1562H100.426C100.394 18.7812 100.182 19.3639 99.7914 19.9043C99.4073 20.4382 98.9027 20.8711 98.2777 21.2031C97.6527 21.5286 96.9659 21.6914 96.2172 21.6914C95.4229 21.6914 94.7296 21.5514 94.1371 21.2715C93.5512 20.9915 93.0629 20.6074 92.6723 20.1191C92.2881 19.6309 91.9984 19.071 91.8031 18.4395C91.6143 17.8014 91.5199 17.1276 91.5199 16.418V16.0078C91.5199 15.2982 91.6143 14.6276 91.8031 13.9961C91.9984 13.3581 92.2881 12.7949 92.6723 12.3066C93.0629 11.8184 93.5512 11.4342 94.1371 11.1543C94.7296 10.8743 95.4229 10.7344 96.2172 10.7344C97.044 10.7344 97.7667 10.9036 98.3852 11.2422C99.0036 11.5742 99.4887 12.0299 99.8402 12.6094C100.198 13.1823 100.394 13.8333 100.426 14.5625H98.7074C98.6749 14.1263 98.5512 13.7324 98.3363 13.3809C98.128 13.0293 97.8415 12.7493 97.477 12.541C97.1189 12.3262 96.699 12.2188 96.2172 12.2188C95.6638 12.2188 95.1983 12.3294 94.8207 12.5508C94.4496 12.7656 94.1534 13.0586 93.932 13.4297C93.7172 13.7943 93.5609 14.2012 93.4633 14.6504C93.3721 15.0931 93.3266 15.5456 93.3266 16.0078V16.418C93.3266 16.8802 93.3721 17.3359 93.4633 17.7852C93.5544 18.2344 93.7074 18.6413 93.9223 19.0059C94.1436 19.3704 94.4398 19.6634 94.8109 19.8848C95.1885 20.0996 95.6573 20.207 96.2172 20.207Z" fill="white"/>
<rect x="108" y="0.496094" width="93" height="28" rx="4" fill="white"/>
<rect x="108" y="0.496094" width="93" height="28" rx="4" fill="url(#paint0_linear_2056_20890)" fill-opacity="0.8"/>
<path d="M122.904 7.27734V21.4961H121.049V7.27734H122.904ZM127.475 7.27734V8.82031H116.488V7.27734H127.475ZM133.628 19.6895V14.25C133.628 13.8333 133.543 13.472 133.374 13.166C133.211 12.8535 132.964 12.6126 132.632 12.4434C132.3 12.2741 131.889 12.1895 131.401 12.1895C130.945 12.1895 130.545 12.2676 130.2 12.4238C129.861 12.5801 129.595 12.7852 129.399 13.0391C129.21 13.293 129.116 13.5664 129.116 13.8594H127.309C127.309 13.4818 127.407 13.1074 127.602 12.7363C127.798 12.3652 128.078 12.0299 128.442 11.7305C128.813 11.4245 129.256 11.1836 129.77 11.0078C130.291 10.8255 130.871 10.7344 131.509 10.7344C132.277 10.7344 132.954 10.8646 133.54 11.125C134.132 11.3854 134.595 11.7793 134.927 12.3066C135.265 12.8275 135.434 13.4818 135.434 14.2695V19.1914C135.434 19.543 135.464 19.9173 135.522 20.3145C135.587 20.7116 135.682 21.0534 135.805 21.3398V21.4961H133.921C133.83 21.2878 133.758 21.0111 133.706 20.666C133.654 20.3145 133.628 19.9889 133.628 19.6895ZM133.94 15.0898L133.96 16.3594H132.134C131.619 16.3594 131.16 16.4017 130.757 16.4863C130.353 16.5645 130.014 16.6849 129.741 16.8477C129.468 17.0104 129.259 17.2155 129.116 17.4629C128.973 17.7038 128.901 17.987 128.901 18.3125C128.901 18.6445 128.976 18.9473 129.126 19.2207C129.276 19.4941 129.5 19.7122 129.8 19.875C130.106 20.0312 130.48 20.1094 130.923 20.1094C131.476 20.1094 131.964 19.9922 132.387 19.7578C132.811 19.5234 133.146 19.237 133.393 18.8984C133.647 18.5599 133.784 18.2311 133.804 17.9121L134.575 18.7812C134.529 19.0547 134.406 19.3574 134.204 19.6895C134.002 20.0215 133.732 20.3405 133.393 20.6465C133.061 20.946 132.664 21.1966 132.202 21.3984C131.746 21.5938 131.232 21.6914 130.659 21.6914C129.943 21.6914 129.315 21.5514 128.774 21.2715C128.24 20.9915 127.824 20.6172 127.524 20.1484C127.231 19.6732 127.085 19.1426 127.085 18.5566C127.085 17.9902 127.195 17.4922 127.417 17.0625C127.638 16.6263 127.957 16.265 128.374 15.9785C128.79 15.6855 129.292 15.4642 129.878 15.3145C130.464 15.1647 131.118 15.0898 131.841 15.0898H133.94ZM144.537 10.9297V12.4238H139.429V10.9297H144.537ZM146.129 10.9297V21.4961H144.322V10.9297H146.129ZM138.99 10.9297H140.806L140.533 16.0273C140.487 16.8151 140.412 17.5117 140.308 18.1172C140.211 18.7161 140.074 19.2305 139.898 19.6602C139.729 20.0898 139.514 20.4414 139.254 20.7148C139 20.9818 138.694 21.1803 138.336 21.3105C137.977 21.4342 137.564 21.4961 137.095 21.4961H136.529V19.9043L136.92 19.875C137.199 19.8555 137.437 19.7904 137.632 19.6797C137.834 19.569 138.004 19.4062 138.14 19.1914C138.277 18.9701 138.388 18.6868 138.472 18.3418C138.563 17.9967 138.632 17.5866 138.677 17.1113C138.729 16.6361 138.768 16.0827 138.795 15.4512L138.99 10.9297ZM154.469 19.6895V14.25C154.469 13.8333 154.385 13.472 154.215 13.166C154.052 12.8535 153.805 12.6126 153.473 12.4434C153.141 12.2741 152.731 12.1895 152.243 12.1895C151.787 12.1895 151.386 12.2676 151.041 12.4238C150.703 12.5801 150.436 12.7852 150.241 13.0391C150.052 13.293 149.957 13.5664 149.957 13.8594H148.151C148.151 13.4818 148.248 13.1074 148.444 12.7363C148.639 12.3652 148.919 12.0299 149.284 11.7305C149.655 11.4245 150.097 11.1836 150.612 11.0078C151.133 10.8255 151.712 10.7344 152.35 10.7344C153.118 10.7344 153.795 10.8646 154.381 11.125C154.974 11.3854 155.436 11.7793 155.768 12.3066C156.107 12.8275 156.276 13.4818 156.276 14.2695V19.1914C156.276 19.543 156.305 19.9173 156.364 20.3145C156.429 20.7116 156.523 21.0534 156.647 21.3398V21.4961H154.762C154.671 21.2878 154.599 21.0111 154.547 20.666C154.495 20.3145 154.469 19.9889 154.469 19.6895ZM154.782 15.0898L154.801 16.3594H152.975C152.461 16.3594 152.002 16.4017 151.598 16.4863C151.194 16.5645 150.856 16.6849 150.582 16.8477C150.309 17.0104 150.101 17.2155 149.957 17.4629C149.814 17.7038 149.743 17.987 149.743 18.3125C149.743 18.6445 149.817 18.9473 149.967 19.2207C150.117 19.4941 150.342 19.7122 150.641 19.875C150.947 20.0312 151.321 20.1094 151.764 20.1094C152.317 20.1094 152.806 19.9922 153.229 19.7578C153.652 19.5234 153.987 19.237 154.235 18.8984C154.489 18.5599 154.625 18.2311 154.645 17.9121L155.416 18.7812C155.371 19.0547 155.247 19.3574 155.045 19.6895C154.843 20.0215 154.573 20.3405 154.235 20.6465C153.903 20.946 153.506 21.1966 153.043 21.3984C152.588 21.5938 152.073 21.6914 151.5 21.6914C150.784 21.6914 150.156 21.5514 149.616 21.2715C149.082 20.9915 148.665 20.6172 148.366 20.1484C148.073 19.6732 147.926 19.1426 147.926 18.5566C147.926 17.9902 148.037 17.4922 148.258 17.0625C148.48 16.6263 148.799 16.265 149.215 15.9785C149.632 15.6855 150.133 15.4642 150.719 15.3145C151.305 15.1647 151.959 15.0898 152.682 15.0898H154.782ZM165.486 15.5098V16.9746H159.9V15.5098H165.486ZM160.28 10.9297V21.4961H158.474V10.9297H160.28ZM166.95 10.9297V21.4961H165.134V10.9297H166.95ZM173.367 10.9297V21.4961H171.551V10.9297H173.367ZM176.912 10.9297V12.3945H168.074V10.9297H176.912ZM179.374 14.5625H182.548C183.401 14.5625 184.12 14.7122 184.706 15.0117C185.292 15.3047 185.735 15.7116 186.034 16.2324C186.34 16.7467 186.493 17.3327 186.493 17.9902C186.493 18.4785 186.408 18.9375 186.239 19.3672C186.07 19.7904 185.816 20.1615 185.477 20.4805C185.145 20.7995 184.732 21.0501 184.237 21.2324C183.749 21.4082 183.186 21.4961 182.548 21.4961H178.055V10.9297H179.862V20.0117H182.548C183.068 20.0117 183.485 19.9173 183.798 19.7285C184.11 19.5397 184.335 19.2956 184.471 18.9961C184.608 18.6966 184.677 18.3841 184.677 18.0586C184.677 17.7396 184.608 17.4271 184.471 17.1211C184.335 16.8151 184.11 16.5612 183.798 16.3594C183.485 16.151 183.068 16.0469 182.548 16.0469H179.374V14.5625ZM190.253 10.9297V21.4961H188.446V10.9297H190.253Z" fill="white"/>
<defs>
<linearGradient id="paint0_linear_2056_20890" x1="201" y1="28.4961" x2="173.363" y2="-30.2526" gradientUnits="userSpaceOnUse">
<stop stop-color="#763EDB"/>
<stop offset="1" stop-color="#0058E6"/>
</linearGradient>
</defs>
</svg>
