<svg width="91" height="35" viewBox="0 0 91 35" fill="none" xmlns="http://www.w3.org/2000/svg">
<rect width="91" height="35" rx="4" fill="white"/>
<rect width="91" height="35" rx="4" fill="url(#paint0_linear_2056_44724)" fill-opacity="0.8"/>
<path d="M13.9043 10.2812V24.5H12.0488V10.2812H13.9043ZM18.4746 10.2812V11.8242H7.48828V10.2812H18.4746ZM24.6277 22.6934V17.2539C24.6277 16.8372 24.5431 16.4759 24.3738 16.1699C24.2111 15.8574 23.9637 15.6165 23.6316 15.4473C23.2996 15.278 22.8895 15.1934 22.4012 15.1934C21.9454 15.1934 21.5451 15.2715 21.2 15.4277C20.8615 15.584 20.5945 15.7891 20.3992 16.043C20.2104 16.2969 20.116 16.5703 20.116 16.8633H18.3094C18.3094 16.4857 18.407 16.1113 18.6023 15.7402C18.7977 15.3691 19.0776 15.0339 19.4422 14.7344C19.8133 14.4284 20.256 14.1875 20.7703 14.0117C21.2911 13.8294 21.8706 13.7383 22.5086 13.7383C23.2768 13.7383 23.9539 13.8685 24.5398 14.1289C25.1323 14.3893 25.5945 14.7832 25.9266 15.3105C26.2651 15.8314 26.4344 16.4857 26.4344 17.2734V22.1953C26.4344 22.5469 26.4637 22.9212 26.5223 23.3184C26.5874 23.7155 26.6818 24.0573 26.8055 24.3438V24.5H24.9207C24.8296 24.2917 24.7579 24.015 24.7059 23.6699C24.6538 23.3184 24.6277 22.9928 24.6277 22.6934ZM24.9402 18.0938L24.9598 19.3633H23.1336C22.6193 19.3633 22.1603 19.4056 21.7566 19.4902C21.353 19.5684 21.0145 19.6888 20.741 19.8516C20.4676 20.0143 20.2592 20.2194 20.116 20.4668C19.9728 20.7077 19.9012 20.9909 19.9012 21.3164C19.9012 21.6484 19.976 21.9512 20.1258 22.2246C20.2755 22.498 20.5001 22.7161 20.7996 22.8789C21.1056 23.0352 21.4799 23.1133 21.9227 23.1133C22.476 23.1133 22.9643 22.9961 23.3875 22.7617C23.8107 22.5273 24.146 22.2409 24.3934 21.9023C24.6473 21.5638 24.784 21.235 24.8035 20.916L25.575 21.7852C25.5294 22.0586 25.4057 22.3613 25.2039 22.6934C25.0021 23.0254 24.7319 23.3444 24.3934 23.6504C24.0613 23.9499 23.6642 24.2005 23.202 24.4023C22.7462 24.5977 22.2319 24.6953 21.659 24.6953C20.9428 24.6953 20.3146 24.5553 19.7742 24.2754C19.2404 23.9954 18.8237 23.6211 18.5242 23.1523C18.2312 22.6771 18.0848 22.1465 18.0848 21.5605C18.0848 20.9941 18.1954 20.4961 18.4168 20.0664C18.6382 19.6302 18.9572 19.2689 19.3738 18.9824C19.7905 18.6895 20.2918 18.4681 20.8777 18.3184C21.4637 18.1686 22.118 18.0938 22.8406 18.0938H24.9402ZM35.5367 13.9336V15.4277H30.4293V13.9336H35.5367ZM37.1285 13.9336V24.5H35.3219V13.9336H37.1285ZM29.9898 13.9336H31.8062L31.5328 19.0312C31.4872 19.819 31.4124 20.5156 31.3082 21.1211C31.2105 21.7201 31.0738 22.2344 30.898 22.6641C30.7288 23.0938 30.5139 23.4453 30.2535 23.7188C29.9996 23.9857 29.6936 24.1842 29.3355 24.3145C28.9775 24.4382 28.5641 24.5 28.0953 24.5H27.5289V22.9082L27.9195 22.8789C28.1995 22.8594 28.4371 22.7943 28.6324 22.6836C28.8342 22.5729 29.0035 22.4102 29.1402 22.1953C29.277 21.974 29.3876 21.6908 29.4723 21.3457C29.5634 21.0007 29.6318 20.5905 29.6773 20.1152C29.7294 19.64 29.7685 19.0866 29.7945 18.4551L29.9898 13.9336ZM45.4691 22.6934V17.2539C45.4691 16.8372 45.3845 16.4759 45.2152 16.1699C45.0525 15.8574 44.8051 15.6165 44.473 15.4473C44.141 15.278 43.7309 15.1934 43.2426 15.1934C42.7868 15.1934 42.3865 15.2715 42.0414 15.4277C41.7029 15.584 41.4359 15.7891 41.2406 16.043C41.0518 16.2969 40.9574 16.5703 40.9574 16.8633H39.1508C39.1508 16.4857 39.2484 16.1113 39.4438 15.7402C39.6391 15.3691 39.919 15.0339 40.2836 14.7344C40.6547 14.4284 41.0974 14.1875 41.6117 14.0117C42.1326 13.8294 42.712 13.7383 43.35 13.7383C44.1182 13.7383 44.7953 13.8685 45.3813 14.1289C45.9737 14.3893 46.4359 14.7832 46.768 15.3105C47.1065 15.8314 47.2758 16.4857 47.2758 17.2734V22.1953C47.2758 22.5469 47.3051 22.9212 47.3637 23.3184C47.4288 23.7155 47.5232 24.0573 47.6469 24.3438V24.5H45.7621C45.671 24.2917 45.5993 24.015 45.5473 23.6699C45.4952 23.3184 45.4691 22.9928 45.4691 22.6934ZM45.7816 18.0938L45.8012 19.3633H43.975C43.4607 19.3633 43.0017 19.4056 42.598 19.4902C42.1944 19.5684 41.8559 19.6888 41.5824 19.8516C41.309 20.0143 41.1007 20.2194 40.9574 20.4668C40.8142 20.7077 40.7426 20.9909 40.7426 21.3164C40.7426 21.6484 40.8174 21.9512 40.9672 22.2246C41.1169 22.498 41.3415 22.7161 41.641 22.8789C41.947 23.0352 42.3214 23.1133 42.7641 23.1133C43.3174 23.1133 43.8057 22.9961 44.2289 22.7617C44.6521 22.5273 44.9874 22.2409 45.2348 21.9023C45.4887 21.5638 45.6254 21.235 45.6449 20.916L46.4164 21.7852C46.3708 22.0586 46.2471 22.3613 46.0453 22.6934C45.8435 23.0254 45.5733 23.3444 45.2348 23.6504C44.9027 23.9499 44.5056 24.2005 44.0434 24.4023C43.5876 24.5977 43.0733 24.6953 42.5004 24.6953C41.7842 24.6953 41.156 24.5553 40.6156 24.2754C40.0818 23.9954 39.6651 23.6211 39.3656 23.1523C39.0727 22.6771 38.9262 22.1465 38.9262 21.5605C38.9262 20.9941 39.0368 20.4961 39.2582 20.0664C39.4796 19.6302 39.7986 19.2689 40.2152 18.9824C40.6319 18.6895 41.1332 18.4681 41.7191 18.3184C42.3051 18.1686 42.9594 18.0938 43.682 18.0938H45.7816ZM56.4855 18.5137V19.9785H50.8996V18.5137H56.4855ZM51.2805 13.9336V24.5H49.4738V13.9336H51.2805ZM57.9504 13.9336V24.5H56.134V13.9336H57.9504ZM64.3672 13.9336V24.5H62.5508V13.9336H64.3672ZM67.9121 13.9336V15.3984H59.0742V13.9336H67.9121ZM70.3738 17.5664H73.5477C74.4005 17.5664 75.1199 17.7161 75.7059 18.0156C76.2918 18.3086 76.7345 18.7155 77.034 19.2363C77.34 19.7507 77.493 20.3366 77.493 20.9941C77.493 21.4824 77.4083 21.9414 77.2391 22.3711C77.0698 22.7943 76.8159 23.1654 76.4773 23.4844C76.1453 23.8034 75.7319 24.054 75.2371 24.2363C74.7488 24.4121 74.1857 24.5 73.5477 24.5H69.0555V13.9336H70.8621V23.0156H73.5477C74.0685 23.0156 74.4852 22.9212 74.7977 22.7324C75.1102 22.5436 75.3348 22.2995 75.4715 22C75.6082 21.7005 75.6766 21.388 75.6766 21.0625C75.6766 20.7435 75.6082 20.431 75.4715 20.125C75.3348 19.819 75.1102 19.5651 74.7977 19.3633C74.4852 19.1549 74.0685 19.0508 73.5477 19.0508H70.3738V17.5664ZM81.2527 13.9336V24.5H79.4461V13.9336H81.2527Z" fill="white"/>
<defs>
<linearGradient id="paint0_linear_2056_44724" x1="91" y1="35" x2="51.4022" y2="-30.8907" gradientUnits="userSpaceOnUse">
<stop stop-color="#763EDB"/>
<stop offset="1" stop-color="#0058E6"/>
</linearGradient>
</defs>
</svg>
