<svg width="201" height="28" viewBox="0 0 201 28" fill="none" xmlns="http://www.w3.org/2000/svg">
<path d="M2.24609 6.78125H4.07227L8.73047 18.373L13.3789 6.78125H15.2148L9.43359 21H8.00781L2.24609 6.78125ZM1.65039 6.78125H3.26172L3.52539 15.4531V21H1.65039V6.78125ZM14.1895 6.78125H15.8008V21H13.9258V15.4531L14.1895 6.78125ZM19.991 18.1387L24.8641 10.4336H26.6805V21H24.8641V13.2949L19.991 21H18.1941V10.4336H19.991V18.1387ZM30.5875 12.4648V25.0625H28.7711V10.4336H30.4312L30.5875 12.4648ZM37.7066 15.6289V15.834C37.7066 16.6022 37.6155 17.3151 37.4332 17.9727C37.2509 18.6237 36.984 19.1901 36.6324 19.6719C36.2874 20.1536 35.8609 20.528 35.3531 20.7949C34.8453 21.0618 34.2626 21.1953 33.6051 21.1953C32.9345 21.1953 32.3421 21.0846 31.8277 20.8633C31.3134 20.6419 30.8772 20.3197 30.5191 19.8965C30.1611 19.4733 29.8746 18.9655 29.6598 18.373C29.4514 17.7806 29.3082 17.1133 29.2301 16.3711V15.2773C29.3082 14.4961 29.4547 13.7962 29.6695 13.1777C29.8844 12.5592 30.1676 12.0319 30.5191 11.5957C30.8772 11.153 31.3102 10.8177 31.818 10.5898C32.3258 10.3555 32.9117 10.2383 33.5758 10.2383C34.2398 10.2383 34.829 10.3685 35.3434 10.6289C35.8577 10.8828 36.2906 11.2474 36.6422 11.7227C36.9937 12.1979 37.2574 12.7676 37.4332 13.4316C37.6155 14.0892 37.7066 14.8216 37.7066 15.6289ZM35.8902 15.834V15.6289C35.8902 15.1016 35.8349 14.6068 35.7242 14.1445C35.6135 13.6758 35.441 13.2656 35.2066 12.9141C34.9788 12.556 34.6858 12.276 34.3277 12.0742C33.9697 11.8659 33.5432 11.7617 33.0484 11.7617C32.5927 11.7617 32.1956 11.8398 31.857 11.9961C31.525 12.1523 31.2418 12.3639 31.0074 12.6309C30.773 12.8913 30.581 13.1908 30.4312 13.5293C30.288 13.8613 30.1806 14.2064 30.109 14.5645V17.0938C30.2392 17.5495 30.4215 17.9792 30.6559 18.3828C30.8902 18.7799 31.2027 19.1022 31.5934 19.3496C31.984 19.5905 32.4755 19.7109 33.068 19.7109C33.5562 19.7109 33.9762 19.61 34.3277 19.4082C34.6858 19.1999 34.9788 18.9167 35.2066 18.5586C35.441 18.2005 35.6135 17.7904 35.7242 17.3281C35.8349 16.8594 35.8902 16.3613 35.8902 15.834ZM45.4418 19.1934V13.7539C45.4418 13.3372 45.3572 12.9759 45.1879 12.6699C45.0251 12.3574 44.7777 12.1165 44.4457 11.9473C44.1137 11.778 43.7035 11.6934 43.2152 11.6934C42.7595 11.6934 42.3591 11.7715 42.0141 11.9277C41.6755 12.084 41.4086 12.2891 41.2133 12.543C41.0245 12.7969 40.9301 13.0703 40.9301 13.3633H39.1234C39.1234 12.9857 39.2211 12.6113 39.4164 12.2402C39.6117 11.8691 39.8917 11.5339 40.2562 11.2344C40.6273 10.9284 41.0701 10.6875 41.5844 10.5117C42.1052 10.3294 42.6846 10.2383 43.3227 10.2383C44.0909 10.2383 44.768 10.3685 45.3539 10.6289C45.9464 10.8893 46.4086 11.2832 46.7406 11.8105C47.0792 12.3314 47.2484 12.9857 47.2484 13.7734V18.6953C47.2484 19.0469 47.2777 19.4212 47.3363 19.8184C47.4014 20.2155 47.4958 20.5573 47.6195 20.8438V21H45.7348C45.6436 20.7917 45.572 20.515 45.5199 20.1699C45.4678 19.8184 45.4418 19.4928 45.4418 19.1934ZM45.7543 14.5938L45.7738 15.8633H43.9477C43.4333 15.8633 42.9743 15.9056 42.5707 15.9902C42.1671 16.0684 41.8285 16.1888 41.5551 16.3516C41.2816 16.5143 41.0733 16.7194 40.9301 16.9668C40.7868 17.2077 40.7152 17.4909 40.7152 17.8164C40.7152 18.1484 40.7901 18.4512 40.9398 18.7246C41.0896 18.998 41.3142 19.2161 41.6137 19.3789C41.9197 19.5352 42.294 19.6133 42.7367 19.6133C43.2901 19.6133 43.7784 19.4961 44.2016 19.2617C44.6247 19.0273 44.96 18.7409 45.2074 18.4023C45.4613 18.0638 45.598 17.735 45.6176 17.416L46.3891 18.2852C46.3435 18.5586 46.2198 18.8613 46.018 19.1934C45.8161 19.5254 45.546 19.8444 45.2074 20.1504C44.8754 20.4499 44.4783 20.7005 44.016 20.9023C43.5603 21.0977 43.046 21.1953 42.473 21.1953C41.7569 21.1953 41.1286 21.0553 40.5883 20.7754C40.0544 20.4954 39.6378 20.1211 39.3383 19.6523C39.0453 19.1771 38.8988 18.6465 38.8988 18.0605C38.8988 17.4941 39.0095 16.9961 39.2309 16.5664C39.4522 16.1302 39.7712 15.7689 40.1879 15.4824C40.6046 15.1895 41.1059 14.9681 41.6918 14.8184C42.2777 14.6686 42.932 14.5938 43.6547 14.5938H45.7543ZM56.3312 10.4336V11.9277H50.9895V10.4336H56.3312ZM51.2531 10.4336V21H49.4465V10.4336H51.2531ZM57.9328 10.4336V21H56.1164V10.4336H57.9328ZM59.5547 15.834V15.6094C59.5547 14.8477 59.6654 14.1413 59.8867 13.4902C60.1081 12.8327 60.4271 12.263 60.8438 11.7812C61.2604 11.293 61.765 10.9154 62.3574 10.6484C62.9499 10.375 63.6139 10.2383 64.3496 10.2383C65.0918 10.2383 65.7591 10.375 66.3516 10.6484C66.9505 10.9154 67.4583 11.293 67.875 11.7812C68.2982 12.263 68.6204 12.8327 68.8418 13.4902C69.0632 14.1413 69.1738 14.8477 69.1738 15.6094V15.834C69.1738 16.5957 69.0632 17.3021 68.8418 17.9531C68.6204 18.6042 68.2982 19.1738 67.875 19.6621C67.4583 20.1439 66.9538 20.5215 66.3613 20.7949C65.7754 21.0618 65.1113 21.1953 64.3691 21.1953C63.627 21.1953 62.9596 21.0618 62.3672 20.7949C61.7747 20.5215 61.2669 20.1439 60.8438 19.6621C60.4271 19.1738 60.1081 18.6042 59.8867 17.9531C59.6654 17.3021 59.5547 16.5957 59.5547 15.834ZM61.3613 15.6094V15.834C61.3613 16.3613 61.4232 16.8594 61.5469 17.3281C61.6706 17.7904 61.8561 18.2005 62.1035 18.5586C62.3574 18.9167 62.6732 19.1999 63.0508 19.4082C63.4284 19.61 63.8678 19.7109 64.3691 19.7109C64.8639 19.7109 65.2969 19.61 65.668 19.4082C66.0456 19.1999 66.3581 18.9167 66.6055 18.5586C66.8529 18.2005 67.0384 17.7904 67.1621 17.3281C67.2923 16.8594 67.3574 16.3613 67.3574 15.834V15.6094C67.3574 15.0885 67.2923 14.597 67.1621 14.1348C67.0384 13.666 66.8496 13.2526 66.5957 12.8945C66.3483 12.5299 66.0358 12.2435 65.6582 12.0352C65.2871 11.8268 64.8509 11.7227 64.3496 11.7227C63.8548 11.7227 63.4186 11.8268 63.041 12.0352C62.6699 12.2435 62.3574 12.5299 62.1035 12.8945C61.8561 13.2526 61.6706 13.666 61.5469 14.1348C61.4232 14.597 61.3613 15.0885 61.3613 15.6094ZM77.5437 10.4336V11.9277H72.4363V10.4336H77.5437ZM79.1355 10.4336V21H77.3289V10.4336H79.1355ZM71.9969 10.4336H73.8133L73.5398 15.5312C73.4943 16.319 73.4194 17.0156 73.3152 17.6211C73.2176 18.2201 73.0809 18.7344 72.9051 19.1641C72.7358 19.5938 72.521 19.9453 72.2605 20.2188C72.0066 20.4857 71.7006 20.6842 71.3426 20.8145C70.9845 20.9382 70.5711 21 70.1023 21H69.5359V19.4082L69.9266 19.3789C70.2065 19.3594 70.4441 19.2943 70.6395 19.1836C70.8413 19.0729 71.0105 18.9102 71.1473 18.6953C71.284 18.474 71.3947 18.1908 71.4793 17.8457C71.5704 17.5007 71.6388 17.0905 71.6844 16.6152C71.7365 16.14 71.7755 15.5866 71.8016 14.9551L71.9969 10.4336ZM83.1988 18.1387L88.0719 10.4336H89.8883V21H88.0719V13.2949L83.1988 21H81.402V10.4336H83.1988V18.1387ZM96.2172 19.7109C96.6469 19.7109 97.044 19.623 97.4086 19.4473C97.7732 19.2715 98.0727 19.0306 98.307 18.7246C98.5414 18.4121 98.6749 18.0573 98.7074 17.6602H100.426C100.394 18.2852 100.182 18.8678 99.7914 19.4082C99.4073 19.9421 98.9027 20.375 98.2777 20.707C97.6527 21.0326 96.9659 21.1953 96.2172 21.1953C95.4229 21.1953 94.7296 21.0553 94.1371 20.7754C93.5512 20.4954 93.0629 20.1113 92.6723 19.623C92.2881 19.1348 91.9984 18.5749 91.8031 17.9434C91.6143 17.3053 91.5199 16.6315 91.5199 15.9219V15.5117C91.5199 14.8021 91.6143 14.1315 91.8031 13.5C91.9984 12.862 92.2881 12.2988 92.6723 11.8105C93.0629 11.3223 93.5512 10.9382 94.1371 10.6582C94.7296 10.3783 95.4229 10.2383 96.2172 10.2383C97.044 10.2383 97.7667 10.4076 98.3852 10.7461C99.0036 11.0781 99.4887 11.5339 99.8402 12.1133C100.198 12.6862 100.394 13.3372 100.426 14.0664H98.7074C98.6749 13.6302 98.5512 13.2363 98.3363 12.8848C98.128 12.5332 97.8415 12.2533 97.477 12.0449C97.1189 11.8301 96.699 11.7227 96.2172 11.7227C95.6638 11.7227 95.1983 11.8333 94.8207 12.0547C94.4496 12.2695 94.1534 12.5625 93.932 12.9336C93.7172 13.2982 93.5609 13.7051 93.4633 14.1543C93.3721 14.597 93.3266 15.0495 93.3266 15.5117V15.9219C93.3266 16.3841 93.3721 16.8398 93.4633 17.2891C93.5544 17.7383 93.7074 18.1452 93.9223 18.5098C94.1436 18.8743 94.4398 19.1673 94.8109 19.3887C95.1885 19.6035 95.6573 19.7109 96.2172 19.7109Z" fill="#232323"/>
<rect x="108" width="93" height="28" rx="4" fill="white"/>
<rect x="108" width="93" height="28" rx="4" fill="url(#paint0_linear_2056_20923)" fill-opacity="0.8"/>
<path d="M122.904 6.78125V21H121.049V6.78125H122.904ZM127.475 6.78125V8.32422H116.488V6.78125H127.475ZM133.628 19.1934V13.7539C133.628 13.3372 133.543 12.9759 133.374 12.6699C133.211 12.3574 132.964 12.1165 132.632 11.9473C132.3 11.778 131.889 11.6934 131.401 11.6934C130.945 11.6934 130.545 11.7715 130.2 11.9277C129.861 12.084 129.595 12.2891 129.399 12.543C129.21 12.7969 129.116 13.0703 129.116 13.3633H127.309C127.309 12.9857 127.407 12.6113 127.602 12.2402C127.798 11.8691 128.078 11.5339 128.442 11.2344C128.813 10.9284 129.256 10.6875 129.77 10.5117C130.291 10.3294 130.871 10.2383 131.509 10.2383C132.277 10.2383 132.954 10.3685 133.54 10.6289C134.132 10.8893 134.595 11.2832 134.927 11.8105C135.265 12.3314 135.434 12.9857 135.434 13.7734V18.6953C135.434 19.0469 135.464 19.4212 135.522 19.8184C135.587 20.2155 135.682 20.5573 135.805 20.8438V21H133.921C133.83 20.7917 133.758 20.515 133.706 20.1699C133.654 19.8184 133.628 19.4928 133.628 19.1934ZM133.94 14.5938L133.96 15.8633H132.134C131.619 15.8633 131.16 15.9056 130.757 15.9902C130.353 16.0684 130.014 16.1888 129.741 16.3516C129.468 16.5143 129.259 16.7194 129.116 16.9668C128.973 17.2077 128.901 17.4909 128.901 17.8164C128.901 18.1484 128.976 18.4512 129.126 18.7246C129.276 18.998 129.5 19.2161 129.8 19.3789C130.106 19.5352 130.48 19.6133 130.923 19.6133C131.476 19.6133 131.964 19.4961 132.387 19.2617C132.811 19.0273 133.146 18.7409 133.393 18.4023C133.647 18.0638 133.784 17.735 133.804 17.416L134.575 18.2852C134.529 18.5586 134.406 18.8613 134.204 19.1934C134.002 19.5254 133.732 19.8444 133.393 20.1504C133.061 20.4499 132.664 20.7005 132.202 20.9023C131.746 21.0977 131.232 21.1953 130.659 21.1953C129.943 21.1953 129.315 21.0553 128.774 20.7754C128.24 20.4954 127.824 20.1211 127.524 19.6523C127.231 19.1771 127.085 18.6465 127.085 18.0605C127.085 17.4941 127.195 16.9961 127.417 16.5664C127.638 16.1302 127.957 15.7689 128.374 15.4824C128.79 15.1895 129.292 14.9681 129.878 14.8184C130.464 14.6686 131.118 14.5938 131.841 14.5938H133.94ZM144.537 10.4336V11.9277H139.429V10.4336H144.537ZM146.129 10.4336V21H144.322V10.4336H146.129ZM138.99 10.4336H140.806L140.533 15.5312C140.487 16.319 140.412 17.0156 140.308 17.6211C140.211 18.2201 140.074 18.7344 139.898 19.1641C139.729 19.5938 139.514 19.9453 139.254 20.2188C139 20.4857 138.694 20.6842 138.336 20.8145C137.977 20.9382 137.564 21 137.095 21H136.529V19.4082L136.92 19.3789C137.199 19.3594 137.437 19.2943 137.632 19.1836C137.834 19.0729 138.004 18.9102 138.14 18.6953C138.277 18.474 138.388 18.1908 138.472 17.8457C138.563 17.5007 138.632 17.0905 138.677 16.6152C138.729 16.14 138.768 15.5866 138.795 14.9551L138.99 10.4336ZM154.469 19.1934V13.7539C154.469 13.3372 154.385 12.9759 154.215 12.6699C154.052 12.3574 153.805 12.1165 153.473 11.9473C153.141 11.778 152.731 11.6934 152.243 11.6934C151.787 11.6934 151.386 11.7715 151.041 11.9277C150.703 12.084 150.436 12.2891 150.241 12.543C150.052 12.7969 149.957 13.0703 149.957 13.3633H148.151C148.151 12.9857 148.248 12.6113 148.444 12.2402C148.639 11.8691 148.919 11.5339 149.284 11.2344C149.655 10.9284 150.097 10.6875 150.612 10.5117C151.133 10.3294 151.712 10.2383 152.35 10.2383C153.118 10.2383 153.795 10.3685 154.381 10.6289C154.974 10.8893 155.436 11.2832 155.768 11.8105C156.107 12.3314 156.276 12.9857 156.276 13.7734V18.6953C156.276 19.0469 156.305 19.4212 156.364 19.8184C156.429 20.2155 156.523 20.5573 156.647 20.8438V21H154.762C154.671 20.7917 154.599 20.515 154.547 20.1699C154.495 19.8184 154.469 19.4928 154.469 19.1934ZM154.782 14.5938L154.801 15.8633H152.975C152.461 15.8633 152.002 15.9056 151.598 15.9902C151.194 16.0684 150.856 16.1888 150.582 16.3516C150.309 16.5143 150.101 16.7194 149.957 16.9668C149.814 17.2077 149.743 17.4909 149.743 17.8164C149.743 18.1484 149.817 18.4512 149.967 18.7246C150.117 18.998 150.342 19.2161 150.641 19.3789C150.947 19.5352 151.321 19.6133 151.764 19.6133C152.317 19.6133 152.806 19.4961 153.229 19.2617C153.652 19.0273 153.987 18.7409 154.235 18.4023C154.489 18.0638 154.625 17.735 154.645 17.416L155.416 18.2852C155.371 18.5586 155.247 18.8613 155.045 19.1934C154.843 19.5254 154.573 19.8444 154.235 20.1504C153.903 20.4499 153.506 20.7005 153.043 20.9023C152.588 21.0977 152.073 21.1953 151.5 21.1953C150.784 21.1953 150.156 21.0553 149.616 20.7754C149.082 20.4954 148.665 20.1211 148.366 19.6523C148.073 19.1771 147.926 18.6465 147.926 18.0605C147.926 17.4941 148.037 16.9961 148.258 16.5664C148.48 16.1302 148.799 15.7689 149.215 15.4824C149.632 15.1895 150.133 14.9681 150.719 14.8184C151.305 14.6686 151.959 14.5938 152.682 14.5938H154.782ZM165.486 15.0137V16.4785H159.9V15.0137H165.486ZM160.28 10.4336V21H158.474V10.4336H160.28ZM166.95 10.4336V21H165.134V10.4336H166.95ZM173.367 10.4336V21H171.551V10.4336H173.367ZM176.912 10.4336V11.8984H168.074V10.4336H176.912ZM179.374 14.0664H182.548C183.401 14.0664 184.12 14.2161 184.706 14.5156C185.292 14.8086 185.735 15.2155 186.034 15.7363C186.34 16.2507 186.493 16.8366 186.493 17.4941C186.493 17.9824 186.408 18.4414 186.239 18.8711C186.07 19.2943 185.816 19.6654 185.477 19.9844C185.145 20.3034 184.732 20.554 184.237 20.7363C183.749 20.9121 183.186 21 182.548 21H178.055V10.4336H179.862V19.5156H182.548C183.068 19.5156 183.485 19.4212 183.798 19.2324C184.11 19.0436 184.335 18.7995 184.471 18.5C184.608 18.2005 184.677 17.888 184.677 17.5625C184.677 17.2435 184.608 16.931 184.471 16.625C184.335 16.319 184.11 16.0651 183.798 15.8633C183.485 15.6549 183.068 15.5508 182.548 15.5508H179.374V14.0664ZM190.253 10.4336V21H188.446V10.4336H190.253Z" fill="white"/>
<defs>
<linearGradient id="paint0_linear_2056_20923" x1="201" y1="28" x2="173.363" y2="-30.7487" gradientUnits="userSpaceOnUse">
<stop stop-color="#763EDB"/>
<stop offset="1" stop-color="#0058E6"/>
</linearGradient>
</defs>
</svg>
